<svg width="630" height="640" viewBox="0 0 630 640" fill="none" xmlns="http://www.w3.org/2000/svg">
<g clip-path="url(#clip0_261_1936)">
<path fill-rule="evenodd" clip-rule="evenodd" d="M628.206 52.9665C628.206 34.9873 613.574 20.3555 595.595 20.3555C488.799 20.3555 150.162 20.3555 43.3122 20.3555C25.333 20.3555 10.7012 34.9873 10.7012 52.9665C10.7012 159.816 10.7012 498.453 10.7012 605.249C10.7012 623.282 25.333 637.86 43.3122 637.86C150.162 637.86 488.799 637.86 595.595 637.86C613.574 637.86 628.206 623.282 628.206 605.249C628.206 498.453 628.206 159.816 628.206 52.9665Z" fill="#FCF9F5"/>
<path fill-rule="evenodd" clip-rule="evenodd" d="M59.6718 20.3555V38.2268H26.0888V25.2687C25.8189 25.4847 25.4409 25.7007 25.117 25.9166V38.2268H14.2646C13.9407 38.8207 13.6167 39.4686 13.3468 40.1165H25.117V72.6736H10.7012V74.6173H25.117V107.174H10.7012V109.118H25.117V141.675H10.7012V143.619H25.117V176.176H10.7012V178.066H25.117V210.623H10.7012V212.566H25.117V245.124H10.7012V247.067H25.117V279.624H10.7012V281.514H25.117V314.125H10.7012V316.015H25.117V348.626H10.7012V350.516H25.117V383.073H10.7012V385.016H25.117V417.573H10.7012V419.517H25.117V452.074H10.7012V453.964H25.117V486.575H10.7012V488.465H25.117V521.022H10.7012V522.966H25.117V555.523H10.7012V557.466H25.117V590.023H10.7012V591.913H25.117V624.524H17.0182C17.5042 625.172 17.9901 625.82 18.53 626.414H25.117V632.299C25.4949 632.569 25.8189 632.731 26.0888 632.947V626.414H59.6718V637.86H60.5896V626.414H94.1186V637.86H95.0904V626.414H128.619V637.86H129.591V626.414H163.12V637.86H164.092V626.414H197.621V637.86H198.539V626.414H232.068V637.86H233.04V626.414H266.569V637.86H267.54V626.414H301.069V637.86H302.041V626.414H335.57V637.86H336.488V626.414H370.017V637.86H370.989V626.414H404.518V637.86H405.49V626.414H439.018V637.86H439.99V626.414H473.519V637.86H474.491V626.414H507.966V637.86H508.938V626.414H542.467V637.86H543.439V626.414H576.968V637.86H577.939V626.414H611.468V633.757C611.792 633.541 612.116 633.379 612.44 633.163V626.414H620.377C620.917 625.82 621.403 625.172 621.889 624.524H612.44V591.913H628.206V590.023H612.44V557.466H628.206V555.523H612.44V522.966H628.206V521.022H612.44V488.465H628.206V486.575H612.44V453.964H628.206V452.074H612.44V419.517H628.206V417.573H612.44V385.016H628.206V383.073H612.44V350.516H628.206V348.626H612.44V316.015H628.206V314.125H612.44V281.514H628.206V279.624H612.44V247.067H628.206V245.124H612.44V212.566H628.206V210.623H612.44V178.066H628.206V176.176H612.44V143.619H628.206V141.675H612.44V109.118H628.206V107.174H612.44V74.6173H628.206V72.6736H612.44V40.1165H625.56C625.29 39.4686 624.966 38.8207 624.642 38.2268H612.44V25.0528C612.116 24.8908 611.792 24.6748 611.468 24.5128V38.2268H577.939V20.3555H576.968V38.2268H543.439V20.3555H542.467V38.2268H508.938V20.3555H507.966V38.2268H474.491V20.3555H473.519V38.2268H439.99V20.3555H439.018V38.2268H405.49V20.3555H404.518V38.2268H370.989V20.3555H370.017V38.2268H336.488V20.3555H335.57V38.2268H302.041V20.3555H301.069V38.2268H267.54V20.3555H266.569V38.2268H233.04V20.3555H232.068V38.2268H198.539V20.3555H197.621V38.2268H164.092V20.3555H163.12V38.2268H129.591V20.3555H128.619V38.2268H95.0904V20.3555H94.1186V38.2268H60.5896V20.3555H59.6718ZM26.0888 591.913V624.524H59.6718V591.913H26.0888ZM60.5896 591.913V624.524H94.1186V591.913H60.5896ZM95.0904 591.913V624.524H128.619V591.913H95.0904ZM129.591 591.913V624.524H163.12V591.913H129.591ZM164.092 591.913V624.524H197.621V591.913H164.092ZM198.539 591.913V624.524H232.068V591.913H198.539ZM233.04 591.913V624.524H266.569V591.913H233.04ZM267.54 591.913V624.524H301.069V591.913H267.54ZM302.041 591.913V624.524H335.57V591.913H302.041ZM336.488 591.913V624.524H370.017V591.913H336.488ZM370.989 591.913V624.524H404.518V591.913H370.989ZM405.49 591.913V624.524H439.018V591.913H405.49ZM439.99 591.913V624.524H473.519V591.913H439.99ZM474.491 591.913V624.524H507.966V591.913H474.491ZM508.938 591.913V624.524H542.467V591.913H508.938ZM543.439 591.913V624.524H576.968V591.913H543.439ZM577.939 591.913V624.524H611.468V591.913H577.939ZM577.939 557.466V590.023H611.468V557.466H577.939ZM543.439 557.466V590.023H576.968V557.466H543.439ZM508.938 557.466V590.023H542.467V557.466H508.938ZM474.491 557.466V590.023H507.966V557.466H474.491ZM439.99 557.466V590.023H473.519V557.466H439.99ZM405.49 557.466V590.023H439.018V557.466H405.49ZM370.989 557.466V590.023H404.518V557.466H370.989ZM336.488 557.466V590.023H370.017V557.466H336.488ZM302.041 557.466V590.023H335.57V557.466H302.041ZM267.54 557.466V590.023H301.069V557.466H267.54ZM233.04 557.466V590.023H266.569V557.466H233.04ZM198.539 557.466V590.023H232.068V557.466H198.539ZM164.092 557.466V590.023H197.621V557.466H164.092ZM129.591 557.466V590.023H163.12V557.466H129.591ZM95.0904 557.466V590.023H128.619V557.466H95.0904ZM60.5896 557.466V590.023H94.1186V557.466H60.5896ZM26.0888 557.466V590.023H59.6718V557.466H26.0888ZM26.0888 522.966V555.523H59.6718V522.966H26.0888ZM60.5896 522.966V555.523H94.1186V522.966H60.5896ZM95.0904 522.966V555.523H128.619V522.966H95.0904ZM129.591 522.966V555.523H163.12V522.966H129.591ZM164.092 522.966V555.523H197.621V522.966H164.092ZM198.539 522.966V555.523H232.068V522.966H198.539ZM233.04 522.966V555.523H266.569V522.966H233.04ZM267.54 522.966V555.523H301.069V522.966H267.54ZM302.041 522.966V555.523H335.57V522.966H302.041ZM336.488 522.966V555.523H370.017V522.966H336.488ZM370.989 522.966V555.523H404.518V522.966H370.989ZM405.49 522.966V555.523H439.018V522.966H405.49ZM439.99 522.966V555.523H473.519V522.966H439.99ZM474.491 522.966V555.523H507.966V522.966H474.491ZM508.938 522.966V555.523H542.467V522.966H508.938ZM543.439 522.966V555.523H576.968V522.966H543.439ZM577.939 522.966V555.523H611.468V522.966H577.939ZM577.939 488.465V521.022H611.468V488.465H577.939ZM543.439 488.465V521.022H576.968V488.465H543.439ZM508.938 488.465V521.022H542.467V488.465H508.938ZM474.491 488.465V521.022H507.966V488.465H474.491ZM439.99 488.465V521.022H473.519V488.465H439.99ZM405.49 488.465V521.022H439.018V488.465H405.49ZM370.989 488.465V521.022H404.518V488.465H370.989ZM336.488 488.465V521.022H370.017V488.465H336.488ZM302.041 488.465V521.022H335.57V488.465H302.041ZM267.54 488.465V521.022H301.069V488.465H267.54ZM233.04 488.465V521.022H266.569V488.465H233.04ZM198.539 488.465V521.022H232.068V488.465H198.539ZM164.092 488.465V521.022H197.621V488.465H164.092ZM129.591 488.465V521.022H163.12V488.465H129.591ZM95.0904 488.465V521.022H128.619V488.465H95.0904ZM60.5896 488.465V521.022H94.1186V488.465H60.5896ZM26.0888 488.465V521.022H59.6718V488.465H26.0888ZM26.0888 453.964V486.575H59.6718V453.964H26.0888ZM60.5896 453.964V486.575H94.1186V453.964H60.5896ZM95.0904 453.964V486.575H128.619V453.964H95.0904ZM129.591 453.964V486.575H163.12V453.964H129.591ZM164.092 453.964V486.575H197.621V453.964H164.092ZM198.539 453.964V486.575H232.068V453.964H198.539ZM233.04 453.964V486.575H266.569V453.964H233.04ZM267.54 453.964V486.575H301.069V453.964H267.54ZM302.041 453.964V486.575H335.57V453.964H302.041ZM336.488 453.964V486.575H370.017V453.964H336.488ZM370.989 453.964V486.575H404.518V453.964H370.989ZM405.49 453.964V486.575H439.018V453.964H405.49ZM439.99 453.964V486.575H473.519V453.964H439.99ZM474.491 453.964V486.575H507.966V453.964H474.491ZM508.938 453.964V486.575H542.467V453.964H508.938ZM543.439 453.964V486.575H576.968V453.964H543.439ZM577.939 453.964V486.575H611.468V453.964H577.939ZM577.939 419.517V452.074H611.468V419.517H577.939ZM543.439 419.517V452.074H576.968V419.517H543.439ZM508.938 419.517V452.074H542.467V419.517H508.938ZM474.491 419.517V452.074H507.966V419.517H474.491ZM439.99 419.517V452.074H473.519V419.517H439.99ZM405.49 419.517V452.074H439.018V419.517H405.49ZM370.989 419.517V452.074H404.518V419.517H370.989ZM336.488 419.517V452.074H370.017V419.517H336.488ZM302.041 419.517V452.074H335.57V419.517H302.041ZM267.54 419.517V452.074H301.069V419.517H267.54ZM233.04 419.517V452.074H266.569V419.517H233.04ZM198.539 419.517V452.074H232.068V419.517H198.539ZM164.092 419.517V452.074H197.621V419.517H164.092ZM129.591 419.517V452.074H163.12V419.517H129.591ZM95.0904 419.517V452.074H128.619V419.517H95.0904ZM60.5896 419.517V452.074H94.1186V419.517H60.5896ZM26.0888 419.517V452.074H59.6718V419.517H26.0888ZM577.939 385.016V417.573H611.468V385.016H577.939ZM543.439 385.016V417.573H576.968V385.016H543.439ZM508.938 385.016V417.573H542.467V385.016H508.938ZM474.491 385.016V417.573H507.966V385.016H474.491ZM439.99 385.016V417.573H473.519V385.016H439.99ZM405.49 385.016V417.573H439.018V385.016H405.49ZM370.989 385.016V417.573H404.518V385.016H370.989ZM336.488 385.016V417.573H370.017V385.016H336.488ZM302.041 385.016V417.573H335.57V385.016H302.041ZM267.54 385.016V417.573H301.069V385.016H267.54ZM233.04 385.016V417.573H266.569V385.016H233.04ZM198.539 385.016V417.573H232.068V385.016H198.539ZM164.092 385.016V417.573H197.621V385.016H164.092ZM129.591 385.016V417.573H163.12V385.016H129.591ZM95.0904 385.016V417.573H128.619V385.016H95.0904ZM60.5896 385.016V417.573H94.1186V385.016H60.5896ZM26.0888 385.016V417.573H59.6718V385.016H26.0888ZM26.0888 350.516V383.073H59.6718V350.516H26.0888ZM60.5896 350.516V383.073H94.1186V350.516H60.5896ZM95.0904 350.516V383.073H128.619V350.516H95.0904ZM129.591 350.516V383.073H163.12V350.516H129.591ZM164.092 350.516V383.073H197.621V350.516H164.092ZM198.539 350.516V383.073H232.068V350.516H198.539ZM233.04 350.516V383.073H266.569V350.516H233.04ZM267.54 350.516V383.073H301.069V350.516H267.54ZM302.041 350.516V383.073H335.57V350.516H302.041ZM336.488 350.516V383.073H370.017V350.516H336.488ZM370.989 350.516V383.073H404.518V350.516H370.989ZM405.49 350.516V383.073H439.018V350.516H405.49ZM439.99 350.516V383.073H473.519V350.516H439.99ZM474.491 350.516V383.073H507.966V350.516H474.491ZM508.938 350.516V383.073H542.467V350.516H508.938ZM543.439 350.516V383.073H576.968V350.516H543.439ZM577.939 350.516V383.073H611.468V350.516H577.939ZM577.939 316.015V348.626H611.468V316.015H577.939ZM543.439 316.015V348.626H576.968V316.015H543.439ZM508.938 316.015V348.626H542.467V316.015H508.938ZM474.491 316.015V348.626H507.966V316.015H474.491ZM439.99 316.015V348.626H473.519V316.015H439.99ZM405.49 316.015V348.626H439.018V316.015H405.49ZM370.989 316.015V348.626H404.518V316.015H370.989ZM336.488 316.015V348.626H370.017V316.015H336.488ZM302.041 316.015V348.626H335.57V316.015H302.041ZM267.54 316.015V348.626H301.069V316.015H267.54ZM233.04 316.015V348.626H266.569V316.015H233.04ZM198.539 316.015V348.626H232.068V316.015H198.539ZM164.092 316.015V348.626H197.621V316.015H164.092ZM129.591 316.015V348.626H163.12V316.015H129.591ZM95.0904 316.015V348.626H128.619V316.015H95.0904ZM60.5896 316.015V348.626H94.1186V316.015H60.5896ZM26.0888 316.015V348.626H59.6718V316.015H26.0888ZM26.0888 281.514V314.125H59.6718V281.514H26.0888ZM60.5896 281.514V314.125H94.1186V281.514H60.5896ZM95.0904 281.514V314.125H128.619V281.514H95.0904ZM129.591 281.514V314.125H163.12V281.514H129.591ZM164.092 281.514V314.125H197.621V281.514H164.092ZM198.539 281.514V314.125H232.068V281.514H198.539ZM233.04 281.514V314.125H266.569V281.514H233.04ZM267.54 281.514V314.125H301.069V281.514H267.54ZM302.041 281.514V314.125H335.57V281.514H302.041ZM336.488 281.514V314.125H370.017V281.514H336.488ZM370.989 281.514V314.125H404.518V281.514H370.989ZM405.49 281.514V314.125H439.018V281.514H405.49ZM439.99 281.514V314.125H473.519V281.514H439.99ZM474.491 281.514V314.125H507.966V281.514H474.491ZM508.938 281.514V314.125H542.467V281.514H508.938ZM543.439 281.514V314.125H576.968V281.514H543.439ZM577.939 281.514V314.125H611.468V281.514H577.939ZM577.939 247.067V279.624H611.468V247.067H577.939ZM543.439 247.067V279.624H576.968V247.067H543.439ZM508.938 247.067V279.624H542.467V247.067H508.938ZM474.491 247.067V279.624H507.966V247.067H474.491ZM439.99 247.067V279.624H473.519V247.067H439.99ZM405.49 247.067V279.624H439.018V247.067H405.49ZM370.989 247.067V279.624H404.518V247.067H370.989ZM336.488 247.067V279.624H370.017V247.067H336.488ZM302.041 247.067V279.624H335.57V247.067H302.041ZM267.54 247.067V279.624H301.069V247.067H267.54ZM233.04 247.067V279.624H266.569V247.067H233.04ZM198.539 247.067V279.624H232.068V247.067H198.539ZM164.092 247.067V279.624H197.621V247.067H164.092ZM129.591 247.067V279.624H163.12V247.067H129.591ZM95.0904 247.067V279.624H128.619V247.067H95.0904ZM60.5896 247.067V279.624H94.1186V247.067H60.5896ZM26.0888 247.067V279.624H59.6718V247.067H26.0888ZM577.939 212.566V245.124H611.468V212.566H577.939ZM543.439 212.566V245.124H576.968V212.566H543.439ZM508.938 212.566V245.124H542.467V212.566H508.938ZM474.491 212.566V245.124H507.966V212.566H474.491ZM439.99 212.566V245.124H473.519V212.566H439.99ZM405.49 212.566V245.124H439.018V212.566H405.49ZM370.989 212.566V245.124H404.518V212.566H370.989ZM336.488 212.566V245.124H370.017V212.566H336.488ZM302.041 212.566V245.124H335.57V212.566H302.041ZM267.54 212.566V245.124H301.069V212.566H267.54ZM233.04 212.566V245.124H266.569V212.566H233.04ZM198.539 212.566V245.124H232.068V212.566H198.539ZM164.092 212.566V245.124H197.621V212.566H164.092ZM129.591 212.566V245.124H163.12V212.566H129.591ZM95.0904 212.566V245.124H128.619V212.566H95.0904ZM60.5896 212.566V245.124H94.1186V212.566H60.5896ZM26.0888 212.566V245.124H59.6718V212.566H26.0888ZM577.939 178.066V210.623H611.468V178.066H577.939ZM543.439 178.066V210.623H576.968V178.066H543.439ZM508.938 178.066V210.623H542.467V178.066H508.938ZM474.491 178.066V210.623H507.966V178.066H474.491ZM439.99 178.066V210.623H473.519V178.066H439.99ZM405.49 178.066V210.623H439.018V178.066H405.49ZM370.989 178.066V210.623H404.518V178.066H370.989ZM336.488 178.066V210.623H370.017V178.066H336.488ZM302.041 178.066V210.623H335.57V178.066H302.041ZM267.54 178.066V210.623H301.069V178.066H267.54ZM233.04 178.066V210.623H266.569V178.066H233.04ZM198.539 178.066V210.623H232.068V178.066H198.539ZM164.092 178.066V210.623H197.621V178.066H164.092ZM129.591 178.066V210.623H163.12V178.066H129.591ZM95.0904 178.066V210.623H128.619V178.066H95.0904ZM60.5896 178.066V210.623H94.1186V178.066H60.5896ZM26.0888 178.066V210.623H59.6718V178.066H26.0888ZM577.939 143.619V176.176H611.468V143.619H577.939ZM543.439 143.619V176.176H576.968V143.619H543.439ZM508.938 143.619V176.176H542.467V143.619H508.938ZM474.491 143.619V176.176H507.966V143.619H474.491ZM439.99 143.619V176.176H473.519V143.619H439.99ZM405.49 143.619V176.176H439.018V143.619H405.49ZM370.989 143.619V176.176H404.518V143.619H370.989ZM336.488 143.619V176.176H370.017V143.619H336.488ZM302.041 143.619V176.176H335.57V143.619H302.041ZM267.54 143.619V176.176H301.069V143.619H267.54ZM233.04 143.619V176.176H266.569V143.619H233.04ZM198.539 143.619V176.176H232.068V143.619H198.539ZM164.092 143.619V176.176H197.621V143.619H164.092ZM129.591 143.619V176.176H163.12V143.619H129.591ZM95.0904 143.619V176.176H128.619V143.619H95.0904ZM60.5896 143.619V176.176H94.1186V143.619H60.5896ZM26.0888 143.619V176.176H59.6718V143.619H26.0888ZM577.939 109.118V141.675H611.468V109.118H577.939ZM543.439 109.118V141.675H576.968V109.118H543.439ZM508.938 109.118V141.675H542.467V109.118H508.938ZM474.491 109.118V141.675H507.966V109.118H474.491ZM439.99 109.118V141.675H473.519V109.118H439.99ZM405.49 109.118V141.675H439.018V109.118H405.49ZM370.989 109.118V141.675H404.518V109.118H370.989ZM336.488 109.118V141.675H370.017V109.118H336.488ZM302.041 109.118V141.675H335.57V109.118H302.041ZM267.54 109.118V141.675H301.069V109.118H267.54ZM233.04 109.118V141.675H266.569V109.118H233.04ZM198.539 109.118V141.675H232.068V109.118H198.539ZM164.092 109.118V141.675H197.621V109.118H164.092ZM129.591 109.118V141.675H163.12V109.118H129.591ZM95.0904 109.118V141.675H128.619V109.118H95.0904ZM60.5896 109.118V141.675H94.1186V109.118H60.5896ZM26.0888 109.118V141.675H59.6718V109.118H26.0888ZM26.0888 74.6173V107.174H59.6718V74.6173H26.0888ZM60.5896 74.6173V107.174H94.1186V74.6173H60.5896ZM95.0904 74.6173V107.174H128.619V74.6173H95.0904ZM129.591 74.6173V107.174H163.12V74.6173H129.591ZM164.092 74.6173V107.174H197.621V74.6173H164.092ZM198.539 74.6173V107.174H232.068V74.6173H198.539ZM233.04 74.6173V107.174H266.569V74.6173H233.04ZM267.54 74.6173V107.174H301.069V74.6173H267.54ZM302.041 74.6173V107.174H335.57V74.6173H302.041ZM336.488 74.6173V107.174H370.017V74.6173H336.488ZM370.989 74.6173V107.174H404.518V74.6173H370.989ZM405.49 74.6173V107.174H439.018V74.6173H405.49ZM439.99 74.6173V107.174H473.519V74.6173H439.99ZM474.491 74.6173V107.174H507.966V74.6173H474.491ZM508.938 74.6173V107.174H542.467V74.6173H508.938ZM543.439 74.6173V107.174H576.968V74.6173H543.439ZM577.939 74.6173V107.174H611.468V74.6173H577.939ZM577.939 40.1165V72.6736H611.468V40.1165H577.939ZM543.439 40.1165V72.6736H576.968V40.1165H543.439ZM508.938 40.1165V72.6736H542.467V40.1165H508.938ZM474.491 40.1165V72.6736H507.966V40.1165H474.491ZM439.99 40.1165V72.6736H473.519V40.1165H439.99ZM405.49 40.1165V72.6736H439.018V40.1165H405.49ZM370.989 40.1165V72.6736H404.518V40.1165H370.989ZM336.488 40.1165V72.6736H370.017V40.1165H336.488ZM302.041 40.1165V72.6736H335.57V40.1165H302.041ZM267.54 40.1165V72.6736H301.069V40.1165H267.54ZM233.04 40.1165V72.6736H266.569V40.1165H233.04ZM198.539 40.1165V72.6736H232.068V40.1165H198.539ZM164.092 40.1165V72.6736H197.621V40.1165H164.092ZM129.591 40.1165V72.6736H163.12V40.1165H129.591ZM95.0904 40.1165V72.6736H128.619V40.1165H95.0904ZM60.5896 40.1165V72.6736H94.1186V40.1165H60.5896ZM26.0888 40.1165V72.6736H59.6718V40.1165H26.0888Z" fill="#CEC8C8"/>
<path fill-rule="evenodd" clip-rule="evenodd" d="M629.933 52.9667C629.933 34.0156 614.545 18.6279 595.594 18.6279C488.798 18.6279 150.161 18.6279 43.3115 18.6279C24.3603 18.6279 8.97266 34.0156 8.97266 52.9667C8.97266 159.817 8.97266 498.454 8.97266 605.249C8.97266 624.201 24.3603 639.588 43.3115 639.588C150.161 639.588 488.798 639.588 595.594 639.588C614.545 639.588 629.933 624.201 629.933 605.249C629.933 498.454 629.933 159.817 629.933 52.9667ZM626.423 52.9667V605.249C626.423 622.311 612.602 636.133 595.594 636.133C488.798 636.133 150.161 636.133 43.3115 636.133C26.25 636.133 12.4281 622.311 12.4281 605.249C12.4281 498.454 12.4281 159.817 12.4281 52.9667C12.4281 35.9593 26.25 22.1374 43.3115 22.1374C150.161 22.1374 488.798 22.1374 595.594 22.1374C612.602 22.1374 626.423 35.9593 626.423 52.9667Z" fill="#7890EB"/>
</g>
<g clip-path="url(#clip1_261_1936)">
<path fill-rule="evenodd" clip-rule="evenodd" d="M109.592 12.4748C109.592 8.8927 108.202 5.47095 105.636 2.90463C103.123 0.391797 99.6478 -1.05176 96.0657 -1.05176C92.4835 -1.05176 89.0618 0.391797 86.4955 2.90463C83.9826 5.47095 82.5391 8.8927 82.5391 12.4748V73.104C82.5391 76.6861 83.9826 80.1079 86.4955 82.6742C89.0618 85.1871 92.4835 86.6306 96.0657 86.6306C99.6478 86.6306 103.123 85.1871 105.636 82.6742C108.202 80.1079 109.592 76.6861 109.592 73.104V33.2727C109.592 32.1499 108.683 31.241 107.561 31.241C106.384 31.241 105.475 32.1499 105.475 33.2727C105.475 33.2727 105.475 64.5496 105.475 73.104C105.475 75.5634 104.513 77.9693 102.749 79.7336C100.984 81.498 98.5785 82.5138 96.0657 82.5138C93.6063 82.5138 91.2004 81.498 89.436 79.7336C87.6717 77.9693 86.6559 75.5634 86.6559 73.104C86.6559 57.1715 86.6559 28.4608 86.6559 12.4748C86.6559 10.0155 87.6717 7.60954 89.436 5.84521C91.2004 4.08087 93.6063 3.06503 96.0657 3.06503C98.5785 3.06503 100.984 4.08087 102.749 5.84521C104.513 7.60954 105.475 10.0155 105.475 12.4748C105.475 13.6511 106.384 14.56 107.561 14.56C108.683 14.56 109.592 13.6511 109.592 12.4748Z" fill="#7890EB"/>
<path fill-rule="evenodd" clip-rule="evenodd" d="M109.593 19.2109C109.593 19.2109 109.593 14.5598 109.593 12.4749C109.593 11.3522 108.684 10.4434 107.562 10.4434C106.385 10.4434 105.477 11.3522 105.477 12.4749C105.477 14.5598 105.477 19.2109 105.477 19.2109C105.477 20.3336 106.385 21.2959 107.562 21.2959C108.684 21.2959 109.593 20.3336 109.593 19.2109Z" fill="#7890EB"/>
</g>
<g filter="url(#filter0_d_261_1936)">
<rect x="80.8125" y="463.711" width="137.154" height="93.2393" rx="46.6196" transform="rotate(60 80.8125 463.711)" fill="#7790ED"/>
<rect x="80.4712" y="464.985" width="135.289" height="91.3745" rx="45.6872" transform="rotate(60 80.4712 464.985)" stroke="black" stroke-width="1.86479"/>
<path d="M70.8005 501.947C66.7574 501.192 62.3766 501.518 58.507 502.938C54.6193 504.368 51.0513 506.644 47.9076 509.321C41.3266 514.917 36.3722 522.83 35.0091 531.424C34.8923 532.138 35.2065 532.89 35.9631 533.076C40.3614 534.488 44.8756 535.809 49.0638 537.773C50.012 538.207 51.0247 537.671 51.1019 536.596C51.4421 531.563 53.8551 526.745 57.65 523.405C59.4856 521.794 61.8249 520.348 64.307 520.232C67.0034 520.112 69.5774 521.571 71.3759 523.478C73.2546 525.483 74.8366 528.473 74.9523 531.256C75.0518 533.76 74.0078 536.159 72.7128 538.248C69.9968 542.666 65.862 546.25 65.3783 551.702C65.1179 554.75 66.3613 557.528 67.6818 560.19C69.3422 563.566 71.2732 566.786 73.4463 569.841C73.8529 570.421 74.628 570.764 75.2926 570.332C79.4558 567.713 83.899 565.579 88.0441 562.97C88.6831 562.577 88.8977 561.783 88.5425 561.126C86.74 557.712 84.0732 554.343 84.9243 550.235C85.309 548.361 86.3836 546.807 87.4789 545.288C88.6075 543.703 89.5838 542.061 90.3558 540.275C91.0047 538.774 91.5116 537.237 91.8869 535.679C92.1105 535.358 92.2075 534.943 92.1291 534.557C92.4903 532.601 92.6244 530.583 92.477 528.537C92.1824 524.445 90.9283 520.523 89.1123 516.878C85.6333 509.811 78.7626 503.409 70.8005 501.947ZM56.9553 506.54C60.5787 504.735 64.6462 503.991 68.6857 504.365C71.8914 504.67 74.9655 505.912 77.6824 507.744C70.2519 507.245 62.7951 507.575 55.3473 507.42C55.8884 507.108 56.4115 506.806 56.9553 506.54ZM51.4601 509.976C51.5453 509.999 51.6486 510.011 51.7518 510.023C61.5279 510.461 71.3474 509.725 81.1018 510.751C81.1766 510.755 81.2592 510.732 81.3417 510.708C82.4878 511.818 83.5283 513.038 84.4427 514.33C74.5863 513.794 64.7408 513.444 54.8921 512.88C52.7783 512.759 50.6438 512.603 48.5197 512.464C49.4463 511.57 50.4428 510.755 51.4601 509.976ZM53.3268 524.081C49.2247 523.432 45.1839 522.556 41.0948 521.971C41.4646 521.279 41.8732 520.612 42.2997 519.934C46.6963 520.677 51.1285 521.231 55.5656 521.71C54.7418 522.449 53.9955 523.24 53.3268 524.081ZM50.182 529.297C46.4406 528.44 42.7709 527.373 39.0119 526.694C39.2577 525.953 39.5603 525.228 39.8732 524.52C43.8072 525.003 47.6983 525.869 51.6147 526.53C51.0699 527.419 50.5924 528.341 50.182 529.297ZM48.6298 534.647C45.1499 533.16 41.5109 531.98 37.8926 530.836C38.0022 530.318 38.0937 529.81 38.2137 529.31C41.9339 529.964 45.5648 531.005 49.2418 531.875C48.968 532.775 48.7795 533.698 48.6298 534.647ZM64.8857 517.527C62.6741 517.487 60.5369 518.242 58.6638 519.371C58.607 519.356 58.5398 519.323 58.465 519.318C53.6252 518.808 48.7827 518.251 43.9835 517.478C44.6238 516.629 45.2925 515.788 45.9923 515.001C56.479 515.795 66.9878 516.169 77.4943 516.665C80.4107 516.801 83.309 516.948 86.1996 517.123C86.2618 517.231 86.324 517.338 86.3862 517.446C87.0061 518.645 87.5719 519.875 88.0656 521.146C82.5472 520.668 77.0117 520.536 71.5059 519.955C69.5875 518.548 67.247 517.576 64.8857 517.527ZM89.6929 527.63C85.134 526.982 80.5598 526.39 76.0519 525.496C75.6083 524.603 75.0821 523.733 74.4762 522.933C79.3079 523.305 84.1648 523.47 88.9839 523.945C89.3147 525.143 89.5554 526.393 89.6929 527.63ZM89.5992 533.216C87.637 532.816 85.6725 532.538 83.6949 532.195C81.6709 531.855 79.6776 531.401 77.6562 531.107C77.6342 530.569 77.5761 530.052 77.4611 529.52C77.3854 529.18 77.2993 528.823 77.1951 528.476C81.3775 529.222 85.5955 529.78 89.7982 530.395C89.7878 531.335 89.7309 532.278 89.5992 533.216ZM69.0803 548.367C70.0325 548.392 70.9672 548.595 71.8735 548.79C73.0818 549.05 74.2465 549.36 75.4291 549.659C77.6344 550.23 79.85 550.818 82.0985 551.172C82.0417 552.115 82.0957 553.042 82.2427 553.963C80.0225 553.616 77.82 553.092 75.5894 552.727C73.1421 552.32 70.5815 552.051 68.0705 551.992C68.0881 551.814 68.0877 551.646 68.1053 551.469C68.2649 550.371 68.6338 549.344 69.0803 548.367ZM68.3693 554.717C70.7229 554.795 73.1054 555.048 75.4031 555.445C77.9745 555.9 80.5255 556.487 83.1172 556.81C83.5482 557.807 84.0694 558.751 84.6189 559.703C79.7003 558.64 74.6165 558.581 69.6347 558.033C69.1235 556.939 68.6587 555.843 68.3693 554.717ZM74.1977 566.103C74.9515 566.242 75.7131 566.354 76.467 566.493C75.98 566.774 75.5214 567.063 75.0344 567.344C74.7495 566.934 74.4646 566.524 74.1977 566.103ZM80.1851 564.394C80.1567 564.387 80.1463 564.369 80.1283 564.379C77.5208 563.945 74.9314 563.5 72.324 563.066C71.9092 562.347 71.4944 561.629 71.1157 560.89C75.3901 561.296 79.6947 561.421 83.8956 562.324C82.6587 563.014 81.4219 563.704 80.1851 564.394ZM82.605 548.509C80.3745 548.145 78.1589 547.556 75.9821 546.993C74.7994 546.694 73.6167 546.395 72.4084 546.135C71.8326 546.012 71.2284 545.882 70.6166 545.78C70.9174 545.343 71.2285 544.924 71.5396 544.505C71.8945 544.037 72.257 543.54 72.6119 543.072C76.3073 544.099 79.9847 545.137 83.6621 546.175C83.2486 546.916 82.8558 547.694 82.605 548.509ZM85.2196 543.791C81.5886 542.75 77.95 541.738 74.3114 540.725C74.8102 540.006 75.2778 539.234 75.699 538.464C79.494 539.122 83.2535 539.969 86.9516 541.043C86.4276 541.968 85.8468 542.878 85.2196 543.791ZM88.1295 538.543C84.421 537.451 80.6512 536.586 76.8457 535.91C77.0942 535.215 77.3039 534.496 77.4388 533.771C79.3568 534.053 81.2573 534.512 83.178 534.84C85.1272 535.175 87.084 535.482 89.0359 535.864C88.8009 536.79 88.4988 537.683 88.1295 538.543ZM82.8656 572.952C81.3442 574.357 80.1853 576.224 79.7442 578.251C79.3157 580.174 79.6845 582.021 80.3679 583.829C80.381 583.894 80.4405 583.955 80.4716 584.009C80.4847 584.073 80.4874 584.12 80.5081 584.156C81.3904 586.017 83.0171 587.377 84.7051 588.509C86.3441 589.599 88.3405 590.266 90.3321 590.05C94.2585 589.603 97.5024 585.767 98.3313 582.079C98.7674 580.127 98.5561 578.262 97.759 576.423C96.9074 574.448 95.2442 572.942 93.5147 571.737C90.0763 569.364 85.7848 570.261 82.8656 572.952ZM94.7976 583.664C90.7059 583.033 86.6321 582.392 82.53 581.743C82.3997 581.267 82.3159 580.789 82.2681 580.29C84.5235 580.281 86.7711 580.3 88.976 580.703C91.1524 581.099 93.3112 581.673 95.5462 581.795C95.3879 582.437 95.1264 583.067 94.7976 583.664ZM89.276 578.016C87.1203 577.656 84.9628 577.584 82.79 577.57C83.0209 577.053 83.2905 576.562 83.6197 576.133C85.4566 575.982 87.3016 575.971 89.1395 576.155C91.0909 576.369 93.0202 577.004 94.9942 576.965C95.3675 577.612 95.6145 578.331 95.7326 579.077C93.5363 578.981 91.4316 578.376 89.276 578.016ZM90.9644 573.401C91.2511 573.523 91.5406 573.691 91.83 573.859C90.9445 573.7 90.059 573.541 89.1581 573.438C88.5386 573.365 87.9321 573.356 87.2973 573.339C88.4782 572.969 89.7321 572.891 90.9644 573.401ZM91.083 587.102C89.5053 587.702 87.8578 587.264 86.4673 586.438C85.6661 585.967 84.906 585.4 84.2437 584.753C87.0937 585.191 89.9257 585.639 92.7861 586.095C92.2788 586.507 91.694 586.869 91.083 587.102Z" fill="#231F20"/>
</g>
<g filter="url(#filter1_d_261_1936)">
<rect x="147.324" y="528.212" width="347.755" height="84.7549" rx="41.9577" fill="#F5EDE1"/>
<rect x="148.257" y="529.144" width="345.89" height="82.8901" rx="41.0253" stroke="black" stroke-width="1.86479"/>
<path d="M180.549 554.291C187.558 554.291 193.276 559.969 193.276 567.018C193.276 574.028 187.558 579.746 180.549 579.746H171.189H170.876V554.291H170.954H180.549ZM185.405 571.874C186.697 570.582 187.402 568.859 187.402 567.018C187.402 565.178 186.697 563.455 185.405 562.123C184.112 560.831 182.35 560.126 180.509 560.126H176.985V573.871H180.549C182.389 573.871 184.112 573.167 185.405 571.874ZM210.118 554.252C217.362 554.252 223.236 560.126 223.236 567.371C223.236 574.615 217.362 580.49 210.118 580.49C202.873 580.49 196.999 574.615 196.999 567.371C196.999 560.126 202.873 554.252 210.118 554.252ZM215.522 572.775C216.971 571.326 217.754 569.407 217.754 567.371C217.754 565.334 216.971 563.416 215.522 561.967C214.073 560.518 212.154 559.734 210.118 559.734C208.081 559.734 206.162 560.518 204.713 561.967C203.264 563.416 202.481 565.334 202.481 567.371C202.481 569.407 203.264 571.326 204.713 572.775C206.162 574.185 208.081 575.007 210.118 575.007C212.154 575.007 214.073 574.185 215.522 572.775ZM243.451 554.135H249.129C249.129 558.716 249.129 564.669 249.129 568.82C249.129 575.634 243.138 579.589 238.203 579.589C233.661 579.589 227.356 575.947 227.356 568.741C227.356 564.865 227.356 558.834 227.356 554.135H233.034V568.741C233.034 570.308 233.582 571.561 234.718 572.501C235.854 573.48 237.303 573.911 238.203 573.911C238.752 573.911 239.378 573.754 239.966 573.558C240.631 573.284 241.297 572.932 241.806 572.462C242.315 571.992 242.746 571.483 243.02 570.895C243.333 570.269 243.451 569.603 243.451 568.82V554.135ZM273.025 565.334C273.025 565.334 276.158 566.744 276.158 572.266C276.158 579.001 268.835 579.589 268.835 579.589H255.011V554.135H266.799C266.799 554.135 272.594 554.135 274.043 559.108C275.101 562.672 273.025 565.334 273.025 565.334ZM261.12 558.873V564.551H266.564C268.13 564.551 269.422 563.298 269.422 561.732C269.422 560.126 268.13 558.873 266.564 558.873H261.12ZM271.38 572.07C271.38 570.504 270.127 569.211 268.561 569.211H261.12V574.89H268.561C270.127 574.89 271.38 573.636 271.38 572.07ZM297.903 560.244H291.285V579.589H285.176V560.244H278.558V554.135H297.903V560.244ZM322.164 579.628C320.48 579.628 318.953 579.393 317.621 578.884C316.368 578.375 315.35 577.631 314.41 576.808C311.434 574.067 311.826 570.425 311.826 570.073L317.191 570.151V570.112C317.191 570.112 317.191 571.561 317.817 572.501C318.6 573.676 320.049 574.263 322.164 574.263C325.688 574.263 327.255 573.362 327.255 571.874C327.255 570.308 325.258 569.329 322.007 568.976C320.01 568.741 318.248 568.311 316.838 567.723C315.507 567.175 314.41 566.431 313.588 565.53C312.413 564.238 311.826 562.711 311.826 560.988C311.826 558.599 312.765 556.993 313.588 556.053C315.389 554.017 318.287 552.96 322.281 552.96C327.529 552.96 330.114 555.27 331.367 557.189C332.698 559.265 332.777 561.653 332.777 562.045H327.412V562.084C327.412 562.084 327.451 560.909 326.824 560.087C326.041 558.99 324.474 558.325 322.281 558.325C320.01 558.325 317.386 558.912 317.386 560.635C317.386 562.28 319.109 563.259 322.595 563.651C326.472 564.081 329.33 565.295 331.053 567.292C332.189 568.624 332.777 570.19 332.777 571.874C332.777 572.697 332.777 574.772 331.093 576.652C330.231 577.631 329.056 578.375 327.607 578.884C326.119 579.393 324.318 579.628 322.164 579.628ZM342.655 569.603V574.106H354.325V579.589H336.546V554.135H354.325V559.617H342.655V564.12H352.563V569.603H342.655ZM368.012 579.628C366.328 579.628 364.801 579.393 363.47 578.884C362.217 578.375 361.198 577.631 360.259 576.808C357.282 574.067 357.674 570.425 357.674 570.073L363.039 570.151V570.112C363.039 570.112 363.039 571.561 363.666 572.501C364.449 573.676 365.898 574.263 368.012 574.263C371.537 574.263 373.103 573.362 373.103 571.874C373.103 570.308 371.106 569.329 367.856 568.976C365.859 568.741 364.096 568.311 362.687 567.723C361.355 567.175 360.259 566.431 359.436 565.53C358.261 564.238 357.674 562.711 357.674 560.988C357.674 558.599 358.614 556.993 359.436 556.053C361.238 554.017 364.135 552.96 368.13 552.96C373.377 552.96 375.962 555.27 377.215 557.189C378.547 559.265 378.625 561.653 378.625 562.045H373.26V562.084C373.26 562.084 373.299 560.909 372.672 560.087C371.889 558.99 370.323 558.325 368.13 558.325C365.859 558.325 363.235 558.912 363.235 560.635C363.235 562.28 364.958 563.259 368.443 563.651C372.32 564.081 375.179 565.295 376.902 567.292C378.037 568.624 378.625 570.19 378.625 571.874C378.625 572.697 378.625 574.772 376.941 576.652C376.079 577.631 374.905 578.375 373.456 578.884C371.968 579.393 370.166 579.628 368.012 579.628ZM393.69 579.628C392.006 579.628 390.479 579.393 389.147 578.884C387.894 578.375 386.876 577.631 385.936 576.808C382.96 574.067 383.352 570.425 383.352 570.073L388.717 570.151V570.112C388.717 570.112 388.717 571.561 389.343 572.501C390.126 573.676 391.575 574.263 393.69 574.263C397.214 574.263 398.781 573.362 398.781 571.874C398.781 570.308 396.784 569.329 393.533 568.976C391.536 568.741 389.774 568.311 388.364 567.723C387.033 567.175 385.936 566.431 385.114 565.53C383.939 564.238 383.352 562.711 383.352 560.988C383.352 558.599 384.292 556.993 385.114 556.053C386.915 554.017 389.813 552.96 393.808 552.96C399.055 552.96 401.64 555.27 402.893 557.189C404.224 559.265 404.303 561.653 404.303 562.045H398.938V562.084C398.938 562.084 398.977 560.909 398.35 560.087C397.567 558.99 396.001 558.325 393.808 558.325C391.536 558.325 388.912 558.912 388.912 560.635C388.912 562.28 390.636 563.259 394.121 563.651C397.998 564.081 400.856 565.295 402.579 567.292C403.715 568.624 404.303 570.19 404.303 571.874C404.303 572.697 404.303 574.772 402.619 576.652C401.757 577.631 400.582 578.375 399.133 578.884C397.645 579.393 395.844 579.628 393.69 579.628ZM408.403 554.135H414.512V579.589H408.403V554.135ZM431.137 554.252C438.382 554.252 444.256 560.126 444.256 567.371C444.256 574.615 438.382 580.49 431.137 580.49C423.893 580.49 418.019 574.615 418.019 567.371C418.019 560.126 423.893 554.252 431.137 554.252ZM436.541 572.775C437.99 571.326 438.774 569.407 438.774 567.371C438.774 565.334 437.99 563.416 436.541 561.967C435.092 560.518 433.174 559.734 431.137 559.734C429.101 559.734 427.182 560.518 425.733 561.967C424.284 563.416 423.501 565.334 423.501 567.371C423.501 569.407 424.284 571.326 425.733 572.775C427.182 574.185 429.101 575.007 431.137 575.007C433.174 575.007 435.092 574.185 436.541 572.775ZM465.019 554.135H471.128V579.589L454.25 567.175V579.589H448.141V554.135L465.019 567.136V554.135Z" fill="black"/>
</g>
<g filter="url(#filter2_d_261_1936)">
<rect x="132.406" y="429.379" width="168.755" height="84.7549" rx="41.9577" fill="#B4C7F2"/>
<rect x="133.339" y="430.311" width="166.89" height="82.8901" rx="41.0253" stroke="black" stroke-width="1.86479"/>
<path d="M172.601 455.302H178.71V480.756L161.832 468.342V480.756H155.723V455.302L172.601 468.303V455.302ZM195.697 455.419C202.941 455.419 208.816 461.293 208.816 468.538C208.816 475.782 202.941 481.657 195.697 481.657C188.452 481.657 182.578 475.782 182.578 468.538C182.578 461.293 188.452 455.419 195.697 455.419ZM201.101 473.942C202.55 472.493 203.333 470.574 203.333 468.538C203.333 466.501 202.55 464.583 201.101 463.134C199.652 461.685 197.733 460.901 195.697 460.901C193.66 460.901 191.742 461.685 190.293 463.134C188.844 464.583 188.06 466.501 188.06 468.538C188.06 470.574 188.844 472.493 190.293 473.942C191.742 475.352 193.66 476.174 195.697 476.174C197.733 476.174 199.652 475.352 201.101 473.942ZM230.253 461.411H223.635V480.756H217.526V461.411H210.908V455.302H230.253V461.411ZM240.706 470.77V475.273H252.376V480.756H234.597V455.302H252.376V460.784H240.706V465.287H250.614V470.77H240.706ZM266.063 480.795C264.379 480.795 262.852 480.56 261.521 480.051C260.268 479.542 259.249 478.798 258.309 477.975C255.333 475.234 255.725 471.592 255.725 471.24L261.09 471.318V471.279C261.09 471.279 261.09 472.728 261.716 473.668C262.5 474.843 263.949 475.43 266.063 475.43C269.588 475.43 271.154 474.529 271.154 473.041C271.154 471.475 269.157 470.496 265.907 470.143C263.909 469.908 262.147 469.478 260.737 468.89C259.406 468.342 258.309 467.598 257.487 466.697C256.312 465.405 255.725 463.878 255.725 462.155C255.725 459.766 256.665 458.16 257.487 457.22C259.289 455.184 262.186 454.127 266.181 454.127C271.428 454.127 274.013 456.437 275.266 458.356C276.597 460.432 276.676 462.82 276.676 463.212H271.311V463.251C271.311 463.251 271.35 462.076 270.723 461.254C269.94 460.157 268.374 459.492 266.181 459.492C263.909 459.492 261.286 460.079 261.286 461.802C261.286 463.447 263.009 464.426 266.494 464.818C270.371 465.248 273.23 466.462 274.953 468.459C276.088 469.791 276.676 471.357 276.676 473.041C276.676 473.864 276.676 475.939 274.992 477.819C274.13 478.798 272.956 479.542 271.507 480.051C270.018 480.56 268.217 480.795 266.063 480.795Z" fill="black"/>
</g>
<g filter="url(#filter3_d_261_1936)">
<rect x="210.725" y="330.545" width="209.755" height="84.7549" rx="41.9577" fill="#7790ED"/>
<rect x="211.657" y="331.477" width="207.89" height="82.8901" rx="41.0253" stroke="black" stroke-width="1.86479"/>
<path d="M260.945 379.416L256.598 383.762L253.817 380.982C251.938 382.039 249.745 382.666 247.395 382.666C240.15 382.666 234.276 376.792 234.276 369.547C234.276 362.302 240.15 356.428 247.395 356.428C254.64 356.428 260.514 362.302 260.514 369.547C260.514 372.21 259.692 374.716 258.321 376.831L260.945 379.416ZM247.395 377.183C248.178 377.183 248.962 377.066 249.666 376.831L247.356 374.521L251.664 370.174L254.287 372.797C254.796 371.779 255.031 370.683 255.031 369.547C255.031 367.511 254.248 365.592 252.799 364.143C251.35 362.694 249.431 361.911 247.395 361.911C245.359 361.911 243.44 362.694 241.991 364.143C240.542 365.592 239.759 367.511 239.759 369.547C239.759 371.584 240.542 373.502 241.991 374.951C243.44 376.361 245.359 377.183 247.395 377.183ZM281.747 356.468H287.425C287.425 361.049 287.425 367.002 287.425 371.153C287.425 377.967 281.434 381.922 276.5 381.922C271.957 381.922 265.652 378.28 265.652 371.074C265.652 367.198 265.652 361.167 265.652 356.468H271.33V371.074C271.33 372.641 271.879 373.894 273.014 374.834C274.15 375.813 275.599 376.244 276.5 376.244C277.048 376.244 277.674 376.087 278.262 375.891C278.928 375.617 279.593 375.265 280.102 374.795C280.612 374.325 281.042 373.816 281.316 373.228C281.63 372.602 281.747 371.936 281.747 371.153V356.468ZM291.546 356.468H297.655V381.922H291.546V356.468ZM323.248 356.233V361.715L309.307 376.439H323.248V381.961L301.749 381.922V376.479V376.439L315.69 361.715H301.749V356.233H323.248ZM349.461 356.233V361.715L335.52 376.439H349.461V381.961L327.962 381.922V376.479V376.439L341.903 361.715H327.962V356.233H349.461ZM360.284 371.936V376.439H371.954V381.922H354.175V356.468H371.954V361.95H360.284V366.453H370.191V371.936H360.284ZM385.641 381.961C383.957 381.961 382.43 381.726 381.098 381.217C379.845 380.708 378.827 379.964 377.887 379.141C374.911 376.4 375.303 372.758 375.303 372.406L380.667 372.484V372.445C380.667 372.445 380.667 373.894 381.294 374.834C382.077 376.009 383.526 376.596 385.641 376.596C389.165 376.596 390.732 375.695 390.732 374.207C390.732 372.641 388.735 371.662 385.484 371.309C383.487 371.074 381.725 370.644 380.315 370.056C378.984 369.508 377.887 368.764 377.065 367.863C375.89 366.571 375.303 365.044 375.303 363.321C375.303 360.932 376.242 359.326 377.065 358.386C378.866 356.35 381.764 355.293 385.758 355.293C391.006 355.293 393.59 357.603 394.844 359.522C396.175 361.598 396.253 363.986 396.253 364.378H390.888V364.417C390.888 364.417 390.928 363.242 390.301 362.42C389.518 361.323 387.951 360.658 385.758 360.658C383.487 360.658 380.863 361.245 380.863 362.968C380.863 364.613 382.586 365.592 386.072 365.984C389.949 366.414 392.807 367.628 394.53 369.625C395.666 370.957 396.253 372.523 396.253 374.207C396.253 375.03 396.253 377.105 394.569 378.985C393.708 379.964 392.533 380.708 391.084 381.217C389.596 381.726 387.795 381.961 385.641 381.961Z" fill="black"/>
</g>
<g filter="url(#filter4_d_261_1936)">
<rect x="213.301" y="219.59" width="93.2393" height="93.2393" rx="46.6196" transform="rotate(61.355 213.301 219.59)" fill="#B4C7F2"/>
<rect x="212.929" y="220.855" width="91.3745" height="91.3745" rx="45.6872" transform="rotate(61.355 212.929 220.855)" stroke="black" stroke-width="1.86479"/>
<g clip-path="url(#clip2_261_1936)">
<path d="M208.812 281.47L186.741 268.727C185.646 268.095 184.277 268.885 184.277 270.15L184.277 295.636C184.277 296.792 185.53 297.515 186.531 296.937L208.812 284.073C209.814 283.495 209.814 282.049 208.812 281.47Z" fill="black"/>
<path d="M212.103 300.167C207.471 304.799 201.312 307.35 194.761 307.35C188.21 307.35 182.051 304.799 177.419 300.167C172.786 295.535 170.235 289.375 170.235 282.824C170.235 276.273 172.786 270.114 177.419 265.482C182.051 260.85 188.21 258.298 194.761 258.298C201.312 258.298 207.471 260.85 212.103 265.482C216.736 270.114 219.287 276.273 219.287 282.824C219.287 289.375 216.736 295.535 212.103 300.167ZM194.761 254.343C179.031 254.343 166.279 267.094 166.279 282.824C166.279 298.554 179.031 311.306 194.761 311.306C210.491 311.306 223.242 298.554 223.242 282.824C223.242 267.094 210.491 254.343 194.761 254.343Z" fill="black"/>
</g>
</g>
<g filter="url(#filter5_d_261_1936)">
<g clip-path="url(#clip3_261_1936)">
<rect x="270.852" y="196.923" width="365.755" height="84.7549" rx="41.9577" transform="rotate(16 270.852 196.923)" fill="#F5EDE1"/>
<path d="M292.515 256.542L292.504 256.58L292.515 256.542L292.467 256.569L292.478 256.531L286.345 228.334L293.121 230.277L296.023 244.308L305.882 233.936L312.658 235.879L292.515 256.542ZM316.603 237.01L322.475 238.694L315.459 263.162L309.587 261.478L316.603 237.01ZM335.665 242.639C342.404 244.571 346.334 251.605 344.391 258.381C342.459 265.119 335.387 269.039 328.649 267.107L319.652 264.527L319.351 264.441L326.367 239.973L326.443 239.994L335.665 242.639ZM335.487 260.879C337.085 259.993 338.238 258.531 338.745 256.762C339.252 254.993 339.05 253.142 338.174 251.506C337.288 249.908 335.789 248.744 334.019 248.237L330.632 247.266L326.843 260.478L330.268 261.461C332.038 261.968 333.888 261.765 335.487 260.879ZM354.062 263.843L352.821 268.172L364.039 271.389L362.528 276.659L345.438 271.758L352.454 247.29L369.544 252.191L368.033 257.461L356.815 254.244L355.574 258.573L365.097 261.304L363.586 266.574L354.062 263.843ZM385.18 256.796C392.144 258.793 396.172 266.059 394.175 273.023C392.178 279.987 384.912 284.014 377.948 282.017C370.984 280.021 366.957 272.755 368.953 265.791C370.95 258.827 378.216 254.799 385.18 256.796ZM385.269 276.091C387.061 275.098 388.343 273.469 388.905 271.512C389.466 269.554 389.242 267.494 388.248 265.702C387.255 263.909 385.626 262.628 383.669 262.066C381.711 261.505 379.651 261.729 377.859 262.723C376.067 263.716 374.785 265.345 374.224 267.302C373.662 269.26 373.886 271.32 374.88 273.112C375.884 274.867 377.502 276.186 379.459 276.747C381.417 277.309 383.488 277.047 385.269 276.091ZM412.423 285.263L424.205 288.641L422.694 293.911L410.912 290.533L410.874 290.522L405.039 288.849L412.055 264.381L417.928 266.064L412.423 285.263ZM435.149 287.094L433.908 291.423L445.125 294.64L443.614 299.91L426.524 295.009L433.54 270.541L450.63 275.442L449.119 280.712L437.901 277.495L436.66 281.824L446.184 284.555L444.673 289.825L435.149 287.094ZM465.296 298.713L467.981 303.557C465.231 304.764 462.084 305.084 458.96 304.188C452.033 302.202 448.006 294.936 449.992 288.01C451.989 281.046 459.255 277.018 466.181 279.005C469.305 279.9 471.805 281.839 473.486 284.358L468.653 287.006C467.681 285.708 466.289 284.739 464.67 284.275C462.712 283.713 460.69 283.948 458.897 284.941C457.105 285.935 455.824 287.564 455.262 289.521C454.701 291.478 454.936 293.501 455.929 295.293C456.923 297.086 458.514 298.357 460.471 298.918C462.09 299.382 463.784 299.298 465.296 298.713ZM495.333 294.615L488.971 292.791L483.639 311.387L477.767 309.703L483.099 291.107L476.737 289.283L478.421 283.411L497.017 288.743L495.333 294.615ZM516.664 294.377L522.122 295.942C520.859 300.346 519.219 306.068 518.075 310.058C516.196 316.608 509.347 318.758 504.604 317.398C500.237 316.146 495.18 310.908 497.166 303.981C498.235 300.254 499.897 294.457 501.193 289.94L506.651 291.505L502.625 305.546C502.193 307.052 502.375 308.408 503.207 309.624C504.029 310.878 505.303 311.692 506.169 311.94C506.696 312.091 507.341 312.113 507.96 312.087C508.675 312.007 509.413 311.852 510.031 311.54C510.65 311.229 511.205 310.858 511.63 310.369C512.104 309.853 512.4 309.246 512.616 308.493L516.664 294.377ZM544.692 311.457C543.904 314.205 541.389 317.436 537.123 317.679L539.997 327.547L533.409 325.658L530.524 316.398C529.507 316.107 528.566 315.837 527.738 315.599L525.504 323.391L519.631 321.708L526.648 297.239L532.52 298.923C533.235 299.128 534.854 299.592 538.355 300.596C544.378 302.323 545.771 307.693 544.692 311.457ZM531.009 304.193L529.249 310.329L535.046 311.991C535.799 312.207 536.509 312.289 537.063 312.203C537.456 312.112 537.811 312.01 538.113 311.811C538.823 311.323 539.26 310.511 539.422 309.946C539.594 309.344 539.654 308.424 539.236 307.611C538.865 306.772 538.086 306.223 536.844 305.866L531.009 304.193ZM553.197 320.944L551.955 325.273L563.173 328.489L561.662 333.76L544.572 328.859L551.588 304.391L568.678 309.291L567.167 314.561L555.949 311.345L554.708 315.674L564.232 318.405L562.72 323.675L553.197 320.944ZM574.808 337.57C573.189 337.106 571.786 336.459 570.646 335.603C569.582 334.768 568.809 333.772 568.132 332.722C566.026 329.267 567.407 325.874 567.504 325.535L572.639 327.089L572.65 327.052C572.65 327.052 572.251 328.444 572.594 329.521C573.023 330.866 574.254 331.83 576.287 332.413C579.675 333.384 581.429 332.95 581.839 331.52C582.271 330.014 580.621 328.522 577.593 327.288C575.738 326.511 574.163 325.612 572.97 324.658C571.841 323.764 570.992 322.747 570.45 321.654C569.677 320.088 569.533 318.458 570.008 316.802C570.667 314.506 572.013 313.221 573.062 312.545C575.355 311.084 578.432 310.866 582.272 311.967C587.316 313.413 589.164 316.347 589.839 318.537C590.547 320.899 589.964 323.217 589.856 323.593L584.699 322.114L584.688 322.152C584.688 322.152 585.049 321.034 584.674 320.07C584.223 318.8 582.901 317.729 580.793 317.124C578.61 316.498 575.926 316.34 575.451 317.996C574.997 319.577 576.384 320.993 579.626 322.33C583.234 323.813 585.647 325.768 586.753 328.162C587.478 329.755 587.611 331.423 587.147 333.042C586.92 333.832 586.348 335.827 584.211 337.17C583.113 337.874 581.779 338.265 580.246 338.355C578.675 338.434 576.878 338.164 574.808 337.57Z" fill="black"/>
</g>
<rect x="271.491" y="198.076" width="363.89" height="82.8901" rx="41.0253" transform="rotate(16 271.491 198.076)" stroke="black" stroke-width="1.86479"/>
</g>
<defs>
<filter id="filter0_d_261_1936" x="0.0644531" y="463.711" width="158.648" height="174.722" filterUnits="userSpaceOnUse" color-interpolation-filters="sRGB">
<feFlood flood-opacity="0" result="BackgroundImageFix"/>
<feColorMatrix in="SourceAlpha" type="matrix" values="0 0 0 0 0 0 0 0 0 0 0 0 0 0 0 0 0 0 127 0" result="hardAlpha"/>
<feOffset dx="9.32393" dy="9.32393"/>
<feComposite in2="hardAlpha" operator="out"/>
<feColorMatrix type="matrix" values="0 0 0 0 0 0 0 0 0 0 0 0 0 0 0 0 0 0 1 0"/>
<feBlend mode="normal" in2="BackgroundImageFix" result="effect1_dropShadow_261_1936"/>
<feBlend mode="normal" in="SourceGraphic" in2="effect1_dropShadow_261_1936" result="shape"/>
</filter>
<filter id="filter1_d_261_1936" x="147.324" y="528.212" width="357.078" height="94.0788" filterUnits="userSpaceOnUse" color-interpolation-filters="sRGB">
<feFlood flood-opacity="0" result="BackgroundImageFix"/>
<feColorMatrix in="SourceAlpha" type="matrix" values="0 0 0 0 0 0 0 0 0 0 0 0 0 0 0 0 0 0 127 0" result="hardAlpha"/>
<feOffset dx="9.32393" dy="9.32393"/>
<feComposite in2="hardAlpha" operator="out"/>
<feColorMatrix type="matrix" values="0 0 0 0 0 0 0 0 0 0 0 0 0 0 0 0 0 0 1 0"/>
<feBlend mode="normal" in2="BackgroundImageFix" result="effect1_dropShadow_261_1936"/>
<feBlend mode="normal" in="SourceGraphic" in2="effect1_dropShadow_261_1936" result="shape"/>
</filter>
<filter id="filter2_d_261_1936" x="132.406" y="429.379" width="178.078" height="94.0788" filterUnits="userSpaceOnUse" color-interpolation-filters="sRGB">
<feFlood flood-opacity="0" result="BackgroundImageFix"/>
<feColorMatrix in="SourceAlpha" type="matrix" values="0 0 0 0 0 0 0 0 0 0 0 0 0 0 0 0 0 0 127 0" result="hardAlpha"/>
<feOffset dx="9.32393" dy="9.32393"/>
<feComposite in2="hardAlpha" operator="out"/>
<feColorMatrix type="matrix" values="0 0 0 0 0 0 0 0 0 0 0 0 0 0 0 0 0 0 1 0"/>
<feBlend mode="normal" in2="BackgroundImageFix" result="effect1_dropShadow_261_1936"/>
<feBlend mode="normal" in="SourceGraphic" in2="effect1_dropShadow_261_1936" result="shape"/>
</filter>
<filter id="filter3_d_261_1936" x="210.725" y="330.545" width="219.078" height="94.0788" filterUnits="userSpaceOnUse" color-interpolation-filters="sRGB">
<feFlood flood-opacity="0" result="BackgroundImageFix"/>
<feColorMatrix in="SourceAlpha" type="matrix" values="0 0 0 0 0 0 0 0 0 0 0 0 0 0 0 0 0 0 127 0" result="hardAlpha"/>
<feOffset dx="9.32393" dy="9.32393"/>
<feComposite in2="hardAlpha" operator="out"/>
<feColorMatrix type="matrix" values="0 0 0 0 0 0 0 0 0 0 0 0 0 0 0 0 0 0 1 0"/>
<feBlend mode="normal" in2="BackgroundImageFix" result="effect1_dropShadow_261_1936"/>
<feBlend mode="normal" in="SourceGraphic" in2="effect1_dropShadow_261_1936" result="shape"/>
</filter>
<filter id="filter4_d_261_1936" x="131.473" y="219.59" width="135.849" height="135.848" filterUnits="userSpaceOnUse" color-interpolation-filters="sRGB">
<feFlood flood-opacity="0" result="BackgroundImageFix"/>
<feColorMatrix in="SourceAlpha" type="matrix" values="0 0 0 0 0 0 0 0 0 0 0 0 0 0 0 0 0 0 127 0" result="hardAlpha"/>
<feOffset dx="9.32393" dy="9.32393"/>
<feComposite in2="hardAlpha" operator="out"/>
<feColorMatrix type="matrix" values="0 0 0 0 0 0 0 0 0 0 0 0 0 0 0 0 0 0 1 0"/>
<feBlend mode="normal" in2="BackgroundImageFix" result="effect1_dropShadow_261_1936"/>
<feBlend mode="normal" in="SourceGraphic" in2="effect1_dropShadow_261_1936" result="shape"/>
</filter>
<filter id="filter5_d_261_1936" x="247.49" y="196.923" width="384.271" height="191.611" filterUnits="userSpaceOnUse" color-interpolation-filters="sRGB">
<feFlood flood-opacity="0" result="BackgroundImageFix"/>
<feColorMatrix in="SourceAlpha" type="matrix" values="0 0 0 0 0 0 0 0 0 0 0 0 0 0 0 0 0 0 127 0" result="hardAlpha"/>
<feOffset dx="9.32393" dy="9.32393"/>
<feComposite in2="hardAlpha" operator="out"/>
<feColorMatrix type="matrix" values="0 0 0 0 0 0 0 0 0 0 0 0 0 0 0 0 0 0 1 0"/>
<feBlend mode="normal" in2="BackgroundImageFix" result="effect1_dropShadow_261_1936"/>
<feBlend mode="normal" in="SourceGraphic" in2="effect1_dropShadow_261_1936" result="shape"/>
</filter>
<clipPath id="clip0_261_1936">
<rect width="621.02" height="627.002" fill="white" transform="translate(8.98047 12.6377)"/>
</clipPath>
<clipPath id="clip1_261_1936">
<rect width="621.02" height="635.347" fill="white" transform="translate(5.53516 -1)"/>
</clipPath>
<clipPath id="clip2_261_1936">
<rect width="57.0084" height="57.0084" fill="white" transform="translate(166.232 254.348)"/>
</clipPath>
<clipPath id="clip3_261_1936">
<rect x="270.852" y="196.923" width="365.755" height="84.7549" rx="41.9577" transform="rotate(16 270.852 196.923)" fill="white"/>
</clipPath>
</defs>
</svg>
