<svg width="89" height="48" viewBox="0 0 89 48" fill="none" xmlns="http://www.w3.org/2000/svg">
<path d="M88.3301 9.9707C88.3669 9.96484 88.4003 9.97459 88.4248 9.99121C88.4279 9.99528 88.4313 9.99873 88.4326 10.002L88.4355 10.0205L86.7783 35.4258C86.7783 35.4267 86.7768 35.4394 86.7568 35.4561C86.7361 35.4733 86.7114 35.4805 86.6914 35.4795L79.7803 35.0742H79.7812C79.7531 35.0723 79.7345 35.0625 79.7178 35.0469C79.7074 35.0323 79.7038 35.0186 79.7041 35.0107L79.7031 35.0098L80.3623 24.9414L80.4502 23.584L79.5039 24.5605C70.4544 33.8971 59.6542 40.8088 48.124 44.6523L47.0059 45.0146H47.0049C44.3281 45.8617 40.2981 46.9687 35.959 46.9688C34.9861 46.9688 34.0236 46.9095 33.1016 46.8018H33.1025C27.3617 46.103 22.5471 43.1376 20.1914 38.9268H20.1904C19.4897 37.6684 18.9928 36.2937 18.707 34.8125L18.5977 34.1709L18.5967 34.168L18.5605 33.9014L18.5322 33.6299L18.5312 33.6201L18.5303 33.6113L18.4746 33.0586C18.4586 32.8483 18.4466 32.6357 18.4355 32.4141C18.4357 32.4176 18.435 32.4178 18.4365 32.4141C18.4381 32.4103 18.4407 32.405 18.4453 32.4004L18.4512 32.3955L18.4561 32.3896C18.4582 32.3874 18.4632 32.3836 18.4717 32.3799L18.5127 32.3711H18.5137L25.4365 32.124H25.4473L25.457 32.123C25.4589 32.1234 25.4623 32.1243 25.4668 32.126C25.477 32.1298 25.4892 32.1379 25.5029 32.1484L25.5146 32.1709V32.1719C25.5379 32.7427 25.5983 33.2852 25.7168 33.8057V33.8047C25.7351 33.9018 25.7555 33.9969 25.7783 34.0898L25.8574 34.3809L25.8594 34.3857C25.8901 34.4852 25.9223 34.5832 25.9561 34.6797L26.0615 34.9648C26.1456 35.1827 26.2408 35.3936 26.3457 35.5977L26.4541 35.7998V35.8008C27.6749 37.9845 30.3183 39.5564 33.3838 40.0762L34.002 40.166C36.9823 40.5302 40.4146 40.0413 44.7627 38.6689V38.6699C55.4727 35.2984 65.5556 28.9633 74.0156 20.3154L75.1162 19.1904L73.5684 19.4736L62.5605 21.4854C62.5387 21.4885 62.5204 21.4883 62.5059 21.4854L62.4746 21.4736L62.4502 21.4424L61.1445 14.9736V14.9707L61.1436 14.96C61.1441 14.9575 61.1455 14.9528 61.1494 14.9473C61.1574 14.9361 61.1754 14.921 61.2061 14.915L61.2051 14.9141L88.3301 9.9707ZM87.6455 10.1982L61.8037 14.9102L61.3027 15.001L61.4033 15.501L62.4893 20.8936L62.5859 21.375L63.0684 21.2871L75.2197 19.0693C75.2812 19.0602 75.3112 19.0877 75.3203 19.0996C75.3263 19.1109 75.3276 19.118 75.3271 19.1221C75.3266 19.1265 75.3239 19.1334 75.3154 19.1426C66.8647 28.1561 56.7044 34.7972 45.874 38.418L44.8242 38.7588C40.6519 40.0713 37.3731 40.5601 34.5381 40.3184L33.9766 40.2607H33.9756C30.6017 39.8532 27.7651 38.212 26.4326 36.04L26.3086 35.8281L26.1592 35.5449C26.0165 35.2594 25.8945 34.9648 25.7939 34.6553L25.7881 34.6377L25.707 34.3975C25.6829 34.3175 25.662 34.2377 25.6445 34.1582L25.6406 34.1406L25.6357 34.123L25.5732 33.8848L25.5205 33.626C25.4651 33.3262 25.4209 33.018 25.3936 32.7012L25.3535 32.2285L24.8779 32.2451L19.1035 32.4482L18.5977 32.4658L18.6221 32.9717C18.6281 33.096 18.6406 33.2215 18.6592 33.3477C18.6653 33.4447 18.6737 33.5397 18.6836 33.6318L18.7178 33.9209C18.7301 34.0223 18.7436 34.1219 18.7588 34.2207L18.8086 34.5156C19.0779 36.097 19.5862 37.566 20.3369 38.8975V38.8984C22.6319 42.9907 27.2033 45.8345 32.5977 46.6309L33.1221 46.7012C34.0388 46.8138 34.9892 46.8701 35.9551 46.8701C39.7428 46.8701 43.2994 46.0146 45.8896 45.2461L46.9385 44.9248C59.3463 41.021 70.9358 33.5592 80.4648 23.3574C80.4973 23.3254 80.5423 23.3215 80.5703 23.333L80.5771 23.335L80.584 23.3379C80.6111 23.3483 80.6191 23.3684 80.6191 23.3828L79.8926 34.4746L80.374 34.5049L80.3594 35.0059L86.123 35.3467L86.6182 35.376L86.6514 34.8799L88.2334 10.7227L88.2754 10.083L87.6455 10.1982Z" stroke="black"/>
<path d="M28.8623 6.96094C33.652 2.57342 39.764 0.251942 45.7129 0.521484L46.2881 0.555664C50.0613 0.839846 52.7217 2.41921 53.9287 4.89746L53.9561 4.95605C54.6565 6.44466 54.6802 7.92299 54.5547 9.16699L54.4932 9.68555V9.68652C53.443 17.6586 47.6178 25.1779 39.5303 29.0195L38.7412 29.3799L38.7402 29.3809C35.262 30.9072 31.4701 31.8046 27.4336 32.0557L26.623 32.0967L26.6133 32.0977L26.0322 32.1191C25.8385 32.1243 25.6431 32.125 25.4414 32.125H25.4199C25.3052 32.1299 25.1837 32.1299 25.0557 32.1299C23.2227 32.1299 21.3721 31.998 19.5205 31.7393H19.5215C19.3223 31.7109 19.1289 31.6842 18.9424 31.6523L18.9346 31.6504L18.9268 31.6494L18.3369 31.5566H18.3359C16.7173 31.2809 15.1027 30.9122 13.4893 30.4443H13.4902C6.34186 28.3667 1.78423 24.3135 0.680664 19.3877L0.583984 18.9082L0.575195 18.8555L7.52832 17.7119L7.53906 17.7715V17.7725C7.88125 19.733 9.55544 21.1547 11.21 22.1191C12.6798 22.9759 14.2435 23.5352 15.1709 23.8252L15.5273 23.9326C16.3824 24.1819 17.2399 24.3863 18.2539 24.6152L18.2793 24.6201L18.3057 24.624C18.3233 24.6261 18.3455 24.6307 18.4121 24.6445L18.8301 24.7314L18.9814 24.332C19.1666 23.8437 19.3296 23.3953 19.4268 23.1289L19.4258 23.1279C19.4531 23.0542 19.4766 22.9943 19.4932 22.9521C19.5016 22.9308 19.5084 22.9147 19.5127 22.9043C19.5138 22.9016 19.515 22.8998 19.5156 22.8984L19.5225 22.8857L19.5342 22.8496L19.8428 21.9141V21.9121C21.7047 15.8911 24.6165 10.9903 28.4854 7.31348L28.8623 6.96094ZM47.5596 7.78711L47.2529 7.6582C46.9885 7.54742 46.5102 7.39601 45.7402 7.3418H45.7412C45.434 7.31825 45.1168 7.30763 44.8008 7.30762C40.9185 7.30762 36.8851 8.98632 33.7178 11.8955C30.5391 14.7988 28.1521 18.8336 26.6025 23.8574H26.6035C26.5671 23.9653 26.4857 24.2391 26.3955 24.5508L26.1836 24.7568L26.1846 24.7539C26.3346 24.2455 26.4508 23.8424 26.4619 23.8037L26.4609 23.8027C27.9732 18.9057 30.2849 14.9699 33.3027 12.0957L33.5977 11.8203C36.8167 8.87017 40.9085 7.19434 44.7998 7.19434C45.1162 7.19434 45.4433 7.20314 45.751 7.22461V7.22559C46.875 7.31102 47.4819 7.59515 47.667 7.74902V7.75L47.6797 7.76074L47.6855 7.78223C47.6986 7.83048 47.713 7.93913 47.709 8.13184C47.7051 8.31654 47.6851 8.55081 47.6494 8.83496C46.8843 14.6266 42.5471 20.1474 36.4912 23.0225L35.9004 23.292H35.8994C35.1117 23.6387 34.2776 23.9466 33.4131 24.2178L32.5449 24.4756C31.9132 24.6441 31.2626 24.7946 30.6045 24.9238L29.9434 25.0459C29.2589 25.1632 28.5979 25.2721 27.9355 25.3486L27.2705 25.4131C27.0565 25.4265 26.8377 25.4368 26.6123 25.4434L25.9062 25.4502H25.9014C24.837 25.4502 23.782 25.3732 22.7568 25.2715L21.7432 25.1641L21.001 25.0801L20.9941 25.0791L20.334 25.0127H20.335C19.8373 24.9619 19.3486 24.9136 18.874 24.8428H18.873L18.4561 24.7793L18.2197 24.7266C17.1768 24.4934 16.3269 24.2897 15.4736 24.043H15.4746C14.6351 23.7969 12.8798 23.2167 11.2061 22.248C9.5161 21.2699 8.0067 19.9521 7.50488 18.2725L7.37891 17.8516L6.94531 17.9229L1.25879 18.8584L0.731445 18.9453L0.853516 19.4658C1.9787 24.2848 6.39103 28.0928 12.9072 30.1426L13.5439 30.335L13.5449 30.3359C15.0391 30.7691 16.5403 31.1188 18.041 31.3838V31.3828C18.2389 31.4226 18.4361 31.4562 18.6318 31.4844V31.4854C18.8273 31.5186 19.0325 31.5513 19.2344 31.5801V31.5811C21.1782 31.8689 23.1277 32.0156 25.0566 32.0156H25.1543C25.3389 32.0156 25.5339 32.0141 25.7354 32.0039V32.0049L26.3359 31.9941H26.3389C30.4695 31.8564 34.37 31.0476 37.958 29.584L38.6709 29.2832C47.0894 25.6002 53.2574 17.9196 54.3467 9.67285L54.4209 9.10938L54.4082 9.1084C54.5123 8.01855 54.5045 6.67194 53.9531 5.31738L53.8125 4.99707L53.6943 4.75977C52.4686 2.41859 49.9252 1.02564 46.6035 0.701172L46.2686 0.671875C40.167 0.220649 33.8708 2.5513 28.9785 7.03613C25.0392 10.6342 22.0821 15.4629 20.1719 21.3662L19.9902 21.9404L19.9893 21.9434C19.8971 22.2486 19.7842 22.562 19.668 22.8984L19.5703 23.1494L19.5674 23.1572L19.5645 23.166C19.4865 23.3892 19.3554 23.7464 19.2061 24.1475L18.9834 24.7461L19.6172 24.8193C19.8574 24.8471 20.1041 24.8744 20.3516 24.8975V24.8984L21.0156 24.9688L21.0205 24.9697L21.7627 25.0537H21.7646C22.973 25.1866 24.2779 25.3144 25.5889 25.334L25.5498 25.3721L26.8584 25.3184C26.9935 25.3129 27.1291 25.3067 27.2666 25.2949L27.2656 25.2939C27.9266 25.2465 28.5879 25.1552 29.249 25.0488L29.9121 24.9385H29.9141C30.5726 24.8238 31.2241 24.6867 31.8584 24.5322L32.4863 24.3721L32.4922 24.3701C33.3668 24.1272 34.2156 23.8424 35.0283 23.5234L35.8281 23.1934L35.8311 23.1924C41.9072 20.5285 46.417 15.1759 47.418 9.3877L47.5029 8.82617C47.5459 8.50321 47.5596 8.27417 47.5596 8.11914V7.78711Z" stroke="black"/>
</svg>
