<svg width="90" height="47" viewBox="0 0 90 47" fill="none" xmlns="http://www.w3.org/2000/svg">
<g clip-path="url(#clip0_594_1096)">
<path d="M61.9364 12.978L63.2356 19.5441L75.909 17.1889C67.2186 26.6331 56.8242 33.4657 45.5818 37.0727C41.2078 38.4766 37.7922 38.9617 34.8252 38.5927C31.4337 38.1734 28.5307 36.4643 27.2492 34.1316C26.6715 33.0805 26.3641 31.8727 26.3094 30.4364L19.4141 30.6857C19.5079 33.121 20.0948 35.3376 21.159 37.2743C23.5094 41.5527 28.2911 44.5253 33.9513 45.2264C34.9032 45.3443 35.8495 45.3965 36.7809 45.3965C41.0258 45.3965 44.9698 44.3138 47.7502 43.4219C60.197 39.4279 71.6548 31.8961 81.1745 21.5105L80.4167 33.328L87.3027 33.7428L88.9567 7.95801L61.9364 12.9789V12.978Z" fill="#292521"/>
<path d="M89.3375 7.53633C89.1992 7.42473 89.0208 7.38063 88.849 7.40853L61.826 12.4285C61.5158 12.4897 61.3087 12.7795 61.3719 13.0864L62.6711 19.6498C62.6999 19.7947 62.7862 19.9225 62.9125 20.0062C63.0388 20.0899 63.1948 20.1178 63.3434 20.0953L74.3192 18.0506C65.9483 26.7703 55.9782 33.1502 45.399 36.5439C41.1039 37.9254 37.7635 38.3997 34.8949 38.0424C31.6864 37.6464 28.9496 36.0481 27.7544 33.8692C27.617 33.6182 27.4953 33.3563 27.3923 33.0836C27.3235 32.9054 27.2604 32.7218 27.2028 32.5319C27.1508 32.3537 27.1053 32.1701 27.0709 31.9802C26.9614 31.4897 26.9038 30.9714 26.8815 30.4143C26.8759 30.2694 26.8128 30.1299 26.7032 30.03C26.588 29.9301 26.4385 29.868 26.289 29.8797L19.3956 30.1308C19.2405 30.1362 19.0966 30.1974 18.9935 30.309C18.8895 30.4152 18.8319 30.5601 18.8384 30.705C18.8495 30.9336 18.8616 31.1568 18.8783 31.379C18.895 31.5743 18.9127 31.7696 18.9359 31.9586C18.9526 32.1539 18.9758 32.3492 19.0046 32.5382C19.2693 34.3489 19.8209 36.0211 20.6493 37.5366C23.087 41.977 28.0377 45.0585 33.8789 45.7829C34.816 45.8945 35.7938 45.9557 36.7829 45.9557C41.181 45.9557 45.2522 44.8137 47.9314 43.9497C59.9139 40.1051 71.1423 32.9009 80.4967 23.0661L79.841 33.296C79.8355 33.4409 79.8875 33.5857 79.985 33.6973C80.089 33.8089 80.2264 33.8755 80.3815 33.8863L87.2694 34.2985C87.574 34.3147 87.8563 34.0807 87.8786 33.7747L89.5288 7.9935C89.54 7.82071 89.4712 7.65332 89.3394 7.53632L89.3375 7.53633ZM81.0232 32.8046L81.7476 21.5442C81.7587 21.3103 81.6213 21.0871 81.391 20.998C81.1662 20.9035 80.9081 20.9647 80.7409 21.1375C71.3057 31.4339 59.835 38.9567 47.5655 42.8905C44.9616 43.7265 41.011 44.8407 36.7792 44.8407C35.8366 44.8407 34.9107 44.7849 34.0192 44.6733C28.5457 43.9938 23.9293 41.1292 21.6634 37.0119C20.9446 35.7133 20.4561 34.276 20.197 32.7218C20.1627 32.5319 20.1339 32.3429 20.1107 32.1476C20.0874 31.9577 20.0642 31.7687 20.0531 31.5734C20.0354 31.4564 20.0243 31.3394 20.0187 31.2224L25.768 31.0164C25.7968 31.3565 25.8433 31.685 25.9008 32.0027C25.9352 32.1917 25.9751 32.3816 26.0271 32.5598C26.068 32.7488 26.1246 32.9333 26.1887 33.1115C26.3327 33.5633 26.5165 33.9862 26.7403 34.393C28.1083 36.8832 31.1728 38.7056 34.7491 39.1457C37.797 39.5246 41.2924 39.0341 45.7593 37.6023C57.023 33.9862 67.5958 27.0601 76.3354 17.5601C76.4969 17.3819 76.5248 17.1254 76.4041 16.9139C76.2834 16.7078 76.0419 16.6017 75.7949 16.6413L63.6861 18.8921L62.6051 13.4203L88.3346 8.63968L86.7586 33.1502L81.0204 32.8046H81.0232Z" fill="#292521"/>
<path d="M54.6334 5.46342C53.4318 2.92822 50.7294 1.37938 47.0268 1.1004C40.9209 0.648614 34.5902 2.97232 29.6692 7.48563C25.6045 11.2025 22.5743 16.2279 20.665 22.4124C20.5675 22.7301 20.4523 23.0586 20.3371 23.3871C20.3204 23.4258 19.9805 24.368 19.636 25.2707C19.4178 25.2374 19.1995 25.1987 18.9804 25.1537C18.0601 24.9476 17.1519 24.7361 16.2492 24.4742C14.5302 23.973 8.87286 22.0452 8.21165 18.2672L1.41016 19.3867C2.32396 24.5795 7.00997 28.7644 14.2665 30.8757C15.8192 31.3275 17.3775 31.6892 18.9349 31.9565C19.1299 31.9952 19.3314 32.0294 19.5274 32.0573C19.7233 32.0852 19.9183 32.1185 20.1143 32.1464C22.0292 32.4191 23.9264 32.5586 25.807 32.5586H26.0308C26.2258 32.5586 26.4217 32.5532 26.6177 32.5478C26.8136 32.5478 27.0086 32.5424 27.2046 32.5307C31.5396 32.375 35.6907 31.467 39.4573 29.8173C47.9146 26.1176 54.0837 18.4004 55.1711 10.1648C55.3439 8.86618 55.4358 7.15625 54.6362 5.46252L54.6334 5.46342ZM27.8286 24.4913C29.3581 19.5325 31.7039 15.5817 34.8029 12.7513C37.8897 9.91553 41.8059 8.2938 45.5484 8.2938C45.853 8.2938 46.1576 8.3046 46.451 8.3271C47.1698 8.37749 47.5951 8.51699 47.8078 8.60609C47.8078 8.73388 47.7967 8.93997 47.7558 9.24686C46.985 15.0471 42.5182 20.5297 36.3779 23.2215C35.3489 23.667 34.2503 24.0575 33.1062 24.3752C32.2899 24.5921 31.4393 24.782 30.5765 24.9323C29.6915 25.0826 28.8288 25.2221 27.9717 25.2833C27.8454 25.2941 27.7191 25.3004 27.5863 25.3058C27.707 24.8882 27.8045 24.5534 27.8277 24.4922L27.8286 24.4913Z" fill="#292521"/>
<path d="M55.1572 5.23011C53.8636 2.50592 50.9941 0.839189 47.0733 0.544002C40.7946 0.0814207 34.3088 2.46632 29.2727 7.07953C25.1393 10.863 22.0571 15.9667 20.1134 22.252C20.0159 22.5643 19.9063 22.8874 19.8088 23.1772C19.8032 23.188 19.7623 23.2888 19.7048 23.4445C19.6072 23.7117 19.4457 24.1572 19.2618 24.6423C19.2098 24.6315 19.1578 24.6198 19.1123 24.6144C18.1 24.3858 17.255 24.1851 16.4154 23.9403C14.7764 23.4607 9.38365 21.6337 8.78002 18.1734L8.68251 17.6271L0.748047 18.9311L0.839984 19.4828C1.79465 24.8871 6.62367 29.2393 14.0984 31.4118C15.731 31.8852 17.3645 32.2587 19.0027 32.5377C19.2033 32.571 19.4048 32.6043 19.6063 32.6322C19.8013 32.6655 20.0029 32.6934 20.1988 32.7213C22.0728 32.9832 23.9469 33.1173 25.8042 33.1173C25.9305 33.1173 26.0624 33.1173 26.1896 33.1119C26.3902 33.1119 26.5917 33.1119 26.7932 33.1065C26.9947 33.1011 27.1962 33.0957 27.3913 33.084C31.7894 32.9058 35.9182 31.9806 39.6895 30.3256C48.3251 26.5475 54.627 18.6638 55.7367 10.2393C55.9206 8.86865 56.019 7.06333 55.1563 5.2301L55.1572 5.23011ZM54.5991 10.0944C53.5358 18.1455 47.4986 25.6899 39.2187 29.3122C35.4985 30.9394 31.417 31.8366 27.0699 31.9815C26.8749 31.9869 26.679 31.9923 26.483 31.9923C26.288 32.0031 26.0976 32.0031 25.9026 32.0031H25.8051C23.9014 32.0031 21.9763 31.8582 20.0558 31.5738C19.8598 31.5459 19.6593 31.5126 19.4633 31.4793C19.2683 31.4514 19.0723 31.4181 18.8764 31.3785C17.3933 31.1166 15.9093 30.7711 14.4318 30.3427C7.65355 28.37 3.19135 24.5649 2.0881 19.8392L7.77428 18.9032C8.8896 22.6363 14.3687 24.5082 16.0821 25.0104C16.9504 25.2615 17.8121 25.4676 18.8587 25.7016L18.8532 25.7187L19.5487 25.8249C20.0372 25.8978 20.5378 25.9472 21.0318 25.9976C21.2565 26.0201 21.4748 26.0426 21.693 26.0642L22.435 26.1479C23.7751 26.2982 25.2006 26.4377 26.6493 26.4377C27.1498 26.4431 27.6151 26.4269 28.058 26.399C28.9718 26.327 29.8634 26.1821 30.7772 26.0255C31.6742 25.8698 32.5648 25.6746 33.422 25.446C34.6181 25.1112 35.7733 24.7107 36.8487 24.2373C43.3456 21.3898 48.0771 15.5671 48.8934 9.38792C48.9677 8.79755 48.9798 8.37367 48.9166 8.13968L48.8702 7.96688L48.7383 7.85529C48.4393 7.6042 47.7094 7.30361 46.5365 7.21451C46.2152 7.19202 45.8753 7.18122 45.5475 7.18122C41.5171 7.18122 37.3084 8.91455 34.008 11.9393C30.7651 14.9092 28.3106 19.0265 26.7291 24.1527C26.718 24.1914 26.6028 24.5928 26.4533 25.0995L26.3846 25.3227C25.0854 25.3056 23.7862 25.1778 22.5669 25.0437L21.8249 24.96C21.6001 24.9321 21.3763 24.9096 21.147 24.888C20.9055 24.8655 20.6641 24.8376 20.4226 24.8097C20.5721 24.4083 20.7049 24.0465 20.7848 23.8179L20.8823 23.5668C20.9974 23.233 21.1182 22.8982 21.2157 22.5751C23.0962 16.4796 26.0744 11.537 30.0639 7.89309C34.8651 3.49137 41.0286 1.21807 46.9795 1.65815C50.4694 1.92004 52.999 3.35188 54.1088 5.69808C54.8508 7.26942 54.7588 8.87405 54.5972 10.0944L54.5991 10.0944ZM27.5872 25.3056C27.7079 24.888 27.8054 24.5532 27.8287 24.492C29.3582 19.5332 31.704 15.5824 34.8029 12.752C37.8898 9.91621 41.8059 8.29448 45.5484 8.29448C45.853 8.29448 46.1576 8.30528 46.4511 8.32778C47.1698 8.37818 47.5952 8.51767 47.8078 8.60677C47.8078 8.73456 47.7967 8.94065 47.7558 9.24754C46.985 15.0478 42.5182 20.5304 36.3779 23.2222C35.3489 23.6676 34.2503 24.0582 33.1062 24.3759C32.2899 24.5928 31.4393 24.7827 30.5766 24.933C29.6916 25.0833 28.8288 25.2228 27.9717 25.284C27.8454 25.2948 27.7191 25.3011 27.5863 25.3065L27.5872 25.3056Z" fill="#292521"/>
</g>
<defs>
<clipPath id="clip0_594_1096">
<rect width="89.2533" height="46.4487" fill="white" transform="translate(0.734375 0.0283203)"/>
</clipPath>
</defs>
</svg>
