<svg width="120" height="101" viewBox="0 0 120 101" fill="none" xmlns="http://www.w3.org/2000/svg">
<g clip-path="url(#clip0_552_1038)">
<path d="M41.3477 43.048C40.7141 42.8425 40.0586 43.2961 40.0586 43.9435V61.8954C40.0586 62.3041 40.3291 62.6656 40.7312 62.7908C44.7619 64.069 48.7781 65.6332 52.7454 67.4855C53.3912 67.7879 54.1394 67.3296 54.1394 66.6326V48.7942C54.1394 48.435 53.9298 48.1042 53.5959 47.9436C49.553 46.0156 45.4589 44.383 41.3477 43.048Z" fill="black"/>
<path d="M67.7797 44.8184C78.9483 39.8142 90.8529 36.8844 102.29 36.3339C102.811 36.3079 103.221 35.8968 103.221 35.3912V11.2467C103.221 10.2946 102.394 9.53612 101.415 9.59283C90.1779 10.252 78.5779 13.2101 67.3581 18.4648C66.7708 18.7389 66.4004 19.3201 66.4004 19.9509V43.9584C66.398 44.6483 67.1339 45.1067 67.7797 44.8184Z" fill="black"/>
<path d="M115.345 14.3289H114.882V11.0967C114.882 9.33888 113.405 7.90708 111.592 7.90708H110.203V4.48825C110.203 2.20824 108.29 0.353516 105.939 0.353516C91.3485 0.353516 77.0532 4.24962 64.6003 11.6236L60.2698 14.1872L55.9393 11.6236C43.4864 4.25198 29.1912 0.353516 14.6011 0.353516C12.2494 0.353516 10.3364 2.20824 10.3364 4.48825V7.90472H8.94731C7.1342 7.90472 5.6574 9.33652 5.6574 11.0944V84.0216C5.6574 84.9431 6.06925 85.8197 6.78572 86.4245C7.50218 87.0294 8.4526 87.3058 9.39571 87.1806C24.5561 85.1628 40.2672 86.5001 54.833 91.046C54.9061 91.0885 54.9792 91.131 55.0523 91.1736L58.0473 92.948C58.7321 93.3543 59.5022 93.5575 60.2698 93.5575C61.0375 93.5575 61.8076 93.3543 62.4923 92.948L65.4874 91.1736C77.6722 83.9602 91.6604 80.1468 105.936 80.1468C108.288 80.1468 110.201 78.2921 110.201 76.0121V9.56098H111.59C112.462 9.56098 113.174 10.2509 113.174 11.0967V84.024C113.174 84.4682 112.977 84.8888 112.63 85.1817C112.284 85.4723 111.826 85.607 111.373 85.5456C101.598 84.2437 91.7286 84.5084 82.0417 86.3324C81.5787 86.4198 81.2765 86.8545 81.3666 87.3011C81.4446 87.6956 81.8029 87.9697 82.2025 87.9697C82.2561 87.9697 82.3122 87.965 82.3658 87.9555C91.87 86.167 101.55 85.9071 111.142 87.1829C112.082 87.3082 113.035 87.0341 113.752 86.4269C114.468 85.822 114.88 84.9455 114.88 84.024V15.9828H115.343C116.754 15.9828 117.902 17.0956 117.902 18.4637V89.9875C117.902 91.3555 116.754 92.4683 115.343 92.4683H70.4393C69.389 92.4683 68.3849 92.955 67.7538 93.7678L66.0625 95.9486C64.7002 97.7041 62.5362 98.7531 60.2698 98.7531C58.0035 98.7531 55.8394 97.7041 54.4772 95.9486L52.7859 93.7678C52.1547 92.955 51.1507 92.4683 50.1004 92.4683H5.19438C3.78338 92.4683 2.63556 91.3555 2.63556 89.9875V18.4637C2.63556 18.0077 2.25296 17.6367 1.78263 17.6367C1.31229 17.6367 0.929688 18.0077 0.929688 18.4637V89.9875C0.929688 92.2675 2.84271 94.1222 5.19438 94.1222H50.1004C50.617 94.1222 51.1117 94.3608 51.4236 94.7625L53.1149 96.9433C54.7964 99.1122 57.4722 100.407 60.2723 100.407C63.0723 100.407 65.7457 99.1122 67.4296 96.9433L69.1209 94.7625C69.4328 94.3608 69.9251 94.1222 70.4442 94.1222H115.345C117.697 94.1222 119.61 92.2675 119.61 89.9875V18.4637C119.61 16.1836 117.697 14.3289 115.345 14.3289ZM9.1642 85.5432C8.71092 85.6047 8.25277 85.47 7.90672 85.1794C7.56068 84.8887 7.36328 84.4658 7.36328 84.0216V11.0967C7.36328 10.2509 8.07487 9.56098 8.94731 9.56098H10.3364V76.0144C10.3364 78.2944 12.2494 80.1492 14.6011 80.1492C26.1937 80.1492 37.5939 82.6631 47.9924 87.4688C35.3299 84.4989 22.0509 83.8279 9.1642 85.5432ZM108.497 76.0144C108.497 77.3824 107.35 78.4953 105.939 78.4953C91.346 78.4953 77.0532 82.3914 64.6003 89.7654L61.6053 91.5398C60.7816 92.0265 59.7605 92.0265 58.9392 91.5398L55.9442 89.7654C43.4913 82.3937 29.1961 78.4953 14.6059 78.4953C13.1949 78.4953 12.0471 77.3824 12.0471 76.0144V4.48825C12.0471 3.12024 13.1949 2.00741 14.6059 2.00741C28.8841 2.00741 42.8699 5.82082 55.0547 13.0342L59.4193 15.619V77.0611C59.4193 77.5171 59.8019 77.8881 60.2723 77.8881C60.7426 77.8881 61.1252 77.5171 61.1252 77.0611V15.619L65.4898 13.0342C77.6746 5.82082 91.6628 2.00741 105.939 2.00741C107.35 2.00741 108.497 3.12024 108.497 4.48825L108.497 76.0144Z" fill="black"/>
<path d="M103.218 38.4092C102.748 38.4092 102.366 38.7801 102.366 39.2361V70.1309C102.366 70.568 102.015 70.9295 101.564 70.9554C97.5135 71.1823 93.4633 71.7068 89.4228 72.503V56.7887V56.7863V40.9609C89.4228 40.5049 89.0402 40.1339 88.5699 40.1339C88.0995 40.1339 87.7169 40.5049 87.7169 40.9609V56.1342C81.7415 57.436 75.7758 59.3569 69.9734 61.8519C69.542 62.0362 69.3495 62.5253 69.5396 62.9435C69.6809 63.253 69.9929 63.4349 70.3194 63.4349C70.434 63.4349 70.5534 63.4113 70.6655 63.3641C76.2437 60.9659 81.9754 59.1065 87.7169 57.8306V61.1431C87.0614 60.5359 86.1061 60.2429 85.1362 60.4863C82.9137 61.0415 80.6936 61.6842 78.476 62.4143C73.0098 64.2146 68.9157 68.4415 67.2488 73.5969V47.938C67.2488 47.482 66.8662 47.111 66.3959 47.111C65.9256 47.111 65.543 47.482 65.543 47.938V78.4901C65.543 79.3407 65.9841 80.1251 66.7249 80.5835C67.1441 80.8434 67.6193 80.9733 68.0969 80.9733C68.46 80.9733 68.8256 80.8977 69.1692 80.7441C79.8212 75.9573 90.751 73.2189 101.659 72.607C103.009 72.5314 104.067 71.4445 104.067 70.1332V39.2361C104.071 38.7778 103.691 38.4092 103.218 38.4092Z" fill="black"/>
<path d="M60.2709 80.9961C59.8006 80.9961 59.418 81.367 59.418 81.823V87.8928C59.418 88.3488 59.8006 88.7198 60.2709 88.7198C60.7412 88.7198 61.1238 88.3488 61.1238 87.8928V81.823C61.1238 81.367 60.7412 80.9961 60.2709 80.9961Z" fill="black"/>
<path d="M53.5618 17.72C42.3347 12.4157 30.7689 9.35603 19.1884 8.62832C18.489 8.58343 17.7896 8.82679 17.2778 9.29224C16.7636 9.76006 16.4688 10.4216 16.4688 11.1044V69.9878C16.4688 71.2944 17.5215 72.3812 18.8667 72.4615C29.777 73.1184 40.7093 75.8993 51.3588 80.7286C51.7049 80.8846 52.0728 80.9625 52.4384 80.9625C52.916 80.9625 53.3888 80.8326 53.808 80.5727C54.5512 80.1143 54.9948 79.3323 54.9948 78.477V70.6801C54.9948 70.2241 54.6122 69.8531 54.1418 69.8531C53.6715 69.8531 53.2889 70.2241 53.2889 70.6801V78.477C53.2889 78.7652 53.1451 79.0204 52.8917 79.1763C52.6431 79.3299 52.3482 79.3488 52.0801 79.2283C41.2356 74.3115 30.0963 71.4787 18.9691 70.81C18.5231 70.784 18.1722 70.4225 18.1722 69.9878V59.4572C24.2817 59.7738 30.4935 60.7803 36.6541 62.4507C36.7321 62.472 36.8077 62.4815 36.8857 62.4815C37.2585 62.4815 37.6021 62.2428 37.7069 61.8766C37.8336 61.4372 37.5704 60.9811 37.1147 60.8583C30.8054 59.1453 24.4376 58.1175 18.1722 57.8009V39.516C24.5132 39.8444 30.9614 40.9147 37.3511 42.7033C37.4291 42.7245 37.5095 42.7363 37.5875 42.7363C37.9579 42.7363 38.2991 42.5001 38.4063 42.1386C38.5379 41.6991 38.2747 41.2407 37.8239 41.1155C35.9791 40.5981 34.127 40.1421 32.2749 39.7451V12.1417C39.1935 13.6585 46.0633 16.0189 52.8137 19.2085C53.1012 19.3432 53.2864 19.6362 53.2864 19.9504V45.1865C53.2864 45.6425 53.669 46.0134 54.1394 46.0134C54.6097 46.0134 54.9923 45.6425 54.9923 45.1865V19.948C54.9948 19.0053 54.4318 18.1311 53.5618 17.72ZM30.5715 22.3438C28.8851 18.1477 24.8617 15.0572 19.9829 14.665C19.9366 14.6603 19.8903 14.6579 19.8415 14.6532C19.2103 14.6036 18.623 14.8021 18.1722 15.1588V11.1068C18.1722 10.8753 18.2697 10.6602 18.4427 10.5019C18.6157 10.3436 18.8424 10.2657 19.0763 10.2799C22.9121 10.5208 26.7479 11.0241 30.569 11.7849V22.3438H30.5715Z" fill="black"/>
</g>
<defs>
<clipPath id="clip0_552_1038">
<rect width="118.63" height="100.253" fill="white" transform="translate(0.982422 0.230469)"/>
</clipPath>
</defs>
</svg>
