<svg width="43" height="13" viewBox="0 0 43 13" fill="none" xmlns="http://www.w3.org/2000/svg">
<path d="M42.1387 6.0534C42.1387 6.85612 42.0542 7.62831 41.8851 8.36993C41.7161 9.11156 41.4754 9.76618 41.163 10.3338C40.8507 10.9014 40.4905 11.3388 40.0824 11.646C39.6743 11.9532 39.2493 12.1068 38.8076 12.1068C38.3659 12.1068 37.941 11.9532 37.5329 11.646C37.1248 11.3388 36.7645 10.9014 36.4522 10.3338C36.1399 9.76619 35.8992 9.11156 35.7301 8.36993C35.5611 7.62831 35.4766 6.85612 35.4766 6.0534C35.4766 5.25066 35.5611 4.47848 35.7301 3.73686C35.8992 2.99523 36.1399 2.34061 36.4522 1.77299C36.7645 1.20538 37.1248 0.767969 37.5329 0.460777C37.941 0.153596 38.3659 0 38.8076 0C39.2493 0 39.6743 0.153596 40.0824 0.460777C40.4905 0.767969 40.8507 1.20538 41.163 1.77299C41.4754 2.34061 41.7161 2.99523 41.8851 3.73686C42.0542 4.47848 42.1387 5.25066 42.1387 6.0534Z" fill="black"/>
<path d="M6.66212 6.0534C6.66212 6.85612 6.5776 7.62831 6.40856 8.36993C6.23952 9.11156 5.99882 9.76618 5.68647 10.3338C5.37413 10.9014 5.0139 11.3388 4.6058 11.646C4.1977 11.9532 3.77279 12.1068 3.33106 12.1068C2.88933 12.1068 2.46441 11.9532 2.05631 11.646C1.64821 11.3388 1.28798 10.9014 0.975643 10.3338C0.663291 9.76619 0.422595 9.11156 0.253549 8.36993C0.0845098 7.62831 -6.56328e-06 6.85612 3.82267e-10 6.0534C-6.56328e-06 5.25066 0.0845165 4.47848 0.253556 3.73686C0.422595 2.99523 0.663291 2.34061 0.975643 1.77299C1.28798 1.20538 1.64821 0.767969 2.05631 0.460777C2.46441 0.153596 2.88933 0 3.33106 0C3.77279 0 4.1977 0.153596 4.6058 0.460777C5.0139 0.767969 5.37413 1.20538 5.68647 1.77299C5.99882 2.34061 6.23952 2.99523 6.40856 3.73686C6.5776 4.47848 6.66212 5.25066 6.66212 6.0534Z" fill="black"/>
</svg>
