<svg width="146" height="149" viewBox="0 0 146 149" fill="none" xmlns="http://www.w3.org/2000/svg">
<g clip-path="url(#clip0_478_2190)">
<path d="M28.8647 85.5046C28.8647 85.5046 18.7894 75.3326 9.40886 88.2928C0.0282848 101.253 18.6144 123.304 34.0773 110.344L28.8647 85.5046Z" fill="#F5EDE1"/>
<path d="M24.0182 115.28C23.6955 115.28 23.3728 115.269 23.0501 115.248C19.4127 115.009 15.8793 113.472 12.8326 110.806C9.57814 107.959 7.19334 104.005 6.2799 99.9553C5.79856 97.8138 5.72746 95.7042 6.07205 93.6846C6.44399 91.5113 7.28633 89.5076 8.57718 87.7213C11.7168 83.3853 15.2995 81.0371 19.2213 80.7456C25.0739 80.3109 29.4223 84.631 29.6083 84.8165C29.745 84.9543 29.8325 85.1239 29.8708 85.3042L35.0835 110.143C35.1546 110.493 35.0288 110.854 34.7498 111.092C31.468 113.848 27.7759 115.28 24.0182 115.28ZM20.0362 82.7015C19.812 82.7015 19.5877 82.7121 19.3635 82.728C16.0816 82.9771 13.0186 85.0444 10.2509 88.8662C5.53602 95.3861 8.5553 104.392 14.2055 109.338C18.7235 113.292 25.9764 115.476 32.9557 109.968L27.9291 86.0092C27.1195 85.2777 23.969 82.7015 20.0362 82.7015Z" fill="black"/>
<path d="M116.904 85.5046C116.904 85.5046 126.979 75.3326 136.36 88.2928C145.74 101.253 127.154 123.304 111.691 110.344L116.904 85.5046Z" fill="#F5EDE1"/>
<path d="M121.751 115.28C117.993 115.28 114.301 113.844 111.025 111.098C110.746 110.865 110.62 110.504 110.691 110.149L115.904 85.31C115.942 85.1245 116.035 84.9549 116.167 84.8224C116.347 84.6368 120.701 80.3168 126.554 80.7514C130.481 81.043 134.058 83.3912 137.198 87.7271C138.489 89.5135 139.331 91.5171 139.703 93.6904C140.047 95.7047 139.976 97.8144 139.495 99.9612C138.582 104.011 136.197 107.965 132.942 110.812C129.896 113.478 126.362 115.015 122.725 115.254C122.397 115.27 122.074 115.28 121.751 115.28ZM112.814 109.969C119.793 115.476 127.046 113.292 131.564 109.338C137.214 104.393 140.233 95.3867 135.518 88.8668C132.751 85.0397 129.677 82.9724 126.39 82.7286C122.129 82.4105 118.688 85.2411 117.84 86.0044L112.814 109.969Z" fill="black"/>
<path d="M25.7738 63.2473C25.7738 63.2473 18.0068 148.35 74.4598 147.481C130.913 146.611 118.07 52.8261 118.07 52.8261C118.07 52.8261 98.6578 28.2202 70.2809 26.4869C41.904 24.7482 25.7738 63.2473 25.7738 63.2473Z" fill="#F5EDE1"/>
<path d="M73.6113 148.477C61.1677 148.477 50.8573 144.3 42.9426 136.053C37.7409 130.63 33.5511 123.41 30.4825 114.59C28.043 107.572 26.3091 99.5254 25.3246 90.6785C23.6509 75.6351 24.7448 63.2845 24.7557 63.1573C24.7667 63.0566 24.7886 62.9611 24.8268 62.871C24.9909 62.4735 29.0002 53.0117 36.5813 43.603C41.0555 38.0531 45.8415 33.6959 50.808 30.6586C57.0763 26.8262 63.6509 25.0876 70.3404 25.4957C76.9369 25.8986 83.599 27.5577 90.1353 30.4307C95.348 32.7206 100.5 35.7791 105.44 39.5267C113.847 45.8982 118.676 51.9675 118.879 52.2219C118.988 52.3597 119.059 52.524 119.081 52.6937C119.103 52.8368 121.017 67.0904 120.093 84.3071C119.551 94.4367 118.146 103.602 115.92 111.547C113.125 121.545 109.006 129.644 103.684 135.623C96.2724 143.967 86.4433 148.287 74.4755 148.472C74.1856 148.477 73.9012 148.477 73.6113 148.477ZM26.7795 63.4859C26.6647 64.9277 25.8059 76.5415 27.3648 90.5089C28.8854 104.142 33.0807 122.88 44.4413 134.711C51.9512 142.535 61.7639 146.5 73.6168 146.5C73.8903 146.5 74.1692 146.5 74.4427 146.495C85.7978 146.32 95.1182 142.228 102.136 134.34C113.765 121.274 117.205 99.8858 118.047 84.2487C118.895 68.495 117.342 55.2539 117.085 53.229C116.166 52.1159 111.5 46.6349 104.132 41.0586C96.5896 35.3497 84.5835 28.3581 70.2091 27.4782C56.0152 26.6089 44.9773 36.4099 38.2222 44.7903C31.2866 53.3827 27.3046 62.2826 26.7795 63.4859Z" fill="black"/>
<path d="M70.6364 39.7025C70.6364 39.7025 66.3809 56.9351 57.9576 63.4073C49.5342 69.8795 50.4805 60.5979 50.4805 60.5979C50.4805 60.5979 44.3598 71.2736 37.9657 75.2279C31.5716 79.1822 30.7566 74.173 30.7566 74.173L25.7081 83.2478C25.7081 83.2478 10.2178 78.5249 16.065 64.6848C16.065 64.6848 8.55503 69.959 6.87036 65.8721C5.18568 61.7853 6.4109 43.8636 23.2741 30.6807C23.2741 30.6807 15.6602 29.5623 15.7915 26.4296C15.9282 23.2968 29.5259 13.8086 57.2738 13.0188C57.2738 13.0188 47.0728 7.74457 49.3865 3.92276C51.7002 0.100954 68.5634 11.1741 68.5634 11.1741C68.5634 11.1741 80.6679 0.365991 85.4265 2.34315C90.1852 4.32032 82.7081 12.0965 82.7081 12.0965C82.7081 12.0965 100.796 11.4392 113.716 21.0599C126.635 30.6807 116.708 33.8453 116.708 33.8453C116.708 33.8453 130.174 45.5757 133.029 55.9863C135.885 66.3969 127.724 61.5202 127.724 61.5202C127.724 61.5202 130.585 76.834 119.087 83.8097C119.087 83.8097 111.539 77.6026 108.137 70.6163C108.137 70.6163 106.097 74.173 101.475 71.2735C96.8528 68.3741 91.1369 60.2004 91.1369 60.2004C91.1369 60.2004 90.3219 68.8988 83.7911 62.9673C77.2766 57.0412 70.6364 39.7025 70.6364 39.7025Z" fill="black"/>
<path d="M119.098 84.8009C118.863 84.8009 118.628 84.7214 118.436 84.5677C118.141 84.3239 111.577 78.8853 107.912 72.3549C107.442 72.7259 106.824 73.0811 106.047 73.2719C104.483 73.6482 102.76 73.2613 100.933 72.1163C97.5309 69.9801 93.6583 65.2413 91.6564 62.6122C91.2134 63.8843 90.4093 65.2996 88.9598 65.835C88.577 65.9781 88.1777 66.047 87.762 66.047C86.3781 66.047 84.8193 65.2625 83.1072 63.7094C80.3067 61.1651 77.189 56.3997 73.8525 49.5512C72.5999 46.9804 71.5443 44.5845 70.8113 42.8405C70.2753 44.5739 69.4767 46.9327 68.4101 49.5141C65.533 56.4686 62.2293 61.4089 58.5974 64.1971C55.5563 66.5347 53.2535 67.2291 51.5524 66.328C50.5405 65.7926 49.999 64.7961 49.7201 63.773C47.4337 67.2662 43.0962 73.2507 38.529 76.076C35.9199 77.6874 33.7594 78.1432 32.1021 77.417C31.5059 77.1573 31.0519 76.7757 30.7182 76.3728L26.6269 83.7302C26.3917 84.1489 25.8885 84.3504 25.4181 84.2073C25.1118 84.1118 17.837 81.8378 14.9162 75.8056C13.6254 73.1341 13.3956 70.171 14.2325 66.9641C14.0848 67.0436 13.9262 67.1178 13.7676 67.1973C11.4593 68.3104 9.57777 68.6762 8.17205 68.2786C7.13827 67.9871 6.36157 67.2874 5.9404 66.2591C4.91756 63.7836 5.01055 57.8839 7.16015 51.4012C8.94875 45.9573 12.8104 38.1971 21.0204 31.2267C20.4406 31.0783 19.7897 30.8927 19.1388 30.6595C17.9355 30.2301 16.9728 29.7372 16.2672 29.1859C14.9819 28.1735 14.7467 27.108 14.7795 26.3871C14.8396 24.94 16.4587 23.3922 17.7988 22.348C19.7843 20.8055 22.5465 19.2789 25.7846 17.9325C31.2433 15.6638 40.4325 12.9074 53.8989 12.1653C53.6036 11.9745 53.3027 11.7678 52.9964 11.5505C50.2834 9.6263 48.6644 7.81876 48.1831 6.17554C47.8987 5.20021 48.0135 4.24608 48.5113 3.42448C48.7683 3.00042 49.2825 2.44915 50.278 2.23182C52.3948 1.76535 56.1306 2.98452 61.6933 5.95291C64.6251 7.51662 67.2779 9.16514 68.4757 9.92314C69.5423 9.01142 71.9053 7.05016 74.6292 5.20551C79.8145 1.69114 83.4792 0.45608 85.8366 1.43141C87.2971 2.03569 87.7948 3.05873 87.9589 3.81143C88.2871 5.32213 87.6034 7.31519 85.9296 9.73232C85.5796 10.2359 85.224 10.7076 84.8959 11.1211C86.8321 11.1794 89.9007 11.3808 93.549 11.9957C97.1754 12.6106 100.621 13.5117 103.788 14.6726C107.765 16.1356 111.32 18.0173 114.345 20.2754C117.052 22.2897 119 24.2032 120.137 25.9631C121.16 27.548 121.554 29.0534 121.313 30.4316C120.985 32.2815 119.607 33.453 118.496 34.105C119.798 35.3135 122.101 37.5451 124.579 40.3704C129.622 46.1005 132.794 51.274 134.019 55.7318C135.07 59.5537 134.829 61.9549 133.281 63.0627C132.007 63.9798 130.262 63.6617 128.96 63.1899C129.097 64.8067 129.168 67.3351 128.73 70.1922C128.293 73.0334 127.439 75.6148 126.187 77.8517C124.612 80.677 122.407 82.9616 119.634 84.6419C119.475 84.7479 119.284 84.8009 119.098 84.8009ZM108.153 69.6144C108.164 69.6144 108.17 69.6144 108.18 69.6144C108.569 69.625 108.913 69.8529 109.077 70.1922C111.807 75.8003 117.397 80.9844 119.196 82.564C123.304 79.8236 125.831 75.5883 126.712 69.9589C127.412 65.4639 126.739 61.7323 126.734 61.6951C126.663 61.3082 126.832 60.9212 127.166 60.6986C127.5 60.476 127.937 60.4707 128.276 60.6721C129.359 61.3135 131.317 62.0132 132.078 61.4672C132.439 61.2075 132.564 60.635 132.608 60.195C132.701 59.2356 132.515 57.9051 132.061 56.2354C129.315 46.2224 116.177 34.688 116.046 34.5767C115.772 34.3382 115.652 33.9831 115.729 33.6332C115.805 33.2887 116.062 33.0077 116.412 32.8964C116.434 32.8911 118.978 32.0377 119.317 30.0817C119.47 29.1965 119.164 28.1576 118.414 26.9967C117.408 25.4436 115.625 23.705 113.12 21.8391C106.627 17.0049 98.7397 14.8793 93.2645 13.9464C87.2916 12.9339 82.8119 13.0771 82.7681 13.0771C82.3524 13.093 81.9695 12.865 81.8 12.4993C81.6304 12.1335 81.7015 11.7042 81.9805 11.4126C81.9914 11.402 83.1783 10.1617 84.2613 8.59797C85.5686 6.70562 86.1757 5.15251 85.9734 4.21428C85.9077 3.91744 85.7436 3.54109 85.0435 3.24956C83.4846 2.60287 80.1317 3.90154 75.8325 6.81163C72.3045 9.20225 69.3071 11.8685 69.2743 11.895C68.9242 12.2077 68.3991 12.2449 68.0053 11.9851C67.9725 11.9639 64.5813 9.74292 60.7032 7.67035C53.8661 4.02346 51.4594 3.99166 50.7429 4.15068C50.4038 4.22489 50.3217 4.3574 50.2889 4.41571C50.0701 4.77616 50.0318 5.16311 50.1686 5.62427C50.8906 8.10501 55.9063 11.1635 57.7769 12.1335C58.1872 12.3456 58.395 12.7961 58.2911 13.2361C58.1872 13.6707 57.7879 13.9888 57.3284 13.9994C42.3359 14.4287 32.3482 17.36 26.6105 19.7454C19.2482 22.8092 16.8744 25.7405 16.8415 26.4614C16.8087 27.2459 17.9081 28.094 19.8608 28.7884C21.633 29.4191 23.4326 29.6842 23.4544 29.6895C23.8537 29.7478 24.1819 30.0287 24.2858 30.4104C24.3898 30.792 24.2585 31.1949 23.9412 31.4387C15.0037 38.425 10.9452 46.4609 9.11282 51.979C6.89212 58.679 7.15466 63.8207 7.84385 65.4905C8.03529 65.9569 8.31424 66.222 8.74635 66.3439C9.62151 66.5877 11.0819 66.2485 12.8596 65.3897C14.3255 64.6794 15.4741 63.879 15.485 63.8684C15.857 63.6087 16.3602 63.6193 16.7157 63.8896C17.0767 64.1653 17.2025 64.637 17.0275 65.0452C15.4686 68.7345 15.3811 72.058 16.7595 74.9204C18.7669 79.0868 23.3943 81.2707 25.243 82.0022L29.865 73.6907C30.0728 73.3143 30.5104 73.1023 30.9425 73.1765C31.3746 73.2507 31.7082 73.5793 31.7739 74.0034C31.7903 74.0776 32.0255 75.1961 32.9499 75.5936C33.9235 76.0071 35.4714 75.5936 37.4241 74.385C43.5228 70.6109 49.5341 60.2163 49.5942 60.1102C49.8294 59.7021 50.3327 59.506 50.7921 59.6438C51.257 59.7816 51.5524 60.2216 51.5032 60.688C51.3992 61.7217 51.5141 64.0328 52.5315 64.5681C52.9362 64.7802 54.2052 65.0134 57.3284 62.6228C60.6267 60.089 63.7991 55.3025 66.5011 48.7773C68.5687 43.7841 69.6353 39.5064 69.6462 39.464C69.7502 39.0399 70.1276 38.7325 70.5816 38.706C71.0301 38.6795 71.4458 38.9392 71.6044 39.3527C71.67 39.5223 78.2337 56.5376 84.5129 62.2411C86.0718 63.6617 87.3955 64.2713 88.2378 63.9639C89.5287 63.4868 90.0592 60.9584 90.1413 60.1049C90.1796 59.6862 90.4859 59.3416 90.907 59.2356C91.3227 59.1296 91.7658 59.2939 92.0065 59.6385C92.0612 59.718 97.6567 67.6796 102.054 70.436C103.378 71.2682 104.549 71.5704 105.539 71.3424C106.654 71.0827 107.229 70.1922 107.272 70.1233C107.437 69.8052 107.776 69.6144 108.153 69.6144Z" fill="black"/>
<path d="M14.3594 94.702C14.436 94.7073 14.5125 94.6543 14.4797 94.6543C14.4524 94.6649 14.3922 94.6967 14.3594 94.702Z" fill="black"/>
<path d="M20.8555 98.7891C20.8773 98.7945 20.9649 98.7891 20.9922 98.7617C20.9703 98.7781 20.9047 98.7836 20.8555 98.7891Z" fill="black"/>
<path d="M19.34 99.4148C19.3346 99.4148 19.3346 99.4148 19.34 99.4148C19.3455 99.4148 19.351 99.4039 19.3619 99.3984C19.3565 99.3984 19.3565 99.4039 19.351 99.4039C19.3455 99.4039 19.34 99.4094 19.34 99.4148Z" fill="black"/>
<path d="M25.166 102.853C24.8378 99.9271 24.1158 97.0594 22.1576 94.7324C21.3371 93.7571 20.276 92.9196 19.0891 92.4054C17.7545 91.8276 16.3816 91.6315 14.9376 91.8276C13.5045 92.0237 12.0933 92.7075 11.1525 93.7783C10.6931 94.3031 10.5782 95.1353 11.1525 95.6494C11.6612 96.1 12.5856 96.2113 13.0833 95.6494C13.2529 95.4586 13.4334 95.2837 13.6303 95.1194C13.6358 95.1141 13.6358 95.1141 13.6413 95.1088C13.6577 95.0982 13.6741 95.0876 13.7014 95.0717C13.8218 94.9921 13.9421 94.9179 14.0679 94.849C14.1663 94.796 14.2648 94.7483 14.3633 94.7006C14.3797 94.6953 14.3961 94.6847 14.407 94.6794C14.4453 94.6635 14.4672 94.6529 14.4781 94.6529H14.4836C14.7407 94.5628 15.0087 94.4886 15.2767 94.4356C15.3478 94.4197 15.676 94.3879 15.4791 94.3985C15.2603 94.4091 15.6869 94.3879 15.7362 94.3826C16.0151 94.3667 16.2886 94.3826 16.5676 94.3985C16.584 94.3985 16.5949 94.3985 16.6058 94.3985C16.6168 94.3985 16.6277 94.4038 16.6441 94.4038C16.759 94.425 16.8684 94.4462 16.9778 94.4674C17.2513 94.531 17.5138 94.6211 17.7764 94.7112C17.8311 94.7377 17.8858 94.7589 17.9405 94.7854C18.0499 94.8384 18.1538 94.8914 18.2632 94.9497C18.5202 95.0876 18.7554 95.2519 19.0016 95.4109C19.0016 95.4109 19.0016 95.4109 19.0071 95.4109C19.0344 95.4321 19.0672 95.4586 19.0946 95.4798C19.1985 95.5646 19.3079 95.6547 19.4063 95.7448C19.5923 95.9145 19.7728 96.0894 19.9424 96.2749C18.8758 96.524 17.8693 97.0276 17.12 97.8015C15.862 99.1055 15.4681 101.04 15.4134 102.774C15.3916 103.463 16.0534 104.125 16.7754 104.093C17.5302 104.062 18.1155 103.51 18.1374 102.774C18.1428 102.609 18.1483 102.44 18.1647 102.275C18.1757 102.169 18.1866 102.069 18.1975 101.968C18.1975 101.963 18.1975 101.963 18.1975 101.957C18.1975 101.952 18.1975 101.952 18.1975 101.947C18.2632 101.597 18.3288 101.252 18.4273 100.913C18.471 100.759 18.5202 100.606 18.5749 100.457C18.5913 100.415 18.6078 100.378 18.6242 100.335C18.6296 100.325 18.6843 100.208 18.7007 100.176C18.7664 100.054 18.8375 99.9324 18.9195 99.8158C18.9359 99.7946 18.9906 99.731 19.0071 99.7151C19.0289 99.6939 19.0453 99.678 19.0508 99.6727C19.1383 99.5826 19.2368 99.4977 19.3298 99.4129C19.3134 99.4288 19.2969 99.4394 19.2915 99.4341C19.2915 99.4341 19.3188 99.4182 19.3462 99.397C19.4337 99.3175 19.4009 99.3546 19.3571 99.3917C19.4009 99.3652 19.4446 99.3281 19.4556 99.3228C19.5814 99.2433 19.7072 99.1691 19.8439 99.1002C19.9041 99.0684 19.9642 99.0472 20.0244 99.0154C20.276 98.9253 20.5331 98.8458 20.7956 98.7928C20.8066 98.7928 20.8285 98.7875 20.8558 98.7875C20.8394 98.7822 20.8667 98.7716 20.9816 98.761H20.9871C20.9871 98.761 20.9925 98.761 20.9925 98.7557C20.9925 98.7557 20.9925 98.7557 20.9871 98.761C21.1348 98.7504 21.2824 98.7398 21.4301 98.7398C21.4411 98.7398 21.4575 98.7398 21.4684 98.7398C21.4903 98.7928 21.5122 98.8458 21.5286 98.8988C21.7802 99.5667 21.9771 100.261 22.1248 100.955C22.1959 101.284 22.2561 101.618 22.3108 101.952C22.3217 102.031 22.3381 102.111 22.349 102.191C22.3545 102.228 22.36 102.265 22.3655 102.297C22.3873 102.482 22.4092 102.662 22.4311 102.848C22.5077 103.532 23.0054 104.205 23.7931 104.168C24.4768 104.141 25.248 103.585 25.166 102.853Z" fill="black"/>
<path d="M130.148 94.702C130.071 94.7073 129.995 94.6543 130.027 94.6543C130.049 94.6649 130.109 94.6967 130.148 94.702C130.142 94.702 130.142 94.702 130.148 94.702Z" fill="black"/>
<path d="M123.645 98.7891C123.623 98.7945 123.535 98.7891 123.508 98.7617C123.53 98.7781 123.595 98.7836 123.645 98.7891Z" fill="black"/>
<path d="M125.159 99.4148C125.164 99.4148 125.164 99.4148 125.159 99.4148C125.153 99.4148 125.148 99.4039 125.137 99.3984C125.142 99.3984 125.142 99.4039 125.148 99.4039C125.153 99.4039 125.159 99.4094 125.159 99.4148Z" fill="black"/>
<path d="M119.332 102.853C119.66 99.9271 120.382 97.0594 122.341 94.7324C123.161 93.7571 124.222 92.9196 125.409 92.4054C126.744 91.8276 128.117 91.6315 129.561 91.8276C130.994 92.0237 132.405 92.7075 133.346 93.7783C133.805 94.3031 133.92 95.1353 133.346 95.6494C132.837 96.1 131.913 96.2113 131.415 95.6494C131.245 95.4586 131.065 95.2837 130.868 95.1194C130.862 95.1141 130.862 95.1141 130.857 95.1088C130.84 95.0982 130.824 95.0876 130.797 95.0717C130.676 94.9921 130.556 94.9179 130.43 94.849C130.332 94.796 130.233 94.7483 130.135 94.7006C130.118 94.6953 130.102 94.6847 130.091 94.6794C130.053 94.6635 130.031 94.6529 130.02 94.6529H130.015C129.757 94.5628 129.489 94.4886 129.221 94.4356C129.15 94.4197 128.822 94.3879 129.019 94.3985C129.238 94.4091 128.811 94.3879 128.762 94.3826C128.483 94.3667 128.21 94.3826 127.931 94.3985C127.914 94.3985 127.903 94.3985 127.892 94.3985C127.881 94.3985 127.87 94.4038 127.854 94.4038C127.739 94.425 127.63 94.4462 127.52 94.4674C127.247 94.531 126.984 94.6211 126.722 94.7112C126.667 94.7377 126.612 94.7589 126.558 94.7854C126.448 94.8384 126.344 94.8914 126.235 94.9497C125.978 95.0876 125.743 95.2519 125.497 95.4109C125.497 95.4109 125.497 95.4109 125.491 95.4109C125.464 95.4321 125.431 95.4586 125.404 95.4798C125.3 95.5646 125.19 95.6547 125.092 95.7448C124.906 95.9145 124.725 96.0894 124.556 96.2749C125.622 96.524 126.629 97.0276 127.378 97.8015C128.636 99.1055 129.03 101.04 129.085 102.774C129.107 103.463 128.445 104.125 127.723 104.093C126.968 104.062 126.383 103.51 126.361 102.774C126.355 102.609 126.35 102.44 126.333 102.275C126.323 102.169 126.312 102.069 126.301 101.968C126.301 101.963 126.301 101.963 126.301 101.957C126.301 101.952 126.301 101.952 126.301 101.947C126.235 101.597 126.169 101.252 126.071 100.913C126.027 100.759 125.978 100.606 125.923 100.457C125.907 100.415 125.89 100.378 125.874 100.335C125.869 100.325 125.814 100.208 125.797 100.176C125.732 100.054 125.661 99.9324 125.579 99.8158C125.562 99.7946 125.508 99.731 125.491 99.7151C125.469 99.6939 125.453 99.678 125.447 99.6727C125.36 99.5826 125.261 99.4977 125.168 99.4129C125.185 99.4288 125.201 99.4394 125.207 99.4341C125.207 99.4341 125.179 99.4182 125.152 99.397C125.064 99.3175 125.097 99.3546 125.141 99.3917C125.097 99.3652 125.054 99.3281 125.043 99.3228C124.917 99.2433 124.791 99.1691 124.654 99.1002C124.594 99.0684 124.534 99.0472 124.474 99.0154C124.222 98.9253 123.965 98.8458 123.702 98.7928C123.692 98.7928 123.67 98.7875 123.642 98.7875C123.659 98.7822 123.631 98.7716 123.517 98.761H123.511C123.511 98.761 123.506 98.761 123.506 98.7557C123.506 98.7557 123.506 98.7557 123.511 98.761C123.363 98.7504 123.216 98.7398 123.068 98.7398C123.057 98.7398 123.041 98.7398 123.03 98.7398C123.008 98.7928 122.986 98.8458 122.97 98.8988C122.718 99.5667 122.521 100.261 122.373 100.955C122.302 101.284 122.242 101.618 122.187 101.952C122.176 102.031 122.16 102.111 122.149 102.191C122.144 102.228 122.138 102.265 122.133 102.297C122.111 102.482 122.089 102.662 122.067 102.848C121.99 103.532 121.493 104.205 120.705 104.168C120.021 104.141 119.25 103.585 119.332 102.853Z" fill="black"/>
<path d="M96.3325 73.5098C93.5484 70.6209 89.3586 69.3488 85.3657 69.9743C84.6601 70.0856 84.2061 70.9708 84.414 71.6016C84.6601 72.3437 85.3329 72.6405 86.0932 72.5239C86.1479 72.5133 86.1916 72.508 86.2244 72.4974C86.301 72.4868 86.3831 72.4868 86.4596 72.4762C86.6675 72.455 86.8808 72.4444 87.0886 72.4391C87.5098 72.4285 87.931 72.4391 88.3467 72.4709C88.4506 72.4815 88.5545 72.4921 88.6585 72.5027C88.6639 72.5027 88.6749 72.5027 88.6803 72.5027C88.6913 72.5027 88.7022 72.508 88.7132 72.508C88.921 72.5451 89.1289 72.5769 89.3312 72.6193C89.7579 72.7094 90.179 72.8207 90.5947 72.9586C90.7862 73.0222 90.9722 73.0964 91.1636 73.1653C91.1909 73.1759 91.2183 73.1865 91.2456 73.2024C91.3441 73.2448 91.4371 73.2872 91.5301 73.3296C91.9075 73.5098 92.2739 73.706 92.6295 73.9233C92.8045 74.0346 92.9795 74.1459 93.1491 74.2678C93.171 74.2837 93.2968 74.3791 93.3351 74.4056C93.3843 74.4428 93.439 74.4905 93.4499 74.4958C93.7836 74.7661 94.1008 75.0629 94.4017 75.3704C94.8885 75.8792 95.8457 75.8845 96.3325 75.3704C96.8466 74.8403 96.8521 74.0505 96.3325 73.5098Z" fill="black"/>
<path d="M77.1063 102.372C76.7016 101.763 75.9085 101.535 75.2411 101.9C75.1427 101.953 75.0497 102.006 74.9512 102.054C74.913 102.07 74.6832 102.165 74.7707 102.134C74.6012 102.197 74.4316 102.25 74.2566 102.298C74.0597 102.351 73.8628 102.383 73.6659 102.425C73.6604 102.425 73.6549 102.425 73.6549 102.425C73.633 102.425 73.6166 102.43 73.5948 102.43C73.4854 102.441 73.376 102.446 73.2666 102.452C73.0642 102.457 72.8618 102.457 72.6594 102.446C72.5774 102.441 72.4024 102.452 72.3313 102.42C72.4953 102.441 72.5227 102.446 72.4188 102.43C72.3641 102.42 72.3094 102.415 72.2547 102.404C72.0414 102.362 71.8226 102.314 71.6147 102.245C71.5272 102.218 71.4397 102.192 71.3522 102.16C71.3303 102.15 71.3084 102.144 71.2811 102.134C71.2646 102.128 71.2482 102.118 71.2209 102.107C70.5755 101.816 69.7222 101.911 69.3557 102.579C69.0385 103.162 69.1533 104.079 69.8425 104.386C72.014 105.362 74.5137 105.325 76.614 104.18C77.2376 103.84 77.5001 102.966 77.1063 102.372Z" fill="black"/>
<path d="M47.7784 73.5098C50.5625 70.6209 54.7523 69.3488 58.7452 69.9743C59.4508 70.0856 59.9048 70.9708 59.6969 71.6016C59.4508 72.3437 58.778 72.6405 58.0177 72.5239C57.963 72.5133 57.9193 72.508 57.8864 72.4974C57.8099 72.4868 57.7278 72.4868 57.6512 72.4762C57.4434 72.455 57.2301 72.4444 57.0222 72.4391C56.6011 72.4285 56.1799 72.4391 55.7642 72.4709C55.6603 72.4815 55.5563 72.4921 55.4524 72.5027C55.447 72.5027 55.436 72.5027 55.4305 72.5027C55.4196 72.5027 55.4087 72.508 55.3977 72.508C55.1899 72.5451 54.982 72.5769 54.7796 72.6193C54.353 72.7094 53.9318 72.8207 53.5161 72.9586C53.3247 73.0222 53.1387 73.0964 52.9473 73.1653C52.9199 73.1759 52.8926 73.1865 52.8652 73.2024C52.7668 73.2448 52.6738 73.2872 52.5808 73.3296C52.2034 73.5098 51.8369 73.706 51.4814 73.9233C51.3064 74.0346 51.1313 74.1459 50.9618 74.2678C50.9399 74.2837 50.8141 74.3791 50.7758 74.4056C50.7266 74.4428 50.6719 74.4905 50.6609 74.4958C50.3273 74.7661 50.0101 75.0629 49.7092 75.3704C49.2224 75.8792 48.2652 75.8845 47.7784 75.3704C47.2642 74.8403 47.2533 74.0505 47.7784 73.5098Z" fill="black"/>
<path d="M89.4814 125.547C87.3154 129.592 83.5905 132.883 77.2949 133.742C73.0175 134.325 69.6974 133.535 67.1212 131.951C60.8912 128.113 59.026 119.632 58.4736 114.76C58.2274 112.587 58.2384 111.135 58.2384 111.135C58.2384 111.135 76.3595 113.96 91.7732 105.686C91.7732 105.686 92.167 107.763 92.271 110.79C92.4187 114.898 92.0467 120.75 89.4814 125.547Z" fill="black"/>
<path d="M74.5848 134.925C71.571 134.925 68.8854 134.209 66.5717 132.789C63.6399 130.987 61.3371 128.066 59.7181 124.112C58.3343 120.73 57.7216 117.221 57.4536 114.872C57.202 112.667 57.213 111.194 57.213 111.13C57.213 110.839 57.3497 110.568 57.574 110.383C57.8037 110.197 58.1045 110.118 58.3944 110.16C58.4382 110.165 62.9343 110.849 69.219 110.526C74.9896 110.229 83.5004 108.999 91.2729 104.822C91.5628 104.669 91.9074 104.658 92.2082 104.796C92.5036 104.934 92.7169 105.199 92.7771 105.511C92.7935 105.601 93.1819 107.695 93.2913 110.759C93.4444 114.957 93.0615 121.011 90.3868 126.009C87.7231 130.987 83.3637 133.923 77.4345 134.729C76.4555 134.856 75.5037 134.925 74.5848 134.925ZM59.2915 112.264C59.3188 112.869 59.379 113.69 59.4884 114.65C60.0135 119.24 61.7692 127.483 67.6711 131.114C70.2637 132.709 73.458 133.266 77.1556 132.762C82.3901 132.047 86.2353 129.471 88.5764 125.092C91.0487 120.481 91.3933 114.788 91.2511 110.828C91.1964 109.349 91.076 108.098 90.9666 107.223C87.7067 108.835 84.1131 110.096 80.2679 110.992C76.7891 111.803 73.0861 112.312 69.2792 112.503C64.6791 112.736 61.0746 112.461 59.2915 112.264Z" fill="black"/>
<path d="M92.271 110.79C76.7041 120.596 63.998 117.177 58.4736 114.76C58.2274 112.587 58.2384 111.135 58.2384 111.135C58.2384 111.135 76.3595 113.96 91.7732 105.686C91.7732 105.686 92.1616 107.763 92.271 110.79Z" fill="#F5EDE1"/>
<path d="M71.2045 118.354C65.423 118.354 60.8722 116.902 58.0498 115.662C57.7216 115.519 57.4919 115.216 57.4536 114.867C57.202 112.661 57.213 111.188 57.213 111.124C57.213 110.833 57.3497 110.562 57.574 110.377C57.8037 110.191 58.1045 110.112 58.3944 110.154C58.4382 110.16 62.9343 110.843 69.219 110.52C74.9896 110.223 83.5005 108.993 91.2729 104.816C91.5628 104.663 91.9074 104.652 92.2082 104.79C92.5036 104.928 92.7169 105.193 92.7771 105.505C92.7935 105.596 93.1819 107.689 93.2913 110.753C93.3022 111.103 93.1272 111.432 92.8263 111.617C85.8688 115.996 78.7363 118.259 71.6147 118.344C71.478 118.354 71.3413 118.354 71.2045 118.354ZM59.4282 114.082C65.4066 116.557 76.997 119.001 91.2237 110.26C91.1635 109.025 91.0596 107.981 90.9611 107.218C87.7012 108.829 84.1076 110.091 80.2624 110.986C76.7836 111.797 73.0806 112.306 69.2737 112.497C64.6791 112.73 61.0691 112.455 59.286 112.259C59.3133 112.746 59.3571 113.366 59.4282 114.082Z" fill="black"/>
<path d="M89.4794 125.548C87.3134 129.592 83.5885 132.884 77.2928 133.742C73.0155 134.325 69.6954 133.536 67.1191 131.951C69.8759 127.912 76.5161 121.524 89.4794 125.548Z" fill="#F5EDE1"/>
<path d="M74.5864 134.923C71.5726 134.923 68.8869 134.207 66.5732 132.787C66.3435 132.644 66.1794 132.416 66.1192 132.156C66.0645 131.896 66.1138 131.626 66.2669 131.403C67.6726 129.347 70.1614 126.537 74.0503 124.825C78.5574 122.837 83.8576 122.763 89.7922 124.608C90.0766 124.698 90.3118 124.905 90.4267 125.175C90.5416 125.445 90.5252 125.748 90.3884 126.007C87.7247 130.985 83.3653 133.921 77.4361 134.727C76.457 134.854 75.5053 134.923 74.5864 134.923ZM68.6025 131.631C71.0147 132.829 73.8863 133.206 77.1517 132.76C81.9541 132.108 85.586 129.882 87.9599 126.14C77.3377 123.304 71.4522 127.947 68.6025 131.631Z" fill="black"/>
<path d="M119.093 48.3206C117.343 45.437 114.898 42.9987 112.004 41.1806C111.255 40.7088 110.09 41.0109 109.674 41.7742C109.226 42.5958 109.483 43.5341 110.287 44.0323C110.604 44.2285 110.91 44.4352 111.217 44.6472C111.31 44.7108 111.397 44.7744 111.49 44.8433C111.496 44.8486 111.496 44.8486 111.501 44.8486C111.632 44.9494 111.764 45.0501 111.895 45.1561C112.486 45.6331 113.049 46.142 113.58 46.6774C113.837 46.9371 114.094 47.2075 114.334 47.4831C114.455 47.6209 114.575 47.7587 114.695 47.9019C114.75 47.9655 114.799 48.0291 114.854 48.0927C115.325 48.7023 115.757 49.3277 116.156 49.985C116.61 50.7271 117.715 51.0611 118.486 50.5787C119.257 50.0963 119.58 49.121 119.093 48.3206Z" fill="#F5EDE1"/>
<path d="M113.876 50.9196C113.077 49.9813 112.185 49.1279 111.217 48.3593C110.856 48.0731 110.495 47.877 110.014 47.877C109.598 47.877 109.095 48.0572 108.811 48.3593C108.236 48.9636 108.072 50.1139 108.811 50.6969C109.784 51.4655 110.67 52.3189 111.469 53.2572C112.038 53.9251 113.296 53.8721 113.881 53.2572C114.548 52.5469 114.483 51.6352 113.876 50.9196Z" fill="#F5EDE1"/>
<path d="M109.888 55.9591C109.369 55.3972 108.844 54.83 108.324 54.2681C107.728 53.6214 106.513 53.6373 105.912 54.2681C105.261 54.9572 105.277 55.9167 105.912 56.6057C106.431 57.1676 106.956 57.7348 107.476 58.2967C108.072 58.9434 109.287 58.9275 109.888 58.2967C110.539 57.6076 110.523 56.6482 109.888 55.9591Z" fill="#F5EDE1"/>
</g>
<defs>
<clipPath id="clip0_478_2190">
<rect width="145.897" height="148.881" fill="white"/>
</clipPath>
</defs>
</svg>
