<svg width="94" height="105" viewBox="0 0 94 105" fill="none" xmlns="http://www.w3.org/2000/svg">
<g clip-path="url(#clip0_473_2070)">
<path d="M50.6484 48.7183C51.9179 49.0051 53.1638 48.7404 54.2257 48.187C54.9952 47.7854 55.6664 47.2338 56.1909 46.6257C56.7028 46.0309 57.067 45.3902 57.2273 44.798C57.3585 44.3099 57.3475 43.8678 57.1645 43.5341C57.0725 43.3744 56.9541 43.2367 56.813 43.1255C56.6581 43.0028 56.4824 42.9093 56.2911 42.8484C56.2483 42.8352 56.1964 42.8201 56.1308 42.8051C54.9897 42.5121 53.9269 43.077 53.059 43.9613C52.1064 44.9303 51.3906 46.2604 51.0182 47.3503C50.9708 47.4854 50.9289 47.6274 50.887 47.7748C50.8032 48.0802 50.724 48.3953 50.6484 48.7183ZM46.4592 45.3619C46.7215 44.9533 46.9464 44.5129 47.1249 44.0504C47.5211 43.0284 47.7287 41.8943 47.8043 40.7867C47.9017 39.3985 47.7961 38.0508 47.6076 37.0085C47.5894 36.9194 47.5739 36.8382 47.5557 36.7623C47.4218 36.2054 47.2069 35.8082 46.9573 35.5752C46.7816 35.4075 46.5922 35.336 46.4246 35.3634L46.3982 35.3687C46.0548 35.4481 45.7243 36.065 45.4775 36.9829C45.2735 37.7454 45.1551 38.6783 45.1523 39.6853C45.1469 40.7002 45.2625 41.7902 45.5193 42.8581C45.7297 43.7301 46.0394 44.5844 46.4592 45.3619ZM41.1544 48.3441C40.7054 46.4889 40.1917 45.0698 39.6171 44.3584C38.5889 43.0823 37.324 42.566 36.2302 42.5783C35.7612 42.5836 35.3231 42.6904 34.9507 42.8731C34.5964 43.0487 34.3077 43.2932 34.1183 43.588C33.8196 44.0557 33.7622 44.6788 34.0764 45.3875C34.6884 46.7652 35.9442 47.6424 37.4715 48.0776C38.6017 48.4006 39.8766 48.4818 41.1544 48.3441ZM48.2114 103.614C48.5729 103.613 48.8644 103.897 48.8671 104.245C48.8698 104.596 48.5757 104.88 48.2168 104.88C48.1923 104.88 39.7218 104.954 38.9532 101.931C38.7073 100.961 39.4122 100.404 40.6872 100.101C42.1589 99.7506 44.5649 99.7126 46.91 99.6764C49.8925 99.6332 52.7676 99.5899 52.815 99.2343C52.8232 99.1787 52.2585 99.2422 51.3906 99.1354C49.9189 98.9492 47.7469 98.8865 45.4565 98.815C40.1571 98.6544 34.2767 98.477 34.0035 96.4613C33.8724 95.4878 34.9006 94.9706 36.6427 94.75C39.1499 94.4322 43.4311 94.5796 47.4555 94.7173C51.1229 94.8444 54.5699 94.9635 56.1017 94.7244C54.7247 94.3334 50.6275 94.0916 46.3745 93.84C40.3074 93.4817 33.9489 93.1075 33.3633 91.4474C33.1165 90.7511 33.5026 90.2833 34.3787 89.9939C36.2093 89.3858 41.2755 89.5076 46.1832 89.6276C50.3697 89.7264 54.4333 89.8262 55.8813 89.617C53.7749 89.038 48.001 88.7503 43.1196 88.5085C39.5461 88.3311 36.4433 88.1758 35.4361 87.926C34.8195 87.7742 34.407 87.5633 34.1875 87.3135C33.8351 86.9146 33.8432 86.506 34.1875 86.0991C34.3705 85.8855 34.6829 85.6843 35.1128 85.5113C36.3276 85.0189 38.8302 84.5837 42.2982 84.477C45.4228 84.3799 47.8808 84.3419 49.8006 84.3137C53.5599 84.2554 55.1755 84.2325 55.7529 83.8945C55.9915 83.7577 56.0024 83.3376 56.0206 82.6059C56.0552 81.2406 56.1099 79.0669 57.6599 75.5923C58.7965 73.0469 59.0005 71.1097 59.2026 69.1928C59.4886 66.4657 59.7718 63.7809 62.5057 59.5455C63.4866 58.0249 64.522 56.5916 65.5275 55.2033C68.8506 50.6123 71.8177 46.5137 71.7994 40.1654C71.7785 33.1879 69.1921 27.8087 64.992 24.0278C60.331 19.8356 53.6729 17.5913 46.3199 17.3089C40.4358 17.0829 34.764 18.4147 30.0739 21.2592C25.6907 23.9183 22.1599 27.9049 20.1135 33.1826C19.2629 35.3766 18.8358 37.621 18.783 39.808C18.7284 42.1009 19.0817 44.3302 19.7902 46.3663C21.0707 50.0501 23.5159 53.2785 25.7927 56.2889C28.2561 59.5429 30.5329 62.5507 31.0811 65.7358C31.398 67.5813 31.5301 69.3049 31.6503 70.8918C31.9153 74.3205 32.1248 77.0838 34.0928 78.765C34.8432 79.4049 35.8058 79.7888 36.8231 79.9062C37.6919 80.005 38.5998 79.9115 39.4495 79.6158C40.2937 79.3263 41.0788 78.8356 41.7108 78.1419C42.4503 77.3282 42.9803 76.2295 43.1506 74.8341C43.5495 71.5898 43.2927 63.2417 42.4293 55.9765C42.1543 53.6597 41.821 51.4639 41.4321 49.5929C39.9422 49.7659 38.4396 49.6759 37.1017 49.2955C35.2184 48.7589 33.6547 47.6477 32.8724 45.8835C32.3743 44.7574 32.4927 43.7274 33.009 42.9216C33.3269 42.4212 33.7941 42.0188 34.3551 41.7425C34.8978 41.4725 35.5353 41.3198 36.2147 41.3127C37.6764 41.2977 39.3366 41.9535 40.648 43.5774C41.3301 44.4246 41.9257 46.0485 42.4321 48.1385C42.7417 48.0696 43.0486 47.9884 43.3501 47.8966C44.1342 47.6557 44.8901 47.1694 45.5385 46.5137L45.5904 46.4607C44.9638 45.4511 44.5258 44.3126 44.2444 43.1485C43.9639 41.9888 43.8409 40.7991 43.8464 39.6853C43.8482 38.5671 43.9821 37.5248 44.2134 36.6652C44.5831 35.2901 45.247 34.3264 46.1022 34.1331C46.1386 34.126 46.1705 34.1181 46.1996 34.1128C46.7898 34.014 47.3763 34.2019 47.8699 34.6644C48.2897 35.0642 48.6367 35.6714 48.8307 36.4719C48.8562 36.5787 48.8771 36.6855 48.898 36.7905C49.103 37.9166 49.2159 39.3676 49.1112 40.8706C49.0265 42.0903 48.796 43.3461 48.3498 44.4979C48.0638 45.2304 47.6814 45.9162 47.2251 46.5295C47.807 47.2594 48.5283 47.8693 49.4071 48.2858C49.4754 48.0017 49.5492 47.7219 49.6221 47.4518C49.6621 47.3044 49.714 47.1394 49.7769 46.9541C50.2022 45.7132 51.0209 44.1978 52.1119 43.0876C53.284 41.8943 54.7721 41.1451 56.4642 41.5766C56.5297 41.5952 56.608 41.6172 56.7 41.6481C57.0488 41.7602 57.3694 41.9252 57.6444 42.1415C57.9122 42.355 58.1398 42.6189 58.3156 42.934C58.6671 43.565 58.7036 44.3249 58.4914 45.1157C58.2819 45.8906 57.8275 46.7043 57.1936 47.4421C56.5716 48.164 55.7666 48.8224 54.8477 49.3025C53.5335 49.9892 51.9835 50.3148 50.3779 49.9556C48.6859 58.4344 48.8589 71.6745 48.9135 76.0317C48.9245 76.6725 48.9299 77.1552 48.9299 77.2082C48.9299 77.5595 48.6367 77.8445 48.2742 77.8445C47.9118 77.8445 47.6185 77.5595 47.6185 77.2082C47.6185 76.774 47.6158 76.4642 47.6076 76.0467C47.5502 71.6313 47.3744 58.1696 49.1266 49.5567C48.0037 49.0863 47.0912 48.3776 46.3563 47.5154C45.5849 48.2602 44.6879 48.8171 43.7435 49.1066C43.4047 49.2108 43.0614 49.3025 42.7126 49.3793C43.1169 51.298 43.4548 53.5132 43.7307 55.8335C44.6041 63.1861 44.8591 71.664 44.452 74.9815C44.2471 76.6549 43.5996 77.984 42.6944 78.9804C41.9075 79.8453 40.934 80.4525 39.8903 80.8135C38.8485 81.1744 37.7365 81.2892 36.6692 81.1674C35.3942 81.0191 34.182 80.5337 33.2267 79.7182C30.8607 77.6963 30.6294 74.6991 30.3443 70.98C30.226 69.4196 30.0948 67.726 29.7906 65.9441C29.2916 63.0564 27.1041 60.166 24.7381 57.0391C22.403 53.9519 19.8977 50.6449 18.5499 46.7687C17.7967 44.5967 17.416 42.2227 17.477 39.7771C17.5344 37.4507 17.9861 35.0642 18.8905 32.7351C21.0388 27.1882 24.7617 22.9908 29.3836 20.1869C34.2995 17.2047 40.2309 15.8067 46.369 16.0433C54.0298 16.338 60.984 18.6918 65.8844 23.1002C70.3387 27.1088 73.0853 32.8013 73.1063 40.1654C73.1245 46.9108 70.0473 51.1639 66.5975 55.9279C65.6194 57.28 64.6095 58.6762 63.615 60.2163C61.0413 64.2055 60.7736 66.7402 60.504 69.3181C60.2909 71.3286 60.0787 73.3646 58.8593 76.0926C57.4113 79.3413 57.3585 81.3651 57.3266 82.6359C57.2984 83.8133 57.2829 84.4849 56.425 84.9827C55.548 85.491 53.8277 85.5193 49.8215 85.5802C47.92 85.6084 45.4829 85.6464 42.3374 85.7426C39.0798 85.844 36.7602 86.2306 35.651 86.6684C35.6847 86.6763 35.722 86.686 35.7585 86.6957C36.6528 86.9172 39.6909 87.0673 43.1852 87.2429C48.6649 87.5147 55.242 87.8404 56.965 88.6585C57.6472 88.9842 57.894 89.4193 57.6053 89.9877C57.0151 91.1553 51.6811 91.0256 46.1514 90.8932C41.362 90.7767 36.4169 90.6566 34.7986 91.1932C34.7166 91.2215 34.5545 90.9064 34.601 91.0406C34.9033 91.8922 40.8138 92.2408 46.451 92.5736C52.0199 92.9019 57.3448 93.217 57.8256 94.5743C58.0378 95.1771 57.7364 95.576 57.0151 95.8143C55.6509 96.268 51.6739 96.1303 47.4109 95.9855C43.4393 95.8479 39.2137 95.7005 36.813 96.0058C35.8714 96.1276 35.2913 96.2265 35.2995 96.298C35.4279 97.2458 40.7245 97.4065 45.4938 97.5486C47.8152 97.62 50.0182 97.6862 51.5527 97.8769C53.2193 98.0852 54.2256 98.5256 54.1136 99.3922C53.9197 100.839 50.4881 100.889 46.9255 100.943C44.6587 100.978 42.3374 101.014 40.9995 101.331C40.5068 101.449 40.2045 101.553 40.2236 101.629C40.7427 103.674 48.1904 103.614 48.2114 103.614Z" fill="black"/>
</g>
<defs>
<clipPath id="clip0_473_2070">
<rect width="93.6105" height="104.884" fill="white"/>
</clipPath>
</defs>
</svg>
