<svg width="134" height="48" viewBox="0 0 134 48" fill="none" xmlns="http://www.w3.org/2000/svg">
<path d="M127.167 37.0775C125.877 37.0202 124.607 37.3723 123.367 37.7217C124.252 34.2088 123.748 32.1316 122.463 30.6931C122.255 28.231 120.131 26.233 117.416 26.4377C117.261 25.3923 116.782 24.3933 115.999 23.6509C114.895 22.6027 113.349 22.1769 111.867 22.3407C111.532 20.6074 110.408 19.0543 108.668 18.2818C106.69 17.4056 104.536 17.8696 102.978 19.1307C102.573 17.5312 101.133 14.4468 100.356 14.1984C100.601 12.386 99.8011 10.4835 98.3027 9.31248C96.8042 8.14156 94.6581 7.74578 92.7963 8.29436C91.9795 8.53459 91.0894 8.94129 90.3205 8.58644C89.6896 8.29436 89.4248 7.60651 89.0925 7.02788C86.5124 2.52685 78.1754 0.943695 74.4039 4.87156C71.655 7.73485 71.0522 11.8237 70.5706 15.6451C69.8806 14.1738 67.416 14.1929 66.2049 15.3339C64.9909 16.4749 64.7318 18.2081 64.6389 19.8159C62.118 16.958 56.3046 17.9406 55.0118 21.4454C54.7611 22.1223 54.6203 22.9029 54.0119 23.3369C52.8261 24.1749 51.2573 22.9985 49.8151 22.6655C47.945 22.2342 45.9903 23.397 45.0016 24.942C44.7566 25.3295 44.5566 25.7335 44.3905 26.1511C44.2806 26.1265 44.1708 26.1075 44.0552 26.0911C41.0669 25.6625 38.5601 28.0536 36.6279 30.2263C36.0421 28.7087 35.2506 27.0001 33.6058 26.5224C32.1777 26.1075 30.2568 27.4176 29.854 28.7633C29.1837 26.3559 27.2741 24.2786 24.8292 23.3014C23.6829 22.8402 22.4183 22.6136 21.1761 22.7173C18.3736 22.9521 15.9655 24.8655 14.6473 27.1884C13.3263 29.5085 12.9433 32.1943 12.8278 34.8202C12.8137 35.1778 12.6813 35.6527 12.3011 35.6473C12.1208 35.6473 11.9715 35.5271 11.8279 35.4234C10.6815 34.5718 8.98319 34.4353 7.69881 35.0877C4.88223 36.518 6.40879 38.9472 5.65961 41.15C4.67662 41.0026 3.64571 40.8607 2.70501 41.1664C0.353137 41.9306 0.79818 45.1161 1.33894 46.8985H131.333C133.482 44.5919 130.389 37.2167 127.167 37.0775Z" fill="#E4DCD2"/>
<path d="M131.334 46.8985H26.2754C26.3373 44.4009 27.9259 41.7041 30.3594 40.8197C29.4525 39.2202 29.8722 37.0639 31.3199 35.8656C32.7705 34.6673 35.1082 34.5418 36.6939 35.5763C36.4658 33.6656 36.7474 31.5557 38.1642 30.1608C39.5809 28.7688 42.3721 28.5613 43.558 30.1336C43.7241 28.7906 43.8988 27.4122 44.3917 26.1539V26.1511C44.5578 25.7335 44.7578 25.3295 45.0029 24.942C45.9915 23.397 47.9462 22.2342 49.8164 22.6655C51.2585 22.9985 52.8273 24.1749 54.0131 23.3369C54.6215 22.9029 54.7623 22.1223 55.013 21.4454C56.3058 17.9406 62.1193 16.958 64.6401 19.8159C64.7331 18.2081 64.9922 16.4749 66.2061 15.3339C67.4173 14.193 69.8818 14.1738 70.5718 15.6451C71.0535 11.8237 71.6562 7.73485 74.4052 4.87156C78.1766 0.943695 86.5137 2.52685 89.0937 7.02788C89.426 7.60651 89.6908 8.29436 90.3217 8.58644C91.0906 8.9413 91.9807 8.53459 92.7975 8.29436C94.6593 7.74578 96.8055 8.14156 98.3039 9.31248C99.8024 10.4835 100.602 12.386 100.357 14.1984C101.135 14.4468 102.574 17.5312 102.979 19.1307C104.537 17.8696 106.692 17.4056 108.669 18.2818C110.41 19.0543 111.533 20.6074 111.869 22.3407C113.35 22.1769 114.896 22.6027 116.001 23.6509C116.784 24.3932 117.262 25.3923 117.417 26.4377C120.132 26.233 122.256 28.231 122.465 30.6931C123.749 32.1316 124.253 34.2088 123.369 37.7217C124.608 37.3723 125.878 37.0202 127.168 37.0775C130.39 37.2167 133.483 44.5919 131.334 46.8985Z" fill="#F5EDE1"/>
<path d="M111.563 46.8983H1.33894C0.79818 45.1159 0.353137 41.9305 2.70501 41.1662C3.64571 40.8605 4.67662 41.0024 5.65961 41.1499C6.40879 38.9471 4.88223 36.5178 7.69881 35.0875C8.98319 34.4351 10.6815 34.5716 11.8279 35.4233C11.9715 35.527 12.1208 35.6471 12.3011 35.6471C12.6813 35.6525 12.8137 35.1776 12.8278 34.82C12.9433 32.1942 13.3263 29.5083 14.6473 27.1882C15.9654 24.8654 18.3736 22.952 21.1761 22.7172C22.4183 22.6135 23.6829 22.84 24.8292 23.3013C27.2741 24.2785 29.1837 26.3557 29.854 28.7632C30.2568 27.4175 32.1777 26.1073 33.6058 26.5222C35.2506 26.9999 36.0421 28.7085 36.6279 30.2262C38.5601 28.0535 41.0669 25.6624 44.0552 26.0909C44.1708 26.1073 44.2806 26.1264 44.3905 26.151V26.1537C48.2829 26.9808 48.1534 31.9731 49.0998 34.7627C52.5867 32.852 58.8536 34.5225 58.7634 39.0536C59.6648 36.799 61.9434 34.1786 64.7656 34.6317C65.4528 34.7409 69.4975 36.6734 69.2975 37.4131C69.7115 35.8763 70.2101 33.8783 72.1056 33.4525C72.6887 33.3215 76.5981 34.3669 76.3812 34.8555C77.2685 32.852 78.4288 30.9031 80.1442 29.4401C81.8567 27.977 84.1944 27.0463 86.4984 27.3192C89.8586 27.7205 90.3571 30.0024 91.65 32.4044C92.3568 30.9659 94.1004 30.0406 95.7819 30.2125C97.4634 30.3818 98.9562 31.6347 99.3166 33.1796C99.649 34.5962 99.0998 36.0565 98.4407 37.3694C99.4575 36.6106 101.074 37.001 101.908 37.9344C102.742 38.868 102.944 40.1617 102.913 41.3764C104.102 40.9287 105.524 41.0816 106.575 41.7667C107.626 42.4519 108.268 43.6474 108.231 44.8457C109.645 44.8211 110.989 45.7055 111.563 46.8983Z" fill="#E4DCD2"/>
</svg>
