<svg width="50" height="13" viewBox="0 0 50 13" fill="none" xmlns="http://www.w3.org/2000/svg">
<path d="M50 6C50 6.79563 49.8985 7.561 49.6955 8.29609C49.4925 9.03117 49.2035 9.68002 48.8284 10.2426C48.4533 10.8052 48.0208 11.2388 47.5307 11.5433C47.0407 11.8477 46.5304 12 46 12C45.4696 12 44.9593 11.8478 44.4693 11.5433C43.9792 11.2388 43.5466 10.8052 43.1716 10.2426C42.7965 9.68003 42.5075 9.03117 42.3045 8.29609C42.1015 7.561 42 6.79563 42 6C42 5.20434 42.1015 4.43897 42.3045 3.70389C42.5075 2.9688 42.7965 2.31996 43.1716 1.75735C43.5466 1.19474 43.9792 0.761193 44.4693 0.456712C44.9593 0.152241 45.4696 0 46 0C46.5304 0 47.0407 0.152241 47.5307 0.456712C48.0208 0.761193 48.4533 1.19474 48.8284 1.75735C49.2035 2.31996 49.4925 2.9688 49.6955 3.70389C49.8985 4.43897 50 5.20434 50 6Z" fill="black"/>
<path d="M8 7C7.99999 7.79563 7.8985 8.561 7.69552 9.29609C7.49252 10.0312 7.20349 10.68 6.82842 11.2426C6.45335 11.8052 6.02079 12.2388 5.53073 12.5433C5.04067 12.8477 4.53043 13 4 13C3.46956 13 2.95931 12.8478 2.46926 12.5433C1.9792 12.2388 1.54663 11.8052 1.17157 11.2426C0.796492 10.68 0.50746 10.0312 0.304466 9.29609C0.101481 8.561 -7.88131e-06 7.79563 4.59033e-10 7C-7.88131e-06 6.20434 0.101489 5.43897 0.304474 4.70389C0.50746 3.9688 0.796492 3.31996 1.17157 2.75735C1.54663 2.19474 1.9792 1.76119 2.46926 1.45671C2.95931 1.15224 3.46956 1 4 1C4.53043 1 5.04067 1.15224 5.53073 1.45671C6.02079 1.76119 6.45335 2.19474 6.82842 2.75735C7.20349 3.31996 7.49252 3.9688 7.69552 4.70389C7.8985 5.43897 7.99999 6.20434 8 7Z" fill="black"/>
</svg>
