<svg width="171" height="179" viewBox="0 0 171 179" fill="none" xmlns="http://www.w3.org/2000/svg">
<g clip-path="url(#clip0_473_2072)">
<path fill-rule="evenodd" clip-rule="evenodd" d="M77.6195 0.191491C78.7637 0.291144 79.51 0.839237 80.5547 2.33404C81.6989 3.97832 81.9974 5.0745 82.2959 8.96098C82.6442 12.7478 82.8432 13.4952 83.4401 13.2959C83.8381 13.0966 85.5296 12.6482 87.1713 12.2994C88.8131 11.9008 92.0467 11.4025 94.385 11.1534C96.7232 10.9042 99.9569 10.8046 101.599 10.9042C103.24 11.0039 106.474 11.6018 108.812 12.2994C111.15 12.9471 114.931 14.2924 117.27 15.2391C119.608 16.2357 123.836 18.428 126.672 20.172C129.856 22.0654 133.239 24.7062 135.627 26.9982C137.716 29.0411 140.403 31.9809 141.497 33.4757C142.642 34.9705 144.333 37.8106 145.328 39.704C146.273 41.5974 147.567 44.5372 148.114 46.1815C148.661 47.8258 149.507 51.8617 149.905 55.1503C150.353 58.4388 150.701 63.4713 150.751 66.3613C150.751 69.2512 150.751 74.7322 150.651 78.5688C150.601 83.3522 150.8 86.7902 151.348 89.5307C151.795 91.8725 152.741 94.6628 153.686 96.2573C154.532 97.7521 156.223 100.343 157.467 101.987C158.711 103.632 160.551 106.571 161.596 108.465C162.641 110.358 164.083 113.996 164.78 116.437C165.626 119.277 166.123 122.018 166.123 123.911C166.123 125.555 165.825 128.047 165.526 129.392C165.228 130.787 164.183 134.474 163.188 137.613C161.745 142.297 161.447 144.19 161.397 147.828C161.347 151.465 161.546 152.761 162.492 154.804C163.089 156.199 164.581 158.59 165.825 160.185C167.019 161.729 168.014 163.075 168.014 163.125C168.014 163.224 166.919 163.424 165.526 163.623C164.183 163.872 163.039 164.221 163.039 164.52C163.039 164.819 162.143 165.018 161.049 165.018C159.059 165.018 159.059 164.968 158.263 162.377C157.815 160.982 157.218 159.587 156.92 159.288C156.588 158.956 156.538 159.288 156.77 160.284C156.969 161.082 157.268 162.726 157.815 165.965L155.825 166.264C154.731 166.463 152.193 166.911 146.622 168.008L147.119 169.353C147.418 170.15 147.517 170.798 147.368 170.848C147.219 170.947 146.224 169.154 145.179 166.862C144.084 164.619 142.144 161.082 140.801 159.039C139.458 156.996 137.02 153.757 132.443 148.326L131.896 159.288L131.796 153.658C131.697 148.276 131.647 148.027 130.304 146.781C129.06 145.635 128.911 145.586 128.612 146.433C128.413 146.931 128.264 154.355 128.214 178.471H119.26V170.997H110.305V167.26C110.305 164.918 110.106 163.623 109.807 163.772C109.509 163.922 109.31 165.417 109.31 167.161C109.31 168.855 109.16 170.997 108.563 173.489H90.9025V166.762L82.5944 166.413C76.127 166.164 73.4903 165.865 71.0029 165.068C69.2119 164.47 66.4757 163.224 64.8837 162.278C63.3415 161.331 61.8988 160.534 61.65 160.534C61.451 160.484 60.4063 159.587 59.3118 158.541C58.2173 157.444 57.0234 156.547 56.6751 156.547C56.2274 156.547 56.1776 158.889 56.8244 178.471H47.6208V164.918C47.6208 157.444 47.4715 150.07 47.3223 148.575C47.1233 147.08 46.9243 145.735 46.8248 145.586C46.7253 145.436 46.0786 145.885 45.3821 146.582C44.2876 147.678 44.0886 148.276 43.9393 155.302L43.3921 148.426L40.7057 151.366C39.2132 152.96 37.1735 155.551 36.1785 157.046C35.1338 158.541 33.6413 160.882 32.8453 162.278C32.0493 163.623 30.6563 166.314 29.7608 168.257C28.8654 170.2 28.2684 171.197 28.4176 170.499C28.6166 169.801 28.8156 168.755 28.9649 168.107C29.2136 167.061 29.0644 167.011 26.2287 167.011C23.6915 167.011 23.1442 166.862 22.4975 165.865C22.0995 165.267 21.5025 163.424 21.204 161.779C20.8558 160.135 20.408 158.59 20.209 158.291C19.9603 157.992 19.9105 159.687 20.5075 166.413L18.5175 166.712C17.4231 166.911 15.1844 166.862 13.5426 166.563C11.9009 166.264 8.96571 165.267 7.07525 164.32C5.13503 163.374 3.44356 162.278 3.19481 161.829C2.94607 161.281 3.54306 160.384 5.23453 158.64C7.17474 156.747 7.77173 155.75 8.26922 153.558C8.61747 152.063 8.76672 150.02 8.61747 149.074C8.41847 148.127 7.27424 144.29 6.08026 140.603C4.88628 136.916 3.64256 132.083 3.34406 129.89C2.84657 126.502 2.89632 125.306 3.59281 121.918C4.04055 119.726 4.93603 116.686 5.58277 115.191C6.17976 113.697 7.37374 111.305 8.16973 109.96C8.96571 108.564 11.1049 105.425 12.8959 102.984C14.6869 100.542 16.6271 97.5528 17.2241 96.3569C17.7713 95.2109 18.617 92.869 19.015 91.1251C19.413 89.431 19.7613 86.84 19.7613 85.3951C19.7613 83.9999 19.4628 81.4089 19.0648 79.665C18.6668 77.9709 18.1693 74.9813 18.0201 73.0879C17.8708 71.1945 17.9703 67.5571 18.2688 65.1156C18.5673 62.6243 19.4628 58.1399 20.209 55.1503C21.005 52.1109 22.597 47.7759 23.7412 45.4341C24.8854 43.0922 26.9749 39.5047 28.4176 37.4618C29.8106 35.4189 32.6463 32.0805 34.686 29.9878C36.7257 27.8951 39.8599 25.2045 41.6509 24.0086C43.4419 22.8128 46.8745 20.8695 49.362 19.6737C51.7997 18.4779 56.0781 16.9831 58.8143 16.2855C61.7993 15.5381 65.232 15.0398 71.0029 15.0398L68.7642 12.399C67.5702 11.0039 66.5254 9.45925 66.5254 9.06063C66.5254 8.66202 66.9732 7.86479 67.5204 7.3167C68.3662 6.46965 68.7144 6.41982 69.9084 6.91809C70.6546 7.26687 72.0476 8.36306 72.9928 9.30977C73.9381 10.2565 74.8336 11.0537 74.9828 11.0537C75.132 11.0537 75.2315 9.21011 75.2315 6.91809C75.2315 4.67589 75.4305 2.18456 75.6793 1.43716C75.9778 0.241317 76.2763 0.0420108 77.6195 0.191491V0.191491ZM82.2959 42.6936C81.6492 44.0389 79.6592 46.9787 77.918 49.1711C76.2265 51.3635 72.2466 55.6984 69.1622 58.7876C64.6847 63.2222 63.7892 64.3682 64.635 64.3682C65.2817 64.3682 67.1224 65.016 68.7642 65.8132C70.4059 66.6104 72.6943 68.2049 73.8386 69.4007C74.9828 70.5965 76.4753 72.7889 77.1718 74.1841C77.8683 75.629 78.4652 77.1737 78.4652 77.5723C78.4652 77.9709 78.6145 78.3197 78.8135 78.3197C79.0622 78.3197 80.107 78.0207 81.2014 77.6221C82.2959 77.2235 84.5346 76.775 86.1764 76.5757C88.0668 76.3764 89.9573 76.4263 91.4 76.8249C92.6437 77.1737 93.9372 77.5224 94.2357 77.6221C94.6337 77.7716 95.2307 76.8249 95.7282 75.1806C96.1759 73.7854 97.4197 71.5432 98.4644 70.2477C99.5091 68.9024 101.201 67.308 102.196 66.5606L104.086 65.3149C94.9819 56.2963 91.0518 51.8119 89.5095 49.6195C87.9673 47.3773 85.9774 44.3379 85.1316 42.8929L83.5396 40.2023L82.2959 42.6936ZM50.4067 73.337C46.0288 75.8283 45.5811 76.227 45.0836 78.0705C44.7851 79.1667 44.6358 81.4089 44.7353 83.0532C44.8846 84.6975 45.5313 87.2885 46.1781 88.7833C46.8745 90.2781 48.3173 92.4206 49.4118 93.5168C50.5062 94.613 52.4962 96.058 53.8892 96.7555C55.9786 97.8019 57.0234 98.0012 61.053 98.0012C65.1822 98.0012 66.0777 97.8517 68.2667 96.7057C69.6099 95.9583 71.6994 94.3638 72.8436 93.0684C74.0376 91.8227 75.4803 89.73 76.0275 88.4345C76.8733 86.6407 77.122 84.9964 77.1718 82.0567C77.2215 78.519 77.0225 77.6719 75.5798 74.6823C74.5351 72.49 73.2416 70.746 71.8486 69.6498C70.7044 68.7031 68.7642 67.5073 67.5204 66.9592C66.2767 66.4111 64.4857 65.863 63.5405 65.7634C61.9983 65.5142 61.3515 65.8132 58.4661 68.0554C56.6751 69.4505 53.0434 71.8422 50.4067 73.337V73.337ZM101.201 69.7993C100.106 70.7958 98.7131 72.6394 98.0664 73.9847C97.4197 75.2802 96.7232 77.7217 96.5739 79.4657C96.3252 81.6082 96.4744 83.402 97.0217 85.2954C97.4197 86.7902 98.5141 89.0324 99.4594 90.2781C100.405 91.5237 102.046 93.1182 103.091 93.8656C104.186 94.613 106.524 95.5597 108.315 96.058C111.051 96.7555 111.996 96.8054 114.533 96.3071C116.175 95.9583 118.165 95.4102 119.011 95.0116C119.807 94.613 121.448 93.467 122.642 92.4206C123.836 91.3742 125.379 89.431 126.025 88.0359C126.772 86.5411 127.369 84.1494 127.518 82.0567L127.866 78.5688C120.603 75.4796 116.523 73.3868 114.036 71.9419C111.548 70.4471 108.762 68.6035 107.767 67.8561C106.026 66.5108 105.877 66.5108 104.534 67.2083C103.738 67.6069 102.245 68.8028 101.201 69.7993V69.7993ZM31.4026 75.3799C30.8056 76.3266 29.7608 78.22 29.1141 79.5653C28.1689 81.7079 27.9699 82.8539 27.9699 87.5376C27.9699 92.3708 28.1191 93.3175 29.2136 95.5099C29.9101 96.905 31.3528 98.6988 32.5468 99.5956C34.089 100.791 35.1835 101.24 36.5267 101.24C37.5715 101.19 39.2629 100.692 40.3077 100.094C41.568 99.3631 42.0986 98.7486 41.8996 98.2503C41.7504 97.8517 41.4519 96.6559 41.2529 95.6095C40.9544 94.1147 41.0539 93.7659 41.6509 93.7659C42.1484 93.7659 42.7454 94.9618 43.4916 97.3534C44.0886 99.5458 45.5313 102.486 47.0238 104.728C48.367 106.771 50.4565 109.362 51.6505 110.458C52.8444 111.604 55.1826 113.398 56.8244 114.544C58.4661 115.64 61.1525 117.234 62.7943 118.032C64.436 118.879 67.2219 120.025 69.0129 120.573C70.8039 121.121 74.6843 121.868 77.719 122.167C80.8034 122.466 85.3804 122.616 88.1663 122.416C90.9025 122.267 94.9322 121.669 97.1212 121.121C99.3101 120.573 102.643 119.377 104.584 118.48C106.474 117.583 109.409 115.989 111.051 114.843C112.693 113.746 115.13 111.853 116.474 110.657C117.767 109.461 119.857 107.02 121.001 105.226C122.195 103.432 123.488 101.09 123.886 99.9943C124.334 98.8981 124.931 97.0545 125.18 95.9085C125.528 94.5631 126.025 93.7659 126.473 93.7659C126.971 93.7659 127.319 94.5133 127.518 96.1576C127.767 97.9514 128.214 98.8981 129.508 100.144C130.652 101.19 131.697 101.738 132.692 101.738C133.488 101.738 134.881 101.439 135.776 101.09C136.672 100.742 138.015 99.6455 138.711 98.6988C139.458 97.7521 140.453 95.9085 140.9 94.5133C141.448 92.8691 141.796 90.3279 141.796 87.0393C141.846 83.103 141.647 81.7079 140.95 80.3127C140.453 79.366 139.557 78.0705 138.96 77.4228C138.214 76.6256 137.368 76.3266 136.025 76.3266C134.682 76.3266 133.737 76.7252 132.543 77.8214C131.647 78.6186 130.553 79.2664 130.055 79.3162C129.359 79.3162 129.209 79.7646 129.209 81.8075C129.209 83.2027 128.712 85.5944 128.115 87.1888C127.418 88.9826 126.125 90.9756 124.533 92.6697C123.14 94.1147 120.752 95.9085 119.26 96.6559C116.921 97.8019 115.877 98.0012 112.295 98.0012C109.31 98.0012 107.32 97.7022 105.579 97.0545C104.186 96.5064 101.897 94.9618 100.405 93.5666C98.9619 92.1715 97.1709 89.9293 96.4744 88.5341C95.7779 87.0892 95.1312 84.7473 94.9322 82.9037C94.6337 79.8145 94.584 79.7646 92.6437 79.0172C91.201 78.4193 89.5593 78.2698 86.6738 78.4691C84.1366 78.5688 82.0472 79.0172 80.8532 79.6152C79.112 80.512 79.0125 80.7113 78.8135 83.5515C78.714 85.2456 78.0672 87.7369 77.3708 89.2815C76.724 90.7763 75.4803 92.8192 74.6346 93.7659C73.8386 94.7126 72.0476 96.2074 70.7044 97.1043C69.3612 98.0012 66.8239 99.0475 65.033 99.5458C62.7943 100.094 61.0033 100.243 59.3118 99.9943C57.9188 99.795 55.5806 99.197 54.0882 98.6489C52.148 97.9015 50.4565 96.7057 48.3173 94.5632C46.0786 92.321 44.9841 90.7265 44.1881 88.5341C43.4916 86.7404 43.0439 84.3487 43.0439 82.5549C42.9941 80.9107 43.1434 78.8179 43.2926 77.9709C43.5414 76.6754 43.4419 76.3266 42.8946 76.3266C42.4966 76.3266 41.9494 75.7287 41.7504 74.9813C41.5514 74.2837 40.8549 73.2373 40.1584 72.7391C39.4619 72.2408 38.4669 71.8422 37.9197 71.8422C37.3725 71.8422 35.9297 72.2906 34.7358 72.7889C33.492 73.337 32.0493 74.4332 31.4026 75.3799V75.3799ZM93.1412 123.662C90.8528 124.011 86.0769 124.16 82.0472 124.061L74.8833 123.911L75.2315 132.88C71.0029 133.378 68.5154 133.976 67.0229 134.474C64.834 135.172 64.2867 135.57 64.3862 136.368C64.436 136.916 65.232 138.56 66.1275 140.055C67.0229 141.55 68.9134 143.941 70.3561 145.436C71.7989 146.881 74.4853 148.974 76.326 150.02C78.1667 151.116 81.0522 152.362 82.6939 152.86C84.8331 153.458 86.7236 153.608 89.41 153.408C92.4945 153.209 93.8875 152.761 97.3699 151.017C100.504 149.472 102.494 148.027 105.081 145.386C107.17 143.294 109.26 140.553 110.205 138.71C111.051 137.015 111.598 135.521 111.399 135.421C111.2 135.321 109.459 134.773 107.568 134.175C105.628 133.577 103.191 133.129 102.096 133.129H100.106C100.703 124.26 100.803 121.669 100.753 121.719C100.653 121.719 99.8076 122.018 98.8624 122.416C97.9171 122.765 95.3302 123.313 93.1412 123.662V123.662ZM59.5606 137.613C62.048 142.397 63.7892 144.888 65.033 146.233C66.2767 147.629 68.6149 149.671 70.2566 150.817C71.8984 152.013 74.3361 153.508 75.729 154.206C77.0723 154.903 79.5597 155.8 81.2014 156.249C82.8432 156.697 85.6789 157.046 87.5196 157.046C89.3603 157.046 92.0467 156.797 93.4895 156.498C94.9322 156.149 97.2207 155.451 98.6136 154.853C99.9569 154.255 102.544 152.761 104.335 151.565C106.126 150.369 108.663 148.226 110.056 146.831C111.399 145.436 113.24 142.945 114.135 141.35C115.031 139.706 115.727 138.161 115.777 137.863C115.777 137.564 115.13 137.065 114.285 136.716C113.389 136.368 112.792 136.318 112.792 136.617C112.792 136.916 111.847 138.71 110.653 140.653C109.509 142.596 107.17 145.486 105.529 147.031C103.887 148.575 100.852 150.718 98.8126 151.764C96.7729 152.86 93.987 154.006 92.6437 154.405C91.2508 154.754 89.1613 155.053 87.9176 155.053C86.6738 155.053 84.3356 154.704 82.6939 154.305C81.0522 153.857 78.2662 152.711 76.4753 151.714C74.6346 150.668 71.6496 148.276 69.5104 146.134C66.9898 143.609 65.232 141.301 64.237 139.208C63.441 137.514 62.645 136.119 62.5455 136.119C62.3963 136.168 61.65 136.467 60.9038 136.866L59.5606 137.613ZM43.5414 164.52C43.6409 166.612 43.6409 170.2 43.5414 172.492C43.4419 174.834 43.3424 173.14 43.3424 168.755C43.3424 164.37 43.4419 162.477 43.5414 164.52Z" fill="black"/>
<path d="M56.5752 172.342C56.5752 169.004 56.4259 164.071 56.2269 161.43V161.38C55.9782 157.394 56.0279 156.547 56.6249 156.547C57.0229 156.547 58.2169 157.444 59.3114 158.54C60.4059 159.586 61.4506 160.483 61.6993 160.533C61.8983 160.533 63.3411 161.33 64.933 162.277C66.4752 163.224 69.2114 164.469 71.0024 165.067C73.4899 165.864 76.1266 166.163 90.9021 166.761V173.488H108.563L108.961 171.893C109.16 170.997 109.309 168.854 109.309 167.11C109.309 165.416 109.508 163.921 109.807 163.772C110.105 163.622 110.304 164.918 110.304 170.997H119.259V178.471H56.5752V172.342Z" fill="black"/>
<path d="M43.591 158.292C43.3422 160.983 43.2925 160.783 43.2925 156.548C43.2427 153.558 43.392 152.462 43.591 153.558C43.79 154.505 43.79 156.648 43.591 158.292Z" fill="black" fill-opacity="0.99"/>
<path d="M132.194 170.998C131.995 169.204 131.796 165.716 131.796 163.275C131.796 159.637 131.896 159.189 132.244 160.783C132.443 161.879 132.592 165.367 132.592 168.506C132.542 173.688 132.493 173.938 132.194 170.998Z" fill="black" fill-opacity="0.99"/>
<path d="M148.313 176.379C148.114 175.183 147.666 173.34 147.268 172.243C146.671 170.45 146.671 170.35 147.318 170.998C147.716 171.396 148.412 173.24 148.86 175.084C149.308 177.176 149.407 178.472 149.109 178.472C148.81 178.472 148.462 177.525 148.313 176.379Z" fill="black" fill-opacity="0.99"/>
<path d="M26.2285 178.223C26.2285 178.073 26.5768 176.379 27.0245 174.486C27.4722 172.542 28.0195 171.097 28.2682 171.247C28.517 171.396 28.3677 172.542 27.9697 173.838C27.5717 175.183 27.2235 176.728 27.2235 177.326C27.2235 177.973 26.9748 178.472 26.726 178.472C26.4773 178.472 26.2285 178.372 26.2285 178.223Z" fill="black" fill-opacity="0.99"/>
<path d="M47.4715 159.04C47.372 160.285 47.2725 159.389 47.2725 157.047C47.2725 154.705 47.372 153.708 47.4715 154.804C47.571 155.901 47.571 157.794 47.4715 159.04Z" fill="black" fill-opacity="0.81"/>
<path d="M43.9891 163.026C43.8896 164.521 43.8398 163.524 43.8398 160.784C43.8398 158.043 43.8896 156.798 43.9891 158.043C44.0886 159.289 44.0886 161.531 43.9891 163.026Z" fill="black" fill-opacity="0.81"/>
<path d="M131.548 162.029C131.448 163.524 131.398 162.527 131.398 159.787C131.398 157.046 131.448 155.801 131.548 157.046C131.647 158.292 131.647 160.534 131.548 162.029Z" fill="black" fill-opacity="0.18"/>
<path d="M128.563 165.268C128.514 168.308 128.414 165.916 128.414 160.036C128.414 154.157 128.514 151.665 128.563 154.555C128.663 157.445 128.663 162.229 128.563 165.268Z" fill="black" fill-opacity="0.51"/>
<path d="M107.718 143.444C108.862 141.999 109.956 140.454 110.155 139.956C110.354 139.458 110.653 139.159 110.802 139.308C110.951 139.458 110.155 140.853 109.061 142.397C107.966 143.942 106.225 145.985 105.23 146.882C104.185 147.828 102.046 149.423 100.504 150.419C98.912 151.416 96.1758 152.761 94.3848 153.409C92.4446 154.107 89.9571 154.555 88.1662 154.555C86.5244 154.555 83.9375 154.206 82.445 153.758C80.9525 153.309 78.2661 152.163 76.4751 151.167C74.6841 150.17 71.8484 147.978 70.1072 146.334C68.366 144.689 66.973 143.244 67.0228 143.095C67.0228 142.945 68.5153 144.291 70.4057 146.035C72.2464 147.779 75.0821 149.921 76.7239 150.818C78.3656 151.765 80.9525 152.811 82.445 153.26C83.9375 153.708 86.3254 154.057 87.6687 154.057C89.0616 154.057 91.3004 153.758 92.6436 153.359C94.0366 153.01 96.2753 152.163 97.6185 151.466C99.0115 150.768 101.35 149.273 102.842 148.127C104.335 146.981 106.524 144.889 107.718 143.444Z" fill="black"/>
<path d="M72.4944 30.9835V27.4957V24.0078H76.4743L76.1758 27.1469C75.9768 28.841 75.5788 30.4853 75.2306 30.7344C74.8824 30.9835 73.9869 32.3787 73.2406 33.724C72.4944 35.1192 70.6537 37.8596 69.1115 39.9025C67.5195 41.9454 63.3903 46.4796 59.9079 50.0173C56.3757 53.5052 53.341 56.3951 53.1917 56.3951C52.9927 56.3951 51.6993 57.292 50.356 58.3384C48.9631 59.3847 46.9731 60.8297 45.8786 61.5771C43.9384 62.8228 43.6399 62.8726 36.5755 62.8726C32.4961 62.8726 29.2127 62.8228 29.2127 62.7729C29.2127 62.6733 29.6604 61.2781 30.2076 59.6339C30.8046 57.9896 32.0484 55.0498 33.0433 53.1564C33.9886 51.263 35.7298 48.3232 36.8243 46.6789C37.9685 45.0347 40.655 41.7959 42.8937 39.5039C45.0826 37.2119 48.3163 34.3219 53.341 30.8341L72.4944 30.9835Z" fill="black"/>
<path d="M108.214 40.7994C108.662 40.4008 108.861 38.6568 108.861 35.0693V29.9372L110.353 30.7344C111.249 31.1828 111.846 31.8804 111.796 32.4783C111.796 33.0264 111.995 33.9233 112.294 34.4714C112.592 35.0195 114.134 36.0659 115.776 36.8631C118.313 37.9593 118.811 38.4077 118.811 39.4541C118.811 40.2015 119.358 41.1482 120.154 41.7959C120.9 42.4437 122.94 43.9883 124.731 45.2838C127.567 47.4263 127.965 47.9246 128.363 49.9177C128.611 51.1633 129.358 53.0069 130.004 54.0533C130.651 55.0498 131.198 56.3453 131.198 56.8934C131.198 57.4415 130.701 58.2885 130.104 58.8366C129.009 59.7335 128.91 59.7335 127.716 58.9363C127.019 58.438 124.88 57.0429 122.99 55.7972C121.099 54.5017 118.313 52.2595 114.284 47.9246H104.334L99.2097 41.6963L103.389 41.5468C105.727 41.4471 107.866 41.1482 108.214 40.7994Z" fill="black"/>
<path d="M21.2528 113.447C21.2528 112.749 21.7503 111.553 22.3473 110.706C22.9443 109.909 23.6408 109.211 23.9392 109.211C24.2377 109.211 24.785 109.51 25.1332 109.859C25.5312 110.208 27.7202 110.557 30.7549 110.706C35.0333 110.955 35.68 111.105 35.68 111.852C35.68 112.301 36.0283 112.699 36.4263 112.699C36.8243 112.699 37.8193 113.646 38.6152 114.842C39.4112 115.988 41.2519 118.081 42.6947 119.476C44.1871 120.871 47.1223 123.113 49.2118 124.458C52.2465 126.402 52.943 127.049 52.4952 127.548C52.147 127.896 51.6495 128.145 51.351 128.145C51.1023 128.145 50.7043 128.893 50.4555 129.79C50.2565 130.687 50.1073 132.58 50.1073 136.616L37.9188 136.666L36.0283 138.41C35.0333 139.356 33.7398 140.104 33.1926 140.104C32.5293 140.104 32.1976 140.436 32.1976 141.1C32.1976 141.649 31.2524 143.243 30.0584 144.638C28.9142 145.983 27.6704 147.129 27.3222 147.129C27.0237 147.08 26.7252 147.428 26.7252 147.827C26.7252 148.475 25.8795 148.574 17.2729 148.574V141.599C17.2729 134.922 17.2231 134.573 16.0789 133.527C15.4321 132.879 14.5367 131.235 14.0889 129.79C13.3924 127.398 13.3427 126.95 14.0392 124.807C14.4869 123.512 15.6311 120.97 16.6759 119.177C17.8201 117.283 19.1136 115.689 19.9096 115.34C20.8548 114.892 21.2528 114.344 21.2528 113.447Z" fill="black"/>
<path d="M136.422 118.678C138.412 118.678 139.755 118.429 140.153 117.981C140.501 117.632 141.049 117.433 141.447 117.582C141.795 117.682 142.093 118.13 142.143 118.479C142.143 118.878 142.69 119.476 143.387 119.824C144.083 120.173 144.929 121.22 145.327 122.166C145.725 123.113 146.173 125.654 146.322 127.797C146.571 131.085 146.471 131.982 145.476 134.125C144.879 135.52 144.233 136.616 143.984 136.616C143.785 136.616 143.636 136.168 143.636 135.619C143.636 135.071 142.74 133.925 141.695 133.029C140.601 132.132 138.213 130.587 136.323 129.64C134.482 128.694 132.84 127.747 132.691 127.597C132.542 127.448 131.497 126.8 130.303 126.252C129.159 125.654 128.114 125.006 128.014 124.807C127.865 124.608 129.059 123.113 133.338 118.678H136.422Z" fill="black"/>
<path fill-rule="evenodd" clip-rule="evenodd" d="M69.0133 66.1123C69.8591 66.5109 71.5506 67.8064 72.7943 69.0022C74.0878 70.1482 75.63 71.9918 76.227 73.088C76.8737 74.1842 77.62 76.0278 78.4657 79.3163L79.9582 78.5689C80.8039 78.1703 82.9431 77.5724 84.8336 77.2236C87.3708 76.7752 88.7638 76.7752 90.6542 77.2236C92.0472 77.5226 93.5894 77.9212 94.1367 78.0706C94.9824 78.3198 95.2311 78.0208 95.7784 76.2271C96.1764 75.0312 97.0221 73.1378 97.6688 71.9918C98.3156 70.796 99.2111 69.8493 99.6091 69.8493C100.156 69.8493 99.9573 70.4472 98.8131 71.9918C98.0171 73.1378 96.9724 75.3302 96.5246 76.825C96.0271 78.5191 95.8281 80.6118 95.9774 82.3059C96.1266 83.8007 96.7236 86.0927 97.3206 87.4381C97.8678 88.7336 99.4101 90.8761 100.704 92.1716C102.047 93.4671 103.987 94.9619 105.081 95.4601C106.176 95.9584 108.216 96.6062 109.559 96.9051C111.3 97.2539 112.842 97.2041 114.783 96.8055C116.275 96.5065 118.762 95.51 120.255 94.6629C121.747 93.766 123.787 91.9225 124.832 90.5273C125.877 89.182 126.971 87.1391 127.27 86.0429C127.568 84.9467 128.016 83.6014 128.215 83.0533C128.613 82.1066 128.663 82.1066 128.663 83.2028C128.712 83.8007 128.215 85.5945 127.618 87.1889C126.921 89.0325 125.678 90.9758 124.036 92.6699C122.593 94.1647 120.404 95.7591 119.011 96.4069C117.071 97.2539 115.579 97.503 112.046 97.503C108.415 97.503 107.071 97.3037 105.081 96.357C103.688 95.7093 101.599 94.2643 100.455 93.1183C99.2608 91.9723 97.7186 89.9294 97.0221 88.5342C96.2261 87.0394 95.6291 84.7972 95.1316 79.6153L92.8929 78.6686C91.102 77.8713 89.908 77.7219 86.923 77.9212C84.7341 78.0706 82.2466 78.5689 78.7144 80.1135L78.4159 83.6014C78.1672 85.8436 77.5702 88.036 76.6747 89.9792C75.8787 91.5737 74.2868 93.766 73.1425 94.8124C71.9485 95.9086 70.1576 97.2041 69.1626 97.7023C68.1179 98.2006 65.8294 98.8982 64.0384 99.247C61.5012 99.7452 60.158 99.7452 57.8198 99.247C56.1781 98.948 53.7404 98.0511 52.3971 97.3536C51.0539 96.6062 48.9645 94.8622 47.7705 93.5169C46.5765 92.1218 45.1338 89.7799 44.5865 88.2851C43.9895 86.7903 43.5418 84.1495 43.492 82.4554C43.4423 80.7613 43.6413 79.117 43.89 78.8679C44.2217 78.5357 44.3875 79.6485 44.3875 82.2063C44.3875 85.2955 44.6363 86.591 45.681 88.7834C46.3775 90.2782 47.9695 92.5204 49.1634 93.7162C50.3574 94.9121 52.4966 96.4567 53.8399 97.1543C55.6308 98.0511 57.3721 98.4497 60.0585 98.6491C62.9937 98.7985 64.3867 98.6491 66.5259 97.802C68.0184 97.2539 70.3566 95.8588 71.6998 94.6629C73.043 93.4671 74.635 91.7232 75.232 90.7764C75.8787 89.8297 76.7245 87.6872 77.222 86.0429C77.8189 83.9004 77.9682 82.3059 77.7194 80.3128C77.5702 78.818 76.8737 76.3765 76.1772 74.9316C75.5305 73.5364 74.038 71.3939 72.8938 70.198C71.6998 69.0022 70.0083 67.7565 69.1128 67.3579C68.2671 66.9593 67.5209 66.3116 67.5209 65.9628C67.5706 65.4645 67.9189 65.5143 69.0133 66.1123V66.1123ZM126.822 95.2608C127.12 96.1079 127.021 96.7058 126.623 97.1044C126.125 97.6027 125.926 97.4532 125.827 96.5065C125.777 95.8089 125.877 94.9619 126.076 94.6131C126.275 94.2145 126.523 94.4304 126.822 95.2608ZM96.3256 122.018C96.4749 122.117 96.4251 122.317 96.2261 122.516C95.9774 122.765 94.6341 123.064 93.2412 123.263C91.7984 123.413 89.51 123.562 88.1668 123.562C86.2265 123.562 85.9281 123.463 86.923 123.164C87.6195 122.964 89.4105 122.715 90.903 122.665C92.3954 122.616 94.1864 122.416 94.8331 122.217C95.4799 122.018 96.1764 121.918 96.3256 122.018V122.018Z" fill="black" fill-opacity="0.99"/>
<path d="M86.673 124.011C85.5785 124.11 83.5886 124.11 82.1956 124.011C80.8026 123.911 81.7479 123.861 84.1856 123.861C86.6233 123.861 87.7675 123.911 86.673 124.011Z" fill="black" fill-opacity="0.46"/>
<path d="M81.9297 101.859C85.4515 104.1 87.5426 104.115 90.9297 101.859" stroke="black" stroke-width="0.5"/>
</g>
<defs>
<clipPath id="clip0_473_2072">
<rect width="170.917" height="178.303" fill="white" transform="translate(0 0.132812)"/>
</clipPath>
</defs>
</svg>
