<svg width="220" height="95" viewBox="0 0 220 95" fill="none" xmlns="http://www.w3.org/2000/svg">
<g filter="url(#filter0_d_261_1951)">
<rect x="0.724609" y="0.544922" width="209.755" height="84.7549" rx="41.9577" fill="#7790ED"/>
<rect x="1.657" y="1.47731" width="207.89" height="82.8901" rx="41.0253" stroke="black" stroke-width="1.86479"/>
<path d="M50.9447 49.4156L46.5979 53.7624L43.8175 50.982C41.9378 52.0394 39.7448 52.6659 37.3951 52.6659C30.1505 52.6659 24.2764 46.7918 24.2764 39.5472C24.2764 32.3025 30.1505 26.4284 37.3951 26.4284C44.6398 26.4284 50.5139 32.3025 50.5139 39.5472C50.5139 42.2101 49.6915 44.7163 48.3209 46.831L50.9447 49.4156ZM37.3951 47.1835C38.1784 47.1835 38.9616 47.066 39.6665 46.831L37.356 44.5205L41.6636 40.1737L44.2874 42.7975C44.7965 41.7793 45.0314 40.6828 45.0314 39.5472C45.0314 37.5108 44.2482 35.5919 42.7993 34.143C41.3504 32.6941 39.4315 31.9109 37.3951 31.9109C35.3588 31.9109 33.4399 32.6941 31.991 34.143C30.5421 35.5919 29.7588 37.5108 29.7588 39.5472C29.7588 41.5835 30.5421 43.5024 31.991 44.9513C33.4399 46.3611 35.3588 47.1835 37.3951 47.1835ZM71.7472 26.4675H77.4254C77.4254 31.0493 77.4254 37.0017 77.4254 41.1527C77.4254 47.9667 71.4339 51.9219 66.4997 51.9219C61.957 51.9219 55.6522 48.2799 55.6522 41.0744C55.6522 37.1975 55.6522 31.1668 55.6522 26.4675H61.3305V41.0744C61.3305 42.6408 61.8787 43.894 63.0144 44.8338C64.15 45.8128 65.599 46.2436 66.4997 46.2436C67.0479 46.2436 67.6745 46.087 68.2619 45.8912C68.9276 45.617 69.5933 45.2646 70.1024 44.7947C70.6115 44.3247 71.0423 43.8157 71.3164 43.2282C71.6297 42.6017 71.7472 41.9359 71.7472 41.1527V26.4675ZM81.5455 26.4675H87.6546V51.9219H81.5455V26.4675ZM113.248 26.2326V31.7151L99.3067 46.4394H113.248V51.961L91.7487 51.9219V46.4786V46.4394L105.69 31.7151H91.7487V26.2326H113.248ZM139.461 26.2326V31.7151L125.52 46.4394H139.461V51.961L117.962 51.9219V46.4786V46.4394L131.903 31.7151H117.962V26.2326H139.461ZM150.284 41.9359V46.4394H161.954V51.9219H144.175V26.4675H161.954V31.95H150.284V36.4535H160.191V41.9359H150.284ZM175.641 51.961C173.957 51.961 172.43 51.7261 171.098 51.217C169.845 50.7079 168.827 49.9638 167.887 49.1415C164.911 46.4002 165.303 42.7583 165.303 42.4059L170.667 42.4842V42.445C170.667 42.445 170.667 43.894 171.294 44.8338C172.077 46.0086 173.526 46.596 175.641 46.596C179.165 46.596 180.732 45.6954 180.732 44.2073C180.732 42.6408 178.735 41.6618 175.484 41.3094C173.487 41.0744 171.725 40.6437 170.315 40.0562C168.984 39.508 167.887 38.7639 167.065 37.8633C165.89 36.571 165.303 35.0437 165.303 33.3206C165.303 30.9318 166.242 29.3263 167.065 28.3864C168.866 26.3501 171.764 25.2927 175.758 25.2927C181.006 25.2927 183.59 27.6032 184.844 29.5221C186.175 31.5976 186.253 33.9864 186.253 34.378H180.888V34.4171C180.888 34.4171 180.928 33.2423 180.301 32.4199C179.518 31.3235 177.951 30.6577 175.758 30.6577C173.487 30.6577 170.863 31.2451 170.863 32.9682C170.863 34.6129 172.586 35.5919 176.072 35.9836C179.949 36.4143 182.807 37.6283 184.53 39.6255C185.666 40.9569 186.253 42.5234 186.253 44.2073C186.253 45.0296 186.253 47.1051 184.569 48.9848C183.708 49.9638 182.533 50.7079 181.084 51.217C179.596 51.7261 177.795 51.961 175.641 51.961Z" fill="black"/>
</g>
<defs>
<filter id="filter0_d_261_1951" x="0.724609" y="0.544922" width="219.078" height="94.0788" filterUnits="userSpaceOnUse" color-interpolation-filters="sRGB">
<feFlood flood-opacity="0" result="BackgroundImageFix"/>
<feColorMatrix in="SourceAlpha" type="matrix" values="0 0 0 0 0 0 0 0 0 0 0 0 0 0 0 0 0 0 127 0" result="hardAlpha"/>
<feOffset dx="9.32393" dy="9.32393"/>
<feComposite in2="hardAlpha" operator="out"/>
<feColorMatrix type="matrix" values="0 0 0 0 0 0 0 0 0 0 0 0 0 0 0 0 0 0 1 0"/>
<feBlend mode="normal" in2="BackgroundImageFix" result="effect1_dropShadow_261_1951"/>
<feBlend mode="normal" in="SourceGraphic" in2="effect1_dropShadow_261_1951" result="shape"/>
</filter>
</defs>
</svg>
