<svg width="179" height="95" viewBox="0 0 179 95" fill="none" xmlns="http://www.w3.org/2000/svg">
<g filter="url(#filter0_d_499_1782)">
<rect y="0.457031" width="168.755" height="84.7549" rx="41.9577" fill="#B4C7F2"/>
<rect x="0.932393" y="1.38942" width="166.89" height="82.8901" rx="41.0253" stroke="black" stroke-width="1.86479"/>
<path d="M40.195 30.3797H46.304V55.834L29.4258 43.4201V55.834H23.3168V30.3797L40.195 43.3809V30.3797ZM63.2905 30.4971C70.5352 30.4971 76.4093 36.3712 76.4093 43.6159C76.4093 50.8606 70.5352 56.7347 63.2905 56.7347C56.0458 56.7347 50.1717 50.8606 50.1717 43.6159C50.1717 36.3712 56.0458 30.4971 63.2905 30.4971ZM68.6946 49.0201C70.1436 47.5711 70.9268 45.6523 70.9268 43.6159C70.9268 41.5796 70.1436 39.6607 68.6946 38.2118C67.2457 36.7628 65.3268 35.9796 63.2905 35.9796C61.2542 35.9796 59.3353 36.7628 57.8863 38.2118C56.4374 39.6607 55.6542 41.5796 55.6542 43.6159C55.6542 45.6523 56.4374 47.5711 57.8863 49.0201C59.3353 50.4298 61.2542 51.2522 63.2905 51.2522C65.3268 51.2522 67.2457 50.4298 68.6946 49.0201ZM97.8472 36.4887H91.2291V55.834H85.12V36.4887H78.5019V30.3797H97.8472V36.4887ZM108.3 45.8481V50.3515H119.97V55.834H102.191V30.3797H119.97V35.8621H108.3V40.3656H118.208V45.8481H108.3ZM133.657 55.8731C131.973 55.8731 130.446 55.6382 129.114 55.1291C127.861 54.62 126.843 53.876 125.903 53.0536C122.927 50.3124 123.319 46.6704 123.319 46.318L128.684 46.3963V46.3571C128.684 46.3571 128.684 47.8061 129.31 48.7459C130.093 49.9207 131.542 50.5082 133.657 50.5082C137.181 50.5082 138.748 49.6075 138.748 48.1194C138.748 46.5529 136.751 45.5739 133.5 45.2215C131.503 44.9865 129.741 44.5558 128.331 43.9684C127 43.4201 125.903 42.6761 125.081 41.7754C123.906 40.4831 123.319 38.9558 123.319 37.2327C123.319 34.844 124.259 33.2384 125.081 32.2985C126.882 30.2622 129.78 29.2048 133.775 29.2048C139.022 29.2048 141.607 31.5153 142.86 33.4342C144.191 35.5097 144.27 37.8985 144.27 38.2901H138.905V38.3292C138.905 38.3292 138.944 37.1544 138.317 36.3321C137.534 35.2356 135.967 34.5698 133.775 34.5698C131.503 34.5698 128.879 35.1572 128.879 36.8803C128.879 38.525 130.603 39.5041 134.088 39.8957C137.965 40.3264 140.823 41.5404 142.546 43.5376C143.682 44.869 144.27 46.4355 144.27 48.1194C144.27 48.9417 144.27 51.0172 142.586 52.8969C141.724 53.876 140.549 54.62 139.1 55.1291C137.612 55.6382 135.811 55.8731 133.657 55.8731Z" fill="black"/>
</g>
<defs>
<filter id="filter0_d_499_1782" x="0" y="0.457031" width="178.078" height="94.0778" filterUnits="userSpaceOnUse" color-interpolation-filters="sRGB">
<feFlood flood-opacity="0" result="BackgroundImageFix"/>
<feColorMatrix in="SourceAlpha" type="matrix" values="0 0 0 0 0 0 0 0 0 0 0 0 0 0 0 0 0 0 127 0" result="hardAlpha"/>
<feOffset dx="9.32393" dy="9.32393"/>
<feComposite in2="hardAlpha" operator="out"/>
<feColorMatrix type="matrix" values="0 0 0 0 0 0 0 0 0 0 0 0 0 0 0 0 0 0 1 0"/>
<feBlend mode="normal" in2="BackgroundImageFix" result="effect1_dropShadow_499_1782"/>
<feBlend mode="normal" in="SourceGraphic" in2="effect1_dropShadow_499_1782" result="shape"/>
</filter>
</defs>
</svg>
