<svg width="376" height="183" viewBox="0 0 376 183" fill="none" xmlns="http://www.w3.org/2000/svg">
<g filter="url(#filter0_d_499_1786)">
<g clip-path="url(#clip0_499_1786)">
<rect x="23.4453" width="365.755" height="84.7549" rx="41.9577" transform="rotate(16 23.4453 0)" fill="#F5EDE1"/>
<path d="M45.1089 63.6184L45.0982 63.6561L45.1089 63.6184L45.0605 63.6453L45.0713 63.6076L38.9391 35.4099L45.7149 37.3528L48.617 51.3843L58.4761 41.012L65.2519 42.955L45.1089 63.6184ZM69.1965 44.0861L75.0689 45.7699L68.0527 70.2382L62.1804 68.5543L69.1965 44.0861ZM88.2592 49.7151C94.9974 51.6473 98.9282 58.6815 96.9852 65.4574C95.0531 72.1955 87.9812 76.1156 81.243 74.1834L72.2462 71.6036L71.9451 71.5173L78.9612 47.049L79.0365 47.0706L88.2592 49.7151ZM88.0804 67.9555C89.6789 67.0695 90.8314 65.6075 91.3387 63.8382C91.846 62.069 91.6434 60.2184 90.7682 58.5823C89.8821 56.9839 88.3825 55.8205 86.6132 55.3132L83.2253 54.3418L79.4366 67.5546L82.8621 68.5369C84.6314 69.0442 86.482 68.8416 88.0804 67.9555ZM106.656 70.9192L105.415 75.2482L116.633 78.4649L115.122 83.735L98.0314 78.8344L105.048 54.3662L122.138 59.2667L120.626 64.5368L109.409 61.3201L108.167 65.6491L117.691 68.38L116.18 73.6501L106.656 70.9192ZM137.774 63.8725C144.738 65.8694 148.765 73.135 146.768 80.0991C144.771 87.0631 137.506 91.0905 130.542 89.0936C123.578 87.0967 119.55 79.8311 121.547 72.867C123.544 65.903 130.81 61.8756 137.774 63.8725ZM137.863 83.1674C139.655 82.174 140.937 80.5454 141.498 78.5879C142.06 76.6304 141.836 74.57 140.842 72.7778C139.849 70.9857 138.22 69.7039 136.263 69.1426C134.305 68.5813 132.245 68.8052 130.453 69.7987C128.66 70.7921 127.379 72.4208 126.817 74.3782C126.256 76.3357 126.48 78.3961 127.473 80.1883C128.478 81.9428 130.095 83.2622 132.053 83.8235C134.01 84.3848 136.082 84.1232 137.863 83.1674ZM165.017 92.3387L176.799 95.7173L175.288 100.987L163.505 97.6088L163.468 97.598L157.633 95.9249L164.649 71.4567L170.522 73.1406L165.017 92.3387ZM187.743 94.1704L186.501 98.4994L197.719 101.716L196.208 106.986L179.118 102.086L186.134 77.6173L203.224 82.5178L201.713 87.7879L190.495 84.5713L189.254 88.9003L198.778 91.6312L197.266 96.9013L187.743 94.1704ZM217.89 105.789L220.575 110.633C217.825 111.84 214.678 112.16 211.554 111.264C204.627 109.278 200.6 102.012 202.586 95.086C204.583 88.122 211.848 84.0946 218.775 86.0807C221.899 86.9766 224.399 88.9155 226.08 91.4345L221.247 94.0818C220.275 92.7845 218.882 91.8149 217.264 91.3508C215.306 90.7895 213.283 91.0242 211.491 92.0177C209.699 93.0111 208.417 94.6397 207.856 96.5972C207.295 98.5547 207.529 100.577 208.523 102.37C209.516 104.162 211.107 105.433 213.065 105.994C214.683 106.458 216.378 106.374 217.89 105.789ZM247.927 101.691L241.565 99.8672L236.233 118.463L230.361 116.779L235.693 98.1833L229.331 96.3591L231.015 90.4868L249.611 95.819L247.927 101.691ZM269.258 101.453L274.716 103.018C273.453 107.422 271.813 113.144 270.668 117.134C268.79 123.684 261.941 125.835 257.197 124.475C252.831 123.222 247.774 117.984 249.76 111.057C250.829 107.331 252.491 101.534 253.786 97.0163L259.245 98.5815L255.218 112.623C254.787 114.128 254.968 115.484 255.801 116.7C256.623 117.955 257.897 118.768 258.763 119.016C259.29 119.167 259.935 119.19 260.554 119.163C261.269 119.083 262.006 118.928 262.625 118.617C263.244 118.305 263.798 117.934 264.224 117.445C264.698 116.929 264.994 116.322 265.21 115.569L269.258 101.453ZM297.285 118.533C296.497 121.281 293.982 124.512 289.716 124.755L292.59 134.623L286.003 132.734L283.118 123.474C282.101 123.183 281.16 122.913 280.332 122.675L278.098 130.468L272.225 128.784L279.241 104.315L285.114 105.999C285.829 106.204 287.448 106.669 290.948 107.672C296.971 109.399 298.365 114.769 297.285 118.533ZM283.603 111.269L281.843 117.405L287.64 119.068C288.393 119.283 289.103 119.365 289.657 119.279C290.05 119.188 290.405 119.086 290.706 118.888C291.417 118.399 291.853 117.587 292.015 117.022C292.188 116.42 292.248 115.5 291.829 114.688C291.459 113.848 290.679 113.299 289.437 112.942L283.603 111.269ZM305.79 128.02L304.549 132.349L315.767 135.566L314.256 140.836L297.165 135.935L304.182 111.467L321.272 116.367L319.761 121.638L308.543 118.421L307.301 122.75L316.825 125.481L315.314 130.751L305.79 128.02ZM327.402 144.646C325.783 144.182 324.38 143.535 323.24 142.679C322.176 141.844 321.402 140.848 320.726 139.799C318.62 136.343 320 132.95 320.098 132.611L325.233 134.165L325.244 134.128C325.244 134.128 324.845 135.521 325.188 136.597C325.617 137.942 326.848 138.906 328.881 139.489C332.268 140.46 334.022 140.026 334.433 138.596C334.864 137.09 333.214 135.599 330.187 134.364C328.332 133.588 326.757 132.688 325.564 131.734C324.435 130.84 323.586 129.823 323.044 128.731C322.271 127.164 322.127 125.534 322.602 123.878C323.26 121.582 324.606 120.298 325.656 119.621C327.949 118.16 331.026 117.942 334.865 119.043C339.91 120.49 341.757 123.423 342.433 125.613C343.141 127.975 342.558 130.293 342.45 130.669L337.293 129.191L337.282 129.228C337.282 129.228 337.643 128.11 337.268 127.146C336.817 125.877 335.495 124.805 333.387 124.2C331.203 123.574 328.519 123.416 328.044 125.072C327.591 126.653 328.977 128.069 332.22 129.406C335.828 130.889 338.241 132.844 339.347 135.239C340.072 136.832 340.205 138.499 339.74 140.118C339.514 140.908 338.942 142.903 336.805 144.246C335.707 144.95 334.372 145.341 332.839 145.431C331.269 145.51 329.472 145.24 327.402 144.646Z" fill="black"/>
</g>
<rect x="24.0846" y="1.15328" width="363.89" height="82.8901" rx="41.0253" transform="rotate(16 24.0846 1.15328)" stroke="black" stroke-width="1.86479"/>
</g>
<defs>
<filter id="filter0_d_499_1786" x="0.0839844" y="0" width="384.271" height="191.611" filterUnits="userSpaceOnUse" color-interpolation-filters="sRGB">
<feFlood flood-opacity="0" result="BackgroundImageFix"/>
<feColorMatrix in="SourceAlpha" type="matrix" values="0 0 0 0 0 0 0 0 0 0 0 0 0 0 0 0 0 0 127 0" result="hardAlpha"/>
<feOffset dx="9.32393" dy="9.32393"/>
<feComposite in2="hardAlpha" operator="out"/>
<feColorMatrix type="matrix" values="0 0 0 0 0 0 0 0 0 0 0 0 0 0 0 0 0 0 1 0"/>
<feBlend mode="normal" in2="BackgroundImageFix" result="effect1_dropShadow_499_1786"/>
<feBlend mode="normal" in="SourceGraphic" in2="effect1_dropShadow_499_1786" result="shape"/>
</filter>
<clipPath id="clip0_499_1786">
<rect x="23.4453" width="365.755" height="84.7549" rx="41.9577" transform="rotate(16 23.4453 0)" fill="white"/>
</clipPath>
</defs>
</svg>
