<svg width="358" height="95" viewBox="0 0 358 95" fill="none" xmlns="http://www.w3.org/2000/svg">
<g filter="url(#filter0_d_261_1947)">
<rect x="0.324219" y="0.211914" width="347.755" height="84.7549" rx="41.9577" fill="#F5EDE1"/>
<rect x="1.25661" y="1.14431" width="345.89" height="82.8901" rx="41.0253" stroke="black" stroke-width="1.86479"/>
<path d="M33.5486 26.2912C40.5584 26.2912 46.2758 31.9695 46.2758 39.0183C46.2758 46.0281 40.5584 51.7455 33.5486 51.7455H24.1893H23.876V26.2912H23.9543H33.5486ZM38.4045 43.8742C39.6968 42.582 40.4017 40.8589 40.4017 39.0183C40.4017 37.1778 39.6968 35.4547 38.4045 34.1233C37.1122 32.831 35.35 32.1261 33.5095 32.1261H29.985V45.8714H33.5486C35.3892 45.8714 37.1122 45.1665 38.4045 43.8742ZM63.1176 26.252C70.3623 26.252 76.2363 32.1261 76.2363 39.3708C76.2363 46.6155 70.3623 52.4896 63.1176 52.4896C55.8729 52.4896 49.9988 46.6155 49.9988 39.3708C49.9988 32.1261 55.8729 26.252 63.1176 26.252ZM68.5217 44.7749C69.9707 43.326 70.7539 41.4071 70.7539 39.3708C70.7539 37.3344 69.9707 35.4156 68.5217 33.9666C67.0728 32.5177 65.1539 31.7345 63.1176 31.7345C61.0812 31.7345 59.1624 32.5177 57.7134 33.9666C56.2645 35.4156 55.4813 37.3344 55.4813 39.3708C55.4813 41.4071 56.2645 43.326 57.7134 44.7749C59.1624 46.1847 61.0812 47.0071 63.1176 47.0071C65.1539 47.0071 67.0728 46.1847 68.5217 44.7749ZM96.4508 26.1345H102.129C102.129 30.7163 102.129 36.6687 102.129 40.8197C102.129 47.6337 96.1375 51.5889 91.2033 51.5889C86.6607 51.5889 80.3558 47.9469 80.3558 40.7414C80.3558 36.8645 80.3558 30.8338 80.3558 26.1345H86.0341V40.7414C86.0341 42.3078 86.5823 43.561 87.718 44.5008C88.8537 45.4798 90.3026 45.9106 91.2033 45.9106C91.7515 45.9106 92.3781 45.754 92.9655 45.5581C93.6312 45.284 94.297 44.9316 94.8061 44.4617C95.3151 43.9917 95.7459 43.4826 96.02 42.8952C96.3333 42.2687 96.4508 41.6029 96.4508 40.8197V26.1345ZM126.025 37.3344C126.025 37.3344 129.158 38.7442 129.158 44.2659C129.158 51.0015 121.835 51.5889 121.835 51.5889H108.011V26.1345H119.799C119.799 26.1345 125.594 26.1345 127.043 31.1079C128.101 34.6715 126.025 37.3344 126.025 37.3344ZM114.12 30.873V36.5512H119.564C121.13 36.5512 122.422 35.2981 122.422 33.7317C122.422 32.1261 121.13 30.873 119.564 30.873H114.12ZM124.38 44.0701C124.38 42.5036 123.127 41.2113 121.561 41.2113H114.12V46.8896H121.561C123.127 46.8896 124.38 45.6365 124.38 44.0701ZM150.903 32.2436H144.285V51.5889H138.176V32.2436H131.558V26.1345H150.903V32.2436ZM175.164 51.628C173.48 51.628 171.953 51.3931 170.621 50.884C169.368 50.3749 168.35 49.6308 167.41 48.8085C164.434 46.0672 164.826 42.4253 164.826 42.0729L170.191 42.1512V42.112C170.191 42.112 170.191 43.561 170.817 44.5008C171.6 45.6756 173.049 46.263 175.164 46.263C178.688 46.263 180.255 45.3623 180.255 43.8742C180.255 42.3078 178.258 41.3288 175.007 40.9764C173.01 40.7414 171.248 40.3106 169.838 39.7232C168.507 39.175 167.41 38.4309 166.588 37.5302C165.413 36.238 164.826 34.7107 164.826 32.9876C164.826 30.5988 165.765 28.9933 166.588 28.0534C168.389 26.0171 171.287 24.9597 175.281 24.9597C180.529 24.9597 183.114 27.2702 184.367 29.1891C185.698 31.2646 185.777 33.6534 185.777 34.045H180.412V34.0841C180.412 34.0841 180.451 32.9093 179.824 32.0869C179.041 30.9904 177.474 30.3247 175.281 30.3247C173.01 30.3247 170.386 30.9121 170.386 32.6352C170.386 34.2799 172.109 35.2589 175.595 35.6505C179.472 36.0813 182.33 37.2953 184.053 39.2925C185.189 40.6239 185.777 42.1903 185.777 43.8742C185.777 44.6966 185.777 46.7721 184.093 48.6518C183.231 49.6308 182.056 50.3749 180.607 50.884C179.119 51.3931 177.318 51.628 175.164 51.628ZM195.655 41.6029V46.1064H207.325V51.5889H189.546V26.1345H207.325V31.617H195.655V36.1205H205.563V41.6029H195.655ZM221.012 51.628C219.328 51.628 217.801 51.3931 216.47 50.884C215.217 50.3749 214.198 49.6308 213.259 48.8085C210.282 46.0672 210.674 42.4253 210.674 42.0729L216.039 42.1512V42.112C216.039 42.112 216.039 43.561 216.666 44.5008C217.449 45.6756 218.898 46.263 221.012 46.263C224.537 46.263 226.103 45.3623 226.103 43.8742C226.103 42.3078 224.106 41.3288 220.856 40.9764C218.859 40.7414 217.096 40.3106 215.687 39.7232C214.355 39.175 213.259 38.4309 212.436 37.5302C211.261 36.238 210.674 34.7107 210.674 32.9876C210.674 30.5988 211.614 28.9933 212.436 28.0534C214.238 26.0171 217.135 24.9597 221.13 24.9597C226.377 24.9597 228.962 27.2702 230.215 29.1891C231.547 31.2646 231.625 33.6534 231.625 34.045H226.26V34.0841C226.26 34.0841 226.299 32.9093 225.672 32.0869C224.889 30.9904 223.323 30.3247 221.13 30.3247C218.859 30.3247 216.235 30.9121 216.235 32.6352C216.235 34.2799 217.958 35.2589 221.443 35.6505C225.32 36.0813 228.179 37.2953 229.902 39.2925C231.037 40.6239 231.625 42.1903 231.625 43.8742C231.625 44.6966 231.625 46.7721 229.941 48.6518C229.079 49.6308 227.905 50.3749 226.456 50.884C224.968 51.3931 223.166 51.628 221.012 51.628ZM246.69 51.628C245.006 51.628 243.479 51.3931 242.147 50.884C240.894 50.3749 239.876 49.6308 238.936 48.8085C235.96 46.0672 236.352 42.4253 236.352 42.0729L241.717 42.1512V42.112C241.717 42.112 241.717 43.561 242.343 44.5008C243.126 45.6756 244.575 46.263 246.69 46.263C250.214 46.263 251.781 45.3623 251.781 43.8742C251.781 42.3078 249.784 41.3288 246.533 40.9764C244.536 40.7414 242.774 40.3106 241.364 39.7232C240.033 39.175 238.936 38.4309 238.114 37.5302C236.939 36.238 236.352 34.7107 236.352 32.9876C236.352 30.5988 237.292 28.9933 238.114 28.0534C239.915 26.0171 242.813 24.9597 246.808 24.9597C252.055 24.9597 254.64 27.2702 255.893 29.1891C257.224 31.2646 257.303 33.6534 257.303 34.045H251.938V34.0841C251.938 34.0841 251.977 32.9093 251.35 32.0869C250.567 30.9904 249.001 30.3247 246.808 30.3247C244.536 30.3247 241.912 30.9121 241.912 32.6352C241.912 34.2799 243.636 35.2589 247.121 35.6505C250.998 36.0813 253.856 37.2953 255.579 39.2925C256.715 40.6239 257.303 42.1903 257.303 43.8742C257.303 44.6966 257.303 46.7721 255.619 48.6518C254.757 49.6308 253.582 50.3749 252.133 50.884C250.645 51.3931 248.844 51.628 246.69 51.628ZM261.403 26.1345H267.512V51.5889H261.403V26.1345ZM284.137 26.252C291.382 26.252 297.256 32.1261 297.256 39.3708C297.256 46.6155 291.382 52.4896 284.137 52.4896C276.893 52.4896 271.019 46.6155 271.019 39.3708C271.019 32.1261 276.893 26.252 284.137 26.252ZM289.541 44.7749C290.99 43.326 291.774 41.4071 291.774 39.3708C291.774 37.3344 290.99 35.4156 289.541 33.9666C288.092 32.5177 286.174 31.7345 284.137 31.7345C282.101 31.7345 280.182 32.5177 278.733 33.9666C277.284 35.4156 276.501 37.3344 276.501 39.3708C276.501 41.4071 277.284 43.326 278.733 44.7749C280.182 46.1847 282.101 47.0071 284.137 47.0071C286.174 47.0071 288.092 46.1847 289.541 44.7749ZM318.019 26.1345H324.128V51.5889L307.25 39.175V51.5889H301.141V26.1345L318.019 39.1358V26.1345Z" fill="black"/>
</g>
<defs>
<filter id="filter0_d_261_1947" x="0.324219" y="0.211914" width="357.078" height="94.0788" filterUnits="userSpaceOnUse" color-interpolation-filters="sRGB">
<feFlood flood-opacity="0" result="BackgroundImageFix"/>
<feColorMatrix in="SourceAlpha" type="matrix" values="0 0 0 0 0 0 0 0 0 0 0 0 0 0 0 0 0 0 127 0" result="hardAlpha"/>
<feOffset dx="9.32393" dy="9.32393"/>
<feComposite in2="hardAlpha" operator="out"/>
<feColorMatrix type="matrix" values="0 0 0 0 0 0 0 0 0 0 0 0 0 0 0 0 0 0 1 0"/>
<feBlend mode="normal" in2="BackgroundImageFix" result="effect1_dropShadow_261_1947"/>
<feBlend mode="normal" in="SourceGraphic" in2="effect1_dropShadow_261_1947" result="shape"/>
</filter>
</defs>
</svg>
