<svg width="150" height="167" viewBox="0 0 150 167" fill="none" xmlns="http://www.w3.org/2000/svg">
<g filter="url(#filter0_d_261_1945)">
<rect x="80.8125" y="0.710938" width="137.154" height="93.2393" rx="46.6196" transform="rotate(60 80.8125 0.710938)" fill="#7790ED"/>
<rect x="80.4712" y="1.98461" width="135.289" height="91.3745" rx="45.6872" transform="rotate(60 80.4712 1.98461)" stroke="black" stroke-width="1.86479"/>
<path d="M70.8005 38.9469C66.7574 38.192 62.3766 38.5182 58.507 39.9381C54.6193 41.3684 51.0513 43.6439 47.9076 46.321C41.3266 51.9166 36.3722 59.8298 35.0091 68.4235C34.8923 69.1375 35.2065 69.89 35.9631 70.0758C40.3614 71.4877 44.8756 72.8087 49.0638 74.773C50.012 75.2074 51.0247 74.6706 51.1019 73.5963C51.4421 68.5626 53.8551 63.745 57.65 60.4046C59.4856 58.794 61.8249 57.3476 64.307 57.2316C67.0034 57.1117 69.5774 58.5711 71.3759 60.4782C73.2546 62.4827 74.8366 65.4727 74.9523 68.2556C75.0518 70.7604 74.0078 73.1592 72.7128 75.2479C69.9968 79.6657 65.862 83.2503 65.3783 88.7021C65.1179 91.7499 66.3613 94.5283 67.6818 97.1903C69.3422 100.566 71.2732 103.786 73.4463 106.841C73.8529 107.421 74.628 107.764 75.2926 107.332C79.4558 104.713 83.899 102.579 88.0441 99.9699C88.6831 99.5771 88.8977 98.7827 88.5425 98.1257C86.74 94.7122 84.0732 91.3427 84.9243 87.2354C85.309 85.3609 86.3836 83.8066 87.4789 82.2882C88.6075 80.7026 89.5838 79.0614 90.3558 77.2746C91.0047 75.7745 91.5116 74.2366 91.8869 72.6789C92.1105 72.3582 92.2075 71.943 92.1291 71.5572C92.4903 69.6005 92.6244 67.5835 92.477 65.5372C92.1824 61.4448 90.9283 57.5232 89.1123 53.878C85.6333 46.8108 78.7626 40.4085 70.8005 38.9469ZM56.9553 43.54C60.5787 41.7353 64.6462 40.9914 68.6857 41.3652C71.8914 41.6696 74.9655 42.9121 77.6824 44.7439C70.2519 44.2446 62.7951 44.5746 55.3473 44.4204C55.8884 44.108 56.4115 43.806 56.9553 43.54ZM51.4601 46.976C51.5453 46.9986 51.6486 47.0109 51.7518 47.0231C61.5279 47.4614 71.3474 46.7252 81.1018 47.7507C81.1766 47.7554 81.2592 47.7317 81.3417 47.708C82.4878 48.8184 83.5283 50.0376 84.4427 51.3297C74.5863 50.794 64.7408 50.4437 54.8921 49.8797C52.7783 49.7591 50.6438 49.6025 48.5197 49.4639C49.4463 48.5697 50.4428 47.7549 51.4601 46.976ZM53.3268 61.0806C49.2247 60.4317 45.1839 59.5557 41.0948 58.9711C41.4646 58.2786 41.8732 57.6117 42.2997 56.9344C46.6963 57.6768 51.1285 58.231 55.5656 58.7104C54.7418 59.4495 53.9955 60.2395 53.3268 61.0806ZM50.182 66.2967C46.4406 65.4395 42.7709 64.3733 39.0119 63.6938C39.2577 62.9533 39.5603 62.2278 39.8732 61.5203C43.8072 62.0029 47.6983 62.8695 51.6147 63.5299C51.0699 64.4191 50.5924 65.3414 50.182 66.2967ZM48.6298 71.647C45.1499 70.1599 41.5109 68.9802 37.8926 67.8364C38.0022 67.3181 38.0937 66.8102 38.2137 66.3099C41.9339 66.9638 45.5648 68.0046 49.2418 68.8751C48.968 69.7755 48.7795 70.6985 48.6298 71.647ZM64.8857 54.5268C62.6741 54.4866 60.5369 55.2416 58.6638 56.3709C58.607 56.3558 58.5398 56.3228 58.465 56.3181C53.6252 55.8077 48.7827 55.2509 43.9835 54.4776C44.6238 53.6289 45.2925 52.7879 45.9923 52.0007C56.479 52.795 66.9878 53.1695 77.4943 53.665C80.4107 53.8012 83.309 53.9478 86.1996 54.1229C86.2618 54.2306 86.324 54.3384 86.3862 54.4461C87.0061 55.6448 87.5719 56.8747 88.0656 58.1462C82.5472 57.6684 77.0117 57.5357 71.5059 56.9548C69.5875 55.548 67.247 54.5764 64.8857 54.5268ZM89.6929 64.6302C85.134 63.9816 80.5598 63.3897 76.0519 62.4961C75.6083 61.6027 75.0821 60.7331 74.4762 59.9335C79.3079 60.3049 84.1648 60.4702 88.9839 60.9447C89.3147 62.1426 89.5554 63.3925 89.6929 64.6302ZM89.5992 70.2161C87.637 69.8164 85.6725 69.5377 83.6949 69.1947C81.6709 68.8546 79.6776 68.4011 77.6562 68.1073C77.6342 67.5693 77.5761 67.052 77.4611 66.5197C77.3854 66.1803 77.2993 65.8229 77.1951 65.4759C81.3775 66.2222 85.5955 66.7803 89.7982 67.3952C89.7878 68.3351 89.7309 69.2779 89.5992 70.2161ZM69.0803 85.3674C70.0325 85.3923 70.9672 85.595 71.8735 85.7902C73.0818 86.0504 74.2465 86.3599 75.4291 86.6589C77.6344 87.2296 79.85 87.8182 82.0985 88.1724C82.0417 89.1152 82.0957 90.0419 82.2427 90.9628C80.0225 90.6162 77.82 90.0918 75.5894 89.7273C73.1421 89.3203 70.5815 89.0505 68.0705 88.9916C68.0881 88.8138 68.0877 88.6464 68.1053 88.4687C68.2649 87.3707 68.6338 86.3435 69.0803 85.3674ZM68.3693 91.7167C70.7229 91.7946 73.1054 92.0475 75.4031 92.4451C77.9745 92.9002 80.5255 93.4868 83.1172 93.8105C83.5482 94.8069 84.0694 95.7512 84.6189 96.7031C79.7003 95.6395 74.6165 95.5813 69.6347 95.0331C69.1235 93.9394 68.6587 92.8427 68.3693 91.7167ZM74.1977 103.103C74.9515 103.242 75.7131 103.354 76.467 103.493C75.98 103.774 75.5214 104.063 75.0344 104.344C74.7495 103.934 74.4646 103.524 74.1977 103.103ZM80.1851 101.394C80.1567 101.387 80.1463 101.369 80.1283 101.379C77.5208 100.945 74.9314 100.5 72.324 100.066C71.9092 99.3475 71.4944 98.6291 71.1157 97.8898C75.3901 98.2957 79.6947 98.4206 83.8956 99.3239C82.6587 100.014 81.4219 100.704 80.1851 101.394ZM82.605 85.5092C80.3745 85.1447 78.1589 84.556 75.9821 83.9928C74.7994 83.6938 73.6167 83.3948 72.4084 83.1346C71.8326 83.012 71.2284 82.8819 70.6166 82.7801C70.9174 82.3431 71.2285 81.924 71.5396 81.5049C71.8945 81.0366 72.257 80.5399 72.6119 80.0716C76.3073 81.099 79.9847 82.1369 83.6621 83.1748C83.2486 83.9164 82.8558 84.6939 82.605 85.5092ZM85.2196 80.7908C81.5886 79.7501 77.95 78.7377 74.3114 77.7254C74.8102 77.0064 75.2778 76.2335 75.699 75.4635C79.494 76.1221 83.2535 76.9689 86.9516 78.0427C86.4276 78.9679 85.8468 79.8779 85.2196 80.7908ZM88.1295 75.5427C84.421 74.451 80.6512 73.5862 76.8457 72.9096C77.0942 72.2154 77.3039 71.4957 77.4388 70.7712C79.3568 71.0528 81.2573 71.5121 83.178 71.8399C85.1272 72.1754 87.084 72.4824 89.0359 72.8641C88.8009 73.7901 88.4988 74.6829 88.1295 75.5427ZM82.8656 109.952C81.3442 111.357 80.1853 113.224 79.7442 115.251C79.3157 117.174 79.6845 119.021 80.3679 120.829C80.381 120.894 80.4405 120.955 80.4716 121.009C80.4847 121.073 80.4874 121.12 80.5081 121.156C81.3904 123.017 83.0171 124.377 84.7051 125.509C86.3441 126.599 88.3405 127.266 90.3321 127.05C94.2585 126.603 97.5024 122.767 98.3313 119.079C98.7674 117.127 98.5561 115.262 97.759 113.423C96.9074 111.448 95.2442 109.942 93.5147 108.737C90.0763 106.364 85.7848 107.261 82.8656 109.952ZM94.7976 120.664C90.7059 120.033 86.6321 119.392 82.53 118.743C82.3997 118.267 82.3159 117.789 82.2681 117.29C84.5235 117.281 86.7711 117.3 88.976 117.703C91.1524 118.099 93.3112 118.673 95.5462 118.795C95.3879 119.437 95.1264 120.067 94.7976 120.664ZM89.276 115.016C87.1203 114.656 84.9628 114.584 82.79 114.57C83.0209 114.053 83.2905 113.562 83.6197 113.133C85.4566 112.982 87.3016 112.971 89.1395 113.155C91.0909 113.369 93.0202 114.004 94.9942 113.965C95.3675 114.612 95.6145 115.331 95.7326 116.077C93.5363 115.981 91.4316 115.376 89.276 115.016ZM90.9644 110.401C91.2511 110.523 91.5406 110.691 91.83 110.859C90.9445 110.7 90.059 110.541 89.1581 110.438C88.5386 110.365 87.9321 110.356 87.2973 110.339C88.4782 109.969 89.7321 109.891 90.9644 110.401ZM91.083 124.102C89.5053 124.702 87.8578 124.264 86.4673 123.438C85.6661 122.967 84.906 122.4 84.2437 121.753C87.0937 122.191 89.9257 122.639 92.7861 123.095C92.2788 123.507 91.694 123.869 91.083 124.102Z" fill="#231F20"/>
</g>
<defs>
<filter id="filter0_d_261_1945" x="0.0644531" y="0.710938" width="158.648" height="174.722" filterUnits="userSpaceOnUse" color-interpolation-filters="sRGB">
<feFlood flood-opacity="0" result="BackgroundImageFix"/>
<feColorMatrix in="SourceAlpha" type="matrix" values="0 0 0 0 0 0 0 0 0 0 0 0 0 0 0 0 0 0 127 0" result="hardAlpha"/>
<feOffset dx="9.32393" dy="9.32393"/>
<feComposite in2="hardAlpha" operator="out"/>
<feColorMatrix type="matrix" values="0 0 0 0 0 0 0 0 0 0 0 0 0 0 0 0 0 0 1 0"/>
<feBlend mode="normal" in2="BackgroundImageFix" result="effect1_dropShadow_261_1945"/>
<feBlend mode="normal" in="SourceGraphic" in2="effect1_dropShadow_261_1945" result="shape"/>
</filter>
</defs>
</svg>
