<svg width="376" height="184" viewBox="0 0 376 184" fill="none" xmlns="http://www.w3.org/2000/svg">
<g filter="url(#filter0_d_261_1957)">
<g clip-path="url(#clip0_261_1957)">
<rect x="23.8516" y="0.922852" width="365.755" height="84.7549" rx="41.9577" transform="rotate(16 23.8516 0.922852)" fill="#F5EDE1"/>
<path d="M45.5152 60.5423L45.5044 60.5799L45.5152 60.5423L45.4668 60.5691L45.4776 60.5315L39.3453 32.3337L46.1212 34.2766L49.0233 48.3081L58.8823 37.9358L65.6581 39.8788L45.5152 60.5423ZM69.6028 41.0099L75.4752 42.6938L68.459 67.162L62.5866 65.4782L69.6028 41.0099ZM88.6654 46.639C95.4036 48.5711 99.3344 55.6054 97.3915 62.3812C95.4593 69.1194 88.3874 73.0394 81.6493 71.1072L72.6525 68.5274L72.3513 68.4411L79.3675 43.9728L79.4428 43.9944L88.6654 46.639ZM88.4867 64.8794C90.0851 63.9933 91.2376 62.5313 91.745 60.7621C92.2523 58.9928 92.0496 57.1422 91.1744 55.5061C90.2884 53.9077 88.7887 52.7444 87.0195 52.2371L83.6315 51.2656L79.8428 64.4784L83.2684 65.4607C85.0376 65.968 86.8882 65.7654 88.4867 64.8794ZM107.062 67.8431L105.821 72.1721L117.039 75.3887L115.528 80.6588L98.4376 75.7583L105.454 51.29L122.544 56.1905L121.033 61.4606L109.815 58.244L108.574 62.573L118.097 65.3039L116.586 70.574L107.062 67.8431ZM138.18 60.7963C145.144 62.7932 149.172 70.0589 147.175 77.0229C145.178 83.987 137.912 88.0144 130.948 86.0175C123.984 84.0206 119.957 76.7549 121.953 69.7909C123.95 62.8268 131.216 58.7994 138.18 60.7963ZM138.269 80.0913C140.061 79.0978 141.343 77.4692 141.905 75.5117C142.466 73.5543 142.242 71.4939 141.248 69.7017C140.255 67.9095 138.626 66.6277 136.669 66.0664C134.711 65.5051 132.651 65.7291 130.859 66.7225C129.067 67.7159 127.785 69.3446 127.224 71.302C126.662 73.2595 126.886 75.3199 127.88 77.1121C128.884 78.8667 130.502 80.1861 132.459 80.7474C134.417 81.3087 136.488 81.0471 138.269 80.0913ZM165.423 89.2626L177.205 92.6411L175.694 97.9112L163.912 94.5327L163.874 94.5219L158.039 92.8488L165.055 68.3805L170.928 70.0644L165.423 89.2626ZM188.149 91.0942L186.908 95.4232L198.125 98.6399L196.614 103.91L179.524 99.0094L186.54 74.5412L203.63 79.4417L202.119 84.7118L190.901 81.4951L189.66 85.8241L199.184 88.555L197.673 93.8251L188.149 91.0942ZM218.296 102.713L220.981 107.557C218.231 108.764 215.084 109.084 211.96 108.188C205.033 106.202 201.006 98.9363 202.992 92.0099C204.989 85.0458 212.255 81.0184 219.181 83.0045C222.305 83.9004 224.805 85.8393 226.486 88.3583L221.653 91.0056C220.681 89.7083 219.289 88.7388 217.67 88.2746C215.712 87.7133 213.69 87.9481 211.897 88.9415C210.105 89.9349 208.824 91.5636 208.262 93.521C207.701 95.4785 207.936 97.5013 208.929 99.2935C209.923 101.086 211.514 102.357 213.471 102.918C215.09 103.382 216.784 103.298 218.296 102.713ZM248.333 98.6153L241.971 96.7911L236.639 115.387L230.767 113.703L236.099 95.1072L229.737 93.283L231.421 87.4106L250.017 92.7429L248.333 98.6153ZM269.664 98.3765L275.122 99.9417C273.859 104.346 272.219 110.068 271.075 114.058C269.196 120.608 262.347 122.758 257.604 121.398C253.237 120.146 248.18 114.908 250.166 107.981C251.235 104.254 252.897 98.4574 254.193 93.9402L259.651 95.5053L255.625 109.546C255.193 111.052 255.375 112.408 256.207 113.624C257.029 114.878 258.303 115.692 259.169 115.94C259.696 116.091 260.341 116.113 260.96 116.087C261.675 116.007 262.413 115.852 263.031 115.54C263.65 115.229 264.205 114.858 264.63 114.369C265.104 113.853 265.4 113.246 265.616 112.493L269.664 98.3765ZM297.692 115.457C296.904 118.205 294.389 121.436 290.123 121.679L292.997 131.547L286.409 129.658L283.524 120.398C282.507 120.107 281.566 119.837 280.738 119.599L278.504 127.391L272.631 125.708L279.648 101.239L285.52 102.923C286.235 103.128 287.854 103.592 291.355 104.596C297.378 106.323 298.771 111.693 297.692 115.457ZM284.009 108.193L282.249 114.329L288.046 115.991C288.799 116.207 289.509 116.289 290.063 116.203C290.456 116.112 290.811 116.01 291.113 115.811C291.823 115.323 292.26 114.511 292.422 113.946C292.594 113.344 292.654 112.424 292.236 111.611C291.865 110.772 291.086 110.223 289.844 109.866L284.009 108.193ZM306.197 124.944L304.955 129.273L316.173 132.489L314.662 137.76L297.572 132.859L304.588 108.391L321.678 113.291L320.167 118.561L308.949 115.345L307.708 119.674L317.232 122.405L315.72 127.675L306.197 124.944ZM327.808 141.57C326.189 141.106 324.786 140.459 323.646 139.603C322.582 138.768 321.809 137.772 321.132 136.722C319.026 133.267 320.407 129.874 320.504 129.535L325.639 131.089L325.65 131.052C325.65 131.052 325.251 132.444 325.594 133.521C326.023 134.866 327.254 135.83 329.287 136.413C332.675 137.384 334.429 136.95 334.839 135.52C335.271 134.014 333.621 132.522 330.593 131.288C328.738 130.511 327.163 129.612 325.97 128.658C324.841 127.764 323.992 126.747 323.45 125.654C322.677 124.088 322.533 122.458 323.008 120.802C323.667 118.506 325.013 117.221 326.062 116.545C328.355 115.084 331.432 114.866 335.272 115.967C340.316 117.413 342.164 120.347 342.839 122.537C343.547 124.899 342.964 127.217 342.856 127.593L337.699 126.114L337.688 126.152C337.688 126.152 338.049 125.034 337.674 124.07C337.223 122.8 335.901 121.729 333.793 121.124C331.61 120.498 328.926 120.34 328.451 121.996C327.997 123.577 329.384 124.993 332.626 126.33C336.234 127.813 338.647 129.768 339.753 132.162C340.478 133.755 340.611 135.423 340.147 137.042C339.92 137.832 339.348 139.827 337.211 141.17C336.113 141.874 334.779 142.265 333.246 142.355C331.675 142.434 329.878 142.164 327.808 141.57Z" fill="black"/>
</g>
<rect x="24.4908" y="2.07613" width="363.89" height="82.8901" rx="41.0253" transform="rotate(16 24.4908 2.07613)" stroke="black" stroke-width="1.86479"/>
</g>
<defs>
<filter id="filter0_d_261_1957" x="0.490234" y="0.922852" width="384.271" height="191.611" filterUnits="userSpaceOnUse" color-interpolation-filters="sRGB">
<feFlood flood-opacity="0" result="BackgroundImageFix"/>
<feColorMatrix in="SourceAlpha" type="matrix" values="0 0 0 0 0 0 0 0 0 0 0 0 0 0 0 0 0 0 127 0" result="hardAlpha"/>
<feOffset dx="9.32393" dy="9.32393"/>
<feComposite in2="hardAlpha" operator="out"/>
<feColorMatrix type="matrix" values="0 0 0 0 0 0 0 0 0 0 0 0 0 0 0 0 0 0 1 0"/>
<feBlend mode="normal" in2="BackgroundImageFix" result="effect1_dropShadow_261_1957"/>
<feBlend mode="normal" in="SourceGraphic" in2="effect1_dropShadow_261_1957" result="shape"/>
</filter>
<clipPath id="clip0_261_1957">
<rect x="23.8516" y="0.922852" width="365.755" height="84.7549" rx="41.9577" transform="rotate(16 23.8516 0.922852)" fill="white"/>
</clipPath>
</defs>
</svg>
