<svg width="220" height="95" viewBox="0 0 220 95" fill="none" xmlns="http://www.w3.org/2000/svg">
<g filter="url(#filter0_d_499_1784)">
<rect x="0.320312" y="0.621094" width="209.755" height="84.7549" rx="41.9577" fill="#7790ED"/>
<rect x="1.25271" y="1.55349" width="207.89" height="82.8901" rx="41.0253" stroke="black" stroke-width="1.86479"/>
<path d="M50.5404 53.4918L46.1936 57.8386L43.4132 55.0582C41.5335 56.1155 39.3405 56.7421 36.9908 56.7421C29.7462 56.7421 23.8721 50.868 23.8721 43.6233C23.8721 36.3786 29.7462 30.5046 36.9908 30.5046C44.2355 30.5046 50.1096 36.3786 50.1096 43.6233C50.1096 46.2862 49.2872 48.7925 47.9166 50.9072L50.5404 53.4918ZM36.9908 51.2596C37.7741 51.2596 38.5573 51.1421 39.2622 50.9072L36.9517 48.5967L41.2593 44.2499L43.8831 46.8737C44.3922 45.8555 44.6271 44.759 44.6271 43.6233C44.6271 41.587 43.8439 39.6681 42.395 38.2192C40.9461 36.7702 39.0272 35.987 36.9908 35.987C34.9545 35.987 33.0356 36.7702 31.5867 38.2192C30.1378 39.6681 29.3546 41.587 29.3546 43.6233C29.3546 45.6597 30.1378 47.5785 31.5867 49.0275C33.0356 50.4373 34.9545 51.2596 36.9908 51.2596ZM71.3429 30.5437H77.0211C77.0211 35.1255 77.0211 41.0779 77.0211 45.2289C77.0211 52.0428 71.0296 55.998 66.0954 55.998C61.5527 55.998 55.2479 52.3561 55.2479 45.1506C55.2479 41.2737 55.2479 35.243 55.2479 30.5437H60.9262V45.1506C60.9262 46.717 61.4744 47.9701 62.6101 48.91C63.7457 49.889 65.1947 50.3198 66.0954 50.3198C66.6436 50.3198 67.2702 50.1631 67.8576 49.9673C68.5233 49.6932 69.189 49.3408 69.6981 48.8708C70.2072 48.4009 70.638 47.8918 70.9121 47.3044C71.2254 46.6778 71.3429 46.0121 71.3429 45.2289V30.5437ZM81.1413 30.5437H87.2503V55.998H81.1413V30.5437ZM112.844 30.3088V35.7912L98.9024 50.5156H112.844V56.0372L91.3444 55.998V50.5547V50.5156L105.286 35.7912H91.3444V30.3088H112.844ZM139.057 30.3088V35.7912L125.115 50.5156H139.057V56.0372L117.557 55.998V50.5547V50.5156L131.499 35.7912H117.557V30.3088H139.057ZM149.88 46.0121V50.5156H161.549V55.998H143.771V30.5437H161.549V36.0262H149.88V40.5296H159.787V46.0121H149.88ZM175.237 56.0372C173.553 56.0372 172.025 55.8022 170.694 55.2932C169.441 54.7841 168.423 54.04 167.483 53.2177C164.507 50.4764 164.898 46.8345 164.898 46.482L170.263 46.5604V46.5212C170.263 46.5212 170.263 47.9701 170.89 48.91C171.673 50.0848 173.122 50.6722 175.237 50.6722C178.761 50.6722 180.327 49.7715 180.327 48.2834C180.327 46.717 178.33 45.738 175.08 45.3856C173.083 45.1506 171.321 44.7198 169.911 44.1324C168.579 43.5842 167.483 42.8401 166.66 41.9394C165.486 40.6471 164.898 39.1199 164.898 37.3968C164.898 35.008 165.838 33.4024 166.66 32.4626C168.462 30.4262 171.36 29.3689 175.354 29.3689C180.602 29.3689 183.186 31.6794 184.439 33.5982C185.771 35.6737 185.849 38.0625 185.849 38.4541H180.484V38.4933C180.484 38.4933 180.523 37.3185 179.897 36.4961C179.113 35.3996 177.547 34.7339 175.354 34.7339C173.083 34.7339 170.459 35.3213 170.459 37.0444C170.459 38.6891 172.182 39.6681 175.667 40.0597C179.544 40.4905 182.403 41.7045 184.126 43.7016C185.262 45.0331 185.849 46.5995 185.849 48.2834C185.849 49.1058 185.849 51.1813 184.165 53.061C183.304 54.04 182.129 54.7841 180.68 55.2932C179.192 55.8022 177.39 56.0372 175.237 56.0372Z" fill="black"/>
</g>
<defs>
<filter id="filter0_d_499_1784" x="0.320312" y="0.621094" width="219.078" height="94.0778" filterUnits="userSpaceOnUse" color-interpolation-filters="sRGB">
<feFlood flood-opacity="0" result="BackgroundImageFix"/>
<feColorMatrix in="SourceAlpha" type="matrix" values="0 0 0 0 0 0 0 0 0 0 0 0 0 0 0 0 0 0 127 0" result="hardAlpha"/>
<feOffset dx="9.32393" dy="9.32393"/>
<feComposite in2="hardAlpha" operator="out"/>
<feColorMatrix type="matrix" values="0 0 0 0 0 0 0 0 0 0 0 0 0 0 0 0 0 0 1 0"/>
<feBlend mode="normal" in2="BackgroundImageFix" result="effect1_dropShadow_499_1784"/>
<feBlend mode="normal" in="SourceGraphic" in2="effect1_dropShadow_499_1784" result="shape"/>
</filter>
</defs>
</svg>
