<svg width="358" height="95" viewBox="0 0 358 95" fill="none" xmlns="http://www.w3.org/2000/svg">
<g filter="url(#filter0_d_499_1780)">
<rect x="0.917969" y="0.289062" width="347.755" height="84.7549" rx="41.9577" fill="#F5EDE1"/>
<rect x="1.85036" y="1.22146" width="345.89" height="82.8901" rx="41.0253" stroke="black" stroke-width="1.86479"/>
<path d="M34.1424 30.3683C41.1521 30.3683 46.8695 36.0466 46.8695 43.0955C46.8695 50.1052 41.1521 55.8227 34.1424 55.8227H24.783H24.4697V30.3683H24.5481H34.1424ZM38.9983 47.9514C40.2906 46.6591 40.9955 44.936 40.9955 43.0955C40.9955 41.255 40.2906 39.5319 38.9983 38.2004C37.706 36.9081 35.9438 36.2032 34.1032 36.2032H30.5788V49.9486H34.1424C35.9829 49.9486 37.706 49.2437 38.9983 47.9514ZM63.7113 30.3292C70.956 30.3292 76.8301 36.2032 76.8301 43.4479C76.8301 50.6926 70.956 56.5667 63.7113 56.5667C56.4666 56.5667 50.5925 50.6926 50.5925 43.4479C50.5925 36.2032 56.4666 30.3292 63.7113 30.3292ZM69.1155 48.8521C70.5644 47.4031 71.3476 45.4843 71.3476 43.4479C71.3476 41.4116 70.5644 39.4927 69.1155 38.0438C67.6665 36.5949 65.7477 35.8116 63.7113 35.8116C61.675 35.8116 59.7561 36.5949 58.3072 38.0438C56.8582 39.4927 56.075 41.4116 56.075 43.4479C56.075 45.4843 56.8582 47.4031 58.3072 48.8521C59.7561 50.2619 61.675 51.0842 63.7113 51.0842C65.7477 51.0842 67.6665 50.2619 69.1155 48.8521ZM97.0445 30.2117H102.723C102.723 34.7935 102.723 40.7459 102.723 44.8969C102.723 51.7108 96.7313 55.666 91.797 55.666C87.2544 55.666 80.9496 52.0241 80.9496 44.8186C80.9496 40.9417 80.9496 34.9109 80.9496 30.2117H86.6279V44.8186C86.6279 46.385 87.1761 47.6381 88.3118 48.578C89.4474 49.557 90.8963 49.9877 91.797 49.9877C92.3453 49.9877 92.9719 49.8311 93.5593 49.6353C94.225 49.3612 94.8907 49.0087 95.3998 48.5388C95.9089 48.0689 96.3397 47.5598 96.6138 46.9724C96.9271 46.3458 97.0445 45.6801 97.0445 44.8969V30.2117ZM126.619 41.4116C126.619 41.4116 129.752 42.8214 129.752 48.343C129.752 55.0786 122.429 55.666 122.429 55.666H108.605V30.2117H120.392C120.392 30.2117 126.188 30.2117 127.637 35.1851C128.694 38.7487 126.619 41.4116 126.619 41.4116ZM114.714 34.9501V40.6284H120.158C121.724 40.6284 123.016 39.3752 123.016 37.8088C123.016 36.2032 121.724 34.9501 120.158 34.9501H114.714ZM124.974 48.1472C124.974 46.5808 123.721 45.2885 122.155 45.2885H114.714V50.9668H122.155C123.721 50.9668 124.974 49.7136 124.974 48.1472ZM151.497 36.3207H144.879V55.666H138.77V36.3207H132.152V30.2117H151.497V36.3207ZM175.758 55.7052C174.074 55.7052 172.547 55.4702 171.215 54.9611C169.962 54.452 168.944 53.708 168.004 52.8856C165.028 50.1444 165.419 46.5025 165.419 46.15L170.784 46.2283V46.1892C170.784 46.1892 170.784 47.6381 171.411 48.578C172.194 49.7528 173.643 50.3402 175.758 50.3402C179.282 50.3402 180.849 49.4395 180.849 47.9514C180.849 46.385 178.851 45.406 175.601 45.0535C173.604 44.8186 171.842 44.3878 170.432 43.8004C169.1 43.2521 168.004 42.5081 167.182 41.6074C166.007 40.3151 165.419 38.7878 165.419 37.0648C165.419 34.676 166.359 33.0704 167.182 32.1306C168.983 30.0942 171.881 29.0369 175.875 29.0369C181.123 29.0369 183.707 31.3473 184.96 33.2662C186.292 35.3417 186.37 37.7305 186.37 38.1221H181.005V38.1613C181.005 38.1613 181.044 36.9865 180.418 36.1641C179.635 35.0676 178.068 34.4019 175.875 34.4019C173.604 34.4019 170.98 34.9893 170.98 36.7123C170.98 38.3571 172.703 39.3361 176.189 39.7277C180.065 40.1585 182.924 41.3724 184.647 43.3696C185.783 44.7011 186.37 46.2675 186.37 47.9514C186.37 48.7738 186.37 50.8493 184.686 52.729C183.825 53.708 182.65 54.452 181.201 54.9611C179.713 55.4702 177.912 55.7052 175.758 55.7052ZM196.249 45.6801V50.1835H207.919V55.666H190.14V30.2117H207.919V35.6942H196.249V40.1976H206.157V45.6801H196.249ZM221.606 55.7052C219.922 55.7052 218.395 55.4702 217.064 54.9611C215.81 54.452 214.792 53.708 213.852 52.8856C210.876 50.1444 211.268 46.5025 211.268 46.15L216.633 46.2283V46.1892C216.633 46.1892 216.633 47.6381 217.259 48.578C218.043 49.7528 219.491 50.3402 221.606 50.3402C225.131 50.3402 226.697 49.4395 226.697 47.9514C226.697 46.385 224.7 45.406 221.449 45.0535C219.452 44.8186 217.69 44.3878 216.28 43.8004C214.949 43.2521 213.852 42.5081 213.03 41.6074C211.855 40.3151 211.268 38.7878 211.268 37.0648C211.268 34.676 212.208 33.0704 213.03 32.1306C214.831 30.0942 217.729 29.0369 221.724 29.0369C226.971 29.0369 229.556 31.3473 230.809 33.2662C232.14 35.3417 232.219 37.7305 232.219 38.1221H226.854V38.1613C226.854 38.1613 226.893 36.9865 226.266 36.1641C225.483 35.0676 223.917 34.4019 221.724 34.4019C219.452 34.4019 216.829 34.9893 216.829 36.7123C216.829 38.3571 218.552 39.3361 222.037 39.7277C225.914 40.1585 228.773 41.3724 230.496 43.3696C231.631 44.7011 232.219 46.2675 232.219 47.9514C232.219 48.7738 232.219 50.8493 230.535 52.729C229.673 53.708 228.498 54.452 227.049 54.9611C225.561 55.4702 223.76 55.7052 221.606 55.7052ZM247.284 55.7052C245.6 55.7052 244.073 55.4702 242.741 54.9611C241.488 54.452 240.47 53.708 239.53 52.8856C236.554 50.1444 236.945 46.5025 236.945 46.15L242.31 46.2283V46.1892C242.31 46.1892 242.31 47.6381 242.937 48.578C243.72 49.7528 245.169 50.3402 247.284 50.3402C250.808 50.3402 252.375 49.4395 252.375 47.9514C252.375 46.385 250.377 45.406 247.127 45.0535C245.13 44.8186 243.368 44.3878 241.958 43.8004C240.627 43.2521 239.53 42.5081 238.708 41.6074C237.533 40.3151 236.945 38.7878 236.945 37.0648C236.945 34.676 237.885 33.0704 238.708 32.1306C240.509 30.0942 243.407 29.0369 247.401 29.0369C252.649 29.0369 255.233 31.3473 256.487 33.2662C257.818 35.3417 257.896 37.7305 257.896 38.1221H252.531V38.1613C252.531 38.1613 252.57 36.9865 251.944 36.1641C251.161 35.0676 249.594 34.4019 247.401 34.4019C245.13 34.4019 242.506 34.9893 242.506 36.7123C242.506 38.3571 244.229 39.3361 247.715 39.7277C251.591 40.1585 254.45 41.3724 256.173 43.3696C257.309 44.7011 257.896 46.2675 257.896 47.9514C257.896 48.7738 257.896 50.8493 256.212 52.729C255.351 53.708 254.176 54.452 252.727 54.9611C251.239 55.4702 249.438 55.7052 247.284 55.7052ZM261.997 30.2117H268.106V55.666H261.997V30.2117ZM284.731 30.3292C291.976 30.3292 297.85 36.2032 297.85 43.4479C297.85 50.6926 291.976 56.5667 284.731 56.5667C277.486 56.5667 271.612 50.6926 271.612 43.4479C271.612 36.2032 277.486 30.3292 284.731 30.3292ZM290.135 48.8521C291.584 47.4031 292.367 45.4843 292.367 43.4479C292.367 41.4116 291.584 39.4927 290.135 38.0438C288.686 36.5949 286.767 35.8116 284.731 35.8116C282.695 35.8116 280.776 36.5949 279.327 38.0438C277.878 39.4927 277.095 41.4116 277.095 43.4479C277.095 45.4843 277.878 47.4031 279.327 48.8521C280.776 50.2619 282.695 51.0842 284.731 51.0842C286.767 51.0842 288.686 50.2619 290.135 48.8521ZM318.613 30.2117H324.722V55.666L307.843 43.2521V55.666H301.734V30.2117L318.613 43.213V30.2117Z" fill="black"/>
</g>
<defs>
<filter id="filter0_d_499_1780" x="0.917969" y="0.289062" width="357.078" height="94.0778" filterUnits="userSpaceOnUse" color-interpolation-filters="sRGB">
<feFlood flood-opacity="0" result="BackgroundImageFix"/>
<feColorMatrix in="SourceAlpha" type="matrix" values="0 0 0 0 0 0 0 0 0 0 0 0 0 0 0 0 0 0 127 0" result="hardAlpha"/>
<feOffset dx="9.32393" dy="9.32393"/>
<feComposite in2="hardAlpha" operator="out"/>
<feColorMatrix type="matrix" values="0 0 0 0 0 0 0 0 0 0 0 0 0 0 0 0 0 0 1 0"/>
<feBlend mode="normal" in2="BackgroundImageFix" result="effect1_dropShadow_499_1780"/>
<feBlend mode="normal" in="SourceGraphic" in2="effect1_dropShadow_499_1780" result="shape"/>
</filter>
</defs>
</svg>
