<svg width="179" height="95" viewBox="0 0 179 95" fill="none" xmlns="http://www.w3.org/2000/svg">
<g filter="url(#filter0_d_261_1949)">
<rect x="0.40625" y="0.378906" width="168.755" height="84.7549" rx="41.9577" fill="#B4C7F2"/>
<rect x="1.33864" y="1.3113" width="166.89" height="82.8901" rx="41.0253" stroke="black" stroke-width="1.86479"/>
<path d="M40.6012 26.3015H46.7103V51.7559L29.8321 39.342V51.7559H23.7231V26.3015L40.6012 39.3028V26.3015ZM63.6967 26.419C70.9414 26.419 76.8155 32.2931 76.8155 39.5378C76.8155 46.7825 70.9414 52.6566 63.6967 52.6566C56.4521 52.6566 50.578 46.7825 50.578 39.5378C50.578 32.2931 56.4521 26.419 63.6967 26.419ZM69.1009 44.9419C70.5498 43.493 71.333 41.5741 71.333 39.5378C71.333 37.5014 70.5498 35.5826 69.1009 34.1336C67.652 32.6847 65.7331 31.9015 63.6967 31.9015C61.6604 31.9015 59.7415 32.6847 58.2926 34.1336C56.8437 35.5826 56.0604 37.5014 56.0604 39.5378C56.0604 41.5741 56.8437 43.493 58.2926 44.9419C59.7415 46.3517 61.6604 47.1741 63.6967 47.1741C65.7331 47.1741 67.652 46.3517 69.1009 44.9419ZM98.2534 32.4106H91.6353V51.7559H85.5263V32.4106H78.9082V26.3015H98.2534V32.4106ZM108.706 41.7699V46.2734H120.376V51.7559H102.597V26.3015H120.376V31.784H108.706V36.2875H118.614V41.7699H108.706ZM134.063 51.795C132.379 51.795 130.852 51.5601 129.521 51.051C128.268 50.5419 127.249 49.7978 126.309 48.9755C123.333 46.2342 123.725 42.5923 123.725 42.2399L129.09 42.3182V42.279C129.09 42.279 129.09 43.728 129.716 44.6678C130.5 45.8426 131.949 46.43 134.063 46.43C137.588 46.43 139.154 45.5293 139.154 44.0412C139.154 42.4748 137.157 41.4958 133.907 41.1434C131.909 40.9084 130.147 40.4776 128.737 39.8902C127.406 39.342 126.309 38.5979 125.487 37.6972C124.312 36.4049 123.725 34.8777 123.725 33.1546C123.725 30.7658 124.665 29.1603 125.487 28.2204C127.289 26.1841 130.186 25.1267 134.181 25.1267C139.428 25.1267 142.013 27.4372 143.266 29.3561C144.597 31.4316 144.676 33.8203 144.676 34.212H139.311V34.2511C139.311 34.2511 139.35 33.0763 138.723 32.2539C137.94 31.1574 136.374 30.4917 134.181 30.4917C131.909 30.4917 129.286 31.0791 129.286 32.8022C129.286 34.4469 131.009 35.4259 134.494 35.8175C138.371 36.2483 141.23 37.4623 142.953 39.4595C144.088 40.7909 144.676 42.3573 144.676 44.0412C144.676 44.8636 144.676 46.9391 142.992 48.8188C142.13 49.7978 140.956 50.5419 139.507 51.051C138.018 51.5601 136.217 51.795 134.063 51.795Z" fill="black"/>
</g>
<defs>
<filter id="filter0_d_261_1949" x="0.40625" y="0.378906" width="178.078" height="94.0788" filterUnits="userSpaceOnUse" color-interpolation-filters="sRGB">
<feFlood flood-opacity="0" result="BackgroundImageFix"/>
<feColorMatrix in="SourceAlpha" type="matrix" values="0 0 0 0 0 0 0 0 0 0 0 0 0 0 0 0 0 0 127 0" result="hardAlpha"/>
<feOffset dx="9.32393" dy="9.32393"/>
<feComposite in2="hardAlpha" operator="out"/>
<feColorMatrix type="matrix" values="0 0 0 0 0 0 0 0 0 0 0 0 0 0 0 0 0 0 1 0"/>
<feBlend mode="normal" in2="BackgroundImageFix" result="effect1_dropShadow_261_1949"/>
<feBlend mode="normal" in="SourceGraphic" in2="effect1_dropShadow_261_1949" result="shape"/>
</filter>
</defs>
</svg>
