<svg width="118" height="135" viewBox="0 0 118 135" fill="none" xmlns="http://www.w3.org/2000/svg">
<g clip-path="url(#clip0_552_1089)">
<path d="M13.332 14.7031H116.469V127.753H13.332V14.7031Z" fill="#F5EDE1"/>
<path d="M104.749 128.324L104.425 134.089L18.6643 129.637L18.7232 128.466V128.324H104.749ZM12.7447 128.324V122.901L10.5358 122.787L1.78896 122.33L1.43555 128.752L18.0753 129.608L18.1342 128.581L18.1636 128.324H12.7447ZM2.26017 113.939L1.81841 121.759L10.2119 122.187L12.7447 122.33V114.51L2.26017 113.939ZM2.76083 105.034L2.28962 113.368L12.7447 113.911V105.548L2.76083 105.034ZM3.2026 96.9288L2.79028 104.464L12.7447 104.977V97.414L3.2026 96.9288ZM3.70326 88.0241L3.23205 96.358L12.7447 96.8432V88.4808L3.70326 88.0241ZM11.5077 80.0327L4.17447 79.6617L3.73271 87.4533L12.0378 87.8814L12.7447 87.9099V80.0898L11.5077 80.0327ZM4.64569 70.7284L4.17447 79.0623L11.1249 79.4333L12.7152 79.5189V71.1565L4.64569 70.7284ZM5.1758 61.0245L4.67514 70.1576L12.7447 70.5857V61.4241L5.1758 61.0245ZM5.67646 52.1198L5.2347 60.4537L9.91738 60.7106L12.7447 60.8533V52.4908L5.67646 52.1198ZM6.14768 43.7288L5.70591 51.5204L12.7447 51.8915V44.0713L6.14768 43.7288ZM6.8545 34.8526H6.64834L6.17713 43.1865L12.7447 43.529V35.1666L6.8545 34.8526ZM7.70857 15.8445L6.67779 34.2533L12.7447 34.5672V16.1013L7.70857 15.8445ZM115.587 34.082V33.7966H31.2692V15.2451H30.9747V33.7966H14.2761V34.082H31.0042V42.5586H14.2761V42.844H31.0042V50.8069H14.2761V51.0923H31.0042V59.5689H14.2761V59.8543H31.0042V69.1301H14.2761V69.4155H31.0042V77.8921H14.2761V78.1775H31.0042V86.1404H14.2761V86.4258H31.0042V94.9024H14.2761V95.1878H31.0042V102.894H14.2761V103.179H31.0042V111.656H14.2761V111.941H31.0042V119.904H14.2761V120.19H31.0042V126.925H31.2987V120.19H115.616V119.904H31.2692V111.941H115.587V111.656H31.2692V103.179H115.587V102.894H31.2692V95.1878H115.587V94.9024H31.2692V86.4258H115.587V86.1404H31.2692V78.1775H115.587V77.8921H31.2692V69.4155H115.587V69.1301H31.2692V59.8543H115.587V59.5689H31.2692V51.0923H115.587V50.8069H31.2692V42.844H115.587V42.5586H31.2692V34.082L115.587 34.082Z" fill="#B4C7F2"/>
<path d="M45.7878 14.133V13.3338C45.7878 12.0495 44.6981 10.9935 43.3728 10.9935H38.6018L37.571 5.91323C38.5429 5.28534 39.1025 4.45765 39.1025 3.57289C39.1025 1.6892 36.7169 0.205078 33.6541 0.205078C30.5912 0.205078 28.2057 1.6892 28.2057 3.57289C28.2057 4.45765 28.7652 5.31388 29.7371 5.91323L28.6769 10.9935H23.8175C22.4922 10.9935 21.4025 12.0495 21.4025 13.3338V14.133H12.744V15.5315L7.14833 15.2461L5.55799 43.7012L3.55533 79.6055L1.67048 113.912L1.19927 122.274L0.816406 129.266L18.3396 130.18H18.3691L104.689 134.689H104.984L105.337 128.325H117.059V14.133H45.7878ZM43.3434 11.4501C44.4036 11.4501 45.2871 12.3064 45.2871 13.3338V18.5853H40.3099C40.251 18.5853 40.1627 18.5853 40.1038 18.5853L38.6607 11.4501H43.3434ZM30.7679 4.99993C29.9727 4.60036 29.5309 4.05808 29.5309 3.54435C29.5309 2.43126 31.4453 1.48941 33.6541 1.48941C35.8629 1.48941 37.7772 2.4598 37.7772 3.54435C37.7772 4.05808 37.3354 4.60036 36.5402 4.99993C36.2752 5.14263 36.1279 5.42804 36.1868 5.68491L37.2471 10.965H30.0316L31.1507 5.68491C31.1802 5.42804 31.0329 5.14263 30.7679 4.99993ZM37.3354 11.4501L38.8669 19.0135C38.16 19.4416 37.6888 20.1836 37.6005 21.0113H29.5898C29.5015 20.1836 29.0303 19.4416 28.3529 19.0135L29.9433 11.4501H37.3354ZM39.2497 19.3274C39.4559 19.2132 39.662 19.1562 39.8682 19.0991C39.8976 19.0991 39.9271 19.1276 39.9565 19.1276C39.986 19.1276 39.986 19.1276 40.0154 19.1276C40.0449 19.1276 40.1038 19.0991 40.1332 19.0705C40.2216 19.0705 40.2805 19.0705 40.3689 19.0705H45.2871V21.0113H38.0717C38.16 20.2978 38.6018 19.6699 39.2497 19.3274ZM30.2378 5.85615C30.2672 5.77053 30.2083 5.65637 30.12 5.59929C29.1775 5.05701 28.6769 4.34349 28.6769 3.57289C28.6769 1.94607 30.8562 0.690271 33.6541 0.690271C36.4519 0.690271 38.6312 1.94607 38.6312 3.57289C38.6312 4.34349 38.1306 5.05701 37.1882 5.59929C37.0998 5.65637 37.0704 5.74199 37.0704 5.85615L39.662 18.6995C39.5442 18.728 39.4264 18.7566 39.3086 18.8137L36.658 5.65637C36.658 5.57075 36.6875 5.51366 36.7464 5.45658C37.7183 4.97139 38.2484 4.28641 38.2484 3.60143C38.2484 2.20293 36.1868 1.0613 33.6541 1.0613C31.1213 1.0613 29.0597 2.20293 29.0597 3.60143C29.0597 4.31495 29.6193 4.99993 30.5617 5.45658C30.6206 5.48512 30.6795 5.57075 30.6501 5.65637L29.5015 11.1362C29.472 11.1647 29.472 11.1933 29.472 11.2504C29.472 11.2504 29.472 11.2504 29.472 11.2789L27.8817 18.8422C27.7639 18.7851 27.6461 18.7566 27.5283 18.728L30.2378 5.85615ZM21.9032 13.3338C21.9032 12.3064 22.7867 11.4501 23.8469 11.4501H28.5885L27.0865 18.5853C27.0276 18.5853 26.9687 18.5853 26.8804 18.5853H21.9032V13.3338ZM21.9032 19.0705H26.8804C28.029 19.0705 29.0008 19.9268 29.1186 21.0113H21.9032V19.0705ZM7.7079 15.8454L12.744 16.1023V34.5682L6.67712 34.2542L7.7079 15.8454ZM6.64767 34.825H6.85382L12.744 35.139V43.5014L6.17645 43.159L6.64767 34.825ZM6.147 43.7298L12.744 44.0723V51.8924L5.70524 51.5214L6.147 43.7298ZM5.67579 52.1208L12.744 52.4918V60.8542L9.91671 60.7115L5.23403 60.4547L5.67579 52.1208ZM5.17513 61.0255L12.7145 61.425V70.5866L4.64501 70.1585L5.17513 61.0255ZM4.64501 70.7293L12.744 71.1575V79.5199L11.1536 79.4343L4.20325 79.0633L4.64501 70.7293ZM4.14435 79.6341L11.4776 80.0051L12.7145 80.0622V87.8823L12.0077 87.8538L3.70259 87.4257L4.14435 79.6341ZM3.70259 88.0251L12.744 88.5103V96.8727L3.23137 96.3875L3.70259 88.0251ZM3.20192 96.9298L12.744 97.415V104.978L2.78961 104.465L3.20192 96.9298ZM2.76016 105.035L12.744 105.549V113.912L2.28895 113.369L2.76016 105.035ZM2.2595 113.94L12.744 114.482V122.303L10.2112 122.16L1.81773 121.732L2.2595 113.94ZM18.1335 128.581L18.0746 129.609L1.43487 128.753L1.78828 122.331L10.5352 122.788L12.744 122.902V128.325H18.1629L18.1335 128.581ZM104.424 134.09L18.6636 129.638L18.7225 128.467V128.325H104.719L104.424 134.09ZM116.47 127.754H13.333V14.7038H21.4025V21.2682C21.4025 21.4109 21.5203 21.4965 21.6381 21.4965H45.5227C45.67 21.4965 45.7584 21.3823 45.7584 21.2682V14.7038H116.44V127.754H116.47Z" fill="black"/>
<path d="M39.6338 18.6711C39.516 18.6997 39.3982 18.7282 39.2804 18.7853L36.6299 5.62799C36.6299 5.54236 36.6593 5.48528 36.7182 5.4282C37.6901 4.94301 38.2202 4.25803 38.2202 3.57305C38.2202 2.17455 36.1586 1.03292 33.6259 1.03292C31.0931 1.03292 29.0315 2.17455 29.0315 3.57305C29.0315 4.28657 29.5911 4.97155 30.5335 5.4282C30.5924 5.45674 30.6513 5.54236 30.6219 5.62799L29.4733 11.1078C29.4439 11.1364 29.4439 11.1649 29.4439 11.222C29.4439 11.222 29.4439 11.222 29.4439 11.2505L27.8535 18.8138C27.7357 18.7567 27.6179 18.7282 27.5001 18.6997L30.2096 5.85631C30.239 5.77069 30.1801 5.65652 30.0918 5.59944C29.1494 5.05717 28.6487 4.34365 28.6487 3.57305C28.6487 1.94622 30.828 0.69043 33.6259 0.69043C36.4237 0.69043 38.6031 1.94622 38.6031 3.57305C38.6031 4.34365 38.1024 5.05717 37.16 5.59944C37.0716 5.65653 37.0422 5.74215 37.0422 5.85631L39.6338 18.6711ZM40.3407 19.0707C40.2523 19.0707 40.1934 19.0707 40.105 19.0707C40.0756 19.0992 40.0461 19.1278 39.9872 19.1278C39.9578 19.1278 39.9578 19.1278 39.9283 19.1278C39.8989 19.1278 39.8694 19.1278 39.84 19.0992C39.6338 19.1278 39.4277 19.2134 39.251 19.299H39.2215C38.6031 19.6415 38.1613 20.2409 38.0729 20.9829H45.2884V19.0421H40.3407V19.0707ZM43.3446 11.4503H38.6914L40.1345 18.5855C40.1934 18.5855 40.2523 18.5855 40.3407 18.5855H45.2884V13.334C45.2884 12.3065 44.4343 11.4503 43.3446 11.4503ZM37.3367 11.4503H29.9151L28.3247 19.0136C29.0021 19.4417 29.5028 20.1838 29.5617 21.0115H37.5723C37.6606 20.1838 38.1318 19.4417 38.8387 19.0136L37.3367 11.4503ZM23.8188 11.4503C22.7585 11.4503 21.875 12.3065 21.875 13.334V18.5855H26.8522C26.9111 18.5855 26.97 18.5855 27.0583 18.5855L28.5603 11.4503H23.8188ZM26.8522 19.0707H21.9045V21.0115H29.0904C28.9726 19.9269 28.0302 19.0707 26.8522 19.0707Z" fill="#7790ED"/>
</g>
<defs>
<clipPath id="clip0_552_1089">
<rect width="116.521" height="134.034" fill="white" transform="translate(0.769531 0.213867)"/>
</clipPath>
</defs>
</svg>
