<svg width="51" height="185" viewBox="0 0 51 185" fill="none" xmlns="http://www.w3.org/2000/svg">
<g clip-path="url(#clip0_552_1024)">
<path d="M42.8867 82.2322C42.9396 98.9572 42.9841 115.684 42.8701 132.409C42.8511 135.069 43.1514 137.783 41.5793 140.114C39.6545 142.967 35.8476 144.324 32.5996 145.108C32.4918 145.134 32.3778 145.155 32.2686 145.18C32.2469 119.849 31.8626 94.5147 31.6547 69.1847C31.5684 58.6506 31.4257 48.1144 31.4051 37.5806C32.9879 39.4651 35.311 40.3863 37.9687 39.8462C40.137 39.4059 41.6555 37.945 42.5322 36.1387C42.8661 51.4981 42.8385 66.87 42.8867 82.2322Z" fill="#7790ED"/>
<path d="M22.3485 10.2559C22.3675 10.3034 22.3874 10.351 22.4102 10.3978C22.3753 10.3409 22.3415 10.2837 22.3128 10.2236C22.3238 10.2343 22.3367 10.2449 22.3485 10.2559Z" fill="black"/>
<path d="M8.75906 29.4041C12.4649 23.3208 16.4172 17.3553 20.1726 11.2871C21.2543 14.5798 28.7088 14.7989 29.6657 11.4363C31.9432 15.1578 34.267 18.8547 36.5249 22.5788C38.3204 25.5406 40.1425 28.4973 41.8056 31.5324C42.092 32.0548 42.2593 32.5559 42.3594 33.0599C42.107 35.6303 40.7578 37.8535 38.1255 38.7806C35.2875 39.7799 32.6544 38.1417 31.3529 35.7475C31.3499 35.7408 31.3449 35.735 31.3419 35.7283C31.3371 35.7184 31.3309 35.7101 31.3261 35.701C31.3062 35.663 31.2775 35.6412 31.2528 35.6126C31.2459 35.6061 31.2418 35.5973 31.2349 35.5908C31.115 35.4694 30.9605 35.4354 30.812 35.472C30.7119 35.4806 30.6199 35.5224 30.5443 35.59C30.5413 35.5916 30.5397 35.5929 30.5376 35.5947C30.5078 35.622 30.4842 35.6558 30.4622 35.6927C30.4432 35.7215 30.4274 35.7512 30.4158 35.786C30.4107 35.7982 30.4016 35.8055 30.3987 35.8185C28.977 41.2049 20.8868 41.0682 19.3732 35.8185C19.3705 35.8065 19.3613 35.8003 19.3573 35.7888C19.3437 35.747 19.3227 35.7119 19.2991 35.6784C19.282 35.6534 19.2654 35.6287 19.2455 35.6087C19.2308 35.5955 19.2139 35.5848 19.1981 35.5734C19.1583 35.5438 19.1176 35.5196 19.0723 35.5042C19.0693 35.5032 19.0661 35.5032 19.0634 35.5019C19.0425 35.4954 19.0216 35.4905 19.0001 35.4866C18.8392 35.4346 18.6678 35.4585 18.5375 35.5908C18.5305 35.5973 18.5265 35.6066 18.5193 35.6129C18.4997 35.6358 18.4788 35.6545 18.4621 35.682C18.4568 35.689 18.4503 35.694 18.4463 35.7015C18.4391 35.7135 18.4313 35.7231 18.4251 35.735C18.4232 35.7376 18.4214 35.7402 18.4195 35.7431C17.1295 38.1225 14.8689 39.4665 12.0725 38.8983C8.97977 38.2701 7.45246 35.2878 7.35912 32.4777C7.35912 32.4746 7.35723 32.473 7.35723 32.4696C7.36312 32.3119 7.36527 32.1541 7.37223 31.9969C7.41272 31.1353 8.31813 30.1266 8.75904 29.4041L8.75906 29.4041Z" fill="#FFDA9E"/>
<path d="M6.86713 125.49C6.83709 117.178 6.8395 108.866 6.84835 100.554C6.86794 82.5734 6.91862 64.5918 7.10473 46.6108C7.1404 43.1237 7.18304 39.6355 7.25519 36.1484C8.07157 37.7601 9.43155 39.0435 11.3773 39.7281C14.06 40.6731 16.6917 39.5573 18.3711 37.5873C18.3384 62.4879 17.9659 87.3922 17.7618 112.291C17.6717 123.274 17.5142 134.259 17.5043 145.242C14.7296 144.582 12.1392 143.49 10.0232 141.853C7.42095 139.84 6.94332 137.312 6.91569 134.271C6.88968 131.344 6.87677 128.417 6.86713 125.49Z" fill="#7790ED"/>
<path d="M5.96205 135.637C6.25732 138.458 7.19223 141.028 9.9948 143.066C15.586 147.131 24.0189 147.471 30.6421 146.487C36.1995 145.661 43.3191 142.935 43.837 136.664C43.8668 136.309 43.8826 135.952 43.9065 135.595C49.4867 139.876 44.7384 147.075 40.0084 149.819C35.4803 152.446 29.8555 153.143 24.6738 153.058C19.6236 152.976 14.414 151.925 9.96102 149.562C5.11914 146.992 0.485104 139.907 5.96205 135.637Z" fill="#B4C7F2"/>
<path d="M4.15255 145.572C4.91823 146.839 5.92742 147.988 7.09752 148.895C11.9198 152.635 18.6562 153.861 24.673 154.04C30.784 154.222 37.4806 153.059 42.4453 149.41C43.7906 148.421 44.9457 147.102 45.7985 145.64C47.8531 150.99 43.4438 155.722 38.7387 158.012C34.4482 160.101 29.413 160.673 24.673 160.596C19.9218 160.518 15.0641 159.571 10.7883 157.527C6.16638 155.318 2.11269 150.751 4.15255 145.572Z" fill="#B4C7F2"/>
<path d="M4.11766 153.124C5.20945 154.844 6.80814 156.344 8.6589 157.495C13.3286 160.398 19.2156 161.416 24.673 161.579C30.2331 161.744 36.1048 160.767 40.9239 157.971C42.9468 156.798 44.6882 155.132 45.8382 153.205C47.8056 158.516 43.4162 163.206 38.7387 165.482C34.4482 167.571 29.413 168.143 24.673 168.066C19.9218 167.989 15.0641 167.042 10.7884 164.998C6.19107 162.799 2.15242 158.27 4.11768 153.124L4.11766 153.124Z" fill="#B4C7F2"/>
<path d="M10.6338 180.898C4.98064 177.205 6.44952 169.308 6.62196 163.459C7.25487 164.007 7.93555 164.515 8.65885 164.965C13.3286 167.868 19.2156 168.887 24.6729 169.049C30.233 169.214 36.1048 168.237 40.9239 165.441C41.7153 164.982 42.4592 164.442 43.1477 163.846C43.3094 169.73 44.6495 177.06 39.1377 180.892C35.1329 183.676 29.6854 184.406 24.8867 184.44C20.0121 184.474 14.7392 183.579 10.6338 180.898L10.6338 180.898Z" fill="#7790ED"/>
<path d="M40.9865 180.536C46.9551 176.387 45.1928 168.175 45.1609 162.021C45.1609 161.99 45.148 161.968 45.144 161.94C47.9334 159.013 49.2851 154.988 47.4582 151.076C48.5092 148.729 48.6608 146.086 47.4118 143.497C48.9649 140.01 48.7133 135.982 45.0372 133.47C45.0233 133.461 45.0104 133.461 44.9965 133.453C45.2601 128.064 44.9431 122.556 44.952 117.192C44.9828 98.6296 44.938 80.0671 44.8321 61.5049C44.7945 55.0201 44.7487 48.5348 44.6717 42.0503C44.6438 39.8182 44.613 37.5862 44.5687 35.3547C44.5449 34.2017 44.7369 32.7447 44.4346 31.6121C44.4368 31.5731 44.4419 31.5339 44.4427 31.4946C44.4478 31.3285 44.3813 31.209 44.2812 31.1297C43.7395 29.6384 42.6407 28.1749 41.8592 26.8437C40.0844 23.8231 38.2575 20.8308 36.4335 17.8375C34.4071 14.51 32.3308 11.201 30.3046 7.86564C30.2228 7.69332 30.1394 7.52049 30.0334 7.33908C29.9927 7.26994 29.9444 7.21771 29.8897 7.17924C28.6751 5.16761 27.4768 3.14817 26.3362 1.09936C26.2335 0.913266 26.0661 0.852199 25.9015 0.863632C25.7371 0.852199 25.5705 0.913279 25.4667 1.09936C24.3274 3.14479 23.1268 5.16032 21.9057 7.16521C21.8381 7.20394 21.7748 7.25643 21.7263 7.33908C21.5892 7.57039 21.4766 7.79416 21.3835 8.01093C18.7217 12.3422 15.946 16.6144 13.2542 20.9132C11.5048 23.7074 9.73472 26.4923 8.05372 29.3257C7.60987 30.0735 7.44949 30.6889 7.37896 31.3904C7.37199 31.425 7.35936 31.4546 7.36018 31.4946C7.36151 31.5125 7.36421 31.5297 7.36528 31.5474C7.33847 31.8798 7.32587 32.2327 7.31379 32.6325C6.88095 47.0721 6.96596 61.5366 6.90855 75.9804C6.84043 93.3315 6.79968 110.683 6.8828 128.033C6.89192 129.892 6.8045 131.731 6.89192 133.493C3.22818 136.016 2.98466 140.014 4.56805 143.446C3.25204 146.129 3.42344 148.739 4.51738 151.033C2.65294 154.96 3.9507 158.727 6.661 161.554C6.65618 161.583 6.64303 161.606 6.64303 161.638C6.61354 167.769 4.84806 175.84 10.4073 180.237C14.4776 183.456 20.3164 184.337 25.4061 184.437C30.7098 184.542 36.5941 183.589 40.9865 180.536ZM43.9028 81.2489C43.9554 97.9738 43.9999 114.701 43.8862 131.426C43.8671 134.086 44.1673 136.8 42.5954 139.13C40.6706 141.984 36.8634 143.341 33.6154 144.125C33.5076 144.151 33.3936 144.172 33.2844 144.197C33.2627 118.866 32.8784 93.5316 32.6703 68.2013C32.5842 57.6672 32.4418 47.1313 32.4206 36.5972C34.0037 38.4818 36.3268 39.4031 38.9845 38.8631C41.1531 38.4228 42.6716 36.9616 43.5483 35.1556C43.8822 50.515 43.8545 65.8869 43.9028 81.2489ZM19.532 144.479C19.551 119.054 19.9383 93.6252 20.1472 68.2013C20.2325 57.8351 20.369 47.4669 20.3937 37.1004C22.9822 40.6083 28.8438 40.7097 31.4055 37.194C31.4431 61.8977 31.8086 86.6055 32.0116 111.308C32.1028 122.344 32.261 133.382 32.2701 144.417C28.3219 145.189 23.757 145.312 19.532 144.479ZM22.3501 10.256C22.3691 10.3035 22.389 10.3511 22.4118 10.3979C22.3769 10.341 22.3431 10.2838 22.3144 10.2237C22.3254 10.2344 22.3383 10.245 22.3501 10.256ZM9.77445 28.4213C13.4803 22.3375 17.4328 16.372 21.1883 10.3041C22.2699 13.5967 29.7245 13.8156 30.6814 10.4535C32.9586 14.1745 35.2827 17.8719 37.54 21.5955C39.3361 24.5576 41.1579 27.5142 42.8209 30.5494C43.1074 31.0715 43.2747 31.5728 43.3748 32.0768C43.1224 34.6472 41.7729 36.8704 39.1411 37.7975C36.3029 38.7968 33.6698 37.1584 32.3683 34.7642C32.3651 34.7577 32.3602 34.7517 32.3575 34.7449C32.3524 34.7353 32.3465 34.727 32.3412 34.7177C32.3219 34.6797 32.2929 34.6581 32.2682 34.6293C32.261 34.6233 32.2572 34.614 32.2505 34.608C32.1307 34.4863 31.9759 34.4523 31.8276 34.4887C31.7273 34.4973 31.6351 34.5391 31.5597 34.6069C31.557 34.6082 31.5549 34.6095 31.553 34.6116C31.5232 34.6389 31.4993 34.6727 31.4779 34.7096C31.4589 34.7385 31.443 34.7681 31.4312 34.8027C31.4261 34.8154 31.4173 34.8221 31.4143 34.8354C29.9927 40.2219 21.9025 40.0849 20.3888 34.8354C20.3858 34.8234 20.377 34.8172 20.373 34.8055C20.3591 34.7637 20.3381 34.7288 20.3145 34.6951C20.2976 34.6701 20.281 34.6457 20.2612 34.6254C20.2462 34.6121 20.2292 34.6015 20.2134 34.59C20.1737 34.5609 20.1332 34.5363 20.0876 34.5209C20.0847 34.5199 20.0817 34.5199 20.0788 34.5191C20.0581 34.5123 20.0372 34.5074 20.0152 34.5038C19.8548 34.4513 19.6835 34.4752 19.5526 34.608C19.5456 34.614 19.5418 34.6236 19.5349 34.6301C19.515 34.6524 19.4941 34.6711 19.4775 34.6989C19.4724 34.7057 19.4654 34.7112 19.4617 34.7182C19.4544 34.7304 19.4467 34.7398 19.4407 34.7517C19.4386 34.7548 19.4367 34.7569 19.4346 34.7598C18.1451 37.1392 15.8843 38.4831 13.0882 37.915C9.9954 37.2873 8.46779 34.3044 8.37474 31.4946C8.37474 31.4918 8.37259 31.4897 8.37259 31.4863C8.37877 31.3291 8.38037 31.1711 8.3876 31.0136C8.42809 30.152 9.33377 29.1436 9.7744 28.4213L9.77445 28.4213ZM7.88239 124.507C7.8526 116.195 7.85449 107.883 7.86361 99.5717C7.88346 81.5904 7.93388 63.6088 8.12027 45.6281C8.15594 42.141 8.19858 38.6526 8.27074 35.1655C9.08711 36.7774 10.4471 38.0605 12.3925 38.7453C15.0752 39.6901 17.7072 38.5746 19.3864 36.6045C19.3537 61.5049 18.9811 86.4092 18.7771 111.308C18.6869 122.291 18.5295 133.277 18.5196 144.26C15.7447 143.599 13.1545 142.507 11.0385 140.87C8.43597 138.857 7.9586 136.33 7.93123 133.288C7.90522 130.361 7.89231 127.434 7.88239 124.507ZM6.97777 134.654C7.27304 137.475 8.20822 140.044 11.0105 142.083C16.6015 146.148 25.0347 146.487 31.6578 145.503C37.2152 144.677 44.3346 141.952 44.8527 135.68C44.8825 135.326 44.8983 134.968 44.9222 134.611C50.5024 138.892 45.7544 146.092 41.0243 148.836C36.496 151.463 30.8715 152.159 25.6896 152.074C20.6396 151.993 15.4298 150.942 10.977 148.579C6.13512 146.009 1.50083 138.923 6.97777 134.654ZM5.16883 144.59C5.93505 145.857 6.94425 147.005 8.11409 147.912C12.9367 151.652 19.6725 152.879 25.6896 153.058C31.8005 153.24 38.4969 152.077 43.4619 148.427C44.8074 147.438 45.9625 146.12 46.8153 144.658C48.8696 150.008 44.4606 154.739 39.7553 157.029C35.4648 159.118 30.4298 159.69 25.6896 159.613C20.9386 159.536 16.0806 158.589 11.8052 156.545C7.18321 154.335 3.12926 149.769 5.16883 144.59ZM5.1345 152.141C6.22603 153.862 7.82498 155.362 9.67519 156.512C14.3449 159.415 20.2325 160.434 25.6895 160.596C31.2499 160.762 37.1211 159.784 41.9402 156.989C43.9634 155.815 45.7048 154.149 46.855 152.222C48.8225 157.534 44.433 162.223 39.7552 164.5C35.4647 166.588 30.4298 167.16 25.6895 167.083C20.9386 167.006 16.0806 166.059 11.8051 164.015C7.20785 161.817 3.16894 157.287 5.13447 152.141L5.1345 152.141ZM11.6507 179.916C5.99726 176.223 7.4664 168.325 7.63858 162.477C8.27178 163.025 8.95218 163.533 9.67522 163.982C14.3449 166.885 20.2325 167.904 25.6896 168.066C31.2499 168.232 37.1211 167.255 41.9402 164.459C42.7319 164 43.4759 163.46 44.1646 162.864C44.3258 168.747 45.6664 176.078 40.1543 179.909C36.1492 182.694 30.702 183.424 25.9036 183.457C21.029 183.492 15.7556 182.597 11.6507 179.916L11.6507 179.916Z" fill="black"/>
</g>
<defs>
<clipPath id="clip0_552_1024">
<rect width="50.1786" height="183.615" fill="white" transform="translate(0.359375 0.762695)"/>
</clipPath>
</defs>
</svg>
