<svg width="44" height="43" viewBox="0 0 44 43" fill="none" xmlns="http://www.w3.org/2000/svg">
<g clip-path="url(#clip0_552_1047)">
<path d="M43.4878 21.7155C43.4878 22.4522 42.8715 23.0495 42.1114 23.0495H25.1302L37.1376 34.6859C37.6752 35.2067 37.6752 36.0513 37.1376 36.5722C36.869 36.8327 36.5166 36.963 36.1644 36.963C35.812 36.963 35.4597 36.8327 35.1912 36.5722L23.1839 24.9359V41.392C23.1839 42.1287 22.5676 42.726 21.8075 42.726C21.0473 42.726 20.431 42.1287 20.431 41.392V24.9357L8.42364 36.5722C8.1548 36.8327 7.80263 36.963 7.45031 36.963C7.09798 36.963 6.74582 36.8327 6.47697 36.5722C5.93942 36.0513 5.93942 35.2067 6.47697 34.6859L18.4844 23.0495H1.50342C0.743243 23.0495 0.126953 22.4522 0.126953 21.7155C0.126953 20.9788 0.743243 20.3816 1.50342 20.3816H18.4844L6.47697 8.74517C5.93942 8.22435 5.93942 7.37973 6.47697 6.85891C7.0144 6.33783 7.88595 6.33783 8.42364 6.85891L20.431 18.4954V2.03901C20.431 1.30232 21.0473 0.705078 21.8075 0.705078C22.5676 0.705078 23.1839 1.30232 23.1839 2.03901V18.4952L35.1912 6.85891C35.7283 6.33783 36.6004 6.33783 37.1376 6.85891C37.6752 7.37973 37.6752 8.22435 37.1376 8.74516L25.1303 20.3816H42.1114C42.8715 20.3816 43.4878 20.9788 43.4878 21.7155Z" fill="#F5EDE1"/>
<path d="M41.7943 13.5743C42.0889 14.2535 41.7596 15.0355 41.0588 15.321L25.4046 21.6984L41.1269 27.9161C41.8309 28.1942 42.1686 28.9729 41.8812 29.6549C41.7378 29.996 41.4651 30.2484 41.1404 30.3807C40.8156 30.513 40.4387 30.5252 40.0869 30.3859L24.3648 24.1684L30.9454 39.3385C31.24 40.0177 30.9107 40.7997 30.2099 41.0852C29.5092 41.3707 28.7022 41.0515 28.4076 40.3724L21.8269 25.202L15.4111 40.4386C15.2675 40.7798 14.9949 41.0321 14.6701 41.1645C14.3453 41.2968 13.9686 41.3089 13.6166 41.1697C12.9128 40.8915 12.575 40.1129 12.8623 39.4309L19.2781 24.1943L3.6241 30.5716C2.92333 30.8571 2.11637 30.538 1.82177 29.8588C1.52718 29.1797 1.85648 28.3977 2.55725 28.1122L18.2113 21.7349L2.48887 15.5172C1.78505 15.239 1.4473 14.4604 1.73458 13.7784C2.02164 13.0962 2.82508 12.7689 3.52912 13.0473L19.2515 19.265L12.6708 4.09459C12.3762 3.41547 12.7055 2.63344 13.4062 2.34795C14.107 2.06247 14.914 2.38159 15.2086 3.06071L21.7892 18.2309L28.2049 2.99455C28.4917 2.31246 29.2957 1.98495 29.9992 2.26357C30.7032 2.54176 31.0409 3.32038 30.7535 4.00243L24.3378 19.239L39.9919 12.8616C40.6927 12.5761 41.4997 12.8952 41.7943 13.5743Z" fill="#F5EDE1"/>
</g>
<defs>
<clipPath id="clip0_552_1047">
<rect width="43.4319" height="42.2261" fill="white" transform="translate(0.197266 0.710938)"/>
</clipPath>
</defs>
</svg>
