<svg xmlns="http://www.w3.org/2000/svg" xmlns:xlink="http://www.w3.org/1999/xlink" fill="none" version="1.1" width="25" height="20" viewBox="0 0 25 20"><defs><clipPath id="master_svg0_363_12012"><rect x="0" y="0" width="25" height="20" rx="0"/></clipPath></defs><g clip-path="url(#master_svg0_363_12012)"><g transform="matrix(1,0,0,-1,0,40.859375)"><g><path d="M8.152654947845935,26.6796875Q11.568824947845936,26.7578075,13.859224947845936,28.7109375Q16.149524947845936,30.6249875,16.227224947845936,33.5546875Q16.149524947845936,36.4843875,13.859224947845936,38.3984875Q11.568824947845936,40.3515875,8.152654947845935,40.4296875Q4.736514947845936,40.3515875,2.4461349478459358,38.3984875Q0.1557647478459358,36.4843875,0.07812494784593582,33.5546875Q0.11694484784593581,31.2499875,1.6309249478459358,29.5312475Q1.3980049478459358,28.9453175,1.0486219478459358,28.5546875Q0.7768829478459358,28.2031275,0.5439639478459358,28.0078075Q0.4275039478459358,27.8906275,0.3886839478459358,27.8515675Q0.34986394784593583,27.8124975,0.34986394784593583,27.8124975L0.3110439478459358,27.8124975Q0.0004851478459358266,27.5390675,0.11694484784593581,27.1093775Q0.27222394784593584,26.7187475,0.6992429478459358,26.6796875Q2.019114947845936,26.7187475,3.106074947845936,27.1484375Q3.6495549478459357,27.3828075,4.076574947845936,27.6171875Q5.901104947845936,26.7187475,8.152654947845935,26.6796875ZM17.469424947845937,33.5546875Q17.352924947845935,30.1953075,14.984924947845936,28.0078075Q12.578124947845936,25.8203075,9.084334947845935,25.4687475Q9.821914947845936,23.2421875,11.918224947845935,21.8749975Q14.014424947845935,20.46875,16.848324947845935,20.4296875Q19.099824947845935,20.46875,20.924424947845935,21.3671875Q21.351424947845935,21.1328125,21.894924947845936,20.8984375Q22.981824947845936,20.46875,24.301724947845937,20.4296875Q24.728724947845937,20.46875,24.884024947845937,20.8593755Q25.000524947845935,21.2890625,24.651124947845936,21.5624975L24.651124947845936,21.6015675Q24.612324947845934,21.6015675,24.612324947845934,21.6015675Q24.573424947845936,21.6406275,24.457024947845937,21.7578075Q24.224124947845937,21.9531275,23.952324947845934,22.3046875Q23.602924947845935,22.7343775,23.370024947845934,23.2812475Q24.884024947845937,24.9999975,24.922824947845935,27.3046875Q24.845224947845935,30.0781275,22.748924947845936,31.9921875Q20.652624947845936,33.9062875,17.430624947845935,34.1796875Q17.469424947845937,33.8671875,17.469424947845937,33.5546875Z" fill="#FFFFFF" fill-opacity="1" style="mix-blend-mode:passthrough"/></g></g></g></svg>