<svg xmlns="http://www.w3.org/2000/svg" xmlns:xlink="http://www.w3.org/1999/xlink" fill="none" version="1.1" width="16" height="16" viewBox="0 0 16 16"><defs><clipPath id="master_svg0_2_04587"><rect x="0" y="0" width="16" height="16" rx="0"/></clipPath></defs><g clip-path="url(#master_svg0_2_04587)"><g transform="matrix(1,0,0,-1,0,32.69643783569336)"><g><path d="M11.393385649359226,31.758918917846678L9.868055649359226,30.22771891784668L11.393385649359226,31.758918917846678L9.868055649359226,30.22771891784668L13.914785649359226,26.16517891784668L15.439985649359226,27.696418917846678Q16.000385649359224,28.29021891784668,16.000385649359224,29.10271891784668Q16.000385649359224,29.883918917846678,15.439985649359226,30.508918917846678L14.194885649359227,31.758918917846678Q13.603485649359227,32.32141891784668,12.794085649359227,32.32141891784668Q12.015885649359227,32.32141891784668,11.393385649359226,31.758918917846678ZM9.183225649359226,29.54021891784668L1.9303056493592263,22.22767891784668L9.183225649359226,29.54021891784668L1.9303056493592263,22.22767891784668Q1.4322556493592262,21.75892891784668,1.2143556493592262,21.07142891784668L0.12486094935922623,17.32143291784668Q0.0003473493592262289,16.88393291784668,0.3116316493592262,16.57143291784668Q0.6229156493592263,16.25893331784668,1.0587126493592263,16.38393331784668L4.794125649359226,17.47767891784668Q5.447815649359226,17.69642891784668,5.945875649359226,18.16517891784668L13.229885649359225,25.47767891784668L9.183225649359226,29.54021891784668Z" fill="#A77E6C" fill-opacity="1" style="mix-blend-mode:passthrough"/></g></g></g></svg>