<svg xmlns="http://www.w3.org/2000/svg" xmlns:xlink="http://www.w3.org/1999/xlink" fill="none" version="1.1" width="21.267004013061523" height="16.684589385986328" viewBox="0 0 21.267004013061523 16.684589385986328"><g transform="matrix(1,0,0,-1,0,33.369178771972656)"><path d="M10.615,33.36918938598633Q8.36281,33.33188938598633,6.59056,32.47538938598633Q4.81831,31.61878938598633,3.48912,30.352589385986327Q2.19685,29.123589385986328,1.34765,27.82008938598633Q0.498445,26.516579385986326,0.0923047,25.47378938598633Q-0.0923047,25.026879385986327,0.0923047,24.579979385986327Q0.498445,23.537189385986327,1.34765,22.23370938598633Q2.19685,20.930219385986327,3.48912,19.701219385986327Q4.81831,18.434979385986328,6.59056,17.578406385986327Q8.36281,16.72183178598633,10.615,16.684589385986328Q12.8673,16.72183178598633,14.6395,17.578406385986327Q16.4118,18.434979385986328,17.741,19.701219385986327Q19.0332,20.930219385986327,19.8824,22.23370938598633Q20.7316,23.537189385986327,21.1747,24.579979385986327Q21.3593,25.026879385986327,21.1747,25.47378938598633Q20.7316,26.516579385986326,19.8824,27.82008938598633Q19.0332,29.123589385986328,17.741,30.352589385986327Q16.4118,31.61878938598633,14.6395,32.47538938598633Q12.8673,33.33188938598633,10.615,33.36918938598633ZM5.29829,25.026879385986327Q5.29829,26.47933938598633,5.99981,27.708289385986326Q6.70132,28.93728938598633,7.95667,29.682189385986327Q9.21201,30.389789385986326,10.615,30.389789385986326Q12.0181,30.389789385986326,13.2734,29.682189385986327Q14.5288,28.93728938598633,15.2303,27.708289385986326Q15.9318,26.47933938598633,15.9318,25.026879385986327Q15.9318,23.574429385986328,15.2303,22.34542938598633Q14.5288,21.11642938598633,13.2734,20.37158938598633Q12.0181,19.663979385986327,10.615,19.663979385986327Q9.21201,19.663979385986327,7.95667,20.37158938598633Q6.70132,21.11642938598633,5.99981,22.34542938598633Q5.29829,23.574429385986328,5.29829,25.026879385986327ZM10.615,27.410389385986328Q10.5781,26.404849385986328,9.91353,25.73448938598633Q9.24893,25.064129385986327,8.25204,25.026879385986327Q7.8459,25.026879385986327,7.5136,25.138609385986328Q7.14438,25.21309938598633,7.07054,24.877919385986328Q7.07054,24.50548938598633,7.18131,24.095819385986328Q7.62437,22.64336938598633,8.84279,21.935769385986326Q10.0612,21.228159385986327,11.5381,21.56333938598633Q12.978,22.010249385986327,13.6796,23.239249385986327Q14.3811,24.46824938598633,14.0488,25.95793938598633Q13.7165,27.11248938598633,12.8304,27.82008938598633Q11.9073,28.527689385986328,10.7627,28.60218938598633Q10.4304,28.527689385986328,10.5043,28.15528938598633Q10.615,27.82008938598633,10.615,27.410389385986328Z" fill="#6B7280" fill-opacity="1" style="mix-blend-mode:passthrough"/></g></svg>