<svg xmlns="http://www.w3.org/2000/svg" xmlns:xlink="http://www.w3.org/1999/xlink" fill="none" version="1.1" width="20" height="20" viewBox="0 0 20 20"><defs><clipPath id="master_svg0_363_12486"><rect x="0" y="0" width="20" height="20" rx="0"/></clipPath></defs><g clip-path="url(#master_svg0_363_12486)"><g transform="matrix(1,0,0,-1,0,40.78125)"><g><path d="M20,30.312505Q19.9609,33.125025,18.6328,35.351525Q17.3047,37.617225000000005,15.0391,38.945325Q12.8125,40.273425,10,40.312525Q7.1875,40.273425,4.96094,38.945325Q2.69531,37.617225000000005,1.36719,35.351525Q0.0390625,33.125025,0,30.312505Q0.078125,26.718745,2.14844,24.101565Q4.25781,21.484375,7.57812,20.585937L7.57812,27.265625L5.50781,27.265625L5.50781,30.312505L7.57812,30.312505L7.57812,31.640625Q7.53906,36.679725000000005,12.4609,36.601524999999995Q12.9688,36.601524999999995,13.6328,36.523425Q14.2578,36.445325,14.6484,36.367225L14.6484,33.593725Q14.2578,33.632825,13.4766,33.632825Q12.2656,33.632825,11.7188,33.125025Q11.2109,32.578125,11.2109,31.406225L11.2109,30.312505L14.4922,30.312505L13.9062,27.265625L11.2109,27.265625L11.2109,20.390625Q15,20.9375,17.4609,23.671875Q19.9219,26.406245,20,30.312505Z" fill="#FFFFFF" fill-opacity="0.800000011920929" style="mix-blend-mode:passthrough"/></g></g></g></svg>