<svg xmlns="http://www.w3.org/2000/svg" xmlns:xlink="http://www.w3.org/1999/xlink" fill="none" version="1.1" width="19.580604553222656" height="16.008930206298828" viewBox="0 0 19.580604553222656 16.008930206298828"><g transform="matrix(1,0,0,-1,0,32.017860412597656)"><path d="M1.19703,31.857130206298827Q0.61599,32.23213020629883,0.157274,31.732130206298827Q-0.209699,31.13843020629883,0.279598,30.669630206298827L18.3836,16.169644206298827Q18.9646,15.794644206298829,19.4233,16.294644206298827Q19.7903,16.888394206298827,19.301,17.35714020629883L16.09,19.91964020629883Q16.9768,20.88839020629883,17.5885,21.88839020629883Q18.2001,22.85714020629883,18.5365,23.63839020629883Q18.6588,24.013400206298826,18.5365,24.388400206298826Q18.1695,25.26339020629883,17.4661,26.357130206298827Q16.7628,27.45093020629883,15.6924,28.482130206298827Q14.5915,29.544630206298827,13.1236,30.26343020629883Q11.6557,30.982130206298827,9.7903,31.01343020629883Q8.23067,30.982130206298827,6.91568,30.482130206298827Q5.63128,29.95093020629883,4.62211,29.107130206298827L1.19703,31.857130206298827ZM6.82394,27.32593020629883Q8.04718,28.482130206298827,9.7903,28.51343020629883Q11.6557,28.45093020629883,12.9096,27.20093020629883Q14.1328,25.919650206298826,14.194,24.013400206298826Q14.194,22.82589020629883,13.6741,21.85714020629883L12.4814,22.79464020629883Q12.879,23.73214020629883,12.6343,24.79464020629883Q12.3591,25.763400206298826,11.6252,26.357130206298827Q10.8606,26.95093020629883,9.91263,27.01343020629883Q9.6374,26.95093020629883,9.69856,26.63843020629883Q9.7903,26.357130206298827,9.7903,26.01343020629883Q9.7903,25.51339020629883,9.57623,25.13839020629883L6.82394,27.32593020629883ZM11.4111,19.82589020629883Q10.6466,19.51339020629883,9.7903,19.51339020629883Q7.92486,19.57589020629883,6.67104,20.82589020629883Q5.44779,22.10714020629883,5.38663,24.013400206298826Q5.38663,24.325900206298826,5.41721,24.63839020629883L2.5426,26.95093020629883Q1.50284,25.51339020629883,1.07471,24.388400206298826Q0.9218,24.013400206298826,1.07471,23.63839020629883Q1.4111,22.76339020629883,2.11446,21.66964020629883Q2.81782,20.57589020629883,3.91874,19.54464020629883Q4.98908,18.48214020629883,6.45697,17.76339020629883Q7.92486,17.04464020629883,9.7903,17.01339020629883Q11.9921,17.07589020629883,13.6435,18.01339020629883L11.4111,19.82589020629883Z" fill="#4B5563" fill-opacity="1" style="mix-blend-mode:passthrough"/></g></svg>