<svg xmlns="http://www.w3.org/2000/svg" xmlns:xlink="http://www.w3.org/1999/xlink" fill="none" version="1.1" width="17.5" height="20" viewBox="0 0 17.5 20"><defs><clipPath id="master_svg0_363_12494"><rect x="0" y="0" width="17.5" height="20" rx="0"/></clipPath></defs><g clip-path="url(#master_svg0_363_12494)"><g transform="matrix(1,0,0,-1,0,38.4375)"><g><path d="M8.75,32.46095Q6.83594,32.42185,5.58594,31.132849999999998Q4.29688,29.882849999999998,4.25781,27.96875Q4.29688,26.05469,5.58594,24.80469Q6.83594,23.51563,8.75,23.47656Q10.6641,23.51563,11.9141,24.80469Q13.2031,26.05469,13.2422,27.96875Q13.2031,29.882849999999998,11.9141,31.132849999999998Q10.6641,32.42185,8.75,32.46095ZM8.75,25.03906Q7.5,25.07813,6.67969,25.89844Q5.85938,26.71875,5.82031,27.96875Q5.85938,29.21875,6.67969,30.03905Q7.5,30.85935,8.75,30.89845Q10,30.85935,10.8203,30.03905Q11.6406,29.21875,11.6797,27.96875Q11.6406,26.71875,10.8203,25.89844Q10,25.07813,8.75,25.03906ZM14.4922,32.65625Q14.375,31.679650000000002,13.4375,31.60155Q12.4609,31.679650000000002,12.3828,32.65625Q12.3828,33.08595,12.6953,33.39845Q12.9688,33.67185,13.4375,33.67185Q13.8672,33.67185,14.1797,33.39845Q14.4531,33.08595,14.4922,32.65625ZM17.4609,31.56255Q17.4609,33.71095,16.0156,35.23435Q14.4922,36.679649999999995,12.3828,36.679649999999995Q11.6016,36.71875,10.1562,36.71875Q8.75,36.71875,7.34375,36.71875Q5.89844,36.71875,5.15625,36.679649999999995Q3.04688,36.679649999999995,1.48438,35.23435Q0.0390625,33.71095,0.078125,31.60155Q0,30.820349999999998,0,29.37495Q0,27.96875,0,26.5625Q0,25.15625,0.078125,24.375Q0.0390625,22.22656,1.48438,20.70313Q3.00781,19.2578125,5.15625,19.296875Q5.89844,19.2578125,7.34375,19.21875Q8.75,19.21875,10.1562,19.21875Q11.6016,19.2578125,12.3828,19.296875Q14.4922,19.2578125,16.0156,20.70313Q17.4609,22.22656,17.4609,24.375Q17.5,25.15625,17.5,26.5625Q17.5,27.96875,17.5,29.37495Q17.5,30.820349999999998,17.4609,31.60155L17.4609,31.56255ZM15.5859,22.8125Q15.0781,21.64063,13.9062,21.13281Q13.125,20.85937,11.7969,20.82031Q10.4688,20.78125,9.375,20.78125Q9.02344,20.78125,8.75,20.78125Q8.47656,20.78125,8.125,20.78125Q7.03125,20.78125,5.70312,20.82031Q4.41406,20.85937,3.59375,21.13281Q2.42188,21.64063,1.91406,22.8125Q1.64062,23.63281,1.60156,24.92187Q1.5625,26.25,1.5625,27.34375Q1.5625,27.69531,1.5625,27.96875Q1.5625,28.24219,1.5625,28.59375Q1.5625,29.68755,1.60156,31.01565Q1.64062,32.34375,1.91406,33.12495Q2.42188,34.29685,3.59375,34.80465Q4.41406,35.07815,5.70312,35.11715Q7.03125,35.19535,8.125,35.15625Q8.47656,35.15625,8.75,35.15625Q9.02344,35.15625,9.375,35.15625Q10.4688,35.15625,11.7969,35.11715Q13.125,35.07815,13.9062,34.80465Q15.0781,34.29685,15.5859,33.12495Q15.8594,32.34375,15.8984,31.01565Q15.9766,29.68755,15.9375,28.59375Q15.9375,28.24219,15.9375,27.96875Q15.9375,27.69531,15.9375,27.34375Q15.9766,26.25,15.8984,24.92187Q15.8594,23.59375,15.5859,22.8125Z" fill="#FFFFFF" fill-opacity="0.800000011920929" style="mix-blend-mode:passthrough"/></g></g></g></svg>