<svg xmlns="http://www.w3.org/2000/svg" xmlns:xlink="http://www.w3.org/1999/xlink" fill="none" version="1.1" width="14.000001318551966" height="12.000001538310627" viewBox="0 0 14.000001318551966 12.000001538310627"><g transform="matrix(-1,1.0987933052319931e-7,1.0987933052319931e-7,1,28,-0.0000015383106273247904)"><path d="M27.7188,5.28125Q28,5.59375,28,6Q28,6.40625,27.7188,6.71875L22.71875,11.7188Q22.40625,12,22,12Q21.59375,12,21.28125,11.7188Q21,11.4062,21,11Q21,10.5938,21.28125,10.2812L24.5938,7L15,7Q14.5625,7,14.28125,6.71875Q14,6.4375,14,6Q14,5.5625,14.28125,5.28125Q14.5625,5,15,5L24.5938,5L21.28125,1.71875Q21,1.40625,21,1Q21,0.59375,21.28125,0.28125Q21.59375,0,22,0Q22.40625,0,22.71875,0.28125L27.7188,5.28125Z" fill="#A77E6C" fill-opacity="1" style="mix-blend-mode:passthrough"/></g></svg>