<svg xmlns="http://www.w3.org/2000/svg" xmlns:xlink="http://www.w3.org/1999/xlink" fill="none" version="1.1" width="13" height="14.85714340209961" viewBox="0 0 13 14.85714340209961"><g transform="matrix(1,0,0,-1,0,29.71428680419922)"><path d="M4.17857,25.53574340209961L4.17857,24.142863402099607L4.17857,25.53574340209961L4.17857,24.142863402099607L8.82143,24.142863402099607L8.82143,25.53574340209961Q8.79241,26.522343402099608,8.15402,27.18974340209961Q7.48661,27.82814340209961,6.5,27.85714340209961Q5.51339,27.82814340209961,4.84598,27.18974340209961Q4.20759,26.522343402099608,4.17857,25.53574340209961ZM2.32143,24.142863402099607L2.32143,25.53574340209961L2.32143,24.142863402099607L2.32143,25.53574340209961Q2.37946,27.30584340209961,3.54018,28.49554340209961Q4.72991,29.65624340209961,6.5,29.714243402099612Q8.27009,29.65624340209961,9.45982,28.49554340209961Q10.6205,27.30584340209961,10.6786,25.53574340209961L10.6786,24.142863402099607L11.1429,24.142863402099607Q11.9263,24.11384340209961,12.4487,23.59152340209961Q12.971,23.069193402099607,13,22.28571340209961L13,16.71428340209961Q12.971,15.93080340209961,12.4487,15.40848240209961Q11.9263,14.886161302099609,11.1429,14.85714340209961L1.85714,14.85714340209961Q1.07366,14.886161302099609,0.551339,15.40848240209961Q0.0290179,15.93080340209961,0,16.71428340209961L0,22.28571340209961Q0.0290179,23.069193402099607,0.551339,23.59152340209961Q1.07366,24.11384340209961,1.85714,24.142863402099607L2.32143,24.142863402099607Z" fill="#6B7280" fill-opacity="1" style="mix-blend-mode:passthrough"/></g></svg>