<svg xmlns="http://www.w3.org/2000/svg" xmlns:xlink="http://www.w3.org/1999/xlink" fill="none" version="1.1" width="48" height="48" viewBox="0 0 48 48"><defs><clipPath id="master_svg0_363_14651"><rect x="0" y="0" width="48" height="48" rx="0"/></clipPath></defs><g clip-path="url(#master_svg0_363_14651)"><g transform="matrix(1,0,0,-1,0,92.0625)"><g><path d="M4.5,62.90625L21.375,47.0625L4.5,62.90625L21.375,47.0625Q22.5,46.03125,24,46.03125Q25.5,46.03125,26.625,47.0625L43.5,62.90625Q47.9062,67.03125,48,73.12505L48,73.68745Q47.9062,78.75005,44.8125,82.31245Q41.7188,85.96875,36.8438,86.90625Q33.5625,87.37505,30.4688,86.43745Q27.4688,85.50005,25.125,83.15625L24,82.03125L22.875,83.15625Q20.5312,85.50005,17.5312,86.43745Q14.4375,87.37505,11.1562,86.90625Q6.28125,85.96875,3.1875,82.31245Q0.09375,78.75005,0,73.68745L0,73.12505Q0.09375,67.03125,4.5,62.90625Z" fill="#A77E6C" fill-opacity="1" style="mix-blend-mode:passthrough"/></g></g></g></svg>