<svg xmlns="http://www.w3.org/2000/svg" xmlns:xlink="http://www.w3.org/1999/xlink" fill="none" version="1.1" width="21" height="24" viewBox="0 0 21 24"><defs><clipPath id="master_svg0_363_12092"><rect x="0" y="0" width="21" height="24" rx="0"/></clipPath></defs><g clip-path="url(#master_svg0_363_12092)"><g transform="matrix(1,0,0,-1,0,49.03125)"><g><path d="M6.75,41.765625L6.75,39.515625L6.75,41.765625L6.75,39.515625L14.25,39.515625L14.25,41.765625Q14.2031,43.359425,13.1719,44.437525Q12.0938,45.468725,10.5,45.515625Q8.90625,45.468725,7.82812,44.437525Q6.79688,43.359425,6.75,41.765625ZM3.75,39.515625L3.75,41.765625L3.75,39.515625L3.75,41.765625Q3.84375,44.625025,5.71875,46.546825Q7.64062,48.421825,10.5,48.515625Q13.3594,48.421825,15.2812,46.546825Q17.1562,44.625025,17.25,41.765625L17.25,39.515625L18,39.515625Q19.2656,39.468725,20.1094,38.625025Q20.9531,37.781225,21,36.515625L21,27.515625Q20.9531,26.250005,20.1094,25.40625Q19.2656,24.5625,18,24.515625L3,24.515625Q1.73438,24.5625,0.890625,25.40625Q0.046875,26.250005,0,27.515625L0,36.515625Q0.046875,37.781225,0.890625,38.625025Q1.73438,39.468725,3,39.515625L3.75,39.515625Z" fill="#FFFFFF" fill-opacity="1" style="mix-blend-mode:passthrough"/></g></g></g></svg>