<svg xmlns="http://www.w3.org/2000/svg" xmlns:xlink="http://www.w3.org/1999/xlink" fill="none" version="1.1" width="13.427435874938965" height="13.427436828613281" viewBox="0 0 13.427435874938965 13.427436828613281"><g transform="matrix(1,0,0,-1,0,26.854873657226562)"><path d="M6.71372,13.427436828613281Q8.5495,13.453662328613282,10.0706,14.319102828613282Q11.5917,15.21076682861328,12.5358,16.784296828613282Q13.4274,18.384046828613283,13.4274,20.141156828613283Q13.4274,21.89825682861328,12.5358,23.49803682861328Q11.5917,25.071536828613283,10.0706,25.963236828613283Q8.5495,26.82863682861328,6.71372,26.85483682861328Q4.87794,26.82863682861328,3.35686,25.963236828613283Q1.83578,25.071536828613283,0.891666,23.49803682861328Q0,21.89825682861328,0,20.141156828613283Q0,18.384046828613283,0.891666,16.784296828613282Q1.83578,15.21076682861328,3.35686,14.319102828613282Q4.87794,13.453662328613282,6.71372,13.427436828613281ZM9.67719,21.37374682861328L6.32034,18.01689682861328L9.67719,21.37374682861328L6.32034,18.01689682861328Q5.8745,17.649736828613282,5.42867,18.01689682861328L3.75024,19.695326828613283Q3.38308,20.141156828613283,3.75024,20.58698682861328Q4.19607,20.954146828613283,4.64191,20.58698682861328L5.8745,19.354396828613282L8.78553,22.265416828613283Q9.23136,22.63257682861328,9.67719,22.265416828613283Q10.0444,21.819586828613282,9.67719,21.37374682861328Z" fill="#FFFFFF" fill-opacity="1" style="mix-blend-mode:passthrough"/></g></svg>