<svg xmlns="http://www.w3.org/2000/svg" xmlns:xlink="http://www.w3.org/1999/xlink" fill="none" version="1.1" width="33" height="16" viewBox="0 0 33 16"><g><path d="M3.008,2.88L3.008,9.968Q3.008,11.232,3.672,11.872Q4.336,12.512,5.52,12.512Q6.72,12.512,7.384,11.872Q8.048,11.232,8.048,9.968L8.048,2.88L9.872,2.88L9.872,9.936Q9.872,11.296,9.28,12.24Q8.688,13.184,7.696,13.648Q6.704,14.112,5.504,14.112Q4.304,14.112,3.32,13.648Q2.336,13.184,1.76,12.24Q1.184,11.296,1.184,9.936L1.184,2.88L3.008,2.88ZM15.904,14.112Q14.784,14.112,13.888,13.72Q12.992,13.328,12.48,12.608Q11.968,11.888,11.968,10.928L13.92,10.928Q13.984,11.648,14.488,12.112Q14.992,12.576,15.904,12.576Q16.848,12.576,17.376,12.12Q17.904,11.664,17.904,10.944Q17.904,10.384,17.576,10.032Q17.248,9.68,16.76,9.488Q16.272,9.296,15.408,9.072Q14.32,8.784,13.64,8.488Q12.96,8.192,12.48,7.568Q12,6.944,12,5.904Q12,4.944,12.48,4.224Q12.96,3.504,13.824,3.12Q14.688,2.736,15.824,2.736Q17.44,2.736,18.472,3.544Q19.504,4.352,19.616,5.76L17.6,5.76Q17.552,5.152,17.024,4.72Q16.496,4.288,15.632,4.288Q14.848,4.288,14.352,4.688Q13.856,5.088,13.856,5.84Q13.856,6.352,14.168,6.68Q14.48,7.008,14.96,7.2Q15.44,7.392,16.272,7.616Q17.376,7.92,18.072,8.224Q18.768,8.528,19.256,9.16Q19.744,9.792,19.744,10.848Q19.744,11.696,19.288,12.448Q18.832,13.2,17.96,13.656Q17.088,14.112,15.904,14.112ZM25.536,2.88Q27.312,2.88,28.648,3.56Q29.984,4.24,30.712,5.512Q31.44,6.784,31.44,8.48Q31.44,10.176,30.712,11.424Q29.984,12.672,28.648,13.336Q27.312,14,25.536,14L21.904,14L21.904,2.88L25.536,2.88ZM25.536,12.512Q27.488,12.512,28.528,11.456Q29.568,10.4,29.568,8.48Q29.568,6.544,28.528,5.456Q27.488,4.368,25.536,4.368L23.728,4.368L23.728,12.512L25.536,12.512Z" fill="#374151" fill-opacity="1" style="mix-blend-mode:passthrough"/></g></svg>