<svg xmlns="http://www.w3.org/2000/svg" xmlns:xlink="http://www.w3.org/1999/xlink" fill="none" version="1.1" width="25" height="20" viewBox="0 0 25 20"><defs><clipPath id="master_svg0_363_11976"><rect x="0" y="0" width="25" height="20" rx="0"/></clipPath></defs><g clip-path="url(#master_svg0_363_11976)"><g transform="matrix(1,0,0,-1,0,40.859375)"><g><path d="M3.75,35.4296875Q3.75,36.7968875,4.41406,37.9296875Q5.07812,39.0624875,6.25,39.765587499999995Q7.42188,40.4296875,8.75,40.4296875Q10.0781,40.4296875,11.25,39.765587499999995Q12.4219,39.0624875,13.0859,37.9296875Q13.75,36.7968875,13.75,35.4296875Q13.75,34.0624875,13.0859,32.9296875Q12.4219,31.7968875,11.25,31.093787499999998Q10.0781,30.4296875,8.75,30.4296875Q7.42188,30.4296875,6.25,31.093787499999998Q5.07812,31.7968875,4.41406,32.9296875Q3.75,34.0624875,3.75,35.4296875ZM0,21.6015675Q0.078125,24.5312475,2.03125,26.5234375Q4.02344,28.4765675,6.95312,28.5546875L10.5469,28.5546875Q13.4766,28.4765675,15.4688,26.5234375Q17.4219,24.5312475,17.5,21.6015675Q17.5,21.0937495,17.1484,20.7812495Q16.8359,20.4296875,16.3281,20.4296875L1.17188,20.4296875Q0.664062,20.4296875,0.351562,20.7812495Q0,21.0937495,0,21.6015675ZM19.6875,28.2421875L19.6875,30.7421875L19.6875,28.2421875L19.6875,30.7421875L17.1875,30.7421875Q16.3281,30.8202875,16.25,31.6796875Q16.3281,32.5390875,17.1875,32.6171875L19.6875,32.6171875L19.6875,35.1171875Q19.7656,35.9765875,20.625,36.0546875Q21.4844,35.9765875,21.5625,35.1171875L21.5625,32.6171875L24.0625,32.6171875Q24.9219,32.5390875,25,31.6796875Q24.9219,30.8202875,24.0625,30.7421875L21.5625,30.7421875L21.5625,28.2421875Q21.4844,27.3828075,20.625,27.3046875Q19.7656,27.3828075,19.6875,28.2421875Z" fill="#FFFFFF" fill-opacity="1" style="mix-blend-mode:passthrough"/></g></g></g></svg>