<svg xmlns="http://www.w3.org/2000/svg" xmlns:xlink="http://www.w3.org/1999/xlink" fill="none" version="1.1" width="18.828125" height="20" viewBox="0 0 18.828125 20"><defs><clipPath id="master_svg0_363_12074"><rect x="0" y="0" width="18.828125" height="20" rx="0"/></clipPath></defs><g clip-path="url(#master_svg0_363_12074)"><g transform="matrix(1,0,0,-1,0,40.625)"><g><path d="M9.414066616592407,40.1953Q9.687496616592407,40.1953,9.921876616592407,40.0781L17.30470661659241,36.9531Q17.968706616592407,36.6797,18.359406616592405,36.0937Q18.789106616592406,35.5078,18.789106616592406,34.7266Q18.828106616592407,32.7344,18.125006616592408,30.03906Q17.421906616592405,27.34375,15.585906616592407,24.80469Q13.789106616592408,22.22656,10.429706616592407,20.546875Q9.414066616592407,20.078125,8.398436616592408,20.546875Q5.039066616592407,22.22656,3.242186616592407,24.80469Q1.4062466165924072,27.34375,0.7031246165924072,30.03906Q1.6592407225957118e-8,32.7344,0.03906252659240723,34.7266Q0.03906252659240723,35.5078,0.4687496165924072,36.0937Q0.8593746165924072,36.6797,1.5234366165924071,36.9531L8.906246616592407,40.0781Q9.140626616592407,40.1953,9.414066616592407,40.1953ZM9.414066616592407,37.5781L9.414066616592407,22.8125L9.414066616592407,37.5781L9.414066616592407,22.8125Q12.070306616592408,24.17969,13.593706616592407,26.28906Q15.078106616592407,28.39844,15.703106616592407,30.625Q16.289106616592406,32.8906,16.289106616592406,34.6875L9.414066616592407,37.5781Z" fill="#FFFFFF" fill-opacity="1" style="mix-blend-mode:passthrough"/></g></g></g></svg>