<svg width="1023" height="249" viewBox="0 0 1023 249" fill="none" xmlns="http://www.w3.org/2000/svg">
<path d="M0.498059 0C9.07806 0 17.6581 0 26.4981 0C27.4881 2.64 28.4781 5.28 29.4981 8C32.0274 10.8907 33.8301 12.6891 37.6777 13.4062C42.6159 13.6058 46.3717 12.8789 50.4981 10C53.2022 6.56504 54.4321 4.26365 55.4981 0C62.0981 0 68.6981 0 75.4981 0C76.4881 2.64 77.4781 5.28 78.4981 8C81.0274 10.8907 82.8301 12.6891 86.6777 13.4062C91.6159 13.6058 95.3717 12.8789 99.4981 10C102.202 6.56504 103.432 4.26365 104.498 0C111.098 0 117.698 0 124.498 0C125.488 2.64 126.478 5.28 127.498 8C131.279 11.6869 134.032 12.8798 139.311 13.3125C143.694 13.248 146.144 11.8863 149.498 9C151.76 5.87941 152.549 3.7945 153.498 0C160.428 0 167.358 0 174.498 0C175.488 2.97 176.478 5.94 177.498 9C180.787 12.2107 183.443 13.2475 187.936 13.5C192.877 13.225 195.646 12.1591 199.498 9C200.488 6.03 201.478 3.06 202.498 0C209.428 0 216.358 0 223.498 0C224.488 2.64 225.478 5.28 226.498 8C229.027 10.8907 230.83 12.6891 234.678 13.4062C239.616 13.6058 243.372 12.8789 247.498 10C250.202 6.56504 251.432 4.26365 252.498 0C259.098 0 265.698 0 272.498 0C273.488 2.64 274.478 5.28 275.498 8C279.288 11.6955 282.562 13.1393 287.811 13.375C291.469 13.3155 292.567 12.9589 295.873 11C299.202 7.55041 299.202 7.55041 301.498 0C308.428 0 315.358 0 322.498 0C323.488 2.97 324.478 5.94 325.498 9C328.787 12.2107 331.443 13.2475 335.936 13.5C340.877 13.225 343.646 12.1591 347.498 9C348.983 4.545 348.983 4.545 350.498 0C357.428 0 364.358 0 371.498 0C372.488 2.64 373.478 5.28 374.498 8C377.027 10.8907 378.83 12.6891 382.678 13.4062C387.616 13.6058 391.372 12.8789 395.498 10C398.202 6.56504 399.432 4.26365 400.498 0C407.098 0 413.698 0 420.498 0C421.488 2.64 422.478 5.28 423.498 8C427.279 11.6869 430.032 12.8798 435.311 13.3125C439.694 13.248 442.144 11.8863 445.498 9C447.76 5.87941 448.549 3.7945 449.498 0C456.428 0 463.358 0 470.498 0C471.158 2.64 471.818 5.28 472.498 8C474.914 10.9189 474.914 10.9189 477.498 13C477.828 13.33 478.158 13.66 478.498 14C483.824 14.5534 488.209 14.6333 493.061 12.25C497.407 8.23793 497.488 6.06037 498.498 0C505.428 0 512.358 0 519.498 0C520.818 2.97 522.138 5.94 523.498 9C525.754 11.6426 527.164 12.7875 530.607 13.3359C535.592 13.5534 539.322 12.9135 543.498 10C546.202 6.56504 547.432 4.26365 548.498 0C555.098 0 561.698 0 568.498 0C569.818 2.97 571.138 5.94 572.498 9C574.754 11.6426 576.164 12.7875 579.607 13.3359C584.592 13.5534 588.322 12.9135 592.498 10C595.202 6.56504 596.432 4.26365 597.498 0C604.098 0 610.698 0 617.498 0C618.818 2.97 620.138 5.94 621.498 9C625.285 12.6718 629.206 13.3582 634.436 13.2812C637.879 12.8116 639.908 11.2286 642.498 9C644.76 5.87941 645.549 3.7945 646.498 0C653.428 0 660.358 0 667.498 0C668.488 2.97 669.478 5.94 670.498 9C673.787 12.2107 676.443 13.2475 680.936 13.5C685.877 13.225 688.646 12.1591 692.498 9C693.983 4.545 693.983 4.545 695.498 0C702.428 0 709.358 0 716.498 0C717.488 2.64 718.478 5.28 719.498 8C722.027 10.8907 723.83 12.6891 727.678 13.4062C732.616 13.6058 736.372 12.8789 740.498 10C743.202 6.56504 744.432 4.26365 745.498 0C752.098 0 758.698 0 765.498 0C766.818 2.97 768.138 5.94 769.498 9C773.285 12.6718 777.206 13.3582 782.436 13.2812C785.879 12.8116 787.908 11.2286 790.498 9C792.76 5.87941 793.549 3.7945 794.498 0C801.428 0 808.358 0 815.498 0C816.488 2.97 817.478 5.94 818.498 9C821.787 12.2107 824.443 13.2475 828.936 13.5C833.877 13.225 836.646 12.1591 840.498 9C841.983 4.545 841.983 4.545 843.498 0C850.428 0 857.358 0 864.498 0C865.488 2.64 866.478 5.28 867.498 8C870.027 10.8907 871.83 12.6891 875.678 13.4062C880.616 13.6058 884.372 12.8789 888.498 10C891.202 6.56504 892.432 4.26365 893.498 0C900.098 0 906.698 0 913.498 0C914.818 2.97 916.138 5.94 917.498 9C921.285 12.6718 925.206 13.3582 930.436 13.2812C933.879 12.8116 935.908 11.2286 938.498 9C940.76 5.87941 941.549 3.7945 942.498 0C949.428 0 956.358 0 963.498 0C964.158 2.64 964.818 5.28 965.498 8C967.914 10.9189 967.914 10.9189 970.498 13C970.828 13.33 971.158 13.66 971.498 14C976.824 14.5534 981.209 14.6333 986.061 12.25C990.407 8.23793 990.488 6.06037 991.498 0C1001.73 0 1011.96 0 1022.5 0C1022.57 29.9629 1022.62 59.9257 1022.65 89.8886C1022.65 93.4259 1022.66 96.9632 1022.66 100.5C1022.66 101.205 1022.66 101.909 1022.67 102.634C1022.68 114.037 1022.7 125.44 1022.73 136.843C1022.76 148.543 1022.77 160.243 1022.78 171.944C1022.78 178.516 1022.79 185.087 1022.82 191.659C1022.84 197.843 1022.84 204.027 1022.84 210.211C1022.84 212.482 1022.84 214.753 1022.86 217.024C1022.87 220.123 1022.87 223.221 1022.86 226.319C1022.87 227.22 1022.88 228.121 1022.89 229.049C1022.84 234.821 1022.05 239.207 1018 243.645C1013.03 247.515 1009.94 248.125 1003.73 248.129C1003.03 248.131 1002.33 248.132 1001.62 248.134C999.26 248.139 996.903 248.137 994.547 248.134C992.842 248.136 991.136 248.139 989.431 248.141C984.711 248.148 979.991 248.148 975.27 248.147C970.148 248.147 965.026 248.153 959.904 248.158C949.729 248.168 939.554 248.172 929.379 248.174C917.198 248.177 905.017 248.185 892.836 248.194C863.392 248.215 833.948 248.226 804.504 248.234C794.755 248.237 785.006 248.241 775.257 248.244C774.569 248.245 773.882 248.245 773.173 248.245C770.392 248.246 767.61 248.247 764.829 248.248C717.25 248.266 669.672 248.282 622.094 248.289C618.356 248.29 614.618 248.29 610.88 248.291C610.139 248.291 609.398 248.291 608.634 248.291C601.121 248.292 593.609 248.294 586.097 248.295C584.59 248.295 583.084 248.295 581.578 248.296C533.192 248.303 484.807 248.326 436.422 248.358C401.66 248.382 366.898 248.403 332.136 248.41C331.421 248.41 330.707 248.411 329.97 248.411C314.284 248.414 298.597 248.416 282.91 248.417C276.598 248.417 270.287 248.418 263.975 248.418C263.284 248.419 262.594 248.419 261.882 248.419C239.616 248.421 217.351 248.435 195.086 248.455C172.041 248.477 148.995 248.483 125.95 248.474C112.657 248.468 99.363 248.474 86.0693 248.496C77.1992 248.509 68.3292 248.509 59.4592 248.496C54.3987 248.489 49.3385 248.488 44.2781 248.505C39.6781 248.521 35.0785 248.518 30.4786 248.5C28.8213 248.497 27.164 248.5 25.5068 248.511C23.2606 248.525 21.0158 248.515 18.7696 248.498C16.9024 248.499 16.9024 248.499 14.9974 248.499C9.53773 247.72 5.84289 245.475 2.09062 241.36C-0.0438807 236.857 -0.0460913 233.166 0.0170406 228.243C0.0136229 227.266 0.0102052 226.289 0.00668396 225.282C0.000100303 222.012 0.0220899 218.742 0.0439571 215.471C0.0450855 213.126 0.044452 210.78 0.0421871 208.434C0.0410386 202.067 0.06457 195.7 0.0924829 189.333C0.114942 183.352 0.118975 177.372 0.12309 171.392C0.131839 159.549 0.158444 147.706 0.196301 135.863C0.233031 124.36 0.261338 112.858 0.278332 101.355C0.279383 100.646 0.280434 99.9363 0.281517 99.2055C0.286737 95.6469 0.291792 92.0883 0.296764 88.5297C0.338214 59.0198 0.409754 29.5099 0.498059 0Z" fill="#BEC6FE"/>
<path d="M0.498059 0C9.07806 0 17.6581 0 26.4981 0C27.4881 2.64 28.4781 5.28 29.4981 8C32.0274 10.8907 33.8301 12.6891 37.6777 13.4062C42.6159 13.6058 46.3717 12.8789 50.4981 10C53.2022 6.56504 54.4321 4.26365 55.4981 0C62.0981 0 68.6981 0 75.4981 0C76.4881 2.64 77.4781 5.28 78.4981 8C81.0274 10.8907 82.8301 12.6891 86.6777 13.4062C91.6159 13.6058 95.3717 12.8789 99.4981 10C102.202 6.56504 103.432 4.26365 104.498 0C111.098 0 117.698 0 124.498 0C125.488 2.64 126.478 5.28 127.498 8C131.279 11.6869 134.032 12.8798 139.311 13.3125C143.694 13.248 146.144 11.8863 149.498 9C151.76 5.87941 152.549 3.7945 153.498 0C160.428 0 167.358 0 174.498 0C175.488 2.97 176.478 5.94 177.498 9C180.787 12.2107 183.443 13.2475 187.936 13.5C192.877 13.225 195.646 12.1591 199.498 9C200.488 6.03 201.478 3.06 202.498 0C209.428 0 216.358 0 223.498 0C224.488 2.64 225.478 5.28 226.498 8C229.027 10.8907 230.83 12.6891 234.678 13.4062C239.616 13.6058 243.372 12.8789 247.498 10C250.202 6.56504 251.432 4.26365 252.498 0C259.098 0 265.698 0 272.498 0C273.488 2.64 274.478 5.28 275.498 8C279.288 11.6955 282.562 13.1393 287.811 13.375C291.469 13.3155 292.567 12.9589 295.873 11C299.202 7.55041 299.202 7.55041 301.498 0C308.428 0 315.358 0 322.498 0C323.488 2.97 324.478 5.94 325.498 9C328.787 12.2107 331.443 13.2475 335.936 13.5C340.877 13.225 343.646 12.1591 347.498 9C348.983 4.545 348.983 4.545 350.498 0C357.428 0 364.358 0 371.498 0C372.488 2.64 373.478 5.28 374.498 8C377.027 10.8907 378.83 12.6891 382.678 13.4062C387.616 13.6058 391.372 12.8789 395.498 10C398.202 6.56504 399.432 4.26365 400.498 0C407.098 0 413.698 0 420.498 0C421.488 2.64 422.478 5.28 423.498 8C427.279 11.6869 430.032 12.8798 435.311 13.3125C439.694 13.248 442.144 11.8863 445.498 9C447.76 5.87941 448.549 3.7945 449.498 0C456.428 0 463.358 0 470.498 0C471.158 2.64 471.818 5.28 472.498 8C474.914 10.9189 474.914 10.9189 477.498 13C477.828 13.33 478.158 13.66 478.498 14C483.824 14.5534 488.209 14.6333 493.061 12.25C497.407 8.23793 497.488 6.06037 498.498 0C505.428 0 512.358 0 519.498 0C520.818 2.97 522.138 5.94 523.498 9C525.754 11.6426 527.164 12.7875 530.607 13.3359C535.592 13.5534 539.322 12.9135 543.498 10C546.202 6.56504 547.432 4.26365 548.498 0C555.098 0 561.698 0 568.498 0C569.818 2.97 571.138 5.94 572.498 9C574.754 11.6426 576.164 12.7875 579.607 13.3359C584.592 13.5534 588.322 12.9135 592.498 10C595.202 6.56504 596.432 4.26365 597.498 0C604.098 0 610.698 0 617.498 0C618.818 2.97 620.138 5.94 621.498 9C625.285 12.6718 629.206 13.3582 634.436 13.2812C637.879 12.8116 639.908 11.2286 642.498 9C644.76 5.87941 645.549 3.7945 646.498 0C653.428 0 660.358 0 667.498 0C668.488 2.97 669.478 5.94 670.498 9C673.787 12.2107 676.443 13.2475 680.936 13.5C685.877 13.225 688.646 12.1591 692.498 9C693.983 4.545 693.983 4.545 695.498 0C702.428 0 709.358 0 716.498 0C717.488 2.64 718.478 5.28 719.498 8C722.027 10.8907 723.83 12.6891 727.678 13.4062C732.616 13.6058 736.372 12.8789 740.498 10C743.202 6.56504 744.432 4.26365 745.498 0C752.098 0 758.698 0 765.498 0C766.818 2.97 768.138 5.94 769.498 9C773.285 12.6718 777.206 13.3582 782.436 13.2812C785.879 12.8116 787.908 11.2286 790.498 9C792.76 5.87941 793.549 3.7945 794.498 0C801.428 0 808.358 0 815.498 0C816.488 2.97 817.478 5.94 818.498 9C821.787 12.2107 824.443 13.2475 828.936 13.5C833.877 13.225 836.646 12.1591 840.498 9C841.983 4.545 841.983 4.545 843.498 0C850.428 0 857.358 0 864.498 0C865.488 2.64 866.478 5.28 867.498 8C870.027 10.8907 871.83 12.6891 875.678 13.4062C880.616 13.6058 884.372 12.8789 888.498 10C891.202 6.56504 892.432 4.26365 893.498 0C900.098 0 906.698 0 913.498 0C914.818 2.97 916.138 5.94 917.498 9C921.285 12.6718 925.206 13.3582 930.436 13.2812C933.879 12.8116 935.908 11.2286 938.498 9C940.76 5.87941 941.549 3.7945 942.498 0C949.428 0 956.358 0 963.498 0C964.158 2.64 964.818 5.28 965.498 8C967.914 10.9189 967.914 10.9189 970.498 13C970.828 13.33 971.158 13.66 971.498 14C976.824 14.5534 981.209 14.6333 986.061 12.25C990.407 8.23793 990.488 6.06037 991.498 0C1001.73 0 1011.96 0 1022.5 0C1022.57 29.9629 1022.62 59.9257 1022.65 89.8886C1022.65 93.4259 1022.66 96.9632 1022.66 100.5C1022.66 101.205 1022.66 101.909 1022.67 102.634C1022.68 114.037 1022.7 125.44 1022.73 136.843C1022.76 148.543 1022.77 160.243 1022.78 171.944C1022.78 178.516 1022.79 185.087 1022.82 191.659C1022.84 197.843 1022.84 204.027 1022.84 210.211C1022.84 212.482 1022.84 214.753 1022.86 217.024C1022.87 220.123 1022.87 223.221 1022.86 226.319C1022.87 227.22 1022.88 228.121 1022.89 229.049C1022.84 234.821 1022.05 239.207 1018 243.645C1013.03 247.515 1009.94 248.125 1003.73 248.129C1003.03 248.131 1002.33 248.132 1001.62 248.134C999.26 248.139 996.903 248.137 994.547 248.134C992.842 248.136 991.136 248.139 989.431 248.141C984.711 248.148 979.991 248.148 975.27 248.147C970.148 248.147 965.026 248.153 959.904 248.158C949.729 248.168 939.554 248.172 929.379 248.174C917.198 248.177 905.017 248.185 892.836 248.194C863.392 248.215 833.948 248.226 804.504 248.234C794.755 248.237 785.006 248.241 775.257 248.244C774.569 248.245 773.882 248.245 773.173 248.245C770.392 248.246 767.61 248.247 764.829 248.248C717.25 248.266 669.672 248.282 622.094 248.289C618.356 248.29 614.618 248.29 610.88 248.291C610.139 248.291 609.398 248.291 608.634 248.291C601.121 248.292 593.609 248.294 586.097 248.295C584.59 248.295 583.084 248.295 581.578 248.296C533.192 248.303 484.807 248.326 436.422 248.358C401.66 248.382 366.898 248.403 332.136 248.41C331.421 248.41 330.707 248.411 329.97 248.411C314.284 248.414 298.597 248.416 282.91 248.417C276.598 248.417 270.287 248.418 263.975 248.418C263.284 248.419 262.594 248.419 261.882 248.419C239.616 248.421 217.351 248.435 195.086 248.455C172.041 248.477 148.995 248.483 125.95 248.474C112.657 248.468 99.363 248.474 86.0693 248.496C77.1992 248.509 68.3292 248.509 59.4592 248.496C54.3987 248.489 49.3385 248.488 44.2781 248.505C39.6781 248.521 35.0785 248.518 30.4786 248.5C28.8213 248.497 27.164 248.5 25.5068 248.511C23.2606 248.525 21.0158 248.515 18.7696 248.498C16.9024 248.499 16.9024 248.499 14.9974 248.499C9.53773 247.72 5.84289 245.475 2.09062 241.36C-0.0438807 236.857 -0.0460913 233.166 0.0170406 228.243C0.0136229 227.266 0.0102052 226.289 0.00668396 225.282C0.000100303 222.012 0.0220899 218.742 0.0439571 215.471C0.0450855 213.126 0.044452 210.78 0.0421871 208.434C0.0410386 202.067 0.06457 195.7 0.0924829 189.333C0.114942 183.352 0.118975 177.372 0.12309 171.392C0.131839 159.549 0.158444 147.706 0.196301 135.863C0.233031 124.36 0.261338 112.858 0.278332 101.355C0.279383 100.646 0.280434 99.9363 0.281517 99.2055C0.286737 95.6469 0.291792 92.0883 0.296764 88.5297C0.338214 59.0198 0.409754 29.5099 0.498059 0ZM649.498 2C648.838 3.27875 648.178 4.5575 647.498 5.875C647.127 6.5943 646.756 7.31359 646.373 8.05469C645.361 9.94849 645.361 9.94849 645.498 12C644.175 12.6862 642.839 13.3479 641.498 14C640.776 14.3713 640.054 14.7425 639.311 15.125C634.096 16.7474 629.319 16.6529 624.186 14.8125C619.368 11.5632 617.654 8.38965 615.498 3C610.218 3 604.938 3 599.498 3C598.663 4.85625 598.663 4.85625 597.811 6.75C595.606 11.1827 592.955 13.7716 588.498 16C583.242 16.5239 578.853 16.6651 574.061 14.3125C570.208 10.8359 567.822 7.64801 565.498 3C560.548 3 555.598 3 550.498 3C549.663 4.85625 549.663 4.85625 548.811 6.75C546.946 10.4853 545.069 12.7111 541.498 15C537.148 16.4502 533.045 16.5107 528.498 16C522.546 13.0238 519.43 8.86306 516.498 3C511.548 3 506.598 3 501.498 3C500.941 4.4025 500.384 5.805 499.811 7.25C497.69 12.0488 495.222 14.6379 490.498 17C484.279 17.5284 478.764 17.7249 473.498 14C470.177 10.587 468.91 7.4908 467.498 3C462.4 2.53832 457.581 2.28245 452.498 3C450.323 4.84525 449.542 6.36597 448.404 8.95703C447.108 11.8799 445.125 13.2716 442.498 15C437.292 16.7355 432.349 16.6634 427.186 14.8125C422.368 11.5632 420.654 8.38965 418.498 3C413.218 3 407.938 3 402.498 3C401.663 4.85625 401.663 4.85625 400.811 6.75C398.946 10.4853 397.069 12.7111 393.498 15C389.148 16.4502 385.045 16.5107 380.498 16C374.546 13.0238 371.43 8.86306 368.498 3C363.548 3 358.598 3 353.498 3C352.9 4.25812 352.302 5.51625 351.686 6.8125C349.8 10.778 348.142 13.1889 344.146 15.1602C339.057 16.7741 333.404 17.1466 328.369 15.1602C323.68 12.1523 321.527 8.07884 319.498 3C314.4 2.53832 309.581 2.28245 304.498 3C302.323 4.84525 301.542 6.36597 300.404 8.95703C299.108 11.8799 297.125 13.2716 294.498 15C289.292 16.7355 284.349 16.6634 279.186 14.8125C274.368 11.5632 272.654 8.38965 270.498 3C265.218 3 259.938 3 254.498 3C253.941 4.2375 253.384 5.475 252.811 6.75C250.946 10.4853 249.069 12.7111 245.498 15C241.148 16.4502 237.045 16.5107 232.498 16C226.546 13.0238 223.43 8.86306 220.498 3C215.548 3 210.598 3 205.498 3C204.756 4.82531 204.756 4.82531 203.998 6.6875C201.548 11.5112 198.568 14.1011 193.498 16C188.235 17.0192 183.849 16.5827 179.123 14C174.957 11.0738 173.389 7.64943 171.498 3C166.4 2.53832 161.581 2.28245 156.498 3C154.323 4.84525 153.542 6.36597 152.404 8.95703C151.108 11.8799 149.125 13.2716 146.498 15C141.292 16.7355 136.349 16.6634 131.186 14.8125C126.368 11.5632 124.654 8.38965 122.498 3C117.218 3 111.938 3 106.498 3C105.941 4.2375 105.384 5.475 104.811 6.75C102.946 10.4853 101.069 12.7111 97.4981 15C93.176 16.4407 89.0187 16.4333 84.4981 16C81.4981 14.5 81.4981 14.5 79.4981 13C78.8381 13 78.1781 13 77.4981 13C75.8314 9.66667 74.1647 6.33333 72.4981 3C67.5481 3 62.5981 3 57.4981 3C56.9412 4.2375 56.3843 5.475 55.8106 6.75C53.9462 10.4853 52.0687 12.7111 48.4981 15C44.1476 16.4502 40.0447 16.5107 35.4981 16C29.5456 13.0238 26.4296 8.86306 23.4981 3C16.5681 3 9.63806 3 2.49806 3C2.40762 32.4362 2.33601 61.8725 2.2938 91.3088C2.28879 94.7847 2.28362 98.2607 2.27833 101.737C2.27728 102.429 2.27623 103.121 2.27515 103.834C2.25775 115.035 2.22622 126.237 2.18945 137.439C2.15203 148.934 2.13012 160.43 2.1217 171.926C2.11649 178.382 2.10421 184.838 2.07514 191.294C2.048 197.371 2.03961 203.447 2.04563 209.523C2.04453 211.754 2.03657 213.984 2.02124 216.214C2.00133 219.26 2.00612 222.305 2.01704 225.351C1.99956 226.674 1.99956 226.674 1.98173 228.024C2.03804 233.837 3.0117 237.289 6.49806 242C10.5237 245.049 13.5271 245.375 18.5189 245.376C19.2184 245.38 19.9179 245.384 20.6386 245.389C22.993 245.399 25.3467 245.388 27.7011 245.378C29.4091 245.381 31.1172 245.385 32.8252 245.391C37.5444 245.402 42.2634 245.395 46.9827 245.385C52.1071 245.378 57.2315 245.388 62.3559 245.395C71.3455 245.406 80.3352 245.406 89.3248 245.398C102.692 245.387 116.06 245.392 129.428 245.402C151.913 245.417 174.399 245.417 196.885 245.409C197.912 245.409 197.912 245.409 198.961 245.408C199.647 245.408 200.333 245.408 201.04 245.407C221.929 245.4 242.818 245.398 263.708 245.401C265.105 245.402 266.503 245.402 267.901 245.402C273.518 245.403 279.136 245.404 284.753 245.405C300.456 245.408 316.159 245.409 331.862 245.41C332.578 245.41 333.293 245.41 334.03 245.411C356.823 245.412 379.616 245.408 402.41 245.402C403.149 245.402 403.889 245.401 404.651 245.401C416.66 245.398 428.669 245.394 440.679 245.39C488.311 245.376 535.944 245.377 583.577 245.391C595.58 245.395 607.583 245.398 619.586 245.402C620.325 245.402 621.064 245.402 621.826 245.402C644.595 245.409 667.364 245.412 690.134 245.41C690.848 245.41 691.563 245.41 692.299 245.41C707.985 245.409 723.67 245.407 739.356 245.405C744.968 245.404 750.581 245.403 756.193 245.402C757.589 245.402 758.985 245.401 760.382 245.401C781.266 245.398 802.151 245.401 823.036 245.408C823.721 245.408 824.406 245.409 825.112 245.409C825.795 245.409 826.479 245.409 827.184 245.41C850.226 245.418 873.269 245.415 896.312 245.399C909.606 245.39 922.9 245.39 936.194 245.401C945.062 245.408 953.93 245.404 962.797 245.39C967.858 245.383 972.918 245.381 977.979 245.392C982.577 245.401 987.175 245.397 991.772 245.382C993.431 245.379 995.09 245.381 996.749 245.389C998.992 245.398 1001.23 245.39 1003.48 245.376C1004.72 245.376 1005.97 245.376 1007.25 245.375C1012.01 244.825 1015.44 242.667 1018.5 239C1019.4 236.292 1019.62 234.753 1019.62 231.976C1019.62 231.155 1019.63 230.334 1019.63 229.488C1019.62 228.587 1019.62 227.685 1019.62 226.756C1019.62 225.798 1019.62 224.839 1019.62 223.852C1019.62 220.628 1019.62 217.403 1019.61 214.179C1019.61 211.873 1019.61 209.567 1019.61 207.261C1019.61 200.989 1019.61 194.717 1019.6 188.444C1019.59 181.894 1019.59 175.344 1019.59 168.793C1019.59 157.795 1019.58 146.797 1019.57 135.798C1019.56 124.469 1019.56 113.14 1019.55 101.811C1019.55 101.113 1019.55 100.414 1019.55 99.6951C1019.55 96.1927 1019.55 92.6902 1019.55 89.1877C1019.54 60.1252 1019.52 31.0626 1019.5 2C1011.25 2 1003 2 994.498 2C993.013 6.455 993.013 6.455 991.498 11C988.194 15.0947 986.539 16.6722 981.361 17.5039C971.998 17.8349 971.998 17.8349 967.873 15.25C963.096 10.7244 962.449 8.82987 960.498 2C955.548 2 950.598 2 945.498 2C944.962 3.21687 944.426 4.43375 943.873 5.6875C941.725 9.99921 939.427 12.2415 935.498 15C930.292 16.7355 925.349 16.6634 920.186 14.8125C914.885 11.2377 913.54 8.1257 911.498 2C906.218 2 900.938 2 895.498 2C895.127 3.21687 894.756 4.43375 894.373 5.6875C892.661 10.2848 890.512 12.2401 886.498 15C882.148 16.4502 878.045 16.5107 873.498 16C867.077 12.7896 864.124 8.56502 861.498 2C856.548 2 851.598 2 846.498 2C845.941 3.4025 845.384 4.805 844.811 6.25C843.02 10.2873 841.34 12.636 837.498 15C832.465 16.6777 827.268 16.9673 822.205 15.1992C816.421 12.0412 814.678 8.08601 812.498 2C807.548 2 802.598 2 797.498 2C796.962 3.21687 796.426 4.43375 795.873 5.6875C793.725 9.99921 791.427 12.2415 787.498 15C782.292 16.7355 777.349 16.6634 772.186 14.8125C766.885 11.2377 765.54 8.1257 763.498 2C758.548 2 753.598 2 748.498 2C747.776 3.4025 747.054 4.805 746.311 6.25C743.581 11.1679 740.945 14.1842 735.498 16C730.529 16.5217 726.643 16.5724 722.123 14.3125C717.748 10.4581 715.686 7.46986 713.498 2C708.548 2 703.598 2 698.498 2C697.756 4.07281 697.756 4.07281 696.998 6.1875C695.026 10.5592 693.005 12.9254 688.771 15.1836C683.797 16.97 679.199 16.97 674.225 15.1836C668.409 12.0812 666.674 8.07337 664.498 2C659.548 2 654.598 2 649.498 2Z" fill="#1C1D24"/>
</svg>
