<svg width="369" height="749" viewBox="0 0 369 749" fill="none" xmlns="http://www.w3.org/2000/svg">
<rect width="30" height="103" fill="#292521"/>
<rect y="646" width="30" height="103" fill="#292521"/>
<path d="M158.187 171.285C164.359 175.482 169.529 181.53 170.999 189C172.299 188.876 173.598 188.752 174.937 188.625C181.961 188.658 186.171 192.416 191.167 196.98C196.611 202.587 199.521 208.643 201.999 216C202.368 217.068 202.737 218.137 203.117 219.238C204.215 223.92 204.292 228.273 204.249 233.062C204.257 233.934 204.265 234.806 204.273 235.705C204.258 240.535 203.876 244.466 201.999 249C201.169 249.097 201.169 249.097 200.322 249.196C185.138 250.353 185.138 250.353 171.999 257C170.939 259.43 170.939 259.43 170.999 262C171.939 263.936 171.939 263.936 173.999 265C177.272 265.41 180.476 265.439 183.773 265.496C187.601 266.094 189.182 267.417 191.999 270C192.659 270.33 193.319 270.66 193.999 271C192.999 274 192.999 274 189.999 276C189.197 278.694 189.197 278.694 188.789 281.906C188.503 283.722 188.503 283.722 188.212 285.574C188.018 286.87 187.824 288.165 187.625 289.5C185.811 300.934 183.476 311.955 179.999 323C179.695 324.053 179.391 325.106 179.078 326.191C173.695 343.92 163.552 363.528 146.968 372.969C137.942 377.697 127.873 378.856 117.917 376.168C115.538 375.215 113.284 374.157 110.999 373C109.338 372.32 107.673 371.65 105.999 371C105.751 371.566 105.502 372.132 105.246 372.715C103.806 375.355 102.084 377.337 100.062 379.562C99.3721 380.327 98.6831 381.091 97.9721 381.879C95.9991 384 95.9991 384 94.2891 385.578C92.3031 387.769 92.3171 390.139 91.9991 393C81.4861 396.042 70.2981 393.736 60.7181 388.832C58.7511 387.626 56.8791 386.338 54.9991 385C53.4581 383.999 51.9171 382.999 50.3751 382C40.4961 375.302 34.7011 367.347 28.9991 357C28.3391 356.01 27.6801 355.02 26.9991 354C26.1221 349.191 25.9371 344.775 28.4961 340.5C30.2361 338.474 31.9031 336.655 33.9991 335C34.6601 335 35.3191 335 35.9991 335C36.2481 334.44 36.4971 333.881 36.7531 333.305C38.2121 330.608 39.9641 328.473 41.9371 326.125C42.7281 325.163 43.5201 324.202 44.3351 323.211C45.7131 321.544 47.0981 319.884 48.4971 318.235C50.0341 316.419 51.5491 314.586 53.0621 312.75C53.5511 312.184 54.0401 311.618 54.5441 311.035C56.8591 308.193 57.9671 306.247 58.4491 302.59C57.9351 298.483 56.9661 294.757 55.7491 290.812C51.6951 276.929 48.9021 262.896 47.6871 248.48C47.0811 245.414 46.5181 243.902 44.9721 241.312C42.3171 236.854 42.1151 234.033 42.9991 229C47.0681 215.293 56.3651 204.256 66.9991 195C67.6591 195 68.3191 195 68.9991 195C68.7111 194.113 68.4221 193.226 68.1251 192.312C68.0831 191.219 68.0421 190.126 67.9991 189C72.0471 184.764 75.0601 183.102 80.7961 182.902C81.7711 182.914 82.7451 182.925 83.7491 182.937C84.7341 182.946 85.7191 182.955 86.7341 182.965C87.8551 182.982 87.8551 182.982 88.9991 183C89.1081 182.242 89.2161 181.484 89.3281 180.703C90.2471 177.003 91.7241 175.567 94.6521 173.234C100.986 169.904 108.587 170.465 115.312 172.25C118.149 172.949 119.462 173.223 122.183 172.094C124.179 170.796 126.085 169.415 127.999 168C138.106 163.176 148.998 165.886 158.187 171.285Z" fill="#FFA48F"/>
<path d="M208.5 248.5C209.197 248.503 209.894 248.506 210.612 248.509C232.788 248.683 267.937 254.854 284.875 270.688C292.299 279.948 296.52 292.054 301 302.926C303.429 308.778 306.118 314.441 309 320.082C311.745 325.453 314.334 330.886 316.859 336.364C319.068 341.119 321.399 345.808 323.754 350.492C334.308 371.511 345.006 392.862 353 415C353.279 415.761 353.559 416.522 353.847 417.306C357.5 427.64 358.459 437.558 358.562 448.5C358.577 449.669 358.592 450.839 358.608 452.043C358.495 461.398 357.109 470.057 350.5 477.062C345.599 481.618 340.454 482.695 334.062 483.938C332.923 484.172 332.923 484.172 331.76 484.412C324.691 485.812 317.571 486.797 310.437 487.798C301.267 489.089 292.122 490.525 282.978 491.99C280.114 492.449 277.249 492.906 274.384 493.362C266.271 494.656 258.161 495.96 250.062 497.344C248.403 497.627 248.403 497.627 246.71 497.916C244.777 498.25 242.844 498.588 240.913 498.933C236.194 499.751 231.791 500.162 227 500C228.676 476.263 230.922 452.598 234 429C234.66 423.72 235.32 418.44 236 413C251.84 413 267.68 413 284 413C280.25 396.386 280.25 396.386 276.031 379.965C274.462 374.078 273.185 368.121 271.853 362.177C270.366 355.558 268.771 348.978 267.102 342.402C265.401 335.661 263.806 328.893 262.194 322.13C261.833 320.619 261.833 320.619 261.465 319.078C261.109 317.581 261.109 317.581 260.746 316.053C260.233 313.955 259.7 311.863 259.149 309.775C258.737 308.208 258.737 308.208 258.316 306.609C258.064 305.676 257.813 304.742 257.553 303.78C256.958 300.79 256.906 298.041 257 295C255.949 294.902 254.899 294.804 253.816 294.703C238.282 293.113 228.46 288.049 217.605 276.578C217.076 276.057 216.546 275.537 216 275C215.457 274.437 214.915 273.873 214.355 273.293C210.15 270.984 205.404 271.927 200.73 272.205C195.104 272.397 192.366 271.606 188 268C187.67 267.67 187.34 267.34 187 267C183.734 266.795 180.47 266.68 177.199 266.574C173.475 265.906 172.258 264.981 170 262C169.75 259.562 169.75 259.562 171 257C180.315 248.003 196.454 248.411 208.5 248.5Z" fill="#FFA48F"/>
<path d="M158.188 171.285C164.36 175.482 169.53 181.53 171 189C172.3 188.876 173.599 188.752 174.938 188.625C181.962 188.658 186.172 192.416 191.168 196.98C196.612 202.587 199.522 208.643 202 216C202.369 217.068 202.738 218.137 203.118 219.238C204.216 223.92 204.293 228.273 204.25 233.062C204.258 233.934 204.266 234.806 204.274 235.705C204.259 240.535 203.877 244.466 202 249C201.17 249.097 201.17 249.097 200.323 249.196C185.139 250.353 185.139 250.353 172 257C170.94 259.43 170.94 259.43 171 262C171.94 263.936 171.94 263.936 174 265C177.273 265.41 180.477 265.439 183.774 265.496C187.602 266.094 189.183 267.417 192 270C192.66 270.33 193.32 270.66 194 271C193 274 193 274 190 276C185.016 276.934 180.973 276.362 176.626 273.75C173.256 271.354 170.496 269.298 169.586 265.078C168.996 262.663 168.476 261.016 167 259C164.097 257.996 161.22 257.522 158.2 256.965C153.464 255.537 150.787 252.643 147.317 249.234C144.29 246.314 141 243.441 137 242C133.223 242.36 130.347 243.718 127 245.437C122.687 247.489 118.992 248.413 114.25 248.937C109.24 249.602 106.011 250.407 102.418 254.035C99.5527 258.006 97.8247 262.483 95.9997 267C93.5047 272.773 90.9387 276.987 85.9997 281C83.8127 280.652 83.8127 280.652 81.9997 280C82.0347 278.686 82.0697 277.373 82.1057 276.019C82.1337 274.284 82.1607 272.548 82.1877 270.812C82.2127 269.948 82.2377 269.084 82.2637 268.193C82.3497 261.576 82.3497 261.576 78.9997 256C74.2057 255.292 72.0527 255.454 67.7497 257.687C64.4927 260.427 61.9117 263.177 59.9997 267C59.3997 276.447 59.1047 285.101 63.2227 293.836C64.1477 296.41 63.9897 297.481 62.9997 300C62.3397 300.99 61.6807 301.98 60.9997 303C60.3397 303 59.6807 303 58.9997 303C53.8557 285.029 49.2617 267.15 47.6877 248.48C47.0817 245.414 46.5187 243.902 44.9727 241.312C42.3177 236.854 42.1157 234.033 42.9997 229C47.0687 215.293 56.3657 204.256 66.9997 195C67.6607 195 68.3197 195 68.9997 195C68.7117 194.113 68.4227 193.226 68.1257 192.312C68.0837 191.219 68.0427 190.126 67.9997 189C72.0477 184.764 75.0607 183.102 80.7967 182.902C81.7717 182.914 82.7457 182.925 83.7497 182.937C84.7347 182.946 85.7197 182.955 86.7347 182.965C87.8557 182.982 87.8557 182.982 88.9997 183C89.1087 182.242 89.2167 181.484 89.3287 180.703C90.2477 177.003 91.7247 175.567 94.6527 173.234C100.987 169.904 108.588 170.465 115.313 172.25C118.15 172.949 119.463 173.223 122.184 172.094C124.18 170.796 126.086 169.415 128 168C138.107 163.176 148.999 165.886 158.188 171.285Z" fill="#792C1D"/>
<path d="M116 326C119.762 326.578 122.466 327.627 125.723 329.582C126.591 330.102 127.459 330.622 128.354 331.158C129.247 331.704 130.141 332.25 131.062 332.812C131.96 333.347 132.858 333.881 133.783 334.432C137.983 336.97 141.721 339.289 145 343C145 343.66 145 344.32 145 345C140.058 347.471 133.227 346.729 128.125 345.059C122.563 342.418 118.806 339.612 116 334C115.866 331.328 115.957 328.677 116 326Z" fill="#FEFAFA"/>
<path d="M22.812 155.75C26.317 157.125 27.963 157.823 30 161C30.181 163.367 30.126 165.61 29.945 167.977C29.774 170.233 29.774 170.233 32 172C31.67 172.99 31.339 173.98 31 175C28 171.25 28 171.25 28 169C20.585 167.163 13.623 166.764 6 167C6 166.34 6 165.68 6 165C5.009 164.67 4.019 164.34 3 164C3.201 160.365 3.783 159.201 6.5 156.688C12.136 153.97 16.785 154.564 22.812 155.75Z" fill="#FFA48F"/>
<path d="M127.441 266.574C136.104 268.403 136.104 268.403 138.941 270.293C140 272 140 272 139.687 274.687C139.46 275.45 139.233 276.214 139 277C129.838 276.437 120.982 274.792 112 273C111.312 271.187 111.312 271.187 111 269C114.614 263.639 121.922 265.653 127.441 266.574Z" fill="#7C2A1B"/>
<path d="M169 257C169.33 257 169.66 257 170 257C170.433 258.423 170.433 258.423 170.875 259.875C171.768 263.052 171.768 263.052 174 265C177.249 265.31 180.476 265.379 183.738 265.461C187.571 266.094 189.174 267.409 192 270C192.66 270.33 193.32 270.66 194 271C193 274 193 274 190 276C185.016 276.934 180.973 276.362 176.625 273.75C171.124 269.821 169.643 266.444 168.234 259.926C168.157 259.29 168.08 258.655 168 258C168.33 257.67 168.66 257.34 169 257Z" fill="#782917"/>
<path d="M50.9998 264C51.3298 265.32 51.6598 266.64 51.9998 268C52.6598 268 53.3198 268 53.9998 268C53.9998 270.64 53.9998 273.28 53.9998 276C54.6598 276 55.3198 276 55.9998 276C56.1208 276.566 56.2418 277.132 56.3668 277.715C56.5348 278.448 56.7018 279.182 56.8748 279.938C57.0368 280.668 57.1998 281.399 57.3668 282.152C57.8298 284.207 57.8298 284.207 59.9998 285C61.1048 287.363 61.1048 287.363 62.1878 290.312C62.5518 291.278 62.9168 292.244 63.2928 293.238C64.0248 296.099 64.0858 297.304 62.9998 300C62.3398 300.99 61.6798 301.98 60.9998 303C60.3398 303 59.6798 303 58.9998 303C58.0358 299.543 57.0798 296.084 56.1248 292.625C55.8558 291.659 55.5858 290.694 55.3088 289.699C50.6228 272.671 50.6228 272.671 50.9998 264Z" fill="#66251E"/>
<path d="M174.816 278.902C176.398 278.909 177.98 278.921 179.562 278.937C180.368 278.942 181.175 278.946 182.005 278.951C184.004 278.963 186.002 278.981 188 279C188 281.97 188 284.94 188 288C185.206 287.719 182.416 287.425 179.625 287.125C178.434 287.007 178.434 287.007 177.218 286.886C171.226 286.226 171.226 286.226 169 284C169.683 279.489 170.064 279.024 174.816 278.902Z" fill="#802C1D"/>
<path d="M70.9998 310C71.3298 310 71.6598 310 71.9998 310C72.1698 311.1 72.3398 312.199 72.5158 313.332C75.7808 333.617 83.6248 349.048 98.5618 363.562C99.3668 364.367 100.171 365.171 101 366C101 366.66 101 367.32 101 368C88.8968 362.697 79.8978 345.125 73.9998 334C73.6378 333.35 73.2758 332.701 72.9018 332.031C69.7258 325.295 70.7618 317.261 70.9998 310Z" fill="#DE4735"/>
<path d="M286 417C286.99 417.495 286.99 417.495 288 418C288.614 420.958 289.135 423.896 289.625 426.875C292.132 440.647 297.232 453.578 304.969 465.285C306 467 306 467 306 469C305.34 469 304.68 469 304 469C303.34 467.35 302.68 465.7 302 464C301.34 464 300.68 464 300 464C292.722 449.024 285.461 433.981 286 417Z" fill="#E75B4B"/>
<path d="M170 195C170.33 195 170.66 195 171 195C170.736 201.459 168.614 204.574 164 209C162.609 210.152 161.213 211.298 159.812 212.438C156.323 215.385 155.01 217.76 153.703 222.074C152.24 226.082 149.418 229.012 145.938 231.438C143.59 232.119 142.313 231.659 140 231C140.543 230.685 141.085 230.371 141.645 230.047C148.589 225.893 150.842 222.5 154 215C156.013 210.672 158.091 209.29 162.289 207.094C166.505 204.398 168.392 199.556 170 195Z" fill="#6D1D13"/>
<path d="M153 299C153.66 299.33 154.32 299.66 155 300C155.124 304.057 155.214 308.112 155.275 312.17C155.3 313.55 155.334 314.929 155.377 316.308C155.438 318.293 155.464 320.28 155.488 322.266C155.514 323.46 155.541 324.654 155.568 325.884C155 329 155 329 152.708 331.374C149.451 333.329 146.758 333.705 143 334C142.67 333.34 142.34 332.68 142 332C142.638 331.818 143.276 331.636 143.934 331.449C144.76 331.198 145.586 330.946 146.438 330.688C147.261 330.444 148.085 330.2 148.934 329.949C149.616 329.636 150.297 329.323 151 329C152.08 325.761 152.204 323.208 152.316 319.801C152.358 318.592 152.4 317.384 152.443 316.139C152.483 314.876 152.522 313.613 152.562 312.312C152.606 311.038 152.649 309.764 152.693 308.451C152.8 305.301 152.902 302.151 153 299Z" fill="#F16553"/>
<path d="M52 258C54.807 261.743 55.201 262.779 56 267C56.66 267.33 57.32 267.66 58 268C58.33 267.34 58.66 266.68 59 266C59 272.27 59 278.54 59 285C58.34 284.67 57.68 284.34 57 284C56.406 281.351 56.258 278.708 56 276C55.34 276 54.68 276 54 276C54 273.36 54 270.72 54 268C53.34 268 52.68 268 52 268C52 264.7 52 261.4 52 258Z" fill="#892413"/>
<path d="M112 268C112.99 268 113.98 268 115 268C115.33 268.99 115.66 269.98 116 271C126.89 272.98 126.89 272.98 138 275C138 274.01 138 273.02 138 272C137.196 271.876 136.391 271.752 135.562 271.625C134.294 271.316 134.294 271.316 133 271C132.67 270.34 132.34 269.68 132 269C134.804 268.773 136.462 268.659 138.875 270.188C140 272 140 272 139.57 274.613C139.382 275.401 139.194 276.189 139 277C129.838 276.437 120.983 274.792 112 273C111.438 271.062 111.438 271.062 111 269C111.33 268.67 111.66 268.34 112 268Z" fill="#692110"/>
<path d="M125 170C125.33 170.66 125.66 171.32 126 172C124.68 173.32 123.36 174.64 122 176C122.969 176.083 123.939 176.165 124.938 176.25C132.288 177.323 138.115 180.396 143 186C143.598 186.598 144.196 187.196 144.812 187.812C145.204 188.204 145.596 188.596 146 189C145.67 189.66 145.34 190.32 145 191C142.959 189.384 140.959 187.714 139 186C139 185.34 139 184.68 139 184C137.762 183.608 136.525 183.216 135.25 182.812C129.368 180.861 123.694 178.438 118 176C118.99 175.67 119.98 175.34 121 175C121.699 173.684 122.367 172.35 123 171C123.66 170.67 124.32 170.34 125 170Z" fill="#691E13"/>
<path d="M77 262C77.33 262 77.66 262 78 262C78.221 268.098 78.012 273.216 76 279C74.68 279.33 73.36 279.66 72 280C72.165 280.99 72.33 281.98 72.5 283C73.064 287.074 73.279 290.886 73 295C72.01 295.66 71.02 296.32 70 297C70.021 295.886 70.041 294.772 70.062 293.625C70.071 288.711 69.56 283.877 69 279C70.98 278.34 72.96 277.68 75 277C75.66 272.05 76.32 267.1 77 262Z" fill="#EA634D"/>
<path d="M169 257C169.33 257 169.66 257 170 257C170.433 258.423 170.433 258.423 170.875 259.875C171.768 263.052 171.768 263.052 174 265C177.122 265.465 177.122 265.465 180.625 265.625C181.814 265.7 183.002 265.775 184.227 265.852C185.142 265.901 186.057 265.95 187 266C187 266.66 187 267.32 187 268C185.042 268.027 183.083 268.046 181.125 268.062C180.034 268.074 178.944 268.086 177.82 268.098C175 268 175 268 173 267C174.32 268.65 175.64 270.3 177 272C174.523 271.658 173.229 271.211 171.375 269.5C169.396 265.901 168.496 262.072 168 258C168.33 257.67 168.66 257.34 169 257Z" fill="#672113"/>
<path d="M82 183C90.963 182.227 99.01 185.005 107 189C106.67 189.99 106.34 190.98 106 192C105.01 191.608 104.02 191.216 103 190.812C96.112 188.217 89.033 186.159 82 184C82 183.67 82 183.34 82 183Z" fill="#642015"/>
<path d="M47.9996 244C48.9896 244.495 48.9896 244.495 49.9996 245C50.4136 247.504 50.4136 247.504 50.6246 250.562C50.6996 251.574 50.7746 252.586 50.8516 253.629C50.9246 254.803 50.9246 254.803 50.9996 256C51.6596 254.68 52.3196 253.36 52.9996 252C53.2226 253.435 53.4276 254.873 53.6246 256.312C53.7406 257.113 53.8566 257.914 53.9766 258.738C53.9996 261 53.9996 261 51.9996 264C51.3176 265.326 50.6476 266.658 49.9996 268C48.5616 259.924 47.7036 252.206 47.9996 244Z" fill="#6E2F24"/>
<path d="M286 417C286.99 417.495 286.99 417.495 288 418C288.578 419.838 288.578 419.838 289.035 422.227C289.205 423.094 289.374 423.962 289.549 424.855C289.718 425.769 289.888 426.683 290.062 427.625C290.236 428.516 290.409 429.406 290.588 430.324C291.525 435.202 292.346 440.076 293 445C290.41 442.41 289.973 440.128 288.938 436.625C288.596 435.483 288.254 434.341 287.902 433.164C287.456 431.598 287.456 431.598 287 430C286.694 428.952 286.694 428.952 286.383 427.883C285.925 425.633 285.904 423.544 285.938 421.25C285.947 420.451 285.956 419.652 285.965 418.828C285.976 418.225 285.988 417.622 286 417Z" fill="#E55146"/>
<path d="M59 285C60.594 287.391 61.653 289.308 62.688 291.938C62.959 292.607 63.231 293.276 63.512 293.965C64.095 296.395 63.853 297.666 63 300C62.01 301.485 62.01 301.485 61 303C60.34 303 59.68 303 59 303C57.961 296.768 58.167 291.253 59 285Z" fill="#70190F"/>
<path d="M114 266C120.098 265.779 125.216 265.988 131 268C131 268.66 131 269.32 131 270C118.33 270.369 118.33 270.369 113 268C113.33 267.34 113.66 266.68 114 266Z" fill="#7D2619"/>
<path d="M82 197C98.893 201.039 98.893 201.039 106 204C102.64 205.14 100.758 204.842 97.438 203.688C92.029 201.93 86.607 200.906 81 200C81.33 199.01 81.66 198.02 82 197Z" fill="#6B2418"/>
<path d="M107 239C103.973 242.235 102.104 243.917 97.52 244.098C96.626 244.086 95.733 244.074 94.812 244.062C93.461 244.049 93.461 244.049 92.082 244.035C91.395 244.024 90.708 244.012 90 244C91 242 91 242 93.328 241.148C94.292 240.893 95.257 240.638 96.25 240.375C97.681 239.984 97.681 239.984 99.141 239.586C101.856 239.03 104.239 238.889 107 239Z" fill="#6A2214"/>
<path d="M173.504 278.902C175.018 278.919 175.018 278.919 176.563 278.937C177.575 278.946 178.586 278.955 179.629 278.964C180.803 278.982 180.803 278.982 182 279C182 279.66 182 280.32 182 281C177.545 281.495 177.545 281.495 173 282C173.33 282.99 173.66 283.98 174 285C172.35 284.67 170.7 284.34 169 284C170.121 279.034 170.121 279.034 173.504 278.902Z" fill="#732113"/>
<path d="M191 271C191.99 271 192.98 271 194 271C193 274 193 274 190 276C187.844 276.301 187.844 276.301 185.5 276.312C184.34 276.338 184.34 276.338 183.156 276.363C181 276 181 276 178 273C182.29 273 186.58 273 191 273C191 272.34 191 271.68 191 271Z" fill="#6D2418"/>
<path d="M122 284C124.062 284.438 124.062 284.438 126 285C126 287.31 126 289.62 126 292C124.35 292 122.7 292 121 292C120.958 289.667 120.959 287.333 121 285C121.33 284.67 121.66 284.34 122 284Z" fill="#1E0F0F"/>
<path d="M79 256C79.66 256.33 80.32 256.66 81 257C80.844 257.523 80.688 258.047 80.527 258.586C79.628 262.701 79.601 266.904 79.379 271.102C79 274 79 274 77 276C77 273.69 77 271.38 77 269C76.67 269 76.34 269 76 269C76 266.03 76 263.06 76 260C76.66 260 77.32 260 78 260C78.33 258.68 78.66 257.36 79 256Z" fill="#F87E62"/>
<path d="M71.0003 310C71.3303 310 71.6603 310 72.0003 310C72.5313 312.748 73.0503 315.498 73.5623 318.25C73.7143 319.027 73.8653 319.805 74.0213 320.605C74.1603 321.36 74.2993 322.114 74.4413 322.891C74.5723 323.582 74.7033 324.273 74.8383 324.985C75.0173 327.213 74.6523 328.875 74.0003 331C71.1093 328.109 71.0073 326.278 70.9023 322.207C70.9093 320.742 70.9213 319.277 70.9383 317.812C70.9423 317.063 70.9473 316.313 70.9513 315.541C70.9633 313.694 70.9813 311.847 71.0003 310Z" fill="#E55147"/>
<path d="M152 218C152.99 218.66 153.98 219.32 155 220C148.474 230.393 148.474 230.393 142.688 231.812C141.801 231.874 140.914 231.936 140 232C141.731 230.087 143.243 228.86 145.5 227.562C148.825 225.484 150.539 223.509 151.688 219.75C151.842 218.884 151.842 218.884 152 218Z" fill="#6D1F12"/>
<path d="M74 330C76.65 332.357 78.035 334.753 79.562 337.938C79.976 338.792 80.39 339.647 80.816 340.527C81.207 341.343 81.598 342.159 82 343C82.664 344.335 83.33 345.669 84 347C83.34 347.33 82.68 347.66 82 348C80.656 345.756 79.325 343.506 78 341.25C77.618 340.616 77.237 339.982 76.844 339.328C74.821 335.86 74 334.107 74 330Z" fill="#E64C3C"/>
<path d="M131 268C132.32 268.33 133.64 268.66 135 269C134.01 269.495 134.01 269.495 133 270C135.475 270.99 135.475 270.99 138 272C138 272.99 138 273.98 138 275C135.69 274.67 133.38 274.34 131 274C130.67 273.01 130.34 272.02 130 271C129.34 270.67 128.68 270.34 128 270C128.99 270 129.98 270 131 270C131 269.34 131 268.68 131 268Z" fill="#7E2D1B"/>
<path d="M9 166C14.126 165.897 18.95 165.964 24 167C24 167.66 24 168.32 24 169C22.063 169.081 20.125 169.139 18.188 169.188C17.109 169.222 16.03 169.257 14.918 169.293C12 169 12 169 10.113 167.488C9.562 166.752 9.562 166.752 9 166Z" fill="#FFA48F"/>
<path d="M172 298C174.062 298.438 174.062 298.438 176 299C176 300.98 176 302.96 176 305C174.35 305 172.7 305 171 305C170.957 303 170.959 301 171 299C171.33 298.67 171.66 298.34 172 298Z" fill="#271316"/>
<path d="M181.188 223.875C182.089 223.893 182.99 223.911 183.918 223.93C184.606 223.953 185.293 223.976 186 224C186 224.99 186 225.98 186 227C180.965 228.007 177.761 227.974 173 226C176.314 223.791 177.345 223.775 181.188 223.875Z" fill="#6D2216"/>
<path d="M52 258C54.935 261.913 55.39 262.727 55.688 267.25C55.753 268.142 55.819 269.034 55.887 269.953C55.924 270.629 55.961 271.304 56 272C55.34 271.67 54.68 271.34 54 271C54 270.01 54 269.02 54 268C53.34 268 52.68 268 52 268C52 264.7 52 261.4 52 258Z" fill="#892714"/>
<path d="M110 171C110.33 171.66 110.66 172.32 111 173C105.72 173.66 100.44 174.32 95 175C97 172 97 172 99.688 171.312C103.147 170.986 106.527 170.931 110 171Z" fill="#7F3733"/>
<path d="M50.9998 264C51.3298 265.32 51.6598 266.64 51.9998 268C52.6598 268 53.3198 268 53.9998 268C54.2218 269.79 54.4268 271.582 54.6248 273.375C54.7408 274.373 54.8568 275.37 54.9768 276.398C54.9838 277.257 54.9918 278.115 54.9998 279C54.3398 279.66 53.6798 280.32 52.9998 281C51.7018 275.239 50.7428 269.913 50.9998 264Z" fill="#5C211C"/>
<path d="M51.0003 243C51.3303 243 51.6603 243 52.0003 243C52.9343 248.417 53.2083 251.805 51.0003 257C50.6703 257 50.3403 257 50.0003 257C49.9733 254.854 49.9543 252.708 49.9383 250.562C49.9263 249.368 49.9143 248.173 49.9023 246.941C50.0003 244 50.0003 244 51.0003 243Z" fill="#822916"/>
<path d="M286 417C286.99 417.495 286.99 417.495 288 418C288.484 420.215 288.484 420.215 288.75 422.938C288.848 423.833 288.946 424.729 289.047 425.652C289 428 289 428 287 430C286.128 427.005 285.892 424.364 285.938 421.25C285.947 420.451 285.956 419.652 285.965 418.828C285.976 418.225 285.988 417.622 286 417Z" fill="#F36658"/>
<path d="M62 239C61.67 239.66 61.34 240.32 61 241C58.351 241.594 55.708 241.742 53 242C53.33 241.01 53.66 240.02 54 239C56.958 237.776 58.997 238.035 62 239Z" fill="#6B2415"/>
<path d="M112 268C112.99 268 113.98 268 115 268C115.33 268.99 115.66 269.98 116 271C116.99 271.66 117.98 272.32 119 273C116.69 273 114.38 273 112 273C111.438 271.062 111.438 271.062 111 269C111.33 268.67 111.66 268.34 112 268Z" fill="#58160A"/>
<path d="M107 239C105.188 241 105.188 241 103 243C102.01 243 101.02 243 100 243C100 242.34 100 241.68 100 241C99.01 240.67 98.02 240.34 97 240C100.406 239.222 103.508 238.9 107 239Z" fill="#6C2415"/>
<path d="M98 380C98.99 380.99 99.98 381.98 101 383C100.257 383.413 99.515 383.825 98.75 384.25C96.098 385.937 94.133 387.709 92 390C92.414 385.167 94.464 383.173 98 380Z" fill="#F7A77B"/>
<path d="M120 286C120.33 286 120.66 286 121 286C121 287.98 121 289.96 121 292C122.65 292 124.3 292 126 292C126 292.66 126 293.32 126 294C123.125 294.188 123.125 294.188 120 294C119.34 293.01 118.68 292.02 118 291C118.66 291 119.32 291 120 291C120 289.35 120 287.7 120 286Z" fill="#E4715C"/>
<path d="M132 269C134.843 268.769 136.461 268.641 138.875 270.25C140 272 140 272 139.688 274.188C139.461 274.786 139.234 275.384 139 276C138.67 274.68 138.34 273.36 138 272C137.196 271.876 136.391 271.752 135.562 271.625C134.717 271.419 133.871 271.212 133 271C132.67 270.34 132.34 269.68 132 269Z" fill="#6F200D"/>
<path d="M59.0003 285C61.1443 288.216 61.6763 290.191 62.0003 294C61.3403 294.66 60.6803 295.32 60.0003 296C58.7973 293.595 58.8993 292.05 58.9383 289.375C58.9473 288.558 58.9563 287.74 58.9653 286.898C58.9763 286.272 58.9883 285.645 59.0003 285Z" fill="#A12C19"/>
<path d="M126 267C127.65 267.33 129.3 267.66 131 268C131 268.66 131 269.32 131 270C127.04 270 123.08 270 119 270C119 269.67 119 269.34 119 269C121.31 269 123.62 269 126 269C126 268.34 126 267.68 126 267Z" fill="#752211"/>
<path d="M82 183C83.416 182.946 84.833 182.907 86.25 182.875C87.039 182.852 87.828 182.829 88.641 182.805C91.207 183.017 92.792 183.713 95 185C90.155 186.514 86.741 185.366 82 184C82 183.67 82 183.34 82 183Z" fill="#661B12"/>
<path d="M93 359C94.152 359.93 95.297 360.869 96.438 361.812C97.076 362.335 97.714 362.857 98.371 363.395C100 365 100 365 101 368C97.206 366.51 95.317 364.309 93 361C93 360.34 93 359.68 93 359Z" fill="#E84E3C"/>
<path d="M187 284C186.67 285.32 186.34 286.64 186 288C184.02 287.34 182.04 286.68 180 286C183 284 183 284 187 284Z" fill="#6F1C10"/>
<path d="M147 227C147.66 227.66 148.32 228.32 149 229C144.569 232.077 144.569 232.077 141.688 231.688C141.131 231.461 140.574 231.234 140 231C142.31 229.68 144.62 228.36 147 227Z" fill="#6E1F16"/>
<path d="M189 269C189.99 269.66 190.98 270.32 192 271C191.67 271.66 191.34 272.32 191 273C189.35 273 187.7 273 186 273C186 272.01 186 271.02 186 270C186.99 269.67 187.98 269.34 189 269Z" fill="#8E2A13"/>
<path d="M128 168C138.107 163.176 148.999 165.886 158.188 171.285C164.36 175.482 169.53 181.53 171 189C172.3 188.876 173.599 188.752 174.938 188.625C181.962 188.658 186.172 192.416 191.168 196.979C196.612 202.586 199.522 208.643 202 216C202.369 217.068 202.738 218.137 203.118 219.238C204.216 223.92 204.293 228.273 204.25 233.062C204.258 233.934 204.266 234.806 204.274 235.705C204.259 240.535 203.877 244.466 202 249C202.582 248.974 203.164 248.947 203.763 248.92C231.021 247.867 257.933 254.995 282 268C291.567 276.943 296.105 291.044 301 302.926C303.43 308.778 306.118 314.441 309 320.082C311.745 325.453 314.334 330.886 316.86 336.364C319.068 341.119 321.399 345.808 323.754 350.492C334.308 371.511 345.007 392.861 353 415C353.28 415.761 353.559 416.522 353.847 417.306C357.5 427.639 358.458 437.558 358.562 448.5C358.578 449.669 358.592 450.839 358.607 452.043C358.494 461.398 357.11 470.056 350.5 477.062C345.6 481.618 340.453 482.695 334.062 483.937C333.303 484.094 332.543 484.251 331.76 484.412C324.684 485.814 317.556 486.8 310.415 487.802C300.424 489.208 290.463 490.782 280.5 492.375C279.557 492.525 278.614 492.675 277.642 492.83C264.161 494.977 250.696 497.202 237.252 499.577C236.177 499.767 235.101 499.957 233.993 500.152C232.606 500.4 232.606 500.4 231.191 500.652C229 501 229 501 227 501C224.269 515.319 222.415 529.413 221.86 543.995C221.775 545.693 221.775 545.693 221.688 547.426C221.651 548.43 221.613 549.435 221.575 550.47C221 553 221 553 219.271 554.786C210.463 559.497 197.57 558.062 187.774 558.14C154.461 558.136 154.461 558.136 122 565C119.898 564.962 117.796 564.924 115.693 564.881C104.47 564.852 98.793 567.754 90.79 575.335C87.5912 578.311 84.1913 581.045 80.8135 583.812C80.1075 584.398 79.3999 584.984 78.6719 585.588C71.0999 591.835 63.197 597.609 55.249 603.366C53.1201 604.913 51.0007 606.474 48.8867 608.043C42.2358 612.973 35.5285 617.736 28.6016 622.273C26.3117 623.793 24.0878 625.37 21.876 627C19 629 19 629 17 629C16.864 597.729 16.7573 566.458 16.6943 535.187C16.6873 531.497 16.6789 527.807 16.6709 524.117C16.6689 523.015 16.669 523.015 16.666 521.891C16.64 509.989 16.5931 498.085 16.5381 486.184C16.4821 473.976 16.4475 461.767 16.4355 449.558C16.4275 442.022 16.4015 434.486 16.3525 426.95C16.3175 421.176 16.3143 415.402 16.3223 409.627C16.3203 407.255 16.3082 404.883 16.2852 402.511C16.2562 399.28 16.2633 396.051 16.2793 392.82C16.2613 391.874 16.2436 390.929 16.2256 389.955C16.2596 387.49 16.339 385.374 17 383V382.999C10.4892 382.997 16.9875 376.013 17 376V321C20.289 322.644 22.7125 324.194 25.5635 326.437C26.7104 327.332 26.7099 327.333 27.8789 328.246C29.9999 330 30.0003 330 31.5283 331.785C32.9233 333.19 35.0551 335.143 37 335C40.177 333.44 39.948 328.954 42.126 326.25C42.5979 325.672 43.0707 325.095 43.5576 324.499C44.5476 323.285 45.5317 322.067 46.5117 320.845C47.9667 319.041 49.4514 317.266 50.9424 315.492C51.8594 314.371 52.7745 313.248 53.6885 312.125C54.5174 311.117 55.3463 310.109 56.2002 309.07C58.6692 304.861 58.6161 301.806 57.5791 297.081C57.0191 294.974 56.393 292.896 55.75 290.812C51.6961 276.929 48.9035 262.895 47.6885 248.479C47.0825 245.414 46.5186 243.901 44.9727 241.312C42.3179 236.854 42.116 234.033 43 229C47.069 215.293 56.366 204.256 67 195H69C68.712 194.113 68.423 193.226 68.126 192.312C68.084 191.219 68.043 190.126 68 189C72.048 184.764 75.061 183.102 80.7969 182.902C81.7719 182.914 82.746 182.925 83.75 182.937C84.735 182.946 85.7204 182.955 86.7354 182.965C87.856 182.982 87.8561 182.982 89 183C89.109 182.242 89.2171 181.484 89.3291 180.703C90.2481 177.003 91.7253 175.567 94.6533 173.234C100.987 169.904 108.589 170.465 115.313 172.25C118.15 172.949 119.463 173.223 122.184 172.094C124.18 170.796 126.086 169.415 128 168ZM203.125 266C201.98 266 198.5 266 203.125 271C194.5 268 195.518 271.722 191.617 273.812C188.479 276.771 188.479 276.771 187.377 285.74C187.133 287.853 186.833 289.961 186.47 292.057C186.176 293.582 186.176 293.582 185.887 295.078C183.842 305.733 181.694 316.214 178.238 326.508C177.613 328.271 177.613 328.271 177 330C176.611 331.145 176.233 332.256 175.855 333.367C169.673 350.613 159.514 367.257 142.437 375.438C134.007 378.475 123.605 378.446 115.313 375.062C108 370 110 370.5 106 372C105.554 372.473 105.121 372.932 104.687 373.391C104.114 374.023 103.557 374.636 103 375.25C100.228 378.253 100 378.632 100 383C112.518 385.715 125.036 388.429 137.593 390.956C138.624 391.162 139.624 391.362 140.625 391.562C145.877 392.62 151.128 393.668 156.403 394.604C166.662 396.392 177.003 397.588 186.437 402.188C191.288 404.771 195.569 405.71 201 406.5C201.984 406.615 201.035 406.388 202 406.5C209.5 407 207.942 406.746 208.5 407C210.809 407.23 208.5 407 211 407C218.5 408 211 407 217 407.5L220.5 409H225L226.992 409.919C236.391 414.22 238.036 414.211 264.362 414.075C266.019 414.067 267.676 414.06 269.333 414.055C274.222 414.043 279.111 414.025 284 414C283.621 409.853 283.191 405.813 282.238 401.754C280.199 394.725 278.421 387.659 276.778 380.528C276.385 378.809 276.385 378.809 276 377.125C275.48 374.854 274.961 372.583 274.441 370.312C272.502 361.812 270.583 353.303 268.459 344.846C268.172 343.716 268.172 343.716 267.891 342.609C267.49 341.031 267.089 339.453 266.687 337.875C265.258 332.272 265.607 327.647 264.362 322C264.202 321.273 264.517 318.706 264.362 318C263.576 314.438 263.428 312.567 262.665 309C262.373 307.637 259.271 305.455 258.972 304.093C258.829 303.441 258.69 302.808 258.551 302.176C257.79 298.642 257.79 298.642 257 296C256.32 295.66 257.66 292.387 257 292.057C248 282.797 234.221 288.682 225 279C219.79 273.27 211.231 266.445 203.125 266Z" fill="#B4C7F2"/>
<path d="M160.188 168.83C166.469 173.084 171.73 179.215 173.226 186.787C174.549 186.661 175.871 186.535 177.234 186.407C184.382 186.44 188.666 190.249 193.75 194.876C199.29 200.559 202.251 206.698 204.773 214.155C205.149 215.238 205.524 216.321 205.911 217.437C207.028 222.183 207.107 226.596 207.063 231.45C207.071 232.334 207.079 233.218 207.087 234.129C207.072 239.025 206.683 243.01 204.773 247.606C203.928 247.704 203.928 247.704 203.067 247.804C187.615 248.977 187.615 248.977 174.244 255.715C173.165 258.178 173.165 258.178 173.226 260.783C174.183 262.745 174.183 262.745 176.279 263.824C179.61 264.24 182.871 264.269 186.226 264.327C190.121 264.933 191.73 266.274 194.597 268.892C195.268 269.227 195.94 269.561 196.632 269.906C195.614 272.947 195.614 272.947 192.561 274.974C191.745 277.705 191.745 277.705 191.33 280.961C191.039 282.802 191.039 282.802 190.743 284.679C190.546 285.993 190.348 287.305 190.146 288.658C188.3 300.248 185.923 311.42 182.385 322.616C182.076 323.683 181.766 324.75 181.448 325.85C175.97 343.821 165.648 363.697 148.772 373.267C139.586 378.059 129.34 379.234 119.208 376.509C116.787 375.543 114.493 374.471 112.168 373.298C110.478 372.609 108.783 371.93 107.08 371.271C106.828 371.845 106.574 372.418 106.314 373.009C104.848 375.685 103.096 377.694 101.038 379.95C100.336 380.725 99.6349 381.5 98.9114 382.298C96.9036 384.448 96.9035 384.448 95.1634 386.048C93.1424 388.269 93.1566 390.671 92.833 393.571C82.1346 396.655 73.6853 394.942 61.5 387.5C59.4983 386.278 67 390.592 64.0433 389C61.0865 387.408 53 381 53 381C48.7908 381 39.7673 371.5 36.6126 361.5C34.5773 359.5 34.5031 355.034 33.8101 354C32.9176 349.125 33 341.5 31.5 340C33.2707 337.946 31.677 336.457 33.81 334.779C34.4827 334.779 35.1533 334.779 35.8453 334.779C36.0987 334.212 36.3521 333.645 36.6126 333.061C38.0973 330.328 39.8802 328.163 41.888 325.783C42.693 324.808 43.4989 323.834 44.3283 322.83C45.7306 321.14 47.14 319.457 48.5637 317.786C50.1278 315.945 51.6696 314.087 53.2092 312.226C53.7069 311.652 54.2045 311.078 54.7174 310.487C57.0732 307.607 58.2008 305.634 58.6913 301.927C58.1682 297.764 57.1821 293.987 55.9436 289.988C51.8181 275.916 48.9759 261.691 47.7394 247.079C47.1228 243.971 46.5498 242.438 44.9766 239.813C42.2747 235.294 42.0692 232.434 42.9687 227.333C47.1095 213.439 56.5705 202.251 67.3921 192.869C68.0637 192.869 68.7353 192.869 69.4273 192.869C69.1343 191.969 68.8402 191.07 68.5379 190.144C68.4952 189.036 68.4535 187.928 68.4097 186.787C72.5291 182.493 75.5952 180.808 81.4324 180.605C82.4246 180.618 83.4158 180.629 84.4375 180.641C85.4399 180.65 86.4422 180.659 87.4751 180.669C88.6159 180.687 88.6159 180.687 89.7801 180.705C89.891 179.936 90.0009 179.168 90.1149 178.376C91.0501 174.626 92.5531 173.17 95.5328 170.805C101.979 167.43 109.714 167.999 116.557 169.808C119.444 170.517 120.78 170.794 123.549 169.65C125.581 168.334 127.52 166.934 129.468 165.5C139.753 160.61 150.837 163.357 160.188 168.83Z" fill="#FFA48F"/>
<path d="M204.664 246.065C205.424 246.068 206.185 246.071 206.969 246.074C231.173 246.251 269.537 252.531 288.024 268.644C296.127 278.068 300.734 290.387 305.623 301.451C308.275 307.406 311.209 313.169 314.355 318.909C317.351 324.375 320.177 329.904 322.933 335.478C325.344 340.317 327.888 345.089 330.458 349.856C341.978 371.245 353.654 392.973 362.379 415.501C362.684 416.275 362.989 417.05 363.304 417.848C367.291 428.364 368.337 438.457 368.45 449.592C368.466 450.781 368.483 451.972 368.5 453.197C368.377 462.717 366.864 471.529 359.65 478.657C354.301 483.294 348.686 484.39 341.709 485.655C340.466 485.893 340.466 485.893 339.197 486.137C331.481 487.562 323.71 488.564 315.923 489.583C305.915 490.896 295.933 492.358 285.953 493.848C282.827 494.316 279.7 494.781 276.573 495.245C267.718 496.561 258.866 497.888 250.027 499.297C248.216 499.585 248.216 499.585 246.368 499.879C244.258 500.219 242.149 500.563 240.041 500.914C234.89 501.746 230.085 502.165 224.856 502C226.685 477.844 229.136 453.762 232.496 429.748C233.216 424.375 233.937 419.002 234.679 413.466C251.967 413.466 265.187 413.466 283 413.466C278.907 396.559 279.105 398.246 274.5 381.535C272.788 375.544 272.954 369.584 271.5 363.535C269.877 356.799 267.822 349.227 266 342.535C264.143 335.675 263.447 328.917 261.688 322.035C261.294 320.498 262.874 319.456 262.473 317.888C262.084 316.364 262.084 316.364 261.688 314.809C261.128 312.674 260.546 310.545 259.945 308.421C259.495 306.826 257.96 307.662 257.5 306.035C257.225 305.086 259.945 305.199 257.5 305.199C256.851 302.156 254.021 298.63 254.124 295.535C252.977 295.435 255.306 293.186 254.124 293.083C237.169 291.465 226.449 286.312 214.601 274.638C214.024 274.108 213.446 273.579 212.85 273.032C212.257 272.46 207.58 270.778 206.969 270.188C203.5 271.035 200.716 271.465 198.5 271.535C192.359 271.731 187.054 269.579 182.289 265.909C181.929 265.573 181.371 265.346 181 265C177.435 264.791 174.07 264.566 170.5 264.458C166.435 263.778 165.107 262.837 162.643 259.803C162.37 257.322 162.37 257.322 163.734 254.715C173.901 245.559 191.516 245.975 204.664 246.065Z" fill="#FFA48F"/>
<path d="M160.272 168.897C166.53 173.17 171.772 179.328 173.262 186.933C174.58 186.807 175.897 186.681 177.255 186.551C184.377 186.585 188.646 190.411 193.711 195.058C199.231 200.766 202.182 206.932 204.694 214.423C205.068 215.51 205.443 216.598 205.828 217.719C206.941 222.486 207.019 226.918 206.976 231.794C206.984 232.682 206.992 233.57 207 234.485C206.985 239.402 206.597 243.405 204.694 248.021C203.853 248.12 203.853 248.12 202.994 248.22C187.598 249.398 187.598 249.398 174.276 256.166C173.201 258.64 173.201 258.64 173.262 261.257C174.215 263.228 174.215 263.228 176.304 264.311C179.623 264.728 182.871 264.758 186.214 264.816C190.096 265.425 191.699 266.772 194.555 269.402C195.224 269.738 195.893 270.074 196.583 270.42C195.569 273.474 195.569 273.474 192.527 275.51C187.474 276.461 183.374 275.879 178.967 273.22C175.55 270.78 172.751 268.687 171.828 264.39C171.23 261.932 170.703 260.255 169.206 258.202C166.263 257.18 163.346 256.697 160.284 256.13C155.482 254.676 152.767 251.73 149.249 248.259C146.18 245.286 142.844 242.361 138.788 240.894C134.959 241.261 132.043 242.643 128.649 244.393C124.276 246.483 120.529 247.423 115.721 247.957C110.641 248.634 107.367 249.453 103.724 253.147C100.819 257.19 99.0672 261.748 97.2168 266.347C94.687 272.225 92.0852 276.515 87.0774 280.601C84.8599 280.247 84.8599 280.247 83.0216 279.583C83.0571 278.245 83.0926 276.908 83.1291 275.53C83.1575 273.763 83.1848 271.996 83.2122 270.228C83.2376 269.349 83.2629 268.469 83.2893 267.562C83.3765 260.825 83.3765 260.825 79.9798 255.148C75.119 254.427 72.9359 254.592 68.573 256.865C65.2706 259.655 62.6536 262.455 60.7149 266.347C60.1066 275.966 59.8075 284.776 63.9829 293.67C64.9208 296.291 64.7606 297.381 63.7568 299.946C63.0876 300.954 62.4194 301.962 61.7289 303C61.0597 303 60.3915 303 59.701 303C54.4853 284.703 49.8273 266.5 48.2313 247.492C47.6169 244.37 47.046 242.83 45.4785 240.194C42.7865 235.655 42.5816 232.783 43.478 227.658C47.6037 213.703 57.0303 202.466 67.8125 193.042C68.4827 193.042 69.1509 193.042 69.8404 193.042C69.5484 192.139 69.2554 191.236 68.9542 190.305C68.9116 189.192 68.8701 188.079 68.8265 186.933C72.9309 182.62 75.9859 180.928 81.8018 180.724C82.7904 180.737 83.778 180.748 84.796 180.76C85.7947 180.769 86.7935 180.778 87.8226 180.789C88.9592 180.806 88.9592 180.806 90.1192 180.824C90.2297 180.053 90.3392 179.281 90.4528 178.486C91.3846 174.719 92.8822 173.256 95.851 170.881C102.273 167.491 109.98 168.062 116.799 169.879C119.675 170.591 121.007 170.87 123.766 169.721C125.79 168.399 127.722 166.993 129.663 165.552C139.911 160.641 150.955 163.4 160.272 168.897Z" fill="#792C1D"/>
<path d="M116 325.507C119.762 326.085 122.466 327.134 125.723 329.089C126.591 329.609 127.459 330.129 128.354 330.665C129.247 331.211 130.141 331.757 131.062 332.319C131.96 332.854 132.858 333.388 133.783 333.939C137.983 336.477 141.721 338.796 145 342.507C145 343.167 145 343.827 145 344.507C140.058 346.978 133.227 346.236 128.125 344.566C122.563 341.925 118.806 339.119 116 333.507C115.866 330.835 115.957 328.184 116 325.507Z" fill="#FEFAFA"/>
<path d="M127.441 266.081C136.104 267.91 136.104 267.91 138.941 269.8C140 271.507 140 271.507 139.687 274.194C139.46 274.957 139.233 275.721 139 276.507C129.838 275.944 120.982 274.299 112 272.507C111.312 270.694 111.312 270.694 111 268.507C114.614 263.146 121.922 265.16 127.441 266.081Z" fill="#7C2A1B"/>
<path d="M169 256.507C169.33 256.507 169.66 256.507 170 256.507C170.433 257.93 170.433 257.93 170.875 259.382C171.768 262.559 171.768 262.559 174 264.507C177.249 264.817 180.476 264.886 183.738 264.968C187.571 265.601 189.174 266.916 192 269.507C192.66 269.837 193.32 270.167 194 270.507C193 273.507 193 273.507 190 275.507C185.016 276.441 180.973 275.869 176.625 273.257C171.124 269.328 169.643 265.951 168.234 259.433C168.157 258.797 168.08 258.162 168 257.507C168.33 257.177 168.66 256.847 169 256.507Z" fill="#782917"/>
<path d="M50.9998 263.507C51.3298 264.827 51.6598 266.147 51.9998 267.507C52.6598 267.507 53.3198 267.507 53.9998 267.507C53.9998 270.147 53.9998 272.787 53.9998 275.507C54.6598 275.507 55.3198 275.507 55.9998 275.507C56.1208 276.073 56.2418 276.639 56.3668 277.222C56.5348 277.955 56.7018 278.689 56.8748 279.445C57.0368 280.175 57.1998 280.906 57.3668 281.659C57.8298 283.714 57.8298 283.714 59.9998 284.507C61.1048 286.87 61.1048 286.87 62.1878 289.819C62.5518 290.785 62.9168 291.751 63.2928 292.745C64.0248 295.606 64.0858 296.811 62.9998 299.507C62.3398 300.497 61.6798 301.487 60.9998 302.507C60.3398 302.507 59.6798 302.507 58.9998 302.507C58.0358 299.05 57.0798 295.591 56.1248 292.132C55.8558 291.166 55.5858 290.201 55.3088 289.206C50.6228 272.178 50.6228 272.178 50.9998 263.507Z" fill="#66251E"/>
<path d="M174.816 278.409C176.398 278.416 177.98 278.428 179.562 278.444C180.368 278.449 181.175 278.453 182.005 278.458C184.004 278.47 186.002 278.488 188 278.507C188 281.477 188 284.447 188 287.507C185.206 287.226 182.416 286.932 179.625 286.632C178.434 286.514 178.434 286.514 177.218 286.393C171.226 285.733 171.226 285.733 169 283.507C169.683 278.996 170.064 278.531 174.816 278.409Z" fill="#802C1D"/>
<path d="M70.9998 309.507C71.3298 309.507 71.6598 309.507 71.9998 309.507C72.1698 310.607 72.3398 311.706 72.5158 312.839C75.7808 333.124 83.6248 348.555 98.5618 363.069C99.3668 363.874 100.171 364.678 101 365.507C101 366.167 101 366.827 101 367.507C88.8968 362.204 79.8978 344.632 73.9998 333.507C73.6378 332.857 73.2758 332.208 72.9018 331.538C69.7258 324.802 70.7618 316.768 70.9998 309.507Z" fill="#DE4735"/>
<path d="M286 416.507C286.99 417.002 286.99 417.002 288 417.507C288.614 420.465 289.135 423.403 289.625 426.382C292.132 440.154 297.232 453.085 304.969 464.792C306 466.507 306 466.507 306 468.507C305.34 468.507 304.68 468.507 304 468.507C303.34 466.857 302.68 465.207 302 463.507C301.34 463.507 300.68 463.507 300 463.507C292.722 448.531 285.461 433.488 286 416.507Z" fill="#E75B4B"/>
<path d="M170 194.507C170.33 194.507 170.66 194.507 171 194.507C170.736 200.966 168.614 204.081 164 208.507C162.609 209.659 161.213 210.805 159.812 211.945C156.323 214.892 155.01 217.267 153.703 221.581C152.24 225.589 149.418 228.519 145.938 230.945C143.59 231.626 142.313 231.166 140 230.507C140.543 230.192 141.085 229.878 141.645 229.554C148.589 225.4 150.842 222.007 154 214.507C156.013 210.179 158.091 208.797 162.289 206.601C166.505 203.905 168.392 199.063 170 194.507Z" fill="#6D1D13"/>
<path d="M153 298.507C153.66 298.837 154.32 299.167 155 299.507C155.124 303.564 155.214 307.619 155.275 311.677C155.3 313.057 155.334 314.436 155.377 315.815C155.438 317.8 155.464 319.787 155.488 321.773C155.514 322.967 155.541 324.161 155.568 325.391C155 328.507 155 328.507 152.708 330.881C149.451 332.836 146.758 333.212 143 333.507C142.67 332.847 142.34 332.187 142 331.507C142.638 331.325 143.276 331.143 143.934 330.956C144.76 330.705 145.586 330.453 146.438 330.195C147.261 329.951 148.085 329.707 148.934 329.456C149.616 329.143 150.297 328.83 151 328.507C152.08 325.268 152.204 322.715 152.316 319.308C152.358 318.099 152.4 316.891 152.443 315.646C152.483 314.383 152.522 313.12 152.562 311.819C152.606 310.545 152.649 309.271 152.693 307.958C152.8 304.808 152.902 301.658 153 298.507Z" fill="#F16553"/>
<path d="M52 257.507C54.807 261.25 55.201 262.286 56 266.507C56.66 266.837 57.32 267.167 58 267.507C58.33 266.847 58.66 266.187 59 265.507C59 271.777 59 278.047 59 284.507C58.34 284.177 57.68 283.847 57 283.507C56.406 280.858 56.258 278.215 56 275.507C55.34 275.507 54.68 275.507 54 275.507C54 272.867 54 270.227 54 267.507C53.34 267.507 52.68 267.507 52 267.507C52 264.207 52 260.907 52 257.507Z" fill="#892413"/>
<path d="M112 267.507C112.99 267.507 113.98 267.507 115 267.507C115.33 268.497 115.66 269.487 116 270.507C126.89 272.487 126.89 272.487 138 274.507C138 273.517 138 272.527 138 271.507C137.196 271.383 136.391 271.259 135.562 271.132C134.294 270.823 134.294 270.823 133 270.507C132.67 269.847 132.34 269.187 132 268.507C134.804 268.28 136.462 268.166 138.875 269.695C140 271.507 140 271.507 139.57 274.12C139.382 274.908 139.194 275.696 139 276.507C129.838 275.944 120.983 274.299 112 272.507C111.438 270.569 111.438 270.569 111 268.507C111.33 268.177 111.66 267.847 112 267.507Z" fill="#692110"/>
<path d="M125 169.507C125.33 170.167 125.66 170.827 126 171.507C124.68 172.827 123.36 174.147 122 175.507C122.969 175.59 123.939 175.672 124.938 175.757C132.288 176.83 138.115 179.903 143 185.507C143.598 186.105 144.196 186.703 144.812 187.319C145.204 187.711 145.596 188.103 146 188.507C145.67 189.167 145.34 189.827 145 190.507C142.959 188.891 140.959 187.221 139 185.507C139 184.847 139 184.187 139 183.507C137.762 183.115 136.525 182.723 135.25 182.319C129.368 180.368 123.694 177.945 118 175.507C118.99 175.177 119.98 174.847 121 174.507C121.699 173.191 122.367 171.857 123 170.507C123.66 170.177 124.32 169.847 125 169.507Z" fill="#691E13"/>
<path d="M77 261.507C77.33 261.507 77.66 261.507 78 261.507C78.221 267.605 78.012 272.723 76 278.507C74.68 278.837 73.36 279.167 72 279.507C72.165 280.497 72.33 281.487 72.5 282.507C73.064 286.581 73.279 290.393 73 294.507C72.01 295.167 71.02 295.827 70 296.507C70.021 295.393 70.041 294.279 70.062 293.132C70.071 288.218 69.56 283.384 69 278.507C70.98 277.847 72.96 277.187 75 276.507C75.66 271.557 76.32 266.607 77 261.507Z" fill="#EA634D"/>
<path d="M82 182.507C90.963 181.734 99.01 184.512 107 188.507C106.67 189.497 106.34 190.487 106 191.507C105.01 191.115 104.02 190.723 103 190.319C96.112 187.724 89.033 185.666 82 183.507C82 183.177 82 182.847 82 182.507Z" fill="#642015"/>
<path d="M47.9996 243.507C48.9896 244.002 48.9896 244.002 49.9996 244.507C50.4136 247.011 50.4136 247.011 50.6246 250.069C50.6996 251.081 50.7746 252.093 50.8516 253.136C50.9246 254.31 50.9246 254.31 50.9996 255.507C51.6596 254.187 52.3196 252.867 52.9996 251.507C53.2226 252.942 53.4276 254.38 53.6246 255.819C53.7406 256.62 53.8566 257.421 53.9766 258.245C53.9996 260.507 53.9996 260.507 51.9996 263.507C51.3176 264.833 50.6476 266.165 49.9996 267.507C48.5616 259.431 47.7036 251.713 47.9996 243.507Z" fill="#6E2F24"/>
<path d="M286 416.507C286.99 417.002 286.99 417.002 288 417.507C288.578 419.345 288.578 419.345 289.035 421.734C289.205 422.601 289.374 423.469 289.549 424.362C289.718 425.276 289.888 426.19 290.062 427.132C290.236 428.023 290.409 428.913 290.588 429.831C291.525 434.709 292.346 439.583 293 444.507C290.41 441.917 289.973 439.635 288.938 436.132C288.596 434.99 288.254 433.848 287.902 432.671C287.456 431.105 287.456 431.105 287 429.507C286.694 428.459 286.694 428.459 286.383 427.39C285.925 425.14 285.904 423.051 285.938 420.757C285.947 419.958 285.956 419.159 285.965 418.335C285.976 417.732 285.988 417.129 286 416.507Z" fill="#E55146"/>
<path d="M82 196.507C98.893 200.546 98.893 200.546 106 203.507C102.64 204.647 100.758 204.349 97.438 203.195C92.029 201.437 86.607 200.413 81 199.507C81.33 198.517 81.66 197.527 82 196.507Z" fill="#6B2418"/>
<path d="M107 238.507C103.973 241.742 102.104 243.424 97.52 243.605C96.626 243.593 95.733 243.581 94.812 243.569C93.461 243.556 93.461 243.556 92.082 243.542C91.395 243.531 90.708 243.519 90 243.507C91 241.507 91 241.507 93.328 240.655C94.292 240.4 95.257 240.145 96.25 239.882C97.681 239.491 97.681 239.491 99.141 239.093C101.856 238.537 104.239 238.396 107 238.507Z" fill="#6A2214"/>
<path d="M173.504 278.409C175.018 278.426 175.018 278.426 176.563 278.444C177.575 278.453 178.586 278.462 179.629 278.471C180.803 278.489 180.803 278.489 182 278.507C182 279.167 182 279.827 182 280.507C177.545 281.002 177.545 281.002 173 281.507C173.33 282.497 173.66 283.487 174 284.507C172.35 284.177 170.7 283.847 169 283.507C170.121 278.541 170.121 278.541 173.504 278.409Z" fill="#732113"/>
<path d="M191 270.507C191.99 270.507 192.98 270.507 194 270.507C193 273.507 193 273.507 190 275.507C187.844 275.808 187.844 275.808 185.5 275.819C184.34 275.845 184.34 275.845 183.156 275.87C181 275.507 181 275.507 178 272.507C182.29 272.507 186.58 272.507 191 272.507C191 271.847 191 271.187 191 270.507Z" fill="#6D2418"/>
<path d="M122 283.507C124.062 283.945 124.062 283.945 126 284.507C126 286.817 126 289.127 126 291.507C124.35 291.507 122.7 291.507 121 291.507C120.958 289.174 120.959 286.84 121 284.507C121.33 284.177 121.66 283.847 122 283.507Z" fill="#1E0F0F"/>
<path d="M79 255.507C79.66 255.837 80.32 256.167 81 256.507C80.844 257.03 80.688 257.554 80.527 258.093C79.628 262.208 79.601 266.411 79.379 270.609C79 273.507 79 273.507 77 275.507C77 273.197 77 270.887 77 268.507C76.67 268.507 76.34 268.507 76 268.507C76 265.537 76 262.567 76 259.507C76.66 259.507 77.32 259.507 78 259.507C78.33 258.187 78.66 256.867 79 255.507Z" fill="#F87E62"/>
<path d="M71.0003 309.507C71.3303 309.507 71.6603 309.507 72.0003 309.507C72.5313 312.255 73.0503 315.005 73.5623 317.757C73.7143 318.534 73.8653 319.312 74.0213 320.112C74.1603 320.867 74.2993 321.621 74.4413 322.398C74.5723 323.089 74.7033 323.78 74.8383 324.492C75.0173 326.72 74.6523 328.382 74.0003 330.507C71.1093 327.616 71.0073 325.785 70.9023 321.714C70.9093 320.249 70.9213 318.784 70.9383 317.319C70.9423 316.57 70.9473 315.82 70.9513 315.048C70.9633 313.201 70.9813 311.354 71.0003 309.507Z" fill="#E55147"/>
<path d="M152 218C152.99 218.66 153.98 219.32 155 220C148.474 230.393 148.474 230.393 142.688 231.812C141.801 231.874 140.914 231.936 140 232C141.731 230.087 143.243 228.86 145.5 227.562C148.825 225.484 150.539 223.509 151.688 219.75C151.842 218.884 151.842 218.884 152 218Z" fill="#6D1F12"/>
<path d="M74 329.507C76.65 331.864 78.035 334.26 79.562 337.445C79.976 338.299 80.39 339.154 80.816 340.034C81.207 340.85 81.598 341.666 82 342.507C82.664 343.842 83.33 345.176 84 346.507C83.34 346.837 82.68 347.167 82 347.507C80.656 345.263 79.325 343.013 78 340.757C77.618 340.123 77.237 339.489 76.844 338.835C74.821 335.367 74 333.614 74 329.507Z" fill="#E64C3C"/>
<path d="M172 298C174.062 298.438 174.062 298.438 176 299C176 300.98 176 302.96 176 305C174.35 305 172.7 305 171 305C170.957 303 170.959 301 171 299C171.33 298.67 171.66 298.34 172 298Z" fill="#271316"/>
<path d="M181.188 223.875C182.089 223.893 182.99 223.911 183.918 223.93C184.606 223.953 185.293 223.976 186 224C186 224.99 186 225.98 186 227C180.965 228.007 177.761 227.974 173 226C176.314 223.791 177.345 223.775 181.188 223.875Z" fill="#6D2216"/>
<path d="M51.0003 242.507C51.3303 242.507 51.6603 242.507 52.0003 242.507C52.9343 247.924 53.2083 251.312 51.0003 256.507C50.6703 256.507 50.3403 256.507 50.0003 256.507C49.9733 254.361 49.9543 252.215 49.9383 250.069C49.9263 248.875 49.9143 247.68 49.9023 246.448C50.0003 243.507 50.0003 243.507 51.0003 242.507Z" fill="#822916"/>
<path d="M286 416.507C286.99 417.002 286.99 417.002 288 417.507C288.484 419.722 288.484 419.722 288.75 422.445C288.848 423.34 288.946 424.236 289.047 425.159C289 427.507 289 427.507 287 429.507C286.128 426.512 285.892 423.871 285.938 420.757C285.947 419.958 285.956 419.159 285.965 418.335C285.976 417.732 285.988 417.129 286 416.507Z" fill="#F36658"/>
<path d="M62 238.506C61.67 239.166 61.34 239.826 61 240.506C58.351 241.1 55.708 241.248 53 241.506C53.33 240.516 53.66 239.526 54 238.506C56.958 237.282 58.997 237.541 62 238.506Z" fill="#6B2415"/>
<path d="M112 267.507C112.99 267.507 113.98 267.507 115 267.507C115.33 268.497 115.66 269.487 116 270.507C116.99 271.167 117.98 271.827 119 272.507C116.69 272.507 114.38 272.507 112 272.507C111.438 270.569 111.438 270.569 111 268.507C111.33 268.177 111.66 267.847 112 267.507Z" fill="#58160A"/>
<path d="M107 239C105.188 241 105.188 241 103 243C102.01 243 101.02 243 100 243C100 242.34 100 241.68 100 241C99.01 240.67 98.02 240.34 97 240C100.406 239.222 103.508 238.9 107 239Z" fill="#6C2415"/>
<path d="M98 380C98.99 380.99 99.98 381.98 101 383C100.257 383.413 99.515 383.825 98.75 384.25C96.098 385.937 94.133 387.709 92 390C92.414 385.167 94.464 383.173 98 380Z" fill="#F7A77B"/>
<path d="M120 285.507C120.33 285.507 120.66 285.507 121 285.507C121 287.487 121 289.467 121 291.507C122.65 291.507 124.3 291.507 126 291.507C126 292.167 126 292.827 126 293.507C123.125 293.695 123.125 293.695 120 293.507C119.34 292.517 118.68 291.527 118 290.507C118.66 290.507 119.32 290.507 120 290.507C120 288.857 120 287.207 120 285.507Z" fill="#E4715C"/>
<path d="M59.0003 284.507C61.1443 287.723 61.6763 289.698 62.0003 293.507C61.3403 294.167 60.6803 294.827 60.0003 295.507C58.7973 293.102 58.8993 291.557 58.9383 288.882C58.9473 288.065 58.9563 287.247 58.9653 286.405C58.9763 285.779 58.9883 285.152 59.0003 284.507Z" fill="#A12C19"/>
<path d="M126 266.507C127.65 266.837 129.3 267.167 131 267.507C131 268.167 131 268.827 131 269.507C127.04 269.507 123.08 269.507 119 269.507C119 269.177 119 268.847 119 268.507C121.31 268.507 123.62 268.507 126 268.507C126 267.847 126 267.187 126 266.507Z" fill="#752211"/>
<path d="M93 358.507C94.152 359.437 95.297 360.376 96.438 361.319C97.076 361.842 97.714 362.364 98.371 362.902C100 364.507 100 364.507 101 367.507C97.206 366.017 95.317 363.816 93 360.507C93 359.847 93 359.187 93 358.507Z" fill="#E84E3C"/>
<path d="M187 283.507C186.67 284.827 186.34 286.147 186 287.507C184.02 286.847 182.04 286.187 180 285.507C183 283.507 183 283.507 187 283.507Z" fill="#6F1C10"/>
<path d="M189 268.507C189.99 269.167 190.98 269.827 192 270.507C191.67 271.167 191.34 271.827 191 272.507C189.35 272.507 187.7 272.507 186 272.507C186 271.517 186 270.527 186 269.507C186.99 269.177 187.98 268.847 189 268.507Z" fill="#8E2A13"/>
<path d="M0 103C9.93804 103 19.8761 103 30.1153 103C30.1153 151.988 30.1153 151.988 29.9234 153.987C30.0391 154.157 30.155 154.327 30.2741 154.503C31.9767 157.193 31.9767 157.193 32.4171 160.985C32.4432 163.321 32.4293 165.533 32.3879 167.863C32.3737 170.089 32.3737 170.089 32.7086 171.487C32.9925 172.982 32.9925 172.982 33 175.068C32.9737 175.823 32.9476 176.578 32.9206 177.356C32.8343 180.229 32.7925 181.813 32.9327 184.667C32.9925 186.979 32.9925 186.979 32.6449 190.228C32.2253 192.977 32.2253 192.977 31.8416 193.977C31.733 196.481 31.6701 198.987 31.6034 201.53C31.4223 204.574 31.219 205.439 30.6907 206.974C30.5008 206.974 30.3109 206.974 30.1153 206.974C30.1153 262.4 30.1153 317.826 30.1153 374.931C30.1153 374.931 30.0198 382.857 30.0194 382.429C30.0188 381.857 30.0197 382.985 30.0194 382.429C30.0476 415.347 29.9806 450.449 30.0065 483.367C30.0098 487.315 30.0128 491.263 30.0159 495.212C30.0169 496.391 30.0169 496.391 30.0178 497.593C30.028 510.339 30.0387 523.084 30.0499 535.829C30.0612 548.896 30.0717 561.963 30.0817 575.031C30.0878 583.101 30.0945 591.171 30.102 599.241C30.1076 605.418 30.1124 611.596 30.1166 617.773C30.1185 620.315 30.1206 622.857 30.1233 625.399C30.1268 628.853 30.1291 632.306 30.131 635.76C30.1323 636.781 30.1337 637.801 30.135 638.852C30.1352 639.77 30.1356 640.688 30.1358 641.634C30.1366 642.432 30.1371 643.231 30.1379 644.052C30.1153 645.863 30.1153 645.863 29.9234 646.863C29.5488 646.962 29.1736 646.989 28.7986 646.99C28.5543 646.993 28.3097 646.996 28.0578 646.999C27.7843 646.997 27.511 646.995 27.2374 646.992C26.9514 646.994 26.6652 646.996 26.3792 646.998C25.6001 647.002 24.8209 647 24.0418 646.997C23.2275 646.995 22.4132 646.997 21.599 646.999C20.2307 647.001 18.8625 646.998 17.4943 646.993C15.9118 646.988 14.3295 646.99 12.747 646.995C11.3899 647 10.0328 647 8.67569 646.998C7.8645 646.996 7.0533 646.996 6.24211 646.999C5.47906 647.002 4.71582 647 3.95277 646.994C3.67253 646.993 3.39228 646.993 3.11204 646.996C2.72975 646.998 2.34746 646.994 1.96516 646.99C1.7511 646.99 1.53703 646.989 1.31644 646.989C0.767268 646.863 0.767268 646.863 0 645.863C0 466.718 0 287.573 0 103Z" fill="#292521"/>
<path d="M32.812 154.077C36.317 155.521 37.963 156.254 40 159.589C40.143 162.043 40.063 164.364 39.847 166.812C39.773 169.15 39.773 169.15 41.519 170.618C43 172.189 43 172.189 43.039 174.379C42.902 175.172 42.765 175.966 42.624 176.783C42.174 179.8 41.957 181.463 42.687 184.461C43 186.889 43 186.889 41.187 190.301C39 193.188 39 193.188 37 194.238C36.396 196.901 36.042 199.567 35.66 202.273C35 204.738 35 204.738 32 206.838C25.306 209.007 17.587 210.341 11.105 206.875C9.437 205.722 9.437 205.722 7 203.688C7.498 199.816 8.1 197.803 11 195.288C10.051 194.66 9.102 194.033 8.124 193.386C5 191.088 5 191.088 3 187.939C3.099 183.968 3.972 182.72 6.562 179.736C7.366 178.978 8.171 178.22 9 177.439C8.009 176.746 7.019 176.053 6 175.339C5.5 172.845 5.5 172.845 6 170.089C8.25 167.662 8.25 167.662 11 165.889C12.319 165.889 13.639 165.889 15 165.889C14.339 164.85 13.68 163.81 13 162.739C13 160.179 13 160.179 14 157.489C19.819 151.837 25.524 152.571 32.812 154.077Z" fill="#FFA48F"/>
<path d="M32.811 154.077C36.316 155.521 37.962 156.254 39.999 159.589C40.18 162.075 40.125 164.43 39.944 166.915C39.773 169.284 39.773 169.284 41.999 171.139C41.669 172.179 41.338 173.218 40.999 174.289C37.999 170.352 37.999 170.352 37.999 167.989C30.584 166.06 23.622 165.641 15.999 165.889C15.999 165.196 15.999 164.503 15.999 163.789C15.008 163.443 14.018 163.096 12.999 162.739C13.2 158.923 13.782 157.7 16.499 155.062C22.135 152.208 26.784 152.832 32.811 154.077Z" fill="#FFA48F"/>
<path d="M18.999 164.839C24.125 164.73 28.949 164.801 33.999 165.889C33.999 166.581 33.999 167.274 33.999 167.988C32.062 168.073 30.124 168.134 28.187 168.186C27.108 168.222 26.029 168.258 24.917 168.296C21.999 167.988 21.999 167.988 20.112 166.401C19.561 165.628 19.561 165.628 18.999 164.839Z" fill="#FFA48F"/>
</svg>
