<svg width="194" height="216" viewBox="0 0 194 216" fill="none" xmlns="http://www.w3.org/2000/svg">
<mask id="mask0_241_2293" style="mask-type:luminance" maskUnits="userSpaceOnUse" x="0" y="0" width="194" height="216">
<path d="M0 0.446289H193.699V215.113H0V0.446289Z" fill="white"/>
</mask>
<g mask="url(#mask0_241_2293)">
<mask id="mask1_241_2293" style="mask-type:luminance" maskUnits="userSpaceOnUse" x="-137" y="-78" width="381" height="348">
<path d="M1.19218 -77.5273L243.201 95.7175L105.153 269.733L-136.855 96.4883L1.19218 -77.5273Z" fill="white"/>
</mask>
<g mask="url(#mask1_241_2293)">
<mask id="mask2_241_2293" style="mask-type:luminance" maskUnits="userSpaceOnUse" x="-137" y="-78" width="381" height="348">
<path d="M1.19414 -77.5273L243.202 95.7175L105.155 269.733L-136.854 96.4883L1.19414 -77.5273Z" fill="white"/>
</mask>
<g mask="url(#mask2_241_2293)">
<path d="M152.3 204.655C148.308 203.045 144.805 200.629 141.225 198.358C135.698 194.853 130.111 191.446 124.145 188.624C123.186 188.165 122.402 188.124 121.366 188.358C108.574 191.259 96.4295 196.056 83.9176 199.78C69.2618 204.139 54.5842 208.431 39.7969 212.384C36.7046 213.212 33.8041 214.775 30.4102 214.358C28.4967 214.124 26.9341 213.53 25.5031 212.103C8.72548 195.452 -7.53123 178.327 -24.9503 162.254C-34.9456 153.03 -43.8388 142.806 -53.4996 133.275C-61.0385 125.832 -69.0874 118.837 -76.0616 110.905C-82.1531 103.978 -87.5537 96.4933 -93.7713 89.6756C-98.8484 84.1079 -103.114 78.035 -107.632 72.1079C-108.564 70.8892 -108.893 69.4985 -108.021 68.2694C-105.055 64.0714 -104.255 59.0767 -102.204 54.5454C-100.4 50.5506 -97.7628 47.4933 -92.9488 46.9152C-84.582 45.9048 -76.6921 43.2954 -68.7749 40.7277C-66.9107 40.1183 -64.9807 39.5871 -63.0398 39.3006C-47.4575 36.9985 -32.6592 31.5506 -17.1372 28.9829C-13.9023 28.4464 -10.8209 27.0454 -7.65185 26.0871C-5.95764 25.5767 -5.05845 24.6235 -4.6911 22.8839C-3.92898 19.2954 -2.73371 15.8058 -1.29172 12.3996C0.0789948 9.17041 1.839 8.51416 5.07389 10.0142C10.8474 12.6964 10.7651 12.6183 15.6065 7.74853C18.0354 5.30582 20.0586 2.38395 23.6608 1.12353C24.7135 0.758948 25.6292 0.550614 26.7257 0.649572C37.1213 1.57665 46.5353 5.23291 55.6259 9.86311C60.7141 12.4569 65.6048 15.3058 69.1631 18.1808C79.0488 25.1444 87.3663 32.1235 93.5126 41.1444C94.1431 42.0767 94.6311 42.061 95.4042 41.5714C98.0524 39.8944 101.095 39.6027 104.138 39.2381C106.633 38.936 109.111 38.4985 111.579 38.0246C116.974 36.9881 122.331 36.3214 127.907 36.9464C134.76 37.7173 141.691 37.5402 148.555 38.7121C156.966 40.1496 164.318 43.7954 171.759 47.3839C177.214 50.0142 182.505 52.9256 187.511 56.2433C193.065 59.9308 193.679 61.686 192.275 67.436C191.124 72.1704 189.496 76.7954 188.322 81.5194C184.205 98.0662 181.496 114.842 179.583 131.733C178.788 138.723 176.573 145.42 175.405 152.332C174.522 157.556 173.623 162.764 172.921 168.014C172.142 173.816 172.192 173.634 165.947 172.665C163.918 172.353 163.309 172.415 163.496 174.514C163.776 177.655 163.682 180.832 163.885 183.983C164.077 186.952 162.772 189.254 160.623 191.196C158.841 192.806 157.777 194.571 157.892 197.035C157.986 198.978 157.613 200.957 156.9 202.816C156.083 204.957 154.52 205.551 152.3 204.655Z" fill="#181614"/>
</g>
</g>
</g>
<mask id="mask3_241_2293" style="mask-type:luminance" maskUnits="userSpaceOnUse" x="0" y="11" width="156" height="193">
<path d="M0 11.1133H155.801V203.113H0V11.1133Z" fill="white"/>
</mask>
<g mask="url(#mask3_241_2293)">
<mask id="mask4_241_2293" style="mask-type:luminance" maskUnits="userSpaceOnUse" x="-137" y="-78" width="381" height="348">
<path d="M1.19218 -77.5273L243.201 95.7175L105.153 269.733L-136.855 96.4883L1.19218 -77.5273Z" fill="white"/>
</mask>
<g mask="url(#mask4_241_2293)">
<mask id="mask5_241_2293" style="mask-type:luminance" maskUnits="userSpaceOnUse" x="-137" y="-78" width="381" height="348">
<path d="M1.19414 -77.5273L243.202 95.7175L105.155 269.733L-136.854 96.4883L1.19414 -77.5273Z" fill="white"/>
</mask>
<g mask="url(#mask5_241_2293)">
<path d="M154.799 197.571C154.196 201.842 154.635 203.102 150.078 200.561C147.529 199.139 144.979 197.675 142.6 196.003C130.34 187.384 116.611 181.712 102.24 177.087C90.7648 173.389 79.2069 170.092 67.3255 167.868C62.8077 167.024 60.0662 163.623 55.9267 161.253C47.7682 154.118 38.0251 148.113 28.3314 142.092C19.5478 136.644 10.227 132.04 1.08153 127.155C-6.13392 123.3 -13.6454 120.16 -21.1844 117.003C-25.4117 115.233 -25.5433 114.582 -24.0136 110.602C-21.8533 104.993 -20.1536 99.2379 -19.2709 93.3316C-17.8015 83.5868 -13.6674 74.4775 -11.8964 64.8472C-9.1166 49.7118 -3.55697 35.2327 -0.672983 20.1389C-0.245319 17.8889 0.736115 15.7379 1.30085 13.5035C1.62982 12.1962 2.26035 12.0295 3.37886 12.5712C4.57961 13.1545 5.78035 13.7274 6.97562 14.3056C7.79256 14.6962 8.04478 15.0972 7.68839 16.1024C6.3725 19.8056 5.33624 23.5972 4.06421 27.316C1.02122 36.2379 -0.56881 45.4722 -2.47685 54.6337C-3.31573 58.6545 -5.44308 62.2535 -6.25454 66.3056C-8.05841 75.3212 -10.109 84.2847 -12.982 93.0816C-14.4734 97.6285 -16.6117 101.967 -17.6589 106.655C-18.3497 109.759 -18.0975 110.618 -14.8955 112.17C-11.3865 113.868 -7.81168 115.467 -4.2533 117.082C12.294 124.608 28.5726 132.556 43.2503 143.165C49.7475 147.863 54.9178 153.764 60.0662 159.681C61.9633 161.858 64.14 163.201 67.1282 163.337C79.8594 163.915 92.141 166.686 104.203 170.378C114.303 173.467 124.046 177.394 133.153 182.602C136.459 184.498 139.584 186.675 142.786 188.727C146.58 191.155 149.782 194.389 154.043 196.155C154.821 196.472 154.887 196.951 154.799 197.571Z" fill="#B3C5F1"/>
</g>
</g>
</g>
<mask id="mask6_241_2293" style="mask-type:luminance" maskUnits="userSpaceOnUse" x="0" y="28" width="86" height="158">
<path d="M0 28.4463H85.6205V185.78H0V28.4463Z" fill="white"/>
</mask>
<g mask="url(#mask6_241_2293)">
<mask id="mask7_241_2293" style="mask-type:luminance" maskUnits="userSpaceOnUse" x="-137" y="-78" width="381" height="348">
<path d="M1.19218 -77.5273L243.201 95.7175L105.153 269.733L-136.855 96.4883L1.19218 -77.5273Z" fill="white"/>
</mask>
<g mask="url(#mask7_241_2293)">
<mask id="mask8_241_2293" style="mask-type:luminance" maskUnits="userSpaceOnUse" x="-137" y="-78" width="381" height="348">
<path d="M1.19414 -77.5273L243.202 95.7175L105.155 269.733L-136.854 96.4883L1.19414 -77.5273Z" fill="white"/>
</mask>
<g mask="url(#mask8_241_2293)">
<path d="M-82.8725 61.9046C-86.2171 57.9463 -90.1209 54.415 -93.8438 50.6494C-64.2966 43.3786 -35.0674 36.1911 -5.89306 29.0088C-6.6497 33.3421 -8.27811 37.8577 -9.51723 42.4619C-9.70365 43.1598 -10.1916 43.3577 -10.8222 43.5713C-32.1395 50.9515 -53.7037 57.6234 -75.4542 63.7744C-78.5246 64.6442 -80.6575 64.5348 -82.8725 61.9046ZM82.3318 174.118C76.7447 172.597 71.1467 171.113 65.5761 169.55C62.3029 168.629 59.0022 167.561 56.5678 165.228C55.1093 163.827 53.9634 163.978 52.346 164.634C43.6118 168.181 35.6671 166.972 28.6435 160.853C25.4141 158.035 23.5938 154.274 21.4116 150.759C19.8271 148.217 19.2788 145.394 19.8929 142.608C20.3041 140.733 19.5474 139.993 18.1603 139.201C8.84489 133.91 -0.865273 129.306 -10.4 124.389C-15.0275 122.004 -20.3733 121.024 -24.5896 117.78C-28.1864 115.014 -28.5154 114.186 -26.9473 110.201C-25.3408 106.129 -24.1675 101.936 -23.1038 97.7171C-21.0313 89.4463 -19.7318 81.0296 -16.9136 72.8942C-15.1701 67.8577 -13.8761 62.613 -13.1469 57.3317C-32.2273 62.3577 -49.279 72.4255 -68.9022 75.9775C-64.8778 80.4359 -61.0123 84.5661 -57.3278 88.8369C-50.7594 96.4567 -44.8214 104.55 -37.9185 111.925C-30.4015 119.962 -21.9688 127.092 -13.7719 134.462C-4.8568 142.483 4.4257 150.123 12.9351 158.556C18.5715 164.149 25.0358 168.967 30.2829 174.925C33.4027 178.462 36.7582 181.733 40.4427 184.738C41.457 185.566 42.1204 185.613 43.2389 185.207C45.7556 184.295 48.2832 183.368 50.8766 182.722C61.3927 180.103 71.9362 177.587 82.4688 175.035C83.1652 175.129 83.8286 175.056 84.5194 174.691C83.8396 174.186 83.1268 174.014 82.3318 174.118Z" fill="#7890EB"/>
</g>
</g>
</g>
<mask id="mask9_241_2293" style="mask-type:luminance" maskUnits="userSpaceOnUse" x="0" y="51" width="118" height="162">
<path d="M0 51.1133H117.904V212.447H0V51.1133Z" fill="white"/>
</mask>
<g mask="url(#mask9_241_2293)">
<mask id="mask10_241_2293" style="mask-type:luminance" maskUnits="userSpaceOnUse" x="-137" y="-78" width="381" height="348">
<path d="M1.19218 -77.5273L243.201 95.7175L105.153 269.733L-136.855 96.4883L1.19218 -77.5273Z" fill="white"/>
</mask>
<g mask="url(#mask10_241_2293)">
<mask id="mask11_241_2293" style="mask-type:luminance" maskUnits="userSpaceOnUse" x="-137" y="-78" width="381" height="348">
<path d="M1.19414 -77.5273L243.202 95.7175L105.155 269.733L-136.854 96.4883L1.19414 -77.5273Z" fill="white"/>
</mask>
<g mask="url(#mask11_241_2293)">
<path d="M111.207 184.681C102.561 187.54 93.9035 190.389 85.1145 192.821C78.5679 194.634 71.7144 195.457 65.1843 197.327C58.4677 199.249 51.4881 200.16 44.8867 202.483C41.6079 203.639 38.1811 204.41 34.7982 205.29C33.7565 205.561 32.5941 205.723 31.7881 204.78C30.9821 203.837 31.4427 202.874 31.9252 201.915C34.0471 197.691 36.0593 193.42 38.2908 189.249C39.2613 187.42 39.3216 186.207 37.2655 185.066C35.8071 184.259 34.3925 183.217 33.3069 181.999C26.9687 174.9 19.6819 168.702 12.8229 162.103C1.27595 150.993 -10.8576 140.488 -22.8816 129.884C-34.2311 119.874 -44.4676 109.009 -53.5527 97.1392C-58.8053 90.2798 -64.7926 84.035 -70.8073 77.634C-74.4699 83.9986 -78.0228 90.1548 -81.5483 96.3215C-82.2226 97.509 -82.283 98.535 -81.1535 99.7381C-78.8288 102.212 -76.8549 104.983 -74.5686 107.488C-67.386 115.363 -59.4084 122.509 -51.7708 129.967C-41.1834 140.295 -31.4623 151.415 -20.5239 161.415C-3.81215 176.696 11.7427 193.03 27.6211 209.056C30.2639 211.723 32.5283 211.842 35.6316 210.795C41.0487 208.962 46.4822 207.191 52.135 206.061C59.8111 204.53 67.0265 201.592 74.4613 199.321C88.3987 195.061 102.396 190.967 116.372 186.801C116.795 186.676 117.261 186.608 117.458 185.978C115.638 184.509 113.806 183.821 111.207 184.681ZM24.2985 192.29C22.9113 192.738 21.8203 194.556 20.2522 193.155C18.1796 191.202 16.0742 189.535 14.3745 187.66C12.62 185.717 12.779 182.743 12.5761 180.129C12.5542 179.884 12.8887 179.535 13.1464 179.358C14.2484 178.603 19.4078 179.066 20.4715 179.92C22.2424 181.348 23.6241 183.165 25.6089 184.389C27.4238 185.514 26.5684 187.525 27.0728 189.092C27.7747 191.285 25.9818 191.749 24.2985 192.29ZM-88.5883 84.1756C-89.0543 85.5142 -89.7397 86.785 -90.4086 88.285C-94.8387 83.7642 -98.5671 79.0819 -101.966 74.0454C-104.138 70.8319 -104.68 68.5559 -102.592 65.2381C-101.012 62.7277 -100.398 59.6704 -99.3456 56.8631C-99.1044 56.2173 -98.8357 55.5819 -98.5451 54.9621C-96.6152 50.8215 -96.2478 50.8006 -93.2322 54.0819C-89.8822 57.7329 -86.428 61.3006 -82.9628 64.8579C-82.2775 65.5559 -81.8937 66.1392 -82.3104 67.0975C-84.7393 72.6809 -86.6089 78.4465 -88.5883 84.1756ZM22.5769 141.764C32.4186 148.045 42.074 154.103 51.3126 161.202C42.8361 165.191 33.8113 162.821 28.2188 155.103C26.2559 152.389 23.9092 149.832 22.9004 146.571C22.4727 145.186 22.2315 143.754 22.5769 141.764ZM46.6412 73.1131C43.8943 82.0663 41.2077 91.0402 38.4827 100.061C35.3465 99.2746 33.3891 96.9829 30.7793 95.7225C26.6013 93.7017 22.226 92.2486 17.6039 91.535C15.8933 91.2746 15.504 90.7225 16.0907 89.0923C18.8485 81.4569 21.4036 73.759 23.5254 65.9361C24.1395 63.6652 24.4465 61.3111 24.8797 59.0559C32.3912 61.5506 39.1297 64.9673 45.3034 69.4413C46.7838 70.5142 47.1292 71.5142 46.6412 73.1131Z" fill="#B3C5F1"/>
</g>
</g>
</g>
<mask id="mask12_241_2293" style="mask-type:luminance" maskUnits="userSpaceOnUse" x="0" y="3" width="191" height="201">
<path d="M0 3.11328H190.892V203.113H0V3.11328Z" fill="white"/>
</mask>
<g mask="url(#mask12_241_2293)">
<mask id="mask13_241_2293" style="mask-type:luminance" maskUnits="userSpaceOnUse" x="-137" y="-78" width="381" height="348">
<path d="M1.19218 -77.5273L243.201 95.7175L105.153 269.733L-136.855 96.4883L1.19218 -77.5273Z" fill="white"/>
</mask>
<g mask="url(#mask13_241_2293)">
<mask id="mask14_241_2293" style="mask-type:luminance" maskUnits="userSpaceOnUse" x="-137" y="-78" width="381" height="348">
<path d="M1.19414 -77.5273L243.202 95.7175L105.155 269.733L-136.854 96.4883L1.19414 -77.5273Z" fill="white"/>
</mask>
<g mask="url(#mask14_241_2293)">
<path d="M20.5374 12.2484C17.1325 22.5609 15.2793 33.2536 11.9731 43.5922C9.75805 50.5297 7.74583 57.514 6.90147 64.738C6.42446 68.8318 5.38272 72.7693 3.94621 76.6338C1.47891 83.2849 -0.122085 90.212 -3.12121 96.7016C-3.75723 98.0766 -3.89978 99.6495 -4.19586 100.827C27.2045 107.259 52.1516 122.405 70.245 147.915C71.7748 143.905 72.9317 139.827 73.6554 135.629C75.7663 123.436 78.0855 111.269 79.9388 99.0401C81.8303 86.5818 86.5566 74.8213 89.2542 62.5661C90.2685 57.9776 90.6413 53.2745 91.864 48.7588C92.6535 45.8474 92.0175 43.7484 90.1698 41.5505C79.4672 28.8161 66.4948 18.7693 51.1373 11.5036C43.0555 7.68072 34.6996 4.71197 25.6364 3.76405C23.8216 3.57134 23.0704 3.98801 22.6647 5.68593C22.1274 7.90988 21.2611 10.0609 20.5374 12.2484ZM37.441 103.004C31.1029 98.7224 24.2219 95.6078 16.6719 93.7276C12.7681 92.7536 12.7243 92.1755 13.7002 88.3943C16.2388 78.5661 20.1755 69.1182 22.2151 59.1547C22.8237 56.1755 23.7613 55.9515 26.7001 57.2745C30.242 58.863 34.1568 59.6026 37.5343 61.6026C39.8864 62.9932 42.3208 64.2588 44.7168 65.5818C44.662 65.6599 44.6072 65.7328 44.5523 65.8109C45.9121 66.7849 47.2609 67.764 48.6316 68.7276C50.3368 69.9203 50.1229 71.4776 49.5966 73.1078C47.2663 80.3318 44.9306 87.5505 42.6169 94.7745C41.8328 97.2068 41.0323 99.6391 40.3634 102.097C39.848 103.998 38.8282 103.946 37.441 103.004ZM69.0388 124.478C67.9258 125.405 67.1198 124.311 66.5935 123.696C64.329 121.051 61.8343 118.66 59.2135 116.321C56.5434 113.931 53.4784 112.259 50.3751 110.587C49.1196 109.905 47.9791 109.097 46.8168 108.316C46.2027 107.905 45.6544 107.337 46.2082 106.629C46.6358 106.087 47.3431 106.248 47.9298 106.545C51.4004 108.29 54.8656 110.04 57.8483 111.545C61.933 115.191 65.6943 118.342 68.5673 122.295C69.0443 122.952 70.0422 123.639 69.0388 124.478ZM69.8448 112.551C70.4534 113.399 71.3581 114.368 70.1847 115.202C69.1375 115.952 68.3041 114.853 67.7449 114.202C64.6141 110.556 60.7652 107.608 57.4261 104.254C54.6353 102.722 51.85 101.321 49.4595 99.3734C48.9222 98.9359 47.7872 98.6026 48.511 97.6182C49.1634 96.7328 50.112 97.3786 50.6602 97.7172C54.9917 100.379 59.9373 102.181 63.386 106.092C65.3927 108.363 68.0574 110.061 69.8448 112.551ZM72.9207 100.207C72.4053 100.847 71.8241 100.577 71.2868 100.212C70.7714 99.863 70.2779 99.4932 69.2855 98.7797C65.9574 94.6911 60.6445 92.3682 55.392 89.9516C54.5476 89.5661 53.3962 88.9932 54.0158 87.837C54.7121 86.5297 55.7758 87.1755 56.7517 87.6963C59.7892 89.3057 62.9035 90.7953 65.8807 92.5088C68.5947 94.0661 70.3437 96.6755 72.7343 98.6026C73.2771 99.0401 73.3703 99.6443 72.9207 100.207ZM73.9624 86.6963C75.059 87.5505 75.9746 88.6599 76.3146 90.0453C76.4571 90.6234 76.49 91.2588 75.7444 91.5766C75.1796 91.8109 74.6259 91.6911 74.2914 91.238C70.0312 85.4099 63.5011 82.0661 57.9086 77.7016C57.6948 77.5349 57.4754 77.3891 57.2671 77.2224C56.6914 76.7536 56.2199 76.1703 56.664 75.4568C57.2013 74.5922 58.1553 74.7901 58.7968 75.212C60.7871 76.5245 62.6951 77.962 64.011 78.9047C68.1506 81.3266 70.8372 84.2588 73.9624 86.6963ZM76.3968 73.3734C77.0274 74.1651 77.5811 75.0505 76.512 75.8266C75.5525 76.5245 74.7629 75.7797 74.2146 75.1391C68.9895 69.0193 62.3497 64.4203 55.529 60.1807C46.6303 54.6495 38.0606 48.5088 28.0379 44.7797C26.0422 44.0401 23.9313 43.587 21.9245 42.863C21.2337 42.6182 20.2194 42.1391 20.499 41.2432C20.828 40.1911 21.8587 40.8161 22.5496 40.9203C28.652 41.8474 34.2391 44.1182 39.4258 47.212C47.3979 51.9672 55.6168 56.3734 63.7588 62.5765C67.394 65.087 71.7693 68.2224 75.388 72.1859C75.7389 72.5713 76.0788 72.9672 76.3968 73.3734ZM81.9619 62.0036C80.6625 63.1026 79.7962 61.7484 78.9409 60.8682C70.7001 52.4411 60.5349 46.5505 50.1284 40.9255C43.0336 37.087 35.8291 33.5297 28.164 30.837C27.7473 30.6911 27.2319 30.5818 26.9852 30.2849C26.5905 29.8057 25.7077 29.3266 26.256 28.5974C26.6672 28.0453 27.3416 28.4411 27.9612 28.6026C36.646 30.9099 44.5194 34.9099 52.3819 38.9776C58.3801 42.087 64.2194 45.3995 69.8174 49.5453C73.9131 52.0974 77.6305 55.4307 81.134 58.9932C81.9674 59.8422 83.2449 60.9151 81.9619 62.0036ZM33.4495 15.7901C40.1441 16.2797 45.9998 19.1547 51.7897 21.988C56.0773 24.0922 60.2607 26.4516 64.0713 29.3161C71.8022 34.9307 78.4365 41.6078 84.7253 48.613C85.5094 49.488 86.5182 50.5661 85.4655 51.4724C84.188 52.5713 83.3107 51.3005 82.4718 50.3578C75.854 42.9307 68.9621 35.712 60.4252 30.2432C52.0145 24.863 43.1761 20.1703 33.0712 18.1443C32.1665 17.9672 30.8177 17.9516 31.0206 16.6391C31.229 15.2901 32.5339 15.7224 33.4495 15.7901ZM158.667 185.722C159.298 186.384 160.312 186.936 159.292 188.051C158.223 189.228 157.538 188.202 156.836 187.691C153.837 185.509 150.838 183.347 147.51 181.608C131.692 173.327 115.934 164.847 98.0651 161.108C90.8551 159.603 83.7877 156.998 76.1665 157.827C74.9822 157.952 73.7431 157.738 72.1202 158.722C103.882 161.722 131.478 173.332 156.979 190.566C153.892 193.321 153.864 193.353 150.586 190.78C133.419 177.311 113.719 169.004 92.1381 164.17C84.5773 162.478 77.0328 161.071 69.3184 160.983C64.499 160.926 61.9166 158.129 59.7179 155.051C51.2634 143.228 39.0146 135.889 26.4863 128.748C13.7496 121.488 0.179474 115.894 -13.2919 110.082C-13.599 109.952 -13.8457 109.696 -14.1637 109.472C-12.793 107.868 -11.3949 107.655 -9.26202 108.176C1.80788 110.884 12.4556 114.571 22.3851 119.972C30.7245 124.514 39.2559 128.868 46.3507 135.113C51.5923 139.728 55.9951 145.134 60.4526 150.457C62.1414 152.478 63.5285 154.868 66.4564 155.816C61.1051 147.311 54.7559 139.577 47.058 132.811C39.2668 125.962 30.0172 121.186 20.9047 116.274C11.6716 111.301 1.59405 108.269 -9.0153 106.311C-7.93517 104.618 -6.36707 104.373 -4.62352 104.405C1.8024 104.524 7.55941 106.915 13.4864 108.915C26.6508 113.368 38.2251 120.28 48.5548 129.061C56.187 135.545 63.6546 142.243 67.8655 151.441C68.5399 152.91 69.7461 153.801 71.4019 154.368C75.6676 155.827 80.1361 156.134 84.5499 156.816C102.934 159.665 120.912 163.873 137.509 172.207C144.335 175.634 150.942 179.462 156.973 184.092C157.598 184.571 158.124 185.16 158.667 185.722ZM46.0656 189.608C45.4844 189.801 44.3878 189.821 44.81 190.853C45.1554 191.696 46.0656 191.472 46.7071 191.259C51.5759 189.665 56.6804 189.071 61.6698 187.988C71.2978 185.899 80.9695 183.952 90.3014 180.774C92.818 179.92 95.6362 180.118 98.2077 179.212C99.2056 178.858 100.258 179.41 101.58 180.306C96.8095 181.696 92.6645 183.321 88.2837 184.311C74.741 187.368 61.0612 189.847 47.6501 193.431C46.1807 193.821 44.7552 194.353 43.3296 194.858C42.7046 195.077 42.1015 195.551 42.3372 196.186C42.5785 196.827 43.3845 196.759 44.004 196.629C46.1972 196.155 48.4342 195.806 50.5506 195.113C56.5214 193.176 62.7335 192.139 68.8085 190.603C76.4352 188.681 84.2264 187.358 91.9024 185.608C96.179 184.634 100.395 183.389 104.584 182.118C106.492 181.545 108.044 181.926 109.486 182.801C85.2188 190.899 59.7289 194.785 34.8202 202.498C37.0243 197.998 38.9872 194.019 40.9172 190.024C41.5039 188.816 42.5949 188.389 43.8231 187.978C51.9706 185.228 60.3923 183.41 68.7702 181.452C75.218 179.946 81.4191 177.597 88.0315 176.577C90.4056 176.207 92.1656 176.899 94.3477 177.603C81.4794 181.186 68.7647 184.368 55.8525 186.785C52.4806 187.42 49.2786 188.524 46.0656 189.608ZM16.7158 10.6182C17.2805 9.17551 18.6403 8.26926 19.9288 7.34218C15.6028 17.7276 13.8757 28.7328 10.416 39.2536C7.31817 48.6911 5.0373 58.2693 3.30471 68.0453C1.80789 76.4672 -1.26252 84.6443 -4.55772 92.6443C-5.64333 95.2849 -6.49866 97.9255 -7.00308 100.707C-7.16209 101.603 -7.04695 102.811 -8.90564 103.191C-7.05791 97.2276 -6.70153 91.2068 -4.74414 85.4932C-3.31311 81.2953 -2.04657 77.0349 -1.38314 72.6807C-0.0891867 64.1703 2.41648 55.962 5.08116 47.7901C6.97823 41.962 8.25026 35.988 9.81287 30.087C11.5838 23.4099 14.1882 17.0297 16.7158 10.6182ZM9.34683 19.4984C10.2899 17.0818 11.5509 15.0713 13.7222 13.3422C13.1245 14.9047 12.5927 16.4932 11.9183 18.0245C9.56614 23.3734 7.9158 28.9411 6.84664 34.613C5.16888 43.4932 1.91754 51.9411 -0.708751 60.5557C-2.46327 66.3057 -2.88545 72.2536 -4.44807 78.0141C-4.79897 79.3161 -5.16084 80.6338 -5.64882 81.863C-8.27511 88.5193 -8.84533 95.6234 -10.704 102.446C-11.2962 104.623 -12.2941 106.129 -14.7559 106.879C-13.5551 101.748 -11.4113 97.0036 -9.89255 92.0818C-7.24433 83.488 -5.86265 74.6547 -3.60919 65.9984C-2.04109 59.988 -0.100153 54.0818 1.16639 47.9932C3.18409 38.3213 5.71717 28.7745 9.34683 19.4984ZM161.178 184.321C157.598 181.28 154.133 178.847 150.509 176.566C137.915 168.629 124.377 162.873 109.705 159.327C100.828 157.186 92.0011 154.957 82.8666 154.077C82.1593 154.243 81.4794 154.155 80.816 153.858C81.1669 153.092 81.7207 153.363 82.258 153.545C85.8493 153.118 89.4406 153.144 92.999 153.754C103.071 155.488 113.187 157.024 123.171 159.123C132.103 160.993 140.497 164.603 149.122 167.446C152.51 168.566 155.871 169.754 159.281 170.79C160.52 171.16 160.789 171.603 160.767 172.894C160.707 176.545 161.003 180.202 161.178 184.321ZM169.644 167.373C170.033 162.259 171.064 157.233 171.821 152.17C172.917 144.816 175.028 137.665 175.96 130.264C178.395 110.957 180.889 91.6391 186.888 72.9307C187.929 69.6755 189.185 66.462 189.53 63.0297C189.651 61.863 189.536 61.1234 188.176 60.4151C183.614 58.0349 179.327 55.1703 174.721 52.8734C167.029 49.0349 159.534 44.7849 150.92 42.8213C143.688 41.1755 136.357 40.8786 128.999 40.5609C125.595 40.4151 122.234 39.7484 118.79 40.2276C112.83 41.0661 106.953 42.3265 100.916 42.7693C96.1242 43.1234 95.0605 44.389 94.1723 48.7745C93.9859 49.6911 93.8543 50.6286 93.7775 51.5609C93.1086 59.5765 91.6502 67.514 89.0513 75.113C84.2264 89.2432 82.5322 103.936 79.8127 118.426C77.7511 129.389 76.6107 140.504 72.6246 151.217C73.1016 151.285 73.4416 151.379 73.776 151.363C78.2665 151.181 82.7515 150.884 87.2419 150.811C94.2107 150.696 100.894 152.618 107.682 153.743C115.188 154.983 122.903 155.379 130.123 157.827C137.377 160.295 144.768 162.41 151.907 165.212C156.452 166.993 161.2 168.321 165.888 169.754C169.189 170.759 169.397 170.592 169.644 167.373ZM104.743 54.1807C104.765 53.3474 105.714 53.2745 106.426 53.2276C117.343 52.4776 128.331 50.5661 139.165 53.0193C149.16 55.2901 158.919 58.462 168.35 62.4203C169.71 62.988 170.806 64.1234 172.029 64.9984C172.067 64.9463 172.111 64.8943 172.15 64.8422C173.087 65.5088 174.069 66.1286 174.94 66.863C175.615 67.4307 176.854 67.9516 175.955 69.0974C175.083 70.212 174.14 69.2588 173.356 68.8734C172.407 68.4047 171.536 67.7641 170.702 67.1182C167.303 64.4828 163.355 62.9151 159.237 61.6443C153.957 60.0193 148.694 58.3422 143.43 56.6755C136.061 54.3422 128.49 53.9359 120.835 54.6338C116.082 55.0661 111.323 55.087 106.564 55.1286C105.801 55.1338 104.71 55.3057 104.743 54.1807ZM101.607 69.6547C100.998 69.4984 100.116 69.1338 100.319 68.2797C100.505 67.4672 101.289 67.7901 101.898 67.8057C104.601 67.8786 107.254 67.4776 109.936 67.1651C122.036 65.738 133.934 66.639 145.519 70.4151C148.486 71.3838 151.435 72.363 154.528 72.9463C160.981 74.1703 167.687 77.0766 173.986 81.2953C174.469 81.6859 175.28 82.2693 174.787 83.238C174.184 84.4307 173.06 84.0245 172.221 83.5922C169.863 82.3734 167.528 81.0974 165.263 79.7276C159.577 76.2901 152.762 76.238 146.66 74.0349C134.071 69.4984 121.099 68.1703 107.759 69.9151C105.714 70.1807 103.619 70.1651 101.607 69.6547ZM101.037 85.9984C99.9732 86.3526 98.4654 86.8786 97.9993 85.4776C97.451 83.8422 99.1233 83.7693 100.302 83.3526C113.066 78.8578 126 80.712 138.885 82.5401C148.815 83.9463 158.399 86.7172 167.654 90.4099C169.869 91.2901 171.908 92.5661 173.97 93.238C174.705 93.837 175.406 94.212 174.951 95.0609C174.568 95.7641 173.915 96.0036 173.142 95.8578C172.528 95.738 171.854 95.6338 171.355 95.3161C166.968 92.5349 161.776 91.613 157.017 89.6911C150.876 87.2172 144.198 86.5245 137.717 85.2745C125.469 82.9099 113.181 81.9463 101.037 85.9984ZM95.6527 99.0818C95.3511 97.8838 97.4675 97.8526 98.575 97.4463C106.514 94.5505 114.865 94.8422 123.089 95.113C129.97 95.337 136.851 96.363 143.666 97.4203C152.318 98.7588 159.665 103.228 167.264 107.004C168.273 107.467 169.518 107.988 168.8 109.233C168.065 110.504 166.842 109.91 165.751 109.373C158.596 105.853 151.644 101.524 143.535 100.556C133.238 99.3318 122.968 97.3005 112.447 98.2745C108.241 98.6599 104.003 98.6234 99.9128 99.8109C99.7429 99.863 99.5619 99.8943 99.3865 99.9151C97.9884 100.082 95.9707 100.347 95.6527 99.0818ZM90.2959 112.431C89.8792 112.03 89.7092 111.561 89.9231 111.045C90.1314 110.54 90.4823 110.301 91.1677 110.368C104.831 111.702 118.62 111.087 132.267 112.816C138.797 113.644 145.075 115.399 151.37 117.066C155.361 118.123 158.459 120.993 162.132 122.759C163.41 123.368 164.655 124.051 165.844 124.67C166.617 125.316 167.824 125.816 167.094 126.931C166.447 127.915 165.384 127.571 164.457 127.097C161.776 125.728 158.947 124.566 156.43 122.967C149.313 118.452 141.062 117.295 132.98 116.149C123.412 114.79 113.735 113.941 103.992 114.196C100.33 114.29 96.6505 113.728 92.9825 113.452C91.9846 113.379 91.0361 113.155 90.2959 112.431ZM89.7586 126.134C89.0458 126.103 88.3221 126.103 87.6093 126.097C87.0336 126.087 86.5127 125.993 86.4305 125.327C86.3537 124.696 86.7211 124.389 87.3297 124.285C88.2124 124.129 89.0897 123.931 89.9779 123.821C103.367 122.155 116.438 123.353 129.307 127.311C137.048 129.691 145.152 130.915 152.806 133.655C155.833 134.738 158.898 135.67 161.491 137.587C162.253 138.186 163.021 138.78 163.777 139.384C164.413 139.899 164.567 140.551 164.106 141.207C163.624 141.889 162.949 141.873 162.226 141.467C145.755 132.228 127.069 129.884 108.85 126.165C102.578 124.889 96.1297 126.415 89.7586 126.134ZM164.825 152.957C163.81 153.811 162.807 153.113 162.116 152.66C157.099 149.353 151.227 147.936 145.711 145.738C143.809 144.978 141.884 144.191 139.817 144.04C127.579 143.144 115.928 139.436 103.937 137.347C98.7724 136.452 93.6898 135.613 88.4591 136.608C88.0205 136.691 87.5599 136.707 87.1158 136.686C86.3592 136.655 85.5806 136.446 85.5532 135.608C85.5313 134.868 86.0522 134.488 86.9184 134.337C91.4418 133.545 95.9268 132.988 100.554 133.795C109.82 135.399 118.938 137.623 128.111 139.623C129.509 139.926 130.908 140.379 132.322 140.436C143.403 140.879 153.009 145.441 162.566 150.139C163.355 150.524 164.057 151.087 164.753 151.623C165.247 152.004 165.274 152.488 164.825 152.957Z" fill="#F4F4F4"/>
</g>
</g>
</g>
</svg>
