<?xml version="1.0" encoding="UTF-8"?>
<svg version="1.1" xmlns="http://www.w3.org/2000/svg" width="1500" height="730">
<path d="M0 0 C14.04396169 -0.27632795 27.84394101 1.15958024 41.48828125 4.47265625 C43.07269516 4.85614227 43.07269516 4.85614227 44.68911743 5.24737549 C61.20867593 9.34550929 77.51558408 14.25433988 93.85003281 19.02510452 C101.93290676 21.38307061 110.02050776 23.72483013 118.10699272 26.07037544 C121.24326519 26.98027502 124.37934374 27.89084057 127.51539612 28.80149841 C146.78497354 34.39519822 166.07520311 39.91526152 185.37140274 45.41630173 C193.85226561 47.83438543 202.33237695 50.25510458 210.8125 52.67578125 C211.80747812 52.95977972 212.80245625 53.24377819 213.82758522 53.53638268 C243.64640811 62.04844612 273.45380421 70.6004328 303.26220131 79.14891672 C306.33461484 80.03001996 309.40703727 80.91109218 312.47945952 81.79216498 C329.58393417 86.69719136 346.68826224 91.60272872 363.792521 96.50850785 C379.99151292 101.15462938 396.19072147 105.79999529 412.38998842 110.44515777 C418.04433879 112.0665519 423.69868525 113.68795965 429.35303235 115.30936515 C430.75961653 115.71270841 432.16620079 116.11605137 433.57278514 116.51939404 C449.06063521 120.96058764 464.54841975 125.40200972 480.03618956 129.84348321 C482.1471693 130.44885506 484.25814922 131.05422631 486.36912918 131.6595974 C496.90667999 134.68147814 507.44422783 137.70336924 517.98177528 140.72526169 C539.0945355 146.77984772 560.2073033 152.83440733 581.32009363 158.88888836 C583.43698166 159.49594511 585.55386949 160.10300258 587.67075729 160.71006012 C632.90509037 173.68185047 678.13991816 186.65191476 723.375 199.62109375 C774.9206017 214.39953799 826.4658451 229.17923095 878.01045489 243.96113443 C883.60775541 245.56632127 889.20505793 247.17150114 894.80236101 248.77667904 C896.20178 249.17800053 897.60119883 249.57932257 899.0006175 249.98064518 C915.58246652 254.73595458 932.16441297 259.4909239 948.74658203 264.24511719 C950.25104301 264.67645739 951.75550398 265.10779761 953.25996494 265.53913784 C960.02648201 267.47913898 966.79301324 269.41909072 973.55958921 271.35888642 C988.18749255 275.55233901 1002.8151162 279.74675844 1017.44149721 283.94551814 C1022.99542495 285.5398409 1028.54943159 287.13388884 1034.10346389 288.72784734 C1035.4587421 289.11680382 1036.81401647 289.50577366 1038.16928697 289.89475703 C1055.27976422 294.80562596 1072.39549486 299.69744826 1089.5206604 304.55688095 C1095.16435305 306.15942612 1100.8065743 307.76714411 1106.44869995 309.37519646 C1110.62130312 310.56381364 1114.79488015 311.74867865 1118.97143555 312.92333984 C1147.01732019 320.81348674 1174.00362115 329.346994 1196.875 348.12109375 C1197.42607422 348.56678711 1197.97714844 349.01248047 1198.54492188 349.47167969 C1209.20900554 358.13253247 1218.68645037 367.5923605 1227.0625 378.49609375 C1230.1435564 382.43756837 1233.39104489 385.27969032 1237.40234375 388.23828125 C1270.44077188 413.39550457 1290.07261184 453.27742418 1296.1875 493.74609375 C1299.6974174 527.19155668 1294.52590023 562.67095866 1279.875 593.12109375 C1279.31304932 594.30227783 1279.31304932 594.30227783 1278.73974609 595.50732422 C1270.6667024 612.2387777 1260.75132956 626.71103032 1247.875 640.12109375 C1247.03582031 641.01183594 1246.19664063 641.90257812 1245.33203125 642.8203125 C1234.5222636 654.0044444 1222.44459688 662.58891944 1208.875 670.12109375 C1208.25286621 670.46914063 1207.63073242 670.8171875 1206.98974609 671.17578125 C1183.43165656 684.16661165 1156.91183436 690.24750974 1130.125 690.37109375 C1129.05378906 690.39171875 1127.98257812 690.41234375 1126.87890625 690.43359375 C1107.38898941 690.52413924 1089.09241566 685.90244125 1070.5 680.49609375 C1068.01864799 679.78601053 1065.53694394 679.07715659 1063.05493164 678.36938477 C1057.58520315 676.80742986 1052.1185645 675.2350217 1046.65380859 673.65576172 C1038.42610842 671.27807909 1030.1939952 668.91596592 1021.96097565 666.55677795 C1007.86939799 662.51829475 993.78121715 658.46806765 979.69454193 654.41252136 C950.75270431 646.08037265 921.8023365 637.77801903 892.85131365 629.47785813 C887.7900829 628.02681698 882.72887939 626.57568087 877.66769409 625.1244812 C876.94483567 624.91721521 876.22197726 624.70994922 875.47721404 624.49640244 C874.01167173 624.07618549 872.54612947 623.65596835 871.08058727 623.23575103 C856.87398 619.16228081 842.66728367 615.08912125 828.46055508 611.01607418 C817.96456617 608.00688879 807.4686012 604.99761995 796.97265625 601.98828125 C795.86775424 601.67149005 795.86775424 601.67149005 794.74053097 601.34829903 C791.02226662 600.28221907 787.30400273 599.21613753 783.58573914 598.15005493 C776.14505183 596.01669709 768.70436217 593.88334741 761.26367188 591.75 C760.52671365 591.5387039 759.78975542 591.3274078 759.03046513 591.10970879 C748.56289428 588.10851286 738.09530978 585.10736454 727.62771702 582.10624504 C685.67413805 570.0779017 643.72103698 558.04789263 601.76821136 546.016922 C591.21006422 542.98912274 580.65191295 539.96133789 570.09375 536.93359375 C569.39474705 536.73314201 568.69574409 536.53269028 567.97555923 536.32616425 C534.19297076 526.63841317 500.40985933 516.95248621 466.62671518 507.26667309 C405.86199511 489.84508795 345.09797988 472.42104594 284.33435494 454.99564159 C270.20064779 450.94246844 256.06692849 446.88933773 241.93316138 442.83637369 C239.79277471 442.22260061 237.65238922 441.60882344 235.5120039 440.99504566 C229.08199533 439.15117992 222.65197655 437.30734979 216.22191375 435.46367317 C212.65029614 434.4395902 209.07868602 433.4154811 205.50708008 432.39135742 C204.44707682 432.08741233 204.44707682 432.08741233 203.36565936 431.77732694 C193.48562605 428.94427287 183.60599937 426.10980466 173.72664845 423.27437198 C167.43634241 421.4690691 161.14592092 419.66416863 154.85546875 417.859375 C154.16445753 417.66110808 153.47344631 417.46284115 152.76149535 417.25856614 C132.26928534 411.37906473 111.77105986 405.52094227 91.26854843 399.67746925 C85.98649932 398.17186501 80.70487297 396.66478527 75.42353821 395.15667725 C74.68712894 394.94639326 73.95071967 394.73610928 73.19199497 394.51945305 C69.51443908 393.46925154 65.83694132 392.41884673 62.15948582 391.36829376 C54.38211837 389.14682595 46.60337849 386.93029372 38.82271451 384.72039932 C32.92301932 383.04425478 27.02572387 381.35980429 21.12921715 379.67247963 C18.73803381 378.98967568 16.34608076 378.30955974 13.95325661 377.63252831 C2.45831131 374.37876589 -8.93537092 370.98192276 -20.17333984 366.91772461 C-21.05064066 366.60070619 -21.92794147 366.28368776 -22.83182716 365.95706272 C-43.07858912 358.44572366 -60.76670653 346.18362916 -76.125 331.12109375 C-77.16526409 330.11968726 -78.20563096 329.11838754 -79.24609375 328.1171875 C-83.8337727 323.65571607 -88.19746709 319.17955979 -92.0625 314.05859375 C-95.04922066 310.18873598 -98.35225713 307.07567581 -102.125 303.99609375 C-135.70025748 276.47328328 -157.94028856 238.04688012 -162.94628906 194.56665039 C-165.40428013 160.93045289 -160.3311557 127.92489368 -146.125 97.12109375 C-145.67688965 96.14873779 -145.67688965 96.14873779 -145.21972656 95.15673828 C-140.92713967 85.95055573 -136.12077791 77.34911272 -130.125 69.12109375 C-129.73505859 68.58307129 -129.34511719 68.04504883 -128.94335938 67.49072266 C-102.68432259 31.62749485 -63.75201538 8.81995656 -20.02734375 1.83203125 C-13.33897389 0.83505444 -6.75334576 0.26169215 0 0 Z " fill="#F4ECE0" transform="translate(202.125,37.87890625)"/>
<path d="M0 0 C14.04396169 -0.27632795 27.84394101 1.15958024 41.48828125 4.47265625 C43.07269516 4.85614227 43.07269516 4.85614227 44.68911743 5.24737549 C61.20867593 9.34550929 77.51558408 14.25433988 93.85003281 19.02510452 C101.93290676 21.38307061 110.02050776 23.72483013 118.10699272 26.07037544 C121.24326519 26.98027502 124.37934374 27.89084057 127.51539612 28.80149841 C146.78497354 34.39519822 166.07520311 39.91526152 185.37140274 45.41630173 C193.85226561 47.83438543 202.33237695 50.25510458 210.8125 52.67578125 C211.80747812 52.95977972 212.80245625 53.24377819 213.82758522 53.53638268 C243.64640811 62.04844612 273.45380421 70.6004328 303.26220131 79.14891672 C306.33461484 80.03001996 309.40703727 80.91109218 312.47945952 81.79216498 C329.58393417 86.69719136 346.68826224 91.60272872 363.792521 96.50850785 C379.99151292 101.15462938 396.19072147 105.79999529 412.38998842 110.44515777 C418.04433879 112.0665519 423.69868525 113.68795965 429.35303235 115.30936515 C430.75961653 115.71270841 432.16620079 116.11605137 433.57278514 116.51939404 C449.06063521 120.96058764 464.54841975 125.40200972 480.03618956 129.84348321 C482.1471693 130.44885506 484.25814922 131.05422631 486.36912918 131.6595974 C496.90667999 134.68147814 507.44422783 137.70336924 517.98177528 140.72526169 C539.0945355 146.77984772 560.2073033 152.83440733 581.32009363 158.88888836 C583.43698166 159.49594511 585.55386949 160.10300258 587.67075729 160.71006012 C632.90509037 173.68185047 678.13991816 186.65191476 723.375 199.62109375 C774.9206017 214.39953799 826.4658451 229.17923095 878.01045489 243.96113443 C883.60775541 245.56632127 889.20505793 247.17150114 894.80236101 248.77667904 C896.20178 249.17800053 897.60119883 249.57932257 899.0006175 249.98064518 C915.58246652 254.73595458 932.16441297 259.4909239 948.74658203 264.24511719 C950.25104301 264.67645739 951.75550398 265.10779761 953.25996494 265.53913784 C960.02648201 267.47913898 966.79301324 269.41909072 973.55958921 271.35888642 C988.18749255 275.55233901 1002.8151162 279.74675844 1017.44149721 283.94551814 C1022.99542495 285.5398409 1028.54943159 287.13388884 1034.10346389 288.72784734 C1035.4587421 289.11680382 1036.81401647 289.50577366 1038.16928697 289.89475703 C1055.27976422 294.80562596 1072.39549486 299.69744826 1089.5206604 304.55688095 C1095.16435305 306.15942612 1100.8065743 307.76714411 1106.44869995 309.37519646 C1110.62130312 310.56381364 1114.79488015 311.74867865 1118.97143555 312.92333984 C1147.01732019 320.81348674 1174.00362115 329.346994 1196.875 348.12109375 C1197.42607422 348.56678711 1197.97714844 349.01248047 1198.54492188 349.47167969 C1209.20900554 358.13253247 1218.68645037 367.5923605 1227.0625 378.49609375 C1230.1435564 382.43756837 1233.39104489 385.27969032 1237.40234375 388.23828125 C1270.44077188 413.39550457 1290.07261184 453.27742418 1296.1875 493.74609375 C1299.6974174 527.19155668 1294.52590023 562.67095866 1279.875 593.12109375 C1279.31304932 594.30227783 1279.31304932 594.30227783 1278.73974609 595.50732422 C1270.6667024 612.2387777 1260.75132956 626.71103032 1247.875 640.12109375 C1247.03582031 641.01183594 1246.19664063 641.90257812 1245.33203125 642.8203125 C1234.5222636 654.0044444 1222.44459688 662.58891944 1208.875 670.12109375 C1208.25286621 670.46914063 1207.63073242 670.8171875 1206.98974609 671.17578125 C1183.43165656 684.16661165 1156.91183436 690.24750974 1130.125 690.37109375 C1129.05378906 690.39171875 1127.98257812 690.41234375 1126.87890625 690.43359375 C1107.38898941 690.52413924 1089.09241566 685.90244125 1070.5 680.49609375 C1068.01864799 679.78601053 1065.53694394 679.07715659 1063.05493164 678.36938477 C1057.58520315 676.80742986 1052.1185645 675.2350217 1046.65380859 673.65576172 C1038.42610842 671.27807909 1030.1939952 668.91596592 1021.96097565 666.55677795 C1007.86939799 662.51829475 993.78121715 658.46806765 979.69454193 654.41252136 C950.75270431 646.08037265 921.8023365 637.77801903 892.85131365 629.47785813 C887.7900829 628.02681698 882.72887939 626.57568087 877.66769409 625.1244812 C876.94483567 624.91721521 876.22197726 624.70994922 875.47721404 624.49640244 C874.01167173 624.07618549 872.54612947 623.65596835 871.08058727 623.23575103 C856.87398 619.16228081 842.66728367 615.08912125 828.46055508 611.01607418 C817.96456617 608.00688879 807.4686012 604.99761995 796.97265625 601.98828125 C795.86775424 601.67149005 795.86775424 601.67149005 794.74053097 601.34829903 C791.02226662 600.28221907 787.30400273 599.21613753 783.58573914 598.15005493 C776.14505183 596.01669709 768.70436217 593.88334741 761.26367188 591.75 C760.52671365 591.5387039 759.78975542 591.3274078 759.03046513 591.10970879 C748.56289428 588.10851286 738.09530978 585.10736454 727.62771702 582.10624504 C685.67413805 570.0779017 643.72103698 558.04789263 601.76821136 546.016922 C591.21006422 542.98912274 580.65191295 539.96133789 570.09375 536.93359375 C569.39474705 536.73314201 568.69574409 536.53269028 567.97555923 536.32616425 C534.19297076 526.63841317 500.40985933 516.95248621 466.62671518 507.26667309 C405.86199511 489.84508795 345.09797988 472.42104594 284.33435494 454.99564159 C270.20064779 450.94246844 256.06692849 446.88933773 241.93316138 442.83637369 C239.79277471 442.22260061 237.65238922 441.60882344 235.5120039 440.99504566 C229.08199533 439.15117992 222.65197655 437.30734979 216.22191375 435.46367317 C212.65029614 434.4395902 209.07868602 433.4154811 205.50708008 432.39135742 C204.44707682 432.08741233 204.44707682 432.08741233 203.36565936 431.77732694 C193.48562605 428.94427287 183.60599937 426.10980466 173.72664845 423.27437198 C167.43634241 421.4690691 161.14592092 419.66416863 154.85546875 417.859375 C154.16445753 417.66110808 153.47344631 417.46284115 152.76149535 417.25856614 C132.26928534 411.37906473 111.77105986 405.52094227 91.26854843 399.67746925 C85.98649932 398.17186501 80.70487297 396.66478527 75.42353821 395.15667725 C74.68712894 394.94639326 73.95071967 394.73610928 73.19199497 394.51945305 C69.51443908 393.46925154 65.83694132 392.41884673 62.15948582 391.36829376 C54.38211837 389.14682595 46.60337849 386.93029372 38.82271451 384.72039932 C32.92301932 383.04425478 27.02572387 381.35980429 21.12921715 379.67247963 C18.73803381 378.98967568 16.34608076 378.30955974 13.95325661 377.63252831 C2.45831131 374.37876589 -8.93537092 370.98192276 -20.17333984 366.91772461 C-21.05064066 366.60070619 -21.92794147 366.28368776 -22.83182716 365.95706272 C-43.07858912 358.44572366 -60.76670653 346.18362916 -76.125 331.12109375 C-77.16526409 330.11968726 -78.20563096 329.11838754 -79.24609375 328.1171875 C-83.8337727 323.65571607 -88.19746709 319.17955979 -92.0625 314.05859375 C-95.04922066 310.18873598 -98.35225713 307.07567581 -102.125 303.99609375 C-135.70025748 276.47328328 -157.94028856 238.04688012 -162.94628906 194.56665039 C-165.40428013 160.93045289 -160.3311557 127.92489368 -146.125 97.12109375 C-145.67688965 96.14873779 -145.67688965 96.14873779 -145.21972656 95.15673828 C-140.92713967 85.95055573 -136.12077791 77.34911272 -130.125 69.12109375 C-129.73505859 68.58307129 -129.34511719 68.04504883 -128.94335938 67.49072266 C-102.68432259 31.62749485 -63.75201538 8.81995656 -20.02734375 1.83203125 C-13.33897389 0.83505444 -6.75334576 0.26169215 0 0 Z M-112.21484375 58.96875 C-145.3478933 96.3027179 -157.57666656 145.16938408 -155.125 194.12109375 C-151.73962857 233.54729227 -128.79701182 271.39328271 -99.18261719 296.78662109 C-77.81145994 314.36646836 -53.07059834 323.81180941 -26.68383789 331.12768555 C-22.28392664 332.3558696 -17.89183351 333.61047258 -13.5 334.8671875 C-12.60648834 335.12279953 -11.71297668 335.37841156 -10.79238892 335.64176941 C-8.89308675 336.18513495 -6.99379509 336.72853719 -5.09451294 337.27197266 C-1.0215591 338.43661854 3.05212886 339.5986847 7.12583923 340.76068115 C35.4622391 348.84349008 63.78733766 356.96425128 92.09608459 365.1434021 C101.35155649 367.81741289 110.60965043 370.48147069 119.875 373.12109375 C153.06278279 382.58550724 186.23825208 392.09145193 219.39941406 401.64868164 C232.89767378 405.53882085 246.39764576 409.42259545 259.90682983 413.2746582 C296.18690989 423.62067871 332.4640615 433.97635732 368.70727539 444.45092773 C370.20448875 444.88362221 370.20448875 444.88362221 371.73194885 445.32505798 C373.53739597 445.8469743 375.34277447 446.36912812 377.14805603 446.89161682 C384.3856036 448.98482583 391.62998867 451.05388568 398.875 453.12109375 C400.05358582 453.45746857 401.23217163 453.79384338 402.44647217 454.14041138 C404.8994494 454.84047291 407.35244266 455.54047826 409.80545044 456.24043274 C443.41512577 465.83100885 477.01690033 475.44734707 510.59375 485.15234375 C518.00181278 487.29347689 525.41236565 489.42537941 532.82861328 491.5380249 C566.70071236 501.18906769 600.55673791 510.89503578 634.39941406 520.64868164 C647.89767378 524.53882085 661.39764576 528.42259545 674.90682983 532.2746582 C711.18690989 542.62067871 747.4640615 552.97635732 783.70727539 563.45092773 C785.20448875 563.88362221 785.20448875 563.88362221 786.73194885 564.32505798 C788.53739597 564.8469743 790.34277447 565.36912812 792.14805603 565.89161682 C799.3856036 567.98482583 806.62998867 570.05388568 813.875 572.12109375 C815.05358582 572.45746857 816.23217163 572.79384338 817.44647217 573.14041138 C819.8994494 573.84047291 822.35244266 574.54047826 824.80545044 575.24043274 C858.41512582 584.83100886 892.016897 594.44735848 925.59375 604.15234375 C932.97919591 606.28691486 940.36710433 608.41234485 947.76068115 610.51861572 C954.75242871 612.51092369 961.7431151 614.50695648 968.73388672 616.50268555 C973.62958265 617.90031085 978.52583506 619.29596746 983.42236328 620.69067383 C995.17735437 624.0421216 1006.92483172 627.41365465 1018.64453125 630.88671875 C1055.0058545 641.6500061 1089.98803933 651.05989717 1127.875 641.12109375 C1128.7117627 640.90678711 1129.54852539 640.69248047 1130.41064453 640.47167969 C1163.73769067 631.74452867 1193.71615643 613.61242277 1214.875 586.12109375 C1215.61492187 585.19683594 1216.35484375 584.27257812 1217.1171875 583.3203125 C1244.60671155 548.17367189 1255.90284358 500.15730502 1251.25 456.24609375 C1245.91266795 423.99815745 1232.05642184 394.09621944 1209.28710938 370.58886719 C1207.87408123 369.12013877 1206.49133448 367.62684117 1205.109375 366.12890625 C1183.8714727 343.53016427 1155.44643985 331.45423596 1126.13671875 323.27734375 C1124.26413223 322.74675513 1122.39180871 322.21523753 1120.51972961 321.68286133 C1116.57603571 320.56332367 1112.63070041 319.44986734 1108.68383789 318.34155273 C1102.46932653 316.59641501 1096.25877842 314.83746078 1090.04882812 313.07617188 C1082.87380834 311.04192305 1075.69806605 309.01027615 1068.52110481 306.98288727 C1056.23144995 303.51075167 1043.95475085 299.99643919 1031.68984985 296.43774414 C1007.95404092 289.55145938 984.18674677 282.77530682 960.42168808 275.9908638 C908.03097171 261.03433566 908.03097171 261.03433566 886.0625 254.68359375 C862.48573503 247.86903542 838.90028638 241.08489306 815.3125 234.30859375 C813.80714251 233.87611265 813.80714251 233.87611265 812.27137375 233.43489456 C779.14414672 223.91796149 746.00656857 214.43760982 712.86340332 204.97634888 C687.42773431 197.71513581 662.00005515 190.42711273 636.58361816 183.09887695 C614.95277032 176.86229623 593.31020467 170.66749898 571.66250229 164.48969269 C549.7249697 158.22901238 527.79582103 151.94003379 505.875 145.62109375 C483.36295936 139.13177549 460.84175284 132.67539909 438.3125 126.24609375 C413.56017278 119.1823766 388.81794758 112.0843292 364.08272552 104.96095276 C340.87564888 98.27783009 317.6605768 91.62339972 294.4375 84.99609375 C271.22666454 78.37228116 248.02492425 71.71781353 224.8318367 65.03212738 C201.40032376 58.27790002 177.95712643 51.56537801 154.50732422 44.87493896 C138.18681882 40.21839512 121.86990561 35.54989562 105.5625 30.84765625 C104.81330292 30.63167534 104.06410583 30.41569443 103.29220581 30.19316864 C96.09746673 28.11901642 88.90307544 26.04367739 81.7100563 23.96356773 C69.67206599 20.48318542 57.63141151 17.01510712 45.546875 13.69921875 C44.68578125 13.46175934 43.8246875 13.22429993 42.9375 12.97964478 C-13.25468604 -2.29809572 -72.35243488 17.58293697 -112.21484375 58.96875 Z " fill="#010101" transform="translate(202.125,37.87890625)"/>
<path d="M0 0 C10.75471761 8.15094387 18.85358134 19.02752303 21.22265625 32.53125 C22.8782514 48.62731399 20.54863978 62.58068339 10.55859375 75.6328125 C1.75802649 85.92605548 -8.85189089 92.90464717 -22.40234375 94.96875 C-40.39298861 96.3390186 -53.22234975 92.97462742 -67.328125 81.38671875 C-76.80790372 72.74771863 -82.5809661 59.89189813 -83.74609375 47.234375 C-84.1519867 30.66041276 -79.26205642 17.29913116 -67.80859375 5.25390625 C-48.87850427 -12.72353263 -21.56423616 -14.64506398 0 0 Z " fill="#020202" transform="translate(567.40234375,263.03125)"/>
<path d="M0 0 C5.53446916 0.58617536 10.69990875 1.56344988 16.05078125 3.07421875 C16.79023483 3.28053421 17.52968842 3.48684967 18.29154968 3.69941711 C19.84621496 4.13589687 21.39998607 4.57557308 22.95288086 5.01831055 C25.29240221 5.68180026 27.63697377 6.32462308 29.98242188 6.96679688 C46.67192167 11.63854626 60.02776244 18.56600497 69 34 C75.30745702 47.21795257 77.64554682 60.75295302 72.9375 74.9375 C67.89502118 88.33202825 58.89298169 98.73425189 46 105 C30.49482014 111.53936553 17.95315385 110.58040761 2 106 C-0.41528895 105.31744064 -2.8306605 104.63517353 -5.24609375 103.953125 C-12.17082846 101.9920683 -19.08704163 100.00219325 -26 98 C-27.23095783 94.46346738 -26.7550375 92.23986843 -25.71166992 88.68530273 C-25.24896698 87.08170395 -25.24896698 87.08170395 -24.7769165 85.44570923 C-24.43158875 84.28671112 -24.08626099 83.12771301 -23.73046875 81.93359375 C-23.37829285 80.72271088 -23.02611694 79.511828 -22.66326904 78.26425171 C-21.71038933 74.99402675 -20.74898499 71.72654333 -19.78373337 68.45996475 C-18.79263032 65.09807479 -17.81272536 61.73292909 -16.83227539 58.36791992 C-15.46816016 53.68897891 -14.10117226 49.01090035 -12.72991848 44.33404636 C-9.9685488 34.91435642 -7.25637453 25.48116621 -4.57095337 16.0395813 C-3.94637855 13.843715 -3.32047152 11.64823292 -2.6940918 9.45288086 C-1.79517943 6.3021714 -0.89720393 3.15119647 0 0 Z " fill="#020202" transform="translate(315,189)"/>
<path d="M0 0 C6.67082673 0.5683664 12.73839105 1.84262043 19.15234375 3.73046875 C20.09251846 4.00337234 21.03269318 4.27627594 22.00135803 4.55744934 C23.97822016 5.13435838 25.95391275 5.71528885 27.9284668 6.30004883 C30.92124811 7.18270685 33.92008496 8.04206502 36.91992188 8.90039062 C51.79153505 13.23103377 64.45810736 17.66778872 72.4375 31.875 C75.69944389 39.98043634 75.72359971 52.0489654 72.375 60.125 C71.2578125 62.12109375 71.2578125 62.12109375 70 64 C69.34644531 65.03833984 69.34644531 65.03833984 68.6796875 66.09765625 C63.46224367 73.72424764 56.81971468 78.39746124 48 81 C46.33388251 81.0427819 44.66586186 81.05178845 43 81 C43.29132813 81.83917969 43.58265625 82.67835938 43.8828125 83.54296875 C46.55783174 91.39137426 49.01848711 99.28143214 51.3125 107.25 C51.57885254 108.16676514 51.84520508 109.08353027 52.11962891 110.02807617 C52.36503418 110.89021729 52.61043945 111.7523584 52.86328125 112.640625 C53.19259644 113.79353027 53.19259644 113.79353027 53.52856445 114.96972656 C54 117 54 117 54 120 C48.46927263 119.31235609 43.14512555 118.20550373 37.75 116.8125 C36.94820312 116.62880859 36.14640625 116.44511719 35.3203125 116.25585938 C34.16402344 115.95325195 34.16402344 115.95325195 32.984375 115.64453125 C32.29053711 115.47284424 31.59669922 115.30115723 30.88183594 115.12426758 C26.35293756 112.4185622 25.21581728 105.93716993 23.73828125 101.17578125 C23.54276169 100.54770065 23.34724213 99.91962006 23.14579773 99.27250671 C22.73750002 97.9564577 22.33175234 96.63961504 21.9284668 95.32202148 C21.31035389 93.30549857 20.68212672 91.29232419 20.05273438 89.27929688 C19.65564702 87.99497794 19.25914189 86.71047882 18.86328125 85.42578125 C18.50532471 84.26473877 18.14736816 83.10369629 17.77856445 81.9074707 C17 79 17 79 17 76 C13.04 75.01 9.08 74.02 5 73 C4.75765625 73.98097656 4.5153125 74.96195312 4.265625 75.97265625 C1.94182231 85.34267757 -0.48254689 94.68006721 -3 104 C-19.8929385 99.96127563 -19.8929385 99.96127563 -27 97 C-23.53990029 82.38709415 -19.34278512 67.98964228 -15.1875 53.5625 C-13.80478819 48.75164664 -12.42361613 43.94035244 -11.04296875 39.12890625 C-10.70699677 37.95889069 -10.37102478 36.78887512 -10.02487183 35.58340454 C-6.62821129 23.73766492 -3.30463913 11.87169748 0 0 Z " fill="#030202" transform="translate(1116,418)"/>
<path d="M0 0 C6.65828844 6.20687906 9.84033626 12.97570486 10.1640625 22.078125 C10.16669225 23.41666662 10.16398712 24.75522816 10.15625 26.09375 C10.16011719 26.77824219 10.16398437 27.46273437 10.16796875 28.16796875 C10.15797061 33.21702939 10.15797061 33.21702939 9.03125 34.34375 C1.95287208 33.9430871 -4.32800297 31.72335102 -10.96875 29.34375 C-11.06671875 28.67988281 -11.1646875 28.01601563 -11.265625 27.33203125 C-12.48832607 20.04750644 -12.48832607 20.04750644 -16.96875 14.34375 C-25.01702004 9.24651231 -34.48139666 6.97368189 -43.96875 8.34375 C-46.30060932 9.53991797 -46.30060932 9.53991797 -47.96875 11.34375 C-48.54878964 15.25901757 -48.53298567 17.44661528 -46.40625 20.828125 C-43.38732009 23.94381548 -40.37224486 25.4314912 -36.46875 27.21875 C-35.02986315 27.90988048 -33.59237262 28.60392508 -32.15625 29.30078125 C-31.44726562 29.64318848 -30.73828125 29.9855957 -30.0078125 30.33837891 C-17.63323864 36.4397313 -8.28348887 42.84537411 -1.96875 55.34375 C0.96822549 64.15467646 -0.97474485 73.21026269 -4.96875 81.34375 C-8.97081886 87.77131514 -15.78313939 91.58699212 -22.8828125 93.9921875 C-39.12785643 96.73011625 -55.46386152 91.88440724 -69.0546875 82.9765625 C-75.88551355 77.69684105 -81.07601407 68.75767696 -82.96875 60.34375 C-83.57164324 54.28610838 -82.96166044 49.07336751 -80.96875 43.34375 C-75.72944517 44.29128385 -70.54273302 45.37297904 -65.40625 46.78125 C-64.57996094 47.00683594 -63.75367188 47.23242188 -62.90234375 47.46484375 C-62.26425781 47.75488281 -61.62617187 48.04492188 -60.96875 48.34375 C-60.06724883 51.04825352 -59.85380143 52.86357941 -59.71875 55.65625 C-59.28834872 59.49867302 -58.45069714 62.16209512 -55.6953125 65.0625 C-49.50792248 69.65404735 -41.53062249 71.47665553 -33.96875 71.65625 C-32.421875 71.71232422 -32.421875 71.71232422 -30.84375 71.76953125 C-27.86318637 71.56214975 -27.86318637 71.56214975 -25.58203125 69.546875 C-23.59355385 67.31851997 -23.59355385 67.31851997 -24.15625 63.78125 C-24.90381984 60.38932934 -24.90381984 60.38932934 -25.96875 57.34375 C-27.77017534 56.21753143 -27.77017534 56.21753143 -29.96875 55.34375 C-30.70762451 55.00255127 -31.44649902 54.66135254 -32.20776367 54.30981445 C-33.00931885 53.945896 -33.81087402 53.58197754 -34.63671875 53.20703125 C-35.53068359 52.79388672 -36.42464844 52.38074219 -37.34570312 51.95507812 C-39.19588959 51.10005797 -41.04999606 50.25346168 -42.90820312 49.41601562 C-54.91060715 43.82291253 -65.92776288 35.67447045 -71.0859375 23.171875 C-73.33435944 15.96896578 -72.41944053 9.61914923 -69.3515625 2.796875 C-64.78250033 -5.30869291 -58.69970531 -10.48787377 -49.96875 -13.65625 C-32.15698815 -17.64854145 -13.71232374 -11.53576442 0 0 Z " fill="#030302" transform="translate(1360.96875,487.65625)"/>
<path d="M0 0 C14.62168931 3.47786519 29.04825313 7.6328089 43.5 11.75 C45.98040361 12.45465643 48.46087188 13.15908528 50.94140625 13.86328125 C56.96168515 15.57289913 62.98116116 17.28531958 69 19 C68.68457872 20.43777991 68.36803745 21.87531414 68.05102539 23.31274414 C67.87487198 24.11329727 67.69871857 24.9138504 67.51722717 25.73866272 C66.92248903 28.33888098 66.21699801 30.88678661 65.4375 33.4375 C65.18871094 34.26121094 64.93992187 35.08492188 64.68359375 35.93359375 C64 38 64 38 63 40 C57.32800283 39.41376353 52.09821749 38.35182199 46.6328125 36.75 C45.87201385 36.53182617 45.11121521 36.31365234 44.32736206 36.08886719 C42.7350131 35.63105074 41.14347531 35.17040412 39.55273438 34.70703125 C37.11244007 33.99634216 34.66977693 33.29432731 32.2265625 32.59375 C30.6743358 32.14633042 29.1222473 31.69843102 27.5703125 31.25 C26.84014923 31.03956055 26.10998596 30.82912109 25.35769653 30.61230469 C20.23460184 29.11730092 20.23460184 29.11730092 18 28 C17.81824219 28.94359375 17.81824219 28.94359375 17.6328125 29.90625 C16.57321984 35.31832326 15.38400102 40.66171034 14 46 C15.01602295 46.12761719 16.0320459 46.25523437 17.07885742 46.38671875 C20.75442458 46.96159109 24.16674137 47.78408499 27.73828125 48.8125 C29.58583008 49.34230469 29.58583008 49.34230469 31.47070312 49.8828125 C32.10113525 50.06618164 32.73156738 50.24955078 33.38110352 50.43847656 C35.32357984 51.00322129 37.26802228 51.56074245 39.21289062 52.1171875 C48.70958851 54.85479425 48.70958851 54.85479425 51 56 C50.58427734 57.64548828 50.58427734 57.64548828 50.16015625 59.32421875 C49.79420763 60.77862993 49.42832573 62.2330579 49.0625 63.6875 C48.88009766 64.40873047 48.69769531 65.12996094 48.50976562 65.87304688 C48.24389648 66.93168945 48.24389648 66.93168945 47.97265625 68.01171875 C47.81031494 68.65584717 47.64797363 69.29997559 47.48071289 69.96362305 C46.9294605 72.29881665 46.45951604 74.64520381 46 77 C37.81410665 75.57713519 29.9481017 73.33393412 22 70.9375 C20.77410156 70.57333984 19.54820313 70.20917969 18.28515625 69.83398438 C9.29187414 67.14593707 9.29187414 67.14593707 7 66 C5.68 71.94 4.36 77.88 3 84 C5.31257813 84.37125 5.31257813 84.37125 7.671875 84.75 C14.37548714 85.96961938 20.7659067 87.93347604 27.25 90 C29.50503869 90.70887321 31.76024237 91.41722184 34.015625 92.125 C35.05396484 92.45242188 36.09230469 92.77984375 37.16210938 93.1171875 C40.42786713 94.13310113 43.70455138 95.08565587 47 96 C46.37942343 98.56364399 45.75370801 101.12584926 45.125 103.6875 C44.86396484 104.7693457 44.86396484 104.7693457 44.59765625 105.87304688 C43.64902134 109.72028845 42.59509159 113.35715569 41 117 C33.13348892 115.59165737 25.5182369 113.55280513 17.84375 111.33984375 C16.61966431 110.9899086 15.39557861 110.63997345 14.13439941 110.2794342 C11.56560117 109.54420401 8.99728338 108.80751185 6.4296875 108.06811523 C3.13784137 107.12024814 -0.15550243 106.17771397 -3.44937897 105.23692989 C-6.60230481 104.33594972 -9.75426451 103.43160723 -12.90625 102.52734375 C-14.08948853 102.18879868 -15.27272705 101.8502536 -16.49182129 101.50144958 C-17.58055542 101.18764847 -18.66928955 100.87384735 -19.79101562 100.55053711 C-20.75124634 100.27455185 -21.71147705 99.99856659 -22.70080566 99.71421814 C-25 99 -25 99 -27 98 C-26.30767106 91.54888234 -24.56062797 85.51616986 -22.75390625 79.296875 C-22.42680161 78.15696106 -22.09969696 77.01704712 -21.76268005 75.84259033 C-20.70025717 72.1438068 -19.63141472 68.4469121 -18.5625 64.75 C-17.83352501 62.21627795 -17.10501097 59.68242324 -16.37695312 57.1484375 C-14.92937511 52.11201428 -13.47956975 47.07624134 -12.02783203 42.04101562 C-9.55086872 33.44638439 -7.09348685 24.84620756 -4.64035034 16.24475098 C-3.63638296 12.72533886 -2.63066311 9.20642786 -1.625 5.6875 C-1.30789063 4.57761719 -0.99078125 3.46773438 -0.6640625 2.32421875 C-0.44492188 1.55722656 -0.22578125 0.79023438 0 0 Z " fill="#030303" transform="translate(1216,446)"/>
<path d="M0 0 C8.20100635 0.8465701 16.15981528 3.33542464 24.03515625 5.66015625 C25.23563095 6.0100914 26.43610565 6.36002655 27.67295837 6.7205658 C30.82806264 7.64166593 33.98165255 8.56773126 37.13464355 9.49603271 C39.71943365 10.25552859 42.3058558 11.00937617 44.89234257 11.76307011 C47.98231805 12.66386072 51.0712457 13.5682217 54.16015625 14.47265625 C55.31838394 14.81120132 56.47661163 15.1497464 57.66993713 15.49855042 C59.26816566 15.96925209 59.26816566 15.96925209 60.89868164 16.44946289 C61.83813126 16.72544815 62.77758087 17.00143341 63.74549866 17.28578186 C66 18 66 18 68 19 C67.3900874 23.98844309 66.36525565 28.60155346 64.9375 33.4375 C64.39416016 35.29181641 64.39416016 35.29181641 63.83984375 37.18359375 C63.42412109 38.57771484 63.42412109 38.57771484 63 40 C53.2789154 38.27752676 43.86655343 35.54990925 34.375 32.875 C32.68629241 32.40200626 30.99749103 31.92934721 29.30859375 31.45703125 C25.2046374 30.30854464 21.10197803 29.1555316 17 28 C16.81824219 28.96099609 16.81824219 28.96099609 16.6328125 29.94140625 C15.64320773 35.04928933 14.51489049 40.02250269 13 45 C14.49273437 45.32871094 14.49273437 45.32871094 16.015625 45.6640625 C27.51335729 48.25408092 38.74609995 51.50861426 50 55 C49.45297468 60.25144307 48.56747703 64.95232919 46.9375 70 C46.57527344 71.134375 46.21304688 72.26875 45.83984375 73.4375 C45.42412109 74.7059375 45.42412109 74.7059375 45 76 C39.5972654 75.43197994 34.66651516 74.48051074 29.4375 72.93359375 C28.76074219 72.73524429 28.08398438 72.53689484 27.38671875 72.33253479 C25.25605716 71.70663753 23.12804118 71.07224248 21 70.4375 C19.54313619 70.00789533 18.08610618 69.57885383 16.62890625 69.15039062 C13.08399573 68.10675385 9.54140243 67.05548803 6 66 C5.68492726 67.52030242 5.37309268 69.041276 5.0625 70.5625 C4.88847656 71.40941406 4.71445312 72.25632812 4.53515625 73.12890625 C3.92498666 76.40244382 3.47092155 79.70354917 3 83 C16.86 86.96 30.72 90.92 45 95 C45.9684759 98.87390359 46.04960955 99.7574308 45.00390625 103.328125 C44.77509766 104.12734375 44.54628906 104.9265625 44.31054688 105.75 C44.06369141 106.575 43.81683594 107.4 43.5625 108.25 C43.31951172 109.09046875 43.07652344 109.9309375 42.82617188 110.796875 C42.22626051 112.86715734 41.61429181 114.93393897 41 117 C32.93808324 115.58373485 25.17654383 113.41500326 17.3359375 111.0859375 C16.04996668 110.70727415 14.76388261 110.32899526 13.47769165 109.95108032 C10.12624589 108.96523993 6.77634345 107.97425594 3.42675781 106.9821167 C-0.00492544 105.96667901 -3.43807341 104.95621855 -6.87109375 103.9453125 C-13.58215409 101.96835377 -20.29159386 99.98594602 -27 98 C-26.42633928 90.06879462 -24.43871696 82.8339456 -22.2109375 75.21875 C-21.8249058 73.87922004 -21.43955475 72.53949377 -21.05484009 71.19958496 C-20.04136289 67.67612767 -19.0193395 64.15520884 -17.99523926 60.63482666 C-16.98045735 57.14200765 -15.97266595 53.64717612 -14.96484375 50.15234375 C-13.78082422 46.04657404 -12.59637656 41.94093947 -11.40716553 37.83666992 C-8.56502333 28.0188435 -5.79434328 18.18238036 -3.09970093 8.32287598 C-2.83557404 7.36619019 -2.57144714 6.40950439 -2.29931641 5.42382812 C-2.070961 4.58855591 -1.84260559 3.75328369 -1.60733032 2.8927002 C-1 1 -1 1 0 0 Z " fill="#030302" transform="translate(420,218)"/>
<path d="M0 0 C4.64146512 0.58439128 8.99776052 1.45333283 13.48608398 2.76586914 C14.72684189 3.12616714 15.96759979 3.48646515 17.24595642 3.85768127 C18.57936585 4.2500699 19.91274426 4.64256399 21.24609375 5.03515625 C22.62602277 5.43770867 24.00607549 5.83983729 25.38624573 6.24156189 C28.99923943 7.2944162 32.6105353 8.35298017 36.22149658 9.41278076 C39.91422571 10.49546734 43.6085471 11.57269206 47.30273438 12.65039062 C54.53671906 14.76161414 61.76876271 16.87938122 69 19 C67.02 25.93 65.04 32.86 63 40 C56.91661287 38.78332257 51.29786975 37.61497683 45.41796875 35.87109375 C44.7558992 35.67653091 44.09382965 35.48196808 43.41169739 35.2815094 C41.33574073 34.67089784 39.26152448 34.05463928 37.1875 33.4375 C35.0954054 32.8175754 33.00294897 32.19894517 30.90974426 31.58277893 C29.02388606 31.0272921 27.13922497 30.4677458 25.25463867 29.90795898 C22.50896784 29.1419887 19.80274749 28.5086578 17 28 C16.896875 28.94875 16.79375 29.8975 16.6875 30.875 C16.00846182 35.73811164 14.4761068 40.33124494 13 45 C13.55220215 45.09651855 14.1044043 45.19303711 14.67333984 45.29248047 C22.46890631 46.74557027 30.01706301 48.9076507 37.625 51.125 C38.92827757 51.50167544 40.23166237 51.87798005 41.53515625 52.25390625 C44.6911738 53.16564465 47.84606548 54.08108691 51 55 C49.90461886 60.05576753 48.76327858 65.07731781 47.375 70.0625 C47.11460937 71.00222656 46.85421875 71.94195312 46.5859375 72.91015625 C46.29589844 73.94462891 46.29589844 73.94462891 46 75 C41.46313292 76.37449504 37.98173806 75.45976142 33.58203125 74.12890625 C32.53434822 73.82713722 32.53434822 73.82713722 31.46549988 73.51927185 C29.24461639 72.87752179 27.0285712 72.22065558 24.8125 71.5625 C22.58494841 70.91092615 20.35652084 70.26250337 18.12736511 69.61643982 C16.74286408 69.21410576 15.35944651 68.80802073 13.97724915 68.39784241 C10.54648868 67.35161615 10.54648868 67.35161615 7 67 C5.35 72.28 3.7 77.56 2 83 C3.64484375 83.39832031 5.2896875 83.79664063 6.984375 84.20703125 C14.80077584 86.16113146 22.52020402 88.42032083 30.25 90.6875 C31.68874045 91.10763298 33.1275422 91.52755613 34.56640625 91.94726562 C38.04497858 92.9624332 41.52272052 93.98041153 45 95 C45.87440266 98.47900634 46.07580503 100.78218393 45.00390625 104.20703125 C44.77509766 104.95791016 44.54628906 105.70878906 44.31054688 106.48242188 C44.06369141 107.25134766 43.81683594 108.02027344 43.5625 108.8125 C43.31951172 109.60076172 43.07652344 110.38902344 42.82617188 111.20117188 C42.22772569 113.13732129 41.61524123 115.06912181 41 117 C26.52565873 113.5809079 12.2780291 109.40045384 -2 105.25 C-4.43221446 104.5453064 -6.86450557 103.84087728 -9.296875 103.13671875 C-15.19880322 101.42752543 -21.09977912 99.71507729 -27 98 C-26.4271869 92.56882818 -25.46258088 87.478014 -23.93041992 82.22973633 C-23.72212051 81.49842499 -23.51382111 80.76711365 -23.29920959 80.01364136 C-22.61532537 77.61809828 -21.92302157 75.22508119 -21.23046875 72.83203125 C-20.74775123 71.14838795 -20.26552609 69.46460342 -19.7837677 67.78068542 C-18.51656915 63.35695996 -17.24203143 58.93538074 -15.96612549 54.51416016 C-14.93444162 50.93444276 -13.90810096 47.35320444 -12.88204479 43.77187061 C-11.64595203 39.45803551 -10.40723072 35.14495682 -9.16796875 30.83203125 C-8.9365386 30.02617899 -8.70510845 29.22032673 -8.46666527 28.3900547 C-5.73762906 18.89641358 -2.94866272 9.42823176 0 0 Z " fill="#030302" transform="translate(744,311)"/>
<path d="M0 0 C7.40421424 1.79380448 14.72230943 3.74742478 22 6 C20.23606954 13.65392435 18.09935611 21.17242035 15.86328125 28.69921875 C15.43473343 30.14882492 15.43473343 30.14882492 14.99752808 31.62771606 C13.80160072 35.67192866 12.60499346 39.71579664 11.3894043 43.75415039 C10.49449558 46.73264162 9.61518887 49.71538567 8.73828125 52.69921875 C8.46333328 53.5994426 8.18838531 54.49966644 7.90510559 55.4271698 C5.50529892 63.67774997 4.7404759 71.03987182 8.58984375 78.91796875 C11.6129044 83.38137962 15.93387565 86.31129188 21 88 C28.21562648 89.03291177 34.05704638 87.15698828 40 83 C43.1731372 79.50069503 44.72006875 76.57114815 45.96704102 72.03222656 C46.2974086 70.85460754 46.62777618 69.67698853 46.96815491 68.46368408 C47.30995285 67.20207458 47.65175079 65.94046509 48.00390625 64.640625 C48.37074202 63.32697919 48.73900494 62.01373116 49.10862732 60.7008667 C50.47168085 55.84772925 51.8091556 50.98762363 53.14660645 46.12738037 C54.28113012 42.00799872 55.42563577 37.89165886 56.58402824 33.77892303 C57.12309509 31.84893038 57.64703137 29.91473244 58.17079163 27.98052979 C58.49800705 26.81551941 58.82522247 25.65050903 59.16235352 24.45019531 C59.44563004 23.41936829 59.72890656 22.38854126 60.02076721 21.32647705 C60.50548744 20.17487091 60.50548744 20.17487091 61 19 C64.42530237 17.85823254 65.31673674 18.16891784 68.66796875 19.21484375 C69.56064453 19.48876953 70.45332031 19.76269531 71.37304688 20.04492188 C72.30181641 20.33947266 73.23058594 20.63402344 74.1875 20.9375 C75.12787109 21.22818359 76.06824219 21.51886719 77.03710938 21.81835938 C79.36060971 22.53781887 81.68128518 23.26529186 84 24 C80.89436809 35.25356968 77.77282427 46.50262225 74.62994385 57.74584961 C74.23039156 59.17558171 73.83121674 60.6054194 73.43255615 62.03540039 C72.34269917 65.94393978 71.23867927 69.84818674 70.125 73.75 C69.86388428 74.68650391 69.60276855 75.62300781 69.33374023 76.58789062 C65.52556563 89.78923784 58.85656984 99.70494636 46.75 106.74609375 C35.83704332 111.72202996 22.48921598 113.95918101 10.90625 109.7109375 C-2.58429149 103.28826666 -10.72356021 94.31054235 -16.375 80.625 C-20.72850902 67.30621393 -16.29427051 54.97047439 -12.57714844 42.0133667 C-11.93266333 39.76509784 -11.29242086 37.51564095 -10.65234375 35.26611328 C-8.22255226 26.73710785 -5.77260854 18.21387068 -3.29296875 9.69921875 C-3.0765271 8.95128555 -2.86008545 8.20335236 -2.63708496 7.43275452 C-1.1162562 2.2325124 -1.1162562 2.2325124 0 0 Z " fill="#020202" transform="translate(1015,388)"/>
<path d="M0 0 C3.36187095 0.58699334 6.66693518 1.27186551 10 2 C10.6909375 2.12938965 11.381875 2.2587793 12.09375 2.39208984 C25.55071167 4.97659746 25.55071167 4.97659746 28.6171875 9.2578125 C29.44374555 12.51760885 29.71885657 15.64685036 30 19 C30.57828394 22.38831551 31.26689319 25.75392407 31.9375 29.125 C32.27583527 30.93990025 32.61306895 32.75500619 32.94921875 34.5703125 C34.07022807 40.49186693 35.38329679 46.36502683 36.78100586 52.22705078 C37.63155307 55.88718893 38.20574073 59.23788372 38 63 C38.66257813 62.33613281 39.32515625 61.67226562 40.0078125 60.98828125 C42.24575736 58.74954894 44.49285138 56.52025255 46.7421875 54.29296875 C48.11984395 52.9245318 49.49744694 51.55604103 50.875 50.1875 C51.55691406 49.51396484 52.23882812 48.84042969 52.94140625 48.14648438 C56.93171741 44.1751747 60.71379969 40.09675594 64.38818359 35.83227539 C66.60994386 33.30663001 68.96688222 30.97384103 71.375 28.625 C74.60234802 25.61560177 74.60234802 25.61560177 77 22 C85.8293034 23.76586068 94.38564937 26.40877168 103 29 C103 32 103 32 101.49609375 33.76171875 C100.81675781 34.39722656 100.13742187 35.03273437 99.4375 35.6875 C96.73026638 38.23641587 94.23032822 40.86256983 91.81274414 43.68286133 C88.22591358 47.79851779 84.44645854 51.66625455 80.5625 55.5 C79.87873291 56.17998047 79.19496582 56.85996094 78.49047852 57.56054688 C75.60262227 60.43225143 72.70876925 63.29788438 69.81542969 66.1640625 C67.68734275 68.27392787 65.56237083 70.38689645 63.4375 72.5 C62.79562744 73.13357422 62.15375488 73.76714844 61.49243164 74.41992188 C57.70041907 78.19165101 54.13163968 82.09078347 50.63665771 86.13848877 C48.37115471 88.71523969 45.98169489 91.11305699 43.5390625 93.5234375 C42.82500748 94.23181259 42.82500748 94.23181259 42.0965271 94.95449829 C40.60849579 96.43052811 39.11719126 97.90317664 37.625 99.375 C35.63514379 101.33826571 33.64864065 103.30483831 31.6640625 105.2734375 C30.35622803 106.56386963 30.35622803 106.56386963 29.02197266 107.88037109 C26.96110431 109.83297741 26.96110431 109.83297741 26 112 C25.34 112 24.68 112 24 112 C21.75350661 103.42455316 19.71544804 94.88064926 18.14526367 86.15332031 C16.29846777 75.98169859 14.02754053 65.88259117 11.4375 55.875 C10.12529649 50.73906367 9.14176883 45.56425017 8.19506836 40.35205078 C6.09896172 28.93225638 3.51903361 17.59766805 0.515625 6.3828125 C0 4 0 4 0 0 Z " fill="#020202" transform="translate(156,142)"/>
<path d="M0 0 C10.14773674 8.44321022 10.14773674 8.44321022 12 14 C9.23549979 15.67734723 6.46243144 17.33997634 3.6875 19 C2.90181641 19.47695313 2.11613281 19.95390625 1.30664062 20.4453125 C0.54931641 20.89648438 -0.20800781 21.34765625 -0.98828125 21.8125 C-1.68477783 22.23144531 -2.38127441 22.65039062 -3.09887695 23.08203125 C-5 24 -5 24 -8 24 C-9.11600202 22.81636149 -10.23094 21.63169743 -11.33984375 20.44140625 C-17.73378288 14.88996263 -25.75361609 12.61746195 -34.0234375 12.7265625 C-42.41304922 13.49726174 -49.57711073 17.61304153 -55 24 C-59.59311729 31.5180875 -61.87839229 38.17947741 -61 47 C-58.85173599 55.53467929 -55.51574439 62.93856802 -48 67.8125 C-42.37332654 71.13632122 -38.03889853 72.25961061 -31.4375 72.1875 C-30.13683594 72.18105469 -28.83617187 72.17460937 -27.49609375 72.16796875 C-24.73556345 72.03533992 -22.62067091 71.72008294 -20 71 C-18.3264663 73.95449913 -16.66236015 76.9142018 -15 79.875 C-14.52304687 80.71675781 -14.04609375 81.55851562 -13.5546875 82.42578125 C-13.10351562 83.23144531 -12.65234375 84.03710938 -12.1875 84.8671875 C-11.76855469 85.61081543 -11.34960938 86.35444336 -10.91796875 87.12060547 C-10 89 -10 89 -10 91 C-23.68246824 96.52099596 -38.15492954 97.0230824 -51.875 91.48828125 C-56.27910793 89.39082485 -60.15406598 86.99042565 -64 84 C-64.91845703 83.34257812 -64.91845703 83.34257812 -65.85546875 82.671875 C-75.0193656 75.6320602 -81.28710681 63.22625137 -83.61328125 52.0546875 C-85.60878845 36.29219631 -82.15099507 22.97910058 -73 10 C-55.00235721 -12.65838693 -23.51108181 -16.13847097 0 0 Z " fill="#030303" transform="translate(892,352)"/>
<path d="M0 0 C3.57868858 0.55258004 7.02397263 1.52475901 10.50195312 2.51879883 C11.58077759 2.82614456 12.65960205 3.1334903 13.77111816 3.45014954 C14.92946167 3.7824205 16.08780518 4.11469147 17.28125 4.45703125 C18.48632202 4.80126633 19.69139404 5.1455014 20.9329834 5.50016785 C23.4852219 6.22971313 26.0372271 6.96002019 28.58886719 7.69165039 C31.18154538 8.43499267 33.77462758 9.17689418 36.36816406 9.91723633 C40.1312933 10.99149018 43.89386741 12.06766562 47.65625 13.14453125 C48.79839966 13.47072952 49.94054932 13.7969278 51.11730957 14.13301086 C58.77411382 16.33011306 66.3944591 18.63164989 74 21 C70.00246875 41.99753125 70.00246875 41.99753125 68 44 C58.98138364 43.67790656 50.55233904 40.6609459 42 38 C41.79246094 38.8765625 41.58492187 39.753125 41.37109375 40.65625 C38.5670288 52.20101951 35.25055017 63.57176609 31.88916016 74.96484375 C30.50259904 79.69788268 29.15803616 84.4426691 27.8125 89.1875 C25.64231867 96.82464868 23.38829183 104.42771001 21 112 C13.59684417 110.20645194 6.27235389 108.26858827 -1 106 C-2.25447197 101.63524535 -1.65425627 98.77297801 -0.38525391 94.453125 C-0.20168839 93.81669067 -0.01812286 93.18025635 0.17100525 92.52453613 C0.77796295 90.4297959 1.40065167 88.34008342 2.0234375 86.25 C2.44949984 84.78969222 2.87450251 83.3290749 3.29849243 81.86816406 C4.41610841 78.02686378 5.54683486 74.1895506 6.6807251 70.35302734 C8.05444494 65.69723416 9.41431289 61.03738161 10.77451515 56.37762451 C11.83324377 52.75072886 12.89456329 49.12467102 13.96420288 45.50097656 C14.35162767 44.18294392 14.73904853 42.86491013 15.12646484 41.546875 C15.63395767 39.82742676 15.63395767 39.82742676 16.15170288 38.07324219 C16.89219688 35.39055313 17.49892902 32.73606238 18 30 C16.28296875 29.83177734 16.28296875 29.83177734 14.53125 29.66015625 C9.99572797 29.093216 5.82888996 27.86843862 1.5 26.4375 C0.77296875 26.20353516 0.0459375 25.96957031 -0.703125 25.72851562 C-2.47080261 25.15867219 -4.23570969 24.58024596 -6 24 C-4.66666667 4.66666667 -4.66666667 4.66666667 0 0 Z " fill="#030303" transform="translate(924,362)"/>
<path d="M0 0 C1.41352666 0.31014057 2.82680869 0.62139615 4.23999023 0.93310547 C5.02703842 1.10631317 5.81408661 1.27952087 6.62498474 1.45797729 C10.12884976 2.25762453 13.59492255 3.18215417 17.0625 4.125 C17.73732422 4.30675781 18.41214844 4.48851562 19.10742188 4.67578125 C20.73875552 5.11543145 22.36944986 5.5574528 24 6 C22.46320809 13.18676215 20.66129681 20.27919263 18.75 27.375 C18.4420752 28.5196875 18.13415039 29.664375 17.81689453 30.84375 C15.76708295 38.38115483 13.54437958 45.83863587 11.14086914 53.26977539 C9.37276758 58.75321902 7.73596082 64.26299791 6.1875 69.8125 C5.8769165 70.91561523 5.8769165 70.91561523 5.56005859 72.04101562 C4.46756736 76.00601329 3.59417554 79.93021697 3 84 C4.299375 84.226875 5.59875 84.45375 6.9375 84.6875 C21.21609062 87.55525064 35.1456767 92.57452461 49 97 C48.37942343 99.56364399 47.75370801 102.12584926 47.125 104.6875 C46.86396484 105.7693457 46.86396484 105.7693457 46.59765625 106.87304688 C46.42363281 107.57880859 46.24960937 108.28457031 46.0703125 109.01171875 C45.91320801 109.65584717 45.75610352 110.29997559 45.59423828 110.96362305 C44.88852164 113.38202177 43.96426452 115.67410921 43 118 C29.77451169 114.8699088 16.73702374 111.1280203 3.68603516 107.34448242 C0.08471687 106.30082601 -3.51808947 105.26242861 -7.12109375 104.22460938 C-9.41154675 103.56280591 -11.70191459 102.90070766 -13.9921875 102.23828125 C-15.06910858 101.92788406 -16.14602966 101.61748688 -17.25558472 101.29768372 C-18.24486969 101.01035873 -19.23415466 100.72303375 -20.25341797 100.42700195 C-21.12449188 100.174814 -21.9955658 99.92262604 -22.89303589 99.66279602 C-25 99 -25 99 -27 98 C-26.40197042 92.03791556 -25.19132523 86.57027626 -23.49975586 80.83007812 C-23.11914757 79.51159378 -23.11914757 79.51159378 -22.73085022 78.16647339 C-21.89791287 75.2863688 -21.05645241 72.40883143 -20.21484375 69.53125 C-19.63281726 67.52501513 -19.05132796 65.51862435 -18.47035217 63.51208496 C-16.94516422 58.24985658 -15.41271773 52.98976938 -13.87872314 47.73010254 C-12.31252513 42.35520264 -10.75323821 36.97829901 -9.19335938 31.6015625 C-6.13564689 21.06574166 -3.07025843 10.53217108 0 0 Z " fill="#030303" transform="translate(658,286)"/>
<path d="M0 0 C0.74620605 0.00572021 1.49241211 0.01144043 2.26123047 0.01733398 C10.6568847 0.28783836 16.4410068 3.17789603 22.5625 8.875 C29.40267118 16.27980795 31.07185822 23.20806067 30.9609375 33.11328125 C30.24565819 41.97252646 26.07020846 48.50580422 19.6875 54.5 C11.34808013 60.8379591 3.81602446 61.14763102 -6.3125 60.5 C-13.90750224 59.37522694 -19.34371325 55.22951185 -24.3125 49.5 C-29.54656914 41.18779972 -31.49677424 33.29928879 -30.3125 23.5 C-27.14746454 13.69080612 -21.19150165 6.53092071 -12.046875 1.81640625 C-7.84182376 0.3340817 -4.41727214 -0.03944885 0 0 Z " fill="#F3EBDF" transform="translate(536.3125,275.5)"/>
<path d="M0 0 C8.53125 0.97265625 8.53125 0.97265625 12.28125 2.19140625 C12.91095703 2.39193604 13.54066406 2.59246582 14.18945312 2.79907227 C15.33317383 3.17696899 15.33317383 3.17696899 16.5 3.5625 C17.83773164 3.99780335 19.17563362 4.43258342 20.51367188 4.86694336 C22.2394043 5.4278064 22.2394043 5.4278064 24 6 C20.78258409 20.85454363 16.49298631 35.36790897 12.1875 49.9375 C6.88887933 67.89924125 1.78137654 85.89304643 -3 104 C-4.58283498 103.69057415 -6.16527887 103.37914731 -7.74755859 103.06689453 C-8.62882416 102.89368683 -9.51008972 102.72047913 -10.4180603 102.54202271 C-13.88124798 101.81500094 -17.22964426 100.87363404 -20.625 99.875 C-21.83414063 99.52179688 -23.04328125 99.16859375 -24.2890625 98.8046875 C-25.18367187 98.53914063 -26.07828125 98.27359375 -27 98 C-26.38634778 90.33294996 -24.18351001 83.22218005 -21.9921875 75.87890625 C-21.58381125 74.49308862 -21.17603773 73.10709325 -20.76882935 71.72093201 C-19.69513858 68.07114419 -18.61433915 64.42350247 -17.53167725 60.77636719 C-15.82391679 55.01896527 -14.12693432 49.25836958 -12.42932892 43.49796677 C-12.01376233 42.08818073 -11.59792584 40.67847423 -11.1818161 39.26884842 C-7.32900064 26.21383171 -3.61781632 13.12228177 0 0 Z " fill="#030303" transform="translate(276,177)"/>
<path d="M0 0 C9.63326372 1.01089805 20.19371396 3.8696051 27 11 C32.90583583 19.20701982 33.73529259 25.91135308 33 36 C31.32678083 44.28695709 26.74398521 49.16796936 20 54 C12.60591189 58.63942783 3.52699689 57.91668161 -4.76171875 56.23828125 C-11.20235539 54.44567281 -11.20235539 54.44567281 -14 53 C-15.3374782 49.72445304 -14.82469053 47.48079882 -13.84423828 44.15551758 C-13.56709991 43.1980513 -13.28996155 42.24058502 -13.00442505 41.25410461 C-12.69616791 40.2279454 -12.38791077 39.20178619 -12.0703125 38.14453125 C-11.7605246 37.08715256 -11.45073669 36.02977386 -11.13156128 34.94035339 C-10.47534356 32.70731443 -9.81434149 30.47567669 -9.14892578 28.24536133 C-8.12670891 24.81822939 -7.11874028 21.38715967 -6.11328125 17.95507812 C-5.47478439 15.78881885 -4.83548887 13.62279479 -4.1953125 11.45703125 C-3.89110382 10.42479935 -3.58689514 9.39256744 -3.27346802 8.32905579 C-2.99002533 7.38104599 -2.70658264 6.43303619 -2.41455078 5.45629883 C-2.16504669 4.61786942 -1.9155426 3.77944 -1.65847778 2.91560364 C-1 1 -1 1 0 0 Z " fill="#F2EADE" transform="translate(333,218)"/>
<path d="M0 0 C6.87315067 1.60113169 13.67788378 3.41289196 20.4375 5.4375 C21.11103516 5.63045654 21.78457031 5.82341309 22.47851562 6.0222168 C26.73158085 7.32501013 29.75828731 8.95218414 33 12 C34.98261507 15.96523014 34.55250109 20.68927721 34 25 C32.63311313 27.73377373 31.35042009 28.92288457 29 31 C21.15455574 33.61514809 13.71442029 31.41238697 6.0625 29.0625 C5.11826172 28.78470703 4.17402344 28.50691406 3.20117188 28.22070312 C-3.5984623 26.20076885 -3.5984623 26.20076885 -6 25 C-5.4138281 19.07090494 -4.19595619 13.68419734 -2.4375 8 C-2.20353516 7.22527344 -1.96957031 6.45054687 -1.72851562 5.65234375 C-1.15809962 3.7664786 -0.57987197 1.8829791 0 0 Z " fill="#F1E9DD" transform="translate(1134,445)"/>
</svg>
