<svg width="144" height="408" viewBox="0 0 144 408" fill="none" xmlns="http://www.w3.org/2000/svg">
<mask id="mask0_263_7039" style="mask-type:luminance" maskUnits="userSpaceOnUse" x="0" y="0" width="144" height="408">
<path d="M0.367188 0.806641H143.536V407.473H0.367188V0.806641Z" fill="white"/>
</mask>
<g mask="url(#mask0_263_7039)">
<mask id="mask1_263_7039" style="mask-type:luminance" maskUnits="userSpaceOnUse" x="-152" y="-8" width="438" height="417">
<path d="M-151.938 138.672L130.841 -7.57324L285.299 261.922L2.52037 408.166L-151.938 138.672Z" fill="white"/>
</mask>
<g mask="url(#mask1_263_7039)">
<mask id="mask2_263_7039" style="mask-type:luminance" maskUnits="userSpaceOnUse" x="-152" y="-8" width="438" height="417">
<path d="M-151.938 138.672L130.841 -7.57324L285.299 261.922L2.52037 408.166L-151.938 138.672Z" fill="white"/>
</mask>
<g mask="url(#mask2_263_7039)">
<path d="M141.919 11.7862C143.202 14.3175 143.772 16.8331 142.763 19.6821C140.685 25.5415 138.865 31.4737 136.924 37.38C136.315 39.2342 136.255 40.9633 137.044 42.9008C138.168 45.6613 137.785 48.5831 136.266 51.1665C135.542 52.3956 135.268 53.3383 135.652 54.755C136.447 57.7394 135.471 60.4998 133.223 62.6092C131.967 63.7863 131.869 64.8852 131.863 66.3748C131.852 69.9529 130.893 73.2758 127.455 75.3175C126.002 76.1873 125.585 77.4425 125.169 78.8123C122.756 86.8175 120.355 94.8123 117.893 102.802C95.0566 176.713 72.193 250.609 49.3404 324.515C47.7943 329.531 45.8643 334.38 43.3203 339.062C33.1824 357.75 23.2804 376.568 13.2303 395.312C11.5306 398.479 9.49096 401.489 7.68161 404.609C6.755 406.203 5.38977 406.739 3.61332 406.396C1.9246 406.073 0.614193 404.635 0.64709 402.781C0.718367 399.219 0.844474 395.646 1.22827 392.109C3.43787 371.541 5.83937 350.995 7.9393 330.416C8.57532 324.094 10.0283 318.01 11.9144 311.958C37.2123 231.047 62.4774 150.14 87.7808 69.2394C88.4004 67.2602 88.8335 65.4321 87.8795 63.4008C86.3882 60.2185 87.726 57.3175 89.4586 54.6456C90.3468 53.2967 90.8732 52.1665 90.5168 50.4581C89.8917 47.5102 90.7745 44.7706 93.1321 42.656C93.9984 41.88 94.459 41.1821 94.5028 39.9581C94.6235 36.5987 96.3286 33.9685 99.0043 31.7081C100.304 30.5987 101.313 28.906 101.844 27.2967C103.802 21.2758 105.551 15.2029 107.261 9.11437C107.771 7.27583 108.753 5.98937 110.392 4.89562C122.252 -3.09396 135.75 2.52583 141.919 11.7862Z" fill="black"/>
</g>
</g>
</g>
<mask id="mask3_263_7039" style="mask-type:luminance" maskUnits="userSpaceOnUse" x="11" y="64" width="113" height="268">
<path d="M11.5957 64.8066H123.885V331.473H11.5957V64.8066Z" fill="white"/>
</mask>
<g mask="url(#mask3_263_7039)">
<mask id="mask4_263_7039" style="mask-type:luminance" maskUnits="userSpaceOnUse" x="-152" y="-8" width="438" height="417">
<path d="M-151.938 138.672L130.841 -7.57324L285.299 261.922L2.52037 408.166L-151.938 138.672Z" fill="white"/>
</mask>
<g mask="url(#mask4_263_7039)">
<mask id="mask5_263_7039" style="mask-type:luminance" maskUnits="userSpaceOnUse" x="-152" y="-8" width="438" height="417">
<path d="M-151.938 138.672L130.841 -7.57324L285.299 261.922L2.52037 408.166L-151.938 138.672Z" fill="white"/>
</mask>
<g mask="url(#mask5_263_7039)">
<path d="M43.6419 330.526C42.4521 328.453 41.6407 327.036 40.6921 325.385C38.6635 326.432 36.8706 327.359 34.8584 328.401C33.6576 325.88 32.5007 323.442 31.3164 320.968C27.122 321.208 25.362 324.51 22.2039 326.604C21.4034 325.541 20.6139 324.557 19.8792 323.541C18.015 320.958 17.7354 320.88 14.7362 322.312C14.0728 322.63 13.4368 322.989 12.3457 323.552C12.4718 322.515 12.4499 321.854 12.6473 321.25C38.5538 237.448 64.4823 153.661 90.3943 69.8694C90.5369 69.4163 90.7288 68.9579 90.8001 68.4996C91.0687 66.6819 92.2146 65.9683 94.0788 65.7027C105.587 64.0777 115.319 67.0308 123.176 75.5308C96.7599 160.255 70.327 244.974 43.6419 330.526ZM113.888 73.5673C112.024 75.9631 111.646 78.3433 110.961 80.5517C86.5289 159.317 62.1356 238.093 37.7423 316.88C37.4956 317.682 37.1776 318.474 37.0789 319.291C37.0076 319.849 37.2982 320.448 37.4353 321.026C37.6875 321.052 37.9452 321.073 38.2029 321.114C38.7731 319.593 39.4201 318.119 39.9081 316.578C62.7058 243.427 85.4762 170.26 108.252 97.0933C110.242 90.7131 112.128 84.3069 113.998 77.885C114.344 76.7235 115.122 75.5048 113.888 73.5673ZM100.538 69.8798C100.148 70.3798 99.611 70.8173 99.3972 71.3902C98.657 73.4006 97.9936 75.4527 97.3576 77.5048C72.5257 157.177 47.7102 236.843 22.8893 316.505C22.6096 317.416 22.341 318.343 22.2094 319.276C22.1546 319.661 22.4671 320.088 22.648 320.573C23.1689 320.421 23.7556 320.385 23.8104 320.208C48.8068 239.989 73.7922 159.765 98.7338 79.5413C99.6933 76.4423 100.976 73.385 100.538 69.8798Z" fill="#B3C5F1"/>
</g>
</g>
</g>
<mask id="mask6_263_7039" style="mask-type:luminance" maskUnits="userSpaceOnUse" x="4" y="322" width="39" height="63">
<path d="M4.57812 322.14H42.4757V384.806H4.57812V322.14Z" fill="white"/>
</mask>
<g mask="url(#mask6_263_7039)">
<mask id="mask7_263_7039" style="mask-type:luminance" maskUnits="userSpaceOnUse" x="-152" y="-8" width="438" height="417">
<path d="M-151.936 138.671L130.843 -7.57422L285.301 261.921L2.52232 408.165L-151.936 138.671Z" fill="white"/>
</mask>
<g mask="url(#mask7_263_7039)">
<mask id="mask8_263_7039" style="mask-type:luminance" maskUnits="userSpaceOnUse" x="-152" y="-8" width="438" height="417">
<path d="M-151.936 138.671L130.843 -7.57422L285.301 261.921L2.52232 408.165L-151.936 138.671Z" fill="white"/>
</mask>
<g mask="url(#mask8_263_7039)">
<path d="M29.8929 323.071C30.8744 325.457 31.5652 327.212 32.3054 328.946C33.3581 331.384 34.1586 331.67 36.5327 330.399C37.4977 329.873 38.3804 329.207 39.307 328.608C42.4158 331.837 42.7558 334.649 40.7271 338.326C33.0785 352.191 25.4792 366.082 17.8526 379.962C17.233 381.097 16.5586 382.222 15.6978 383.733C12.8686 381.186 9.72696 380.024 6.15761 381.28C5.96571 380.707 5.81219 380.488 5.83412 380.28C7.60509 362.446 9.41443 344.623 11.2183 326.644C13.0112 325.717 14.9412 324.717 17.1617 323.571C18.0554 324.868 18.8121 326.066 19.6619 327.191C21.3671 329.41 22.2663 329.535 24.5197 327.743C26.203 326.384 27.793 324.905 29.8929 323.071Z" fill="#FDD2B9"/>
</g>
</g>
</g>
<mask id="mask9_263_7039" style="mask-type:luminance" maskUnits="userSpaceOnUse" x="90" y="30" width="46" height="45">
<path d="M90.1992 30.1396H135.115V74.1396H90.1992V30.1396Z" fill="white"/>
</mask>
<g mask="url(#mask9_263_7039)">
<mask id="mask10_263_7039" style="mask-type:luminance" maskUnits="userSpaceOnUse" x="-152" y="-8" width="438" height="417">
<path d="M-151.936 138.671L130.843 -7.57422L285.301 261.921L2.52232 408.165L-151.936 138.671Z" fill="white"/>
</mask>
<g mask="url(#mask10_263_7039)">
<mask id="mask11_263_7039" style="mask-type:luminance" maskUnits="userSpaceOnUse" x="-152" y="-8" width="438" height="417">
<path d="M-151.936 138.671L130.843 -7.57422L285.301 261.921L2.52232 408.165L-151.936 138.671Z" fill="white"/>
</mask>
<g mask="url(#mask11_263_7039)">
<path d="M125.218 72.8316C115.53 63.1753 103.972 60.7274 91.3781 63.3524C89.8429 60.8211 90.934 58.4722 92.3595 56.4201C93.6864 54.5086 94.2456 52.7118 93.7851 50.4357C93.0997 47.0451 95.1667 44.8316 97.6176 43.2639C97.974 41.1336 97.9301 39.1753 98.6484 37.5139C100.321 33.6128 103.248 31.3889 108.035 31.1232C117.515 30.5972 125.531 33.2586 131.929 39.9618C135.005 43.1805 134.994 47.7482 132.099 51.2586C131.869 51.5347 131.677 51.8316 131.419 52.2014C131.65 52.9618 131.858 53.7586 132.116 54.5451C132.801 56.6389 132.582 58.6961 131.036 60.243C128.985 62.2899 128.355 64.5764 128.36 67.3055C128.327 69.4514 127.79 71.5972 125.218 72.8316ZM122.839 60.3836C123.996 58.3159 122.499 57.4201 121.506 56.6024C114.795 51.0711 106.911 50.6701 98.6593 52.1076C98.292 52.1701 98.0398 52.8368 97.4038 53.6128C100.902 53.6284 103.879 53.3941 106.79 53.7378C109.713 54.0816 112.706 54.6753 115.393 55.7847C118.025 56.8784 120.278 58.7639 122.839 60.3836ZM126.518 49.0555C125.52 44.7534 120.256 41.8472 112.207 40.6232C106.335 39.717 103.155 40.2534 101.801 42.4305C104.647 42.5191 107.514 42.3524 110.267 42.7691C113.194 43.2118 116.139 44.0034 118.891 45.0659C121.435 46.0347 123.727 47.5659 126.518 49.0555Z" fill="#7890EB"/>
</g>
</g>
</g>
<mask id="mask12_263_7039" style="mask-type:luminance" maskUnits="userSpaceOnUse" x="104" y="3" width="37" height="34">
<path d="M104.234 3.47363H140.728V36.807H104.234V3.47363Z" fill="white"/>
</mask>
<g mask="url(#mask12_263_7039)">
<mask id="mask13_263_7039" style="mask-type:luminance" maskUnits="userSpaceOnUse" x="-152" y="-8" width="438" height="417">
<path d="M-151.936 138.672L130.843 -7.57324L285.301 261.922L2.52232 408.166L-151.936 138.672Z" fill="white"/>
</mask>
<g mask="url(#mask13_263_7039)">
<mask id="mask14_263_7039" style="mask-type:luminance" maskUnits="userSpaceOnUse" x="-152" y="-8" width="438" height="417">
<path d="M-151.936 138.672L130.843 -7.57324L285.301 261.922L2.52232 408.166L-151.936 138.672Z" fill="white"/>
</mask>
<g mask="url(#mask14_263_7039)">
<path d="M133.496 36.5625C121.839 28.6875 119.871 28.1146 105.105 28.474C106.197 24.6355 107.271 20.7657 108.384 16.9167C109.026 14.75 109.908 12.6198 110.375 10.4219C110.868 8.0365 112.392 6.7917 114.558 5.81254C123.172 1.92191 134.845 5.599 139.061 13.7344C139.664 14.9063 140.042 16.5521 139.68 17.7657C137.778 24.0209 135.612 30.2136 133.496 36.5625Z" fill="#B3C5F1"/>
</g>
</g>
</g>
</svg>
