<?xml version="1.0" encoding="UTF-8"?>
<svg version="1.1" xmlns="http://www.w3.org/2000/svg" width="877" height="377">
<path d="M0 0 C2.214916 -0.00346632 4.42983026 -0.00823736 6.644741 -0.01418173 C12.66578399 -0.02658751 18.68668246 -0.02056936 24.70772564 -0.01122308 C30.5549438 -0.00509381 36.40213253 -0.01315215 42.24934657 -0.02066517 C54.93071493 -0.03638542 67.61203768 -0.03512418 80.29341027 -0.02642844 C91.39102021 -0.01885681 102.48861351 -0.01692324 113.58622551 -0.02049637 C114.32474749 -0.02072552 115.06326947 -0.02095468 115.82417091 -0.02119078 C118.8226897 -0.02212492 121.82120848 -0.02308013 124.81972725 -0.02407007 C152.89912797 -0.03322954 180.97849978 -0.0249544 209.05789604 -0.00877938 C233.9610931 0.00545697 258.86424413 0.00418028 283.7674408 -0.01016235 C311.79973586 -0.0262535 339.83200544 -0.03258121 367.86430448 -0.02332556 C370.85678605 -0.02236353 373.84926762 -0.021425 376.84174919 -0.02049637 C377.57847896 -0.02025914 378.31520872 -0.0200219 379.07426363 -0.01977748 C390.16090592 -0.01637644 401.24752967 -0.02033454 412.33416939 -0.02793503 C424.94941554 -0.03654077 437.56460929 -0.03430894 450.17984898 -0.0180928 C456.60880569 -0.01024075 463.03766931 -0.00706594 469.46662521 -0.01704025 C475.36420894 -0.02605139 481.26161422 -0.02094966 487.159182 -0.0051076 C489.28001278 -0.00178679 491.40085898 -0.00339206 493.52167965 -0.01073496 C542.15875766 -0.16606809 584.26570341 16.45702227 619.27207947 50.19345093 C623.10670809 54.08401416 626.41170207 58.2298897 629.70957947 62.56845093 C633.36789607 67.37393705 636.93211342 71.22090349 641.89317322 74.74423218 C646.27953957 77.92947915 650.18171905 81.69456059 654.14707947 85.38095093 C654.74133728 85.92106812 655.33559509 86.4611853 655.94786072 87.01766968 C682.72919137 112.39282068 700.59337227 152.60081423 701.62760925 189.36174011 C701.69658509 194.14761353 701.70187261 198.93067426 701.66856384 203.71688843 C701.64710606 207.37641639 701.66848707 211.03398179 701.69395447 214.69345093 C701.7112223 228.70570306 700.73125781 241.81371271 697.14707947 255.38095093 C696.86477478 256.45409546 696.58247009 257.52723999 696.29161072 258.63290405 C695.56422696 261.16427189 694.76533888 263.64483133 693.89707947 266.13095093 C693.4542865 267.42633789 693.4542865 267.42633789 693.00254822 268.74789429 C690.08626963 277.00941259 686.36200475 284.71489329 682.14707947 292.38095093 C681.33497009 293.91042358 681.33497009 293.91042358 680.50645447 295.47079468 C671.42729053 311.88821491 658.79390651 327.62186421 644.14707947 339.38095093 C643.20477478 340.14923218 642.26247009 340.91751343 641.29161072 341.70907593 C623.44485755 356.00868282 603.10950664 366.09723489 581.14707947 372.38095093 C580.32839866 372.63569075 579.50971785 372.89043058 578.66622853 373.15288979 C567.56698515 376.20358442 556.44547036 375.80162803 545.02079773 375.76863098 C542.6664302 375.77280749 540.31206468 375.77828675 537.95770288 375.78495079 C532.18416587 375.79787263 526.41074925 375.79692469 520.63720469 375.78998841 C513.71570669 375.78244923 506.79426053 375.79236273 499.87277006 375.8026916 C486.31183507 375.8223301 472.75093836 375.82471127 459.18999254 375.8194964 C447.31989125 375.81493417 435.44980509 375.81554469 423.57970428 375.82133675 C421.98570266 375.82209362 420.39170103 375.8228496 418.79769941 375.82360469 C416.39548696 375.82474992 413.99327451 375.8258998 411.59106207 375.82706393 C389.26494451 375.83776487 366.93883197 375.84249844 344.61271286 375.83459377 C343.77158657 375.8342966 342.93046029 375.83399943 342.06384532 375.83369325 C335.23390823 375.83124447 328.4039712 375.8286328 321.57403417 375.82600911 C294.94031829 375.81590923 268.30666546 375.82425883 241.67295837 375.84750366 C211.7271925 375.87359704 181.78146458 375.88641853 151.83568692 375.87931591 C148.64036386 375.87859989 145.44504079 375.8779255 142.24971771 375.87727547 C141.46298948 375.87710566 140.67626126 375.87693585 139.86569278 375.87676089 C128.00845209 375.87446139 116.15124674 375.88241829 104.29401398 375.89556694 C90.80264138 375.91050133 77.31135139 375.9112905 63.81998053 375.89349603 C56.93992814 375.88479422 50.06001933 375.88230646 43.17997551 375.89814758 C36.87449391 375.91200993 30.56930463 375.90721109 24.26383987 375.88790835 C21.99005224 375.88415283 19.71624111 375.88705723 17.44247445 375.89752 C4.41639066 375.95316908 -7.33470019 375.09455912 -19.85292053 371.38095093 C-20.72141955 371.13129733 -21.58991856 370.88164373 -22.48473573 370.62442487 C-33.14429838 367.37790019 -43.07769456 362.67026748 -52.85292053 357.38095093 C-53.92413147 356.80345093 -54.99534241 356.22595093 -56.09901428 355.63095093 C-74.03919354 345.55272279 -91.40455984 330.77497809 -103.85292053 314.25595093 C-106.81566915 310.40437773 -110.10328606 307.31749655 -113.85292053 304.25595093 C-126.97698819 293.50048527 -138.52243091 281.57952209 -147.85292053 267.38095093 C-148.25059631 266.77960327 -148.64827209 266.17825562 -149.05799866 265.5586853 C-167.88542176 236.68169864 -175.17356538 204.76581167 -175.29042053 170.63095093 C-175.29668457 169.77652405 -175.30294861 168.92209717 -175.30940247 168.04177856 C-175.51474548 123.72705423 -159.95999348 82.19100857 -128.85292053 50.38095093 C-127.90911992 49.37676808 -126.96642796 48.37154219 -126.02479553 47.36532593 C-92.98759045 12.57905957 -46.66607997 -0.16175822 0 0 Z " fill="#768FEC" transform="translate(175.85292053222656,1.619049072265625)"/>
<path d="M0 0 C2.214916 -0.00346632 4.42983026 -0.00823736 6.644741 -0.01418173 C12.66578399 -0.02658751 18.68668246 -0.02056936 24.70772564 -0.01122308 C30.5549438 -0.00509381 36.40213253 -0.01315215 42.24934657 -0.02066517 C54.93071493 -0.03638542 67.61203768 -0.03512418 80.29341027 -0.02642844 C91.39102021 -0.01885681 102.48861351 -0.01692324 113.58622551 -0.02049637 C114.32474749 -0.02072552 115.06326947 -0.02095468 115.82417091 -0.02119078 C118.8226897 -0.02212492 121.82120848 -0.02308013 124.81972725 -0.02407007 C152.89912797 -0.03322954 180.97849978 -0.0249544 209.05789604 -0.00877938 C233.9610931 0.00545697 258.86424413 0.00418028 283.7674408 -0.01016235 C311.79973586 -0.0262535 339.83200544 -0.03258121 367.86430448 -0.02332556 C370.85678605 -0.02236353 373.84926762 -0.021425 376.84174919 -0.02049637 C377.57847896 -0.02025914 378.31520872 -0.0200219 379.07426363 -0.01977748 C390.16090592 -0.01637644 401.24752967 -0.02033454 412.33416939 -0.02793503 C424.94941554 -0.03654077 437.56460929 -0.03430894 450.17984898 -0.0180928 C456.60880569 -0.01024075 463.03766931 -0.00706594 469.46662521 -0.01704025 C475.36420894 -0.02605139 481.26161422 -0.02094966 487.159182 -0.0051076 C489.28001278 -0.00178679 491.40085898 -0.00339206 493.52167965 -0.01073496 C542.15875766 -0.16606809 584.26570341 16.45702227 619.27207947 50.19345093 C623.10670809 54.08401416 626.41170207 58.2298897 629.70957947 62.56845093 C633.36789607 67.37393705 636.93211342 71.22090349 641.89317322 74.74423218 C646.27953957 77.92947915 650.18171905 81.69456059 654.14707947 85.38095093 C654.74133728 85.92106812 655.33559509 86.4611853 655.94786072 87.01766968 C682.72919137 112.39282068 700.59337227 152.60081423 701.62760925 189.36174011 C701.69658509 194.14761353 701.70187261 198.93067426 701.66856384 203.71688843 C701.64710606 207.37641639 701.66848707 211.03398179 701.69395447 214.69345093 C701.7112223 228.70570306 700.73125781 241.81371271 697.14707947 255.38095093 C696.86477478 256.45409546 696.58247009 257.52723999 696.29161072 258.63290405 C695.56422696 261.16427189 694.76533888 263.64483133 693.89707947 266.13095093 C693.4542865 267.42633789 693.4542865 267.42633789 693.00254822 268.74789429 C690.08626963 277.00941259 686.36200475 284.71489329 682.14707947 292.38095093 C681.33497009 293.91042358 681.33497009 293.91042358 680.50645447 295.47079468 C671.42729053 311.88821491 658.79390651 327.62186421 644.14707947 339.38095093 C643.20477478 340.14923218 642.26247009 340.91751343 641.29161072 341.70907593 C623.44485755 356.00868282 603.10950664 366.09723489 581.14707947 372.38095093 C580.32839866 372.63569075 579.50971785 372.89043058 578.66622853 373.15288979 C567.56698515 376.20358442 556.44547036 375.80162803 545.02079773 375.76863098 C542.6664302 375.77280749 540.31206468 375.77828675 537.95770288 375.78495079 C532.18416587 375.79787263 526.41074925 375.79692469 520.63720469 375.78998841 C513.71570669 375.78244923 506.79426053 375.79236273 499.87277006 375.8026916 C486.31183507 375.8223301 472.75093836 375.82471127 459.18999254 375.8194964 C447.31989125 375.81493417 435.44980509 375.81554469 423.57970428 375.82133675 C421.98570266 375.82209362 420.39170103 375.8228496 418.79769941 375.82360469 C416.39548696 375.82474992 413.99327451 375.8258998 411.59106207 375.82706393 C389.26494451 375.83776487 366.93883197 375.84249844 344.61271286 375.83459377 C343.77158657 375.8342966 342.93046029 375.83399943 342.06384532 375.83369325 C335.23390823 375.83124447 328.4039712 375.8286328 321.57403417 375.82600911 C294.94031829 375.81590923 268.30666546 375.82425883 241.67295837 375.84750366 C211.7271925 375.87359704 181.78146458 375.88641853 151.83568692 375.87931591 C148.64036386 375.87859989 145.44504079 375.8779255 142.24971771 375.87727547 C141.46298948 375.87710566 140.67626126 375.87693585 139.86569278 375.87676089 C128.00845209 375.87446139 116.15124674 375.88241829 104.29401398 375.89556694 C90.80264138 375.91050133 77.31135139 375.9112905 63.81998053 375.89349603 C56.93992814 375.88479422 50.06001933 375.88230646 43.17997551 375.89814758 C36.87449391 375.91200993 30.56930463 375.90721109 24.26383987 375.88790835 C21.99005224 375.88415283 19.71624111 375.88705723 17.44247445 375.89752 C4.41639066 375.95316908 -7.33470019 375.09455912 -19.85292053 371.38095093 C-20.72141955 371.13129733 -21.58991856 370.88164373 -22.48473573 370.62442487 C-33.14429838 367.37790019 -43.07769456 362.67026748 -52.85292053 357.38095093 C-53.92413147 356.80345093 -54.99534241 356.22595093 -56.09901428 355.63095093 C-74.03919354 345.55272279 -91.40455984 330.77497809 -103.85292053 314.25595093 C-106.81566915 310.40437773 -110.10328606 307.31749655 -113.85292053 304.25595093 C-126.97698819 293.50048527 -138.52243091 281.57952209 -147.85292053 267.38095093 C-148.25059631 266.77960327 -148.64827209 266.17825562 -149.05799866 265.5586853 C-167.88542176 236.68169864 -175.17356538 204.76581167 -175.29042053 170.63095093 C-175.29668457 169.77652405 -175.30294861 168.92209717 -175.30940247 168.04177856 C-175.51474548 123.72705423 -159.95999348 82.19100857 -128.85292053 50.38095093 C-127.90911992 49.37676808 -126.96642796 48.37154219 -126.02479553 47.36532593 C-92.98759045 12.57905957 -46.66607997 -0.16175822 0 0 Z M-54.97792053 14.13095093 C-55.80646545 14.38771606 -56.63501038 14.6444812 -57.48866272 14.9090271 C-82.49424124 22.88825441 -102.9654104 36.42278282 -121.85292053 54.38095093 C-122.54772522 55.01130249 -123.24252991 55.64165405 -123.95838928 56.29110718 C-135.34356251 66.97204288 -143.78905707 80.58105353 -150.85292053 94.38095093 C-151.33801086 95.32236938 -151.33801086 95.32236938 -151.832901 96.2828064 C-163.23172184 118.70107103 -167.58951148 142.68581484 -167.31947327 167.70516968 C-167.29028559 170.64454078 -167.29898261 173.58211841 -167.31190491 176.52157593 C-167.2960416 192.76212358 -165.56849935 208.05383518 -160.16542053 223.44345093 C-159.64322937 224.96204712 -159.64322937 224.96204712 -159.11048889 226.51132202 C-145.13788223 266.20772691 -116.95753116 299.02529934 -78.85292053 317.38095093 C-69.34793255 321.73834896 -59.58938411 325.36807855 -49.54042053 328.25595093 C-48.88493225 328.44713501 -48.22944397 328.63831909 -47.55409241 328.83529663 C-33.11536834 332.71438311 -18.48279813 332.66851109 -3.65628052 332.63491821 C-1.42734454 332.6372259 0.80159067 332.64040449 3.03052431 332.6443727 C9.12261499 332.65268698 15.21464265 332.64861076 21.30673349 332.64240026 C27.21251194 332.63832967 33.11827726 332.64367708 39.02405389 332.648695 C51.840811 332.65920042 64.65754812 332.65832407 77.47430712 332.65253717 C88.69137537 332.64749769 99.9084363 332.64619655 111.12550545 332.64858246 C112.2434167 332.64881161 112.2434167 332.64881161 113.38391203 332.6490454 C116.40955401 332.64966812 119.43519599 332.65030492 122.46083796 332.65096493 C150.82041805 332.65707736 179.17998544 332.65154495 207.53956356 332.64077113 C232.71009325 332.63128152 257.88060269 332.632129 283.0511322 332.64169312 C311.35873222 332.65241338 339.66632102 332.65664282 367.97392279 332.65046859 C370.99422776 332.6498272 374.01453274 332.64920151 377.03483772 332.64858246 C377.77846271 332.6484243 378.52208769 332.64826615 379.28824677 332.6481032 C390.49486065 332.6458327 401.7014664 332.64848053 412.90807915 332.65354156 C425.65720895 332.65927067 438.4063157 332.65780794 451.15544265 332.64698008 C457.65662327 332.6417346 464.15776289 332.63964747 470.65894318 332.64627838 C476.61695552 332.65226324 482.57488907 332.64892099 488.53289432 332.63832328 C490.68143703 332.63609997 492.82998647 332.63720133 494.9785248 332.64207485 C511.16415679 332.67595557 526.54717006 331.96741827 542.14707947 327.19345093 C543.17180359 326.88592896 544.19652771 326.57840698 545.25230408 326.26156616 C553.87941322 323.60170453 562.06524479 320.39079253 570.14707947 316.38095093 C570.78435974 316.070448 571.42164001 315.75994507 572.07823181 315.44003296 C608.85776266 297.35791155 636.31695399 263.92073567 649.70225525 225.45736694 C651.00059202 221.46902037 652.10812866 217.44383333 653.14707947 213.38095093 C653.35735779 212.5739978 653.56763611 211.76704468 653.7842865 210.93563843 C659.84920805 186.42624841 660.1344564 155.97320413 654.14707947 131.38095093 C653.97015564 130.65408081 653.79323181 129.92721069 653.61094666 129.17831421 C646.44015097 100.88525248 632.38836073 77.04987048 613.14707947 55.38095093 C612.56700134 54.72739624 611.98692322 54.07384155 611.38926697 53.40048218 C584.38836114 24.8392225 543.83969314 9.16295054 505.12094396 8.07498891 C491.66284138 7.79155448 478.20029563 7.84070803 464.74002171 7.8727113 C458.84637598 7.88276264 452.95277622 7.87381131 447.05913209 7.86558736 C434.28315421 7.84850314 421.50726285 7.8538664 408.73128688 7.86894455 C397.55514407 7.88204819 386.37903113 7.88718233 375.20288086 7.88462639 C374.08653918 7.88438577 374.08653918 7.88438577 372.94764515 7.88414028 C369.92591012 7.8834766 366.9041751 7.88277416 363.8824401 7.88201494 C335.60322032 7.87500873 307.3240531 7.8904243 279.04484669 7.9166384 C253.95976719 7.93976841 228.87474536 7.94513267 203.78965759 7.93490601 C197.35980481 7.93230366 190.92995204 7.92971855 184.50009918 7.92730808 C183.70832574 7.92701064 182.9165523 7.92671319 182.10078573 7.92640673 C161.08753471 7.91878266 140.07428837 7.9252118 119.06103945 7.9360041 C116.79873827 7.93715182 114.53643709 7.93829499 112.27413591 7.93943093 C110.77363556 7.94018616 109.27313521 7.94095181 107.77263488 7.94172793 C96.60219229 7.94737067 85.43176465 7.94606704 74.26132202 7.94149971 C61.55788277 7.93637911 48.85449927 7.9423021 36.15107387 7.96239401 C29.67588266 7.97223672 23.20078192 7.97740367 16.72558594 7.9695015 C10.78945613 7.96240553 4.85350828 7.96934034 -1.08259767 7.98710512 C-3.22075035 7.99112417 -5.35891983 7.99019297 -7.49706608 7.98358626 C-23.76193751 7.93766064 -39.3714503 9.19750063 -54.97792053 14.13095093 Z " fill="#000000" transform="translate(175.85292053222656,1.619049072265625)"/>
<path d="M0 0 C11.04803066 7.62723302 19.54111006 18.13066908 22.625 31.44921875 C24.32976759 44.06754313 24.57739996 58.24399799 17.36328125 69.2890625 C15.88449535 71.53751695 15.88449535 71.53751695 16.12109375 73.765625 C17.36249251 76.29993284 18.95493332 77.64633385 21.125 79.4375 C21.85847656 80.05109375 22.59195313 80.6646875 23.34765625 81.296875 C23.91355469 81.75578125 24.47945313 82.2146875 25.0625 82.6875 C23.7040798 85.73082765 22.17786976 87.81059151 19.8046875 90.140625 C19.17949219 90.759375 18.55429688 91.378125 17.91015625 92.015625 C17.25917969 92.64984375 16.60820312 93.2840625 15.9375 93.9375 C15.27878906 94.5871875 14.62007813 95.236875 13.94140625 95.90625 C12.31953357 97.50461727 10.6931719 99.09811897 9.0625 100.6875 C5.65190597 99.08214713 3.44457516 97.28231099 0.8125 94.5625 C0.10609375 93.83804688 -0.6003125 93.11359375 -1.328125 92.3671875 C-1.85921875 91.81289062 -2.3903125 91.25859375 -2.9375 90.6875 C-3.783125 91.03683594 -4.62875 91.38617188 -5.5 91.74609375 C-17.35373284 96.50105704 -17.35373284 96.50105704 -23.9375 96.6875 C-25.50951172 96.7803125 -25.50951172 96.7803125 -27.11328125 96.875 C-41.36877714 97.37355286 -53.28598514 92.71846452 -64.0625 83.5 C-72.87950859 75.24432271 -80.20888454 64.61878 -81.11450195 52.27490234 C-81.65647837 30.15103642 -81.65647837 30.15103642 -76.9375 21.6875 C-76.42832031 20.759375 -75.91914062 19.83125 -75.39453125 18.875 C-67.61015046 5.76446394 -56.36914517 -3.60067726 -41.515625 -7.6484375 C-26.52534886 -10.43047565 -13.12195912 -7.86956558 0 0 Z " fill="#010102" transform="translate(176.9375,130.3125)"/>
<path d="M0 0 C1.54494141 -0.04350586 1.54494141 -0.04350586 3.12109375 -0.08789062 C14.10528026 -0.17769844 23.94594894 3.13985466 32.375 10.3125 C40.19219673 18.50991058 42.375 24.81046115 42.375 36.3125 C35.445 36.3125 28.515 36.3125 21.375 36.3125 C20.385 33.6725 19.395 31.0325 18.375 28.3125 C14.26344336 23.97252355 9.70151022 22.55442802 3.796875 22.125 C-3.18389628 21.96900511 -9.84544945 22.4688168 -16.1875 25.5625 C-17.86243756 27.31935683 -17.86243756 27.31935683 -18.1875 30.1875 C-17.42368344 34.43092532 -16.0228199 35.69334716 -12.625 38.3125 C-7.60378849 40.82310575 -3.12916393 41.55347036 2.4375 42.1875 C16.46151724 43.89501507 29.06319063 48.08959556 38.12109375 59.4921875 C43.34334174 67.07339487 43.23642395 75.38501544 42.375 84.3125 C40.56618198 91.20323533 35.38552765 96.71107666 29.49609375 100.53125 C20.51215639 105.32268326 11.5255696 106.82072579 1.4375 106.75 C0.43009766 106.76998047 -0.57730469 106.78996094 -1.61523438 106.81054688 C-14.23549402 106.80243095 -23.40902413 102.28686953 -32.375 93.62109375 C-37.93092725 87.63458214 -40.8538992 81.46876189 -40.875 73.25 C-40.75125 70.8059375 -40.75125 70.8059375 -40.625 68.3125 C-33.695 68.3125 -26.765 68.3125 -19.625 68.3125 C-18.635 71.6125 -17.645 74.9125 -16.625 78.3125 C-12.46615033 82.93344408 -7.60370862 84.05551337 -1.63671875 84.5703125 C5.84389957 84.83402407 11.73859156 83.84340962 18.375 80.3125 C19.74497745 79.15504513 19.74497745 79.15504513 19.6875 76 C19.65951221 72.40088259 19.65951221 72.40088259 18 70.0625 C12.24437599 66.22541732 5.62769151 65.31078736 -1.09936523 64.29223633 C-15.04651429 62.17620755 -27.90853023 58.7511415 -37.0625 47.25 C-41.46842615 38.96685884 -42.32411061 29.47383797 -39.8203125 20.39453125 C-36.11451208 12.15231996 -29.66788099 6.32315767 -21.375 2.875 C-14.26479651 0.28419056 -7.49830759 0.06883391 0 0 Z " fill="#010102" transform="translate(700.625,117.6875)"/>
<path d="M0 0 C28.71 0 57.42 0 87 0 C87 22 87 22 82.4375 27.875 C80.64616382 29.27746068 78.83485714 30.65497936 77 32 C75.81300149 33.27539202 74.66329937 34.58700712 73.5625 35.9375 C70.69827645 39.28925096 67.63665907 42.40556417 64.5 45.5 C61.38420877 48.57390527 58.34122762 51.66702145 55.5 55 C52.65877396 58.33297671 49.6158211 61.42612163 46.5 64.5 C42.60602053 68.35112962 38.88708686 72.26970958 35.33984375 76.44140625 C34.27935864 77.67503179 33.15031749 78.84968251 32 80 C49.82 80.33 67.64 80.66 86 81 C86 88.26 86 95.52 86 103 C57.62 103 29.24 103 0 103 C0 81 0 81 4.0625 75.625 C5.68891067 74.39064789 7.33402147 73.18040347 9 72 C10.1653476 70.7446145 11.29247959 69.45247028 12.375 68.125 C15.262148 64.75442257 18.34246998 61.61496136 21.5 58.5 C24.61579495 55.42609809 27.65877258 52.33297832 30.5 49 C33.34122624 45.66702306 36.38418264 42.57388173 39.5 39.5 C43.36166876 35.68076716 47.05150395 31.79922534 50.5625 27.65625 C51.96785838 26.03703274 53.48393656 24.51606344 55 23 C36.85 22.67 18.7 22.34 0 22 C0 14.74 0 7.48 0 0 Z " fill="#010102" transform="translate(365,121)"/>
<path d="M0 0 C28.38 0 56.76 0 86 0 C86 23 86 23 80.4375 29.9375 C78.31698279 31.65670438 76.17332326 33.3480548 74 35 C72.76864847 36.31441889 71.57346342 37.66481952 70.4375 39.0625 C67.17889318 42.8947491 63.62634335 46.402275 60.04882812 49.93164062 C56.79982958 53.15382487 53.77548608 56.49349474 50.80859375 59.97265625 C47.89763641 63.23569483 44.75691439 66.26300441 41.625 69.3125 C38.27506979 72.74219045 35.15703407 76.39196107 32 80 C49.82 80.33 67.64 80.66 86 81 C86 88.26 86 95.52 86 103 C57.62 103 29.24 103 0 103 C0 95.74 0 88.48 0 81 C2.31 78.69 4.62 76.38 7 74 C8.12269251 72.74550292 9.23159492 71.47817641 10.3125 70.1875 C13.07618029 66.97666245 15.98619596 63.97732835 19 61 C21.93118191 58.10408042 24.76403174 55.19757429 27.4375 52.0625 C30.7407611 48.19698169 34.32545891 44.64508574 37.94189453 41.07763672 C41.21760711 37.8290803 44.30681571 34.48382576 47.26953125 30.94921875 C49.72336521 28.18519359 52.38646444 25.61353556 55 23 C36.85 22.67 18.7 22.34 0 22 C0 14.74 0 7.48 0 0 Z " fill="#000101" transform="translate(470,121)"/>
<path d="M0 0 C23.43 0 46.86 0 71 0 C71 7.26 71 14.52 71 22 C55.49 22 39.98 22 24 22 C24 27.94 24 33.88 24 40 C37.2 40 50.4 40 64 40 C64 47.26 64 54.52 64 62 C50.8 62 37.6 62 24 62 C24 67.94 24 73.88 24 80 C39.51 80 55.02 80 71 80 C71 87.26 71 94.52 71 102 C47.57 102 24.14 102 0 102 C0 68.34 0 34.68 0 0 Z " fill="#000001" transform="translate(575,122)"/>
<path d="M0 0 C7.59 0 15.18 0 23 0 C23.0093457 1.89685547 23.01869141 3.79371094 23.02832031 5.74804688 C23.06394415 12.03863205 23.11780302 18.32885804 23.18390274 24.61919403 C23.22329188 28.43039081 23.25552186 32.24135952 23.27099609 36.05273438 C23.28621981 39.7359034 23.32076455 43.41844505 23.36830902 47.10133362 C23.38306439 48.50137354 23.39103764 49.90150306 23.39188385 51.30162048 C23.4015117 59.24909668 23.58051196 65.25623066 28 72 C29.95336668 73.88023721 29.95336668 73.88023721 32.125 74.9375 C32.80820313 75.31777344 33.49140625 75.69804687 34.1953125 76.08984375 C39.49558874 78.76292679 44.75395266 78.9260042 50.51953125 77.28125 C56.04933159 75.00697059 58.93906177 72.35597661 62.07772827 67.24505615 C63.29815986 64.27419912 63.2815171 61.78952925 63.31884766 58.57910156 C63.33871735 57.27805481 63.35858704 55.97700806 63.37905884 54.63653564 C63.39093441 53.22123382 63.40259732 51.8059302 63.4140625 50.390625 C63.43277797 48.93901472 63.45235167 47.48741527 63.4727478 46.03582764 C63.52403522 42.22188713 63.56367892 38.40791138 63.60089111 34.59381104 C63.64095212 30.69917096 63.69203487 26.80467713 63.7421875 22.91015625 C63.83890669 15.2735303 63.92230503 7.63684754 64 0 C71.59 0 79.18 0 87 0 C87.06809568 8.28497501 87.12299895 16.56972812 87.15543652 24.85490894 C87.17101414 28.70310271 87.19210547 32.55109314 87.22631836 36.39916992 C87.25919704 40.12097323 87.27691225 43.84258241 87.28463173 47.56451988 C87.29012461 48.97612242 87.30084903 50.38771575 87.31719017 51.79923439 C87.47333836 65.86140171 85.43475073 77.67631168 75.84375 88.4140625 C66.49041609 97.49408471 55.68661204 102.01329386 42.6875 102.25 C31.21625937 102.07808767 21.01550204 97.25220571 12.4140625 89.7421875 C4.69747064 81.76923046 -0.13444121 71.65716369 -0.11352539 60.5090332 C-0.11367142 59.8551059 -0.11381744 59.20117859 -0.1139679 58.5274353 C-0.11327188 56.36851674 -0.10549408 54.20968472 -0.09765625 52.05078125 C-0.09579096 50.55291287 -0.09436758 49.05504389 -0.09336853 47.55717468 C-0.08955207 43.61654981 -0.0797292 39.67596186 -0.06866455 35.73535156 C-0.05843172 31.71354675 -0.0538669 27.69173596 -0.04882812 23.66992188 C-0.03810616 15.7799291 -0.02051639 7.88997339 0 0 Z " fill="#010103" transform="translate(221,122)"/>
<path d="M0 0 C7.69696083 4.4679276 13.44895449 10.82733222 16.28125 19.32421875 C16.40373619 21.96194452 16.46637384 24.5616767 16.46875 27.19921875 C16.48099609 27.90691406 16.49324219 28.61460937 16.50585938 29.34375 C16.51735322 33.45854804 16.1159438 36.62582413 14.28125 40.32421875 C9.98886377 38.67330097 7.4018585 35.58667309 4.28125 32.32421875 C1.34894807 33.64542703 -0.70539899 35.07060072 -2.953125 37.36328125 C-3.81357422 38.23339844 -3.81357422 38.23339844 -4.69140625 39.12109375 C-5.27792969 39.724375 -5.86445313 40.32765625 -6.46875 40.94921875 C-7.07074219 41.56023437 -7.67273438 42.17125 -8.29296875 42.80078125 C-9.77280305 44.30410499 -11.24639676 45.81356731 -12.71875 47.32421875 C-12.27772949 47.83235107 -11.83670898 48.3404834 -11.38232422 48.86401367 C-8.98970911 51.62072239 -6.74810915 54.28018003 -4.71875 57.32421875 C-9.89138546 59.91053648 -17.88433272 59.01921619 -23.36328125 57.67578125 C-32.07078559 54.10738192 -38.6440957 47.52943015 -42.79296875 39.15625 C-45.29037818 31.51649543 -45.08275076 21.01434702 -41.65625 13.69921875 C-32.77533507 -0.96925872 -16.11383567 -7.45526488 0 0 Z " fill="#758EE9" transform="translate(161.71875,146.67578125)"/>
<path d="M0 0 C7.92 0 15.84 0 24 0 C24 33.66 24 67.32 24 102 C16.08 102 8.16 102 0 102 C0 68.34 0 34.68 0 0 Z " fill="#000000" transform="translate(325,122)"/>
</svg>
