<svg width="81" height="80" viewBox="0 0 81 80" fill="none" xmlns="http://www.w3.org/2000/svg">
<mask id="mask0_263_7312" style="mask-type:luminance" maskUnits="userSpaceOnUse" x="0" y="0" width="81" height="80">
<path d="M0.167969 0.973633H80.1356V79.9372H0.167969V0.973633Z" fill="white"/>
</mask>
<g mask="url(#mask0_263_7312)">
<path d="M34.3676 1.31253C35.0256 1.14586 35.678 1.15628 36.3305 1.33857C36.983 1.52607 37.5367 1.86462 37.9863 2.34899L53.3109 18.8802L76.3006 16.3698C76.975 16.2969 77.622 16.4011 78.2361 16.6719C78.8502 16.9479 79.3436 17.3594 79.7164 17.8959C80.0838 18.4375 80.2757 19.0313 80.2921 19.6771C80.3086 20.3229 80.1441 20.9219 79.7987 21.4792L68.027 40.4479L77.6658 60.5C77.792 60.7552 77.8797 61.0261 77.9345 61.3073C77.9839 61.5886 78.0003 61.8698 77.9784 62.1563C77.9564 62.4375 77.9016 62.7136 77.8084 62.9844C77.7097 63.2552 77.5836 63.5104 77.4191 63.75C77.2601 63.9896 77.0682 64.2084 76.8489 64.4011C76.6296 64.5938 76.3883 64.7604 76.1252 64.8959C75.862 65.0365 75.5824 65.1354 75.2918 65.2084C75.0012 65.2761 74.7051 65.3125 74.409 65.3125C74.409 65.5677 74.3761 65.823 74.3158 66.0677C74.2555 66.3177 74.1678 66.5573 74.0526 66.7865C73.9375 67.0157 73.7949 67.2292 73.6305 67.4323C73.4605 67.6302 73.2741 67.8125 73.0657 67.9688C72.8519 68.1302 72.6271 68.2657 72.3858 68.375C72.1446 68.4844 71.8924 68.573 71.6347 68.6302C71.3715 68.6875 71.1083 68.7136 70.8397 68.7136C70.571 68.7188 70.3024 68.6875 70.0392 68.6355L47.4552 63.8229L30.42 78.724C29.921 79.1615 29.3344 79.4427 28.6655 79.5625C27.9965 79.6875 27.3496 79.6302 26.7136 79.4011C26.0775 79.1667 25.5512 78.7969 25.14 78.2813C24.7288 77.7657 24.493 77.1875 24.4272 76.5469L22.2286 54.599L2.0571 43.7604C1.46494 43.4427 1.00439 43 0.675413 42.4375C0.351925 41.8698 0.203886 41.2657 0.242267 40.6198C0.275163 39.974 0.488995 39.3907 0.878279 38.8594C1.26208 38.3282 1.77199 37.9323 2.39155 37.6771L3.83355 37.0834C3.89386 36.4688 4.11317 35.9063 4.49697 35.4011C4.88077 34.8959 5.37423 34.5209 5.97735 34.2761L24.0763 26.8177L28.2049 7.32816C28.2871 6.94795 28.4297 6.59378 28.638 6.26045C28.8464 5.92711 29.1041 5.64066 29.4166 5.39066C29.7291 5.14066 30.08 4.94795 30.4584 4.81253C30.8422 4.67712 31.2369 4.6042 31.6427 4.59899L31.7852 3.92711C31.9223 3.2917 32.2184 2.73962 32.6844 2.27086C33.1504 1.79691 33.7097 1.4792 34.3676 1.31253Z" fill="black"/>
<path d="M35.2957 4.59863L51.8594 22.4632L76.7078 19.7497L63.993 40.2445L74.4104 61.9111L49.9897 56.7132L31.5783 72.8174L29.2042 49.1091L7.4043 37.3955L30.3556 27.9372L35.2957 4.59863Z" fill="#B3C5F1"/>
</g>
</svg>
