<svg width="40" height="38" viewBox="0 0 40 38" fill="none" xmlns="http://www.w3.org/2000/svg">
<mask id="mask0_263_7230" style="mask-type:luminance" maskUnits="userSpaceOnUse" x="1" y="1" width="39" height="37">
<path d="M1.1875 1.13965H39.2112V37.624H1.1875V1.13965Z" fill="white"/>
</mask>
<g mask="url(#mask0_263_7230)">
<path d="M20.4574 37.9678C20.0846 37.9678 19.7611 37.7126 19.6898 37.3584C18.4507 31.223 17.3102 27.4521 14.8649 25.1292C12.414 22.8011 8.44992 21.723 1.98562 20.5459C1.61827 20.4782 1.34961 20.1709 1.34961 19.8115C1.34961 19.4521 1.61827 19.1449 1.98562 19.0771C8.44992 17.9001 12.414 16.8219 14.8649 14.4938C17.3102 12.1657 18.4507 8.40006 19.6898 2.26465C19.7611 1.91048 20.0846 1.65527 20.4574 1.65527C20.8357 1.65527 21.1592 1.91048 21.2305 2.26465C22.4696 8.40006 23.6101 12.1657 26.0554 14.4938C28.5063 16.8219 32.4704 17.9001 38.9347 19.0771C39.302 19.1449 39.5707 19.4521 39.5707 19.8115C39.5707 20.1709 39.302 20.4782 38.9347 20.5459C32.4704 21.723 28.5063 22.8011 26.0554 25.1292C23.6101 27.4521 22.4696 31.223 21.2305 37.3584C21.1592 37.7126 20.8357 37.9678 20.4574 37.9678Z" fill="#110804"/>
</g>
<mask id="mask1_263_7230" style="mask-type:luminance" maskUnits="userSpaceOnUse" x="0" y="0" width="40" height="38">
<path d="M0.28125 0.639648H39.0835V37.1396H0.28125V0.639648Z" fill="white"/>
</mask>
<g mask="url(#mask1_263_7230)">
<path d="M19.389 36.9469C19.0162 36.9469 18.6927 36.6969 18.6214 36.3428C17.3823 30.2074 16.2419 26.4365 13.7965 24.1136C11.3457 21.7855 7.38156 20.7074 0.917263 19.5303C0.54991 19.4626 0.28125 19.1553 0.28125 18.7959C0.28125 18.4365 0.54991 18.1292 0.917263 18.0615C7.38156 16.8844 11.3457 15.8063 13.7965 13.4782C16.2419 11.1501 17.3823 7.38444 18.6214 1.24382C18.6927 0.894856 19.0162 0.639648 19.389 0.639648C19.7674 0.639648 20.0909 0.894856 20.1621 1.24382C21.4013 7.38444 22.5417 11.1501 24.9871 13.4782C27.4379 15.8063 31.402 16.8844 37.8663 18.0615C38.2337 18.1292 38.5023 18.4365 38.5023 18.7959C38.5023 19.1553 38.2337 19.4626 37.8663 19.5303C31.402 20.7074 27.4379 21.7855 24.9871 24.1136C22.5362 26.4365 21.4013 30.2074 20.1621 36.3428C20.0909 36.6969 19.7674 36.9469 19.389 36.9469Z" fill="#110804"/>
</g>
<mask id="mask2_263_7230" style="mask-type:luminance" maskUnits="userSpaceOnUse" x="0" y="1" width="40" height="37">
<path d="M0.28125 1.13965H39.0835V37.1396H0.28125V1.13965Z" fill="white"/>
</mask>
<g mask="url(#mask2_263_7230)">
<path d="M37.7194 18.7962C24.1164 21.2754 22 23.2858 19.3902 36.2025C16.7803 23.2858 14.6694 21.2754 1.06641 18.7962C14.6694 16.3171 16.7803 14.3066 19.3902 1.38477C22 14.3066 24.1164 16.3171 37.7194 18.7962Z" fill="#B3C5F1"/>
</g>
</svg>
