<svg width="630" height="640" viewBox="0 0 630 640" fill="none" xmlns="http://www.w3.org/2000/svg">
<g clip-path="url(#clip0_261_1028)">
<g clip-path="url(#clip1_261_1028)">
<path fill-rule="evenodd" clip-rule="evenodd" d="M628.206 52.9665C628.206 34.9873 613.574 20.3555 595.595 20.3555C488.799 20.3555 150.162 20.3555 43.3122 20.3555C25.333 20.3555 10.7012 34.9873 10.7012 52.9665C10.7012 159.816 10.7012 498.453 10.7012 605.249C10.7012 623.282 25.333 637.86 43.3122 637.86C150.162 637.86 488.799 637.86 595.595 637.86C613.574 637.86 628.206 623.282 628.206 605.249C628.206 498.453 628.206 159.816 628.206 52.9665Z" fill="#FCF9F5"/>
<path fill-rule="evenodd" clip-rule="evenodd" d="M59.6718 20.3555V38.2268H26.0888V25.2687C25.8189 25.4847 25.4409 25.7007 25.117 25.9166V38.2268H14.2646C13.9407 38.8207 13.6167 39.4686 13.3468 40.1165H25.117V72.6736H10.7012V74.6173H25.117V107.174H10.7012V109.118H25.117V141.675H10.7012V143.619H25.117V176.176H10.7012V178.066H25.117V210.623H10.7012V212.566H25.117V245.124H10.7012V247.067H25.117V279.624H10.7012V281.514H25.117V314.125H10.7012V316.015H25.117V348.626H10.7012V350.516H25.117V383.073H10.7012V385.016H25.117V417.573H10.7012V419.517H25.117V452.074H10.7012V453.964H25.117V486.575H10.7012V488.465H25.117V521.022H10.7012V522.966H25.117V555.523H10.7012V557.466H25.117V590.023H10.7012V591.913H25.117V624.524H17.0182C17.5042 625.172 17.9901 625.82 18.53 626.414H25.117V632.299C25.4949 632.569 25.8189 632.731 26.0888 632.947V626.414H59.6718V637.86H60.5896V626.414H94.1186V637.86H95.0904V626.414H128.619V637.86H129.591V626.414H163.12V637.86H164.092V626.414H197.621V637.86H198.539V626.414H232.068V637.86H233.04V626.414H266.569V637.86H267.54V626.414H301.069V637.86H302.041V626.414H335.57V637.86H336.488V626.414H370.017V637.86H370.989V626.414H404.518V637.86H405.49V626.414H439.018V637.86H439.99V626.414H473.519V637.86H474.491V626.414H507.966V637.86H508.938V626.414H542.467V637.86H543.439V626.414H576.968V637.86H577.939V626.414H611.468V633.757C611.792 633.541 612.116 633.379 612.44 633.163V626.414H620.377C620.917 625.82 621.403 625.172 621.889 624.524H612.44V591.913H628.206V590.023H612.44V557.466H628.206V555.523H612.44V522.966H628.206V521.022H612.44V488.465H628.206V486.575H612.44V453.964H628.206V452.074H612.44V419.517H628.206V417.573H612.44V385.016H628.206V383.073H612.44V350.516H628.206V348.626H612.44V316.015H628.206V314.125H612.44V281.514H628.206V279.624H612.44V247.067H628.206V245.124H612.44V212.566H628.206V210.623H612.44V178.066H628.206V176.176H612.44V143.619H628.206V141.675H612.44V109.118H628.206V107.174H612.44V74.6173H628.206V72.6736H612.44V40.1165H625.56C625.29 39.4686 624.966 38.8207 624.642 38.2268H612.44V25.0528C612.116 24.8908 611.792 24.6748 611.468 24.5128V38.2268H577.939V20.3555H576.968V38.2268H543.439V20.3555H542.467V38.2268H508.938V20.3555H507.966V38.2268H474.491V20.3555H473.519V38.2268H439.99V20.3555H439.018V38.2268H405.49V20.3555H404.518V38.2268H370.989V20.3555H370.017V38.2268H336.488V20.3555H335.57V38.2268H302.041V20.3555H301.069V38.2268H267.54V20.3555H266.569V38.2268H233.04V20.3555H232.068V38.2268H198.539V20.3555H197.621V38.2268H164.092V20.3555H163.12V38.2268H129.591V20.3555H128.619V38.2268H95.0904V20.3555H94.1186V38.2268H60.5896V20.3555H59.6718ZM26.0888 591.913V624.524H59.6718V591.913H26.0888ZM60.5896 591.913V624.524H94.1186V591.913H60.5896ZM95.0904 591.913V624.524H128.619V591.913H95.0904ZM129.591 591.913V624.524H163.12V591.913H129.591ZM164.092 591.913V624.524H197.621V591.913H164.092ZM198.539 591.913V624.524H232.068V591.913H198.539ZM233.04 591.913V624.524H266.569V591.913H233.04ZM267.54 591.913V624.524H301.069V591.913H267.54ZM302.041 591.913V624.524H335.57V591.913H302.041ZM336.488 591.913V624.524H370.017V591.913H336.488ZM370.989 591.913V624.524H404.518V591.913H370.989ZM405.49 591.913V624.524H439.018V591.913H405.49ZM439.99 591.913V624.524H473.519V591.913H439.99ZM474.491 591.913V624.524H507.966V591.913H474.491ZM508.938 591.913V624.524H542.467V591.913H508.938ZM543.439 591.913V624.524H576.968V591.913H543.439ZM577.939 591.913V624.524H611.468V591.913H577.939ZM577.939 557.466V590.023H611.468V557.466H577.939ZM543.439 557.466V590.023H576.968V557.466H543.439ZM508.938 557.466V590.023H542.467V557.466H508.938ZM474.491 557.466V590.023H507.966V557.466H474.491ZM439.99 557.466V590.023H473.519V557.466H439.99ZM405.49 557.466V590.023H439.018V557.466H405.49ZM370.989 557.466V590.023H404.518V557.466H370.989ZM336.488 557.466V590.023H370.017V557.466H336.488ZM302.041 557.466V590.023H335.57V557.466H302.041ZM267.54 557.466V590.023H301.069V557.466H267.54ZM233.04 557.466V590.023H266.569V557.466H233.04ZM198.539 557.466V590.023H232.068V557.466H198.539ZM164.092 557.466V590.023H197.621V557.466H164.092ZM129.591 557.466V590.023H163.12V557.466H129.591ZM95.0904 557.466V590.023H128.619V557.466H95.0904ZM60.5896 557.466V590.023H94.1186V557.466H60.5896ZM26.0888 557.466V590.023H59.6718V557.466H26.0888ZM26.0888 522.966V555.523H59.6718V522.966H26.0888ZM60.5896 522.966V555.523H94.1186V522.966H60.5896ZM95.0904 522.966V555.523H128.619V522.966H95.0904ZM129.591 522.966V555.523H163.12V522.966H129.591ZM164.092 522.966V555.523H197.621V522.966H164.092ZM198.539 522.966V555.523H232.068V522.966H198.539ZM233.04 522.966V555.523H266.569V522.966H233.04ZM267.54 522.966V555.523H301.069V522.966H267.54ZM302.041 522.966V555.523H335.57V522.966H302.041ZM336.488 522.966V555.523H370.017V522.966H336.488ZM370.989 522.966V555.523H404.518V522.966H370.989ZM405.49 522.966V555.523H439.018V522.966H405.49ZM439.99 522.966V555.523H473.519V522.966H439.99ZM474.491 522.966V555.523H507.966V522.966H474.491ZM508.938 522.966V555.523H542.467V522.966H508.938ZM543.439 522.966V555.523H576.968V522.966H543.439ZM577.939 522.966V555.523H611.468V522.966H577.939ZM577.939 488.465V521.022H611.468V488.465H577.939ZM543.439 488.465V521.022H576.968V488.465H543.439ZM508.938 488.465V521.022H542.467V488.465H508.938ZM474.491 488.465V521.022H507.966V488.465H474.491ZM439.99 488.465V521.022H473.519V488.465H439.99ZM405.49 488.465V521.022H439.018V488.465H405.49ZM370.989 488.465V521.022H404.518V488.465H370.989ZM336.488 488.465V521.022H370.017V488.465H336.488ZM302.041 488.465V521.022H335.57V488.465H302.041ZM267.54 488.465V521.022H301.069V488.465H267.54ZM233.04 488.465V521.022H266.569V488.465H233.04ZM198.539 488.465V521.022H232.068V488.465H198.539ZM164.092 488.465V521.022H197.621V488.465H164.092ZM129.591 488.465V521.022H163.12V488.465H129.591ZM95.0904 488.465V521.022H128.619V488.465H95.0904ZM60.5896 488.465V521.022H94.1186V488.465H60.5896ZM26.0888 488.465V521.022H59.6718V488.465H26.0888ZM26.0888 453.964V486.575H59.6718V453.964H26.0888ZM60.5896 453.964V486.575H94.1186V453.964H60.5896ZM95.0904 453.964V486.575H128.619V453.964H95.0904ZM129.591 453.964V486.575H163.12V453.964H129.591ZM164.092 453.964V486.575H197.621V453.964H164.092ZM198.539 453.964V486.575H232.068V453.964H198.539ZM233.04 453.964V486.575H266.569V453.964H233.04ZM267.54 453.964V486.575H301.069V453.964H267.54ZM302.041 453.964V486.575H335.57V453.964H302.041ZM336.488 453.964V486.575H370.017V453.964H336.488ZM370.989 453.964V486.575H404.518V453.964H370.989ZM405.49 453.964V486.575H439.018V453.964H405.49ZM439.99 453.964V486.575H473.519V453.964H439.99ZM474.491 453.964V486.575H507.966V453.964H474.491ZM508.938 453.964V486.575H542.467V453.964H508.938ZM543.439 453.964V486.575H576.968V453.964H543.439ZM577.939 453.964V486.575H611.468V453.964H577.939ZM577.939 419.517V452.074H611.468V419.517H577.939ZM543.439 419.517V452.074H576.968V419.517H543.439ZM508.938 419.517V452.074H542.467V419.517H508.938ZM474.491 419.517V452.074H507.966V419.517H474.491ZM439.99 419.517V452.074H473.519V419.517H439.99ZM405.49 419.517V452.074H439.018V419.517H405.49ZM370.989 419.517V452.074H404.518V419.517H370.989ZM336.488 419.517V452.074H370.017V419.517H336.488ZM302.041 419.517V452.074H335.57V419.517H302.041ZM267.54 419.517V452.074H301.069V419.517H267.54ZM233.04 419.517V452.074H266.569V419.517H233.04ZM198.539 419.517V452.074H232.068V419.517H198.539ZM164.092 419.517V452.074H197.621V419.517H164.092ZM129.591 419.517V452.074H163.12V419.517H129.591ZM95.0904 419.517V452.074H128.619V419.517H95.0904ZM60.5896 419.517V452.074H94.1186V419.517H60.5896ZM26.0888 419.517V452.074H59.6718V419.517H26.0888ZM577.939 385.016V417.573H611.468V385.016H577.939ZM543.439 385.016V417.573H576.968V385.016H543.439ZM508.938 385.016V417.573H542.467V385.016H508.938ZM474.491 385.016V417.573H507.966V385.016H474.491ZM439.99 385.016V417.573H473.519V385.016H439.99ZM405.49 385.016V417.573H439.018V385.016H405.49ZM370.989 385.016V417.573H404.518V385.016H370.989ZM336.488 385.016V417.573H370.017V385.016H336.488ZM302.041 385.016V417.573H335.57V385.016H302.041ZM267.54 385.016V417.573H301.069V385.016H267.54ZM233.04 385.016V417.573H266.569V385.016H233.04ZM198.539 385.016V417.573H232.068V385.016H198.539ZM164.092 385.016V417.573H197.621V385.016H164.092ZM129.591 385.016V417.573H163.12V385.016H129.591ZM95.0904 385.016V417.573H128.619V385.016H95.0904ZM60.5896 385.016V417.573H94.1186V385.016H60.5896ZM26.0888 385.016V417.573H59.6718V385.016H26.0888ZM26.0888 350.516V383.073H59.6718V350.516H26.0888ZM60.5896 350.516V383.073H94.1186V350.516H60.5896ZM95.0904 350.516V383.073H128.619V350.516H95.0904ZM129.591 350.516V383.073H163.12V350.516H129.591ZM164.092 350.516V383.073H197.621V350.516H164.092ZM198.539 350.516V383.073H232.068V350.516H198.539ZM233.04 350.516V383.073H266.569V350.516H233.04ZM267.54 350.516V383.073H301.069V350.516H267.54ZM302.041 350.516V383.073H335.57V350.516H302.041ZM336.488 350.516V383.073H370.017V350.516H336.488ZM370.989 350.516V383.073H404.518V350.516H370.989ZM405.49 350.516V383.073H439.018V350.516H405.49ZM439.99 350.516V383.073H473.519V350.516H439.99ZM474.491 350.516V383.073H507.966V350.516H474.491ZM508.938 350.516V383.073H542.467V350.516H508.938ZM543.439 350.516V383.073H576.968V350.516H543.439ZM577.939 350.516V383.073H611.468V350.516H577.939ZM577.939 316.015V348.626H611.468V316.015H577.939ZM543.439 316.015V348.626H576.968V316.015H543.439ZM508.938 316.015V348.626H542.467V316.015H508.938ZM474.491 316.015V348.626H507.966V316.015H474.491ZM439.99 316.015V348.626H473.519V316.015H439.99ZM405.49 316.015V348.626H439.018V316.015H405.49ZM370.989 316.015V348.626H404.518V316.015H370.989ZM336.488 316.015V348.626H370.017V316.015H336.488ZM302.041 316.015V348.626H335.57V316.015H302.041ZM267.54 316.015V348.626H301.069V316.015H267.54ZM233.04 316.015V348.626H266.569V316.015H233.04ZM198.539 316.015V348.626H232.068V316.015H198.539ZM164.092 316.015V348.626H197.621V316.015H164.092ZM129.591 316.015V348.626H163.12V316.015H129.591ZM95.0904 316.015V348.626H128.619V316.015H95.0904ZM60.5896 316.015V348.626H94.1186V316.015H60.5896ZM26.0888 316.015V348.626H59.6718V316.015H26.0888ZM26.0888 281.514V314.125H59.6718V281.514H26.0888ZM60.5896 281.514V314.125H94.1186V281.514H60.5896ZM95.0904 281.514V314.125H128.619V281.514H95.0904ZM129.591 281.514V314.125H163.12V281.514H129.591ZM164.092 281.514V314.125H197.621V281.514H164.092ZM198.539 281.514V314.125H232.068V281.514H198.539ZM233.04 281.514V314.125H266.569V281.514H233.04ZM267.54 281.514V314.125H301.069V281.514H267.54ZM302.041 281.514V314.125H335.57V281.514H302.041ZM336.488 281.514V314.125H370.017V281.514H336.488ZM370.989 281.514V314.125H404.518V281.514H370.989ZM405.49 281.514V314.125H439.018V281.514H405.49ZM439.99 281.514V314.125H473.519V281.514H439.99ZM474.491 281.514V314.125H507.966V281.514H474.491ZM508.938 281.514V314.125H542.467V281.514H508.938ZM543.439 281.514V314.125H576.968V281.514H543.439ZM577.939 281.514V314.125H611.468V281.514H577.939ZM577.939 247.067V279.624H611.468V247.067H577.939ZM543.439 247.067V279.624H576.968V247.067H543.439ZM508.938 247.067V279.624H542.467V247.067H508.938ZM474.491 247.067V279.624H507.966V247.067H474.491ZM439.99 247.067V279.624H473.519V247.067H439.99ZM405.49 247.067V279.624H439.018V247.067H405.49ZM370.989 247.067V279.624H404.518V247.067H370.989ZM336.488 247.067V279.624H370.017V247.067H336.488ZM302.041 247.067V279.624H335.57V247.067H302.041ZM267.54 247.067V279.624H301.069V247.067H267.54ZM233.04 247.067V279.624H266.569V247.067H233.04ZM198.539 247.067V279.624H232.068V247.067H198.539ZM164.092 247.067V279.624H197.621V247.067H164.092ZM129.591 247.067V279.624H163.12V247.067H129.591ZM95.0904 247.067V279.624H128.619V247.067H95.0904ZM60.5896 247.067V279.624H94.1186V247.067H60.5896ZM26.0888 247.067V279.624H59.6718V247.067H26.0888ZM577.939 212.566V245.124H611.468V212.566H577.939ZM543.439 212.566V245.124H576.968V212.566H543.439ZM508.938 212.566V245.124H542.467V212.566H508.938ZM474.491 212.566V245.124H507.966V212.566H474.491ZM439.99 212.566V245.124H473.519V212.566H439.99ZM405.49 212.566V245.124H439.018V212.566H405.49ZM370.989 212.566V245.124H404.518V212.566H370.989ZM336.488 212.566V245.124H370.017V212.566H336.488ZM302.041 212.566V245.124H335.57V212.566H302.041ZM267.54 212.566V245.124H301.069V212.566H267.54ZM233.04 212.566V245.124H266.569V212.566H233.04ZM198.539 212.566V245.124H232.068V212.566H198.539ZM164.092 212.566V245.124H197.621V212.566H164.092ZM129.591 212.566V245.124H163.12V212.566H129.591ZM95.0904 212.566V245.124H128.619V212.566H95.0904ZM60.5896 212.566V245.124H94.1186V212.566H60.5896ZM26.0888 212.566V245.124H59.6718V212.566H26.0888ZM577.939 178.066V210.623H611.468V178.066H577.939ZM543.439 178.066V210.623H576.968V178.066H543.439ZM508.938 178.066V210.623H542.467V178.066H508.938ZM474.491 178.066V210.623H507.966V178.066H474.491ZM439.99 178.066V210.623H473.519V178.066H439.99ZM405.49 178.066V210.623H439.018V178.066H405.49ZM370.989 178.066V210.623H404.518V178.066H370.989ZM336.488 178.066V210.623H370.017V178.066H336.488ZM302.041 178.066V210.623H335.57V178.066H302.041ZM267.54 178.066V210.623H301.069V178.066H267.54ZM233.04 178.066V210.623H266.569V178.066H233.04ZM198.539 178.066V210.623H232.068V178.066H198.539ZM164.092 178.066V210.623H197.621V178.066H164.092ZM129.591 178.066V210.623H163.12V178.066H129.591ZM95.0904 178.066V210.623H128.619V178.066H95.0904ZM60.5896 178.066V210.623H94.1186V178.066H60.5896ZM26.0888 178.066V210.623H59.6718V178.066H26.0888ZM577.939 143.619V176.176H611.468V143.619H577.939ZM543.439 143.619V176.176H576.968V143.619H543.439ZM508.938 143.619V176.176H542.467V143.619H508.938ZM474.491 143.619V176.176H507.966V143.619H474.491ZM439.99 143.619V176.176H473.519V143.619H439.99ZM405.49 143.619V176.176H439.018V143.619H405.49ZM370.989 143.619V176.176H404.518V143.619H370.989ZM336.488 143.619V176.176H370.017V143.619H336.488ZM302.041 143.619V176.176H335.57V143.619H302.041ZM267.54 143.619V176.176H301.069V143.619H267.54ZM233.04 143.619V176.176H266.569V143.619H233.04ZM198.539 143.619V176.176H232.068V143.619H198.539ZM164.092 143.619V176.176H197.621V143.619H164.092ZM129.591 143.619V176.176H163.12V143.619H129.591ZM95.0904 143.619V176.176H128.619V143.619H95.0904ZM60.5896 143.619V176.176H94.1186V143.619H60.5896ZM26.0888 143.619V176.176H59.6718V143.619H26.0888ZM577.939 109.118V141.675H611.468V109.118H577.939ZM543.439 109.118V141.675H576.968V109.118H543.439ZM508.938 109.118V141.675H542.467V109.118H508.938ZM474.491 109.118V141.675H507.966V109.118H474.491ZM439.99 109.118V141.675H473.519V109.118H439.99ZM405.49 109.118V141.675H439.018V109.118H405.49ZM370.989 109.118V141.675H404.518V109.118H370.989ZM336.488 109.118V141.675H370.017V109.118H336.488ZM302.041 109.118V141.675H335.57V109.118H302.041ZM267.54 109.118V141.675H301.069V109.118H267.54ZM233.04 109.118V141.675H266.569V109.118H233.04ZM198.539 109.118V141.675H232.068V109.118H198.539ZM164.092 109.118V141.675H197.621V109.118H164.092ZM129.591 109.118V141.675H163.12V109.118H129.591ZM95.0904 109.118V141.675H128.619V109.118H95.0904ZM60.5896 109.118V141.675H94.1186V109.118H60.5896ZM26.0888 109.118V141.675H59.6718V109.118H26.0888ZM26.0888 74.6173V107.174H59.6718V74.6173H26.0888ZM60.5896 74.6173V107.174H94.1186V74.6173H60.5896ZM95.0904 74.6173V107.174H128.619V74.6173H95.0904ZM129.591 74.6173V107.174H163.12V74.6173H129.591ZM164.092 74.6173V107.174H197.621V74.6173H164.092ZM198.539 74.6173V107.174H232.068V74.6173H198.539ZM233.04 74.6173V107.174H266.569V74.6173H233.04ZM267.54 74.6173V107.174H301.069V74.6173H267.54ZM302.041 74.6173V107.174H335.57V74.6173H302.041ZM336.488 74.6173V107.174H370.017V74.6173H336.488ZM370.989 74.6173V107.174H404.518V74.6173H370.989ZM405.49 74.6173V107.174H439.018V74.6173H405.49ZM439.99 74.6173V107.174H473.519V74.6173H439.99ZM474.491 74.6173V107.174H507.966V74.6173H474.491ZM508.938 74.6173V107.174H542.467V74.6173H508.938ZM543.439 74.6173V107.174H576.968V74.6173H543.439ZM577.939 74.6173V107.174H611.468V74.6173H577.939ZM577.939 40.1165V72.6736H611.468V40.1165H577.939ZM543.439 40.1165V72.6736H576.968V40.1165H543.439ZM508.938 40.1165V72.6736H542.467V40.1165H508.938ZM474.491 40.1165V72.6736H507.966V40.1165H474.491ZM439.99 40.1165V72.6736H473.519V40.1165H439.99ZM405.49 40.1165V72.6736H439.018V40.1165H405.49ZM370.989 40.1165V72.6736H404.518V40.1165H370.989ZM336.488 40.1165V72.6736H370.017V40.1165H336.488ZM302.041 40.1165V72.6736H335.57V40.1165H302.041ZM267.54 40.1165V72.6736H301.069V40.1165H267.54ZM233.04 40.1165V72.6736H266.569V40.1165H233.04ZM198.539 40.1165V72.6736H232.068V40.1165H198.539ZM164.092 40.1165V72.6736H197.621V40.1165H164.092ZM129.591 40.1165V72.6736H163.12V40.1165H129.591ZM95.0904 40.1165V72.6736H128.619V40.1165H95.0904ZM60.5896 40.1165V72.6736H94.1186V40.1165H60.5896ZM26.0888 40.1165V72.6736H59.6718V40.1165H26.0888Z" fill="#CEC8C8"/>
<path fill-rule="evenodd" clip-rule="evenodd" d="M629.933 52.9667C629.933 34.0156 614.545 18.6279 595.594 18.6279C488.798 18.6279 150.161 18.6279 43.3115 18.6279C24.3603 18.6279 8.97266 34.0156 8.97266 52.9667C8.97266 159.817 8.97266 498.454 8.97266 605.249C8.97266 624.201 24.3603 639.588 43.3115 639.588C150.161 639.588 488.798 639.588 595.594 639.588C614.545 639.588 629.933 624.201 629.933 605.249C629.933 498.454 629.933 159.817 629.933 52.9667ZM626.423 52.9667V605.249C626.423 622.311 612.602 636.133 595.594 636.133C488.798 636.133 150.161 636.133 43.3115 636.133C26.25 636.133 12.4281 622.311 12.4281 605.249C12.4281 498.454 12.4281 159.817 12.4281 52.9667C12.4281 35.9593 26.25 22.1374 43.3115 22.1374C150.161 22.1374 488.798 22.1374 595.594 22.1374C612.602 22.1374 626.423 35.9593 626.423 52.9667Z" fill="#7890EB"/>
</g>
<g clip-path="url(#clip2_261_1028)">
<path fill-rule="evenodd" clip-rule="evenodd" d="M109.592 12.4748C109.592 8.8927 108.202 5.47095 105.636 2.90463C103.123 0.391797 99.6478 -1.05176 96.0657 -1.05176C92.4835 -1.05176 89.0618 0.391797 86.4955 2.90463C83.9826 5.47095 82.5391 8.8927 82.5391 12.4748V73.104C82.5391 76.6861 83.9826 80.1079 86.4955 82.6742C89.0618 85.1871 92.4835 86.6306 96.0657 86.6306C99.6478 86.6306 103.123 85.1871 105.636 82.6742C108.202 80.1079 109.592 76.6861 109.592 73.104V33.2727C109.592 32.1499 108.683 31.241 107.561 31.241C106.384 31.241 105.475 32.1499 105.475 33.2727C105.475 33.2727 105.475 64.5496 105.475 73.104C105.475 75.5634 104.513 77.9693 102.749 79.7336C100.984 81.498 98.5785 82.5138 96.0657 82.5138C93.6063 82.5138 91.2004 81.498 89.436 79.7336C87.6717 77.9693 86.6559 75.5634 86.6559 73.104C86.6559 57.1715 86.6559 28.4608 86.6559 12.4748C86.6559 10.0155 87.6717 7.60954 89.436 5.84521C91.2004 4.08087 93.6063 3.06503 96.0657 3.06503C98.5785 3.06503 100.984 4.08087 102.749 5.84521C104.513 7.60954 105.475 10.0155 105.475 12.4748C105.475 13.6511 106.384 14.56 107.561 14.56C108.683 14.56 109.592 13.6511 109.592 12.4748Z" fill="#7890EB"/>
<path fill-rule="evenodd" clip-rule="evenodd" d="M109.593 19.2109C109.593 19.2109 109.593 14.5598 109.593 12.4749C109.593 11.3522 108.684 10.4434 107.562 10.4434C106.385 10.4434 105.477 11.3522 105.477 12.4749C105.477 14.5598 105.477 19.2109 105.477 19.2109C105.477 20.3336 106.385 21.2959 107.562 21.2959C108.684 21.2959 109.593 20.3336 109.593 19.2109Z" fill="#7890EB"/>
</g>
</g>
<defs>
<clipPath id="clip0_261_1028">
<rect width="630" height="640" fill="white"/>
</clipPath>
<clipPath id="clip1_261_1028">
<rect width="621.02" height="627.002" fill="white" transform="translate(8.98047 12.6377)"/>
</clipPath>
<clipPath id="clip2_261_1028">
<rect width="621.02" height="635.347" fill="white" transform="translate(5.53516 -1)"/>
</clipPath>
</defs>
</svg>
