<svg width="140" height="60" viewBox="0 0 140 60" fill="none" xmlns="http://www.w3.org/2000/svg">
<path d="M27.6507 41.752C27.6507 41.816 27.6827 41.912 27.7467 42.04C27.2347 42.776 26.4987 43.88 25.5387 45.352C25.1867 45.896 24.8347 46.392 24.4827 46.84C24.1627 47.288 23.9707 47.576 23.9067 47.704C23.8107 47.768 23.6667 47.928 23.4747 48.184C23.2827 48.408 23.0747 48.648 22.8507 48.904C22.6587 49.16 22.4507 49.416 22.2267 49.672C22.0347 49.928 21.9067 50.088 21.8427 50.152C21.2987 50.856 20.6107 51.56 19.7787 52.264C18.9467 52.968 18.0507 53.624 17.0907 54.232C16.1627 54.808 15.2027 55.336 14.2107 55.816C13.2507 56.264 12.3547 56.616 11.5227 56.872C11.4267 56.904 11.2827 56.936 11.0907 56.968C10.9307 56.968 10.7547 56.968 10.5627 56.968C10.3707 56.968 10.1787 56.968 9.98673 56.968C9.82673 56.936 9.71473 56.904 9.65073 56.872C9.61873 56.84 9.52273 56.792 9.36273 56.728C9.23473 56.664 9.07473 56.6 8.88273 56.536C8.69073 56.472 8.49873 56.424 8.30673 56.392C8.14673 56.328 8.01873 56.28 7.92273 56.248C7.79473 56.216 7.58673 56.152 7.29873 56.056C7.04273 55.928 6.75473 55.768 6.43473 55.576C6.14673 55.384 5.84273 55.192 5.52273 55C5.23473 54.776 4.97873 54.552 4.75473 54.328C3.76273 53.464 3.05873 52.776 2.64273 52.264C2.22673 51.72 1.87473 51.08 1.58673 50.344C1.36273 49.704 1.18673 48.952 1.05873 48.088C0.930734 47.224 0.850734 46.328 0.818734 45.4C0.786734 44.472 0.818734 43.56 0.914734 42.664C0.978734 41.736 1.10673 40.92 1.29873 40.216C1.45873 39.64 1.61873 39.048 1.77873 38.44C1.97073 37.832 2.16273 37.24 2.35473 36.664C2.57873 36.088 2.78673 35.56 2.97873 35.08C3.20273 34.6 3.41073 34.2 3.60273 33.88C3.98673 33.144 4.37073 32.472 4.75473 31.864C5.17073 31.224 5.42673 30.888 5.52273 30.856C5.58673 30.824 5.61873 30.76 5.61873 30.664C5.61873 30.568 5.69873 30.408 5.85873 30.184C6.01873 29.96 6.19473 29.736 6.38673 29.512C6.61073 29.256 6.83473 29.032 7.05873 28.84C7.31473 28.648 7.50673 28.52 7.63473 28.456C7.79473 28.392 7.93873 28.312 8.06673 28.216C8.19473 28.12 8.27473 28.04 8.30673 27.976C8.37073 27.848 8.54673 27.656 8.83473 27.4C9.15473 27.144 9.50673 26.872 9.89073 26.584C10.2747 26.296 10.6427 26.04 10.9947 25.816C11.3787 25.56 11.6667 25.416 11.8587 25.384C12.2107 25.288 12.5467 25.24 12.8667 25.24C13.6027 25.24 14.2107 25.432 14.6907 25.816C14.8507 25.976 15.0907 26.152 15.4107 26.344C15.7307 26.504 16.0347 26.664 16.3227 26.824C16.9947 27.144 17.6027 27.544 18.1467 28.024C18.6907 28.472 19.1227 28.984 19.4427 29.56C19.6987 29.976 19.8427 30.296 19.8747 30.52C19.9387 30.744 19.9707 31.128 19.9707 31.672C19.9387 32.536 19.6667 33.544 19.1547 34.696C18.6427 35.816 17.9707 36.936 17.1387 38.056C16.9467 38.344 16.7707 38.616 16.6107 38.872C16.4507 39.096 16.3707 39.24 16.3707 39.304C16.3387 39.336 16.2267 39.464 16.0347 39.688C15.8747 39.88 15.6987 40.104 15.5067 40.36C15.3467 40.584 15.1867 40.792 15.0267 40.984C14.8987 41.176 14.8347 41.288 14.8347 41.32C14.8347 41.448 14.8027 41.512 14.7387 41.512C14.6427 41.512 14.5147 41.672 14.3547 41.992C14.2907 42.152 14.1627 42.36 13.9707 42.616C13.8107 42.872 13.6187 43.128 13.3947 43.384C13.1387 43.608 12.9307 43.816 12.7707 44.008C12.6107 44.168 12.5307 44.264 12.5307 44.296C12.5307 44.36 12.3387 44.584 11.9547 44.968C11.5707 45.352 11.1547 45.768 10.7067 46.216C10.2587 46.664 9.82673 47.064 9.41073 47.416C9.02673 47.768 8.80273 47.944 8.73873 47.944C8.57873 47.944 8.37073 48.008 8.11473 48.136C7.89073 48.232 7.73073 48.328 7.63473 48.424C7.60273 48.456 7.50673 48.52 7.34673 48.616C7.18673 48.712 6.99473 48.824 6.77073 48.952C6.54673 49.08 6.35473 49.208 6.19473 49.336C6.03473 49.432 5.95473 49.496 5.95473 49.528C5.95473 49.624 5.98673 49.816 6.05073 50.104C6.11473 50.392 6.17873 50.712 6.24273 51.064C6.30673 51.384 6.37073 51.704 6.43473 52.024C6.53073 52.312 6.59473 52.504 6.62673 52.6C6.69073 52.856 6.81873 53.016 7.01073 53.08C7.20273 53.144 7.53873 53.176 8.01873 53.176C8.37073 53.176 8.72273 53.192 9.07473 53.224C9.42673 53.224 9.79473 53.192 10.1787 53.128C10.5947 53.064 11.0267 52.936 11.4747 52.744C11.9547 52.552 12.4827 52.248 13.0587 51.832C13.3147 51.672 13.5227 51.544 13.6827 51.448C13.8427 51.32 13.9227 51.272 13.9227 51.304C13.9227 51.368 13.7947 51.528 13.5387 51.784C13.2827 52.04 12.9787 52.296 12.6267 52.552C12.6267 52.552 12.8187 52.424 13.2027 52.168C13.5867 51.912 14.0667 51.576 14.6427 51.16C15.2187 50.744 15.8427 50.296 16.5147 49.816C17.2187 49.304 17.8747 48.824 18.4827 48.376C19.0907 47.928 19.6027 47.512 20.0187 47.128C20.4667 46.744 20.7227 46.472 20.7867 46.312C20.9787 45.96 21.1067 45.784 21.1707 45.784C21.2027 45.784 21.2987 45.688 21.4587 45.496C21.6187 45.272 21.7947 45.016 21.9867 44.728C22.1787 44.44 22.3547 44.2 22.5147 44.008C22.7067 43.784 22.8187 43.672 22.8507 43.672C22.9467 43.672 22.9947 43.592 22.9947 43.432C22.9947 43.336 23.1067 43.144 23.3307 42.856C23.5547 42.568 23.6987 42.424 23.7627 42.424C23.7947 42.424 23.8107 42.44 23.8107 42.472C23.8107 42.536 23.7787 42.648 23.7147 42.808C23.6507 42.968 23.5707 43.128 23.4747 43.288C23.3787 43.416 23.2827 43.544 23.1867 43.672C23.0907 43.768 23.0267 43.816 22.9947 43.816C22.8987 43.816 22.8507 43.96 22.8507 44.248C22.8507 44.504 22.7387 44.68 22.5147 44.776C22.2907 44.84 22.1787 44.904 22.1787 44.968C22.1787 45.032 22.1147 45.176 21.9867 45.4C21.8907 45.592 21.7627 45.816 21.6027 46.072C21.4427 46.296 21.2667 46.536 21.0747 46.792C20.9147 47.016 20.7707 47.192 20.6427 47.32C20.3547 47.608 20.2107 47.8 20.2107 47.896C20.2107 47.928 20.2107 47.992 20.2107 48.088C20.2107 48.184 20.2107 48.28 20.2107 48.376C20.2427 48.44 20.2907 48.488 20.3547 48.52C20.4187 48.52 20.4987 48.456 20.5947 48.328C20.8187 48.072 21.0587 47.8 21.3147 47.512C21.5707 47.192 21.7787 46.952 21.9387 46.792C22.0987 46.632 22.2747 46.408 22.4667 46.12C22.6907 45.832 22.8827 45.56 23.0427 45.304C23.2027 45.048 23.3627 44.808 23.5227 44.584C23.7147 44.36 23.8747 44.184 24.0027 44.056C24.1947 43.896 24.2907 43.752 24.2907 43.624C24.2907 43.56 24.3387 43.464 24.4347 43.336C24.5627 43.176 24.6907 43.016 24.8187 42.856C25.1387 42.536 25.2987 42.312 25.2987 42.184C25.2987 42.088 25.4107 41.864 25.6347 41.512C25.8907 41.16 26.1307 40.808 26.3547 40.456C26.4507 40.36 26.5147 40.264 26.5467 40.168C26.5787 40.072 26.5947 39.992 26.5947 39.928C26.5947 39.768 26.6587 39.688 26.7867 39.688C26.8827 39.688 26.9307 39.624 26.9307 39.496C26.9307 39.432 26.9627 39.352 27.0267 39.256C27.0907 39.16 27.1547 39.048 27.2187 38.92L27.3147 39.016C27.3467 39.144 27.4107 39.272 27.5067 39.4C26.5787 40.936 25.7147 42.296 24.9147 43.48C24.1467 44.664 23.4907 45.576 22.9467 46.216C22.4027 46.792 22.1787 47.128 22.2747 47.224C22.4667 47.256 22.4827 47.432 22.3227 47.752L22.1787 48.184L22.5627 47.752C22.8507 47.56 22.9947 47.368 22.9947 47.176C22.9947 47.048 23.1227 46.952 23.3787 46.888C23.6027 46.76 23.7787 46.584 23.9067 46.36C23.9707 46.296 24.1147 46.056 24.3387 45.64C24.5947 45.224 24.8827 44.776 25.2027 44.296C25.5547 43.848 25.8587 43.416 26.1147 43C26.3707 42.552 26.5307 42.248 26.5947 42.088C26.6907 41.928 26.8027 41.736 26.9307 41.512C27.0907 41.288 27.2507 41.064 27.4107 40.84C27.4747 40.712 27.5707 40.552 27.6987 40.36C27.7627 40.904 27.7467 41.368 27.6507 41.752ZM25.3947 40.024C25.3307 40.152 25.3467 40.28 25.4427 40.408C25.4427 40.568 25.3467 40.68 25.1547 40.744C24.9307 40.808 24.8187 40.936 24.8187 41.128C24.8187 41.288 24.7547 41.368 24.6267 41.368C24.5307 41.368 24.4827 41.48 24.4827 41.704C24.4827 41.992 24.3707 42.136 24.1467 42.136C23.9867 42.136 23.9067 42.12 23.9067 42.088C23.9067 42.056 23.9387 41.96 24.0027 41.8C24.0667 41.704 24.1787 41.528 24.3387 41.272C24.5307 40.984 24.7227 40.696 24.9147 40.408C24.9787 40.344 25.0267 40.28 25.0587 40.216C25.0907 40.152 25.1387 40.088 25.2027 40.024H25.3947ZM9.98673 44.488C10.2747 44.2 10.4187 44.04 10.4187 44.008C10.4187 43.944 10.3227 43.976 10.1307 44.104C9.97073 44.232 9.85873 44.376 9.79473 44.536C9.69873 44.696 9.65073 44.776 9.65073 44.776C9.68273 44.776 9.79473 44.68 9.98673 44.488ZM10.7547 43.72C10.8507 43.656 10.8987 43.608 10.8987 43.576C10.8987 43.512 10.8507 43.48 10.7547 43.48C10.6267 43.48 10.5627 43.544 10.5627 43.672C10.5627 43.768 10.6267 43.784 10.7547 43.72ZM6.53073 41.848C6.43473 42.008 6.33873 42.264 6.24273 42.616C6.17873 42.968 6.11473 43.336 6.05073 43.72C5.98673 44.104 5.93873 44.488 5.90673 44.872C5.87473 45.224 5.87473 45.512 5.90673 45.736C5.93873 46.216 5.95473 46.488 5.95473 46.552C5.95473 46.584 6.01873 46.6 6.14673 46.6C6.24273 46.6 6.25873 46.488 6.19473 46.264C6.16273 45.976 6.22673 45.832 6.38673 45.832C6.45073 45.832 6.56273 45.784 6.72273 45.688C6.88273 45.592 7.04273 45.48 7.20273 45.352C7.36273 45.224 7.49073 45.096 7.58673 44.968C7.71473 44.84 7.77873 44.744 7.77873 44.68C7.77873 44.584 7.85873 44.504 8.01873 44.44C8.14673 44.376 8.21073 44.248 8.21073 44.056C8.14673 43.896 8.16273 43.816 8.25873 43.816C8.32273 43.816 8.40273 43.768 8.49873 43.672C8.62673 43.544 8.75473 43.416 8.88273 43.288C9.04273 43.16 9.17073 43.032 9.26673 42.904C9.36273 42.744 9.41073 42.648 9.41073 42.616C9.41073 42.488 9.60273 42.264 9.98673 41.944C10.4347 41.432 10.7227 41.096 10.8507 40.936C10.9787 40.744 11.0427 40.6 11.0427 40.504C11.0427 40.44 11.0747 40.36 11.1387 40.264C11.2347 40.168 11.3147 40.056 11.3787 39.928C11.5387 39.768 11.8427 39.384 12.2907 38.776C12.7387 38.168 13.4907 37.064 14.5467 35.464C14.9627 34.856 15.2187 34.408 15.3147 34.12C15.4427 33.8 15.3787 33.72 15.1227 33.88C15.0587 33.944 15.0267 33.96 15.0267 33.928C15.0267 33.896 15.0587 33.848 15.1227 33.784C15.1867 33.688 15.2667 33.496 15.3627 33.208C15.4907 32.92 15.6027 32.6 15.6987 32.248C15.8267 31.864 15.9387 31.48 16.0347 31.096C16.1307 30.712 16.1947 30.376 16.2267 30.088C16.2907 29.736 16.2587 29.336 16.1307 28.888C16.0027 28.408 15.8587 28.168 15.6987 28.168C15.6667 28.168 15.5707 28.264 15.4107 28.456C15.2507 28.616 15.0427 28.824 14.7867 29.08C14.5947 29.336 14.3707 29.592 14.1147 29.848C13.8587 30.104 13.6507 30.296 13.4907 30.424C13.3307 30.52 13.1387 30.664 12.9147 30.856C12.6907 31.016 12.4987 31.176 12.3387 31.336C12.1787 31.496 12.0187 31.64 11.8587 31.768C11.7307 31.896 11.6507 31.96 11.6187 31.96C11.4907 31.96 11.3947 32.072 11.3307 32.296C11.2987 32.392 11.2027 32.552 11.0427 32.776C10.8827 33 10.7067 33.24 10.5147 33.496C9.97073 34.136 9.58673 34.632 9.36273 34.984C9.17073 35.336 8.99473 35.736 8.83473 36.184C8.77073 36.408 8.69073 36.648 8.59473 36.904C8.49873 37.128 8.41873 37.32 8.35473 37.48C8.32273 37.576 8.21073 37.816 8.01873 38.2C7.85873 38.584 7.68273 38.984 7.49073 39.4C7.29873 39.816 7.12273 40.2 6.96273 40.552C6.83473 40.904 6.77073 41.112 6.77073 41.176C6.77073 41.24 6.75473 41.336 6.72273 41.464C6.69073 41.592 6.62673 41.72 6.53073 41.848ZM11.2347 43C11.3307 43 11.3787 42.936 11.3787 42.808C11.3787 42.744 11.3307 42.728 11.2347 42.76C11.1387 42.824 11.0907 42.888 11.0907 42.952C11.0907 42.984 11.1387 43 11.2347 43ZM12.0507 41.848C12.1787 41.848 12.2427 41.784 12.2427 41.656C12.2427 41.592 12.1787 41.576 12.0507 41.608C11.9547 41.672 11.9067 41.736 11.9067 41.8C11.9067 41.832 11.9547 41.848 12.0507 41.848ZM13.4427 39.928C13.4747 39.8 13.4587 39.752 13.3947 39.784C13.2667 39.848 13.2027 39.928 13.2027 40.024C13.2027 40.152 13.2187 40.216 13.2507 40.216C13.3147 40.184 13.3787 40.088 13.4427 39.928ZM25.7307 39.688C25.7947 39.624 25.8267 39.576 25.8267 39.544C25.8587 39.512 25.9067 39.464 25.9707 39.4C25.9707 39.592 25.8907 39.688 25.7307 39.688ZM30.6369 59.032C30.1889 58.808 29.9009 58.632 29.7729 58.504C29.6769 58.408 29.5649 58.392 29.4369 58.456C29.3729 58.488 29.2769 58.488 29.1489 58.456C29.0529 58.392 28.9409 58.328 28.8129 58.264C28.6849 58.2 28.5729 58.152 28.4769 58.12C28.3809 58.056 28.3169 58.024 28.2849 58.024C27.8049 57.896 27.3409 57.656 26.8929 57.304C26.4449 56.952 26.0449 56.536 25.6929 56.056C25.3409 55.576 25.0369 55.048 24.7809 54.472C24.5249 53.864 24.3489 53.256 24.2529 52.648C24.1889 52.2 24.1409 51.832 24.1089 51.544C24.0769 51.224 24.0609 50.888 24.0609 50.536C24.0609 50.184 24.0769 49.784 24.1089 49.336C24.1089 48.856 24.1409 48.264 24.2049 47.56C24.2369 46.856 24.2849 46.232 24.3489 45.688C24.3809 45.112 24.4449 44.52 24.5409 43.912C24.6369 43.272 24.7489 42.584 24.8769 41.848C25.0369 41.08 25.2129 40.152 25.4049 39.064C25.5009 38.616 25.5809 38.2 25.6449 37.816C25.7089 37.4 25.7569 37.112 25.7889 36.952C25.8849 36.408 25.9649 35.944 26.0289 35.56C26.1249 35.176 26.2209 34.744 26.3169 34.264C26.4449 33.784 26.5889 33.192 26.7489 32.488C26.9089 31.784 27.1329 30.856 27.4209 29.704C27.5809 29.032 27.7729 28.312 27.9969 27.544C28.2209 26.744 28.4449 25.928 28.6689 25.096C28.9249 24.264 29.1809 23.448 29.4369 22.648C29.7249 21.816 29.9809 21.064 30.2049 20.392C30.3009 20.104 30.4289 19.704 30.5889 19.192C30.7489 18.68 30.9089 18.2 31.0689 17.752C31.2289 17.24 31.4849 16.52 31.8369 15.592C32.1889 14.632 32.5729 13.64 32.9889 12.616C33.4049 11.592 33.8049 10.616 34.1889 9.688C34.5729 8.76 34.8769 8.056 35.1009 7.576C35.2609 7.16 35.4689 6.696 35.7249 6.184C35.9809 5.64 36.1889 5.192 36.3489 4.84C36.5089 4.488 36.6849 4.12 36.8769 3.736C37.0689 3.32 37.2289 2.984 37.3569 2.72799C37.4849 2.504 37.5809 2.296 37.6449 2.10399C37.7409 1.88 37.8049 1.736 37.8369 1.672C37.8369 1.448 37.9009 1.4 38.0289 1.528C38.1569 1.56 38.4129 1.352 38.7969 0.903996C39.1489 0.487995 39.4849 0.279995 39.8049 0.279995C40.1249 0.247997 40.7489 0.407997 41.6769 0.759995C42.2849 0.983997 42.8129 1.336 43.2609 1.816C43.7409 2.264 43.9649 2.664 43.9329 3.016C43.9329 3.08 43.8529 3.24 43.6929 3.496C43.5329 3.752 43.3729 4.008 43.2129 4.264C42.8929 4.68 42.5249 5.24 42.1089 5.944C41.6929 6.616 41.2929 7.304 40.9089 8.008C40.5569 8.68 40.2369 9.288 39.9489 9.832C39.6929 10.376 39.5649 10.728 39.5649 10.888C39.5649 10.984 39.5169 11.16 39.4209 11.416C39.3569 11.64 39.2609 11.896 39.1329 12.184C39.0369 12.472 38.9089 12.776 38.7489 13.096C38.6209 13.384 38.4929 13.64 38.3649 13.864C38.3009 14.056 38.1729 14.376 37.9809 14.824C37.8209 15.24 37.6609 15.672 37.5009 16.12C37.3409 16.568 37.1489 17.08 36.9249 17.656C36.7009 18.232 36.5089 18.712 36.3489 19.096C36.1889 19.48 36.0449 19.848 35.9169 20.2C35.8209 20.52 35.7409 20.76 35.6769 20.92C35.6129 21.08 35.5329 21.32 35.4369 21.64C35.3409 21.96 35.2289 22.296 35.1009 22.648C34.9729 23 34.8609 23.368 34.7649 23.752C34.6689 24.104 34.5889 24.408 34.5249 24.664C34.4609 24.888 34.3489 25.256 34.1889 25.768C34.0609 26.28 33.9169 26.776 33.7569 27.256C33.5969 27.768 33.4209 28.376 33.2289 29.08C33.0369 29.752 32.8609 30.328 32.7009 30.808C32.5729 31.288 32.4449 31.736 32.3169 32.152C32.2209 32.568 32.1569 32.824 32.1249 32.92C32.1249 32.984 32.0769 33.208 31.9809 33.592C31.9169 33.944 31.8369 34.344 31.7409 34.792C31.6769 35.24 31.5969 35.656 31.5009 36.04C31.4049 36.392 31.3249 36.648 31.2609 36.808C31.1969 36.968 31.1169 37.224 31.0209 37.576C30.9249 37.928 30.8449 38.296 30.7809 38.68C30.7169 39.064 30.6209 39.528 30.4929 40.072C30.3969 40.616 30.3169 41.08 30.2529 41.464C29.9969 42.712 29.7569 44.088 29.5329 45.592C29.3409 47.064 29.1809 48.472 29.0529 49.816C28.9569 51.16 28.9089 52.328 28.9089 53.32C28.9409 54.312 29.0209 54.936 29.1489 55.192C29.1809 55.256 29.2449 55.368 29.3409 55.528C29.4369 55.656 29.5489 55.8 29.6769 55.96C29.8689 56.216 29.9969 56.36 30.0609 56.392C30.1249 56.392 30.2529 56.312 30.4449 56.152C30.7329 55.96 31.1009 55.624 31.5489 55.144C31.7089 54.92 31.9009 54.696 32.1249 54.472C32.3489 54.216 32.5249 54.024 32.6529 53.896C32.8129 53.736 32.9569 53.576 33.0849 53.416C33.2449 53.256 33.3569 53.112 33.4209 52.984C33.5809 52.792 33.7249 52.68 33.8529 52.648C33.9809 52.584 33.9649 52.648 33.8049 52.84C33.7729 52.936 33.8209 52.936 33.9489 52.84C34.1089 52.744 34.2049 52.632 34.2369 52.504C34.3009 52.376 34.2529 52.344 34.0929 52.408C33.9329 52.504 33.9009 52.44 33.9969 52.216C34.1249 51.96 34.3969 51.512 34.8129 50.872C35.1649 50.296 35.4369 49.832 35.6289 49.48C35.8529 49.128 36.0289 48.856 36.1569 48.664C36.2849 48.472 36.3649 48.36 36.3969 48.328C36.4609 48.264 36.4929 48.248 36.4929 48.28C36.5249 48.344 36.4769 48.472 36.3489 48.664C36.2529 48.856 36.1249 49.096 35.9649 49.384C35.2929 50.504 34.8449 51.256 34.6209 51.64C34.4289 52.024 34.3809 52.152 34.4769 52.024C34.6369 51.896 34.8769 51.56 35.1969 51.016C35.5489 50.44 35.9009 49.832 36.2529 49.192C36.4129 48.872 36.5889 48.536 36.7809 48.184C37.0049 47.832 37.2129 47.512 37.4049 47.224C37.5969 46.936 37.7569 46.696 37.8849 46.504C38.0449 46.312 38.1409 46.216 38.1729 46.216C38.2689 46.216 38.3329 46.152 38.3649 46.024C38.3649 45.896 38.4289 45.704 38.5569 45.448C38.7169 45.16 38.8769 44.872 39.0369 44.584C39.1969 44.296 39.3569 44.04 39.5169 43.816C39.7089 43.56 39.8369 43.432 39.9009 43.432C40.1249 43.368 40.1889 43.272 40.0929 43.144C40.0929 43.048 40.1409 42.904 40.2369 42.712C40.3329 42.52 40.4289 42.328 40.5249 42.136C40.6529 41.912 40.7809 41.736 40.9089 41.608C41.0369 41.448 41.1169 41.384 41.1489 41.416C41.1809 41.48 41.1969 41.496 41.1969 41.464C41.2289 41.432 41.2289 41.368 41.1969 41.272C41.1969 41.176 41.2289 41.064 41.2929 40.936C41.3569 40.776 41.4209 40.616 41.4849 40.456C41.6449 40.232 41.7409 40.12 41.7729 40.12C41.8049 40.12 41.7889 40.216 41.7249 40.408C41.5969 40.664 41.5329 40.952 41.5329 41.272C41.5009 41.56 41.4049 41.704 41.2449 41.704C41.0849 41.672 40.9729 41.704 40.9089 41.8C40.8769 41.896 40.9409 41.976 41.1009 42.04C41.2289 42.104 41.1969 42.248 41.0049 42.472C40.8769 42.664 40.7489 42.728 40.6209 42.664C40.5249 42.632 40.4289 42.664 40.3329 42.76C40.2689 42.888 40.2849 42.952 40.3809 42.952C40.5409 42.952 40.5409 43.128 40.3809 43.48C40.2209 43.832 39.9009 44.408 39.4209 45.208C39.1649 45.624 38.8609 46.12 38.5089 46.696C38.1889 47.272 37.8689 47.832 37.5489 48.376C37.2609 48.888 37.0049 49.336 36.7809 49.72C36.5889 50.104 36.4929 50.312 36.4929 50.344C36.4929 50.408 36.5889 50.344 36.7809 50.152C37.0049 49.992 37.1169 49.8 37.1169 49.576C37.1489 49.512 37.1969 49.416 37.2609 49.288C37.3249 49.16 37.4209 49.048 37.5489 48.952C37.7729 48.728 37.8849 48.568 37.8849 48.472C37.8529 48.408 37.8849 48.312 37.9809 48.184C38.1089 48.024 38.2529 47.864 38.4129 47.704C38.7969 47.32 38.9889 47 38.9889 46.744C39.0529 46.552 39.1169 46.472 39.1809 46.504C39.2449 46.504 39.3089 46.392 39.3729 46.168C39.3729 45.944 39.5169 45.656 39.8049 45.304C40.0929 44.952 40.2369 44.728 40.2369 44.632C40.2369 44.504 40.3009 44.328 40.4289 44.104C40.5569 43.88 40.7009 43.688 40.8609 43.528C40.9249 43.464 40.9889 43.384 41.0529 43.288C41.1169 43.16 41.1649 43.016 41.1969 42.856C41.2289 42.728 41.2769 42.616 41.3409 42.52C41.4049 42.424 41.4689 42.344 41.5329 42.28C41.6609 42.28 41.7569 42.104 41.8209 41.752C41.8209 41.496 41.8689 41.32 41.9649 41.224C42.0609 41.192 42.3969 40.696 42.9729 39.736C43.5809 38.776 44.3009 37.528 45.1329 35.992C45.4849 35.352 45.7729 34.824 45.9969 34.408C46.2209 33.96 46.4129 33.576 46.5729 33.256C46.7329 32.904 46.8769 32.584 47.0049 32.296C47.1329 32.008 47.2449 31.72 47.3409 31.432C47.4689 30.984 47.6129 30.792 47.7729 30.856C47.8369 30.888 47.9809 30.872 48.2049 30.808C48.3009 30.744 48.3329 30.904 48.3009 31.288C48.2689 31.608 48.1089 32.088 47.8209 32.728C47.5649 33.368 47.2609 34.04 46.9089 34.744C46.7809 34.936 46.6209 35.208 46.4289 35.56C46.2689 35.88 46.1089 36.184 45.9489 36.472C45.7889 36.76 45.6609 37.016 45.5649 37.24C45.4689 37.464 45.4369 37.608 45.4689 37.672C45.4689 37.832 45.4049 37.976 45.2769 38.104C45.2129 38.168 45.1489 38.232 45.0849 38.296C45.0529 38.328 45.0369 38.376 45.0369 38.44C45.0049 38.696 44.9089 39 44.7489 39.352C44.5889 39.672 44.4609 39.832 44.3649 39.832C44.2689 39.832 44.2209 39.96 44.2209 40.216C44.2529 40.472 44.2209 40.648 44.1249 40.744C44.0289 40.808 43.9489 40.712 43.8849 40.456C43.8849 40.2 43.8049 40.104 43.6449 40.168C43.6129 40.264 43.6289 40.344 43.6929 40.408C43.7889 40.504 43.7729 40.664 43.6449 40.888C43.5489 41.112 43.5329 41.272 43.5969 41.368C43.6929 41.496 43.5969 41.784 43.3089 42.232C43.1809 42.392 43.0689 42.552 42.9729 42.712C42.9089 42.84 42.8609 42.936 42.8289 43C42.8289 43.032 42.7649 43.176 42.6369 43.432C42.5409 43.688 42.4129 43.976 42.2529 44.296C42.0929 44.584 41.9329 44.888 41.7729 45.208C41.6129 45.528 41.4849 45.768 41.3889 45.928C41.3569 45.992 41.2929 46.136 41.1969 46.36C41.1009 46.552 41.0049 46.744 40.9089 46.936C40.8449 47.16 40.7489 47.384 40.6209 47.608C40.4929 47.832 40.3969 47.992 40.3329 48.088C40.2369 48.216 40.0929 48.456 39.9009 48.808C39.7089 49.128 39.5009 49.48 39.2769 49.864C39.0529 50.248 38.8449 50.616 38.6529 50.968C38.4929 51.32 38.3809 51.56 38.3169 51.688C38.2849 51.784 38.1409 52.04 37.8849 52.456C37.6609 52.84 37.4049 53.272 37.1169 53.752C36.7969 54.2 36.4609 54.696 36.1089 55.24C35.7889 55.752 35.5489 56.136 35.3889 56.392C34.8129 57.384 34.0289 58.12 33.0369 58.6C32.8769 58.664 32.7009 58.76 32.5089 58.888C32.3169 58.984 32.1569 59.08 32.0289 59.176C31.8049 59.336 31.6289 59.416 31.5009 59.416C31.3729 59.384 31.0849 59.256 30.6369 59.032ZM26.2689 49.048C26.3329 48.28 26.3969 47.608 26.4609 47.032C26.5249 46.456 26.5889 45.928 26.6529 45.448C26.7489 44.936 26.8449 44.424 26.9409 43.912C27.0369 43.368 27.1489 42.76 27.2769 42.088C27.3729 41.672 27.4529 41.256 27.5169 40.84C27.5809 40.424 27.6449 40.12 27.7089 39.928C27.7729 39.544 27.8369 39.272 27.9009 39.112C27.9009 39.048 27.9329 38.904 27.9969 38.68C28.0609 38.456 28.1249 38.216 28.1889 37.96C28.2529 37.608 28.3489 37.08 28.4769 36.376C28.6369 35.672 28.7969 34.968 28.9569 34.264C29.1489 33.528 29.3089 32.872 29.4369 32.296C29.5969 31.688 29.7089 31.32 29.7729 31.192C29.8369 31.032 29.8849 30.84 29.9169 30.616C29.9809 30.392 30.0449 30.184 30.1089 29.992C30.1729 29.64 30.2689 29.208 30.3969 28.696C30.5249 28.152 30.6529 27.624 30.7809 27.112C30.9089 26.6 31.0209 26.152 31.1169 25.768C31.2129 25.384 31.2769 25.16 31.3089 25.096C31.3729 24.936 31.4369 24.76 31.5009 24.568C31.5969 24.344 31.6609 24.12 31.6929 23.896C31.7569 23.672 31.8049 23.48 31.8369 23.32C31.8689 23.16 31.8689 23.08 31.8369 23.08C31.8049 23.048 31.7729 23.048 31.7409 23.08C31.7089 23.08 31.6609 23.176 31.5969 23.368C31.5329 23.56 31.4369 23.88 31.3089 24.328C31.1809 24.776 30.9889 25.4 30.7329 26.2C29.2929 31.448 28.1889 35.928 27.4209 39.64C26.6849 43.352 26.2369 46.568 26.0769 49.288C26.0129 50.024 25.9649 50.648 25.9329 51.16C25.9009 51.672 25.8849 51.944 25.8849 51.976C25.9169 52.008 25.9329 52.024 25.9329 52.024C25.9649 52.024 26.0129 51.736 26.0769 51.16C26.1409 50.584 26.2049 49.88 26.2689 49.048ZM27.8529 50.872C27.8849 50.84 27.8689 50.776 27.8049 50.68C27.7729 50.584 27.7249 50.472 27.6609 50.344L27.3729 49.912L27.4209 50.344V50.968C27.4209 51.128 27.5009 51.16 27.6609 51.064C27.7889 51.064 27.8529 51 27.8529 50.872ZM25.1169 48.568C25.2449 48.472 25.2449 48.392 25.1169 48.328C25.0209 48.264 24.9729 48.04 24.9729 47.656C25.0369 47.208 25.1009 47.064 25.1649 47.224C25.2929 47.288 25.3089 47.224 25.2129 47.032C25.1809 46.904 25.1489 46.696 25.1169 46.408C25.1169 46.12 25.1489 45.816 25.2129 45.496C25.3089 44.792 25.3729 44.568 25.4049 44.824L25.5009 45.256L25.5969 44.872C25.6609 44.616 25.7569 44.152 25.8849 43.48C26.0129 42.776 26.1249 42.088 26.2209 41.416C26.3169 40.712 26.3809 40.136 26.4129 39.688C26.4769 39.24 26.4769 39.112 26.4129 39.304C26.3489 39.496 26.2529 39.592 26.1249 39.592C25.9969 39.528 25.8209 40.216 25.5969 41.656C25.5009 42.232 25.4209 42.76 25.3569 43.24C25.2929 43.72 25.2449 43.992 25.2129 44.056C25.2129 44.152 25.1969 44.376 25.1649 44.728C25.1329 45.048 25.0849 45.4 25.0209 45.784C24.8929 46.808 24.8129 47.624 24.7809 48.232C24.7489 48.84 24.7649 49.08 24.8289 48.952C24.8609 48.888 24.8929 48.824 24.9249 48.76C24.9889 48.696 25.0529 48.632 25.1169 48.568ZM25.6449 42.712C25.7089 42.168 25.7889 41.672 25.8849 41.224C25.9809 40.776 26.0609 40.584 26.1249 40.648C26.1249 40.68 26.1089 40.824 26.0769 41.08C26.0449 41.304 25.9969 41.592 25.9329 41.944C25.7729 42.776 25.6609 43.256 25.5969 43.384C25.5649 43.48 25.5809 43.256 25.6449 42.712ZM28.8129 43.912C28.8129 43.72 28.7329 43.816 28.5729 44.2C28.5089 44.36 28.4449 44.536 28.3809 44.728C28.3489 44.92 28.3489 45.08 28.3809 45.208C28.4129 45.432 28.4929 45.32 28.6209 44.872C28.6849 44.712 28.7329 44.536 28.7649 44.344C28.7969 44.12 28.8129 43.976 28.8129 43.912ZM26.6529 42.52C26.6529 42.488 26.6369 42.488 26.6049 42.52C26.5729 42.52 26.5409 42.552 26.5089 42.616C26.3809 42.744 26.3169 42.872 26.3169 43C26.3169 43.064 26.3649 43.048 26.4609 42.952C26.5889 42.76 26.6529 42.616 26.6529 42.52ZM26.4129 38.68C26.5409 38.776 26.6369 38.712 26.7009 38.488C26.7969 38.232 26.9409 37.64 27.1329 36.712C27.2289 36.232 27.3569 35.64 27.5169 34.936C27.7089 34.232 27.8689 33.624 27.9969 33.112C28.1249 32.568 28.2369 32.072 28.3329 31.624C28.4289 31.176 28.4929 30.872 28.5249 30.712C28.5569 30.616 28.6369 30.344 28.7649 29.896C28.8929 29.416 29.0369 28.904 29.1969 28.36C29.3569 27.816 29.5009 27.272 29.6289 26.728C29.7889 26.184 29.9169 25.768 30.0129 25.48C30.0769 25.32 30.1569 25.08 30.2529 24.76C30.3489 24.408 30.4449 24.056 30.5409 23.704C30.7969 22.808 31.1009 21.832 31.4529 20.776C31.8049 19.72 32.1089 18.856 32.3649 18.184C32.4609 17.992 32.5729 17.72 32.7009 17.368C32.8289 16.984 32.9569 16.616 33.0849 16.264C33.2129 15.944 33.4049 15.432 33.6609 14.728C33.9169 13.992 34.1729 13.304 34.4289 12.664C34.6849 11.992 34.8929 11.432 35.0529 10.984C35.2449 10.504 35.3409 10.248 35.3409 10.216C35.3409 10.184 35.2449 10.344 35.0529 10.696C34.8929 11.048 34.7009 11.464 34.4769 11.944C34.2849 12.392 34.0929 12.84 33.9009 13.288C33.7089 13.736 33.5809 14.056 33.5169 14.248C33.4529 14.408 33.3889 14.584 33.3249 14.776C33.2609 14.936 33.1969 15.048 33.1329 15.112C33.0049 15.24 32.8289 15.592 32.6049 16.168C32.4129 16.712 32.0769 17.704 31.5969 19.144C31.4369 19.528 31.2609 19.992 31.0689 20.536C30.9089 21.048 30.7489 21.496 30.5889 21.88C30.4289 22.232 30.2849 22.6 30.1569 22.984C30.0609 23.368 29.9809 23.64 29.9169 23.8C29.5649 24.92 29.3089 25.736 29.1489 26.248C29.0209 26.728 28.9249 27.176 28.8609 27.592C28.7969 27.848 28.7489 28.088 28.7169 28.312C28.6849 28.536 28.6369 28.68 28.5729 28.744C28.5409 28.808 28.4769 28.968 28.3809 29.224C28.2849 29.48 28.2049 29.784 28.1409 30.136C28.0769 30.488 27.9969 30.808 27.9009 31.096C27.8369 31.384 27.7889 31.576 27.7569 31.672C27.7249 31.8 27.6289 32.136 27.4689 32.68C27.3409 33.192 27.1969 33.752 27.0369 34.36C26.9089 34.936 26.7809 35.464 26.6529 35.944C26.5569 36.424 26.5089 36.696 26.5089 36.76C26.5089 36.824 26.4769 37 26.4129 37.288C26.3489 37.544 26.2849 37.816 26.2209 38.104C26.1569 38.424 26.1089 38.696 26.0769 38.92C26.0449 39.144 26.0449 39.272 26.0769 39.304C26.1089 39.368 26.1409 39.368 26.1729 39.304C26.2049 39.24 26.2209 39.144 26.2209 39.016C26.2849 38.728 26.3489 38.616 26.4129 38.68ZM27.2289 38.968C27.2289 38.84 27.1969 38.904 27.1329 39.16C27.1329 39.384 27.1489 39.464 27.1809 39.4C27.2449 39.208 27.2609 39.064 27.2289 38.968ZM28.0449 34.984C27.9809 34.92 27.9489 34.984 27.9489 35.176C27.9489 35.336 27.9809 35.384 28.0449 35.32C28.1089 35.16 28.1089 35.048 28.0449 34.984ZM28.6209 33.064C28.7169 32.552 28.7169 32.408 28.6209 32.632C28.5249 32.856 28.4289 33.24 28.3329 33.784C28.2049 34.264 28.2049 34.408 28.3329 34.216C28.3969 34.12 28.4449 33.96 28.4769 33.736C28.5089 33.512 28.5569 33.288 28.6209 33.064ZM29.3409 30.568C29.4049 30.408 29.4209 30.312 29.3889 30.28C29.3889 30.248 29.3569 30.264 29.2929 30.328C29.2289 30.392 29.1649 30.52 29.1009 30.712C29.0689 30.872 29.0209 31.08 28.9569 31.336C28.8929 31.784 28.8609 32.024 28.8609 32.056C28.8609 32.056 28.9089 31.912 29.0049 31.624C29.1009 31.24 29.2129 30.888 29.3409 30.568ZM29.6289 28.792C29.5649 28.728 29.5329 28.792 29.5329 28.984C29.5329 29.176 29.5649 29.224 29.6289 29.128C29.6929 28.968 29.6929 28.856 29.6289 28.792ZM30.1089 27.448C30.0769 27.288 30.0609 27.208 30.0609 27.208C30.0609 27.208 30.0289 27.336 29.9649 27.592C29.8689 27.944 29.8689 28.072 29.9649 27.976C30.0609 27.912 30.1089 27.736 30.1089 27.448ZM30.7809 25.288C30.8129 25.064 30.7649 25.096 30.6369 25.384C30.5089 25.672 30.4129 25.992 30.3489 26.344L30.1569 27.064L30.4449 26.248C30.5089 26.024 30.5729 25.832 30.6369 25.672C30.7329 25.48 30.7809 25.352 30.7809 25.288ZM33.2769 24.904C33.2769 24.712 33.2289 24.648 33.1329 24.712C33.0369 24.808 33.0049 24.936 33.0369 25.096C33.1649 25.384 33.2449 25.32 33.2769 24.904ZM32.4609 21.496C32.6209 21.144 32.7809 20.696 32.9409 20.152C33.1329 19.576 33.2929 19.064 33.4209 18.616C33.5489 18.168 33.6769 17.736 33.8049 17.32C33.9649 16.872 34.1089 16.552 34.2369 16.36C34.3329 16.136 34.4289 15.896 34.5249 15.64C34.6529 15.384 34.7489 15.176 34.8129 15.016C34.8769 14.856 34.9409 14.632 35.0049 14.344C35.1009 14.024 35.1969 13.736 35.2929 13.48C35.3889 13.224 35.4529 13.016 35.4849 12.856C35.5489 12.664 35.5649 12.552 35.5329 12.52C35.5329 12.488 35.5169 12.488 35.4849 12.52C35.4849 12.52 35.4369 12.616 35.3409 12.808C35.2769 12.968 35.1649 13.256 35.0049 13.672C34.8769 14.056 34.6689 14.632 34.3809 15.4C34.1569 15.944 33.9169 16.568 33.6609 17.272C33.4049 17.976 33.1489 18.664 32.8929 19.336C32.6689 20.008 32.4609 20.632 32.2689 21.208C32.0769 21.752 31.9489 22.168 31.8849 22.456C31.8209 22.68 31.8209 22.792 31.8849 22.792C31.9169 22.824 31.9809 22.712 32.0769 22.456C32.2049 22.168 32.3329 21.848 32.4609 21.496ZM33.0369 18.328C33.0369 18.168 33.0209 18.088 32.9889 18.088L32.9409 18.184C32.9089 18.216 32.8929 18.248 32.8929 18.28C32.8929 18.28 32.8769 18.296 32.8449 18.328C32.7489 18.488 32.7489 18.568 32.8449 18.568C32.9729 18.568 33.0369 18.488 33.0369 18.328ZM35.8689 9.20799C35.9329 9.04799 35.9489 8.96799 35.9169 8.96799C35.9169 8.936 35.8849 8.968 35.8209 9.064C35.7889 9.128 35.7409 9.224 35.6769 9.352C35.6449 9.48 35.5969 9.592 35.5329 9.688C35.4369 9.976 35.4369 10.024 35.5329 9.832C35.6289 9.736 35.7409 9.528 35.8689 9.20799ZM71.2914 41.752C71.2914 41.816 71.3234 41.912 71.3874 42.04C70.8754 42.776 70.1394 43.88 69.1794 45.352C68.8274 45.896 68.4754 46.392 68.1234 46.84C67.8034 47.288 67.6114 47.576 67.5474 47.704C67.4514 47.768 67.3074 47.928 67.1154 48.184C66.9234 48.408 66.7154 48.648 66.4914 48.904C66.2994 49.16 66.0914 49.416 65.8674 49.672C65.6754 49.928 65.5474 50.088 65.4834 50.152C64.9394 50.856 64.2514 51.56 63.4194 52.264C62.5874 52.968 61.6914 53.624 60.7314 54.232C59.8034 54.808 58.8434 55.336 57.8514 55.816C56.8914 56.264 55.9954 56.616 55.1634 56.872C55.0674 56.904 54.9234 56.936 54.7314 56.968C54.5714 56.968 54.3954 56.968 54.2034 56.968C54.0114 56.968 53.8194 56.968 53.6274 56.968C53.4674 56.936 53.3554 56.904 53.2914 56.872C53.2594 56.84 53.1634 56.792 53.0034 56.728C52.8754 56.664 52.7154 56.6 52.5234 56.536C52.3314 56.472 52.1394 56.424 51.9474 56.392C51.7874 56.328 51.6594 56.28 51.5634 56.248C51.4354 56.216 51.2274 56.152 50.9394 56.056C50.6834 55.928 50.3954 55.768 50.0754 55.576C49.7874 55.384 49.4834 55.192 49.1634 55C48.8754 54.776 48.6194 54.552 48.3954 54.328C47.4034 53.464 46.6994 52.776 46.2834 52.264C45.8674 51.72 45.5154 51.08 45.2274 50.344C45.0034 49.704 44.8274 48.952 44.6994 48.088C44.5714 47.224 44.4914 46.328 44.4594 45.4C44.4274 44.472 44.4594 43.56 44.5554 42.664C44.6194 41.736 44.7474 40.92 44.9394 40.216C45.0994 39.64 45.2594 39.048 45.4194 38.44C45.6114 37.832 45.8034 37.24 45.9954 36.664C46.2194 36.088 46.4274 35.56 46.6194 35.08C46.8434 34.6 47.0514 34.2 47.2434 33.88C47.6274 33.144 48.0114 32.472 48.3954 31.864C48.8114 31.224 49.0674 30.888 49.1634 30.856C49.2274 30.824 49.2594 30.76 49.2594 30.664C49.2594 30.568 49.3394 30.408 49.4994 30.184C49.6594 29.96 49.8354 29.736 50.0274 29.512C50.2514 29.256 50.4754 29.032 50.6994 28.84C50.9554 28.648 51.1474 28.52 51.2754 28.456C51.4354 28.392 51.5794 28.312 51.7074 28.216C51.8354 28.12 51.9154 28.04 51.9474 27.976C52.0114 27.848 52.1874 27.656 52.4754 27.4C52.7954 27.144 53.1474 26.872 53.5314 26.584C53.9154 26.296 54.2834 26.04 54.6354 25.816C55.0194 25.56 55.3074 25.416 55.4994 25.384C55.8514 25.288 56.1874 25.24 56.5074 25.24C57.2434 25.24 57.8514 25.432 58.3314 25.816C58.4914 25.976 58.7314 26.152 59.0514 26.344C59.3714 26.504 59.6754 26.664 59.9634 26.824C60.6354 27.144 61.2434 27.544 61.7874 28.024C62.3314 28.472 62.7634 28.984 63.0834 29.56C63.3394 29.976 63.4834 30.296 63.5154 30.52C63.5794 30.744 63.6114 31.128 63.6114 31.672C63.5794 32.536 63.3074 33.544 62.7954 34.696C62.2834 35.816 61.6114 36.936 60.7794 38.056C60.5874 38.344 60.4114 38.616 60.2514 38.872C60.0914 39.096 60.0114 39.24 60.0114 39.304C59.9794 39.336 59.8674 39.464 59.6754 39.688C59.5154 39.88 59.3394 40.104 59.1474 40.36C58.9874 40.584 58.8274 40.792 58.6674 40.984C58.5394 41.176 58.4754 41.288 58.4754 41.32C58.4754 41.448 58.4434 41.512 58.3794 41.512C58.2834 41.512 58.1554 41.672 57.9954 41.992C57.9314 42.152 57.8034 42.36 57.6114 42.616C57.4514 42.872 57.2594 43.128 57.0354 43.384C56.7794 43.608 56.5714 43.816 56.4114 44.008C56.2514 44.168 56.1714 44.264 56.1714 44.296C56.1714 44.36 55.9794 44.584 55.5954 44.968C55.2114 45.352 54.7954 45.768 54.3474 46.216C53.8994 46.664 53.4674 47.064 53.0514 47.416C52.6674 47.768 52.4434 47.944 52.3794 47.944C52.2194 47.944 52.0114 48.008 51.7554 48.136C51.5314 48.232 51.3714 48.328 51.2754 48.424C51.2434 48.456 51.1474 48.52 50.9874 48.616C50.8274 48.712 50.6354 48.824 50.4114 48.952C50.1874 49.08 49.9954 49.208 49.8354 49.336C49.6754 49.432 49.5954 49.496 49.5954 49.528C49.5954 49.624 49.6274 49.816 49.6914 50.104C49.7554 50.392 49.8194 50.712 49.8834 51.064C49.9474 51.384 50.0114 51.704 50.0754 52.024C50.1714 52.312 50.2354 52.504 50.2674 52.6C50.3314 52.856 50.4594 53.016 50.6514 53.08C50.8434 53.144 51.1794 53.176 51.6594 53.176C52.0114 53.176 52.3634 53.192 52.7154 53.224C53.0674 53.224 53.4354 53.192 53.8194 53.128C54.2354 53.064 54.6674 52.936 55.1154 52.744C55.5954 52.552 56.1234 52.248 56.6994 51.832C56.9554 51.672 57.1634 51.544 57.3234 51.448C57.4834 51.32 57.5634 51.272 57.5634 51.304C57.5634 51.368 57.4354 51.528 57.1794 51.784C56.9234 52.04 56.6194 52.296 56.2674 52.552C56.2674 52.552 56.4594 52.424 56.8434 52.168C57.2274 51.912 57.7074 51.576 58.2834 51.16C58.8594 50.744 59.4834 50.296 60.1554 49.816C60.8594 49.304 61.5154 48.824 62.1234 48.376C62.7314 47.928 63.2434 47.512 63.6594 47.128C64.1074 46.744 64.3634 46.472 64.4274 46.312C64.6194 45.96 64.7474 45.784 64.8114 45.784C64.8434 45.784 64.9394 45.688 65.0994 45.496C65.2594 45.272 65.4354 45.016 65.6274 44.728C65.8194 44.44 65.9954 44.2 66.1554 44.008C66.3474 43.784 66.4594 43.672 66.4914 43.672C66.5874 43.672 66.6354 43.592 66.6354 43.432C66.6354 43.336 66.7474 43.144 66.9714 42.856C67.1954 42.568 67.3394 42.424 67.4034 42.424C67.4354 42.424 67.4514 42.44 67.4514 42.472C67.4514 42.536 67.4194 42.648 67.3554 42.808C67.2914 42.968 67.2114 43.128 67.1154 43.288C67.0194 43.416 66.9234 43.544 66.8274 43.672C66.7314 43.768 66.6674 43.816 66.6354 43.816C66.5394 43.816 66.4914 43.96 66.4914 44.248C66.4914 44.504 66.3794 44.68 66.1554 44.776C65.9314 44.84 65.8194 44.904 65.8194 44.968C65.8194 45.032 65.7554 45.176 65.6274 45.4C65.5314 45.592 65.4034 45.816 65.2434 46.072C65.0834 46.296 64.9074 46.536 64.7154 46.792C64.5554 47.016 64.4114 47.192 64.2834 47.32C63.9954 47.608 63.8514 47.8 63.8514 47.896C63.8514 47.928 63.8514 47.992 63.8514 48.088C63.8514 48.184 63.8514 48.28 63.8514 48.376C63.8834 48.44 63.9314 48.488 63.9954 48.52C64.0594 48.52 64.1394 48.456 64.2354 48.328C64.4594 48.072 64.6994 47.8 64.9554 47.512C65.2114 47.192 65.4194 46.952 65.5794 46.792C65.7394 46.632 65.9154 46.408 66.1074 46.12C66.3314 45.832 66.5234 45.56 66.6834 45.304C66.8434 45.048 67.0034 44.808 67.1634 44.584C67.3554 44.36 67.5154 44.184 67.6434 44.056C67.8354 43.896 67.9314 43.752 67.9314 43.624C67.9314 43.56 67.9794 43.464 68.0754 43.336C68.2034 43.176 68.3314 43.016 68.4594 42.856C68.7794 42.536 68.9394 42.312 68.9394 42.184C68.9394 42.088 69.0514 41.864 69.2754 41.512C69.5314 41.16 69.7714 40.808 69.9954 40.456C70.0914 40.36 70.1554 40.264 70.1874 40.168C70.2194 40.072 70.2354 39.992 70.2354 39.928C70.2354 39.768 70.2994 39.688 70.4274 39.688C70.5234 39.688 70.5714 39.624 70.5714 39.496C70.5714 39.432 70.6034 39.352 70.6674 39.256C70.7314 39.16 70.7954 39.048 70.8594 38.92L70.9554 39.016C70.9874 39.144 71.0514 39.272 71.1474 39.4C70.2194 40.936 69.3554 42.296 68.5554 43.48C67.7874 44.664 67.1314 45.576 66.5874 46.216C66.0434 46.792 65.8194 47.128 65.9154 47.224C66.1074 47.256 66.1234 47.432 65.9634 47.752L65.8194 48.184L66.2034 47.752C66.4914 47.56 66.6354 47.368 66.6354 47.176C66.6354 47.048 66.7634 46.952 67.0194 46.888C67.2434 46.76 67.4194 46.584 67.5474 46.36C67.6114 46.296 67.7554 46.056 67.9794 45.64C68.2354 45.224 68.5234 44.776 68.8434 44.296C69.1954 43.848 69.4994 43.416 69.7554 43C70.0114 42.552 70.1714 42.248 70.2354 42.088C70.3314 41.928 70.4434 41.736 70.5714 41.512C70.7314 41.288 70.8914 41.064 71.0514 40.84C71.1154 40.712 71.2114 40.552 71.3394 40.36C71.4034 40.904 71.3874 41.368 71.2914 41.752ZM69.0354 40.024C68.9714 40.152 68.9874 40.28 69.0834 40.408C69.0834 40.568 68.9874 40.68 68.7954 40.744C68.5714 40.808 68.4594 40.936 68.4594 41.128C68.4594 41.288 68.3954 41.368 68.2674 41.368C68.1714 41.368 68.1234 41.48 68.1234 41.704C68.1234 41.992 68.0114 42.136 67.7874 42.136C67.6274 42.136 67.5474 42.12 67.5474 42.088C67.5474 42.056 67.5794 41.96 67.6434 41.8C67.7074 41.704 67.8194 41.528 67.9794 41.272C68.1714 40.984 68.3634 40.696 68.5554 40.408C68.6194 40.344 68.6674 40.28 68.6994 40.216C68.7314 40.152 68.7794 40.088 68.8434 40.024H69.0354ZM53.6274 44.488C53.9154 44.2 54.0594 44.04 54.0594 44.008C54.0594 43.944 53.9634 43.976 53.7714 44.104C53.6114 44.232 53.4994 44.376 53.4354 44.536C53.3394 44.696 53.2914 44.776 53.2914 44.776C53.3234 44.776 53.4354 44.68 53.6274 44.488ZM54.3954 43.72C54.4914 43.656 54.5394 43.608 54.5394 43.576C54.5394 43.512 54.4914 43.48 54.3954 43.48C54.2674 43.48 54.2034 43.544 54.2034 43.672C54.2034 43.768 54.2674 43.784 54.3954 43.72ZM50.1714 41.848C50.0754 42.008 49.9794 42.264 49.8834 42.616C49.8194 42.968 49.7554 43.336 49.6914 43.72C49.6274 44.104 49.5794 44.488 49.5474 44.872C49.5154 45.224 49.5154 45.512 49.5474 45.736C49.5794 46.216 49.5954 46.488 49.5954 46.552C49.5954 46.584 49.6594 46.6 49.7874 46.6C49.8834 46.6 49.8994 46.488 49.8354 46.264C49.8034 45.976 49.8674 45.832 50.0274 45.832C50.0914 45.832 50.2034 45.784 50.3634 45.688C50.5234 45.592 50.6834 45.48 50.8434 45.352C51.0034 45.224 51.1314 45.096 51.2274 44.968C51.3554 44.84 51.4194 44.744 51.4194 44.68C51.4194 44.584 51.4994 44.504 51.6594 44.44C51.7874 44.376 51.8514 44.248 51.8514 44.056C51.7874 43.896 51.8034 43.816 51.8994 43.816C51.9634 43.816 52.0434 43.768 52.1394 43.672C52.2674 43.544 52.3954 43.416 52.5234 43.288C52.6834 43.16 52.8114 43.032 52.9074 42.904C53.0034 42.744 53.0514 42.648 53.0514 42.616C53.0514 42.488 53.2434 42.264 53.6274 41.944C54.0754 41.432 54.3634 41.096 54.4914 40.936C54.6194 40.744 54.6834 40.6 54.6834 40.504C54.6834 40.44 54.7154 40.36 54.7794 40.264C54.8754 40.168 54.9554 40.056 55.0194 39.928C55.1794 39.768 55.4834 39.384 55.9314 38.776C56.3794 38.168 57.1314 37.064 58.1874 35.464C58.6034 34.856 58.8594 34.408 58.9554 34.12C59.0834 33.8 59.0194 33.72 58.7634 33.88C58.6994 33.944 58.6674 33.96 58.6674 33.928C58.6674 33.896 58.6994 33.848 58.7634 33.784C58.8274 33.688 58.9074 33.496 59.0034 33.208C59.1314 32.92 59.2434 32.6 59.3394 32.248C59.4674 31.864 59.5794 31.48 59.6754 31.096C59.7714 30.712 59.8354 30.376 59.8674 30.088C59.9314 29.736 59.8994 29.336 59.7714 28.888C59.6434 28.408 59.4994 28.168 59.3394 28.168C59.3074 28.168 59.2114 28.264 59.0514 28.456C58.8914 28.616 58.6834 28.824 58.4274 29.08C58.2354 29.336 58.0114 29.592 57.7554 29.848C57.4994 30.104 57.2914 30.296 57.1314 30.424C56.9714 30.52 56.7794 30.664 56.5554 30.856C56.3314 31.016 56.1394 31.176 55.9794 31.336C55.8194 31.496 55.6594 31.64 55.4994 31.768C55.3714 31.896 55.2914 31.96 55.2594 31.96C55.1314 31.96 55.0354 32.072 54.9714 32.296C54.9394 32.392 54.8434 32.552 54.6834 32.776C54.5234 33 54.3474 33.24 54.1554 33.496C53.6114 34.136 53.2274 34.632 53.0034 34.984C52.8114 35.336 52.6354 35.736 52.4754 36.184C52.4114 36.408 52.3314 36.648 52.2354 36.904C52.1394 37.128 52.0594 37.32 51.9954 37.48C51.9634 37.576 51.8514 37.816 51.6594 38.2C51.4994 38.584 51.3234 38.984 51.1314 39.4C50.9394 39.816 50.7634 40.2 50.6034 40.552C50.4754 40.904 50.4114 41.112 50.4114 41.176C50.4114 41.24 50.3954 41.336 50.3634 41.464C50.3314 41.592 50.2674 41.72 50.1714 41.848ZM54.8754 43C54.9714 43 55.0194 42.936 55.0194 42.808C55.0194 42.744 54.9714 42.728 54.8754 42.76C54.7794 42.824 54.7314 42.888 54.7314 42.952C54.7314 42.984 54.7794 43 54.8754 43ZM55.6914 41.848C55.8194 41.848 55.8834 41.784 55.8834 41.656C55.8834 41.592 55.8194 41.576 55.6914 41.608C55.5954 41.672 55.5474 41.736 55.5474 41.8C55.5474 41.832 55.5954 41.848 55.6914 41.848ZM57.0834 39.928C57.1154 39.8 57.0994 39.752 57.0354 39.784C56.9074 39.848 56.8434 39.928 56.8434 40.024C56.8434 40.152 56.8594 40.216 56.8914 40.216C56.9554 40.184 57.0194 40.088 57.0834 39.928ZM69.3714 39.688C69.4354 39.624 69.4674 39.576 69.4674 39.544C69.4994 39.512 69.5474 39.464 69.6114 39.4C69.6114 39.592 69.5314 39.688 69.3714 39.688ZM72.7895 57.4C72.5975 57.336 72.3895 57.272 72.1655 57.208C71.9735 57.112 71.7975 57.048 71.6375 57.016C71.4775 56.984 71.3015 56.936 71.1095 56.872C70.9495 56.776 70.8055 56.696 70.6775 56.632C70.5495 56.536 70.4055 56.456 70.2455 56.392C70.0855 56.328 69.9415 56.28 69.8135 56.248C69.5575 56.184 69.2695 56.04 68.9495 55.816C68.6295 55.56 68.4375 55.352 68.3735 55.192C68.3095 55.128 68.2615 55.048 68.2295 54.952C68.1975 54.856 68.1495 54.776 68.0855 54.712C67.8295 54.456 67.6535 54.008 67.5575 53.368C67.4615 52.728 67.4455 51.672 67.5095 50.2C67.5415 49.4 67.5575 48.648 67.5575 47.944C67.5575 47.24 67.5735 46.792 67.6055 46.6C67.6695 46.408 67.7175 46.168 67.7495 45.88C67.7495 45.56 67.7655 45.288 67.7975 45.064C67.8295 44.84 67.8615 44.568 67.8935 44.248C67.9255 43.928 67.9575 43.656 67.9895 43.432C68.0535 43.176 68.1015 42.872 68.1335 42.52C68.1975 42.136 68.2455 41.8 68.2775 41.512C68.3415 41.192 68.4055 40.856 68.4695 40.504C68.5335 40.152 68.5815 39.88 68.6135 39.688C68.6775 39.496 68.7255 39.304 68.7575 39.112C68.7895 38.888 68.8055 38.744 68.8055 38.68C68.9655 37.912 69.1095 37.224 69.2375 36.616C69.3335 36.104 69.4295 35.64 69.5255 35.224C69.6215 34.776 69.6695 34.52 69.6695 34.456C69.7015 34.328 69.7175 34.2 69.7175 34.072C69.7495 33.912 69.7975 33.768 69.8615 33.64C69.8615 33.512 69.8775 33.384 69.9095 33.256C69.9415 33.128 69.9575 33.032 69.9575 32.968C69.9895 32.872 70.0375 32.6 70.1015 32.152C70.1975 31.672 70.2775 31.272 70.3415 30.952C70.3735 30.888 70.3895 30.808 70.3895 30.712C70.4215 30.616 70.4535 30.52 70.4855 30.424C70.5495 30.36 70.5815 30.28 70.5815 30.184C70.6135 30.056 70.6455 29.96 70.6775 29.896C70.7095 29.832 70.7255 29.72 70.7255 29.56C70.7575 29.4 70.8055 29.24 70.8695 29.08C70.9335 28.92 70.9815 28.776 71.0135 28.648C71.0455 28.488 71.0615 28.376 71.0615 28.312C71.0295 28.248 71.0615 28.168 71.1575 28.072C71.2855 28.008 71.3495 27.864 71.3495 27.64C71.3495 27.416 71.2695 27.336 71.1095 27.4C70.9495 27.464 70.8695 27.4 70.8695 27.208C70.8695 27.048 70.9655 26.968 71.1575 26.968C71.3815 26.968 71.4935 26.92 71.4935 26.824C71.4935 26.696 71.4295 26.664 71.3015 26.728C71.2055 26.728 71.1575 26.664 71.1575 26.536C71.1895 26.472 71.2215 26.376 71.2535 26.248C71.2855 26.088 71.3335 25.928 71.3975 25.768C71.4935 25.416 71.6215 25.24 71.7815 25.24C71.8455 25.24 71.9415 25.208 72.0695 25.144C72.1975 25.08 72.3415 25.016 72.5015 24.952C72.9175 24.696 73.3975 24.568 73.9415 24.568C74.2935 24.568 74.6295 24.648 74.9495 24.808C75.1095 24.872 75.2535 24.936 75.3815 25C75.5415 25.064 75.6535 25.096 75.7175 25.096C75.8775 25.096 76.1975 25.288 76.6775 25.672C77.0935 26.056 77.3175 26.36 77.3495 26.584C77.4135 26.776 77.3015 27.112 77.0135 27.592C76.6295 28.328 76.2775 29.112 75.9575 29.944C75.6695 30.744 75.4775 31.56 75.3815 32.392C75.2535 32.808 75.0935 33.384 74.9015 34.12C74.7415 34.824 74.6295 35.384 74.5655 35.8C74.5335 35.96 74.4855 36.216 74.4215 36.568C74.3575 36.92 74.2775 37.256 74.1815 37.576C74.1175 37.864 74.0535 38.152 73.9895 38.44C73.9575 38.728 73.9575 38.904 73.9895 38.968C74.0215 39.032 74.0215 39.112 73.9895 39.208C73.9895 39.304 73.9735 39.352 73.9415 39.352C73.8135 39.416 73.7815 39.48 73.8455 39.544C73.8775 39.608 73.8615 39.784 73.7975 40.072C73.7655 40.36 73.6855 40.696 73.5575 41.08C73.4615 41.432 73.3655 41.832 73.2695 42.28C73.2055 42.728 73.1575 43.08 73.1255 43.336C73.0615 43.816 72.9975 44.296 72.9335 44.776C72.9015 45.256 72.8535 45.72 72.7895 46.168C72.7895 46.328 72.7735 46.472 72.7415 46.6C72.7415 46.728 72.7415 46.84 72.7415 46.936C72.7095 47.064 72.6775 47.192 72.6455 47.32C72.5175 47.384 72.5175 47.528 72.6455 47.752C72.7095 47.944 72.7095 48.152 72.6455 48.376C72.5815 48.536 72.5495 48.952 72.5495 49.624C72.5495 50.296 72.5655 51 72.5975 51.736C72.6615 52.472 72.7255 53.128 72.7895 53.704C72.8855 54.28 72.9655 54.568 73.0295 54.568C73.1255 54.568 73.3015 54.504 73.5575 54.376C73.8135 54.216 74.0695 54.04 74.3255 53.848C74.6135 53.624 74.8855 53.4 75.1415 53.176C75.3975 52.952 75.5735 52.76 75.6695 52.6C75.8615 52.312 76.0055 52.216 76.1015 52.312C76.1655 52.408 76.2615 52.392 76.3895 52.264C76.5495 52.104 76.7895 51.784 77.1095 51.304C77.2695 51.112 77.4295 50.888 77.5895 50.632C77.7815 50.376 77.9415 50.168 78.0695 50.008C78.4535 49.56 78.6935 49.224 78.7895 49C78.9175 48.776 78.9175 48.632 78.7895 48.568C78.6615 48.472 78.7095 48.408 78.9335 48.376C79.1255 48.312 79.3015 48.152 79.4615 47.896C79.6215 47.608 79.6695 47.352 79.6055 47.128C79.5735 46.936 79.6695 46.808 79.8935 46.744C80.0535 46.68 80.1815 46.584 80.2775 46.456C80.4055 46.296 80.4055 46.216 80.2775 46.216C80.1815 46.216 80.1335 46.168 80.1335 46.072C80.1335 45.944 80.1975 45.912 80.3255 45.976C80.4535 45.976 80.5975 45.816 80.7575 45.496C80.9495 45.176 81.0135 44.936 80.9495 44.776C80.9175 44.68 80.9495 44.632 81.0455 44.632C81.1095 44.632 81.2215 44.504 81.3815 44.248C81.5735 43.96 81.7495 43.64 81.9095 43.288C82.1015 42.904 82.2615 42.552 82.3895 42.232C82.5175 41.912 82.5815 41.704 82.5815 41.608C82.5815 41.48 82.6295 41.416 82.7255 41.416C82.8535 41.416 82.8855 41.368 82.8215 41.272C82.8215 41.208 82.8535 41.112 82.9175 40.984C82.9815 40.856 83.0455 40.712 83.1095 40.552C83.6535 39.496 84.0055 38.76 84.1655 38.344C84.3575 37.896 84.5015 37.544 84.5975 37.288C84.7575 36.872 84.8695 36.632 84.9335 36.568C84.9975 36.504 85.0295 36.392 85.0295 36.232C85.0295 36.168 85.0455 36.088 85.0775 35.992C85.1415 35.864 85.2055 35.768 85.2695 35.704C85.3335 35.608 85.3815 35.48 85.4135 35.32C85.4455 35.16 85.4935 35 85.5575 34.84C85.6215 34.456 85.6855 34.232 85.7495 34.168C85.7815 34.168 85.8455 34.04 85.9415 33.784C86.0375 33.528 86.1335 33.224 86.2295 32.872C86.3575 32.52 86.4695 32.152 86.5655 31.768C86.6935 31.384 86.7895 31.08 86.8535 30.856C86.8535 30.792 86.8855 30.648 86.9495 30.424C87.0455 30.2 87.1255 29.976 87.1895 29.752C87.3175 29.336 87.4775 28.728 87.6695 27.928C87.8615 27.096 88.0375 26.216 88.1975 25.288C88.2935 24.872 88.3415 24.44 88.3415 23.992C88.3735 23.544 88.3575 23.128 88.2935 22.744C88.2615 22.36 88.1975 22.04 88.1015 21.784C88.0055 21.496 87.8935 21.32 87.7655 21.256C87.6695 21.16 87.4935 21.08 87.2375 21.016C86.9815 20.888 86.7895 20.824 86.6615 20.824C86.5015 20.824 86.3575 20.792 86.2295 20.728C86.1655 20.632 86.0055 20.632 85.7495 20.728C85.6855 20.792 85.6055 20.824 85.5095 20.824C85.4455 20.824 85.3975 20.824 85.3655 20.824C85.3335 20.792 85.3815 20.728 85.5095 20.632C85.6695 20.536 85.8615 20.424 86.0855 20.296C86.6615 20.04 87.1735 19.912 87.6215 19.912C87.8775 19.912 88.2135 19.96 88.6295 20.056C89.0455 20.152 89.4615 20.28 89.8775 20.44C90.3255 20.568 90.7255 20.728 91.0775 20.92C91.4295 21.112 91.6535 21.304 91.7495 21.496C92.0055 22.04 92.1335 22.776 92.1335 23.704C92.1655 24.6 92.0695 25.464 91.8455 26.296C91.7815 26.584 91.7175 26.872 91.6535 27.16C91.5895 27.416 91.5575 27.576 91.5575 27.64C91.5575 27.736 91.5255 27.88 91.4615 28.072C91.4295 28.264 91.3815 28.472 91.3175 28.696C91.2535 28.888 91.1575 29.192 91.0295 29.608C90.9015 30.024 90.7895 30.44 90.6935 30.856C90.5655 31.24 90.4535 31.592 90.3575 31.912C90.2615 32.232 90.1975 32.424 90.1655 32.488C90.1335 32.552 90.1015 32.68 90.0695 32.872C90.0695 33.032 90.0535 33.208 90.0215 33.4C90.0215 33.592 89.9415 33.96 89.7815 34.504C89.6215 35.016 89.4455 35.608 89.2535 36.28C89.0615 36.92 88.8535 37.56 88.6295 38.2C88.4055 38.808 88.2135 39.288 88.0535 39.64C87.9255 39.896 87.8135 40.12 87.7175 40.312C87.6535 40.504 87.6215 40.616 87.6215 40.648C87.6215 40.712 87.5895 40.808 87.5255 40.936C87.4615 41.064 87.3975 41.208 87.3335 41.368C87.2695 41.56 87.1895 41.752 87.0935 41.944C86.9975 42.136 86.9175 42.296 86.8535 42.424C86.7895 42.552 86.7095 42.728 86.6135 42.952C86.5175 43.144 86.4215 43.336 86.3255 43.528C86.2615 43.752 86.1655 43.992 86.0375 44.248C85.9095 44.472 85.8135 44.664 85.7495 44.824C85.6215 45.08 85.4775 45.4 85.3175 45.784C85.1575 46.136 84.9815 46.488 84.7895 46.84C84.6295 47.192 84.4855 47.528 84.3575 47.848C84.2295 48.136 84.1495 48.328 84.1175 48.424C84.0535 48.648 83.8935 49.016 83.6375 49.528C83.3815 50.008 83.0775 50.52 82.7255 51.064C82.6295 51.224 82.5015 51.432 82.3415 51.688C82.2135 51.912 82.0855 52.12 81.9575 52.312C81.5735 52.952 81.1095 53.608 80.5655 54.28C80.0215 54.92 79.4295 55.496 78.7895 56.008C78.1495 56.52 77.4455 56.936 76.6775 57.256C75.9415 57.576 75.1575 57.736 74.3255 57.736C73.7495 57.736 73.2375 57.624 72.7895 57.4ZM68.9015 48.616C68.8695 48.552 68.7895 48.584 68.6615 48.712C68.5015 48.872 68.4855 49.064 68.6135 49.288L68.8055 49.672L68.8535 49.144C68.8855 49.016 68.9015 48.904 68.9015 48.808C68.9335 48.68 68.9335 48.616 68.9015 48.616ZM68.9495 47.704C68.8855 47.64 68.8535 47.688 68.8535 47.848C68.8855 47.976 68.9335 48.008 68.9975 47.944C68.9975 47.816 68.9815 47.736 68.9495 47.704ZM69.1415 45.928C69.1415 45.832 69.0935 45.784 68.9975 45.784C68.9015 45.784 68.8535 45.832 68.8535 45.928C68.8535 46.024 68.9015 46.072 68.9975 46.072C69.0935 46.072 69.1415 46.024 69.1415 45.928ZM69.0935 42.376C69.0295 42.376 68.9975 42.44 68.9975 42.568C69.0295 42.696 69.0775 42.728 69.1415 42.664C69.1415 42.504 69.1255 42.408 69.0935 42.376ZM69.4295 43.48C69.4295 43.32 69.4135 43.208 69.3815 43.144C69.3815 43.048 69.3655 43.032 69.3335 43.096C69.3015 43.224 69.2215 43.24 69.0935 43.144C68.9335 43.016 68.8535 43.128 68.8535 43.48C68.8535 43.832 68.9175 43.96 69.0455 43.864C69.1415 43.8 69.1735 43.944 69.1415 44.296C69.0455 44.648 69.0455 44.856 69.1415 44.92C69.2055 44.92 69.2695 44.776 69.3335 44.488C69.3975 44.168 69.4295 43.832 69.4295 43.48ZM69.2855 45.208C69.2855 45.176 69.2375 45.16 69.1415 45.16C69.0455 45.16 68.9975 45.192 68.9975 45.256C68.9975 45.32 69.0455 45.352 69.1415 45.352C69.2375 45.288 69.2855 45.24 69.2855 45.208ZM69.4295 40.408L69.2855 40.744C69.2215 41 69.1895 41.208 69.1895 41.368V41.608L69.2855 41.368C69.3815 41.208 69.4295 41 69.4295 40.744V40.408ZM69.5255 50.536C69.4935 50.312 69.4615 50.136 69.4295 50.008C69.3975 49.848 69.3655 49.784 69.3335 49.816C69.3015 49.848 69.3175 50.12 69.3815 50.632C69.4455 51.144 69.5095 51.368 69.5735 51.304C69.5735 51.24 69.5735 51.16 69.5735 51.064C69.5735 50.84 69.5575 50.664 69.5255 50.536ZM69.5735 52.168C69.4775 52.008 69.4295 52.072 69.4295 52.36C69.4295 52.584 69.4615 52.728 69.5255 52.792C69.6215 52.824 69.6855 52.76 69.7175 52.6C69.7175 52.344 69.6695 52.2 69.5735 52.168ZM69.7175 41.992C69.7175 41.864 69.6695 41.8 69.5735 41.8C69.5095 41.8 69.4455 41.928 69.3815 42.184C69.3495 42.44 69.3655 42.6 69.4295 42.664C69.4935 42.728 69.5575 42.68 69.6215 42.52C69.6855 42.328 69.7175 42.152 69.7175 41.992ZM69.8135 41.416C69.7175 41.32 69.6695 41.272 69.6695 41.272C69.6055 41.272 69.5735 41.32 69.5735 41.416C69.5735 41.512 69.6215 41.56 69.7175 41.56C69.8455 41.56 69.8775 41.512 69.8135 41.416ZM69.5735 49.048C69.6695 48.952 69.7175 48.696 69.7175 48.28C69.7175 48.056 69.7335 47.72 69.7655 47.272C69.8295 46.792 69.8935 46.312 69.9575 45.832C70.0215 45.352 70.0695 44.936 70.1015 44.584C70.1655 44.2 70.2135 43.992 70.2455 43.96C70.3095 43.832 70.2775 43.768 70.1495 43.768C70.0535 43.672 70.0535 43.592 70.1495 43.528C70.1815 43.464 70.2135 43.384 70.2455 43.288C70.2775 43.192 70.2935 43.096 70.2935 43C70.2935 42.936 70.2935 42.776 70.2935 42.52C70.3255 42.232 70.3735 41.96 70.4375 41.704C70.5975 40.776 70.6775 40.168 70.6775 39.88C70.6775 39.592 70.6455 39.4 70.5815 39.304C70.4535 39.144 70.4215 39.192 70.4855 39.448C70.5175 39.544 70.5335 39.64 70.5335 39.736C70.5335 39.832 70.5015 39.88 70.4375 39.88C70.3735 39.944 70.3095 40.136 70.2455 40.456C70.1815 40.776 70.1335 41.128 70.1015 41.512C70.0695 41.608 70.0375 41.8 70.0055 42.088C69.9735 42.376 69.9255 42.648 69.8615 42.904C69.7975 43.384 69.7175 44.04 69.6215 44.872C69.5575 45.672 69.4935 46.456 69.4295 47.224C69.3655 47.96 69.3335 48.568 69.3335 49.048C69.3335 49.496 69.3655 49.624 69.4295 49.432C69.4295 49.368 69.4455 49.304 69.4775 49.24C69.5095 49.176 69.5415 49.112 69.5735 49.048ZM71.9255 54.76C71.8935 54.504 71.8615 54.12 71.8295 53.608C71.7975 53.064 71.7655 52.52 71.7335 51.976C71.7335 51.4 71.7175 50.872 71.6855 50.392C71.6855 49.912 71.6855 49.592 71.6855 49.432C71.7495 48.216 71.8135 47.208 71.8775 46.408C71.9415 45.608 72.0055 45.112 72.0695 44.92C72.1335 44.6 72.1815 44.216 72.2135 43.768C72.2775 43.32 72.2775 43.096 72.2135 43.096C72.1495 43.128 72.0695 43.336 71.9735 43.72C71.8775 44.072 71.8455 44.296 71.8775 44.392C71.9095 44.424 71.8935 44.52 71.8295 44.68C71.7975 44.84 71.7495 45 71.6855 45.16C71.6215 45.384 71.5735 45.608 71.5415 45.832C71.5095 46.056 71.4935 46.248 71.4935 46.408C71.4935 46.568 71.4935 46.872 71.4935 47.32C71.4935 47.736 71.4615 48.184 71.3975 48.664C71.3335 49.944 71.3015 50.984 71.3015 51.784C71.3335 52.584 71.3975 53.208 71.4935 53.656C71.5575 53.848 71.5895 54.056 71.5895 54.28C71.6215 54.472 71.6375 54.616 71.6375 54.712C71.6375 54.968 71.6855 55.08 71.7815 55.048C71.9415 55.048 71.9895 54.952 71.9255 54.76ZM79.7015 49.192C79.7015 49.096 79.6535 49.048 79.5575 49.048C79.4935 49.08 79.4615 49.144 79.4615 49.24C79.6215 49.464 79.7015 49.448 79.7015 49.192ZM80.2775 48.328C80.2775 48.232 80.2295 48.184 80.1335 48.184C80.0375 48.184 79.9895 48.232 79.9895 48.328C79.9895 48.424 80.0375 48.472 80.1335 48.472C80.2295 48.472 80.2775 48.424 80.2775 48.328ZM80.5655 47.56C80.5655 47.368 80.5015 47.384 80.3735 47.608C80.2135 47.768 80.1335 47.896 80.1335 47.992C80.1335 48.056 80.2135 48.04 80.3735 47.944C80.5015 47.816 80.5655 47.688 80.5655 47.56ZM70.9655 37.96C70.9655 37.896 70.9655 37.784 70.9655 37.624C70.9975 37.432 71.0455 37.272 71.1095 37.144C71.1735 36.824 71.1575 36.664 71.0615 36.664C71.0295 36.664 70.9815 36.76 70.9175 36.952C70.8855 37.144 70.8375 37.368 70.7735 37.624C70.7415 37.88 70.6935 38.136 70.6295 38.392C70.5975 38.648 70.5815 38.824 70.5815 38.92C70.6135 39.016 70.6615 38.952 70.7255 38.728C70.8215 38.472 70.9015 38.216 70.9655 37.96ZM71.3975 35.848C71.4615 35.688 71.4775 35.608 71.4455 35.608C71.4455 35.576 71.3815 35.64 71.2535 35.8C71.1895 35.864 71.1255 35.944 71.0615 36.04C71.0295 36.104 71.0135 36.168 71.0135 36.232C71.0135 36.392 71.0615 36.424 71.1575 36.328C71.2535 36.2 71.3335 36.04 71.3975 35.848ZM71.4935 34.936C71.5895 34.584 71.5895 34.488 71.4935 34.648C71.3975 34.744 71.3495 34.92 71.3495 35.176C71.3495 35.528 71.3975 35.448 71.4935 34.936ZM71.6855 26.296C71.5575 26.136 71.4935 26.152 71.4935 26.344C71.4935 26.472 71.5415 26.52 71.6375 26.488C71.7335 26.392 71.7495 26.328 71.6855 26.296ZM81.5255 46.312C81.6855 46.056 81.8455 45.736 82.0055 45.352C82.1975 44.968 82.3735 44.632 82.5335 44.344C82.6615 44.088 82.8375 43.72 83.0615 43.24C83.3175 42.728 83.5735 42.248 83.8295 41.8C84.0535 41.352 84.2295 40.984 84.3575 40.696C84.5175 40.376 84.5975 40.184 84.5975 40.12C84.5975 40.056 84.6615 39.88 84.7895 39.592C84.9495 39.304 85.1255 38.936 85.3175 38.488C85.5415 38.104 85.7175 37.752 85.8455 37.432C85.9735 37.112 86.0375 36.92 86.0375 36.856C86.0375 36.792 86.0695 36.664 86.1335 36.472C86.2295 36.248 86.3415 35.992 86.4695 35.704C86.5975 35.448 86.7255 35.144 86.8535 34.792C86.9815 34.44 87.0775 34.152 87.1415 33.928C87.2055 33.704 87.2695 33.496 87.3335 33.304C87.3975 33.08 87.4455 32.936 87.4775 32.872C87.5735 32.776 87.6215 32.6 87.6215 32.344C87.6215 32.28 87.6375 32.216 87.6695 32.152C87.7015 32.056 87.7335 31.976 87.7655 31.912C87.7975 31.88 87.8455 31.768 87.9095 31.576C88.0055 31.352 88.1015 31.096 88.1975 30.808C88.2935 30.52 88.3735 30.232 88.4375 29.944C88.5015 29.656 88.5495 29.416 88.5815 29.224C88.6135 29.064 88.6455 28.888 88.6775 28.696C88.7415 28.504 88.8055 28.344 88.8695 28.216C88.9335 28.088 88.9815 27.928 89.0135 27.736C89.0775 27.512 89.1095 27.288 89.1095 27.064C89.1735 26.84 89.2055 26.648 89.2055 26.488C89.2375 26.296 89.2695 26.184 89.3015 26.152C89.4615 25.928 89.5415 25.128 89.5415 23.752C89.5415 23.176 89.4775 22.712 89.3495 22.36C89.2535 21.976 89.1255 21.784 88.9655 21.784C88.7095 21.784 88.7415 21.896 89.0615 22.12C89.1895 22.248 89.2055 22.36 89.1095 22.456C89.0135 22.52 88.9335 22.664 88.8695 22.888C88.8375 23.112 88.8055 23.496 88.7735 24.04C88.7095 24.424 88.6455 24.84 88.5815 25.288C88.5495 25.736 88.5015 26.088 88.4375 26.344C88.3735 26.6 88.2935 26.92 88.1975 27.304C88.1335 27.688 88.0695 28.024 88.0055 28.312C87.9415 28.6 87.8775 28.888 87.8135 29.176C87.7495 29.464 87.6855 29.656 87.6215 29.752C87.5895 29.88 87.5255 30.088 87.4295 30.376C87.3655 30.632 87.2855 30.888 87.1895 31.144C87.1255 31.4 87.0295 31.752 86.9015 32.2C86.7735 32.648 86.6295 33.048 86.4695 33.4C86.3735 33.752 86.2775 34.104 86.1815 34.456C86.0855 34.776 86.0215 34.984 85.9895 35.08C85.9255 35.176 85.8775 35.272 85.8455 35.368C85.8135 35.464 85.7655 35.528 85.7015 35.56C85.6375 35.624 85.5735 35.704 85.5095 35.8C85.4775 35.896 85.4615 35.992 85.4615 36.088C85.4615 36.28 85.4135 36.456 85.3175 36.616C84.8055 38.056 84.2135 39.464 83.5415 40.84C83.3175 41.288 83.0935 41.752 82.8695 42.232C82.6455 42.68 82.4855 43.032 82.3895 43.288C82.2615 43.544 82.1175 43.848 81.9575 44.2C81.7975 44.552 81.6535 44.856 81.5255 45.112C81.3655 45.368 81.2215 45.624 81.0935 45.88C80.9975 46.136 80.9495 46.312 80.9495 46.408C80.8855 46.472 80.8375 46.552 80.8055 46.648C80.8055 46.712 80.7735 46.76 80.7095 46.792C80.6135 46.856 80.5655 46.952 80.5655 47.08C80.5655 47.208 80.6455 47.272 80.8055 47.272C80.8695 47.272 80.9655 47.176 81.0935 46.984C81.2215 46.792 81.3655 46.568 81.5255 46.312ZM81.2855 49.048C81.5095 48.664 81.6535 48.44 81.7175 48.376C81.7815 48.376 81.8935 48.232 82.0535 47.944C82.2135 47.656 82.3895 47.336 82.5815 46.984C82.7735 46.6 82.9495 46.264 83.1095 45.976C83.3015 45.656 83.4135 45.464 83.4455 45.4C83.5095 45.272 83.6055 45.08 83.7335 44.824C83.8935 44.536 84.0535 44.232 84.2135 43.912C84.3735 43.592 84.5175 43.288 84.6455 43C84.7735 42.712 84.8535 42.504 84.8855 42.376C84.9495 42.216 85.0295 42.04 85.1255 41.848C85.2215 41.656 85.3015 41.496 85.3655 41.368C85.5255 41.208 85.6055 41.048 85.6055 40.888C85.6055 40.824 85.6695 40.664 85.7975 40.408C85.9255 40.12 86.1975 39.592 86.6135 38.824C86.6775 38.664 86.7415 38.504 86.8055 38.344C86.8695 38.152 86.9015 38.024 86.9015 37.96C86.9015 37.832 86.9815 37.576 87.1415 37.192C87.3335 36.808 87.5575 36.392 87.8135 35.944C87.8775 35.752 87.9095 35.576 87.9095 35.416C87.9095 35.32 87.9255 35.24 87.9575 35.176C88.0215 35.08 88.0855 35 88.1495 34.936C88.2775 34.808 88.3735 34.552 88.4375 34.168C88.5015 33.912 88.5335 33.768 88.5335 33.736C88.5655 33.672 88.5975 33.608 88.6295 33.544C88.7255 33.48 88.7735 33.368 88.7735 33.208C88.7735 32.984 88.8535 32.872 89.0135 32.872C89.1415 32.744 89.1735 32.648 89.1095 32.584C89.1095 32.52 89.1255 32.376 89.1575 32.152C89.1895 31.896 89.2375 31.64 89.3015 31.384C89.3655 31.128 89.4295 30.888 89.4935 30.664C89.5895 30.408 89.6535 30.248 89.6855 30.184C89.7495 30.12 89.7975 29.976 89.8295 29.752C89.8615 29.496 89.9255 29.064 90.0215 28.456C90.0535 28.296 90.0855 28.12 90.1175 27.928C90.1495 27.704 90.1975 27.512 90.2615 27.352C90.5175 26.2 90.6775 25.272 90.7415 24.568C90.8055 23.864 90.7735 23.288 90.6455 22.84C90.5815 22.648 90.5175 22.488 90.4535 22.36C90.4215 22.2 90.3735 22.12 90.3095 22.12C90.2135 22.12 90.1655 22.328 90.1655 22.744C90.0695 24.024 89.8775 25.368 89.5895 26.776C89.3335 28.184 89.0135 29.592 88.6295 31C88.2455 32.376 87.7975 33.736 87.2855 35.08C86.8055 36.392 86.2935 37.624 85.7495 38.776C85.6535 38.968 85.5575 39.176 85.4615 39.4C85.3655 39.592 85.3015 39.736 85.2695 39.832C85.2375 39.96 85.0615 40.36 84.7415 41.032C84.4215 41.672 84.0535 42.408 83.6375 43.24C83.2535 44.04 82.8535 44.84 82.4375 45.64C82.0535 46.44 81.7495 47.048 81.5255 47.464C81.3015 47.88 81.0935 48.28 80.9015 48.664C80.7415 49.016 80.6455 49.256 80.6135 49.384C80.5815 49.544 80.5495 49.688 80.5175 49.816C80.4855 49.944 80.4375 50.04 80.3735 50.104C80.3415 50.2 80.3415 50.232 80.3735 50.2C80.4055 50.168 80.5015 50.104 80.6615 50.008C80.7575 49.88 80.8695 49.736 80.9975 49.576C81.1255 49.384 81.2215 49.208 81.2855 49.048ZM95.9034 55.576C95.9034 55.512 95.7754 55.48 95.5194 55.48C94.6874 55.352 94.2074 55.192 94.0794 55C93.9194 54.84 93.8074 54.76 93.7434 54.76C93.6794 54.76 93.4714 54.648 93.1194 54.424C92.9914 54.328 92.8634 54.248 92.7354 54.184C92.6394 54.088 92.5754 54.04 92.5434 54.04C92.4154 54.04 92.1114 53.768 91.6314 53.224C91.3754 52.968 91.1514 52.744 90.9594 52.552C90.7354 52.36 90.5914 52.232 90.5274 52.168C90.1114 51.784 89.7754 51.224 89.5194 50.488C89.2634 49.72 89.1674 49.016 89.2314 48.376C89.3274 47.736 89.4554 47.016 89.6154 46.216C89.7434 45.384 89.8874 44.744 90.0474 44.296C90.1114 44.04 90.2074 43.736 90.3354 43.384C90.4314 43 90.5274 42.664 90.6234 42.376C90.9114 41.416 91.1514 40.616 91.3434 39.976C91.5674 39.304 91.8074 38.648 92.0634 38.008C92.4474 36.984 92.7994 36.072 93.1194 35.272C93.4714 34.44 93.7274 33.848 93.8874 33.496C94.1114 32.984 94.2234 32.68 94.2234 32.584C94.2234 32.52 94.2554 32.456 94.3194 32.392C94.4154 32.296 94.4954 32.2 94.5594 32.104C94.8154 31.912 94.9434 31.704 94.9434 31.48C94.9434 31.128 95.3914 31.16 96.2874 31.576C96.4794 31.704 96.6554 31.8 96.8154 31.864C97.0074 31.928 97.1354 31.96 97.1994 31.96C97.3594 31.96 97.5834 32.184 97.8714 32.632C98.0954 32.92 98.2394 33.304 98.3034 33.784C98.3994 34.232 98.3834 34.584 98.2554 34.84C98.1914 35 98.0954 35.256 97.9674 35.608C97.8714 35.96 97.8234 36.168 97.8234 36.232C97.8234 36.392 97.6634 36.824 97.3434 37.528C97.1514 37.944 96.8954 38.584 96.5754 39.448C96.2874 40.312 95.9994 41.224 95.7114 42.184C95.4234 43.112 95.1674 44.008 94.9434 44.872C94.7194 45.736 94.5754 46.36 94.5114 46.744C94.4474 47.32 94.3834 47.752 94.3194 48.04C94.2554 48.328 94.1594 48.76 94.0314 49.336C93.8714 50.136 93.8074 50.792 93.8394 51.304C93.8714 51.784 94.0154 52.024 94.2714 52.024C94.3354 52.024 94.4314 52.008 94.5594 51.976C94.7194 51.912 94.8634 51.848 94.9914 51.784C95.1514 51.72 95.2954 51.656 95.4234 51.592C95.5514 51.528 95.6314 51.48 95.6634 51.448C95.7594 51.352 95.9194 51.288 96.1434 51.256C96.2074 51.224 96.3354 51.16 96.5274 51.064C96.7514 50.936 96.9594 50.792 97.1514 50.632C97.3114 50.472 97.4714 50.328 97.6314 50.2C97.8234 50.072 97.9514 49.992 98.0154 49.96C98.1434 49.928 98.2074 49.832 98.2074 49.672C98.1754 49.544 98.2394 49.432 98.3994 49.336C98.5914 49.336 98.6874 49.24 98.6874 49.048C98.6874 48.92 98.7674 48.824 98.9274 48.76C98.9914 48.696 99.0874 48.584 99.2154 48.424C99.3754 48.232 99.5354 48.024 99.6954 47.8C100.143 47.256 100.383 47.032 100.415 47.128C100.415 47.224 100.479 47.272 100.607 47.272C100.703 47.272 100.719 47.192 100.655 47.032C100.495 46.712 100.639 46.488 101.087 46.36C101.279 46.296 101.647 45.928 102.191 45.256C102.735 44.584 103.567 43.448 104.687 41.848C105.007 41.4 105.311 40.984 105.599 40.6C105.887 40.216 106.095 39.944 106.223 39.784C106.319 39.72 106.367 39.64 106.367 39.544C106.367 39.512 106.399 39.448 106.463 39.352C106.527 39.224 106.591 39.112 106.655 39.016C106.751 38.888 106.831 38.792 106.895 38.728C106.991 38.632 107.055 38.584 107.087 38.584C107.215 38.584 106.959 39.048 106.319 39.976C105.775 40.744 105.407 41.304 105.215 41.656C105.023 41.976 104.959 42.2 105.023 42.328C105.119 42.488 105.071 42.504 104.879 42.376C104.687 42.248 104.591 42.312 104.591 42.568C104.591 42.792 104.559 42.888 104.495 42.856C104.399 42.792 104.287 42.872 104.159 43.096C104.063 43.288 104.047 43.432 104.111 43.528C104.143 43.528 104.127 43.576 104.063 43.672C104.031 43.768 103.967 43.864 103.871 43.96C103.679 44.152 103.583 44.312 103.583 44.44C103.583 44.504 103.551 44.6 103.487 44.728C103.423 44.824 103.327 44.904 103.199 44.968C103.103 45.064 102.991 45.192 102.863 45.352C102.767 45.48 102.703 45.608 102.671 45.736C102.415 46.216 101.631 47.224 100.319 48.76C99.9994 49.112 99.6954 49.464 99.4074 49.816C99.1194 50.136 98.9114 50.376 98.7834 50.536C98.4954 50.888 98.4154 51.048 98.5434 51.016C98.6714 50.952 98.9434 50.744 99.3594 50.392C99.5834 50.2 99.7754 50.04 99.9354 49.912C100.095 49.784 100.191 49.72 100.223 49.72C100.319 49.72 100.463 49.608 100.655 49.384C100.879 49.16 100.991 49 100.991 48.904C100.991 48.776 101.135 48.6 101.423 48.376C101.679 48.216 102.127 47.704 102.767 46.84C103.439 45.944 104.239 44.824 105.167 43.48C105.359 43.224 105.551 42.968 105.743 42.712C105.935 42.456 106.079 42.248 106.175 42.088C106.271 41.928 106.383 41.768 106.511 41.608C106.639 41.416 106.735 41.256 106.799 41.128C106.959 40.904 107.151 40.616 107.375 40.264C107.599 39.912 107.823 39.56 108.047 39.208C108.271 38.824 108.479 38.472 108.671 38.152C108.863 37.832 109.007 37.608 109.103 37.48C109.327 37.096 109.487 36.904 109.583 36.904C109.711 36.872 109.727 37.048 109.631 37.432C109.567 37.592 109.503 37.736 109.439 37.864C109.407 37.96 109.391 37.992 109.391 37.96C109.231 37.864 109.183 38.024 109.247 38.44C109.247 38.536 109.199 38.584 109.103 38.584C108.943 38.584 108.863 38.664 108.863 38.824C108.863 39.048 108.751 39.352 108.527 39.736C108.463 39.928 108.367 40.168 108.239 40.456C108.143 40.712 108.063 40.968 107.999 41.224C107.711 42.152 107.295 43 106.751 43.768C106.623 43.928 106.463 44.152 106.271 44.44C106.079 44.696 105.903 44.936 105.743 45.16C105.167 45.928 104.879 46.152 104.879 45.832C104.879 45.768 104.975 45.64 105.167 45.448C105.231 45.384 105.343 45.224 105.503 44.968C105.695 44.68 105.887 44.392 106.079 44.104C106.271 43.784 106.431 43.496 106.559 43.24C106.719 42.984 106.799 42.84 106.799 42.808L106.655 42.904C106.559 43 106.463 43.08 106.367 43.144C106.079 43.432 105.887 43.528 105.791 43.432C105.695 43.336 105.583 43.448 105.455 43.768C105.391 43.896 105.295 44.056 105.167 44.248C105.039 44.44 104.895 44.616 104.735 44.776C104.575 44.936 104.383 45.176 104.159 45.496C103.935 45.784 103.727 46.072 103.535 46.36C103.311 46.68 103.055 47.016 102.767 47.368C102.511 47.72 102.255 48.056 101.999 48.376C101.743 48.664 101.519 48.92 101.327 49.144C101.135 49.368 101.007 49.512 100.943 49.576C100.879 49.64 100.815 49.72 100.751 49.816C100.687 49.912 100.623 49.992 100.559 50.056C100.431 50.312 100.463 50.408 100.655 50.344C100.847 50.248 101.087 50.024 101.375 49.672C101.631 49.416 101.807 49.272 101.903 49.24C102.031 49.208 102.143 49.224 102.239 49.288C102.399 49.416 102.639 49.288 102.959 48.904C103.279 48.584 103.487 48.424 103.583 48.424C103.647 48.424 103.615 48.52 103.487 48.712C103.359 48.872 103.103 49.192 102.719 49.672C102.527 49.928 102.351 50.152 102.191 50.344C102.063 50.536 101.999 50.648 101.999 50.68C101.999 50.808 101.935 50.92 101.807 51.016C101.679 51.144 101.599 51.304 101.567 51.496C101.567 51.656 101.615 51.736 101.711 51.736C102.095 51.736 101.679 52.2 100.463 53.128C100.111 53.416 99.7754 53.688 99.4554 53.944C99.1674 54.2 98.9914 54.376 98.9274 54.472C98.8634 54.536 98.7674 54.616 98.6394 54.712C98.5114 54.808 98.3674 54.888 98.2074 54.952C98.0794 55.016 97.9514 55.08 97.8234 55.144C97.7274 55.208 97.6634 55.272 97.6314 55.336C97.4714 55.496 97.1674 55.576 96.7194 55.576H95.9034ZM91.1994 46.12C91.1994 45.864 91.2314 45.704 91.2954 45.64C91.3274 45.608 91.3754 45.496 91.4394 45.304C91.4714 45.144 91.5354 44.824 91.6314 44.344C91.7594 43.832 91.8554 43.48 91.9194 43.288C91.9834 43.16 92.0634 42.952 92.1594 42.664C92.2554 42.376 92.3514 42.072 92.4474 41.752C92.5434 41.432 92.6234 41.16 92.6874 40.936C92.7514 40.68 92.7834 40.536 92.7834 40.504C92.7834 40.376 92.7034 40.472 92.5434 40.792C92.4154 41.112 92.2554 41.544 92.0634 42.088C91.9034 42.6 91.7274 43.144 91.5354 43.72C91.3754 44.296 91.2634 44.76 91.1994 45.112C91.1354 45.336 91.0714 45.608 91.0074 45.928C90.9434 46.216 90.8794 46.472 90.8154 46.696C90.7514 46.952 90.7034 47.208 90.6714 47.464C90.6394 47.688 90.6234 47.864 90.6234 47.992C90.6234 48.184 90.6394 48.264 90.6714 48.232C90.7034 48.168 90.7834 47.912 90.9114 47.464C90.9754 47.208 91.0394 46.952 91.1034 46.696C91.1674 46.408 91.1994 46.216 91.1994 46.12ZM101.135 46.744L101.087 46.696H100.991C100.895 46.696 100.847 46.744 100.847 46.84C100.847 46.968 100.895 46.984 100.991 46.888C101.087 46.888 101.135 46.84 101.135 46.744ZM91.8714 45.496C91.8074 45.368 91.7754 45.432 91.7754 45.688C91.7754 45.944 91.8074 46.008 91.8714 45.88C91.9354 45.72 91.9354 45.592 91.8714 45.496ZM103.583 47.464L103.727 47.32C103.823 47.32 103.871 47.352 103.871 47.416C103.871 47.512 103.823 47.56 103.727 47.56C103.631 47.56 103.583 47.528 103.583 47.464ZM99.6474 26.056C99.5514 25.832 99.3274 25.784 98.9754 25.912C98.4954 26.04 98.2554 25.992 98.2554 25.768C98.2554 25.672 98.1114 25.48 97.8234 25.192C97.5674 24.904 97.3434 24.712 97.1514 24.616C96.9594 24.488 96.7834 24.216 96.6234 23.8L96.4314 23.128L97.1994 21.736C97.4234 21.352 97.5994 21.016 97.7274 20.728C97.8874 20.408 97.9674 20.216 97.9674 20.152C97.9674 19.992 98.0154 19.944 98.1114 20.008C98.2074 20.04 98.2714 20.168 98.3034 20.392V20.776L98.4954 20.344C98.5914 20.088 98.7194 19.912 98.8794 19.816C99.0394 19.688 99.1994 19.688 99.3594 19.816C99.4234 19.912 99.5514 19.96 99.7434 19.96C99.9034 19.96 99.9834 20.04 99.9834 20.2C99.9834 20.36 100.207 20.488 100.655 20.584C101.071 20.712 101.279 20.84 101.279 20.968C101.279 21.064 101.375 21.112 101.567 21.112C101.759 21.112 101.887 21.176 101.951 21.304C102.047 21.432 102.079 21.64 102.047 21.928C102.015 22.184 101.951 22.344 101.855 22.408C101.791 22.472 101.663 22.744 101.471 23.224C101.279 23.672 101.151 24.056 101.087 24.376C101.055 24.44 101.023 24.536 100.991 24.664C100.959 24.76 100.927 24.84 100.895 24.904C100.831 25 100.799 25.096 100.799 25.192C100.799 25.288 100.783 25.416 100.751 25.576C100.719 25.672 100.607 25.832 100.415 26.056C100.223 26.248 100.079 26.344 99.9834 26.344C99.9514 26.344 99.8394 26.248 99.6474 26.056ZM97.5354 22.168C97.5354 22.04 97.4874 22.024 97.3914 22.12C97.2954 22.28 97.2474 22.408 97.2474 22.504C97.2474 22.568 97.2954 22.568 97.3914 22.504C97.4874 22.44 97.5354 22.328 97.5354 22.168ZM138.494 42.52C138.558 42.584 138.622 42.648 138.686 42.712C138.75 42.744 138.814 42.792 138.878 42.856C138.686 42.984 138.494 43.144 138.302 43.336C138.11 43.528 137.982 43.704 137.918 43.864C137.854 44.024 137.774 44.104 137.678 44.104C137.614 44.104 137.374 44.296 136.958 44.68C136.542 45.064 136.078 45.512 135.566 46.024C135.054 46.504 134.574 46.968 134.126 47.416C133.71 47.832 133.454 48.088 133.358 48.184C132.91 48.6 132.558 48.952 132.302 49.24C132.046 49.496 131.918 49.64 131.918 49.672C131.95 49.704 132.03 49.688 132.158 49.624C132.286 49.528 132.43 49.416 132.59 49.288C132.75 49.16 132.894 49.064 133.022 49C133.182 48.904 133.294 48.856 133.358 48.856C133.422 48.856 133.55 48.76 133.742 48.568C133.806 48.472 133.886 48.392 133.982 48.328C134.078 48.232 134.158 48.152 134.222 48.088C134.382 48.024 134.462 48.008 134.462 48.04C134.462 48.04 134.43 48.12 134.366 48.28C134.302 48.376 134.158 48.52 133.934 48.712C133.71 48.904 133.47 49.096 133.214 49.288C132.958 49.48 132.686 49.656 132.398 49.816C132.142 49.976 131.934 50.088 131.774 50.152C131.646 50.216 131.55 50.28 131.486 50.344C131.422 50.376 131.374 50.408 131.342 50.44C131.342 50.504 131.438 50.504 131.63 50.44C131.822 50.376 132.046 50.28 132.302 50.152C132.686 49.928 132.942 49.816 133.07 49.816C133.198 49.784 133.294 49.8 133.358 49.864C133.454 49.992 133.502 49.992 133.502 49.864C133.502 49.704 133.534 49.608 133.598 49.576C133.694 49.544 133.758 49.592 133.79 49.72C133.854 49.848 133.998 49.864 134.222 49.768C134.446 49.704 134.702 49.576 134.99 49.384C135.278 49.16 135.71 48.792 136.286 48.28C136.574 48.024 136.766 47.912 136.862 47.944C136.99 47.944 136.974 48.072 136.814 48.328C136.75 48.424 136.59 48.6 136.334 48.856C136.11 49.112 135.854 49.368 135.566 49.624C135.278 49.88 135.006 50.12 134.75 50.344C134.494 50.536 134.302 50.664 134.174 50.728C133.918 50.888 133.758 51.048 133.694 51.208C133.63 51.464 133.438 51.736 133.118 52.024C132.83 52.28 132.494 52.52 132.11 52.744C131.726 52.968 131.326 53.16 130.91 53.32C130.526 53.448 130.206 53.512 129.95 53.512C129.822 53.512 129.502 53.4 128.99 53.176C128.51 52.92 127.998 52.632 127.454 52.312C127.294 52.216 127.086 52.056 126.83 51.832C126.574 51.608 126.35 51.384 126.158 51.16C125.966 50.936 125.758 50.712 125.534 50.488C125.31 50.264 125.118 50.072 124.958 49.912C124.798 49.784 124.654 49.624 124.526 49.432C124.43 49.208 124.35 49.016 124.286 48.856C124.19 48.472 124.078 48.136 123.95 47.848C123.886 47.752 123.838 47.24 123.806 46.312C123.806 45.384 123.806 44.2 123.806 42.76V38.008L123.326 38.536C123.166 38.664 122.99 38.856 122.798 39.112C122.638 39.368 122.494 39.608 122.366 39.832C122.078 40.376 121.854 40.68 121.694 40.744C121.566 40.808 121.454 40.968 121.358 41.224C121.262 41.48 121.118 41.672 120.926 41.8C120.734 41.928 120.638 42.04 120.638 42.136C120.638 42.232 120.446 42.504 120.062 42.952C119.902 43.112 119.758 43.272 119.63 43.432C119.534 43.592 119.486 43.704 119.486 43.768C119.486 43.896 119.262 44.184 118.814 44.632C118.622 44.856 118.398 45.112 118.142 45.4C117.918 45.688 117.694 45.96 117.47 46.216C117.278 46.472 117.102 46.696 116.942 46.888C116.814 47.08 116.75 47.192 116.75 47.224C116.75 47.256 116.606 47.432 116.318 47.752C116.062 48.04 115.566 48.584 114.83 49.384C114.638 49.576 114.478 49.752 114.35 49.912C114.222 50.072 114.158 50.168 114.158 50.2C114.158 50.264 114.11 50.296 114.014 50.296C113.822 50.296 113.198 51 112.142 52.408C111.95 52.664 111.742 52.936 111.518 53.224C111.326 53.48 111.182 53.656 111.086 53.752C110.894 54.008 110.846 54.168 110.942 54.232C110.974 54.264 110.91 54.376 110.75 54.568C110.59 54.76 110.398 54.968 110.174 55.192C109.95 55.384 109.726 55.576 109.502 55.768C109.278 55.928 109.118 56.008 109.022 56.008C108.766 56.072 108.542 56.12 108.35 56.152C108.158 56.184 107.998 56.2 107.87 56.2C107.614 56.2 107.374 56.12 107.15 55.96C106.958 55.768 106.814 55.672 106.718 55.672C106.654 55.672 106.558 55.64 106.43 55.576C106.27 55.512 106.11 55.448 105.95 55.384C105.79 55.288 105.646 55.208 105.518 55.144C105.39 55.048 105.326 54.984 105.326 54.952C105.326 54.856 105.23 54.792 105.038 54.76C104.814 54.696 104.654 54.472 104.558 54.088C104.494 53.928 104.43 53.8 104.366 53.704C104.302 53.576 104.254 53.512 104.222 53.512C104.062 53.384 103.902 53.176 103.742 52.888C103.55 52.568 103.454 52.328 103.454 52.168C103.454 51.944 103.566 51.432 103.79 50.632C103.982 49.832 104.222 48.984 104.51 48.088C104.766 47.192 105.022 46.376 105.278 45.64C105.534 44.872 105.71 44.424 105.806 44.296C105.87 44.232 105.902 44.136 105.902 44.008C105.902 43.944 105.982 43.752 106.142 43.432C106.27 43.08 106.414 42.712 106.574 42.328C106.766 41.944 106.942 41.608 107.102 41.32C107.262 41 107.358 40.84 107.39 40.84C107.454 40.776 107.486 40.648 107.486 40.456C107.486 40.36 107.55 40.152 107.678 39.832C107.838 39.512 108.014 39.176 108.206 38.824C108.398 38.44 108.59 38.088 108.782 37.768C108.974 37.416 109.118 37.192 109.214 37.096C109.278 37.032 109.374 36.904 109.502 36.712C109.63 36.488 109.758 36.248 109.886 35.992C109.982 35.736 110.062 35.528 110.126 35.368C110.222 35.208 110.302 35.128 110.366 35.128C110.398 35.128 110.462 35.032 110.558 34.84C110.686 34.648 110.814 34.408 110.942 34.12C111.198 33.544 111.406 33.16 111.566 32.968C111.758 32.776 111.982 32.68 112.238 32.68C112.43 32.68 112.59 32.584 112.718 32.392C112.942 31.944 113.246 31.448 113.63 30.904C114.014 30.328 114.43 29.768 114.878 29.224C115.326 28.68 115.79 28.184 116.27 27.736C116.782 27.288 117.246 26.968 117.662 26.776C117.886 26.68 118.094 26.584 118.286 26.488C118.51 26.392 118.686 26.312 118.814 26.248C119.134 26.088 119.598 26.008 120.206 26.008C120.814 26.008 121.358 26.088 121.838 26.248C121.998 26.312 122.206 26.408 122.462 26.536C122.75 26.664 122.99 26.776 123.182 26.872C123.566 27.192 123.822 27.352 123.95 27.352C124.014 27.352 124.158 27.464 124.382 27.688C124.606 27.88 124.862 28.104 125.15 28.36C125.598 28.776 125.902 29.128 126.062 29.416C126.222 29.672 126.398 30.024 126.59 30.472C126.686 30.728 126.782 31.048 126.878 31.432C126.974 31.816 127.038 32.184 127.07 32.536C127.134 32.888 127.182 33.192 127.214 33.448C127.246 33.704 127.23 33.864 127.166 33.928C127.102 33.992 126.862 34.008 126.446 33.976C126.062 33.944 125.742 33.88 125.486 33.784C125.262 33.688 125.118 33.64 125.054 33.64C124.99 33.64 124.91 33.688 124.814 33.784C124.75 33.88 124.734 33.944 124.766 33.976C124.798 33.976 124.91 33.96 125.102 33.928C125.294 33.864 125.406 33.848 125.438 33.88C125.502 33.88 125.534 33.944 125.534 34.072C125.534 34.2 125.742 34.264 126.158 34.264C126.766 34.264 127.23 34.6 127.55 35.272C127.582 35.4 127.63 35.544 127.694 35.704C127.758 35.832 127.822 35.96 127.886 36.088C127.95 36.184 127.998 36.344 128.03 36.568C128.062 36.792 128.078 37.208 128.078 37.816C128.078 38.424 128.078 39.304 128.078 40.456C128.078 41.608 128.062 43.192 128.03 45.208C128.03 46.232 128.03 47.08 128.03 47.752C128.03 48.392 128.046 48.904 128.078 49.288C128.11 49.64 128.158 49.896 128.222 50.056C128.286 50.184 128.366 50.264 128.462 50.296C128.526 50.296 128.67 50.232 128.894 50.104C129.15 49.976 129.422 49.816 129.71 49.624C130.03 49.432 130.318 49.24 130.574 49.048C130.862 48.856 131.07 48.696 131.198 48.568C131.262 48.504 131.358 48.424 131.486 48.328C131.614 48.2 131.758 48.088 131.918 47.992C132.078 47.896 132.318 47.704 132.638 47.416C132.958 47.096 133.294 46.776 133.646 46.456C133.998 46.104 134.302 45.816 134.558 45.592C134.846 45.368 135.006 45.256 135.038 45.256C135.07 45.256 135.054 45.32 134.99 45.448C134.926 45.544 134.83 45.656 134.702 45.784C134.574 45.912 134.446 46.04 134.318 46.168C134.222 46.264 134.142 46.328 134.078 46.36C134.014 46.392 133.902 46.472 133.742 46.6C133.614 46.728 133.486 46.872 133.358 47.032C133.23 47.16 133.118 47.288 133.022 47.416C132.926 47.544 132.894 47.624 132.926 47.656C132.958 47.656 133.086 47.56 133.31 47.368C133.566 47.176 133.87 46.92 134.222 46.6C134.574 46.28 134.958 45.928 135.374 45.544C135.79 45.128 136.206 44.712 136.622 44.296C136.878 44.072 137.166 43.816 137.486 43.528C137.806 43.208 138.142 42.872 138.494 42.52ZM139.406 43.24C139.47 43.272 139.518 43.304 139.55 43.336C139.582 43.368 139.63 43.4 139.694 43.432C138.99 44.072 138.414 44.584 137.966 44.968C137.55 45.352 137.31 45.544 137.246 45.544C137.246 45.544 137.31 45.448 137.438 45.256C137.534 45.16 137.774 44.92 138.158 44.536C138.542 44.152 138.958 43.72 139.406 43.24ZM104.99 50.008C105.118 49.816 105.182 49.608 105.182 49.384C105.182 49.128 105.15 49.096 105.086 49.288C104.99 49.448 104.91 49.672 104.846 49.96L104.75 50.392L104.99 50.008ZM105.71 52.264C105.71 52.136 105.678 52.088 105.614 52.12C105.518 52.216 105.47 52.28 105.47 52.312C105.47 52.536 105.55 52.52 105.71 52.264ZM106.142 46.888C106.078 47.304 106.11 47.416 106.238 47.224C106.334 47 106.462 46.616 106.622 46.072C106.718 45.816 106.718 45.72 106.622 45.784C106.526 45.784 106.478 45.768 106.478 45.736C106.478 45.64 106.558 45.56 106.718 45.496C106.782 45.464 106.846 45.384 106.91 45.256C107.006 45.096 107.102 44.936 107.198 44.776C107.518 44.04 107.566 43.736 107.342 43.864C107.246 43.96 107.198 43.96 107.198 43.864C107.198 43.768 107.294 43.496 107.486 43.048C107.678 42.6 107.854 42.2 108.014 41.848C108.174 41.496 108.222 41.304 108.158 41.272C108.094 41.272 107.982 41.432 107.822 41.752C107.662 42.04 107.47 42.44 107.246 42.952C107.054 43.464 106.83 44.072 106.574 44.776C106.318 45.448 106.062 46.168 105.806 46.936C105.358 48.312 105.166 49 105.23 49C105.262 49 105.326 48.888 105.422 48.664C105.55 48.376 105.63 48.312 105.662 48.472C105.694 48.632 105.758 48.552 105.854 48.232C105.95 47.912 105.966 47.768 105.902 47.8C105.806 47.864 105.774 47.816 105.806 47.656C105.806 47.464 105.87 47.224 105.998 46.936C106.094 46.744 106.158 46.648 106.19 46.648C106.19 46.616 106.174 46.696 106.142 46.888ZM107.918 42.808C107.918 42.68 107.886 42.68 107.822 42.808C107.758 42.872 107.71 42.968 107.678 43.096C107.646 43.192 107.614 43.288 107.582 43.384L107.486 43.72L107.726 43.384C107.854 43.128 107.918 42.936 107.918 42.808ZM108.638 41.368C108.638 41.304 108.59 41.272 108.494 41.272C108.27 41.432 108.27 41.512 108.494 41.512C108.59 41.512 108.638 41.464 108.638 41.368ZM107.918 45.64C107.982 45.448 108.062 45.224 108.158 44.968C108.254 44.712 108.35 44.504 108.446 44.344C108.542 44.184 108.638 44.008 108.734 43.816C108.862 43.624 108.958 43.448 109.022 43.288C109.118 43.032 109.31 42.6 109.598 41.992C109.918 41.352 110.27 40.68 110.654 39.976C111.038 39.24 111.422 38.52 111.806 37.816C112.19 37.112 112.494 36.568 112.718 36.184C112.878 35.928 112.958 35.768 112.958 35.704C112.99 35.64 112.942 35.608 112.814 35.608C112.654 35.608 112.606 35.688 112.67 35.848C112.67 35.976 112.622 36.04 112.526 36.04C112.366 36.04 112.302 36.088 112.334 36.184C112.398 36.248 112.382 36.36 112.286 36.52C112.222 36.68 112.142 36.76 112.046 36.76C111.886 36.76 111.806 36.84 111.806 37C111.806 37.256 111.71 37.464 111.518 37.624C111.454 37.752 111.39 37.864 111.326 37.96C111.262 38.056 111.23 38.136 111.23 38.2C111.23 38.264 111.182 38.28 111.086 38.248C110.99 38.184 110.974 38.216 111.038 38.344C111.102 38.568 111.07 38.648 110.942 38.584C110.814 38.52 110.75 38.584 110.75 38.776C110.718 38.968 110.638 39.208 110.51 39.496C110.382 39.752 110.286 39.848 110.222 39.784C110.062 39.688 110.046 39.752 110.174 39.976C110.238 40.2 110.206 40.376 110.078 40.504C110.046 40.568 110.014 40.616 109.982 40.648C109.95 40.648 109.934 40.616 109.934 40.552C109.934 40.52 109.87 40.584 109.742 40.744C109.582 40.968 109.47 41.32 109.406 41.8C109.374 41.832 109.326 41.912 109.262 42.04C109.198 42.136 109.086 42.264 108.926 42.424C108.67 42.872 108.558 43.16 108.59 43.288V43.48C108.558 43.448 108.478 43.528 108.35 43.72C108.254 43.88 108.158 44.072 108.062 44.296C107.966 44.52 107.87 44.744 107.774 44.968C107.71 45.16 107.694 45.288 107.726 45.352C107.726 45.48 107.71 45.544 107.678 45.544C107.582 45.544 107.454 45.752 107.294 46.168C107.134 46.584 107.054 46.888 107.054 47.08C107.054 47.272 107.006 47.4 106.91 47.464C106.846 47.464 106.782 47.64 106.718 47.992C106.686 48.312 106.638 48.584 106.574 48.808C106.51 49.032 106.446 49.144 106.382 49.144C106.318 49.144 106.286 49.208 106.286 49.336C106.286 49.432 106.27 49.56 106.238 49.72C106.206 50.072 106.254 50.168 106.382 50.008C106.478 49.816 106.67 49.288 106.958 48.424C107.086 48.04 107.198 47.688 107.294 47.368C107.422 47.016 107.518 46.776 107.582 46.648C107.646 46.584 107.71 46.44 107.774 46.216C107.838 45.992 107.886 45.8 107.918 45.64ZM110.27 50.2C110.43 50.04 110.382 50.024 110.126 50.152C109.966 50.216 109.87 50.28 109.838 50.344C109.806 50.408 109.838 50.44 109.934 50.44C110.062 50.44 110.174 50.36 110.27 50.2ZM110.894 49.432C110.958 49.592 111.038 49.624 111.134 49.528C111.23 49.432 111.23 49.352 111.134 49.288C111.038 49.192 110.958 49.176 110.894 49.24C110.83 49.272 110.83 49.336 110.894 49.432ZM111.806 48.232C111.678 48.36 111.678 48.424 111.806 48.424C111.902 48.424 111.982 48.36 112.046 48.232C112.078 48.168 112.094 48.104 112.094 48.04C112.094 48.04 112.094 48.024 112.094 47.992C112.062 47.992 111.966 48.072 111.806 48.232ZM112.526 47.512C112.526 47.64 112.574 47.704 112.67 47.704C112.766 47.704 112.814 47.656 112.814 47.56C112.814 47.432 112.766 47.368 112.67 47.368C112.574 47.272 112.526 47.32 112.526 47.512ZM109.118 39.16C108.478 40.408 108.19 41.032 108.254 41.032C108.286 41.032 108.366 40.952 108.494 40.792C108.686 40.6 108.782 40.424 108.782 40.264C108.782 40.232 108.798 40.232 108.83 40.264C108.862 40.264 108.894 40.296 108.926 40.36L108.974 40.408C109.038 40.408 109.118 40.344 109.214 40.216C109.342 40.056 109.454 39.88 109.55 39.688C109.646 39.496 109.726 39.304 109.79 39.112C109.886 38.92 109.918 38.792 109.886 38.728C109.79 38.568 109.838 38.504 110.03 38.536C110.158 38.632 110.222 38.584 110.222 38.392C110.222 38.264 110.27 38.2 110.366 38.2C110.462 38.2 110.542 38.056 110.606 37.768C110.638 37.608 110.782 37.32 111.038 36.904C111.294 36.456 111.582 35.992 111.902 35.512C112.222 35.032 112.526 34.568 112.814 34.12C113.102 33.672 113.294 33.384 113.39 33.256C113.422 33.192 113.342 33.256 113.15 33.448C112.958 33.608 112.734 33.816 112.478 34.072C112.222 34.328 111.982 34.6 111.758 34.888C111.534 35.144 111.294 35.464 111.038 35.848C110.782 36.232 110.494 36.696 110.174 37.24C109.886 37.752 109.534 38.392 109.118 39.16ZM123.806 32.968C123.966 32.808 124.046 32.68 124.046 32.584C124.046 32.456 124.014 32.216 123.95 31.864C123.918 31.704 123.838 31.48 123.71 31.192C123.582 30.872 123.438 30.552 123.278 30.232C123.15 29.88 123.022 29.576 122.894 29.32C122.766 29.032 122.67 28.872 122.606 28.84C122.478 28.84 122.174 29.016 121.694 29.368C121.214 29.688 120.734 30.056 120.254 30.472C120.03 30.696 119.742 30.984 119.39 31.336C119.07 31.688 118.782 32.024 118.526 32.344C118.302 32.664 118.03 33.032 117.71 33.448C117.39 33.832 117.118 34.152 116.894 34.408C116.574 34.824 116.222 35.32 115.838 35.896C115.454 36.44 115.07 37.048 114.686 37.72C114.302 38.36 113.918 39.032 113.534 39.736C113.15 40.44 112.782 41.128 112.43 41.8C111.95 42.76 111.55 43.56 111.23 44.2C110.942 44.808 110.702 45.304 110.51 45.688C110.35 46.072 110.238 46.36 110.174 46.552C110.11 46.712 110.078 46.824 110.078 46.888C110.078 46.952 110.046 47.096 109.982 47.32C109.918 47.512 109.806 47.72 109.646 47.944C109.55 48.168 109.454 48.392 109.358 48.616C109.262 48.84 109.214 48.984 109.214 49.048C109.214 49.112 109.198 49.208 109.166 49.336C109.166 49.464 109.134 49.608 109.07 49.768C109.006 49.896 108.942 50.056 108.878 50.248C108.814 50.408 108.766 50.52 108.734 50.584C108.606 50.904 108.654 50.952 108.878 50.728C108.942 50.664 109.07 50.536 109.262 50.344C109.486 50.152 109.71 49.944 109.934 49.72C110.19 49.496 110.462 49.256 110.75 49C111.038 48.712 111.294 48.456 111.518 48.232C111.742 48.072 111.918 47.896 112.046 47.704C112.206 47.48 112.302 47.336 112.334 47.272C112.366 47.048 112.51 46.984 112.766 47.08C112.894 47.08 113.022 47.064 113.15 47.032C113.278 46.968 113.422 46.84 113.582 46.648C113.87 46.36 114.014 46.168 114.014 46.072C114.046 46.072 114.062 46.072 114.062 46.072C114.126 46.008 114.174 46.008 114.206 46.072C114.334 46.104 114.398 46.04 114.398 45.88C114.398 45.656 114.494 45.528 114.686 45.496C114.942 45.368 115.038 45.256 114.974 45.16C114.942 45.096 114.958 45 115.022 44.872C115.118 44.744 115.23 44.616 115.358 44.488C115.486 44.36 115.598 44.248 115.694 44.152C115.822 44.024 115.918 43.96 115.982 43.96C116.142 43.96 116.206 44.04 116.174 44.2C116.142 44.36 116.046 44.456 115.886 44.488C115.694 44.552 115.598 44.68 115.598 44.872C115.598 45.032 115.518 45.144 115.358 45.208C115.23 45.272 115.166 45.368 115.166 45.496C115.166 45.624 115.022 45.768 114.734 45.928C114.446 46.152 114.302 46.312 114.302 46.408C114.302 46.44 114.254 46.536 114.158 46.696C114.062 46.856 113.934 47.032 113.774 47.224C113.614 47.416 113.438 47.624 113.246 47.848C113.086 48.04 112.926 48.216 112.766 48.376C112.574 48.536 112.43 48.696 112.334 48.856C112.27 48.92 112.19 49 112.094 49.096C111.998 49.192 111.902 49.272 111.806 49.336C111.518 49.496 111.374 49.656 111.374 49.816C111.374 49.912 111.31 50.024 111.182 50.152C110.99 50.216 110.926 50.328 110.99 50.488C111.022 50.616 111.374 50.376 112.046 49.768C112.27 49.544 112.574 49.224 112.958 48.808C113.374 48.392 113.774 47.96 114.158 47.512C114.574 47.032 114.958 46.6 115.31 46.216C115.694 45.832 115.95 45.544 116.078 45.352C116.142 45.288 116.254 45.144 116.414 44.92C116.606 44.664 116.814 44.408 117.038 44.152C117.23 43.864 117.39 43.624 117.518 43.432C117.678 43.24 117.758 43.128 117.758 43.096C117.758 43.032 117.902 42.856 118.19 42.568C118.414 42.344 118.654 42.072 118.91 41.752C119.166 41.4 119.614 40.76 120.254 39.832C120.414 39.576 120.574 39.336 120.734 39.112C120.926 38.856 121.07 38.664 121.166 38.536C121.294 38.376 121.486 38.136 121.742 37.816C121.998 37.464 122.254 37.128 122.51 36.808C122.798 36.456 123.038 36.136 123.23 35.848C123.454 35.56 123.582 35.384 123.614 35.32C123.678 35.224 123.678 35.096 123.614 34.936C123.55 34.776 123.47 34.696 123.374 34.696C123.278 34.696 123.23 34.76 123.23 34.888C123.23 34.952 123.166 35.08 123.038 35.272C122.91 35.432 122.766 35.592 122.606 35.752C122.414 35.944 122.254 36.12 122.126 36.28C121.998 36.44 121.934 36.552 121.934 36.616C121.934 36.68 121.87 36.776 121.742 36.904C121.71 36.968 121.566 37.16 121.31 37.48C121.086 37.768 120.83 38.104 120.542 38.488C120.286 38.84 120.03 39.192 119.774 39.544C119.518 39.864 119.342 40.104 119.246 40.264C119.118 40.52 118.958 40.648 118.766 40.648C118.606 40.648 118.526 40.696 118.526 40.792C118.59 40.856 118.59 40.952 118.526 41.08C118.462 41.208 118.382 41.352 118.286 41.512C118.222 41.576 118.174 41.656 118.142 41.752C118.11 41.816 118.078 41.88 118.046 41.944C117.982 42.008 117.934 42.072 117.902 42.136C117.902 42.232 117.71 42.472 117.326 42.856C117.038 43.144 116.862 43.304 116.798 43.336C116.766 43.336 116.75 43.224 116.75 43C116.75 42.776 116.814 42.664 116.942 42.664C117.102 42.664 117.182 42.584 117.182 42.424C117.182 42.296 117.246 42.2 117.374 42.136C117.534 42.072 117.614 41.976 117.614 41.848C117.614 41.688 117.726 41.528 117.95 41.368C118.142 41.176 118.206 41.048 118.142 40.984C118.11 40.888 118.19 40.744 118.382 40.552C118.638 40.36 118.766 40.2 118.766 40.072C118.766 39.976 118.862 39.864 119.054 39.736C119.246 39.64 119.342 39.496 119.342 39.304C119.342 39.144 119.438 39.032 119.63 38.968C119.694 38.936 119.774 38.872 119.87 38.776C119.966 38.648 120.046 38.504 120.11 38.344C120.27 37.96 120.398 37.784 120.494 37.816C120.59 37.88 120.702 37.784 120.83 37.528C120.99 37.272 121.038 37.064 120.974 36.904C120.942 36.808 120.958 36.76 121.022 36.76C121.086 36.824 121.214 36.744 121.406 36.52C121.47 36.424 121.566 36.312 121.694 36.184C121.822 36.056 121.918 35.944 121.982 35.848C122.046 35.784 122.094 35.704 122.126 35.608C122.19 35.48 122.222 35.4 122.222 35.368C122.222 35.304 122.27 35.208 122.366 35.08C122.462 34.952 122.59 34.808 122.75 34.648C123.07 34.328 123.23 34.04 123.23 33.784C123.23 33.528 123.278 33.4 123.374 33.4C123.534 33.4 123.678 33.256 123.806 32.968ZM123.278 37.144C123.47 36.952 123.598 36.744 123.662 36.52C123.758 36.296 123.726 36.184 123.566 36.184C123.534 36.184 123.342 36.408 122.99 36.856C122.67 37.272 122.286 37.768 121.838 38.344C121.422 38.888 121.006 39.432 120.59 39.976C120.206 40.52 119.934 40.904 119.774 41.128C119.646 41.32 119.374 41.688 118.958 42.232C118.574 42.776 118.126 43.368 117.614 44.008C117.134 44.648 116.654 45.272 116.174 45.88C115.694 46.456 115.326 46.904 115.07 47.224C114.75 47.576 114.334 48.024 113.822 48.568C113.342 49.112 112.894 49.592 112.478 50.008C111.39 51.16 110.91 51.736 111.038 51.736C111.166 51.736 111.55 51.432 112.19 50.824C112.83 50.184 113.518 49.464 114.254 48.664C115.022 47.864 115.726 47.112 116.366 46.408C117.006 45.704 117.374 45.256 117.47 45.064C117.566 44.872 117.726 44.632 117.95 44.344C118.174 44.024 118.398 43.704 118.622 43.384C118.878 43.032 119.118 42.728 119.342 42.472C119.566 42.184 119.726 41.976 119.822 41.848C120.078 41.592 120.318 41.32 120.542 41.032C120.766 40.744 120.958 40.472 121.118 40.216C121.182 40.056 121.262 39.912 121.358 39.784C121.486 39.624 121.582 39.512 121.646 39.448C121.71 39.384 121.806 39.256 121.934 39.064C122.094 38.84 122.238 38.6 122.366 38.344C122.526 38.12 122.686 37.896 122.846 37.672C123.006 37.416 123.15 37.24 123.278 37.144ZM125.198 48.376C125.23 48.376 125.23 48.04 125.198 47.368C125.198 46.664 125.198 45.848 125.198 44.92C125.134 43.8 125.086 43.016 125.054 42.568C125.054 42.088 125.022 41.992 124.958 42.28C124.926 42.632 124.91 43.144 124.91 43.816C124.91 44.488 124.926 45.16 124.958 45.832C124.99 46.504 125.022 47.096 125.054 47.608C125.118 48.12 125.166 48.376 125.198 48.376Z" fill="#F5EDE1"/>
</svg>
