<?xml version="1.0" encoding="UTF-8"?>
<svg version="1.1" xmlns="http://www.w3.org/2000/svg" width="1430" height="377">
<path d="M0 0 C0.76895665 -0.00165078 1.5379133 -0.00330156 2.33017166 -0.00500236 C4.90301271 -0.00931113 7.47579606 -0.00653115 10.04863852 -0.00377727 C11.92136215 -0.00542766 13.79408544 -0.00751429 15.66680816 -0.00999737 C20.82933207 -0.01556397 25.99183939 -0.01489161 31.15436534 -0.01321978 C36.76481421 -0.01248901 42.37525839 -0.01751085 47.98570526 -0.0217948 C59.12078421 -0.02937803 70.25585836 -0.03156802 81.39093963 -0.03212385 C90.65194776 -0.03275816 99.91295294 -0.03572566 109.17395991 -0.04033732 C110.17418327 -0.04083252 110.17418327 -0.04083252 111.19461315 -0.04133773 C113.91047211 -0.04268774 116.62633107 -0.04405041 119.34219001 -0.04542983 C151.4928874 -0.06173063 183.64358405 -0.06811834 215.79428486 -0.0728777 C231.80541995 -0.07526125 247.81655461 -0.0789648 263.82768938 -0.0829148 C315.19241106 -0.0955795 366.55713273 -0.10636308 417.92185595 -0.10975526 C420.37674091 -0.1099175 422.83162587 -0.11008306 425.28651084 -0.11024964 C430.20978173 -0.11058344 435.13305263 -0.11091392 440.05632353 -0.1112442 C445.82021809 -0.1116311 451.58411264 -0.11202071 457.3480072 -0.11241527 C458.99767768 -0.11252769 460.64734817 -0.1126391 462.29701865 -0.11274952 C515.27027348 -0.11629838 568.24351473 -0.13137432 621.21676438 -0.15468726 C659.28213813 -0.17143263 697.34750932 -0.18690553 735.4128868 -0.19142222 C736.19599596 -0.19151571 736.97910512 -0.1916092 737.78594486 -0.19170551 C754.97865891 -0.19372473 772.17137292 -0.19488064 789.36408709 -0.1952341 C795.51633734 -0.19537027 801.66858759 -0.19557926 807.82083784 -0.19582735 C809.35133947 -0.19588891 810.8818411 -0.19594723 812.41234273 -0.1960023 C836.7838148 -0.1969215 861.15527269 -0.20688233 885.5267401 -0.22145979 C910.08160493 -0.23608814 934.63645238 -0.24110998 959.1913208 -0.23304025 C962.58821707 -0.23192495 965.98511336 -0.23091426 969.38200969 -0.22996593 C970.38079052 -0.22968097 970.38079052 -0.22968097 971.39974874 -0.22939027 C982.56048103 -0.2264963 993.72118287 -0.23545909 1004.881908 -0.24760534 C1014.60218795 -0.25735532 1024.32242719 -0.25617685 1034.04270676 -0.24616911 C1039.57879554 -0.24077729 1045.11477276 -0.24006645 1050.6508523 -0.25267783 C1055.69636423 -0.26407551 1060.74167458 -0.26142828 1065.78717976 -0.24801075 C1067.5922895 -0.24559353 1069.39741507 -0.24810075 1071.20250731 -0.25640723 C1086.94388148 -0.3240285 1102.42269625 1.30000776 1117.56319064 5.8151505 C1118.42903781 6.06933751 1119.29488497 6.32352452 1120.18696994 6.58541417 C1139.67394986 12.53171063 1158.20338097 22.27560195 1174.00069064 35.1276505 C1174.55998263 35.58011144 1175.11927462 36.03257237 1175.69551486 36.49874425 C1185.96967251 44.86545139 1194.99412226 53.84437561 1203.06319064 64.3776505 C1206.3894356 68.62148028 1210.03380861 71.75053945 1214.30147189 75.0182755 C1241.78692136 96.49749795 1259.91859178 127.75241659 1269.00069064 161.1276505 C1269.35590792 162.38867589 1269.71112521 163.64970128 1270.07710665 164.94893956 C1271.59957263 171.98857705 1271.32971798 179.21059451 1271.33662814 186.3776505 C1271.34307238 187.96074086 1271.34980188 189.54383007 1271.35680026 191.12691808 C1271.36872966 194.43855089 1271.37248593 197.75007978 1271.37129611 201.06173253 C1271.37109398 205.25599482 1271.3983049 209.44957147 1271.43284053 213.64367223 C1271.4553513 216.91444359 1271.45912625 220.18505677 1271.45807666 223.45589757 C1271.4604 224.99929707 1271.46903327 226.54270322 1271.48474139 228.08602452 C1271.61727696 242.46092578 1269.04014396 255.89084478 1263.93819064 269.3776505 C1263.64855441 270.1493961 1263.35891818 270.92114171 1263.06050509 271.71627355 C1255.81328695 290.31181991 1245.70233312 307.32259535 1232.06319064 321.9089005 C1230.22623315 323.88502143 1228.52257899 325.91719671 1226.81319064 328.0026505 C1204.21252044 353.77261008 1170.09851482 369.02523917 1137.00069064 375.1276505 C1136.09454552 375.3042305 1135.18840041 375.48081049 1134.25479635 375.6627414 C1130.54769034 376.19236996 1126.91993798 376.26766599 1123.18499929 376.25760233 C1122.41158126 376.25950157 1121.63816324 376.26140081 1120.84130831 376.26335761 C1118.24119336 376.26851906 1115.64113257 376.26656634 1113.0410139 376.26466489 C1111.15337454 376.26692125 1109.26573566 376.26961272 1107.37809747 376.27270073 C1102.16480292 376.27994363 1096.95152276 376.28093 1091.73822385 376.2809235 C1086.07613874 376.28199192 1080.41406004 376.28878135 1074.75197846 376.2948302 C1063.50982953 376.3059116 1052.26768373 376.31155589 1041.02553031 376.31553908 C1031.67524719 376.31901671 1022.32496847 376.32481353 1012.97468776 376.33222508 C1011.96524006 376.33302173 1011.96524006 376.33302173 1010.93539948 376.33383446 C1008.19453779 376.33600118 1005.45367611 376.33817781 1002.71281444 376.3403684 C969.47934472 376.36687503 936.24587266 376.38243727 903.01239533 376.39553128 C892.2331321 376.39978171 881.45386904 376.40434936 870.67460603 376.4091146 C814.19131847 376.43402615 757.70803041 376.45608573 701.22473855 376.46830498 C697.08975952 376.46920234 692.9547805 376.47011705 688.81980147 376.47103272 C687.58943876 376.47130514 687.58943876 376.47130514 686.33422023 376.47158306 C678.02413716 376.47342571 669.7140541 376.47529157 661.40397103 376.47718115 C659.73778582 376.4775592 658.07160062 376.47793549 656.40541541 376.47831003 C602.91966967 376.49033419 549.43395651 376.52001149 495.94822612 376.56172514 C457.51899633 376.59168723 419.08977324 376.61930977 380.66053218 376.62900281 C379.86968118 376.62920337 379.07883019 376.62940392 378.26401401 376.62961055 C360.89990438 376.63396185 343.53579478 376.63690715 326.17168469 376.63853706 C319.18432141 376.63921339 312.19695816 376.64006891 305.20959491 376.64097524 C304.44488889 376.64106933 303.68018288 376.64116343 302.89230396 376.64126038 C278.28847422 376.64436889 253.68468601 376.6628558 229.08087122 376.6893252 C204.28408207 376.71591415 179.48733917 376.72659747 154.69053669 376.71558922 C151.25766206 376.71406785 147.82478738 376.71272238 144.39191264 376.71148229 C143.7190235 376.71123256 143.04613436 376.71098283 142.35285463 376.71072553 C131.0890015 376.70703034 119.82524161 376.72308674 108.56140628 376.74450142 C98.74205731 376.76178612 88.92281825 376.7607766 79.10346686 376.74513373 C73.51480083 376.73674401 67.92644269 376.73606158 62.33780552 376.75774519 C9.37061961 376.95057807 -34.68472908 364.81426177 -73.43485624 326.73263097 C-77.27430602 322.79371978 -80.64141953 318.47891607 -83.99930936 314.1276505 C-87.71780331 309.38657072 -91.5674329 305.82039717 -96.37821561 302.19405675 C-105.68996553 294.8529007 -113.87110841 286.61058929 -120.99930936 277.1276505 C-121.39714628 276.60477452 -121.79498319 276.08189855 -122.20487577 275.54317784 C-150.91552179 237.60210953 -160.87587708 190.45670157 -155.05375272 143.48311925 C-149.90778793 107.96718352 -134.8828759 76.05850519 -109.99930936 50.1276505 C-109.10985624 49.17503331 -108.22040311 48.22241612 -107.30399686 47.24093175 C-80.54577072 19.09514126 -39.06121432 -0.12018446 0 0 Z " fill="#F4ECE0" transform="translate(158.999309360981,0.8723495006561279)"/>
<path d="M0 0 C0.76895665 -0.00165078 1.5379133 -0.00330156 2.33017166 -0.00500236 C4.90301271 -0.00931113 7.47579606 -0.00653115 10.04863852 -0.00377727 C11.92136215 -0.00542766 13.79408544 -0.00751429 15.66680816 -0.00999737 C20.82933207 -0.01556397 25.99183939 -0.01489161 31.15436534 -0.01321978 C36.76481421 -0.01248901 42.37525839 -0.01751085 47.98570526 -0.0217948 C59.12078421 -0.02937803 70.25585836 -0.03156802 81.39093963 -0.03212385 C90.65194776 -0.03275816 99.91295294 -0.03572566 109.17395991 -0.04033732 C110.17418327 -0.04083252 110.17418327 -0.04083252 111.19461315 -0.04133773 C113.91047211 -0.04268774 116.62633107 -0.04405041 119.34219001 -0.04542983 C151.4928874 -0.06173063 183.64358405 -0.06811834 215.79428486 -0.0728777 C231.80541995 -0.07526125 247.81655461 -0.0789648 263.82768938 -0.0829148 C315.19241106 -0.0955795 366.55713273 -0.10636308 417.92185595 -0.10975526 C420.37674091 -0.1099175 422.83162587 -0.11008306 425.28651084 -0.11024964 C430.20978173 -0.11058344 435.13305263 -0.11091392 440.05632353 -0.1112442 C445.82021809 -0.1116311 451.58411264 -0.11202071 457.3480072 -0.11241527 C458.99767768 -0.11252769 460.64734817 -0.1126391 462.29701865 -0.11274952 C515.27027348 -0.11629838 568.24351473 -0.13137432 621.21676438 -0.15468726 C659.28213813 -0.17143263 697.34750932 -0.18690553 735.4128868 -0.19142222 C736.19599596 -0.19151571 736.97910512 -0.1916092 737.78594486 -0.19170551 C754.97865891 -0.19372473 772.17137292 -0.19488064 789.36408709 -0.1952341 C795.51633734 -0.19537027 801.66858759 -0.19557926 807.82083784 -0.19582735 C809.35133947 -0.19588891 810.8818411 -0.19594723 812.41234273 -0.1960023 C836.7838148 -0.1969215 861.15527269 -0.20688233 885.5267401 -0.22145979 C910.08160493 -0.23608814 934.63645238 -0.24110998 959.1913208 -0.23304025 C962.58821707 -0.23192495 965.98511336 -0.23091426 969.38200969 -0.22996593 C970.38079052 -0.22968097 970.38079052 -0.22968097 971.39974874 -0.22939027 C982.56048103 -0.2264963 993.72118287 -0.23545909 1004.881908 -0.24760534 C1014.60218795 -0.25735532 1024.32242719 -0.25617685 1034.04270676 -0.24616911 C1039.57879554 -0.24077729 1045.11477276 -0.24006645 1050.6508523 -0.25267783 C1055.69636423 -0.26407551 1060.74167458 -0.26142828 1065.78717976 -0.24801075 C1067.5922895 -0.24559353 1069.39741507 -0.24810075 1071.20250731 -0.25640723 C1086.94388148 -0.3240285 1102.42269625 1.30000776 1117.56319064 5.8151505 C1118.42903781 6.06933751 1119.29488497 6.32352452 1120.18696994 6.58541417 C1139.67394986 12.53171063 1158.20338097 22.27560195 1174.00069064 35.1276505 C1174.55998263 35.58011144 1175.11927462 36.03257237 1175.69551486 36.49874425 C1185.96967251 44.86545139 1194.99412226 53.84437561 1203.06319064 64.3776505 C1206.3894356 68.62148028 1210.03380861 71.75053945 1214.30147189 75.0182755 C1241.78692136 96.49749795 1259.91859178 127.75241659 1269.00069064 161.1276505 C1269.35590792 162.38867589 1269.71112521 163.64970128 1270.07710665 164.94893956 C1271.59957263 171.98857705 1271.32971798 179.21059451 1271.33662814 186.3776505 C1271.34307238 187.96074086 1271.34980188 189.54383007 1271.35680026 191.12691808 C1271.36872966 194.43855089 1271.37248593 197.75007978 1271.37129611 201.06173253 C1271.37109398 205.25599482 1271.3983049 209.44957147 1271.43284053 213.64367223 C1271.4553513 216.91444359 1271.45912625 220.18505677 1271.45807666 223.45589757 C1271.4604 224.99929707 1271.46903327 226.54270322 1271.48474139 228.08602452 C1271.61727696 242.46092578 1269.04014396 255.89084478 1263.93819064 269.3776505 C1263.64855441 270.1493961 1263.35891818 270.92114171 1263.06050509 271.71627355 C1255.81328695 290.31181991 1245.70233312 307.32259535 1232.06319064 321.9089005 C1230.22623315 323.88502143 1228.52257899 325.91719671 1226.81319064 328.0026505 C1204.21252044 353.77261008 1170.09851482 369.02523917 1137.00069064 375.1276505 C1136.09454552 375.3042305 1135.18840041 375.48081049 1134.25479635 375.6627414 C1130.54769034 376.19236996 1126.91993798 376.26766599 1123.18499929 376.25760233 C1122.41158126 376.25950157 1121.63816324 376.26140081 1120.84130831 376.26335761 C1118.24119336 376.26851906 1115.64113257 376.26656634 1113.0410139 376.26466489 C1111.15337454 376.26692125 1109.26573566 376.26961272 1107.37809747 376.27270073 C1102.16480292 376.27994363 1096.95152276 376.28093 1091.73822385 376.2809235 C1086.07613874 376.28199192 1080.41406004 376.28878135 1074.75197846 376.2948302 C1063.50982953 376.3059116 1052.26768373 376.31155589 1041.02553031 376.31553908 C1031.67524719 376.31901671 1022.32496847 376.32481353 1012.97468776 376.33222508 C1011.96524006 376.33302173 1011.96524006 376.33302173 1010.93539948 376.33383446 C1008.19453779 376.33600118 1005.45367611 376.33817781 1002.71281444 376.3403684 C969.47934472 376.36687503 936.24587266 376.38243727 903.01239533 376.39553128 C892.2331321 376.39978171 881.45386904 376.40434936 870.67460603 376.4091146 C814.19131847 376.43402615 757.70803041 376.45608573 701.22473855 376.46830498 C697.08975952 376.46920234 692.9547805 376.47011705 688.81980147 376.47103272 C687.58943876 376.47130514 687.58943876 376.47130514 686.33422023 376.47158306 C678.02413716 376.47342571 669.7140541 376.47529157 661.40397103 376.47718115 C659.73778582 376.4775592 658.07160062 376.47793549 656.40541541 376.47831003 C602.91966967 376.49033419 549.43395651 376.52001149 495.94822612 376.56172514 C457.51899633 376.59168723 419.08977324 376.61930977 380.66053218 376.62900281 C379.86968118 376.62920337 379.07883019 376.62940392 378.26401401 376.62961055 C360.89990438 376.63396185 343.53579478 376.63690715 326.17168469 376.63853706 C319.18432141 376.63921339 312.19695816 376.64006891 305.20959491 376.64097524 C304.44488889 376.64106933 303.68018288 376.64116343 302.89230396 376.64126038 C278.28847422 376.64436889 253.68468601 376.6628558 229.08087122 376.6893252 C204.28408207 376.71591415 179.48733917 376.72659747 154.69053669 376.71558922 C151.25766206 376.71406785 147.82478738 376.71272238 144.39191264 376.71148229 C143.7190235 376.71123256 143.04613436 376.71098283 142.35285463 376.71072553 C131.0890015 376.70703034 119.82524161 376.72308674 108.56140628 376.74450142 C98.74205731 376.76178612 88.92281825 376.7607766 79.10346686 376.74513373 C73.51480083 376.73674401 67.92644269 376.73606158 62.33780552 376.75774519 C9.37061961 376.95057807 -34.68472908 364.81426177 -73.43485624 326.73263097 C-77.27430602 322.79371978 -80.64141953 318.47891607 -83.99930936 314.1276505 C-87.71780331 309.38657072 -91.5674329 305.82039717 -96.37821561 302.19405675 C-105.68996553 294.8529007 -113.87110841 286.61058929 -120.99930936 277.1276505 C-121.39714628 276.60477452 -121.79498319 276.08189855 -122.20487577 275.54317784 C-150.91552179 237.60210953 -160.87587708 190.45670157 -155.05375272 143.48311925 C-149.90778793 107.96718352 -134.8828759 76.05850519 -109.99930936 50.1276505 C-109.10985624 49.17503331 -108.22040311 48.22241612 -107.30399686 47.24093175 C-80.54577072 19.09514126 -39.06121432 -0.12018446 0 0 Z M-102.99930936 54.1276505 C-103.63997342 54.71675206 -104.28063749 55.30585362 -104.94071561 55.91280675 C-130.89935846 80.42595673 -146.57675768 119.76676292 -148.17631131 155.02975011 C-148.2024896 156.44640355 -148.22263528 157.86317789 -148.23759061 159.27999425 C-148.2474751 160.04859776 -148.25735959 160.81720128 -148.26754361 161.60909581 C-148.75362913 209.29525397 -135.83726802 252.18025057 -101.99930936 287.1276505 C-99.43725763 289.59980567 -96.75280976 291.87188068 -93.99930936 294.1276505 C-93.02606717 294.95007237 -92.05282499 295.77249425 -91.05009061 296.619838 C-68.80504333 315.05618815 -40.80175355 327.75207742 -11.99930936 331.1276505 C-10.97746827 331.25106534 -10.97746827 331.25106534 -9.93498393 331.37697341 C-0.88443444 332.34166682 8.15618062 332.26768269 17.24434012 332.25628495 C19.10160816 332.25763279 20.95887593 332.25941736 22.81614318 332.26159719 C27.92173454 332.2663193 33.02730802 332.26482807 38.13290024 332.26231941 C43.68677287 332.26068508 49.24064169 332.26482822 54.79451311 332.26822859 C64.52917063 332.2733819 74.26382318 332.27479991 83.99848193 332.27377248 C97.79690165 332.27231969 111.59531688 332.27591395 125.39373547 332.28091205 C153.42784747 332.29105177 181.46195746 332.29411786 209.49607108 332.29470416 C212.51275345 332.29476891 215.52943583 332.29483685 218.5461182 332.29490757 C219.29472408 332.29492457 220.04332995 332.29494158 220.81462086 332.2949591 C237.40837526 332.29536767 254.00212927 332.29755794 270.59588347 332.30006341 C277.42992324 332.30109178 284.26396302 332.30208181 291.09800279 332.30307966 C291.85311667 332.30319025 292.60823055 332.30330084 293.38622666 332.30341478 C336.65312225 332.30973815 379.92001759 332.31386397 423.18691367 332.31340623 C424.80584426 332.31339045 426.42477486 332.31337471 428.04370545 332.31335902 C435.35295456 332.31328564 442.66220367 332.31319747 449.97145277 332.31310514 C453.23079871 332.31306401 456.49014465 332.31302387 459.74949058 332.31298382 C461.38085089 332.31296343 463.0122112 332.31294241 464.64357151 332.31292076 C516.23372417 332.31224046 567.82386998 332.31955922 619.41402072 332.33346105 C632.41355944 332.33696209 645.41309816 332.34043155 658.41263694 332.34372544 C659.21307771 332.34392832 660.01351849 332.34413119 660.83821504 332.34434021 C685.50915507 332.35055534 710.18009452 332.35432079 734.8510353 332.35558343 C735.62561957 332.35562338 736.40020385 332.35566333 737.19826037 332.35570449 C754.20234249 332.35655777 771.20642458 332.35681896 788.21050672 332.35653412 C794.29485667 332.35643763 800.37920663 332.35638559 806.46355659 332.35635539 C807.97717461 332.35634747 809.49079262 332.35633727 811.00441063 332.35632476 C835.11839335 332.35614847 859.2323702 332.36184521 883.34635124 332.37047858 C907.6333424 332.3791297 931.92032544 332.38131872 956.2073175 332.37471726 C971.27506691 332.37062294 986.3427949 332.37185774 1001.41054229 332.38210879 C1011.02136929 332.38809569 1020.63217759 332.38682772 1030.24300372 332.37963829 C1035.72060776 332.37574591 1041.19816188 332.37501243 1046.67576245 332.38309564 C1051.66229891 332.39038983 1056.64874399 332.3884199 1061.63527642 332.37917178 C1063.42465053 332.37745539 1065.21403185 332.37906269 1067.00339861 332.38447298 C1093.67101993 332.45968185 1118.96829085 326.78089854 1143.00069064 315.1276505 C1144.61137423 314.35614659 1144.61137423 314.35614659 1146.25459689 313.56905675 C1159.03273972 307.00328613 1170.31193884 297.62876321 1181.00069064 288.1276505 C1182.05643283 287.1995255 1182.05643283 287.1995255 1183.13350314 286.2526505 C1209.89774118 261.16817635 1226.68378147 222.15125019 1228.30415744 185.71261144 C1228.44465597 181.01518083 1228.46795753 176.321056 1228.44673556 171.62179112 C1228.4382156 168.76103327 1228.46715478 165.90227639 1228.49873751 163.041713 C1228.56276319 146.39084648 1226.31790922 130.07535249 1220.75069064 114.3151505 C1220.45332003 113.45317052 1220.15594943 112.59119054 1219.84956759 111.70308995 C1212.92471626 92.24326716 1202.06125637 74.24242922 1188.00069064 59.1276505 C1187.43720919 58.52034093 1186.87372775 57.91303136 1186.29317111 57.28731847 C1173.21242812 43.35325166 1158.92841698 32.92055776 1142.00069064 24.1276505 C1141.39821505 23.80812413 1140.79573947 23.48859776 1140.17500705 23.15938878 C1132.60262449 19.18518636 1124.89560934 16.27759943 1116.68819064 13.8776505 C1115.89582003 13.64344396 1115.10344943 13.40923741 1114.28706759 13.1679337 C1099.17321135 8.98820688 1084.33207103 7.68386596 1068.73115271 7.7557137 C1066.84776225 7.75318485 1064.96437318 7.74934046 1063.08098772 7.74431634 C1057.93547003 7.73435682 1052.79012921 7.74291097 1047.64462153 7.75465056 C1042.03540087 7.76410627 1036.42619998 7.75604228 1030.8169781 7.75025225 C1020.9960773 7.74251073 1011.17522945 7.74586745 1001.35433215 7.75657582 C990.823815 7.76802609 980.2933235 7.77304542 969.7628004 7.77003407 C968.76277072 7.76975424 968.76277072 7.76975424 967.74253842 7.76946875 C964.34268788 7.76848828 960.9428374 7.76740348 957.54298691 7.76628354 C932.97179208 7.75841703 908.40061866 7.76516883 883.8294279 7.77989507 C859.49765302 7.79444798 835.16588792 7.80320296 810.83410853 7.80408025 C809.30498763 7.80414188 807.77586673 7.80420359 806.24674583 7.80426538 C800.1016728 7.8045011 793.95659977 7.80468692 787.81152674 7.80481352 C770.63498492 7.80517524 753.45844324 7.80652313 736.28190154 7.80857778 C735.10874352 7.80871726 735.10874352 7.80871726 733.91188534 7.80885956 C695.88785433 7.81347528 657.86382922 7.82963469 619.83980197 7.8464005 C566.97619412 7.86970887 514.11259461 7.88386977 461.24898165 7.88741612 C459.60351095 7.88752851 457.95804024 7.88764115 456.31256953 7.88775405 C450.56445582 7.88814752 444.8163421 7.88853469 439.06822838 7.88892118 C434.15899449 7.88925128 429.2497606 7.88958316 424.34052671 7.88991704 C421.89267793 7.8900825 419.44482914 7.89024464 416.99698036 7.89040666 C365.78827973 7.89383647 314.57958056 7.9049928 263.37088147 7.91764987 C247.39181534 7.92159132 231.41274931 7.92509076 215.43368286 7.92746186 C183.43185797 7.93226146 151.43003805 7.93933087 119.42821664 7.95560953 C116.72506892 7.95697234 114.02192119 7.9583223 111.31877345 7.95966268 C110.32367931 7.96015897 110.32367931 7.96015897 109.30848226 7.96066528 C99.44512219 7.96550652 89.58176421 7.96757648 79.71840304 7.96807027 C68.74773755 7.96862163 57.77707988 7.97246272 46.80641744 7.98084619 C41.28119698 7.98497258 35.75598805 7.98752764 30.23076607 7.98573098 C25.20463099 7.98413444 20.17852036 7.98712809 15.15238964 7.99378654 C13.34532564 7.99537984 11.53825919 7.99530591 9.73119554 7.99335927 C-34.21174564 7.9504263 -71.36375954 23.66198234 -102.99930936 54.1276505 Z " fill="#010101" transform="translate(158.999309360981,0.8723495006561279)"/>
<path d="M0 0 C9.32893872 7.80584669 17.9543438 20.0659813 19.06787109 32.53466797 C19.69090918 50.57256455 17.0968444 63.49210588 5 77.5546875 C-4.43656755 87.63811654 -16.5175157 92.9993381 -30.26171875 93.61328125 C-46.36665649 94.00428039 -59.20334202 89.50178467 -71.25 78.40234375 C-81.5274272 67.28987559 -86.50383519 52.70344799 -86.3359375 37.77734375 C-85.45848633 23.62438133 -78.37971771 10.91850342 -68.125 1.375 C-47.6183674 -15.4236723 -21.37470347 -15.90902587 0 0 Z " fill="#030202" transform="translate(288.125,132.625)"/>
<path d="M0 0 C1.27617188 0.34998047 1.27617188 0.34998047 2.578125 0.70703125 C15.62927396 4.79017643 25.68718697 13.92337824 32.52734375 25.609375 C39.16233333 38.30239854 40.30773378 53.22599896 36.4375 67.0625 C34.19199157 73.2716105 30.88424538 78.68471685 27 84 C26.39285156 84.83402344 25.78570313 85.66804688 25.16015625 86.52734375 C16.67292628 96.24238276 3.78101779 102.13223654 -8.95336914 103.15722656 C-23.67907415 103.9670978 -35.09309018 101.09425395 -47 92 C-47.92039062 91.34257812 -47.92039062 91.34257812 -48.859375 90.671875 C-58.01472267 83.6230675 -64.31014883 71.35955506 -66 60 C-67.24181636 42.9356637 -65.45901753 29.45872843 -54 16 C-40.02005222 0.7924224 -20.07707601 -5.98850715 0 0 Z " fill="#020202" transform="translate(1153,123)"/>
<path d="M0 0 C59.82707536 0 59.82707536 0 74.54101562 13.53173828 C84.73626001 23.79181186 89.28672524 35.29746302 89.4375 49.5625 C89.44789307 50.43712891 89.45828613 51.31175781 89.46899414 52.21289062 C89.26368074 67.31262939 82.51561165 78.57335291 72 89 C53.00256208 106.86617365 23.01924829 101 0 101 C0 67.67 0 34.34 0 0 Z " fill="#010101" transform="translate(98,122)"/>
<path d="M0 0 C12.808125 -0.0928125 12.808125 -0.0928125 25.875 -0.1875 C28.55093262 -0.21481201 31.22686523 -0.24212402 33.98388672 -0.27026367 C36.1324824 -0.27903506 38.28108312 -0.28667745 40.4296875 -0.29296875 C41.52289307 -0.30831665 42.61609863 -0.32366455 43.74243164 -0.33947754 C53.87075901 -0.34289389 62.13537955 1.39239162 70.01953125 7.96484375 C76.23157226 14.34842041 78.32144682 21.57694819 78.30859375 30.265625 C77.8705526 34.14700229 76.41060985 37.30027959 74.6796875 40.7734375 C73.7644413 42.98971397 73.7644413 42.98971397 74.73046875 45.11328125 C76.09806058 47.2282208 76.09806058 47.2282208 78.4375 49.8125 C85.19391093 57.74480546 85.76006494 68.00655353 85 78 C83.78010361 84.51300617 81.09270379 89.70816495 76 94 C68.76575824 98.67211447 61.64672627 102.26457822 52.90283203 102.22705078 C51.10712769 102.22668823 51.10712769 102.22668823 49.27514648 102.22631836 C48.03192627 102.21608643 46.78870605 102.20585449 45.5078125 102.1953125 C44.354021 102.19329834 43.20022949 102.19128418 42.01147461 102.18920898 C37.71594243 102.17877267 33.42046708 102.15085012 29.125 102.125 C14.708125 102.063125 14.708125 102.063125 0 102 C0 68.34 0 34.68 0 0 Z " fill="#040303" transform="translate(434,121)"/>
<path d="M0 0 C2.64 1.98 5.28 3.96 8 6 C8.97324219 6.72703125 9.94648437 7.4540625 10.94921875 8.203125 C17.79781277 13.32247346 24.59045268 18.50930695 31.35888672 23.73388672 C34.60667741 26.23954612 37.85934379 28.73887447 41.11157227 31.23876953 C43.89753863 33.38078388 46.68113812 35.52576797 49.4609375 37.67578125 C50.03263672 38.11728516 50.60433594 38.55878906 51.19335938 39.01367188 C52.77277579 40.23354634 54.35126395 41.45462237 55.9296875 42.67578125 C59.23910503 45.1810019 62.62243017 47.58745012 66 50 C66.33 33.5 66.66 17 67 0 C75.25 0 83.5 0 92 0 C92 33.33 92 66.66 92 101 C89.13061935 99.56530968 86.88225844 98.30130223 84.33984375 96.453125 C83.63867432 95.94531494 82.93750488 95.43750488 82.21508789 94.91430664 C81.46348389 94.36508545 80.71187988 93.81586426 79.9375 93.25 C79.14529053 92.67435303 78.35308105 92.09870605 77.53686523 91.50561523 C69.47933982 85.64177826 61.45856719 79.72780604 53.44384766 73.80566406 C49.21428751 70.68060643 44.98236339 67.55875949 40.75 64.4375 C39.5889978 63.58007202 39.5889978 63.58007202 38.40454102 62.70532227 C37.29937134 61.89019165 37.29937134 61.89019165 36.171875 61.05859375 C35.5334668 60.58736084 34.89505859 60.11612793 34.23730469 59.63061523 C31.17427662 57.39818786 28.08424018 55.2030287 25 53 C24.67 68.84 24.34 84.68 24 101 C16.08 101 8.16 101 0 101 C0 67.67 0 34.34 0 0 Z " fill="#020202" transform="translate(1207,121)"/>
<path d="M0 0 C5.81566221 5.46672248 9.83984185 12.3142033 11.34375 20.203125 C11.34375 22.513125 11.34375 24.823125 11.34375 27.203125 C4.08375 27.203125 -3.17625 27.203125 -10.65625 27.203125 C-11.31625 24.563125 -11.97625 21.923125 -12.65625 19.203125 C-16.82980202 14.79770898 -21.49498228 13.37398497 -27.4609375 12.90234375 C-28.81758126 12.88336856 -30.17451619 12.87986747 -31.53125 12.890625 C-32.23652832 12.89408936 -32.94180664 12.89755371 -33.66845703 12.90112305 C-39.02562417 13.01316918 -42.95563973 13.66479545 -47.65625 16.203125 C-49.82242415 19.45238622 -49.86960669 19.8016492 -49.28125 23.390625 C-49.075 24.64875 -48.86875 25.906875 -48.65625 27.203125 C-47.934375 27.491875 -47.2125 27.780625 -46.46875 28.078125 C-44.80876984 28.74211707 -43.15910869 29.43518542 -41.5390625 30.19140625 C-37.65482549 31.55457344 -33.78698352 31.97621757 -29.71875 32.515625 C-15.29122157 34.6458641 -2.63358547 38.43499241 6.78125 50.265625 C11.55786095 57.21221987 12.19966628 63.90491232 11.34375 72.203125 C9.17620953 80.28112377 5.75655605 85.82870385 -1.34375 90.328125 C-14.1525947 97.65553763 -29.66149407 99.15581355 -44.109375 96.58984375 C-54.25601002 93.5750713 -63.07096486 87.59851958 -68.5078125 78.421875 C-72.05527125 71.56828123 -72.65625 67.42339011 -72.65625 59.203125 C-65.39625 59.203125 -58.13625 59.203125 -50.65625 59.203125 C-49.99625 62.173125 -49.33625 65.143125 -48.65625 68.203125 C-46.11372706 71.62237998 -43.67564109 72.93973549 -39.65625 74.203125 C-36.54885297 74.54068505 -33.46735271 74.57326336 -30.34375 74.578125 C-29.52712891 74.60261719 -28.71050781 74.62710938 -27.86914062 74.65234375 C-22.21529924 74.67937407 -17.18708144 73.8253047 -12.65625 70.203125 C-11.46960999 66.22439084 -11.34628108 64.13303175 -12.65625 60.203125 C-14.90368756 59.05291975 -14.90368756 59.05291975 -17.65625 58.203125 C-18.47222656 57.89246094 -19.28820312 57.58179688 -20.12890625 57.26171875 C-25.92841702 55.52122327 -31.91457303 54.77785422 -37.89453125 53.87890625 C-49.37367968 52.01864899 -60.37719848 48.40082339 -67.515625 38.66796875 C-72.30870395 30.91915777 -73.77075856 24.34642336 -72.65625 15.203125 C-69.67613091 6.17479374 -64.7342037 -0.36856304 -56.4609375 -5.03515625 C-54.22362022 -6.10704171 -52.00036362 -6.9870163 -49.65625 -7.796875 C-49.016875 -8.02246094 -48.3775 -8.24804688 -47.71875 -8.48046875 C-31.79612099 -12.98980705 -12.9383559 -10.27457674 0 0 Z " fill="#030303" transform="translate(917.65625,125.796875)"/>
<path d="M0 0 C6.28354933 5.57692181 10.22979496 11.73127908 12 20 C12 22.31 12 24.62 12 27 C5.07 27 -1.86 27 -9 27 C-9.99 24.36 -10.98 21.72 -12 19 C-18.02526881 14.1044691 -22.90509314 13.79472397 -30.3125 13.75 C-31.15490234 13.729375 -31.99730469 13.70875 -32.86523438 13.6875 C-38.01820398 13.65526876 -41.53214324 14.1461132 -46 17 C-48.280721 18.87424716 -48.280721 18.87424716 -48.375 21.875 C-48.25151852 25.01798622 -48.25151852 25.01798622 -46.4375 27.1875 C-40.66598461 31.47913965 -34.83100425 32.51165616 -27.875 33.375 C-14.67182232 35.25661228 -1.10558467 39.13720903 7.4375 50.0625 C12.85739161 57.61328917 13.08553336 66.03018575 12 75 C9.95322397 82.36839371 5.44813362 87.95834687 -1 92 C-14.68058825 98.36883492 -30.97181963 100.95701417 -45.6875 96.375 C-56.13812239 92.16531267 -64.75294688 85.57515697 -69.4375 75.125 C-71.67058838 69.7618505 -71 66.51141391 -71 60 C-64.07 60 -57.14 60 -50 60 C-49.12109375 62.76692708 -48.2421875 65.53385417 -47.36328125 68.30078125 C-45.70865294 71.57685048 -44.29530485 72.47338951 -41 74 C-36.73022978 75.25951118 -32.60806738 75.2212717 -28.1875 75.25 C-27.40568359 75.270625 -26.62386719 75.29125 -25.81835938 75.3125 C-20.46025099 75.34831025 -16.73825173 74.55184276 -12 72 C-10.36808677 68.73617354 -10.45137012 66.59657367 -11 63 C-16.29627756 57.80906175 -23.15083421 56.93281449 -30.1875 56 C-43.89742533 53.88543119 -56.2689857 50.78220052 -65.8125 40 C-69.80821463 34.52016279 -71.56422309 30.04545281 -71.5 23.25 C-71.49427979 22.54625244 -71.48855957 21.84250488 -71.48266602 21.11743164 C-71.20669449 13.01390404 -68.22017006 7.21530623 -62.875 1.1875 C-46.79853135 -13.63081023 -16.75551908 -12.89103067 0 0 Z " fill="#020202" transform="translate(733,125)"/>
<path d="M0 0 C6.72567155 5.30036367 11.42099898 10.97444782 13.76953125 19.39453125 C13.76953125 22.36453125 13.76953125 25.33453125 13.76953125 28.39453125 C6.83953125 28.39453125 -0.09046875 28.39453125 -7.23046875 28.39453125 C-8.22046875 25.75453125 -9.21046875 23.11453125 -10.23046875 20.39453125 C-16.25573756 15.49900035 -21.13556189 15.18925522 -28.54296875 15.14453125 C-29.38537109 15.12390625 -30.22777344 15.10328125 -31.09570312 15.08203125 C-36.24867273 15.04980001 -39.76261199 15.54064445 -44.23046875 18.39453125 C-46.51118975 20.26877841 -46.51118975 20.26877841 -46.60546875 23.26953125 C-46.48198727 26.41251747 -46.48198727 26.41251747 -44.66796875 28.58203125 C-37.76416545 33.71562858 -29.86699719 34.49342991 -21.58789062 35.76757812 C-8.79151405 37.88994731 2.82888267 42.57123451 10.578125 53.3671875 C13.4849328 58.31352601 14.10859712 62.58443525 14.08203125 68.26953125 C14.09814453 68.95144531 14.11425781 69.63335937 14.13085938 70.3359375 C14.13827077 78.1179038 11.04854468 83.89780705 5.84375 89.5390625 C2.2223495 92.77854506 -1.73532621 94.6338226 -6.23046875 96.39453125 C-7.01679687 96.71421875 -7.803125 97.03390625 -8.61328125 97.36328125 C-20.2013258 101.28650636 -35.34640336 101.22230266 -46.69140625 96.65234375 C-56.98285265 91.55411953 -64.14812333 84.9730512 -68.6015625 74.27734375 C-69.23046875 71.39453125 -69.23046875 71.39453125 -69.23046875 61.39453125 C-62.30046875 61.39453125 -55.37046875 61.39453125 -48.23046875 61.39453125 C-44.23046875 71.14453125 -44.23046875 71.14453125 -44.23046875 73.39453125 C-43.05484375 73.85859375 -43.05484375 73.85859375 -41.85546875 74.33203125 C-39.23046875 75.39453125 -39.23046875 75.39453125 -37.23046875 76.39453125 C-27.87027552 76.89271963 -18.91646802 77.34271273 -10.23046875 73.39453125 C-8.35782199 71.52188449 -8.99439497 68.89693178 -8.90234375 66.40234375 C-9.33945785 63.72762176 -10.06015578 63.00505948 -12.23046875 61.39453125 C-18.65299599 58.72875554 -25.28449017 57.28056255 -32.16796875 56.45703125 C-45.01416251 54.81008333 -56.47166196 50.68414898 -64.60546875 40.33203125 C-70.02622229 32.92770588 -70.08607551 25.24186925 -69.23046875 16.39453125 C-67.05967709 8.51223919 -61.91148139 2.90872898 -55.23046875 -1.60546875 C-38.49151684 -10.25464442 -15.94795486 -11.11320644 0 0 Z " fill="#020202" transform="translate(1017.23046875,123.60546875)"/>
<path d="M0 0 C23.76 0 47.52 0 72 0 C72 7.26 72 14.52 72 22 C56.49 22 40.98 22 25 22 C25 27.94 25 33.88 25 40 C38.2 40 51.4 40 65 40 C65 47.26 65 54.52 65 62 C51.8 62 38.6 62 25 62 C25 67.94 25 73.88 25 80 C40.51 80 56.02 80 72 80 C72 87.26 72 94.52 72 102 C48.24 102 24.48 102 0 102 C0 68.34 0 34.68 0 0 Z " fill="#050505" transform="translate(760,121)"/>
<path d="M0 0 C7.59 0 15.18 0 23 0 C23.00410889 1.92714844 23.00821777 3.85429688 23.01245117 5.83984375 C23.03190149 12.23024592 23.07429254 18.62017939 23.13209057 25.01034546 C23.16628041 28.88213745 23.19145793 32.75353823 23.19555664 36.62548828 C23.19985703 40.36709503 23.22846122 44.10782051 23.27343178 47.84915161 C23.28635172 49.27152357 23.29073404 50.6940013 23.28615379 52.11642456 C23.26620728 60.19691836 23.29567736 66.82828345 29 73 C33.8092799 76.82194429 39.6124091 78.87668721 45.76953125 78.484375 C52.85621788 76.94540978 57.94072527 72.83520742 62 67 C63.092928 63.721216 63.15783872 61.23715589 63.20532227 57.78442383 C63.22526749 56.5033223 63.24521271 55.22222076 63.26576233 53.90229797 C63.2827454 52.50387696 63.29962425 51.10545469 63.31640625 49.70703125 C63.33698166 48.2764171 63.35797829 46.84580895 63.37937927 45.41520691 C63.43453933 41.65219994 63.48397529 37.88913865 63.53222656 34.1260376 C63.58248593 30.28514784 63.63814883 26.44433684 63.69335938 22.60351562 C63.80086675 15.06907528 63.90182869 7.53456884 64 0 C71.59 0 79.18 0 87 0 C87.09078438 8.41536278 87.16399218 16.83033749 87.20724869 25.24606037 C87.22802168 29.15486831 87.25614768 33.06332054 87.30175781 36.97192383 C87.34558743 40.75209682 87.36921422 44.53193016 87.37950897 48.31233788 C87.38683447 49.74629237 87.40113733 51.18023071 87.42292023 52.61403847 C87.61223994 65.60588335 85.08106368 75.65781145 77 86 C76.52175781 86.61617188 76.04351562 87.23234375 75.55078125 87.8671875 C68.50698776 95.85133629 56.58434442 101.00067584 46.18359375 102.37109375 C33.07537354 102.68807774 21.68378457 97.70911794 12 89 C3.71561587 80.43740895 -0.1365051 70.30012468 -0.11352539 58.46557617 C-0.11344986 57.16460495 -0.11337433 55.86363373 -0.11329651 54.52323914 C-0.10819062 53.11314861 -0.10297464 51.70305849 -0.09765625 50.29296875 C-0.09578979 48.84279937 -0.09436696 47.39262935 -0.09336853 45.94245911 C-0.0895613 42.13667034 -0.07974642 38.33092009 -0.06866455 34.52514648 C-0.05841177 30.63721233 -0.05386264 26.74927192 -0.04882812 22.86132812 C-0.03812246 15.24086587 -0.02054028 7.62044325 0 0 Z " fill="#030303" transform="translate(324,121)"/>
<path d="M0 0 C25.41 0 50.82 0 77 0 C77 7.92 77 15.84 77 24 C68.42 24 59.84 24 51 24 C51 49.74 51 75.48 51 102 C42.75 102 34.5 102 26 102 C26 76.26 26 50.52 26 24 C17.42 24 8.84 24 0 24 C0 16.08 0 8.16 0 0 Z " fill="#030303" transform="translate(529,121)"/>
<path d="M0 0 C8.70064678 4.63262391 14.18579758 10.76442398 17.34765625 20.25 C18.08797242 30.26247274 18.01906348 39.30739125 11.58203125 47.49609375 C4.56380815 55.02548664 -2.95365281 58.30849459 -13.15234375 58.6875 C-21.61671184 58.6169636 -27.98497054 56.01648392 -34.5546875 50.71484375 C-40.37120858 44.69111835 -43.87382525 35.92703669 -44.21484375 27.625 C-43.70902175 18.59802276 -40.09419424 11.74851412 -33.9453125 5.23046875 C-24.17923162 -3.20463007 -11.75253756 -5.36407419 0 0 Z " fill="#F2EADE" transform="translate(267.65234375,145.75)"/>
<path d="M0 0 C5.66615454 3.95781956 9.3667529 8.36226717 12.0859375 14.70703125 C14.07978033 26.12631289 13.15710589 35.50077535 7.0859375 45.39453125 C-0.33078342 52.61080025 -7.73103655 55.64789193 -18.0390625 56.08203125 C-24.8956536 55.98720605 -29.53919392 54.37448808 -35.2265625 50.64453125 C-36.1340625 50.08765625 -37.0415625 49.53078125 -37.9765625 48.95703125 C-45.51614527 41.20801562 -47.57999888 33.32246259 -47.60717773 22.85742188 C-47.40967647 14.08399881 -44.32601515 8.35583647 -38.0390625 2.26953125 C-26.1617661 -7.42862482 -12.98215933 -7.90317419 0 0 Z " fill="#F2EBDF" transform="translate(1156.2265625,148.35546875)"/>
<path d="M0 0 C7.92 0 15.84 0 24 0 C24 33.33 24 66.66 24 101 C16.08 101 8.16 101 0 101 C0 67.67 0 34.34 0 0 Z " fill="#000000" transform="translate(1048,121)"/>
<path d="M0 0 C24.91891892 0 24.91891892 0 33.8125 7.3125 C40.78787957 15.88225204 43.08133754 22.85586256 42 34 C39.77836319 41.75947296 34.68868593 47.6051578 28 52 C20 55 20 55 0 55 C0 36.85 0 18.7 0 0 Z " fill="#F0E8DC" transform="translate(122,145)"/>
<path d="M0 0 C4.46632402 -0.06902733 8.93078355 -0.12870934 13.3972168 -0.16479492 C14.91518438 -0.17984353 16.43310876 -0.20028738 17.95092773 -0.22631836 C20.13796677 -0.26287653 22.32442896 -0.27976523 24.51171875 -0.29296875 C25.82615967 -0.3086792 27.14060059 -0.32438965 28.49487305 -0.34057617 C33.38867032 0.13493035 35.85221239 1.88323368 39.3125 5.25 C41.51655907 8.84179997 41.58324027 10.8444131 41 15 C38.89391931 18.98650988 37.2562664 21.46108645 33 23 C30.42465327 23.16786322 27.96245607 23.23317374 25.390625 23.1953125 C24.66381531 23.1924826 23.93700562 23.18965271 23.18817139 23.18673706 C20.87527749 23.17557523 18.56277612 23.15047851 16.25 23.125 C14.67839102 23.11496501 13.10677596 23.10584006 11.53515625 23.09765625 C7.68983264 23.07735359 3.84535377 23.03819888 0 23 C0 15.41 0 7.82 0 0 Z " fill="#F1E9DD" transform="translate(459,181)"/>
<path d="M0 0 C4.20941007 -0.13510945 8.41447281 -0.23419583 12.625 -0.3125 C13.81480469 -0.35439453 15.00460937 -0.39628906 16.23046875 -0.43945312 C26.12131513 -0.57759344 26.12131513 -0.57759344 29.7734375 2.39453125 C32.8280324 5.96894318 33.39399269 8.14325331 33.359375 12.89453125 C32.72418186 16.61593453 30.66020984 18.40312849 28 21 C25.28598706 22.35700647 23.15153684 22.1123861 20.1171875 22.09765625 C18.95058594 22.09443359 17.78398437 22.09121094 16.58203125 22.08789062 C15.35871094 22.07951172 14.13539063 22.07113281 12.875 22.0625 C11.64394531 22.05798828 10.41289062 22.05347656 9.14453125 22.04882812 C6.09633361 22.03701341 3.04816084 22.0190775 0 22 C0 14.74 0 7.48 0 0 Z " fill="#F3EBDF" transform="translate(459,140)"/>
</svg>
