<?xml version="1.0" encoding="UTF-8"?>
<svg version="1.1" xmlns="http://www.w3.org/2000/svg" width="713" height="377">
<path d="M0 0 C4.34772762 0.00457995 8.69544003 -0.00248635 13.04316449 -0.00795984 C21.53172217 -0.01679712 30.02024424 -0.01495731 38.50880325 -0.00913456 C45.41506585 -0.00459558 52.32131855 -0.00401477 59.22758222 -0.00618219 C60.21502843 -0.00648866 61.20247465 -0.00679513 62.21984348 -0.00711088 C64.22657391 -0.00775041 66.23330433 -0.00839884 68.24003476 -0.00905606 C87.00412671 -0.01474276 105.76819904 -0.00822763 124.53228778 0.00254467 C140.5907073 0.01147866 156.6490979 0.00992615 172.70751691 0.00070715 C191.40998823 -0.01002494 210.1124424 -0.01419359 228.81491637 -0.00806832 C230.81376926 -0.00743131 232.81262215 -0.00680256 234.81147504 -0.00618219 C236.28622387 -0.00571937 236.28622387 -0.00571937 237.79076561 -0.00524719 C244.67909185 -0.00352905 251.5674071 -0.00641624 258.45573163 -0.0111413 C266.86407888 -0.01678291 275.27238885 -0.01516535 283.68073189 -0.00457981 C287.96086345 0.00063313 292.24093311 0.00280956 296.52106404 -0.00387812 C340.73623598 -0.06721227 340.73623598 -0.06721227 358.14452863 4.44894934 C359.00239972 4.66470617 359.86027081 4.88046301 360.744138 5.10275793 C388.84776446 12.43840326 413.59168885 26.10622644 434.51952863 46.26144934 C435.00405499 46.72551184 435.48858136 47.18957434 435.98779035 47.66769934 C449.03768822 60.22306616 449.03768822 60.22306616 453.51952863 67.26144934 C453.51952863 67.92144934 453.51952863 68.58144934 453.51952863 69.26144934 C454.09187238 69.52699621 454.66421613 69.79254309 455.25390363 70.06613684 C476.93398446 81.50424845 493.65934669 105.99735104 504.51952863 127.26144934 C504.84292218 127.89437902 505.16631574 128.52730871 505.4995091 129.17941809 C526.11057963 170.12716702 528.57286367 221.22046674 514.73339581 264.73312902 C504.2271162 295.19504872 485.4416856 323.79366523 459.51952863 343.26144934 C458.98601789 343.66460363 458.45250714 344.06775793 457.90282941 344.48312902 C438.71812799 358.8896494 417.7776374 368.44303859 394.51952863 374.26144934 C393.85740912 374.43512205 393.19528961 374.60879476 392.51310587 374.78773028 C384.48707352 376.65934006 376.46860013 376.54965681 368.27947736 376.535604 C366.63660343 376.54006194 364.99373165 376.5453778 363.35086298 376.55147272 C358.85528373 376.56559723 354.35977381 376.56731707 349.86417556 376.56687582 C345.00770169 376.568529 340.15125596 376.58160511 335.29479718 376.5930686 C324.68268075 376.61588183 314.07058437 376.6238357 303.45844674 376.62889504 C296.82382847 376.63215726 290.18921596 376.63868302 283.55460095 376.64589643 C265.16223963 376.66545992 246.76988366 376.68186482 228.37751126 376.68477297 C227.20135234 376.68496054 226.02519341 376.68514811 224.81339331 376.68534136 C222.42931056 376.6857076 220.04522781 376.6860713 217.66114506 376.68643247 C216.47778078 376.68661528 215.2944165 376.6867981 214.07519269 376.68698645 C212.89037263 376.687167 211.70555256 376.68734754 210.48482886 376.68753356 C191.30762601 376.69107149 172.13053571 376.71807113 152.95337185 376.75548434 C133.23422664 376.79364485 113.51513715 376.81293102 93.79595423 376.81323248 C82.73668199 376.81381541 71.67754392 376.82220087 60.6183064 376.85123014 C51.19665457 376.87584814 41.77518583 376.88295722 32.35351047 376.86798262 C27.55475006 376.86085536 22.7563504 376.86148832 17.95763135 376.88439322 C-19.65141996 377.0531786 -19.65141996 377.0531786 -37.48047137 371.26144934 C-38.23375925 371.01778942 -38.98704712 370.7741295 -39.7631619 370.52308595 C-59.91862984 363.86994126 -79.55770271 353.30951894 -95.48047137 339.26144934 C-96.34414325 338.50734777 -97.20781512 337.75324621 -98.09765887 336.97629309 C-100.58907623 334.76885187 -103.04261242 332.52780063 -105.48047137 330.26144934 C-106.15722919 329.63883215 -106.833987 329.01621496 -107.53125262 328.37473059 C-111.62681044 324.45973844 -115.05081236 320.24512886 -118.41797137 315.69894934 C-121.90150992 311.02059955 -125.44214626 307.3245387 -130.19531512 303.92941809 C-134.58765151 300.72338794 -138.50272692 296.95971174 -142.48047137 293.26144934 C-143.12500262 292.68266027 -143.76953387 292.10387121 -144.43359637 291.50754309 C-171.59051057 266.00514677 -189.2963704 225.82322193 -190.76806903 188.69431067 C-190.89271398 183.73293363 -190.90267593 178.77438782 -190.87158465 173.81174231 C-190.85548788 170.76457495 -190.87153718 167.71873337 -190.89062762 164.67160559 C-190.90840532 148.90797173 -189.26873778 133.93271631 -184.79297137 118.76144934 C-184.53878436 117.89109045 -184.28459735 117.02073156 -184.0227077 116.12399817 C-176.51295068 91.38742947 -163.17941483 69.94527672 -145.48047137 51.26144934 C-144.60004169 50.31656652 -143.719612 49.37168371 -142.81250262 48.39816809 C-130.82216856 35.78998789 -116.91786035 26.18224459 -101.48047137 18.26144934 C-100.86881122 17.94337317 -100.25715106 17.62529699 -99.62695575 17.29758215 C-68.16046494 1.12495503 -34.61688515 -0.05408862 0 0 Z " fill="#B3C6F1" transform="translate(190.48047137260437,0.7385506629943848)"/>
<path d="M0 0 C4.34772762 0.00457995 8.69544003 -0.00248635 13.04316449 -0.00795984 C21.53172217 -0.01679712 30.02024424 -0.01495731 38.50880325 -0.00913456 C45.41506585 -0.00459558 52.32131855 -0.00401477 59.22758222 -0.00618219 C60.21502843 -0.00648866 61.20247465 -0.00679513 62.21984348 -0.00711088 C64.22657391 -0.00775041 66.23330433 -0.00839884 68.24003476 -0.00905606 C87.00412671 -0.01474276 105.76819904 -0.00822763 124.53228778 0.00254467 C140.5907073 0.01147866 156.6490979 0.00992615 172.70751691 0.00070715 C191.40998823 -0.01002494 210.1124424 -0.01419359 228.81491637 -0.00806832 C230.81376926 -0.00743131 232.81262215 -0.00680256 234.81147504 -0.00618219 C236.28622387 -0.00571937 236.28622387 -0.00571937 237.79076561 -0.00524719 C244.67909185 -0.00352905 251.5674071 -0.00641624 258.45573163 -0.0111413 C266.86407888 -0.01678291 275.27238885 -0.01516535 283.68073189 -0.00457981 C287.96086345 0.00063313 292.24093311 0.00280956 296.52106404 -0.00387812 C340.73623598 -0.06721227 340.73623598 -0.06721227 358.14452863 4.44894934 C359.00239972 4.66470617 359.86027081 4.88046301 360.744138 5.10275793 C388.84776446 12.43840326 413.59168885 26.10622644 434.51952863 46.26144934 C435.00405499 46.72551184 435.48858136 47.18957434 435.98779035 47.66769934 C449.03768822 60.22306616 449.03768822 60.22306616 453.51952863 67.26144934 C453.51952863 67.92144934 453.51952863 68.58144934 453.51952863 69.26144934 C454.09187238 69.52699621 454.66421613 69.79254309 455.25390363 70.06613684 C476.93398446 81.50424845 493.65934669 105.99735104 504.51952863 127.26144934 C504.84292218 127.89437902 505.16631574 128.52730871 505.4995091 129.17941809 C526.11057963 170.12716702 528.57286367 221.22046674 514.73339581 264.73312902 C504.2271162 295.19504872 485.4416856 323.79366523 459.51952863 343.26144934 C458.98601789 343.66460363 458.45250714 344.06775793 457.90282941 344.48312902 C438.71812799 358.8896494 417.7776374 368.44303859 394.51952863 374.26144934 C393.85740912 374.43512205 393.19528961 374.60879476 392.51310587 374.78773028 C384.48707352 376.65934006 376.46860013 376.54965681 368.27947736 376.535604 C366.63660343 376.54006194 364.99373165 376.5453778 363.35086298 376.55147272 C358.85528373 376.56559723 354.35977381 376.56731707 349.86417556 376.56687582 C345.00770169 376.568529 340.15125596 376.58160511 335.29479718 376.5930686 C324.68268075 376.61588183 314.07058437 376.6238357 303.45844674 376.62889504 C296.82382847 376.63215726 290.18921596 376.63868302 283.55460095 376.64589643 C265.16223963 376.66545992 246.76988366 376.68186482 228.37751126 376.68477297 C227.20135234 376.68496054 226.02519341 376.68514811 224.81339331 376.68534136 C222.42931056 376.6857076 220.04522781 376.6860713 217.66114506 376.68643247 C216.47778078 376.68661528 215.2944165 376.6867981 214.07519269 376.68698645 C212.89037263 376.687167 211.70555256 376.68734754 210.48482886 376.68753356 C191.30762601 376.69107149 172.13053571 376.71807113 152.95337185 376.75548434 C133.23422664 376.79364485 113.51513715 376.81293102 93.79595423 376.81323248 C82.73668199 376.81381541 71.67754392 376.82220087 60.6183064 376.85123014 C51.19665457 376.87584814 41.77518583 376.88295722 32.35351047 376.86798262 C27.55475006 376.86085536 22.7563504 376.86148832 17.95763135 376.88439322 C-19.65141996 377.0531786 -19.65141996 377.0531786 -37.48047137 371.26144934 C-38.23375925 371.01778942 -38.98704712 370.7741295 -39.7631619 370.52308595 C-59.91862984 363.86994126 -79.55770271 353.30951894 -95.48047137 339.26144934 C-96.34414325 338.50734777 -97.20781512 337.75324621 -98.09765887 336.97629309 C-100.58907623 334.76885187 -103.04261242 332.52780063 -105.48047137 330.26144934 C-106.15722919 329.63883215 -106.833987 329.01621496 -107.53125262 328.37473059 C-111.62681044 324.45973844 -115.05081236 320.24512886 -118.41797137 315.69894934 C-121.90150992 311.02059955 -125.44214626 307.3245387 -130.19531512 303.92941809 C-134.58765151 300.72338794 -138.50272692 296.95971174 -142.48047137 293.26144934 C-143.12500262 292.68266027 -143.76953387 292.10387121 -144.43359637 291.50754309 C-171.59051057 266.00514677 -189.2963704 225.82322193 -190.76806903 188.69431067 C-190.89271398 183.73293363 -190.90267593 178.77438782 -190.87158465 173.81174231 C-190.85548788 170.76457495 -190.87153718 167.71873337 -190.89062762 164.67160559 C-190.90840532 148.90797173 -189.26873778 133.93271631 -184.79297137 118.76144934 C-184.53878436 117.89109045 -184.28459735 117.02073156 -184.0227077 116.12399817 C-176.51295068 91.38742947 -163.17941483 69.94527672 -145.48047137 51.26144934 C-144.60004169 50.31656652 -143.719612 49.37168371 -142.81250262 48.39816809 C-130.82216856 35.78998789 -116.91786035 26.18224459 -101.48047137 18.26144934 C-100.86881122 17.94337317 -100.25715106 17.62529699 -99.62695575 17.29758215 C-68.16046494 1.12495503 -34.61688515 -0.05408862 0 0 Z M-69.73047137 14.01144934 C-70.54145282 14.26748938 -71.35243426 14.52352942 -72.1879909 14.78732824 C-97.89841078 23.10673269 -119.05529627 36.55461661 -138.48047137 55.26144934 C-139.12113544 55.8505509 -139.7617995 56.43965246 -140.42187762 57.04660559 C-159.44162117 75.00724509 -172.23208404 101.20478499 -178.48047137 126.26144934 C-178.78726825 127.46027746 -179.09406512 128.65910559 -179.41015887 129.89426184 C-181.74649516 139.48436602 -182.63722546 148.71430059 -182.68359637 158.57004309 C-182.68929645 159.5356365 -182.69499652 160.50122992 -182.70086932 161.49608374 C-182.71026544 163.53236328 -182.7168317 165.56865766 -182.72070575 167.6049552 C-182.73034641 170.65935705 -182.76139532 173.71306605 -182.79297137 176.76730871 C-183.02419911 219.51038592 -165.89469563 258.35587918 -136.04687762 288.71799231 C-106.72106802 317.6141532 -67.89831539 332.41644351 -27.0372951 332.40862036 C-25.4688195 332.41192425 -23.90034473 332.41565092 -22.33187103 332.41976184 C-18.03734557 332.42973027 -13.74283408 332.43349027 -9.44829869 332.43615115 C-4.8099691 332.4400696 -0.17165041 332.44964682 4.46667218 332.45836401 C15.66074541 332.47808524 26.85481948 332.48818921 38.04890573 332.4970918 C43.32901823 332.50148191 48.60912974 332.50684684 53.88924146 332.51208067 C71.45632587 332.52908877 89.02340969 332.54358097 106.59050107 332.55082941 C111.14464308 332.5527391 115.69878508 332.55465946 120.25292706 332.55661535 C121.95065228 332.55734096 121.95065228 332.55734096 123.68267497 332.55808123 C142.00054977 332.5663743 160.31835911 332.59170089 178.63620535 332.62419603 C197.47050966 332.65733318 216.30478078 332.67528418 235.13911438 332.67847365 C245.70259833 332.68063261 256.26598684 332.68929098 266.82944226 332.71493483 C275.82915283 332.73673296 284.82874475 332.74464771 293.82847872 332.73496804 C298.41238882 332.73044958 302.99605459 332.73216496 307.57993054 332.75172949 C329.20414799 332.83896152 350.2677997 332.75747095 370.83202863 325.01144934 C371.6463133 324.71480383 372.46059796 324.41815832 373.29955792 324.11252356 C381.35328491 321.09542212 389.00312906 317.42890094 396.51952863 313.26144934 C397.16792706 312.90292883 397.8163255 312.54440832 398.48437238 312.17502356 C407.19480795 307.295886 415.02038035 301.89446791 422.51952863 295.26144934 C423.48374738 294.43000402 424.44796613 293.59855871 425.44140363 292.74191809 C437.56369309 282.12136567 447.3083572 270.14649648 455.38769269 256.21115637 C456.11337137 254.96109814 456.84887828 253.7166638 457.59667706 252.47971106 C462.38890726 244.54440782 465.7792473 236.34469495 468.76952863 227.57394934 C469.24543439 226.19626379 469.24543439 226.19626379 469.73095441 224.79074621 C475.10197782 208.29665225 477.15124635 192.2772699 476.93114972 174.97824621 C476.89437969 171.99938321 476.89013433 169.02176735 476.89062238 166.04269934 C476.83819982 151.33569881 476.12296001 136.99598965 471.83202863 122.82394934 C471.57002667 121.94126379 471.30802472 121.05857824 471.03808331 120.14914465 C458.49111928 79.01228617 430.24858277 45.94092962 392.51952863 25.57394934 C375.53242795 16.73421786 357.53810308 11.28778978 338.51952863 9.26144934 C337.75900547 9.1756591 336.99848232 9.08986886 336.21491301 9.00147891 C328.28760387 8.18345317 320.40587927 8.11547408 312.4432652 8.12100744 C310.93906044 8.11841864 309.43485636 8.11540406 307.93065321 8.11200404 C303.82306944 8.10399117 299.7155032 8.10214768 295.60791254 8.10140657 C291.16730356 8.09954597 286.72670346 8.09199362 282.28609967 8.08527136 C272.58730448 8.07172784 262.88851345 8.06566944 253.18971038 8.0612607 C247.12479718 8.05849133 241.05988555 8.05425271 234.99497342 8.04975653 C218.17755539 8.03756868 201.36013862 8.02726866 184.54271626 8.02388144 C183.46773968 8.02366187 182.3927631 8.0234423 181.28521147 8.02321608 C179.66905564 8.02288867 179.66905564 8.02288867 178.0202502 8.02255464 C175.83722973 8.02211118 173.65420926 8.02166462 171.47118878 8.02121496 C170.38835281 8.02099353 169.30551684 8.0207721 168.18986766 8.02054396 C150.66104833 8.01659957 133.13227067 7.99915431 115.60346742 7.97585544 C97.57366827 7.95208565 79.54388998 7.93967702 61.51407492 7.93851352 C51.40447674 7.93759988 41.29493284 7.93192637 31.1853497 7.9136939 C22.57363614 7.8982167 13.96199364 7.89321703 5.3502688 7.90143201 C0.96486014 7.90531182 -3.42040573 7.90454126 -7.80579638 7.89037466 C-39.16379353 7.62780759 -39.16379353 7.62780759 -69.73047137 14.01144934 Z " fill="#010101" transform="translate(190.48047137260437,0.7385506629943848)"/>
<path d="M0 0 C10.34473844 8.24457206 18.7624681 20.53973205 20.8203125 33.890625 C20.90925781 34.93476563 20.90925781 34.93476563 21 36 C21.11988281 37.19882813 21.11988281 37.19882813 21.2421875 38.421875 C21.97147066 52.92174022 16.82405893 66.48853741 7.8515625 77.6796875 C-1.32470703 87.7095635 -13.36214569 94.19052736 -27 95 C-28.69962891 95.11988281 -28.69962891 95.11988281 -30.43359375 95.2421875 C-44.376806 95.76143089 -56.49784309 90.88474322 -67.3203125 82.12109375 C-72.33735095 77.39973627 -75.89089931 72.12186306 -79 66 C-79.73283203 64.60201172 -79.73283203 64.60201172 -80.48046875 63.17578125 C-86.13011237 50.81619674 -85.96722934 35.59781188 -81.32421875 22.890625 C-74.27693709 7.5071783 -63.52529985 -1.21164659 -48.47265625 -8.16796875 C-32.49193585 -13.98659003 -13.56702355 -9.39255476 0 0 Z " fill="#020202" transform="translate(285,132)"/>
<path d="M0 0 C3.06630888 1.53315444 5.24006133 2.83349313 7.87109375 4.90625 C8.60368408 5.48020508 9.33627441 6.05416016 10.09106445 6.64550781 C10.86538818 7.25749023 11.63971191 7.86947266 12.4375 8.5 C14.06488732 9.77631821 15.69249273 11.05235838 17.3203125 12.328125 C18.51769043 13.26881836 18.51769043 13.26881836 19.73925781 14.22851562 C22.7496528 16.58741693 25.7777852 18.92251803 28.8125 21.25 C29.83988281 22.03890625 30.86726563 22.8278125 31.92578125 23.640625 C32.94027344 24.41921875 33.95476562 25.1978125 35 26 C36.6221177 27.24709871 38.24386244 28.49468076 39.86547852 29.74243164 C40.94782916 30.57517073 42.03034644 31.40769329 43.11303711 32.23999023 C45.89857894 34.38151513 48.6816404 36.52615646 51.4609375 38.67578125 C52.03263672 39.11728516 52.60433594 39.55878906 53.19335938 40.01367188 C54.77277579 41.23354634 56.35126395 42.45462237 57.9296875 43.67578125 C61.23910503 46.1810019 64.62243017 48.58745012 68 51 C68 34.17 68 17.34 68 0 C75.92 0 83.84 0 92 0 C92 33.33 92 66.66 92 101 C85.91988206 96.94658804 79.9785751 92.85406352 74.125 88.5 C72.45056212 87.2603609 70.77608175 86.02077919 69.1015625 84.78125 C68.2549707 84.15347656 67.40837891 83.52570313 66.53613281 82.87890625 C62.53013492 79.91104335 58.51469251 76.956092 54.5 74 C45 67 35.5 60 26 53 C25.67 68.84 25.34 84.68 25 101 C16.75 101 8.5 101 0 101 C0 67.67 0 34.34 0 0 Z " fill="#010102" transform="translate(93,122)"/>
<path d="M0 0 C7.93160234 5.83591291 12.94723529 12.52445451 15.125 22.25 C15.125 24.56 15.125 26.87 15.125 29.25 C7.865 29.25 0.605 29.25 -6.875 29.25 C-7.535 26.94 -8.195 24.63 -8.875 22.25 C-12.01859262 17.72322663 -16.66440048 16.32003383 -21.875 15.25 C-29.24067407 14.52518633 -36.14731816 14.96158152 -42.875 18.25 C-45.42231042 20.79731042 -45.22823144 22.69515279 -45.43359375 26.1796875 C-44.55459102 29.43752978 -42.65052139 30.45541631 -39.875 32.25 C-36.95743572 33.29412834 -36.95743572 33.29412834 -33.8125 33.875 C-32.6678125 34.11605469 -31.523125 34.35710937 -30.34375 34.60546875 C-27.17252847 35.19471599 -24.00137387 35.70497303 -20.8125 36.1875 C-8.94095266 38.14005713 2.5915943 41.89754164 10.109375 51.88671875 C15.26496575 60.29524176 16.65640079 68.26603207 14.51171875 78.046875 C11.45785129 86.71071043 5.76183764 92.24551075 -2.4375 96.1875 C-10.2015954 99.59078104 -18.2899858 99.484748 -26.625 99.5625 C-27.6459375 99.59150391 -28.666875 99.62050781 -29.71875 99.65039062 C-43.1244103 99.76097031 -52.22915442 94.74480364 -61.625 85.5625 C-67.4166144 78.01523943 -68.875 70.63169104 -68.875 61.25 C-61.615 61.25 -54.355 61.25 -46.875 61.25 C-45.885 64.55 -44.895 67.85 -43.875 71.25 C-41.30691602 74.67411197 -38.90465945 75.95046213 -34.875 77.25 C-26.78628481 77.9484232 -17.69370507 78.60554442 -10.3671875 74.5859375 C-8.53924711 73.14834456 -8.53924711 73.14834456 -7.5 69.8125 C-7.61134078 66.2134097 -7.61134078 66.2134097 -9.625 63.5 C-15.64314572 59.33359142 -22.56100523 58.41767833 -29.6875 57.3125 C-43.63225839 55.08496067 -55.29302797 51.52752483 -64.43359375 40.30859375 C-68.98220272 33.81234191 -69.83338031 27.05862138 -68.875 19.25 C-66.8026712 10.89900836 -62.41381603 4.29845853 -55.2578125 -0.5078125 C-38.75717002 -9.96939974 -16.33444015 -9.99733293 0 0 Z " fill="#020203" transform="translate(561.875,123.75)"/>
<path d="M0 0 C23.43 0 46.86 0 71 0 C71 7.59 71 15.18 71 23 C55.49 23 39.98 23 24 23 C24 28.61 24 34.22 24 40 C37.2 40 50.4 40 64 40 C64 47.26 64 54.52 64 62 C50.8 62 37.6 62 24 62 C24 68.27 24 74.54 24 81 C39.51 81 55.02 81 71 81 C71 87.93 71 94.86 71 102 C47.57 102 24.14 102 0 102 C0 68.34 0 34.68 0 0 Z " fill="#020303" transform="translate(409,121)"/>
<path d="M0 0 C25.41 0 50.82 0 77 0 C77 7.92 77 15.84 77 24 C68.42 24 59.84 24 51 24 C51 49.41 51 74.82 51 101 C43.08 101 35.16 101 27 101 C27 75.59 27 50.18 27 24 C18.09 24 9.18 24 0 24 C0 16.08 0 8.16 0 0 Z " fill="#000000" transform="translate(314,122)"/>
<path d="M0 0 C8.33082916 4.6777383 14.99059393 11.99922826 17.79296875 21.20703125 C19.40840728 29.41092494 17.94988439 36.82438204 14.19140625 44.23046875 C9.2940994 51.52063692 2.48251601 56.42139127 -5.80859375 59.23046875 C-15.29190175 60.25032171 -23.3311319 58.92177667 -31.12109375 53.35546875 C-38.18454241 47.62078766 -42.16566969 40.90105897 -43.19921875 31.78515625 C-43.49134549 22.12410765 -41.67200569 15.6553691 -35.80859375 8.04296875 C-26.46709546 -1.87491986 -12.74445236 -4.99920507 0 0 Z " fill="#B2C5EF" transform="translate(265.80859375,145.76953125)"/>
</svg>
