<svg width="630" height="641" viewBox="0 0 630 641" fill="none" xmlns="http://www.w3.org/2000/svg">
<g clip-path="url(#clip0_590_1895)">
<path fill-rule="evenodd" clip-rule="evenodd" d="M628.206 53.9646C628.206 35.9853 613.574 21.3535 595.595 21.3535C488.799 21.3535 150.162 21.3535 43.3122 21.3535C25.333 21.3535 10.7012 35.9853 10.7012 53.9646C10.7012 160.814 10.7012 499.451 10.7012 606.247C10.7012 624.28 25.333 638.858 43.3122 638.858C150.162 638.858 488.799 638.858 595.595 638.858C613.574 638.858 628.206 624.28 628.206 606.247C628.206 499.451 628.206 160.814 628.206 53.9646Z" fill="#FCF9F5"/>
<path fill-rule="evenodd" clip-rule="evenodd" d="M59.6718 21.3535V39.2248H26.0888V26.2668C25.8189 26.4827 25.4409 26.6987 25.117 26.9147V39.2248H14.2646C13.9407 39.8187 13.6167 40.4666 13.3468 41.1145H25.117V73.6716H10.7012V75.6153H25.117V108.172H10.7012V110.116H25.117V142.673H10.7012V144.617H25.117V177.174H10.7012V179.064H25.117V211.621H10.7012V213.564H25.117V246.122H10.7012V248.065H25.117V280.622H10.7012V282.512H25.117V315.123H10.7012V317.013H25.117V349.624H10.7012V351.514H25.117V384.071H10.7012V386.014H25.117V418.572H10.7012V420.515H25.117V453.072H10.7012V454.962H25.117V487.573H10.7012V489.463H25.117V522.02H10.7012V523.964H25.117V556.521H10.7012V558.464H25.117V591.021H10.7012V592.911H25.117V625.522H17.0182C17.5042 626.17 17.9901 626.818 18.53 627.412H25.117V633.297C25.4949 633.567 25.8189 633.729 26.0888 633.945V627.412H59.6718V638.858H60.5896V627.412H94.1186V638.858H95.0904V627.412H128.619V638.858H129.591V627.412H163.12V638.858H164.092V627.412H197.621V638.858H198.539V627.412H232.068V638.858H233.04V627.412H266.569V638.858H267.54V627.412H301.069V638.858H302.041V627.412H335.57V638.858H336.488V627.412H370.017V638.858H370.989V627.412H404.518V638.858H405.49V627.412H439.018V638.858H439.99V627.412H473.519V638.858H474.491V627.412H507.966V638.858H508.938V627.412H542.467V638.858H543.439V627.412H576.968V638.858H577.939V627.412H611.468V634.755C611.792 634.539 612.116 634.377 612.44 634.161V627.412H620.377C620.917 626.818 621.403 626.17 621.889 625.522H612.44V592.911H628.206V591.021H612.44V558.464H628.206V556.521H612.44V523.964H628.206V522.02H612.44V489.463H628.206V487.573H612.44V454.962H628.206V453.072H612.44V420.515H628.206V418.572H612.44V386.014H628.206V384.071H612.44V351.514H628.206V349.624H612.44V317.013H628.206V315.123H612.44V282.512H628.206V280.622H612.44V248.065H628.206V246.122H612.44V213.564H628.206V211.621H612.44V179.064H628.206V177.174H612.44V144.617H628.206V142.673H612.44V110.116H628.206V108.172H612.44V75.6153H628.206V73.6716H612.44V41.1145H625.56C625.29 40.4666 624.966 39.8187 624.642 39.2248H612.44V26.0508C612.116 25.8888 611.792 25.6729 611.468 25.5109V39.2248H577.939V21.3535H576.968V39.2248H543.439V21.3535H542.467V39.2248H508.938V21.3535H507.966V39.2248H474.491V21.3535H473.519V39.2248H439.99V21.3535H439.018V39.2248H405.49V21.3535H404.518V39.2248H370.989V21.3535H370.017V39.2248H336.488V21.3535H335.57V39.2248H302.041V21.3535H301.069V39.2248H267.54V21.3535H266.569V39.2248H233.04V21.3535H232.068V39.2248H198.539V21.3535H197.621V39.2248H164.092V21.3535H163.12V39.2248H129.591V21.3535H128.619V39.2248H95.0904V21.3535H94.1186V39.2248H60.5896V21.3535H59.6718ZM26.0888 592.911V625.522H59.6718V592.911H26.0888ZM60.5896 592.911V625.522H94.1186V592.911H60.5896ZM95.0904 592.911V625.522H128.619V592.911H95.0904ZM129.591 592.911V625.522H163.12V592.911H129.591ZM164.092 592.911V625.522H197.621V592.911H164.092ZM198.539 592.911V625.522H232.068V592.911H198.539ZM233.04 592.911V625.522H266.569V592.911H233.04ZM267.54 592.911V625.522H301.069V592.911H267.54ZM302.041 592.911V625.522H335.57V592.911H302.041ZM336.488 592.911V625.522H370.017V592.911H336.488ZM370.989 592.911V625.522H404.518V592.911H370.989ZM405.49 592.911V625.522H439.018V592.911H405.49ZM439.99 592.911V625.522H473.519V592.911H439.99ZM474.491 592.911V625.522H507.966V592.911H474.491ZM508.938 592.911V625.522H542.467V592.911H508.938ZM543.439 592.911V625.522H576.968V592.911H543.439ZM577.939 592.911V625.522H611.468V592.911H577.939ZM577.939 558.464V591.021H611.468V558.464H577.939ZM543.439 558.464V591.021H576.968V558.464H543.439ZM508.938 558.464V591.021H542.467V558.464H508.938ZM474.491 558.464V591.021H507.966V558.464H474.491ZM439.99 558.464V591.021H473.519V558.464H439.99ZM405.49 558.464V591.021H439.018V558.464H405.49ZM370.989 558.464V591.021H404.518V558.464H370.989ZM336.488 558.464V591.021H370.017V558.464H336.488ZM302.041 558.464V591.021H335.57V558.464H302.041ZM267.54 558.464V591.021H301.069V558.464H267.54ZM233.04 558.464V591.021H266.569V558.464H233.04ZM198.539 558.464V591.021H232.068V558.464H198.539ZM164.092 558.464V591.021H197.621V558.464H164.092ZM129.591 558.464V591.021H163.12V558.464H129.591ZM95.0904 558.464V591.021H128.619V558.464H95.0904ZM60.5896 558.464V591.021H94.1186V558.464H60.5896ZM26.0888 558.464V591.021H59.6718V558.464H26.0888ZM26.0888 523.964V556.521H59.6718V523.964H26.0888ZM60.5896 523.964V556.521H94.1186V523.964H60.5896ZM95.0904 523.964V556.521H128.619V523.964H95.0904ZM129.591 523.964V556.521H163.12V523.964H129.591ZM164.092 523.964V556.521H197.621V523.964H164.092ZM198.539 523.964V556.521H232.068V523.964H198.539ZM233.04 523.964V556.521H266.569V523.964H233.04ZM267.54 523.964V556.521H301.069V523.964H267.54ZM302.041 523.964V556.521H335.57V523.964H302.041ZM336.488 523.964V556.521H370.017V523.964H336.488ZM370.989 523.964V556.521H404.518V523.964H370.989ZM405.49 523.964V556.521H439.018V523.964H405.49ZM439.99 523.964V556.521H473.519V523.964H439.99ZM474.491 523.964V556.521H507.966V523.964H474.491ZM508.938 523.964V556.521H542.467V523.964H508.938ZM543.439 523.964V556.521H576.968V523.964H543.439ZM577.939 523.964V556.521H611.468V523.964H577.939ZM577.939 489.463V522.02H611.468V489.463H577.939ZM543.439 489.463V522.02H576.968V489.463H543.439ZM508.938 489.463V522.02H542.467V489.463H508.938ZM474.491 489.463V522.02H507.966V489.463H474.491ZM439.99 489.463V522.02H473.519V489.463H439.99ZM405.49 489.463V522.02H439.018V489.463H405.49ZM370.989 489.463V522.02H404.518V489.463H370.989ZM336.488 489.463V522.02H370.017V489.463H336.488ZM302.041 489.463V522.02H335.57V489.463H302.041ZM267.54 489.463V522.02H301.069V489.463H267.54ZM233.04 489.463V522.02H266.569V489.463H233.04ZM198.539 489.463V522.02H232.068V489.463H198.539ZM164.092 489.463V522.02H197.621V489.463H164.092ZM129.591 489.463V522.02H163.12V489.463H129.591ZM95.0904 489.463V522.02H128.619V489.463H95.0904ZM60.5896 489.463V522.02H94.1186V489.463H60.5896ZM26.0888 489.463V522.02H59.6718V489.463H26.0888ZM26.0888 454.962V487.573H59.6718V454.962H26.0888ZM60.5896 454.962V487.573H94.1186V454.962H60.5896ZM95.0904 454.962V487.573H128.619V454.962H95.0904ZM129.591 454.962V487.573H163.12V454.962H129.591ZM164.092 454.962V487.573H197.621V454.962H164.092ZM198.539 454.962V487.573H232.068V454.962H198.539ZM233.04 454.962V487.573H266.569V454.962H233.04ZM267.54 454.962V487.573H301.069V454.962H267.54ZM302.041 454.962V487.573H335.57V454.962H302.041ZM336.488 454.962V487.573H370.017V454.962H336.488ZM370.989 454.962V487.573H404.518V454.962H370.989ZM405.49 454.962V487.573H439.018V454.962H405.49ZM439.99 454.962V487.573H473.519V454.962H439.99ZM474.491 454.962V487.573H507.966V454.962H474.491ZM508.938 454.962V487.573H542.467V454.962H508.938ZM543.439 454.962V487.573H576.968V454.962H543.439ZM577.939 454.962V487.573H611.468V454.962H577.939ZM577.939 420.515V453.072H611.468V420.515H577.939ZM543.439 420.515V453.072H576.968V420.515H543.439ZM508.938 420.515V453.072H542.467V420.515H508.938ZM474.491 420.515V453.072H507.966V420.515H474.491ZM439.99 420.515V453.072H473.519V420.515H439.99ZM405.49 420.515V453.072H439.018V420.515H405.49ZM370.989 420.515V453.072H404.518V420.515H370.989ZM336.488 420.515V453.072H370.017V420.515H336.488ZM302.041 420.515V453.072H335.57V420.515H302.041ZM267.54 420.515V453.072H301.069V420.515H267.54ZM233.04 420.515V453.072H266.569V420.515H233.04ZM198.539 420.515V453.072H232.068V420.515H198.539ZM164.092 420.515V453.072H197.621V420.515H164.092ZM129.591 420.515V453.072H163.12V420.515H129.591ZM95.0904 420.515V453.072H128.619V420.515H95.0904ZM60.5896 420.515V453.072H94.1186V420.515H60.5896ZM26.0888 420.515V453.072H59.6718V420.515H26.0888ZM577.939 386.014V418.572H611.468V386.014H577.939ZM543.439 386.014V418.572H576.968V386.014H543.439ZM508.938 386.014V418.572H542.467V386.014H508.938ZM474.491 386.014V418.572H507.966V386.014H474.491ZM439.99 386.014V418.572H473.519V386.014H439.99ZM405.49 386.014V418.572H439.018V386.014H405.49ZM370.989 386.014V418.572H404.518V386.014H370.989ZM336.488 386.014V418.572H370.017V386.014H336.488ZM302.041 386.014V418.572H335.57V386.014H302.041ZM267.54 386.014V418.572H301.069V386.014H267.54ZM233.04 386.014V418.572H266.569V386.014H233.04ZM198.539 386.014V418.572H232.068V386.014H198.539ZM164.092 386.014V418.572H197.621V386.014H164.092ZM129.591 386.014V418.572H163.12V386.014H129.591ZM95.0904 386.014V418.572H128.619V386.014H95.0904ZM60.5896 386.014V418.572H94.1186V386.014H60.5896ZM26.0888 386.014V418.572H59.6718V386.014H26.0888ZM26.0888 351.514V384.071H59.6718V351.514H26.0888ZM60.5896 351.514V384.071H94.1186V351.514H60.5896ZM95.0904 351.514V384.071H128.619V351.514H95.0904ZM129.591 351.514V384.071H163.12V351.514H129.591ZM164.092 351.514V384.071H197.621V351.514H164.092ZM198.539 351.514V384.071H232.068V351.514H198.539ZM233.04 351.514V384.071H266.569V351.514H233.04ZM267.54 351.514V384.071H301.069V351.514H267.54ZM302.041 351.514V384.071H335.57V351.514H302.041ZM336.488 351.514V384.071H370.017V351.514H336.488ZM370.989 351.514V384.071H404.518V351.514H370.989ZM405.49 351.514V384.071H439.018V351.514H405.49ZM439.99 351.514V384.071H473.519V351.514H439.99ZM474.491 351.514V384.071H507.966V351.514H474.491ZM508.938 351.514V384.071H542.467V351.514H508.938ZM543.439 351.514V384.071H576.968V351.514H543.439ZM577.939 351.514V384.071H611.468V351.514H577.939ZM577.939 317.013V349.624H611.468V317.013H577.939ZM543.439 317.013V349.624H576.968V317.013H543.439ZM508.938 317.013V349.624H542.467V317.013H508.938ZM474.491 317.013V349.624H507.966V317.013H474.491ZM439.99 317.013V349.624H473.519V317.013H439.99ZM405.49 317.013V349.624H439.018V317.013H405.49ZM370.989 317.013V349.624H404.518V317.013H370.989ZM336.488 317.013V349.624H370.017V317.013H336.488ZM302.041 317.013V349.624H335.57V317.013H302.041ZM267.54 317.013V349.624H301.069V317.013H267.54ZM233.04 317.013V349.624H266.569V317.013H233.04ZM198.539 317.013V349.624H232.068V317.013H198.539ZM164.092 317.013V349.624H197.621V317.013H164.092ZM129.591 317.013V349.624H163.12V317.013H129.591ZM95.0904 317.013V349.624H128.619V317.013H95.0904ZM60.5896 317.013V349.624H94.1186V317.013H60.5896ZM26.0888 317.013V349.624H59.6718V317.013H26.0888ZM26.0888 282.512V315.123H59.6718V282.512H26.0888ZM60.5896 282.512V315.123H94.1186V282.512H60.5896ZM95.0904 282.512V315.123H128.619V282.512H95.0904ZM129.591 282.512V315.123H163.12V282.512H129.591ZM164.092 282.512V315.123H197.621V282.512H164.092ZM198.539 282.512V315.123H232.068V282.512H198.539ZM233.04 282.512V315.123H266.569V282.512H233.04ZM267.54 282.512V315.123H301.069V282.512H267.54ZM302.041 282.512V315.123H335.57V282.512H302.041ZM336.488 282.512V315.123H370.017V282.512H336.488ZM370.989 282.512V315.123H404.518V282.512H370.989ZM405.49 282.512V315.123H439.018V282.512H405.49ZM439.99 282.512V315.123H473.519V282.512H439.99ZM474.491 282.512V315.123H507.966V282.512H474.491ZM508.938 282.512V315.123H542.467V282.512H508.938ZM543.439 282.512V315.123H576.968V282.512H543.439ZM577.939 282.512V315.123H611.468V282.512H577.939ZM577.939 248.065V280.622H611.468V248.065H577.939ZM543.439 248.065V280.622H576.968V248.065H543.439ZM508.938 248.065V280.622H542.467V248.065H508.938ZM474.491 248.065V280.622H507.966V248.065H474.491ZM439.99 248.065V280.622H473.519V248.065H439.99ZM405.49 248.065V280.622H439.018V248.065H405.49ZM370.989 248.065V280.622H404.518V248.065H370.989ZM336.488 248.065V280.622H370.017V248.065H336.488ZM302.041 248.065V280.622H335.57V248.065H302.041ZM267.54 248.065V280.622H301.069V248.065H267.54ZM233.04 248.065V280.622H266.569V248.065H233.04ZM198.539 248.065V280.622H232.068V248.065H198.539ZM164.092 248.065V280.622H197.621V248.065H164.092ZM129.591 248.065V280.622H163.12V248.065H129.591ZM95.0904 248.065V280.622H128.619V248.065H95.0904ZM60.5896 248.065V280.622H94.1186V248.065H60.5896ZM26.0888 248.065V280.622H59.6718V248.065H26.0888ZM577.939 213.564V246.122H611.468V213.564H577.939ZM543.439 213.564V246.122H576.968V213.564H543.439ZM508.938 213.564V246.122H542.467V213.564H508.938ZM474.491 213.564V246.122H507.966V213.564H474.491ZM439.99 213.564V246.122H473.519V213.564H439.99ZM405.49 213.564V246.122H439.018V213.564H405.49ZM370.989 213.564V246.122H404.518V213.564H370.989ZM336.488 213.564V246.122H370.017V213.564H336.488ZM302.041 213.564V246.122H335.57V213.564H302.041ZM267.54 213.564V246.122H301.069V213.564H267.54ZM233.04 213.564V246.122H266.569V213.564H233.04ZM198.539 213.564V246.122H232.068V213.564H198.539ZM164.092 213.564V246.122H197.621V213.564H164.092ZM129.591 213.564V246.122H163.12V213.564H129.591ZM95.0904 213.564V246.122H128.619V213.564H95.0904ZM60.5896 213.564V246.122H94.1186V213.564H60.5896ZM26.0888 213.564V246.122H59.6718V213.564H26.0888ZM577.939 179.064V211.621H611.468V179.064H577.939ZM543.439 179.064V211.621H576.968V179.064H543.439ZM508.938 179.064V211.621H542.467V179.064H508.938ZM474.491 179.064V211.621H507.966V179.064H474.491ZM439.99 179.064V211.621H473.519V179.064H439.99ZM405.49 179.064V211.621H439.018V179.064H405.49ZM370.989 179.064V211.621H404.518V179.064H370.989ZM336.488 179.064V211.621H370.017V179.064H336.488ZM302.041 179.064V211.621H335.57V179.064H302.041ZM267.54 179.064V211.621H301.069V179.064H267.54ZM233.04 179.064V211.621H266.569V179.064H233.04ZM198.539 179.064V211.621H232.068V179.064H198.539ZM164.092 179.064V211.621H197.621V179.064H164.092ZM129.591 179.064V211.621H163.12V179.064H129.591ZM95.0904 179.064V211.621H128.619V179.064H95.0904ZM60.5896 179.064V211.621H94.1186V179.064H60.5896ZM26.0888 179.064V211.621H59.6718V179.064H26.0888ZM577.939 144.617V177.174H611.468V144.617H577.939ZM543.439 144.617V177.174H576.968V144.617H543.439ZM508.938 144.617V177.174H542.467V144.617H508.938ZM474.491 144.617V177.174H507.966V144.617H474.491ZM439.99 144.617V177.174H473.519V144.617H439.99ZM405.49 144.617V177.174H439.018V144.617H405.49ZM370.989 144.617V177.174H404.518V144.617H370.989ZM336.488 144.617V177.174H370.017V144.617H336.488ZM302.041 144.617V177.174H335.57V144.617H302.041ZM267.54 144.617V177.174H301.069V144.617H267.54ZM233.04 144.617V177.174H266.569V144.617H233.04ZM198.539 144.617V177.174H232.068V144.617H198.539ZM164.092 144.617V177.174H197.621V144.617H164.092ZM129.591 144.617V177.174H163.12V144.617H129.591ZM95.0904 144.617V177.174H128.619V144.617H95.0904ZM60.5896 144.617V177.174H94.1186V144.617H60.5896ZM26.0888 144.617V177.174H59.6718V144.617H26.0888ZM577.939 110.116V142.673H611.468V110.116H577.939ZM543.439 110.116V142.673H576.968V110.116H543.439ZM508.938 110.116V142.673H542.467V110.116H508.938ZM474.491 110.116V142.673H507.966V110.116H474.491ZM439.99 110.116V142.673H473.519V110.116H439.99ZM405.49 110.116V142.673H439.018V110.116H405.49ZM370.989 110.116V142.673H404.518V110.116H370.989ZM336.488 110.116V142.673H370.017V110.116H336.488ZM302.041 110.116V142.673H335.57V110.116H302.041ZM267.54 110.116V142.673H301.069V110.116H267.54ZM233.04 110.116V142.673H266.569V110.116H233.04ZM198.539 110.116V142.673H232.068V110.116H198.539ZM164.092 110.116V142.673H197.621V110.116H164.092ZM129.591 110.116V142.673H163.12V110.116H129.591ZM95.0904 110.116V142.673H128.619V110.116H95.0904ZM60.5896 110.116V142.673H94.1186V110.116H60.5896ZM26.0888 110.116V142.673H59.6718V110.116H26.0888ZM26.0888 75.6153V108.172H59.6718V75.6153H26.0888ZM60.5896 75.6153V108.172H94.1186V75.6153H60.5896ZM95.0904 75.6153V108.172H128.619V75.6153H95.0904ZM129.591 75.6153V108.172H163.12V75.6153H129.591ZM164.092 75.6153V108.172H197.621V75.6153H164.092ZM198.539 75.6153V108.172H232.068V75.6153H198.539ZM233.04 75.6153V108.172H266.569V75.6153H233.04ZM267.54 75.6153V108.172H301.069V75.6153H267.54ZM302.041 75.6153V108.172H335.57V75.6153H302.041ZM336.488 75.6153V108.172H370.017V75.6153H336.488ZM370.989 75.6153V108.172H404.518V75.6153H370.989ZM405.49 75.6153V108.172H439.018V75.6153H405.49ZM439.99 75.6153V108.172H473.519V75.6153H439.99ZM474.491 75.6153V108.172H507.966V75.6153H474.491ZM508.938 75.6153V108.172H542.467V75.6153H508.938ZM543.439 75.6153V108.172H576.968V75.6153H543.439ZM577.939 75.6153V108.172H611.468V75.6153H577.939ZM577.939 41.1145V73.6716H611.468V41.1145H577.939ZM543.439 41.1145V73.6716H576.968V41.1145H543.439ZM508.938 41.1145V73.6716H542.467V41.1145H508.938ZM474.491 41.1145V73.6716H507.966V41.1145H474.491ZM439.99 41.1145V73.6716H473.519V41.1145H439.99ZM405.49 41.1145V73.6716H439.018V41.1145H405.49ZM370.989 41.1145V73.6716H404.518V41.1145H370.989ZM336.488 41.1145V73.6716H370.017V41.1145H336.488ZM302.041 41.1145V73.6716H335.57V41.1145H302.041ZM267.54 41.1145V73.6716H301.069V41.1145H267.54ZM233.04 41.1145V73.6716H266.569V41.1145H233.04ZM198.539 41.1145V73.6716H232.068V41.1145H198.539ZM164.092 41.1145V73.6716H197.621V41.1145H164.092ZM129.591 41.1145V73.6716H163.12V41.1145H129.591ZM95.0904 41.1145V73.6716H128.619V41.1145H95.0904ZM60.5896 41.1145V73.6716H94.1186V41.1145H60.5896ZM26.0888 41.1145V73.6716H59.6718V41.1145H26.0888Z" fill="#CEC8C8"/>
<path fill-rule="evenodd" clip-rule="evenodd" d="M629.933 53.9658C629.933 35.0146 614.545 19.627 595.594 19.627C488.798 19.627 150.161 19.627 43.3115 19.627C24.3603 19.627 8.97266 35.0146 8.97266 53.9658C8.97266 160.816 8.97266 499.453 8.97266 606.248C8.97266 625.2 24.3603 640.587 43.3115 640.587C150.161 640.587 488.798 640.587 595.594 640.587C614.545 640.587 629.933 625.2 629.933 606.248C629.933 499.453 629.933 160.816 629.933 53.9658ZM626.423 53.9658V606.248C626.423 623.31 612.602 637.132 595.594 637.132C488.798 637.132 150.161 637.132 43.3115 637.132C26.25 637.132 12.4281 623.31 12.4281 606.248C12.4281 499.453 12.4281 160.816 12.4281 53.9658C12.4281 36.9583 26.25 23.1364 43.3115 23.1364C150.161 23.1364 488.798 23.1364 595.594 23.1364C612.602 23.1364 626.423 36.9583 626.423 53.9658Z" fill="#7890EB"/>
</g>
<g clip-path="url(#clip1_590_1895)">
<path fill-rule="evenodd" clip-rule="evenodd" d="M109.592 13.4758C109.592 9.89368 108.202 6.47192 105.636 3.90561C103.123 1.39277 99.6478 -0.0507812 96.0657 -0.0507812C92.4835 -0.0507812 89.0618 1.39277 86.4955 3.90561C83.9826 6.47192 82.5391 9.89368 82.5391 13.4758V74.105C82.5391 77.6871 83.9826 81.1089 86.4955 83.6752C89.0618 86.188 92.4835 87.6316 96.0657 87.6316C99.6478 87.6316 103.123 86.188 105.636 83.6752C108.202 81.1089 109.592 77.6871 109.592 74.105V34.2736C109.592 33.1509 108.683 32.242 107.561 32.242C106.384 32.242 105.475 33.1509 105.475 34.2736C105.475 34.2736 105.475 65.5506 105.475 74.105C105.475 76.5644 104.513 78.9703 102.749 80.7346C100.984 82.499 98.5785 83.5148 96.0657 83.5148C93.6063 83.5148 91.2004 82.499 89.436 80.7346C87.6717 78.9703 86.6559 76.5644 86.6559 74.105C86.6559 58.1724 86.6559 29.4618 86.6559 13.4758C86.6559 11.0164 87.6717 8.61052 89.436 6.84618C91.2004 5.08184 93.6063 4.06601 96.0657 4.06601C98.5785 4.06601 100.984 5.08184 102.749 6.84618C104.513 8.61052 105.475 11.0164 105.475 13.4758C105.475 14.6521 106.384 15.561 107.561 15.561C108.683 15.561 109.592 14.6521 109.592 13.4758Z" fill="#7890EB"/>
<path fill-rule="evenodd" clip-rule="evenodd" d="M109.593 20.2109C109.593 20.2109 109.593 15.5598 109.593 13.4749C109.593 12.3522 108.684 11.4434 107.562 11.4434C106.385 11.4434 105.477 12.3522 105.477 13.4749C105.477 15.5598 105.477 20.2109 105.477 20.2109C105.477 21.3336 106.385 22.2959 107.562 22.2959C108.684 22.2959 109.593 21.3336 109.593 20.2109Z" fill="#7890EB"/>
</g>
<defs>
<clipPath id="clip0_590_1895">
<rect width="621.02" height="627.002" fill="white" transform="translate(8.98047 13.6367)"/>
</clipPath>
<clipPath id="clip1_590_1895">
<rect width="621.02" height="635.347" fill="white" transform="translate(5.53516)"/>
</clipPath>
</defs>
</svg>
