<?xml version="1.0" encoding="UTF-8"?>
<svg version="1.1" xmlns="http://www.w3.org/2000/svg" width="598" height="662">
<path d="M0 0 C0.87398438 0.66515625 1.74796875 1.3303125 2.6484375 2.015625 C15.63367176 12.16408501 28.30756491 23.5955685 38 37 C38 37.66 38 38.32 38 39 C38.80244141 39.34224609 38.80244141 39.34224609 39.62109375 39.69140625 C42.74832443 41.41163988 45.36361699 43.62685631 48.0625 45.9375 C48.63468262 46.42694092 49.20686523 46.91638184 49.79638672 47.4206543 C71.72039618 66.38926598 85.83918735 89.62996094 100.04443359 114.57275391 C103.17566083 120.06041533 106.33892456 125.52949709 109.5 131 C110.75016451 133.16657175 112.00016426 135.33323858 113.25 137.5 C113.86875 138.5725 114.4875 139.645 115.125 140.75 C127 161.33333333 138.875 181.91666667 150.75 202.5 C151.67897095 204.1099585 151.67897095 204.1099585 152.62670898 205.75244141 C153.8716141 207.91062307 155.11592142 210.06914967 156.35961914 212.22802734 C159.55765711 217.77755149 162.76711171 223.31997789 165.99609375 228.8515625 C182.50229145 257.17601113 195.77204897 285.15336847 200 318 C200.13148438 319.00546875 200.26296875 320.0109375 200.3984375 321.046875 C205.43838253 369.26688965 190.8227287 419.0947248 160.4375 456.8125 C156.078773 461.9846514 151.60494529 467.04594333 147 472 C146.38898438 472.66515625 145.77796875 473.3303125 145.1484375 474.015625 C118.87940777 501.51426888 81.84037062 518.08040447 45 525 C43.71867187 525.24621094 42.43734375 525.49242187 41.1171875 525.74609375 C-5.5875384 533.05946876 -56.12421111 520.73960116 -94.42041016 493.15966797 C-108.28786188 482.97877219 -121.83177403 471.05400898 -132.4375 457.4375 C-135.6416443 453.40647975 -139.08325795 450.05711275 -143.0625 446.8125 C-160.6854742 432.38895036 -174.602406 415.68470717 -186 396 C-186.51369141 395.11618652 -187.02738281 394.23237305 -187.55664062 393.32177734 C-191.0565049 387.29325131 -194.53684818 381.25365751 -198.00788879 375.20849609 C-201.49612533 369.13372096 -204.99781678 363.06674149 -208.5 357 C-212.26376716 350.47774118 -216.02644628 343.95486227 -219.78515625 337.4296875 C-225.80747329 326.97793801 -231.84669337 316.53700452 -237.9375 306.125 C-243.70323763 296.26678967 -249.3836417 286.36145692 -255.02783203 276.43334961 C-258.2183684 270.82724405 -261.43507545 265.24010829 -264.73828125 259.69921875 C-280.59436323 233.08740283 -292.39038773 206.81592965 -297 176 C-297.15359985 174.98123779 -297.15359985 174.98123779 -297.31030273 173.94189453 C-303.49254825 126.65021593 -290.35830779 76.36234649 -261.40454102 38.49511719 C-257.77397739 33.85785727 -253.96427418 29.41216061 -249.94921875 25.1015625 C-248.20472294 23.22072333 -246.56532432 21.29381969 -244.9375 19.3125 C-241.63098937 15.4504239 -237.92422311 12.22212568 -234 9 C-233.50467773 8.59233398 -233.00935547 8.18466797 -232.49902344 7.76464844 C-207.97949101 -12.29411926 -180.10731521 -26.40264092 -149 -33 C-148.22881836 -33.16371094 -147.45763672 -33.32742187 -146.66308594 -33.49609375 C-96.59183812 -43.53107675 -40.55521904 -31.0884388 0 0 Z " fill="#768FEC" transform="translate(366,104)"/>
<path d="M0 0 C0.87398438 0.66515625 1.74796875 1.3303125 2.6484375 2.015625 C15.63367176 12.16408501 28.30756491 23.5955685 38 37 C38 37.66 38 38.32 38 39 C38.80244141 39.34224609 38.80244141 39.34224609 39.62109375 39.69140625 C42.74832443 41.41163988 45.36361699 43.62685631 48.0625 45.9375 C48.63468262 46.42694092 49.20686523 46.91638184 49.79638672 47.4206543 C71.72039618 66.38926598 85.83918735 89.62996094 100.04443359 114.57275391 C103.17566083 120.06041533 106.33892456 125.52949709 109.5 131 C110.75016451 133.16657175 112.00016426 135.33323858 113.25 137.5 C113.86875 138.5725 114.4875 139.645 115.125 140.75 C127 161.33333333 138.875 181.91666667 150.75 202.5 C151.67897095 204.1099585 151.67897095 204.1099585 152.62670898 205.75244141 C153.8716141 207.91062307 155.11592142 210.06914967 156.35961914 212.22802734 C159.55765711 217.77755149 162.76711171 223.31997789 165.99609375 228.8515625 C182.50229145 257.17601113 195.77204897 285.15336847 200 318 C200.13148438 319.00546875 200.26296875 320.0109375 200.3984375 321.046875 C205.43838253 369.26688965 190.8227287 419.0947248 160.4375 456.8125 C156.078773 461.9846514 151.60494529 467.04594333 147 472 C146.38898438 472.66515625 145.77796875 473.3303125 145.1484375 474.015625 C118.87940777 501.51426888 81.84037062 518.08040447 45 525 C43.71867187 525.24621094 42.43734375 525.49242187 41.1171875 525.74609375 C-5.5875384 533.05946876 -56.12421111 520.73960116 -94.42041016 493.15966797 C-108.28786188 482.97877219 -121.83177403 471.05400898 -132.4375 457.4375 C-135.6416443 453.40647975 -139.08325795 450.05711275 -143.0625 446.8125 C-160.6854742 432.38895036 -174.602406 415.68470717 -186 396 C-186.51369141 395.11618652 -187.02738281 394.23237305 -187.55664062 393.32177734 C-191.0565049 387.29325131 -194.53684818 381.25365751 -198.00788879 375.20849609 C-201.49612533 369.13372096 -204.99781678 363.06674149 -208.5 357 C-212.26376716 350.47774118 -216.02644628 343.95486227 -219.78515625 337.4296875 C-225.80747329 326.97793801 -231.84669337 316.53700452 -237.9375 306.125 C-243.70323763 296.26678967 -249.3836417 286.36145692 -255.02783203 276.43334961 C-258.2183684 270.82724405 -261.43507545 265.24010829 -264.73828125 259.69921875 C-280.59436323 233.08740283 -292.39038773 206.81592965 -297 176 C-297.15359985 174.98123779 -297.15359985 174.98123779 -297.31030273 173.94189453 C-303.49254825 126.65021593 -290.35830779 76.36234649 -261.40454102 38.49511719 C-257.77397739 33.85785727 -253.96427418 29.41216061 -249.94921875 25.1015625 C-248.20472294 23.22072333 -246.56532432 21.29381969 -244.9375 19.3125 C-241.63098937 15.4504239 -237.92422311 12.22212568 -234 9 C-233.50467773 8.59233398 -233.00935547 8.18466797 -232.49902344 7.76464844 C-207.97949101 -12.29411926 -180.10731521 -26.40264092 -149 -33 C-148.22881836 -33.16371094 -147.45763672 -33.32742187 -146.66308594 -33.49609375 C-96.59183812 -43.53107675 -40.55521904 -31.0884388 0 0 Z M-220 8 C-220.88816406 8.66773438 -221.77632813 9.33546875 -222.69140625 10.0234375 C-260.55200164 39.4768366 -281.87179794 81.66384396 -289.54638672 128.32177734 C-290.03537585 132.28685286 -290.19636168 136.19865924 -290.23828125 140.1875 C-290.24816574 140.95879242 -290.25805023 141.73008484 -290.26823425 142.52474976 C-290.70039621 185.04724691 -279.62293152 220.21249583 -257.43261719 256.6171875 C-254.48771247 261.51532487 -251.6607556 266.48277522 -248.8125 271.4375 C-247.52096438 273.67976299 -246.22929622 275.92194964 -244.9375 278.1640625 C-244.2878125 279.29231445 -243.638125 280.42056641 -242.96875 281.58300781 C-241.02293134 284.96020003 -239.07447709 288.33585596 -237.125 291.7109375 C-231.3733286 301.66959183 -225.63114619 311.63304117 -219.9375 321.625 C-215.15405316 330.01647748 -210.30014496 338.36532522 -205.42382812 346.703125 C-201.70542182 353.06473579 -198.01101353 359.43953456 -194.33618164 365.82641602 C-191.83457433 370.17246416 -189.32429525 374.51347837 -186.81396484 378.85449219 C-185.05116441 381.9112783 -183.30077884 384.97493472 -181.55078125 388.0390625 C-172.567679 403.65452406 -162.38113773 416.96823061 -150 430 C-149.38253906 430.68191406 -148.76507813 431.36382813 -148.12890625 432.06640625 C-137.40957326 443.50195302 -123.69460251 452.5259966 -110 460 C-109.37303223 460.34369629 -108.74606445 460.68739258 -108.10009766 461.04150391 C-90.64050988 470.4823518 -72.4649413 476.29530807 -53 480 C-52.31969727 480.13277344 -51.63939453 480.26554687 -50.93847656 480.40234375 C-7.93178036 488.40568084 40.07174697 476.91864926 76.01171875 452.41235352 C79.40084942 450.01767714 82.71024238 447.52876222 86 445 C86.96679688 444.27554687 87.93359375 443.55109375 88.9296875 442.8046875 C123.89356834 415.51833539 147.66295635 373.82378073 154 330 C154.15227051 329.01435059 154.15227051 329.01435059 154.30761719 328.00878906 C163.26737539 269.19094418 138.27475285 223.07261997 109.5625 174.08984375 C105.8678669 167.78429581 102.21147319 161.45705564 98.5625 155.125 C97.93996338 154.04484619 97.31742676 152.96469238 96.67602539 151.85180664 C95.41423174 149.66203666 94.15259466 147.47217645 92.89111328 145.28222656 C89.76319852 139.85340058 86.63141552 134.42680719 83.5 129 C82.24998121 126.83334417 80.99998122 124.6666775 79.75 122.5 C79.13125 121.4275 78.5125 120.355 77.875 119.25 C72.25 109.5 72.25 109.5 70.3737793 106.24755859 C69.12822429 104.08881297 67.88229546 101.93028299 66.63598633 99.77197266 C63.43982156 94.23585574 60.25095894 88.69572657 57.07421875 83.1484375 C27.92362603 32.29150637 -6.72374098 -6.1826935 -65.1171875 -22.45703125 C-72.34937048 -24.40200602 -79.59015762 -25.90536419 -87 -27 C-88.75376953 -27.27650391 -88.75376953 -27.27650391 -90.54296875 -27.55859375 C-136.12505987 -33.05516107 -183.88456394 -20.37980389 -220 8 Z " fill="#000001" transform="translate(366,104)"/>
<path d="M0 0 C0.93199219 0.45246094 1.86398437 0.90492188 2.82421875 1.37109375 C9.55927342 4.83725159 15.26998228 9.07036571 21 14 C21.81210937 14.67804688 22.62421875 15.35609375 23.4609375 16.0546875 C42.61688696 32.55176701 54.38711161 53.87069555 61.375 77.9375 C61.62596436 78.80133301 61.87692871 79.66516602 62.13549805 80.55517578 C69.12967802 105.86489224 64.72637331 133.0001233 51.98046875 155.734375 C49.40265169 159.9849767 46.63320974 164.07576388 43.82421875 168.17578125 C36.36819381 179.12128038 33.59593154 186.42733826 35 200 C37.16250285 209.02135028 42.04617887 217.02042214 46.78466797 224.90942383 C47.21408691 225.64185303 47.64350586 226.37428223 48.0859375 227.12890625 C48.6744751 228.10452515 48.6744751 228.10452515 49.27490234 229.09985352 C50.20527795 231.53793883 49.99339489 232.60545557 49 235 C47.09467414 237.29326771 45.0018847 238.73277192 42.4296875 240.20703125 C41.70998779 240.62202881 40.99028809 241.03702637 40.2487793 241.46459961 C39.46543213 241.90940674 38.68208496 242.35421387 37.875 242.8125 C37.05620361 243.28244385 36.23740723 243.7523877 35.39379883 244.23657227 C27.11994611 248.9694217 18.79318549 253.61013316 10.45458984 258.2277832 C8.93599365 259.07215942 8.93599365 259.07215942 7.38671875 259.93359375 C6.43587402 260.46065918 5.4850293 260.98772461 4.50537109 261.53076172 C2.43769175 262.74332206 0.59930649 264.01393632 -1.29296875 265.47265625 C-4 267 -4 267 -7.58203125 267.140625 C-11.91408737 265.69495599 -13.45143983 263.51538379 -15.6875 259.75 C-16.0997583 259.09322266 -16.5120166 258.43644531 -16.93676758 257.75976562 C-18.32231816 255.52392642 -19.66393933 253.26573623 -21 251 C-21.49757813 250.16662109 -21.99515625 249.33324219 -22.5078125 248.47460938 C-47.59776542 206.269274 -47.59776542 206.269274 -43.31640625 185.71875 C-39.69902642 173.11045517 -33.01482411 163.50195671 -25.2565918 153.1262207 C-20.41270041 146.62932163 -15.90281614 140.11911281 -12 133 C-11.47535156 132.05511719 -10.95070313 131.11023438 -10.41015625 130.13671875 C-5.64674554 120.38558158 -5.4100047 109.10152231 -8.0625 98.625 C-10.13018991 92.89983973 -13.48182459 87.92847849 -17 83 C-17.474375 82.32710938 -17.94875 81.65421875 -18.4375 80.9609375 C-24.65964297 72.93578719 -34.62600346 68.00250708 -44.5859375 66.6484375 C-54.93378047 66.08508788 -63.91840246 70.36885271 -71.72265625 76.9453125 C-72.47417969 77.62335938 -73.22570312 78.30140625 -74 79 C-74.88558594 79.78117187 -75.77117187 80.56234375 -76.68359375 81.3671875 C-91.20074033 94.93800136 -98.4216112 111.7563918 -100.4453125 131.42578125 C-101 134 -101 134 -102.1171875 135.91796875 C-105.2544713 137.7209306 -107.55439641 136.80805526 -111 136 C-113.91167866 134.98392655 -116.72972262 133.77910396 -119.5625 132.5625 C-129.85708035 128.26811541 -140.37420281 124.79766507 -150.99438477 121.41430664 C-152.23373779 121.01332764 -153.47309082 120.61234863 -154.75 120.19921875 C-155.85859375 119.84690186 -156.9671875 119.49458496 -158.109375 119.1315918 C-160.90410078 118.03754163 -162.85653836 117.09534442 -165 115 C-167.24035194 91.3269478 -150.4641764 62.77012558 -136 45 C-132.61646005 41.02767172 -129.06492695 37.22525944 -125.43310547 33.47998047 C-124.10064523 32.1039372 -122.78588058 30.71081911 -121.47265625 29.31640625 C-90.24769831 -3.12313677 -42.40067181 -20.80605212 0 0 Z " fill="#242124" transform="translate(305,160)"/>
<path d="M0 0 C9.70124183 6.62282739 17.97723968 15.12962551 20.30859375 27.01953125 C21.60546192 40.2043576 19.01745433 50.29385488 10.68359375 60.83203125 C4.53712697 68.30235241 -2.26581101 73.11459446 -12.0390625 74.2734375 C-26.0702327 74.70883918 -35.23463973 69.27143925 -45.4296875 59.88671875 C-51.17233054 53.81205995 -54.63339744 46.19888911 -55.31640625 37.83203125 C-55.39117187 37.04441406 -55.4659375 36.25679688 -55.54296875 35.4453125 C-56.09322915 25.29445616 -52.6914492 17.19910279 -46.12890625 9.51953125 C-33.48551817 -3.56637542 -16.66494544 -9.6552669 0 0 Z " fill="#242123" transform="translate(373.31640625,431.16796875)"/>
<path d="M0 0 C0.79351868 0.05329468 1.58703735 0.10658936 2.40460205 0.16149902 C3.75887299 0.23684875 3.75887299 0.23684875 5.14050293 0.3137207 C6.60782867 0.42689636 6.60782867 0.42689636 8.10479736 0.5423584 C9.63810699 0.63571472 9.63810699 0.63571472 11.20239258 0.73095703 C13.36354853 0.86470815 15.52415358 1.0076317 17.68414307 1.15905762 C20.78120365 1.37550508 23.87858015 1.56754184 26.97784424 1.74938965 C32.00746706 2.04660807 37.03560422 2.36341342 42.06362915 2.68643188 C57.08696234 3.64812628 72.0983933 4.57613307 87.14630127 5.0423584 C96.79167319 5.34899874 106.42237745 5.86287359 116.05792236 6.3861084 C130.67923755 7.1789231 145.29886118 7.8666309 159.93292236 8.3861084 C160.93988804 10.48695049 161.93828126 12.59190328 162.93292236 14.6986084 C163.48979736 15.87036621 164.04667236 17.04212402 164.62042236 18.24938965 C165.93292236 21.3861084 165.93292236 21.3861084 165.93292236 24.3861084 C154.81045424 24.66410295 143.77440992 23.90855183 132.68341064 23.15930176 C129.54425212 22.94768687 126.40466891 22.74357483 123.26495361 22.54040527 C121.2506016 22.40738165 119.23627758 22.27393317 117.22198486 22.14001465 C116.29270172 22.0795546 115.36341858 22.01909454 114.40597534 21.95680237 C100.1054974 20.98028313 100.1054974 20.98028313 96.30792236 18.0736084 C87.67416523 12.33999362 77.17721247 10.02553862 66.93292236 11.3861084 C61.54101446 12.74680214 56.57598344 14.29073435 51.93292236 17.3861084 C42.44529955 18.73962061 32.03939421 16.51676959 22.59820557 15.35974121 C19.74265927 15.01077073 16.88583194 14.67430913 14.02862549 14.3392334 C12.19064578 14.11862018 10.35275187 13.89729063 8.51495361 13.6751709 C7.67205276 13.57612457 6.82915192 13.47707825 5.96070862 13.37503052 C0.81905529 12.73642972 -4.06426747 11.73852984 -9.06707764 10.3861084 C-7.74428894 8.37911865 -6.40924739 6.38018917 -5.06707764 4.3861084 C-4.39524445 3.30251038 -4.39524445 3.30251038 -3.70983887 2.19702148 C-2.06707764 0.3861084 -2.06707764 0.3861084 0 0 Z " fill="#758DE9" transform="translate(185.06707763671875,204.6138916015625)"/>
<path d="M0 0 C1.39408333 -0.00569504 1.39408333 -0.00569504 2.81632996 -0.01150513 C5.89303268 -0.0189183 8.96879092 0.00251157 12.04541016 0.02490234 C14.20276784 0.02729004 16.36012763 0.0281914 18.51748657 0.02767944 C23.05199116 0.03081058 27.58618035 0.04737854 32.12060547 0.07421875 C37.86566555 0.10783266 43.61037339 0.11585755 49.35552025 0.11432838 C53.82236961 0.11487956 58.2891455 0.12597022 62.75597 0.14033127 C64.86934479 0.14659952 66.98272775 0.15061413 69.0961113 0.15211868 C80.19297945 0.16863824 91.25717916 0.4245076 102.32910156 1.20214844 C103.28595037 1.25523478 104.24279919 1.30832111 105.22864342 1.36301613 C111.28461252 1.85590542 114.32749484 2.90311773 118.52197266 7.36083984 C120.56439646 10.27858814 122.12940584 13.3037901 123.70947266 16.48583984 C111.33788789 16.60195145 99.02785937 16.25198915 86.67041016 15.68115234 C84.77358073 15.59601736 82.87674003 15.51113347 80.97988892 15.42648315 C77.02147173 15.24899028 73.06318634 15.06886164 69.10498047 14.88671875 C64.13153162 14.65801043 59.15783517 14.43534193 54.18403244 14.21448135 C36.03172429 13.40665446 17.88256199 12.57036031 -0.25146484 11.41552734 C-1.50528961 11.33674347 -2.75911438 11.25795959 -4.05093384 11.17678833 C-5.19524872 11.10072357 -6.3395636 11.02465881 -7.51855469 10.94628906 C-8.4970639 10.8812619 -9.47557312 10.81623474 -10.48373413 10.74923706 C-13.4524355 10.47064594 -16.35601509 10.0097787 -19.29052734 9.48583984 C-17.64749781 7.79586661 -15.97581422 6.13367591 -14.29052734 4.48583984 C-13.59913666 3.77914154 -12.90774597 3.07244324 -12.19540405 2.34432983 C-8.1029816 -0.27393143 -4.76309859 -0.06141779 0 0 Z " fill="#758DE9" transform="translate(213.29052734375,185.51416015625)"/>
<path d="M0 0 C0.495 0.99 0.495 0.99 1 2 C-27.71 1.67 -56.42 1.34 -86 1 C-64.51484554 -20.48515446 -23.3740516 -14.06095292 0 0 Z " fill="#748CE7" transform="translate(308,174)"/>
<path d="M0 0 C11.4688268 -0.35755838 22.33709467 1.57515477 33.60986328 3.47070312 C36.85936999 3.97804365 40.10254949 4.37284878 43.37109375 4.734375 C57.60166185 6.48412038 57.60166185 6.48412038 61.6953125 10.921875 C63.22775371 13.95824688 64.28037087 16.68344837 65 20 C63.72511719 19.80664062 62.45023437 19.61328125 61.13671875 19.4140625 C49.26049883 17.67457655 37.43696068 16.45783891 25.45385742 15.73486328 C10.11225694 14.75431133 10.11225694 14.75431133 5 13 C2.83203125 10.46875 2.83203125 10.46875 1.8125 7.5 C1.44769531 6.5203125 1.08289063 5.540625 0.70703125 4.53125 C0 2 0 2 0 0 Z " fill="#748CE6" transform="translate(273,364)"/>
<path d="M0 0 C10.02187498 -0.30976977 19.99344013 0.51234794 29.98168945 1.22680664 C32.95422745 1.43869235 35.92724291 1.64257185 38.90039062 1.84570312 C40.79690835 1.9786919 42.69339401 2.11213892 44.58984375 2.24609375 C45.47526352 2.3065538 46.36068329 2.36701385 47.27293396 2.42930603 C48.09801956 2.48929276 48.92310516 2.54927948 49.77319336 2.61108398 C50.49502304 2.66215805 51.21685272 2.71323212 51.96055603 2.76585388 C54.0417231 3.00479018 55.98158421 3.44686476 58 4 C59.33583899 8.84241633 60.25328119 12.93437617 60 18 C53.46942161 18.14302643 47.33790184 17.65320714 40.890625 16.64453125 C39.96078796 16.5010173 39.03095093 16.35750336 38.07293701 16.2096405 C36.12271427 15.90499887 34.17310976 15.59637501 32.22412109 15.28393555 C29.24715839 14.81204957 26.26668199 14.36974152 23.28515625 13.92773438 C21.38252508 13.62681169 19.48016989 13.32413769 17.578125 13.01953125 C16.69159241 12.89222122 15.80505981 12.76491119 14.8916626 12.63374329 C9.44060308 11.71743155 6.5387634 10.53323654 3 6 C1.1875 2.6875 1.1875 2.6875 0 0 Z " fill="#748CE6" transform="translate(298,237)"/>
<path d="M0 0 C7.11781543 -0.55314401 13.541605 1.4939352 20.375 3.3125 C30.8660376 6.02934331 41.28367837 8.39255176 52 10 C52 13.96 52 17.92 52 22 C46.08986936 21.02080676 40.18154311 20.03687159 34.28125 19 C21.54844043 16.78503073 8.8786787 15.08272078 -4 14 C-3.42294143 8.57676995 -2.77460791 4.82540505 0 0 Z " fill="#748DE8" transform="translate(276,339)"/>
<path d="M0 0 C5.73134676 0.59872502 11.07593335 1.6677635 16.62109375 3.21484375 C17.40646011 3.4306459 18.19182648 3.64644806 19.00099182 3.86878967 C20.64460052 4.32234686 22.28741286 4.77879914 23.92944336 5.23803711 C26.4522358 5.94160962 28.97877085 6.63039847 31.50585938 7.31835938 C33.10701612 7.76213679 34.70793669 8.20676738 36.30859375 8.65234375 C37.06579208 8.85762192 37.82299042 9.06290009 38.60313416 9.2743988 C40.42031059 9.78914672 42.21353463 10.38710761 44 11 C44.495 11.99 44.495 11.99 45 13 C43.88939218 15.77931002 42.40526549 18.35980423 41 21 C31.93465111 20.43063559 23.43766929 18.27379837 14.6875 16 C12.52400796 15.4447013 10.36000524 14.89144707 8.195755 14.33911133 C6.24509215 13.84021717 4.29572314 13.33627209 2.34643555 12.83203125 C-0.42806265 12.14220198 -3.1912215 11.52883694 -6 11 C-5.39305845 7.84669446 -4.3583335 5.81111133 -2.4375 3.25 C-1.98246094 2.63640625 -1.52742188 2.0228125 -1.05859375 1.390625 C-0.70925781 0.93171875 -0.35992187 0.4728125 0 0 Z " fill="#748CE6" transform="translate(289,318)"/>
<path d="M0 0 C9.18515491 0.95302144 18.03345857 2.84012395 27 5 C28.08595459 5.26119629 29.17190918 5.52239258 30.29077148 5.79150391 C35.26751888 7.01088231 40.17445311 8.2574414 45 10 C43.74194623 14.50802601 42.09592835 17.4912812 39 21 C29.53996251 19.57077657 20.48653708 17.01459785 11.3125 14.375 C9.82109931 13.95004407 8.32956364 13.52556153 6.83789062 13.1015625 C3.22368364 12.07315067 -0.38864499 11.03838024 -4 10 C-4 5.75354935 -2.18249194 3.61475228 0 0 Z " fill="#748CE6" transform="translate(302,299)"/>
<path d="M0 0 C11.06176643 0.59327813 21.91932906 1.98596293 32.875 3.5625 C34.54551083 3.79926659 36.21608349 4.03559734 37.88671875 4.27148438 C41.92520737 4.84265016 45.96282118 5.41965155 50 6 C50.02712066 7.43739513 50.04645067 8.87493863 50.0625 10.3125 C50.07410156 11.11300781 50.08570313 11.91351563 50.09765625 12.73828125 C50 15 50 15 49 18 C46.140625 17.5234375 43.28125 17.046875 40.421875 16.5703125 C39.29265625 16.38210938 38.1634375 16.19390625 37 16 C26.75 14.29166667 16.5 12.58333333 6.25 10.875 C4.74179687 10.62363281 4.74179687 10.62363281 3.203125 10.3671875 C2.47609375 10.24601562 1.7490625 10.12484375 1 10 C0.67 6.7 0.34 3.4 0 0 Z " fill="#758DE8" transform="translate(309,260)"/>
<path d="M0 0 C15.88187307 1.79925848 31.4037167 4.5095315 47 8 C45.51911112 11.77948596 43.84952557 15.3850182 42 19 C34.06907463 18.37545032 26.62790507 16.5509091 18.9375 14.5625 C17.70966797 14.24990234 16.48183594 13.93730469 15.21679688 13.61523438 C12.85730708 13.01424424 10.49838716 12.41101082 8.14013672 11.80517578 C4.43065071 10.85401073 0.71649889 9.92332494 -3 9 C-2.43945339 5.63672037 -1.58158962 3.00887781 0 0 Z " fill="#748CE6" transform="translate(159,243)"/>
<path d="M0 0 C1.381875 0.18175781 2.76375 0.36351562 4.1875 0.55078125 C15.82095686 2.07651408 27.45734317 3.57146241 39.10351562 4.99731445 C43.75536589 5.57167071 48.38423096 6.17492155 53 7 C52.04270084 8.12588014 51.08412105 9.2506715 50.125 10.375 C49.59132812 11.00148437 49.05765625 11.62796875 48.5078125 12.2734375 C45.27328182 15.97722651 45.27328182 15.97722651 41.25 16.3125 C36.1249523 16.19143588 31.36191501 15.08027645 26.3828125 13.92578125 C19.68206677 12.43833817 12.87040202 11.47944102 6.08764648 10.44628906 C4.58439819 10.20797363 4.58439819 10.20797363 3.05078125 9.96484375 C1.69980347 9.75782837 1.69980347 9.75782837 0.3215332 9.54663086 C-2 9 -2 9 -5 7 C-3.35 4.69 -1.7 2.38 0 0 Z " fill="#738BE5" transform="translate(169,225)"/>
<path d="M0 0 C8.86633154 1.34969563 17.72748953 2.72937973 26.57836914 4.17724609 C27.91682339 4.3949693 29.25570485 4.6100801 30.5949707 4.82275391 C32.56561635 5.13602263 34.53478976 5.45850894 36.50390625 5.78125 C37.65705322 5.96751953 38.8102002 6.15378906 39.99829102 6.34570312 C43 7 43 7 47 9 C46.01 12.3 45.02 15.6 44 19 C37.3737076 18.36481694 31.22044297 16.82931647 24.8125 15.0625 C17.29901434 13.03685518 9.96166193 11.27402188 2.23046875 10.32421875 C0 10 0 10 -2 9 C-1.34 6.03 -0.68 3.06 0 0 Z " fill="#738BE4" transform="translate(309,280)"/>
<path d="M0 0 C12.96433708 -0.57619276 24.81929107 0.93835764 37.51513672 3.51269531 C42.64800691 4.51929866 47.82315425 5.25765985 53 6 C52.45276317 9.37462715 51.9451 11.08235 50 14 C38.08527451 12.43818891 26.18760187 10.77817112 14.3125 8.9375 C13.23234619 8.77540039 12.15219238 8.61330078 11.03930664 8.44628906 C10.03246826 8.28741211 9.02562988 8.12853516 7.98828125 7.96484375 C7.09665283 7.8268335 6.20502441 7.68882324 5.28637695 7.54663086 C3 7 3 7 0 5 C-0.1875 2.375 -0.1875 2.375 0 0 Z " fill="#7188DF" transform="translate(329,466)"/>
<path d="M0 0 C16.77527104 0.44803365 33.53249697 1.5988448 50 5 C48.39050729 6.40181624 46.70331934 7.71382009 45 9 C44.44086914 9.45576416 43.88173828 9.91152832 43.30566406 10.38110352 C36.35676593 15.20501144 29.72864731 14.00221037 21.86889648 12.62548828 C19.67959186 12.24863876 17.4876593 11.94012456 15.28710938 11.63671875 C5.19939673 10.08939196 5.19939673 10.08939196 2.13134766 7.30273438 C0.72634721 4.92589568 0 2.7759309 0 0 Z " fill="#748CE6" transform="translate(285,389)"/>
<path d="M0 0 C5.51183446 -0.22448232 10.1992291 0.55500983 15.5234375 1.93359375 C16.31021881 2.13098648 17.09700012 2.32837921 17.90762329 2.53175354 C19.55740229 2.94737106 21.20618977 3.3669426 22.85400391 3.7902832 C25.38610796 4.44035175 27.92118765 5.07758322 30.45703125 5.71289062 C32.06268765 6.11905054 33.66816328 6.52592592 35.2734375 6.93359375 C36.41394058 7.22114784 36.41394058 7.22114784 37.57748413 7.51451111 C42.88352407 8.88352407 42.88352407 8.88352407 44 10 C43.91062197 11.52519276 43.75462854 13.04681929 43.5625 14.5625 C43.46066406 15.38878906 43.35882813 16.21507812 43.25390625 17.06640625 C43.17011719 17.70449219 43.08632812 18.34257812 43 19 C39.39262502 20.30081428 37.40205678 19.69043471 33.88671875 18.3046875 C32.89220703 17.92046631 31.89769531 17.53624512 30.87304688 17.14038086 C29.82181641 16.72280518 28.77058594 16.30522949 27.6875 15.875 C25.52556036 15.03824085 23.36279847 14.20360302 21.19921875 13.37109375 C20.14395996 12.96358887 19.08870117 12.55608398 18.00146484 12.13623047 C12.06766046 9.88993751 6.04388015 7.92745537 0 6 C0 4.02 0 2.04 0 0 Z " fill="#748CE7" transform="translate(152,263)"/>
<path d="M0 0 C11.91905449 -0.30290833 23.2942029 -0.52124407 34.9453125 2.28125 C37.61429725 2.90924641 40.08648217 3.24347738 42.8125 3.4375 C46 4 46 4 47.5 5.8125 C48 8 48 8 48 12 C41.06937646 12.2565195 34.87734993 11.56460762 28.125 10.0625 C17.75237463 7.90212344 7.573714 7.22714745 -3 7 C-1.125 2.25 -1.125 2.25 0 0 Z " fill="#7188DE" transform="translate(334,449)"/>
<path d="M0 0 C3.62576203 0.45242692 7.25044045 0.91304633 10.875 1.375 C11.88820313 1.50132812 12.90140625 1.62765625 13.9453125 1.7578125 C20.36176848 2.58043506 26.67652015 3.6343247 33 5 C33 5.66 33 6.32 33 7 C27.47918911 10.10712304 22.97585914 11.70955921 16.62890625 10.74609375 C9.88661923 8.83260665 4.08402223 5.72116771 0 0 Z " fill="#7188DE" transform="translate(337,484)"/>
<path d="M0 0 C2.64 0.33 5.28 0.66 8 1 C6.75 2.5625 6.75 2.5625 5 4 C2.875 3.875 2.875 3.875 1 3 C0.67 2.01 0.34 1.02 0 0 Z " fill="#6D83D5" transform="translate(297,410)"/>
</svg>
