<?xml version="1.0" encoding="UTF-8"?>
<svg version="1.1" xmlns="http://www.w3.org/2000/svg" width="507" height="507">
<path d="M0 0 C9.69132691 8.4388461 19.1304621 17.44514694 26.625 27.9375 C26.625 28.5975 26.625 29.2575 26.625 29.9375 C27.14835937 30.1540625 27.67171875 30.370625 28.2109375 30.59375 C31.57063097 32.46387064 34.36028293 34.92752515 37.25 37.4375 C37.87173096 37.97648926 38.49346191 38.51547852 39.1340332 39.07080078 C49.17077541 47.84825864 57.65994439 57.28327771 65.625 67.9375 C66.2746875 68.80375 66.924375 69.67 67.59375 70.5625 C72.50878 77.35417781 76.62353461 84.58508342 80.625 91.9375 C81.52412109 93.57332031 81.52412109 93.57332031 82.44140625 95.2421875 C89.34711086 108.37384056 93.94560129 122.35814342 97.4375 136.75 C97.72971436 137.94701538 97.72971436 137.94701538 98.02783203 139.16821289 C101.03248737 152.25500905 102.0063641 165.19248691 101.9375 178.5625 C101.93476578 179.67251877 101.93476578 179.67251877 101.93197632 180.80496216 C101.88144983 193.04438736 101.19073711 204.93459793 98.625 216.9375 C98.45871094 217.72012207 98.29242188 218.50274414 98.12109375 219.30908203 C89.07895571 260.15777787 66.04769615 299.35700071 32.625 324.9375 C31.61953125 325.74703125 30.6140625 326.5565625 29.578125 327.390625 C-8.82201304 358.14031951 -57.68211798 369.51269803 -106.12890625 365.63720703 C-120.28014462 364.04295874 -133.94722023 360.62412925 -147.375 355.9375 C-148.02549316 355.71368652 -148.67598633 355.48987305 -149.34619141 355.25927734 C-181.88021816 343.82840308 -214.19433677 321.19042853 -234.375 292.9375 C-234.375 292.2775 -234.375 291.6175 -234.375 290.9375 C-234.93316406 290.68613281 -235.49132812 290.43476563 -236.06640625 290.17578125 C-251.04780683 282.14007231 -263.54143219 266.47023881 -273.375 252.9375 C-273.79346191 252.36338379 -274.21192383 251.78926758 -274.64306641 251.19775391 C-302.79454787 212.04050403 -315.3560359 162.07989897 -307.77734375 114.25537109 C-301.62737557 78.82588209 -287.59910188 45.7804237 -263.375 18.9375 C-262.16545575 17.52186707 -260.95696282 16.10533449 -259.75 14.6875 C-198.24908353 -54.62765056 -87.99934201 -64.31557295 0 0 Z " fill="#B3C6F1" transform="translate(375.375,111.0625)"/>
<path d="M0 0 C0.75410156 0.66257813 1.50820313 1.32515625 2.28515625 2.0078125 C3.09082031 2.67039063 3.89648438 3.33296875 4.7265625 4.015625 C16.13760582 13.69447552 24.51414515 25.76407272 31.28515625 39.0078125 C31.82914063 40.07 32.373125 41.1321875 32.93359375 42.2265625 C45.13909256 68.24843815 46.25191293 100.04287437 36.5546875 127.07421875 C24.87366558 157.1956567 3.98339459 179.41408181 -25.0859375 193.4453125 C-31.47879334 196.19788767 -37.9956615 198.21972427 -44.71484375 200.0078125 C-45.88273438 200.32878906 -47.050625 200.64976562 -48.25390625 200.98046875 C-69.4767737 206.03913449 -91.35844898 203.16496531 -111.71484375 196.0078125 C-112.67519531 195.67265625 -113.63554687 195.3375 -114.625 194.9921875 C-127.85237665 189.93623196 -139.68949679 181.95327622 -149.71484375 172.0078125 C-150.56046875 171.2034375 -151.40609375 170.3990625 -152.27734375 169.5703125 C-153.08171875 168.7246875 -153.88609375 167.8790625 -154.71484375 167.0078125 C-155.71257812 165.98494141 -155.71257812 165.98494141 -156.73046875 164.94140625 C-177.58819953 142.84214388 -186.82371187 112.72028533 -186.05859375 82.7890625 C-184.54185634 50.28754653 -168.5766172 23.44798465 -145.37207031 1.51708984 C-141.74949155 -1.7820825 -137.89566934 -4.45720728 -133.71484375 -6.9921875 C-132.70550781 -7.63414062 -131.69617188 -8.27609375 -130.65625 -8.9375 C-90.59234899 -33.30005714 -36.16508929 -30.7916453 0 0 Z " fill="#B3C6F0" transform="translate(324.71484375,163.9921875)"/>
<path d="M0 0 C9.69132691 8.4388461 19.1304621 17.44514694 26.625 27.9375 C26.625 28.5975 26.625 29.2575 26.625 29.9375 C27.14835937 30.1540625 27.67171875 30.370625 28.2109375 30.59375 C31.57063097 32.46387064 34.36028293 34.92752515 37.25 37.4375 C37.87173096 37.97648926 38.49346191 38.51547852 39.1340332 39.07080078 C49.17077541 47.84825864 57.65994439 57.28327771 65.625 67.9375 C66.2746875 68.80375 66.924375 69.67 67.59375 70.5625 C72.50878 77.35417781 76.62353461 84.58508342 80.625 91.9375 C81.52412109 93.57332031 81.52412109 93.57332031 82.44140625 95.2421875 C89.34711086 108.37384056 93.94560129 122.35814342 97.4375 136.75 C97.72971436 137.94701538 97.72971436 137.94701538 98.02783203 139.16821289 C101.03248737 152.25500905 102.0063641 165.19248691 101.9375 178.5625 C101.93476578 179.67251877 101.93476578 179.67251877 101.93197632 180.80496216 C101.88144983 193.04438736 101.19073711 204.93459793 98.625 216.9375 C98.45871094 217.72012207 98.29242188 218.50274414 98.12109375 219.30908203 C89.07895571 260.15777787 66.04769615 299.35700071 32.625 324.9375 C31.61953125 325.74703125 30.6140625 326.5565625 29.578125 327.390625 C-8.82201304 358.14031951 -57.68211798 369.51269803 -106.12890625 365.63720703 C-120.28014462 364.04295874 -133.94722023 360.62412925 -147.375 355.9375 C-148.02549316 355.71368652 -148.67598633 355.48987305 -149.34619141 355.25927734 C-181.88021816 343.82840308 -214.19433677 321.19042853 -234.375 292.9375 C-234.375 292.2775 -234.375 291.6175 -234.375 290.9375 C-234.93316406 290.68613281 -235.49132812 290.43476563 -236.06640625 290.17578125 C-251.04780683 282.14007231 -263.54143219 266.47023881 -273.375 252.9375 C-273.79346191 252.36338379 -274.21192383 251.78926758 -274.64306641 251.19775391 C-302.79454787 212.04050403 -315.3560359 162.07989897 -307.77734375 114.25537109 C-301.62737557 78.82588209 -287.59910188 45.7804237 -263.375 18.9375 C-262.16545575 17.52186707 -260.95696282 16.10533449 -259.75 14.6875 C-198.24908353 -54.62765056 -87.99934201 -64.31557295 0 0 Z M-242.6796875 9.3671875 C-245.19342874 11.76434943 -247.79120964 14.00189753 -250.4375 16.25 C-256.60932954 21.78678598 -261.45533647 28.30319779 -266.375 34.9375 C-267.01308594 35.78183594 -267.65117187 36.62617188 -268.30859375 37.49609375 C-284.3355076 59.44519286 -294.35318102 85.38154249 -299.375 111.9375 C-299.71724609 113.74154297 -299.71724609 113.74154297 -300.06640625 115.58203125 C-306.65827655 158.12955772 -296.7131969 206.68655541 -271.375 241.9375 C-270.95524902 242.52805176 -270.53549805 243.11860352 -270.10302734 243.72705078 C-242.59276759 282.22227686 -203.95178235 308.38446941 -157.375 317.9375 C-156.3908461 318.14317848 -156.3908461 318.14317848 -155.3868103 318.35301208 C-144.5198933 320.58772097 -134.08208491 321.43402511 -123 321.3125 C-122.23708649 321.30784729 -121.47417297 321.30319458 -120.68814087 321.29840088 C-109.02692173 321.2152685 -97.74573732 320.6726698 -86.375 317.9375 C-85.08843506 317.63948486 -85.08843506 317.63948486 -83.77587891 317.33544922 C-41.08173293 307.23860513 -3.48839797 283.29483141 22.625 247.9375 C23.25124268 247.1017041 23.25124268 247.1017041 23.89013672 246.24902344 C50.94781698 209.69271285 61.61617473 160.8782226 55.85302734 116.06494141 C49.28245288 74.14231348 27.06914946 31.70495901 -6.375 4.9375 C-7.28121094 4.19371094 -8.18742187 3.44992188 -9.12109375 2.68359375 C-76.4073824 -51.5291296 -179.24682293 -51.30021159 -242.6796875 9.3671875 Z " fill="#000001" transform="translate(375.375,111.0625)"/>
<path d="M0 0 C0.75410156 0.66257813 1.50820313 1.32515625 2.28515625 2.0078125 C3.09082031 2.67039063 3.89648438 3.33296875 4.7265625 4.015625 C16.13760582 13.69447552 24.51414515 25.76407272 31.28515625 39.0078125 C31.82914063 40.07 32.373125 41.1321875 32.93359375 42.2265625 C45.13909256 68.24843815 46.25191293 100.04287437 36.5546875 127.07421875 C24.87366558 157.1956567 3.98339459 179.41408181 -25.0859375 193.4453125 C-31.47879334 196.19788767 -37.9956615 198.21972427 -44.71484375 200.0078125 C-45.88273438 200.32878906 -47.050625 200.64976562 -48.25390625 200.98046875 C-69.4767737 206.03913449 -91.35844898 203.16496531 -111.71484375 196.0078125 C-112.67519531 195.67265625 -113.63554687 195.3375 -114.625 194.9921875 C-127.85237665 189.93623196 -139.68949679 181.95327622 -149.71484375 172.0078125 C-150.56046875 171.2034375 -151.40609375 170.3990625 -152.27734375 169.5703125 C-153.08171875 168.7246875 -153.88609375 167.8790625 -154.71484375 167.0078125 C-155.71257812 165.98494141 -155.71257812 165.98494141 -156.73046875 164.94140625 C-177.58819953 142.84214388 -186.82371187 112.72028533 -186.05859375 82.7890625 C-184.54185634 50.28754653 -168.5766172 23.44798465 -145.37207031 1.51708984 C-141.74949155 -1.7820825 -137.89566934 -4.45720728 -133.71484375 -6.9921875 C-132.70550781 -7.63414062 -131.69617188 -8.27609375 -130.65625 -8.9375 C-90.59234899 -33.30005714 -36.16508929 -30.7916453 0 0 Z M-101.71484375 -4.9921875 C-102.3701709 -4.77256348 -103.02549805 -4.55293945 -103.70068359 -4.32666016 C-129.17409816 4.48458459 -148.74144498 23.19778958 -160.85546875 47 C-163.95223625 53.4174357 -165.91580305 60.13212658 -167.71484375 67.0078125 C-168.08416016 68.3690625 -168.08416016 68.3690625 -168.4609375 69.7578125 C-174.05460651 94.44711022 -167.30931679 121.2509955 -154.45654297 142.50708008 C-150.03282275 149.43294993 -144.54307753 155.25182956 -138.71484375 161.0078125 C-138.02648437 161.69488281 -137.338125 162.38195312 -136.62890625 163.08984375 C-117.05598475 181.38267967 -90.96949323 188.08557337 -64.91796875 187.39453125 C-57.07574753 187.01809513 -50.13906915 185.57193549 -42.71484375 183.0078125 C-41.59335937 182.63398438 -40.471875 182.26015625 -39.31640625 181.875 C-26.64187661 177.32902856 -15.70049217 171.04102948 -5.71484375 162.0078125 C-4.43287109 160.84958984 -4.43287109 160.84958984 -3.125 159.66796875 C14.24771653 143.15184225 25.78100886 119.70803838 26.62109375 95.625 C27.0257851 65.54294334 19.41180394 42.11184958 -1.71484375 20.0078125 C-2.61589844 18.99460937 -2.61589844 18.99460937 -3.53515625 17.9609375 C-12.92544721 7.79828495 -25.7001424 0.40855996 -38.71484375 -3.9921875 C-39.77469482 -4.35401123 -39.77469482 -4.35401123 -40.85595703 -4.72314453 C-60.41172849 -11.1154873 -82.14357622 -11.60592618 -101.71484375 -4.9921875 Z " fill="#030304" transform="translate(324.71484375,163.9921875)"/>
<path d="M0 0 C2.65527344 1.13891602 2.65527344 1.13891602 5.359375 2.75390625 C6.37902344 3.35332031 7.39867187 3.95273438 8.44921875 4.5703125 C9.53847656 5.22773438 10.62773437 5.88515625 11.75 6.5625 C12.90673576 7.24747417 14.06430424 7.93104385 15.22265625 8.61328125 C17.62761083 10.03120342 20.02887559 11.45509179 22.42773438 12.88330078 C27.91885436 16.14576603 33.46195867 19.31809594 39 22.5 C41.14867645 23.73916909 43.29711275 24.97875469 45.4453125 26.21875 C49.3741425 28.48542819 53.30327938 30.75157239 57.23284912 33.01696777 C58.98341241 34.02619104 60.73390411 35.03553836 62.484375 36.04492188 C64.66392165 37.3016766 66.84359832 38.55820586 69.0234375 39.81445312 C71.01507324 40.96298018 73.00566697 42.1133164 74.99511719 43.265625 C77.12116506 44.49274915 79.25257771 45.71060044 81.38769531 46.921875 C82.47920898 47.54578125 83.57072266 48.1696875 84.6953125 48.8125 C85.68805176 49.37582031 86.68079102 49.93914062 87.70361328 50.51953125 C90.63532346 52.40958978 90.85810956 53.37568206 91.625 56.75 C91 60 91 60 89.38989258 61.38598633 C88.66954834 61.84255615 87.9492041 62.29912598 87.20703125 62.76953125 C86.3862207 63.2907959 85.56541016 63.81206055 84.71972656 64.34912109 C79.87691403 67.288717 74.98294392 70.1300753 70.0625 72.9375 C68.3326544 73.92992138 66.60281157 74.92234765 64.87313843 75.91506958 C63.09060128 76.93764091 61.30731803 77.95890134 59.52392578 78.97998047 C54.00810228 82.13969902 48.50476939 85.32107738 43 88.5 C40.8607425 89.73448836 38.7214192 90.96886272 36.58203125 92.203125 C35.51291504 92.81994141 34.44379883 93.43675781 33.34228516 94.07226562 C30.42404677 95.75542197 27.50545855 97.43796834 24.5866394 99.12011719 C22.19573403 100.49806938 19.80501328 101.87634172 17.41430664 103.25463867 C15.73016037 104.22540982 14.04574769 105.19571874 12.36132812 106.16601562 C11.33845703 106.75576172 10.31558594 107.34550781 9.26171875 107.953125 C8.36412842 108.47036133 7.46653809 108.98759766 6.54174805 109.52050781 C4.79748593 110.53580206 3.07291056 111.5854578 1.36645508 112.66308594 C-1.67616972 114.38199787 -3.55999107 114.52347962 -7 114 C-9.62730748 111.22669223 -10.37578567 109.30458801 -10.38768005 105.52172852 C-10.39758469 104.63011017 -10.40748932 103.73849182 -10.41769409 102.81985474 C-10.41319244 101.84934174 -10.4086908 100.87882874 -10.40405273 99.87890625 C-10.41091599 98.85086884 -10.41777924 97.82283142 -10.42485046 96.76364136 C-10.4431623 93.3631207 -10.43927494 89.96305942 -10.43359375 86.5625 C-10.43815311 84.20125172 -10.44345794 81.84000477 -10.44947815 79.47875977 C-10.45841765 74.52907928 -10.4559761 69.57956008 -10.44604492 64.62988281 C-10.43454853 58.28082176 -10.45477332 51.9323163 -10.48396206 45.58332825 C-10.50228931 40.70719862 -10.5020386 35.83120302 -10.49632454 30.95504761 C-10.49617093 28.6138328 -10.50224776 26.27260914 -10.51461601 23.931427 C-10.52945985 20.66095895 -10.51889718 17.39152886 -10.50170898 14.12109375 C-10.51137695 13.15058075 -10.52104492 12.18006775 -10.53100586 11.18014526 C-10.45894644 4.6468317 -10.45894644 4.6468317 -8.15083313 1.39381409 C-5.19948811 -0.51875933 -3.46232017 -0.47375369 0 0 Z " fill="#010101" transform="translate(221,196)"/>
</svg>
